<?xml version="1.0" encoding="UTF-8" standalone="no"?>
<svg xmlns="http://www.w3.org/2000/svg" width="133mm" height="56.79999923706055mm" viewBox="0 0 133 56.79999923706055">
<desc>Created with Glowforge for Fusion 360. To download visit: https://cam.autodesk.com/hsmposts?p=glowforge</desc>
<!-- CAM Setup Info:
Work Area Width: 133mm
Work Area Height: 56.79999923706055mm
Work Area Too Small?: false
Stock box Upper Right: 64.5,26.399999618530273
Stock box Lower Left: -64.5,-26.399999618530273
Origin: 0,0
Selected Colors: #0000d3, #02abea, #1fb714, #dd0907, #f20884, #fbf305
-->
<g id="global-translation-frame" transform="translate(66.5, 28.4) scale(1, -1)">
<g id="opperation-1">
    <title>2D Profile1 (Op: 1/1)</title>
    <path d="M 32.9 17.735
             A 1.95 1.95 0 0 1 34.85 19.685
             A 1.95 1.95 0 0 1 32.9 21.635
             A 1.95 1.95 0 0 1 30.95 19.685
             A 1.95 1.95 0 0 1 32.9 17.735
             M 31.233 -18.674
             A 1.95 1.95 0 0 1 31.889 -21.352
             A 1.95 1.95 0 0 1 34.567 -20.696
             A 1.95 1.95 0 0 1 33.911 -18.018
             A 1.95 1.95 0 0 1 31.233 -18.674
             M -31.889 -18.018
             A 1.95 1.95 0 0 1 -34.567 -18.674
             A 1.95 1.95 0 0 1 -33.911 -21.352
             A 1.95 1.95 0 0 1 -31.233 -20.696
             A 1.95 1.95 0 0 1 -31.889 -18.018
             M -32.848 17.736
             A 1.95 1.95 0 0 1 -30.951 19.737
             A 1.95 1.95 0 0 1 -32.952 21.634
             A 1.95 1.95 0 0 1 -34.849 19.633
             A 1.95 1.95 0 0 1 -32.848 17.736
             M -32.848 25.4
             L 58.42 25.4
             L 63.5 20.32
             L 63.5 -20.32
             L 58.42 -25.4
             L -58.42 -25.4
             L -63.5 -20.32
             L -63.5 20.32
             L -58.42 25.4
             L -32.848 25.4" fill="none" stroke="#0000d3" stroke-width="0.1"/>
</g>
</g>
</svg>
