<?xml version="1.0" encoding="UTF-8"?>
<!DOCTYPE svg PUBLIC "-//W3C//DTD SVG 1.1//EN" "http://www.w3.org/Graphics/SVG/1.1/DTD/svg11.dtd">

<svg xmlns="http://www.w3.org/2000/svg" xmlns:xlink="http://www.w3.org/1999/xlink" xmlns:xs="http://www.w3.org/2001/XMLSchema" xmlns:wb="http://www.ti.com/webench" version="1.1" width="100%" height="100%" viewBox="0 0 1510.0 500.0" preserveAspectRatio="xMidYMid meet">
  <defs>
    <g id="WB_CONTINUATION">
      <circle xmlns="" opacity="0.01" fill="#ffffff" stroke="#000000" stroke-width="0" cx="0" cy="0" r="14" />
      <line fill="none" stroke="#CC0000" stroke-width="2" x1="0" y1="10" x2="0" y2="-10" />
      <line fill="none" stroke="#CC0000" stroke-width="2" x1="-10" y1="-10" x2="10" y2="-10" />
    </g>
    <g id="WB_BLOCK_IO">
      <circle xmlns="" opacity="0.01" fill="#ffffff" stroke="#000000" stroke-width="0" cx="0" cy="0" r="14" />
      <line stroke="#CC0000" fill="none" stroke-width="2" x1="-5" y1="0" x2="5" y2="0" />
    </g>
    <g id="WB_RESISTOR">
      <circle xmlns="" opacity="0.01" fill="#ffffff" stroke="#000000" stroke-width="0" cx="0" cy="0" r="14" />
      <polyline fill="none" stroke="#115566" stroke-width="2" stroke-linecap="round" stroke-linejoin="round" points="30,0 20,0 15,-6 7.5,6 0,-6 -7.5,6 -15,-6 -20,0 -30,0" />
    </g>
    <g id="WB_PRIM_DC_VOLTAGE_SOURCE">
      <circle xmlns="" opacity="0.01" fill="#ffffff" stroke="#000000" stroke-width="0" cx="0" cy="0" r="14" />
      <line fill="none" stroke="#CC0000" stroke-width="2" x1="-8" y1="0" x2="-30" y2="0" />
      <line fill="none" stroke="#CC0000" stroke-width="2" x1="-7" y1="12" x2="-7" y2="-12" />
      <line fill="none" stroke="#CC0000" stroke-width="2" x1="4" y1="12" x2="4" y2="-12" />
      <line fill="none" stroke="#CC0000" stroke-width="2" x1="30" y1="0" x2="11" y2="0" />
      <line fill="none" stroke="#CC0000" stroke-width="2" x1="-2" y1="5" x2="-2" y2="-5" />
      <line fill="none" stroke="#CC0000" stroke-width="2" x1="-1" y1="5" x2="-1" y2="-5" />
      <line fill="none" stroke="#CC0000" stroke-width="2" x1="-14" y1="-9" x2="-14" y2="-15" />
      <line fill="none" stroke="#CC0000" stroke-width="2" x1="-11" y1="-12" x2="-17" y2="-12" />
      <line fill="none" stroke="#CC0000" stroke-width="2" x1="13" y1="-10" x2="13" y2="-15" />
      <line fill="none" stroke="#CC0000" stroke-width="2" x1="10" y1="5" x2="10" y2="-5" />
      <line fill="none" stroke="#CC0000" stroke-width="2" x1="9" y1="5" x2="9" y2="-5" />
    </g>
    <g id="WB_ZERO_VOLT_SOURCE">
      <circle xmlns="" opacity="0.01" fill="#ffffff" stroke="#000000" stroke-width="0" cx="0" cy="0" r="14" />
      <line stroke="#CC0000" fill="none" stroke-width="2" x1="-5" y1="0" x2="5" y2="0" />
    </g>
    <g id="WB_CAPACITOR">
      <circle xmlns="" opacity="0.01" fill="#ffffff" stroke="#000000" stroke-width="0" cx="0" cy="0" r="14" />
      <line y1="0" x2="20" stroke="#115566" x1="30" fill="none" stroke-width="2" y2="0" />
      <line y1="0" x2="-20" stroke="#115566" x1="-30" fill="none" stroke-width="2" y2="0" />
      <polyline stroke="#115566" points="3,12 3,-12  " stroke-linejoin="round" fill="none" stroke-width="2" stroke-linecap="round" />
      <polyline stroke="#115566" points="-20,0 -3,0  " stroke-linejoin="round" fill="none" stroke-width="2" stroke-linecap="round" />
      <polyline stroke="#115566" points="3,0 20,0  " stroke-linejoin="round" fill="none" stroke-width="2" stroke-linecap="round" />
      <polyline stroke="#115566" points="-3,12 -3,-12  " stroke-linejoin="round" fill="none" stroke-width="2" stroke-linecap="round" />
    </g>
    <g id="WB_SOURCE_RESISTOR">
      <circle xmlns="" opacity="0.01" fill="#ffffff" stroke="#000000" stroke-width="0" cx="0" cy="0" r="14" />
      <polyline fill="none" stroke="#CC0000" stroke-width="2" stroke-linecap="round" stroke-linejoin="round" points="30,0 20,0 15,-6 7.5,6 0,-6 -7.5,6 -15,-6 -20,0 -30,0" />
    </g>
    <g id="WB_PRIMITIVE_BATTERY">
      <circle xmlns="" opacity="0.01" fill="#ffffff" stroke="#000000" stroke-width="0" cx="0" cy="0" r="14" />
      <line fill="none" stroke="#CC0000" stroke-width="2" x1="-8" y1="0" x2="-30" y2="0" />
      <line fill="none" stroke="#CC0000" stroke-width="2" x1="-7" y1="12" x2="-7" y2="-12" />
      <line fill="none" stroke="#CC0000" stroke-width="2" x1="4" y1="12" x2="4" y2="-12" />
      <line fill="none" stroke="#CC0000" stroke-width="2" x1="30" y1="0" x2="11" y2="0" />
      <line fill="none" stroke="#CC0000" stroke-width="2" x1="-2" y1="5" x2="-2" y2="-5" />
      <line fill="none" stroke="#CC0000" stroke-width="2" x1="-1" y1="5" x2="-1" y2="-5" />
      <line fill="none" stroke="#CC0000" stroke-width="2" x1="-14" y1="-9" x2="-14" y2="-15" />
      <line fill="none" stroke="#CC0000" stroke-width="2" x1="-11" y1="-12" x2="-17" y2="-12" />
      <line fill="none" stroke="#CC0000" stroke-width="2" x1="13" y1="-10" x2="13" y2="-15" />
      <line fill="none" stroke="#CC0000" stroke-width="2" x1="10" y1="5" x2="10" y2="-5" />
      <line fill="none" stroke="#CC0000" stroke-width="2" x1="9" y1="5" x2="9" y2="-5" />
    </g>
    <g id="WB_CURRENT_LOAD">
      <circle xmlns="" opacity="0.01" fill="#ffffff" stroke="#000000" stroke-width="0" cx="0" cy="0" r="14" />
      <path fill="none" stroke="#CC0000" stroke-width="2" stroke-linecap="round" stroke-linejoin="round" d="M-15,0c 0.1, 4.2, 1.6, 7.7, 4.4, 10.6c 2.8, 2.8, 6.4, 4.3, 10.6, 4.4c 4.3-0.1, 7.8-1.6, 10.6 -4.4c 2.9-2.9, 4.3-6.4, 4.4-10.6" />
      <path fill="none" stroke="#CC0000" stroke-width="2" stroke-linecap="round" stroke-linejoin="round" d="M15,0c -0.1,-4.2,-1.6,-7.7,-4.4,-10.6c-2.8,-2.8,-6.4,-4.3,-10.6,-4.4c-4.3,0.1 -7.8,1.6 -10.6,4.4c-2.9,2.9 -4.3,6.4 -4.4,10.6" />
      <line fill="none" stroke="#CC0000" stroke-width="2" x1="30" y1="0" x2="15" y2="0" />
      <line fill="none" stroke="#CC0000" stroke-width="2" x1="-15" y1="0" x2="-30" y2="0" />
      <line fill="none" stroke="#CC0000" stroke-width="2" stroke-linecap="round" stroke-linejoin="round" x1="3" y1="7" x2="12" y2="0" />
      <line fill="none" stroke="#CC0000" stroke-width="2" stroke-linecap="round" stroke-linejoin="round" x1="3" y1="-7" x2="12" y2="0" />
      <line fill="none" stroke="#CC0000" stroke-width="2" stroke-linecap="round" stroke-linejoin="round" x1="12" y1="0" x2="-12" y2="0" />
    </g>
    <g id="WB_ZENER">
      <circle xmlns="" opacity="0.01" fill="#ffffff" stroke="#000000" stroke-width="0" cx="0" cy="0" r="14" />
      <path fill="#CC0000" d="M-11,0L10,-12,10,12 -11,0" />
      <line fill="none" stroke="#CC0000" stroke-width="2" x1="30" y1="0" x2="-30" y2="0" />
      <polyline fill="none" stroke="#CC0000" stroke-width="2" points="-8,-12 -10,-10 -10,10 -12,12" />
    </g>
    <g id="WB_BATTERY">
      <circle xmlns="" opacity="0.01" fill="#ffffff" stroke="#000000" stroke-width="0" cx="0" cy="0" r="14" />
      <line fill="none" stroke="#CC0000" stroke-width="2" x1="-8" y1="0" x2="-30" y2="0" />
      <line fill="none" stroke="#CC0000" stroke-width="2" x1="-7" y1="12" x2="-7" y2="-12" />
      <line fill="none" stroke="#CC0000" stroke-width="2" x1="4" y1="12" x2="4" y2="-12" />
      <line fill="none" stroke="#CC0000" stroke-width="2" x1="30" y1="0" x2="11" y2="0" />
      <line fill="none" stroke="#CC0000" stroke-width="2" x1="-2" y1="5" x2="-2" y2="-5" />
      <line fill="none" stroke="#CC0000" stroke-width="2" x1="-1" y1="5" x2="-1" y2="-5" />
      <line fill="none" stroke="#CC0000" stroke-width="2" x1="-14" y1="-9" x2="-14" y2="-15" />
      <line fill="none" stroke="#CC0000" stroke-width="2" x1="-11" y1="-12" x2="-17" y2="-12" />
      <line fill="none" stroke="#CC0000" stroke-width="2" x1="13" y1="-10" x2="13" y2="-15" />
      <line fill="none" stroke="#CC0000" stroke-width="2" x1="10" y1="5" x2="10" y2="-5" />
      <line fill="none" stroke="#CC0000" stroke-width="2" x1="9" y1="5" x2="9" y2="-5" />
    </g>
    <g id="WB_CURRENT_PROBE">
      <circle xmlns="" opacity="0.01" fill="#ffffff" stroke="#000000" stroke-width="0" cx="0" cy="0" r="14" />
      <line stroke="#CC0000" stroke-width="2" stroke-linecap="square" stroke-linejoin="round" x1="-16" y1="0" x2="-10" y2="0" />
      <polyline stroke="#CC0000" stroke-width="2" stroke-linecap="square" stroke-linejoin="round" points="6,0 3,-3.5 3,3.5 6,0 -6,0 " />
      <line stroke="#CC0000" stroke-width="2" stroke-linecap="square" stroke-linejoin="round" x1="10" y1="0" x2="16" y2="0" />
      <rect stroke-width="1" x="-9.5" y="-7" fill="none" stroke="#CC0000" width="19" height="14" />
    </g>
    <g id="WB_INDUCTOR">
      <circle xmlns="" opacity="0.01" fill="#ffffff" stroke="#000000" stroke-width="0" cx="0" cy="0" r="14" />
      <path fill="none" stroke="#115566" stroke-width="2" stroke-linecap="round" stroke-linejoin="round" d="M-10,0c0-0.6-0.2-1.8-0.6-3.3c-0.5-2.4-2-3.7-4.4-4c-2.4,0.3-3.8,1.6-4.3,4c-0.6,2.3-0.8,3.6-0.7,3M-20,0H-30" />
      <path fill="none" stroke="#115566" stroke-width="2" stroke-linecap="round" stroke-linejoin="round" d="M0,0c0-0.6-0.2-1.8-0.6-3.3c-0.5-2.4-2-3.7-4.4-4c-2.4,0.3-3.8,1.6-4.3,4c-0.6,2.3-0.8,3.6-0.7,4" />
      <path fill="none" stroke="#115566" stroke-width="2" stroke-linecap="round" stroke-linejoin="round" d="M10,0c0-0.6-0.2-1.8-0.6-3.3c-0.5-2.4-2-3.7-4.4-4c-2.4,0.3-3.8,1.6-4.3,4c-0.6,2.3-0.8,3.6-0.7,4" />
      <path fill="none" stroke="#115566" stroke-width="2" stroke-linecap="round" stroke-linejoin="round" d="M30,0H20c0-0.6-0.2-1.8-0.6-3.3c-0.5-2.4-2-3.7-4.4-4c-2.4,0.3-3.8,1.6-4.3,4c-0.6,2.3-0.8,3.6-0.7,4" />
      <path fill="none" stroke="#115566" stroke-width="2" stroke-linecap="round" stroke-linejoin="round" d=" M10,0 c0.1,0.4,0.1,0.6,0,0.7" />
      <path fill="none" stroke="#115566" stroke-width="2" stroke-linecap="round" stroke-linejoin="round" d=" M0,0  c0.1,0.4,0.1,0.6,0,0.7" />
      <path fill="none" stroke="#115566" stroke-width="2" stroke-linecap="round" stroke-linejoin="round" d=" M-10,0c0.1,0.4,0.1,0.6,0,0.7" />
    </g>
    <g id="WB_TPS563252DRL">
      <circle xmlns="" opacity="0.01" fill="#ffffff" stroke="#000000" stroke-width="0" cx="0" cy="0" r="14" />
      <line fill="none" stroke="#000000" stroke-width="2" stroke-linecap="round" stroke-linejoin="round" x1="20" y1="70" x2="120" y2="70" />
      <line fill="none" stroke="#000000" stroke-width="2" stroke-linecap="round" stroke-linejoin="round" x1="120" y1="70" x2="120" y2="-20" />
      <line fill="none" stroke="#000000" stroke-width="2" stroke-linecap="round" stroke-linejoin="round" x1="120" y1="-20" x2="20" y2="-20" />
      <line fill="none" stroke="#000000" stroke-width="2" stroke-linecap="round" stroke-linejoin="round" x1="20" y1="-20" x2="20" y2="70" />
      <text id="partNumber_label" x="70" y="-7" style="font-family:arial;font-weight:bold;font-size:12px;text-anchor:middle;">TPS563252DRL</text>
      <line fill="none" stroke="#000000" stroke-width="2" stroke-linecap="round" stroke-linejoin="round" x1="0" y1="0" x2="20" y2="0" />
      <text id="1" x="24" y="4" transform="rotate(0,24,4)" style="font-family:arial;font-weight:normal;font-size:9px;text-anchor:start;">VIN</text>
      <line fill="none" stroke="#000000" stroke-width="2" stroke-linecap="round" stroke-linejoin="round" x1="140" y1="0" x2="120" y2="0" />
      <text id="2" x="116" y="4" transform="rotate(0,116,4)" style="font-family:arial;font-weight:normal;font-size:9px;text-anchor:end;">SW</text>
      <line fill="none" stroke="#000000" stroke-width="2" stroke-linecap="round" stroke-linejoin="round" x1="140" y1="60" x2="120" y2="60" />
      <text id="3" x="116" y="64" transform="rotate(0,116,64)" style="font-family:arial;font-weight:normal;font-size:9px;text-anchor:end;">GND</text>
      <line fill="none" stroke="#000000" stroke-width="2" stroke-linecap="round" stroke-linejoin="round" x1="140" y1="20" x2="120" y2="20" />
      <text id="4" x="116" y="24" transform="rotate(0,116,24)" style="font-family:arial;font-weight:normal;font-size:9px;text-anchor:end;">PG</text>
      <line fill="none" stroke="#000000" stroke-width="2" stroke-linecap="round" stroke-linejoin="round" x1="0" y1="40" x2="20" y2="40" />
      <text id="5" x="24" y="44" transform="rotate(0,24,44)" style="font-family:arial;font-weight:normal;font-size:9px;text-anchor:start;">EN</text>
      <line fill="none" stroke="#000000" stroke-width="2" stroke-linecap="round" stroke-linejoin="round" x1="140" y1="40" x2="120" y2="40" />
      <text id="6" x="116" y="44" transform="rotate(0,116,44)" style="font-family:arial;font-weight:normal;font-size:9px;text-anchor:end;">FB</text>
    </g>
    <g id="WB_VOLTAGE_PROBE">
      <circle xmlns="" opacity="0.01" fill="#ffffff" stroke="#000000" stroke-width="0" cx="0" cy="0" r="14" />
      <rect stroke-width="1" width="20" stroke="#CC0000" x="-10" height="19.5" y="-30" fill="#CC0000" fill-opacity="0.01" />
      <polyline stroke="#CC0000" points="7,-27 4,-22 3,-26 0,-18 -1,-22 -5,-14  " stroke-linejoin="round" fill="none" stroke-width="2" stroke-linecap="round" />
      <line y1="0" x2="0" stroke="#CC0000" x1="0" fill="none" stroke-width="2" y2="-10" />
    </g>
    <g id="WB_GND">
      <circle xmlns="" opacity="0.01" fill="#ffffff" stroke="#000000" stroke-width="0" cx="0" cy="0" r="14" />
      <line fill="none" stroke="black" stroke-width="2" x1="0" y1="-10" x2="0" y2="0" />
      <line fill="none" stroke="black" stroke-width="2" x1="-13" y1="0" x2="13" y2="0" />
      <line fill="none" stroke="black" stroke-width="2" x1="-9" y1="4" x2="9" y2="4" />
      <line fill="none" stroke="black" stroke-width="2" x1="-3" y1="8" x2="3" y2="8" />
    </g>
  </defs>
  <use id="Coutx" class="comp" xlink:href="#WB_CAPACITOR" x="1320.0" y="295.0" transform="rotate(-90, 1320.0, 295.0)" cap="100nF" partNo="CGA3E2X7R1H104K080AA" thermalId="0603" esr="29.6mOhm" manufacturer="TDK" />
  <text for="Coutx" x="1335.0" y="295.0" style="font-family:arial;font-size:13px;stroke-width:0.5;stroke:#115566;fill:#115566;">Coutx</text>
  <text for="Coutx" x="1335.0" y="305.0" style="font-family:arial;font-size:10px;stroke-width:0.1;stroke:#CC0000;fill:#CC0000;">100nF</text>
  <text for="Coutx" x="1335.0" y="315.0" style="font-family:arial;font-size:10px;stroke-width:0.1;stroke:#CC0000;fill:#CC0000;">29.6mOhm</text>
  <use id="Cin" class="comp" xlink:href="#WB_CAPACITOR" x="170.0" y="295.0" transform="rotate(-90, 170.0, 295.0)" cap="10uF" partNo="C0805C106K8PACTU" thermalId="0805" esr="3mOhm" manufacturer="Kemet" />
  <text for="Cin" x="185.0" y="295.0" style="font-family:arial;font-size:13px;stroke-width:0.5;stroke:#115566;fill:#115566;">Cin</text>
  <text for="Cin" x="185.0" y="305.0" style="font-family:arial;font-size:10px;stroke-width:0.1;stroke:#CC0000;fill:#CC0000;">10uF</text>
  <text for="Cin" x="185.0" y="315.0" style="font-family:arial;font-size:10px;stroke-width:0.1;stroke:#CC0000;fill:#CC0000;">3mOhm</text>
  <text for="Cin" x="185.0" y="325.0" style="font-family:arial;font-size:10px;stroke-width:0.1;stroke:#CC0000;fill:#CC0000;">Qty=2</text>
  <use id="Rpg" class="comp" xlink:href="#WB_RESISTOR" x="870.0" y="110.0" transform="rotate(-180, 870.0, 110.0)" partNo="CRCW040210K0FKED" thermalId="0402" resistance="10kOhm" manufacturer="Vishay-Dale" />
  <text for="Rpg" x="850.0" y="95.0" style="font-family:arial;font-size:13px;stroke-width:0.5;stroke:#115566;fill:#115566;">Rpg</text>
  <text for="Rpg" x="850.0" y="130.0" style="font-family:arial;font-size:10px;stroke-width:0.1;stroke:#CC0000;fill:#CC0000;">10kOhm</text>
  <use id="L1" class="comp" xlink:href="#WB_INDUCTOR" x="1030.0" y="170.0" transform="rotate(-180, 1030.0, 170.0) scale(1,-1) translate(0,-340.0)" partNo="VLCF4028T-2R2N1R9-2" thermalId="VLCF4028" l="2.2uH" dcr="43mOhm" manufacturer="TDK" />
  <text for="L1" x="1010.0" y="155.0" style="font-family:arial;font-size:13px;stroke-width:0.5;stroke:#115566;fill:#115566;">L1</text>
  <text for="L1" x="1010.0" y="190.0" style="font-family:arial;font-size:10px;stroke-width:0.1;stroke:#CC0000;fill:#CC0000;">2.2uH</text>
  <text for="L1" x="1010.0" y="200.0" style="font-family:arial;font-size:10px;stroke-width:0.1;stroke:#CC0000;fill:#CC0000;">43mOhm</text>
  <use id="Cout" class="comp" xlink:href="#WB_CAPACITOR" x="1225.0" y="290.0" transform="rotate(-90, 1225.0, 290.0)" cap="22uF" partNo="GRM21BR61A226ME44L" thermalId="0805" esr="3mOhm" manufacturer="MuRata" />
  <text for="Cout" x="1240.0" y="290.0" style="font-family:arial;font-size:13px;stroke-width:0.5;stroke:#115566;fill:#115566;">Cout</text>
  <text for="Cout" x="1240.0" y="300.0" style="font-family:arial;font-size:10px;stroke-width:0.1;stroke:#CC0000;fill:#CC0000;">22uF</text>
  <text for="Cout" x="1240.0" y="310.0" style="font-family:arial;font-size:10px;stroke-width:0.1;stroke:#CC0000;fill:#CC0000;">3mOhm</text>
  <use id="U1" class="comp" xlink:href="#WB_TPS563252DRL" x="690.0" y="170.0" />
  <text for="U1" x="670.0" y="170.0" style="font-family:arial;font-size:13px;stroke-width:0.5;stroke:#115566;fill:#115566;">U1</text>
  <use id="Cinx" class="comp" xlink:href="#WB_CAPACITOR" x="255.0" y="295.0" transform="rotate(-90, 255.0, 295.0)" cap="100nF" partNo="GRM188R71H104KA93D" thermalId="0603" esr="20mOhm" manufacturer="MuRata" />
  <text for="Cinx" x="270.0" y="295.0" style="font-family:arial;font-size:13px;stroke-width:0.5;stroke:#115566;fill:#115566;">Cinx</text>
  <text for="Cinx" x="270.0" y="305.0" style="font-family:arial;font-size:10px;stroke-width:0.1;stroke:#CC0000;fill:#CC0000;">100nF</text>
  <text for="Cinx" x="270.0" y="315.0" style="font-family:arial;font-size:10px;stroke-width:0.1;stroke:#CC0000;fill:#CC0000;">20mOhm</text>
  <use id="Rfbb" class="comp" xlink:href="#WB_RESISTOR" x="1165.0" y="335.0" transform="rotate(-90, 1165.0, 335.0)" partNo="CRCW040210K0FKED" thermalId="0402" resistance="10kOhm" manufacturer="Vishay-Dale" />
  <text for="Rfbb" x="1180.0" y="335.0" style="font-family:arial;font-size:13px;stroke-width:0.5;stroke:#115566;fill:#115566;">Rfbb</text>
  <text for="Rfbb" x="1180.0" y="345.0" style="font-family:arial;font-size:10px;stroke-width:0.1;stroke:#CC0000;fill:#CC0000;">10kOhm</text>
  <use id="Rfbt" class="comp" xlink:href="#WB_RESISTOR" x="1165.0" y="245.0" transform="rotate(-90, 1165.0, 245.0)" partNo="CRCW040245K3FKED" thermalId="0402" resistance="45.3kOhm" manufacturer="Vishay-Dale" />
  <text for="Rfbt" x="1180.0" y="245.0" style="font-family:arial;font-size:13px;stroke-width:0.5;stroke:#115566;fill:#115566;">Rfbt</text>
  <text for="Rfbt" x="1180.0" y="255.0" style="font-family:arial;font-size:10px;stroke-width:0.1;stroke:#CC0000;fill:#CC0000;">45.3kOhm</text>
  <use id="Renb" class="comp" xlink:href="#WB_RESISTOR" x="445.0" y="335.0" transform="rotate(-90, 445.0, 335.0)" partNo="TNPW040232K0BEED" thermalId="0402" resistance="32kOhm" manufacturer="Vishay-Dale" />
  <text for="Renb" x="460.0" y="335.0" style="font-family:arial;font-size:13px;stroke-width:0.5;stroke:#115566;fill:#115566;">Renb</text>
  <text for="Renb" x="460.0" y="345.0" style="font-family:arial;font-size:10px;stroke-width:0.1;stroke:#CC0000;fill:#CC0000;">32kOhm</text>
  <use id="Rent" class="comp" xlink:href="#WB_RESISTOR" x="445.0" y="240.0" transform="rotate(-90, 445.0, 240.0)" partNo="CRCW0402100KFKED" thermalId="0402" resistance="100kOhm" manufacturer="Vishay-Dale" />
  <text for="Rent" x="460.0" y="240.0" style="font-family:arial;font-size:13px;stroke-width:0.5;stroke:#115566;fill:#115566;">Rent</text>
  <text for="Rent" x="460.0" y="250.0" style="font-family:arial;font-size:10px;stroke-width:0.1;stroke:#CC0000;fill:#CC0000;">100kOhm</text>
  <use id="GND2" class="other" xlink:href="#WB_GND" x="615.0" y="400.0" />
  <use id="Cff" class="comp" xlink:href="#WB_CAPACITOR" x="1090.0" y="230.0" transform="rotate(-90, 1090.0, 230.0)" cap="56pF" partNo="UMK105CG560JV-F" thermalId="0402" esr="0Ohm" manufacturer="Taiyo Yuden" />
  <text for="Cff" x="1105.0" y="230.0" style="font-family:arial;font-size:13px;stroke-width:0.5;stroke:#115566;fill:#115566;">Cff</text>
  <text for="Cff" x="1105.0" y="240.0" style="font-family:arial;font-size:10px;stroke-width:0.1;stroke:#CC0000;fill:#CC0000;">56pF</text>
  <text for="Cff" x="1105.0" y="250.0" style="font-family:arial;font-size:10px;stroke-width:0.1;stroke:#CC0000;fill:#CC0000;">0Ohm</text>
  <use id="Vin" class="other" xlink:href="#WB_BATTERY" x="100.0" y="250.0" transform="rotate(-270, 100.0, 250.0)" />
  <text for="Vin" x="115.0" y="250.0" style="font-family:arial;font-size:13px;stroke-width:0.5;stroke:#CC0000;fill:#CC0000;">Vin</text>
  <use id="Iout" class="other" xlink:href="#WB_CURRENT_LOAD" x="1395.0" y="260.0" transform="rotate(-270, 1395.0, 260.0)" />
  <text for="Iout" x="1410.0" y="260.0" style="font-family:arial;font-size:13px;stroke-width:0.5;stroke:#CC0000;fill:#CC0000;">Iout</text>
  <line x1="1245.0" y1="110.0" x2="900.0" y2="110.0" stroke="#000000" stroke-width="2" fill="none" />
  <line x1="840.0" y1="190.0" x2="840.0" y2="110.0" stroke="#000000" stroke-width="2" fill="none" />
  <line x1="1245.0" y1="170.0" x2="1245.0" y2="110.0" stroke="#000000" stroke-width="2" fill="none" />
  <line x1="830.0" y1="190.0" x2="840.0" y2="190.0" stroke="#000000" stroke-width="2" fill="none" />
  <line x1="1165.0" y1="305.0" x2="1165.0" y2="275.0" stroke="#000000" stroke-width="2" fill="none" />
  <line x1="1165.0" y1="215.0" x2="1165.0" y2="170.0" stroke="#000000" stroke-width="2" fill="none" />
  <line x1="1165.0" y1="390.0" x2="1165.0" y2="365.0" stroke="#000000" stroke-width="2" fill="none" />
  <line x1="510.0" y1="285.0" x2="445.0" y2="285.0" stroke="#000000" stroke-width="2" fill="none" />
  <line x1="445.0" y1="305.0" x2="445.0" y2="270.0" stroke="#000000" stroke-width="2" fill="none" />
  <line x1="510.0" y1="210.0" x2="510.0" y2="285.0" stroke="#000000" stroke-width="2" fill="none" />
  <line x1="445.0" y1="390.0" x2="445.0" y2="365.0" stroke="#000000" stroke-width="2" fill="none" />
  <line x1="445.0" y1="210.0" x2="445.0" y2="170.0" stroke="#000000" stroke-width="2" fill="none" />
  <line x1="510.0" y1="210.0" x2="690.0" y2="210.0" stroke="#000000" stroke-width="2" fill="none" />
  <line x1="1090.0" y1="290.0" x2="1090.0" y2="260.0" stroke="#000000" stroke-width="2" fill="none" />
  <line x1="850.0" y1="290.0" x2="1165.0" y2="290.0" stroke="#000000" stroke-width="2" fill="none" />
  <line x1="850.0" y1="210.0" x2="850.0" y2="290.0" stroke="#000000" stroke-width="2" fill="none" />
  <line x1="1090.0" y1="200.0" x2="1090.0" y2="170.0" stroke="#000000" stroke-width="2" fill="none" />
  <line x1="830.0" y1="210.0" x2="850.0" y2="210.0" stroke="#000000" stroke-width="2" fill="none" />
  <line x1="1320.0" y1="325.0" x2="1320.0" y2="390.0" stroke="#000000" stroke-width="2" fill="none" />
  <line x1="255.0" y1="325.0" x2="255.0" y2="390.0" stroke="#000000" stroke-width="2" fill="none" />
  <line x1="255.0" y1="265.0" x2="255.0" y2="170.0" stroke="#000000" stroke-width="2" fill="none" />
  <line x1="1320.0" y1="265.0" x2="1320.0" y2="170.0" stroke="#000000" stroke-width="2" fill="none" />
  <line x1="1225.0" y1="320.0" x2="1225.0" y2="390.0" stroke="#000000" stroke-width="2" fill="none" />
  <line x1="170.0" y1="325.0" x2="170.0" y2="390.0" stroke="#000000" stroke-width="2" fill="none" />
  <line x1="830.0" y1="230.0" x2="830.0" y2="390.0" stroke="#000000" stroke-width="2" fill="none" />
  <line x1="100.0" y1="170.0" x2="690.0" y2="170.0" stroke="#000000" stroke-width="2" fill="none" />
  <line x1="170.0" y1="265.0" x2="170.0" y2="170.0" stroke="#000000" stroke-width="2" fill="none" />
  <line x1="830.0" y1="170.0" x2="1000.0" y2="170.0" stroke="#000000" stroke-width="2" fill="none" />
  <line x1="100.0" y1="390.0" x2="1395.0" y2="390.0" stroke="#000000" stroke-width="2" fill="none" />
  <line x1="1225.0" y1="260.0" x2="1225.0" y2="170.0" stroke="#000000" stroke-width="2" fill="none" />
  <line x1="1060.0" y1="170.0" x2="1395.0" y2="170.0" stroke="#000000" stroke-width="2" fill="none" />
  <line x1="100.0" y1="220.0" x2="100.0" y2="170.0" stroke="#000000" stroke-width="2" fill="none" />
  <line x1="100.0" y1="390.0" x2="100.0" y2="280.0" stroke="#000000" stroke-width="2" fill="none" />
  <line x1="1395.0" y1="230.0" x2="1395.0" y2="170.0" stroke="#000000" stroke-width="2" fill="none" />
  <line x1="1395.0" y1="390.0" x2="1395.0" y2="290.0" stroke="#000000" stroke-width="2" fill="none" />
  <circle cx="1165.0" cy="290.0" r="5" stroke="#000000" stroke-width="0" fill="#000000" />
  <circle cx="445.0" cy="285.0" r="5" stroke="#000000" stroke-width="0" fill="#000000" />
  <circle cx="1090.0" cy="290.0" r="5" stroke="#000000" stroke-width="0" fill="#000000" />
  <circle cx="445.0" cy="170.0" r="5" stroke="#000000" stroke-width="0" fill="#000000" />
  <circle cx="255.0" cy="170.0" r="5" stroke="#000000" stroke-width="0" fill="#000000" />
  <circle cx="170.0" cy="170.0" r="5" stroke="#000000" stroke-width="0" fill="#000000" />
  <circle cx="1165.0" cy="390.0" r="5" stroke="#000000" stroke-width="0" fill="#000000" />
  <circle cx="445.0" cy="390.0" r="5" stroke="#000000" stroke-width="0" fill="#000000" />
  <circle cx="1320.0" cy="390.0" r="5" stroke="#000000" stroke-width="0" fill="#000000" />
  <circle cx="255.0" cy="390.0" r="5" stroke="#000000" stroke-width="0" fill="#000000" />
  <circle cx="1225.0" cy="390.0" r="5" stroke="#000000" stroke-width="0" fill="#000000" />
  <circle cx="170.0" cy="390.0" r="5" stroke="#000000" stroke-width="0" fill="#000000" />
  <circle cx="830.0" cy="390.0" r="5" stroke="#000000" stroke-width="0" fill="#000000" />
  <circle cx="1245.0" cy="170.0" r="5" stroke="#000000" stroke-width="0" fill="#000000" />
  <circle cx="1165.0" cy="170.0" r="5" stroke="#000000" stroke-width="0" fill="#000000" />
  <circle cx="1090.0" cy="170.0" r="5" stroke="#000000" stroke-width="0" fill="#000000" />
  <circle cx="1320.0" cy="170.0" r="5" stroke="#000000" stroke-width="0" fill="#000000" />
  <circle cx="1225.0" cy="170.0" r="5" stroke="#000000" stroke-width="0" fill="#000000" />
  <circle cx="615.0" cy="390.0" r="5" stroke="#000000" stroke-width="0" fill="#000000" />
</svg>

