%TF.GenerationSoftware,KiCad,Pcbnew,7.0.2-0*%
%TF.CreationDate,2024-02-19T15:31:33-08:00*%
%TF.ProjectId,led-usb-hub,6c65642d-7573-4622-9d68-75622e6b6963,rev?*%
%TF.SameCoordinates,Original*%
%TF.FileFunction,Soldermask,Top*%
%TF.FilePolarity,Negative*%
%FSLAX46Y46*%
G04 Gerber Fmt 4.6, Leading zero omitted, Abs format (unit mm)*
G04 Created by KiCad (PCBNEW 7.0.2-0) date 2024-02-19 15:31:33*
%MOMM*%
%LPD*%
G01*
G04 APERTURE LIST*
G04 Aperture macros list*
%AMRoundRect*
0 Rectangle with rounded corners*
0 $1 Rounding radius*
0 $2 $3 $4 $5 $6 $7 $8 $9 X,Y pos of 4 corners*
0 Add a 4 corners polygon primitive as box body*
4,1,4,$2,$3,$4,$5,$6,$7,$8,$9,$2,$3,0*
0 Add four circle primitives for the rounded corners*
1,1,$1+$1,$2,$3*
1,1,$1+$1,$4,$5*
1,1,$1+$1,$6,$7*
1,1,$1+$1,$8,$9*
0 Add four rect primitives between the rounded corners*
20,1,$1+$1,$2,$3,$4,$5,0*
20,1,$1+$1,$4,$5,$6,$7,0*
20,1,$1+$1,$6,$7,$8,$9,0*
20,1,$1+$1,$8,$9,$2,$3,0*%
G04 Aperture macros list end*
%ADD10R,0.449999X0.299999*%
%ADD11RoundRect,0.225000X0.250000X-0.225000X0.250000X0.225000X-0.250000X0.225000X-0.250000X-0.225000X0*%
%ADD12R,2.000000X4.500000*%
%ADD13RoundRect,0.237500X-0.287500X-0.237500X0.287500X-0.237500X0.287500X0.237500X-0.287500X0.237500X0*%
%ADD14RoundRect,0.200000X0.200000X0.275000X-0.200000X0.275000X-0.200000X-0.275000X0.200000X-0.275000X0*%
%ADD15RoundRect,0.225000X-0.250000X0.225000X-0.250000X-0.225000X0.250000X-0.225000X0.250000X0.225000X0*%
%ADD16R,1.000000X1.000000*%
%ADD17RoundRect,0.225000X0.225000X0.250000X-0.225000X0.250000X-0.225000X-0.250000X0.225000X-0.250000X0*%
%ADD18RoundRect,0.200000X-0.275000X0.200000X-0.275000X-0.200000X0.275000X-0.200000X0.275000X0.200000X0*%
%ADD19RoundRect,0.237500X0.287500X0.237500X-0.287500X0.237500X-0.287500X-0.237500X0.287500X-0.237500X0*%
%ADD20RoundRect,0.050000X0.050000X-0.387500X0.050000X0.387500X-0.050000X0.387500X-0.050000X-0.387500X0*%
%ADD21RoundRect,0.050000X0.387500X-0.050000X0.387500X0.050000X-0.387500X0.050000X-0.387500X-0.050000X0*%
%ADD22R,3.200000X3.200000*%
%ADD23C,3.000000*%
%ADD24RoundRect,0.212500X0.637500X1.637500X-0.637500X1.637500X-0.637500X-1.637500X0.637500X-1.637500X0*%
%ADD25RoundRect,0.225000X-0.225000X-0.250000X0.225000X-0.250000X0.225000X0.250000X-0.225000X0.250000X0*%
%ADD26RoundRect,0.200000X0.275000X-0.200000X0.275000X0.200000X-0.275000X0.200000X-0.275000X-0.200000X0*%
%ADD27R,0.700000X0.340000*%
%ADD28RoundRect,0.200000X-0.200000X-0.275000X0.200000X-0.275000X0.200000X0.275000X-0.200000X0.275000X0*%
%ADD29RoundRect,0.250000X0.925000X-0.412500X0.925000X0.412500X-0.925000X0.412500X-0.925000X-0.412500X0*%
%ADD30C,0.700000*%
%ADD31O,0.900000X2.400000*%
%ADD32O,0.900000X1.700000*%
%ADD33RoundRect,0.141000X-0.423000X-0.423000X0.423000X-0.423000X0.423000X0.423000X-0.423000X0.423000X0*%
%ADD34C,1.128000*%
%ADD35C,1.100000*%
%ADD36O,1.408000X2.816000*%
%ADD37RoundRect,0.102000X-1.050000X-1.050000X1.050000X-1.050000X1.050000X1.050000X-1.050000X1.050000X0*%
%ADD38RoundRect,0.150000X-0.150000X0.825000X-0.150000X-0.825000X0.150000X-0.825000X0.150000X0.825000X0*%
%ADD39RoundRect,0.250000X-0.925000X0.412500X-0.925000X-0.412500X0.925000X-0.412500X0.925000X0.412500X0*%
%ADD40RoundRect,0.150000X0.150000X-0.825000X0.150000X0.825000X-0.150000X0.825000X-0.150000X-0.825000X0*%
%ADD41R,1.700000X1.700000*%
%ADD42O,1.700000X1.700000*%
%ADD43RoundRect,0.250000X-0.375000X-1.075000X0.375000X-1.075000X0.375000X1.075000X-0.375000X1.075000X0*%
%ADD44RoundRect,0.250000X-1.075000X0.375000X-1.075000X-0.375000X1.075000X-0.375000X1.075000X0.375000X0*%
%ADD45R,0.340000X0.700000*%
G04 APERTURE END LIST*
D10*
%TO.C,U8*%
X127194000Y-100522999D03*
X127194000Y-99823001D03*
X126044000Y-100173000D03*
%TD*%
D11*
%TO.C,C23*%
X91694000Y-101346000D03*
X91694000Y-99796000D03*
%TD*%
D12*
%TO.C,Y1*%
X154527400Y-101736000D03*
X154527400Y-110236000D03*
%TD*%
D13*
%TO.C,D1*%
X107597000Y-83058000D03*
X109347000Y-83058000D03*
%TD*%
D14*
%TO.C,R17*%
X129286000Y-115697000D03*
X127636000Y-115697000D03*
%TD*%
D15*
%TO.C,C18*%
X127699000Y-118872000D03*
X127699000Y-120422000D03*
%TD*%
D14*
%TO.C,R20*%
X99377000Y-107950000D03*
X97727000Y-107950000D03*
%TD*%
D16*
%TO.C,TP6*%
X114046000Y-94488000D03*
%TD*%
D17*
%TO.C,C20*%
X134570000Y-114821000D03*
X133020000Y-114821000D03*
%TD*%
D18*
%TO.C,R5*%
X144526000Y-105220000D03*
X144526000Y-106870000D03*
%TD*%
D19*
%TO.C,D2*%
X112748000Y-83058000D03*
X110998000Y-83058000D03*
%TD*%
D20*
%TO.C,U1*%
X135220400Y-104808700D03*
X135620400Y-104808700D03*
X136020400Y-104808700D03*
X136420400Y-104808700D03*
X136820400Y-104808700D03*
X137220400Y-104808700D03*
X137620400Y-104808700D03*
X138020400Y-104808700D03*
X138420400Y-104808700D03*
X138820400Y-104808700D03*
X139220400Y-104808700D03*
X139620400Y-104808700D03*
X140020400Y-104808700D03*
X140420400Y-104808700D03*
D21*
X141257900Y-103971200D03*
X141257900Y-103571200D03*
X141257900Y-103171200D03*
X141257900Y-102771200D03*
X141257900Y-102371200D03*
X141257900Y-101971200D03*
X141257900Y-101571200D03*
X141257900Y-101171200D03*
X141257900Y-100771200D03*
X141257900Y-100371200D03*
X141257900Y-99971200D03*
X141257900Y-99571200D03*
X141257900Y-99171200D03*
X141257900Y-98771200D03*
D20*
X140420400Y-97933700D03*
X140020400Y-97933700D03*
X139620400Y-97933700D03*
X139220400Y-97933700D03*
X138820400Y-97933700D03*
X138420400Y-97933700D03*
X138020400Y-97933700D03*
X137620400Y-97933700D03*
X137220400Y-97933700D03*
X136820400Y-97933700D03*
X136420400Y-97933700D03*
X136020400Y-97933700D03*
X135620400Y-97933700D03*
X135220400Y-97933700D03*
D21*
X134382900Y-98771200D03*
X134382900Y-99171200D03*
X134382900Y-99571200D03*
X134382900Y-99971200D03*
X134382900Y-100371200D03*
X134382900Y-100771200D03*
X134382900Y-101171200D03*
X134382900Y-101571200D03*
X134382900Y-101971200D03*
X134382900Y-102371200D03*
X134382900Y-102771200D03*
X134382900Y-103171200D03*
X134382900Y-103571200D03*
X134382900Y-103971200D03*
D22*
X137820400Y-101371200D03*
%TD*%
D11*
%TO.C,C8*%
X84582000Y-126505000D03*
X84582000Y-124955000D03*
%TD*%
%TO.C,C47*%
X150876000Y-108217000D03*
X150876000Y-106667000D03*
%TD*%
D23*
%TO.C,H1*%
X64128000Y-126873000D03*
%TD*%
D24*
%TO.C,SW3*%
X125530400Y-83820000D03*
X119630400Y-83820000D03*
%TD*%
D16*
%TO.C,TP5*%
X114046000Y-100584000D03*
%TD*%
D25*
%TO.C,C1*%
X105130000Y-91821000D03*
X106680000Y-91821000D03*
%TD*%
D18*
%TO.C,R29*%
X123190000Y-100885000D03*
X123190000Y-102535000D03*
%TD*%
D17*
%TO.C,C4*%
X79896000Y-120142000D03*
X78346000Y-120142000D03*
%TD*%
D15*
%TO.C,C10*%
X58928000Y-120256000D03*
X58928000Y-121806000D03*
%TD*%
D26*
%TO.C,R13*%
X81788000Y-88709000D03*
X81788000Y-87059000D03*
%TD*%
D11*
%TO.C,C29*%
X110972600Y-105664000D03*
X110972600Y-104114000D03*
%TD*%
D27*
%TO.C,U4*%
X79514000Y-90051000D03*
X79514000Y-90551000D03*
X79514000Y-91051000D03*
X81014000Y-91051000D03*
X81014000Y-90551000D03*
X81014000Y-90051000D03*
%TD*%
D28*
%TO.C,R43*%
X128715000Y-100935000D03*
X130365000Y-100935000D03*
%TD*%
D25*
%TO.C,C46*%
X134403800Y-96469000D03*
X135953800Y-96469000D03*
%TD*%
D16*
%TO.C,TP3*%
X114046000Y-98552000D03*
%TD*%
D28*
%TO.C,R16*%
X127636000Y-117221000D03*
X129286000Y-117221000D03*
%TD*%
D26*
%TO.C,R54*%
X110998000Y-88518000D03*
X110998000Y-86868000D03*
%TD*%
D15*
%TO.C,C48*%
X150876000Y-102095000D03*
X150876000Y-103645000D03*
%TD*%
D26*
%TO.C,R50*%
X143256000Y-85470000D03*
X143256000Y-83820000D03*
%TD*%
D25*
%TO.C,C2*%
X105130000Y-93345000D03*
X106680000Y-93345000D03*
%TD*%
D28*
%TO.C,R46*%
X132970000Y-116345000D03*
X134620000Y-116345000D03*
%TD*%
D29*
%TO.C,C7*%
X87376000Y-126517500D03*
X87376000Y-123442500D03*
%TD*%
D14*
%TO.C,R6*%
X107505000Y-118491000D03*
X105855000Y-118491000D03*
%TD*%
D15*
%TO.C,C19*%
X126175000Y-118872000D03*
X126175000Y-120422000D03*
%TD*%
D14*
%TO.C,R9*%
X52578000Y-112014000D03*
X50928000Y-112014000D03*
%TD*%
D26*
%TO.C,R15*%
X85725000Y-90046607D03*
X85725000Y-88396607D03*
%TD*%
D30*
%TO.C,J1*%
X100003000Y-88088000D03*
X99153000Y-88088000D03*
X98303000Y-88088000D03*
X97453000Y-88088000D03*
X96603000Y-88088000D03*
X95753000Y-88088000D03*
X94903000Y-88088000D03*
X94053000Y-88088000D03*
X94053000Y-86738000D03*
X94903000Y-86738000D03*
X95753000Y-86738000D03*
X96603000Y-86738000D03*
X97453000Y-86738000D03*
X98303000Y-86738000D03*
X99153000Y-86738000D03*
X100003000Y-86738000D03*
D31*
X101353000Y-87108000D03*
D32*
X101353000Y-83728000D03*
X92703000Y-83728000D03*
D31*
X92703000Y-87108000D03*
%TD*%
D28*
%TO.C,R27*%
X116714000Y-107188000D03*
X118364000Y-107188000D03*
%TD*%
%TO.C,R22*%
X94679000Y-106426000D03*
X96329000Y-106426000D03*
%TD*%
D33*
%TO.C,J2*%
X151328000Y-121496000D03*
D34*
X148828000Y-121496000D03*
X146828000Y-121496000D03*
X144328000Y-121496000D03*
D35*
X145953000Y-114836000D03*
X147203000Y-114836000D03*
X149703000Y-114836000D03*
D36*
X141428000Y-123216000D03*
X154228000Y-123216000D03*
X141428000Y-115716000D03*
X154228000Y-115716000D03*
D37*
X147828000Y-130256000D03*
D35*
X148453000Y-114836000D03*
%TD*%
D14*
%TO.C,R8*%
X107505000Y-121539000D03*
X105855000Y-121539000D03*
%TD*%
D11*
%TO.C,C6*%
X135890000Y-127267000D03*
X135890000Y-125717000D03*
%TD*%
D18*
%TO.C,R12*%
X80264000Y-87059000D03*
X80264000Y-88709000D03*
%TD*%
D14*
%TO.C,R11*%
X52578000Y-108966000D03*
X50928000Y-108966000D03*
%TD*%
%TO.C,R47*%
X147637000Y-101549000D03*
X145987000Y-101549000D03*
%TD*%
D17*
%TO.C,C21*%
X134583000Y-119393000D03*
X133033000Y-119393000D03*
%TD*%
D14*
%TO.C,R19*%
X130619000Y-113297000D03*
X128969000Y-113297000D03*
%TD*%
D38*
%TO.C,U3*%
X79756000Y-122239000D03*
X78486000Y-122239000D03*
X77216000Y-122239000D03*
X75946000Y-122239000D03*
X75946000Y-127189000D03*
X77216000Y-127189000D03*
X78486000Y-127189000D03*
X79756000Y-127189000D03*
%TD*%
D24*
%TO.C,SW1*%
X151674200Y-83820000D03*
X145774200Y-83820000D03*
%TD*%
D39*
%TO.C,C9*%
X56388000Y-120382500D03*
X56388000Y-123457500D03*
%TD*%
D18*
%TO.C,R4*%
X146050000Y-105220000D03*
X146050000Y-106870000D03*
%TD*%
D28*
%TO.C,R23*%
X94679000Y-107950000D03*
X96329000Y-107950000D03*
%TD*%
D26*
%TO.C,R26*%
X96266000Y-91919000D03*
X96266000Y-90269000D03*
%TD*%
D24*
%TO.C,SW2*%
X140875600Y-83820000D03*
X134975600Y-83820000D03*
%TD*%
D23*
%TO.C,H4*%
X129928000Y-87503000D03*
%TD*%
D38*
%TO.C,U2*%
X118618000Y-122239000D03*
X117348000Y-122239000D03*
X116078000Y-122239000D03*
X114808000Y-122239000D03*
X114808000Y-127189000D03*
X116078000Y-127189000D03*
X117348000Y-127189000D03*
X118618000Y-127189000D03*
%TD*%
D15*
%TO.C,C49*%
X84836000Y-100304000D03*
X84836000Y-101854000D03*
%TD*%
D17*
%TO.C,C12*%
X78639000Y-87122000D03*
X77089000Y-87122000D03*
%TD*%
D16*
%TO.C,TP1*%
X114046000Y-96520000D03*
%TD*%
D14*
%TO.C,R7*%
X107505000Y-120015000D03*
X105855000Y-120015000D03*
%TD*%
D26*
%TO.C,R30*%
X123190000Y-99461000D03*
X123190000Y-97811000D03*
%TD*%
D28*
%TO.C,R28*%
X116714000Y-105664000D03*
X118364000Y-105664000D03*
%TD*%
D40*
%TO.C,U13*%
X127381000Y-111060000D03*
X128651000Y-111060000D03*
X129921000Y-111060000D03*
X131191000Y-111060000D03*
X131191000Y-106110000D03*
X129921000Y-106110000D03*
X128651000Y-106110000D03*
X127381000Y-106110000D03*
%TD*%
D23*
%TO.C,H2*%
X129928000Y-126873000D03*
%TD*%
D17*
%TO.C,C3*%
X118758000Y-120142000D03*
X117208000Y-120142000D03*
%TD*%
%TO.C,C51*%
X125616000Y-106045000D03*
X124066000Y-106045000D03*
%TD*%
%TO.C,C13*%
X78639000Y-85598000D03*
X77089000Y-85598000D03*
%TD*%
D11*
%TO.C,C50*%
X84836000Y-105436000D03*
X84836000Y-103886000D03*
%TD*%
D18*
%TO.C,R3*%
X147574000Y-105220000D03*
X147574000Y-106870000D03*
%TD*%
D14*
%TO.C,R18*%
X133667000Y-113297000D03*
X132017000Y-113297000D03*
%TD*%
D11*
%TO.C,C14*%
X84201000Y-93993000D03*
X84201000Y-92443000D03*
%TD*%
%TO.C,C16*%
X81153000Y-93993000D03*
X81153000Y-92443000D03*
%TD*%
D16*
%TO.C,TP2*%
X126999000Y-94488000D03*
%TD*%
D11*
%TO.C,C15*%
X79629000Y-93993000D03*
X79629000Y-92443000D03*
%TD*%
D33*
%TO.C,J3*%
X100528000Y-121542000D03*
D34*
X98028000Y-121542000D03*
X96028000Y-121542000D03*
X93528000Y-121542000D03*
D35*
X95153000Y-114882000D03*
X96403000Y-114882000D03*
X98903000Y-114882000D03*
D36*
X90628000Y-123262000D03*
X103428000Y-123262000D03*
X90628000Y-115762000D03*
X103428000Y-115762000D03*
D37*
X97028000Y-130302000D03*
D35*
X97653000Y-114882000D03*
%TD*%
D17*
%TO.C,C22*%
X134583000Y-117869000D03*
X133033000Y-117869000D03*
%TD*%
D14*
%TO.C,R10*%
X52578000Y-110490000D03*
X50928000Y-110490000D03*
%TD*%
D18*
%TO.C,R45*%
X82677000Y-92393000D03*
X82677000Y-94043000D03*
%TD*%
D26*
%TO.C,R14*%
X85725000Y-93094607D03*
X85725000Y-91444607D03*
%TD*%
D29*
%TO.C,C5*%
X138430000Y-126987000D03*
X138430000Y-123912000D03*
%TD*%
D28*
%TO.C,R44*%
X128715000Y-99411000D03*
X130365000Y-99411000D03*
%TD*%
D41*
%TO.C,J5*%
X157480000Y-95504000D03*
D42*
X157480000Y-92964000D03*
X157480000Y-90424000D03*
%TD*%
D14*
%TO.C,R21*%
X99377000Y-106426000D03*
X97727000Y-106426000D03*
%TD*%
D43*
%TO.C,L2*%
X131137200Y-121793000D03*
X133937200Y-121793000D03*
%TD*%
D26*
%TO.C,R25*%
X97790000Y-91919000D03*
X97790000Y-90269000D03*
%TD*%
D17*
%TO.C,C11*%
X78639000Y-88646000D03*
X77089000Y-88646000D03*
%TD*%
D12*
%TO.C,Y2*%
X79375000Y-109012000D03*
X79375000Y-100512000D03*
%TD*%
D33*
%TO.C,J4*%
X49728000Y-121542000D03*
D34*
X47228000Y-121542000D03*
X45228000Y-121542000D03*
X42728000Y-121542000D03*
D35*
X44353000Y-114882000D03*
X45603000Y-114882000D03*
X48103000Y-114882000D03*
D36*
X39828000Y-123262000D03*
X52628000Y-123262000D03*
X39828000Y-115762000D03*
X52628000Y-115762000D03*
D37*
X46228000Y-130302000D03*
D35*
X46853000Y-114882000D03*
%TD*%
D26*
%TO.C,R1*%
X90424000Y-87248000D03*
X90424000Y-85598000D03*
%TD*%
D11*
%TO.C,C42*%
X132918200Y-97993800D03*
X132918200Y-96443800D03*
%TD*%
D15*
%TO.C,C17*%
X129223000Y-118872000D03*
X129223000Y-120422000D03*
%TD*%
%TO.C,C28*%
X110972600Y-107188000D03*
X110972600Y-108738000D03*
%TD*%
D44*
%TO.C,L1*%
X77216000Y-90548000D03*
X77216000Y-93348000D03*
%TD*%
D16*
%TO.C,TP4*%
X126999000Y-96520000D03*
%TD*%
D14*
%TO.C,R49*%
X142367000Y-91567000D03*
X140717000Y-91567000D03*
%TD*%
D26*
%TO.C,R53*%
X109347000Y-88518000D03*
X109347000Y-86868000D03*
%TD*%
D23*
%TO.C,H3*%
X64128000Y-87503000D03*
%TD*%
D18*
%TO.C,R2*%
X103378000Y-85598000D03*
X103378000Y-87248000D03*
%TD*%
D14*
%TO.C,R52*%
X139255000Y-91567000D03*
X137605000Y-91567000D03*
%TD*%
%TO.C,R51*%
X142367000Y-89916000D03*
X140717000Y-89916000D03*
%TD*%
D45*
%TO.C,U5*%
X130628000Y-119127000D03*
X131128000Y-119127000D03*
X131628000Y-119127000D03*
X131628000Y-117627000D03*
X131128000Y-117627000D03*
X130628000Y-117627000D03*
%TD*%
D28*
%TO.C,R48*%
X87376000Y-103378000D03*
X89026000Y-103378000D03*
%TD*%
M02*
