%TF.GenerationSoftware,KiCad,Pcbnew,7.0.2-0*%
%TF.CreationDate,2024-02-19T10:57:34-08:00*%
%TF.ProjectId,led-usb-hub,6c65642d-7573-4622-9d68-75622e6b6963,rev?*%
%TF.SameCoordinates,Original*%
%TF.FileFunction,Legend,Bot*%
%TF.FilePolarity,Positive*%
%FSLAX46Y46*%
G04 Gerber Fmt 4.6, Leading zero omitted, Abs format (unit mm)*
G04 Created by KiCad (PCBNEW 7.0.2-0) date 2024-02-19 10:57:34*
%MOMM*%
%LPD*%
G01*
G04 APERTURE LIST*
%ADD10C,0.150000*%
%ADD11C,0.120000*%
%ADD12C,0.200000*%
%ADD13C,0.100000*%
G04 APERTURE END LIST*
D10*
%TO.C,R32*%
X124785857Y-107142619D02*
X125119190Y-106666428D01*
X125357285Y-107142619D02*
X125357285Y-106142619D01*
X125357285Y-106142619D02*
X124976333Y-106142619D01*
X124976333Y-106142619D02*
X124881095Y-106190238D01*
X124881095Y-106190238D02*
X124833476Y-106237857D01*
X124833476Y-106237857D02*
X124785857Y-106333095D01*
X124785857Y-106333095D02*
X124785857Y-106475952D01*
X124785857Y-106475952D02*
X124833476Y-106571190D01*
X124833476Y-106571190D02*
X124881095Y-106618809D01*
X124881095Y-106618809D02*
X124976333Y-106666428D01*
X124976333Y-106666428D02*
X125357285Y-106666428D01*
X124452523Y-106142619D02*
X123833476Y-106142619D01*
X123833476Y-106142619D02*
X124166809Y-106523571D01*
X124166809Y-106523571D02*
X124023952Y-106523571D01*
X124023952Y-106523571D02*
X123928714Y-106571190D01*
X123928714Y-106571190D02*
X123881095Y-106618809D01*
X123881095Y-106618809D02*
X123833476Y-106714047D01*
X123833476Y-106714047D02*
X123833476Y-106952142D01*
X123833476Y-106952142D02*
X123881095Y-107047380D01*
X123881095Y-107047380D02*
X123928714Y-107095000D01*
X123928714Y-107095000D02*
X124023952Y-107142619D01*
X124023952Y-107142619D02*
X124309666Y-107142619D01*
X124309666Y-107142619D02*
X124404904Y-107095000D01*
X124404904Y-107095000D02*
X124452523Y-107047380D01*
X123452523Y-106237857D02*
X123404904Y-106190238D01*
X123404904Y-106190238D02*
X123309666Y-106142619D01*
X123309666Y-106142619D02*
X123071571Y-106142619D01*
X123071571Y-106142619D02*
X122976333Y-106190238D01*
X122976333Y-106190238D02*
X122928714Y-106237857D01*
X122928714Y-106237857D02*
X122881095Y-106333095D01*
X122881095Y-106333095D02*
X122881095Y-106428333D01*
X122881095Y-106428333D02*
X122928714Y-106571190D01*
X122928714Y-106571190D02*
X123500142Y-107142619D01*
X123500142Y-107142619D02*
X122881095Y-107142619D01*
%TO.C,C39*%
X133979857Y-104202380D02*
X134027476Y-104250000D01*
X134027476Y-104250000D02*
X134170333Y-104297619D01*
X134170333Y-104297619D02*
X134265571Y-104297619D01*
X134265571Y-104297619D02*
X134408428Y-104250000D01*
X134408428Y-104250000D02*
X134503666Y-104154761D01*
X134503666Y-104154761D02*
X134551285Y-104059523D01*
X134551285Y-104059523D02*
X134598904Y-103869047D01*
X134598904Y-103869047D02*
X134598904Y-103726190D01*
X134598904Y-103726190D02*
X134551285Y-103535714D01*
X134551285Y-103535714D02*
X134503666Y-103440476D01*
X134503666Y-103440476D02*
X134408428Y-103345238D01*
X134408428Y-103345238D02*
X134265571Y-103297619D01*
X134265571Y-103297619D02*
X134170333Y-103297619D01*
X134170333Y-103297619D02*
X134027476Y-103345238D01*
X134027476Y-103345238D02*
X133979857Y-103392857D01*
X133646523Y-103297619D02*
X133027476Y-103297619D01*
X133027476Y-103297619D02*
X133360809Y-103678571D01*
X133360809Y-103678571D02*
X133217952Y-103678571D01*
X133217952Y-103678571D02*
X133122714Y-103726190D01*
X133122714Y-103726190D02*
X133075095Y-103773809D01*
X133075095Y-103773809D02*
X133027476Y-103869047D01*
X133027476Y-103869047D02*
X133027476Y-104107142D01*
X133027476Y-104107142D02*
X133075095Y-104202380D01*
X133075095Y-104202380D02*
X133122714Y-104250000D01*
X133122714Y-104250000D02*
X133217952Y-104297619D01*
X133217952Y-104297619D02*
X133503666Y-104297619D01*
X133503666Y-104297619D02*
X133598904Y-104250000D01*
X133598904Y-104250000D02*
X133646523Y-104202380D01*
X132551285Y-104297619D02*
X132360809Y-104297619D01*
X132360809Y-104297619D02*
X132265571Y-104250000D01*
X132265571Y-104250000D02*
X132217952Y-104202380D01*
X132217952Y-104202380D02*
X132122714Y-104059523D01*
X132122714Y-104059523D02*
X132075095Y-103869047D01*
X132075095Y-103869047D02*
X132075095Y-103488095D01*
X132075095Y-103488095D02*
X132122714Y-103392857D01*
X132122714Y-103392857D02*
X132170333Y-103345238D01*
X132170333Y-103345238D02*
X132265571Y-103297619D01*
X132265571Y-103297619D02*
X132456047Y-103297619D01*
X132456047Y-103297619D02*
X132551285Y-103345238D01*
X132551285Y-103345238D02*
X132598904Y-103392857D01*
X132598904Y-103392857D02*
X132646523Y-103488095D01*
X132646523Y-103488095D02*
X132646523Y-103726190D01*
X132646523Y-103726190D02*
X132598904Y-103821428D01*
X132598904Y-103821428D02*
X132551285Y-103869047D01*
X132551285Y-103869047D02*
X132456047Y-103916666D01*
X132456047Y-103916666D02*
X132265571Y-103916666D01*
X132265571Y-103916666D02*
X132170333Y-103869047D01*
X132170333Y-103869047D02*
X132122714Y-103821428D01*
X132122714Y-103821428D02*
X132075095Y-103726190D01*
%TO.C,C35*%
X71762857Y-114099380D02*
X71810476Y-114147000D01*
X71810476Y-114147000D02*
X71953333Y-114194619D01*
X71953333Y-114194619D02*
X72048571Y-114194619D01*
X72048571Y-114194619D02*
X72191428Y-114147000D01*
X72191428Y-114147000D02*
X72286666Y-114051761D01*
X72286666Y-114051761D02*
X72334285Y-113956523D01*
X72334285Y-113956523D02*
X72381904Y-113766047D01*
X72381904Y-113766047D02*
X72381904Y-113623190D01*
X72381904Y-113623190D02*
X72334285Y-113432714D01*
X72334285Y-113432714D02*
X72286666Y-113337476D01*
X72286666Y-113337476D02*
X72191428Y-113242238D01*
X72191428Y-113242238D02*
X72048571Y-113194619D01*
X72048571Y-113194619D02*
X71953333Y-113194619D01*
X71953333Y-113194619D02*
X71810476Y-113242238D01*
X71810476Y-113242238D02*
X71762857Y-113289857D01*
X71429523Y-113194619D02*
X70810476Y-113194619D01*
X70810476Y-113194619D02*
X71143809Y-113575571D01*
X71143809Y-113575571D02*
X71000952Y-113575571D01*
X71000952Y-113575571D02*
X70905714Y-113623190D01*
X70905714Y-113623190D02*
X70858095Y-113670809D01*
X70858095Y-113670809D02*
X70810476Y-113766047D01*
X70810476Y-113766047D02*
X70810476Y-114004142D01*
X70810476Y-114004142D02*
X70858095Y-114099380D01*
X70858095Y-114099380D02*
X70905714Y-114147000D01*
X70905714Y-114147000D02*
X71000952Y-114194619D01*
X71000952Y-114194619D02*
X71286666Y-114194619D01*
X71286666Y-114194619D02*
X71381904Y-114147000D01*
X71381904Y-114147000D02*
X71429523Y-114099380D01*
X69905714Y-113194619D02*
X70381904Y-113194619D01*
X70381904Y-113194619D02*
X70429523Y-113670809D01*
X70429523Y-113670809D02*
X70381904Y-113623190D01*
X70381904Y-113623190D02*
X70286666Y-113575571D01*
X70286666Y-113575571D02*
X70048571Y-113575571D01*
X70048571Y-113575571D02*
X69953333Y-113623190D01*
X69953333Y-113623190D02*
X69905714Y-113670809D01*
X69905714Y-113670809D02*
X69858095Y-113766047D01*
X69858095Y-113766047D02*
X69858095Y-114004142D01*
X69858095Y-114004142D02*
X69905714Y-114099380D01*
X69905714Y-114099380D02*
X69953333Y-114147000D01*
X69953333Y-114147000D02*
X70048571Y-114194619D01*
X70048571Y-114194619D02*
X70286666Y-114194619D01*
X70286666Y-114194619D02*
X70381904Y-114147000D01*
X70381904Y-114147000D02*
X70429523Y-114099380D01*
%TO.C,C36*%
X132328857Y-100519380D02*
X132376476Y-100567000D01*
X132376476Y-100567000D02*
X132519333Y-100614619D01*
X132519333Y-100614619D02*
X132614571Y-100614619D01*
X132614571Y-100614619D02*
X132757428Y-100567000D01*
X132757428Y-100567000D02*
X132852666Y-100471761D01*
X132852666Y-100471761D02*
X132900285Y-100376523D01*
X132900285Y-100376523D02*
X132947904Y-100186047D01*
X132947904Y-100186047D02*
X132947904Y-100043190D01*
X132947904Y-100043190D02*
X132900285Y-99852714D01*
X132900285Y-99852714D02*
X132852666Y-99757476D01*
X132852666Y-99757476D02*
X132757428Y-99662238D01*
X132757428Y-99662238D02*
X132614571Y-99614619D01*
X132614571Y-99614619D02*
X132519333Y-99614619D01*
X132519333Y-99614619D02*
X132376476Y-99662238D01*
X132376476Y-99662238D02*
X132328857Y-99709857D01*
X131995523Y-99614619D02*
X131376476Y-99614619D01*
X131376476Y-99614619D02*
X131709809Y-99995571D01*
X131709809Y-99995571D02*
X131566952Y-99995571D01*
X131566952Y-99995571D02*
X131471714Y-100043190D01*
X131471714Y-100043190D02*
X131424095Y-100090809D01*
X131424095Y-100090809D02*
X131376476Y-100186047D01*
X131376476Y-100186047D02*
X131376476Y-100424142D01*
X131376476Y-100424142D02*
X131424095Y-100519380D01*
X131424095Y-100519380D02*
X131471714Y-100567000D01*
X131471714Y-100567000D02*
X131566952Y-100614619D01*
X131566952Y-100614619D02*
X131852666Y-100614619D01*
X131852666Y-100614619D02*
X131947904Y-100567000D01*
X131947904Y-100567000D02*
X131995523Y-100519380D01*
X130519333Y-99614619D02*
X130709809Y-99614619D01*
X130709809Y-99614619D02*
X130805047Y-99662238D01*
X130805047Y-99662238D02*
X130852666Y-99709857D01*
X130852666Y-99709857D02*
X130947904Y-99852714D01*
X130947904Y-99852714D02*
X130995523Y-100043190D01*
X130995523Y-100043190D02*
X130995523Y-100424142D01*
X130995523Y-100424142D02*
X130947904Y-100519380D01*
X130947904Y-100519380D02*
X130900285Y-100567000D01*
X130900285Y-100567000D02*
X130805047Y-100614619D01*
X130805047Y-100614619D02*
X130614571Y-100614619D01*
X130614571Y-100614619D02*
X130519333Y-100567000D01*
X130519333Y-100567000D02*
X130471714Y-100519380D01*
X130471714Y-100519380D02*
X130424095Y-100424142D01*
X130424095Y-100424142D02*
X130424095Y-100186047D01*
X130424095Y-100186047D02*
X130471714Y-100090809D01*
X130471714Y-100090809D02*
X130519333Y-100043190D01*
X130519333Y-100043190D02*
X130614571Y-99995571D01*
X130614571Y-99995571D02*
X130805047Y-99995571D01*
X130805047Y-99995571D02*
X130900285Y-100043190D01*
X130900285Y-100043190D02*
X130947904Y-100090809D01*
X130947904Y-100090809D02*
X130995523Y-100186047D01*
%TO.C,R40*%
X63825857Y-114969619D02*
X64159190Y-114493428D01*
X64397285Y-114969619D02*
X64397285Y-113969619D01*
X64397285Y-113969619D02*
X64016333Y-113969619D01*
X64016333Y-113969619D02*
X63921095Y-114017238D01*
X63921095Y-114017238D02*
X63873476Y-114064857D01*
X63873476Y-114064857D02*
X63825857Y-114160095D01*
X63825857Y-114160095D02*
X63825857Y-114302952D01*
X63825857Y-114302952D02*
X63873476Y-114398190D01*
X63873476Y-114398190D02*
X63921095Y-114445809D01*
X63921095Y-114445809D02*
X64016333Y-114493428D01*
X64016333Y-114493428D02*
X64397285Y-114493428D01*
X62968714Y-114302952D02*
X62968714Y-114969619D01*
X63206809Y-113922000D02*
X63444904Y-114636285D01*
X63444904Y-114636285D02*
X62825857Y-114636285D01*
X62254428Y-113969619D02*
X62159190Y-113969619D01*
X62159190Y-113969619D02*
X62063952Y-114017238D01*
X62063952Y-114017238D02*
X62016333Y-114064857D01*
X62016333Y-114064857D02*
X61968714Y-114160095D01*
X61968714Y-114160095D02*
X61921095Y-114350571D01*
X61921095Y-114350571D02*
X61921095Y-114588666D01*
X61921095Y-114588666D02*
X61968714Y-114779142D01*
X61968714Y-114779142D02*
X62016333Y-114874380D01*
X62016333Y-114874380D02*
X62063952Y-114922000D01*
X62063952Y-114922000D02*
X62159190Y-114969619D01*
X62159190Y-114969619D02*
X62254428Y-114969619D01*
X62254428Y-114969619D02*
X62349666Y-114922000D01*
X62349666Y-114922000D02*
X62397285Y-114874380D01*
X62397285Y-114874380D02*
X62444904Y-114779142D01*
X62444904Y-114779142D02*
X62492523Y-114588666D01*
X62492523Y-114588666D02*
X62492523Y-114350571D01*
X62492523Y-114350571D02*
X62444904Y-114160095D01*
X62444904Y-114160095D02*
X62397285Y-114064857D01*
X62397285Y-114064857D02*
X62349666Y-114017238D01*
X62349666Y-114017238D02*
X62254428Y-113969619D01*
%TO.C,R34*%
X145501857Y-111206619D02*
X145835190Y-110730428D01*
X146073285Y-111206619D02*
X146073285Y-110206619D01*
X146073285Y-110206619D02*
X145692333Y-110206619D01*
X145692333Y-110206619D02*
X145597095Y-110254238D01*
X145597095Y-110254238D02*
X145549476Y-110301857D01*
X145549476Y-110301857D02*
X145501857Y-110397095D01*
X145501857Y-110397095D02*
X145501857Y-110539952D01*
X145501857Y-110539952D02*
X145549476Y-110635190D01*
X145549476Y-110635190D02*
X145597095Y-110682809D01*
X145597095Y-110682809D02*
X145692333Y-110730428D01*
X145692333Y-110730428D02*
X146073285Y-110730428D01*
X145168523Y-110206619D02*
X144549476Y-110206619D01*
X144549476Y-110206619D02*
X144882809Y-110587571D01*
X144882809Y-110587571D02*
X144739952Y-110587571D01*
X144739952Y-110587571D02*
X144644714Y-110635190D01*
X144644714Y-110635190D02*
X144597095Y-110682809D01*
X144597095Y-110682809D02*
X144549476Y-110778047D01*
X144549476Y-110778047D02*
X144549476Y-111016142D01*
X144549476Y-111016142D02*
X144597095Y-111111380D01*
X144597095Y-111111380D02*
X144644714Y-111159000D01*
X144644714Y-111159000D02*
X144739952Y-111206619D01*
X144739952Y-111206619D02*
X145025666Y-111206619D01*
X145025666Y-111206619D02*
X145120904Y-111159000D01*
X145120904Y-111159000D02*
X145168523Y-111111380D01*
X143692333Y-110539952D02*
X143692333Y-111206619D01*
X143930428Y-110159000D02*
X144168523Y-110873285D01*
X144168523Y-110873285D02*
X143549476Y-110873285D01*
%TO.C,R37*%
X89034857Y-123398619D02*
X89368190Y-122922428D01*
X89606285Y-123398619D02*
X89606285Y-122398619D01*
X89606285Y-122398619D02*
X89225333Y-122398619D01*
X89225333Y-122398619D02*
X89130095Y-122446238D01*
X89130095Y-122446238D02*
X89082476Y-122493857D01*
X89082476Y-122493857D02*
X89034857Y-122589095D01*
X89034857Y-122589095D02*
X89034857Y-122731952D01*
X89034857Y-122731952D02*
X89082476Y-122827190D01*
X89082476Y-122827190D02*
X89130095Y-122874809D01*
X89130095Y-122874809D02*
X89225333Y-122922428D01*
X89225333Y-122922428D02*
X89606285Y-122922428D01*
X88701523Y-122398619D02*
X88082476Y-122398619D01*
X88082476Y-122398619D02*
X88415809Y-122779571D01*
X88415809Y-122779571D02*
X88272952Y-122779571D01*
X88272952Y-122779571D02*
X88177714Y-122827190D01*
X88177714Y-122827190D02*
X88130095Y-122874809D01*
X88130095Y-122874809D02*
X88082476Y-122970047D01*
X88082476Y-122970047D02*
X88082476Y-123208142D01*
X88082476Y-123208142D02*
X88130095Y-123303380D01*
X88130095Y-123303380D02*
X88177714Y-123351000D01*
X88177714Y-123351000D02*
X88272952Y-123398619D01*
X88272952Y-123398619D02*
X88558666Y-123398619D01*
X88558666Y-123398619D02*
X88653904Y-123351000D01*
X88653904Y-123351000D02*
X88701523Y-123303380D01*
X87749142Y-122398619D02*
X87082476Y-122398619D01*
X87082476Y-122398619D02*
X87511047Y-123398619D01*
%TO.C,R41*%
X59062857Y-111206619D02*
X59396190Y-110730428D01*
X59634285Y-111206619D02*
X59634285Y-110206619D01*
X59634285Y-110206619D02*
X59253333Y-110206619D01*
X59253333Y-110206619D02*
X59158095Y-110254238D01*
X59158095Y-110254238D02*
X59110476Y-110301857D01*
X59110476Y-110301857D02*
X59062857Y-110397095D01*
X59062857Y-110397095D02*
X59062857Y-110539952D01*
X59062857Y-110539952D02*
X59110476Y-110635190D01*
X59110476Y-110635190D02*
X59158095Y-110682809D01*
X59158095Y-110682809D02*
X59253333Y-110730428D01*
X59253333Y-110730428D02*
X59634285Y-110730428D01*
X58205714Y-110539952D02*
X58205714Y-111206619D01*
X58443809Y-110159000D02*
X58681904Y-110873285D01*
X58681904Y-110873285D02*
X58062857Y-110873285D01*
X57158095Y-111206619D02*
X57729523Y-111206619D01*
X57443809Y-111206619D02*
X57443809Y-110206619D01*
X57443809Y-110206619D02*
X57539047Y-110349476D01*
X57539047Y-110349476D02*
X57634285Y-110444714D01*
X57634285Y-110444714D02*
X57729523Y-110492333D01*
%TO.C,C40*%
X132227857Y-102043380D02*
X132275476Y-102091000D01*
X132275476Y-102091000D02*
X132418333Y-102138619D01*
X132418333Y-102138619D02*
X132513571Y-102138619D01*
X132513571Y-102138619D02*
X132656428Y-102091000D01*
X132656428Y-102091000D02*
X132751666Y-101995761D01*
X132751666Y-101995761D02*
X132799285Y-101900523D01*
X132799285Y-101900523D02*
X132846904Y-101710047D01*
X132846904Y-101710047D02*
X132846904Y-101567190D01*
X132846904Y-101567190D02*
X132799285Y-101376714D01*
X132799285Y-101376714D02*
X132751666Y-101281476D01*
X132751666Y-101281476D02*
X132656428Y-101186238D01*
X132656428Y-101186238D02*
X132513571Y-101138619D01*
X132513571Y-101138619D02*
X132418333Y-101138619D01*
X132418333Y-101138619D02*
X132275476Y-101186238D01*
X132275476Y-101186238D02*
X132227857Y-101233857D01*
X131370714Y-101471952D02*
X131370714Y-102138619D01*
X131608809Y-101091000D02*
X131846904Y-101805285D01*
X131846904Y-101805285D02*
X131227857Y-101805285D01*
X130656428Y-101138619D02*
X130561190Y-101138619D01*
X130561190Y-101138619D02*
X130465952Y-101186238D01*
X130465952Y-101186238D02*
X130418333Y-101233857D01*
X130418333Y-101233857D02*
X130370714Y-101329095D01*
X130370714Y-101329095D02*
X130323095Y-101519571D01*
X130323095Y-101519571D02*
X130323095Y-101757666D01*
X130323095Y-101757666D02*
X130370714Y-101948142D01*
X130370714Y-101948142D02*
X130418333Y-102043380D01*
X130418333Y-102043380D02*
X130465952Y-102091000D01*
X130465952Y-102091000D02*
X130561190Y-102138619D01*
X130561190Y-102138619D02*
X130656428Y-102138619D01*
X130656428Y-102138619D02*
X130751666Y-102091000D01*
X130751666Y-102091000D02*
X130799285Y-102043380D01*
X130799285Y-102043380D02*
X130846904Y-101948142D01*
X130846904Y-101948142D02*
X130894523Y-101757666D01*
X130894523Y-101757666D02*
X130894523Y-101519571D01*
X130894523Y-101519571D02*
X130846904Y-101329095D01*
X130846904Y-101329095D02*
X130799285Y-101233857D01*
X130799285Y-101233857D02*
X130751666Y-101186238D01*
X130751666Y-101186238D02*
X130656428Y-101138619D01*
%TO.C,C26*%
X95384857Y-94982380D02*
X95432476Y-95030000D01*
X95432476Y-95030000D02*
X95575333Y-95077619D01*
X95575333Y-95077619D02*
X95670571Y-95077619D01*
X95670571Y-95077619D02*
X95813428Y-95030000D01*
X95813428Y-95030000D02*
X95908666Y-94934761D01*
X95908666Y-94934761D02*
X95956285Y-94839523D01*
X95956285Y-94839523D02*
X96003904Y-94649047D01*
X96003904Y-94649047D02*
X96003904Y-94506190D01*
X96003904Y-94506190D02*
X95956285Y-94315714D01*
X95956285Y-94315714D02*
X95908666Y-94220476D01*
X95908666Y-94220476D02*
X95813428Y-94125238D01*
X95813428Y-94125238D02*
X95670571Y-94077619D01*
X95670571Y-94077619D02*
X95575333Y-94077619D01*
X95575333Y-94077619D02*
X95432476Y-94125238D01*
X95432476Y-94125238D02*
X95384857Y-94172857D01*
X95003904Y-94172857D02*
X94956285Y-94125238D01*
X94956285Y-94125238D02*
X94861047Y-94077619D01*
X94861047Y-94077619D02*
X94622952Y-94077619D01*
X94622952Y-94077619D02*
X94527714Y-94125238D01*
X94527714Y-94125238D02*
X94480095Y-94172857D01*
X94480095Y-94172857D02*
X94432476Y-94268095D01*
X94432476Y-94268095D02*
X94432476Y-94363333D01*
X94432476Y-94363333D02*
X94480095Y-94506190D01*
X94480095Y-94506190D02*
X95051523Y-95077619D01*
X95051523Y-95077619D02*
X94432476Y-95077619D01*
X93575333Y-94077619D02*
X93765809Y-94077619D01*
X93765809Y-94077619D02*
X93861047Y-94125238D01*
X93861047Y-94125238D02*
X93908666Y-94172857D01*
X93908666Y-94172857D02*
X94003904Y-94315714D01*
X94003904Y-94315714D02*
X94051523Y-94506190D01*
X94051523Y-94506190D02*
X94051523Y-94887142D01*
X94051523Y-94887142D02*
X94003904Y-94982380D01*
X94003904Y-94982380D02*
X93956285Y-95030000D01*
X93956285Y-95030000D02*
X93861047Y-95077619D01*
X93861047Y-95077619D02*
X93670571Y-95077619D01*
X93670571Y-95077619D02*
X93575333Y-95030000D01*
X93575333Y-95030000D02*
X93527714Y-94982380D01*
X93527714Y-94982380D02*
X93480095Y-94887142D01*
X93480095Y-94887142D02*
X93480095Y-94649047D01*
X93480095Y-94649047D02*
X93527714Y-94553809D01*
X93527714Y-94553809D02*
X93575333Y-94506190D01*
X93575333Y-94506190D02*
X93670571Y-94458571D01*
X93670571Y-94458571D02*
X93861047Y-94458571D01*
X93861047Y-94458571D02*
X93956285Y-94506190D01*
X93956285Y-94506190D02*
X94003904Y-94553809D01*
X94003904Y-94553809D02*
X94051523Y-94649047D01*
%TO.C,U9*%
X148589904Y-116201619D02*
X148589904Y-117011142D01*
X148589904Y-117011142D02*
X148542285Y-117106380D01*
X148542285Y-117106380D02*
X148494666Y-117154000D01*
X148494666Y-117154000D02*
X148399428Y-117201619D01*
X148399428Y-117201619D02*
X148208952Y-117201619D01*
X148208952Y-117201619D02*
X148113714Y-117154000D01*
X148113714Y-117154000D02*
X148066095Y-117106380D01*
X148066095Y-117106380D02*
X148018476Y-117011142D01*
X148018476Y-117011142D02*
X148018476Y-116201619D01*
X147494666Y-117201619D02*
X147304190Y-117201619D01*
X147304190Y-117201619D02*
X147208952Y-117154000D01*
X147208952Y-117154000D02*
X147161333Y-117106380D01*
X147161333Y-117106380D02*
X147066095Y-116963523D01*
X147066095Y-116963523D02*
X147018476Y-116773047D01*
X147018476Y-116773047D02*
X147018476Y-116392095D01*
X147018476Y-116392095D02*
X147066095Y-116296857D01*
X147066095Y-116296857D02*
X147113714Y-116249238D01*
X147113714Y-116249238D02*
X147208952Y-116201619D01*
X147208952Y-116201619D02*
X147399428Y-116201619D01*
X147399428Y-116201619D02*
X147494666Y-116249238D01*
X147494666Y-116249238D02*
X147542285Y-116296857D01*
X147542285Y-116296857D02*
X147589904Y-116392095D01*
X147589904Y-116392095D02*
X147589904Y-116630190D01*
X147589904Y-116630190D02*
X147542285Y-116725428D01*
X147542285Y-116725428D02*
X147494666Y-116773047D01*
X147494666Y-116773047D02*
X147399428Y-116820666D01*
X147399428Y-116820666D02*
X147208952Y-116820666D01*
X147208952Y-116820666D02*
X147113714Y-116773047D01*
X147113714Y-116773047D02*
X147066095Y-116725428D01*
X147066095Y-116725428D02*
X147018476Y-116630190D01*
%TO.C,R38*%
X89034857Y-115778619D02*
X89368190Y-115302428D01*
X89606285Y-115778619D02*
X89606285Y-114778619D01*
X89606285Y-114778619D02*
X89225333Y-114778619D01*
X89225333Y-114778619D02*
X89130095Y-114826238D01*
X89130095Y-114826238D02*
X89082476Y-114873857D01*
X89082476Y-114873857D02*
X89034857Y-114969095D01*
X89034857Y-114969095D02*
X89034857Y-115111952D01*
X89034857Y-115111952D02*
X89082476Y-115207190D01*
X89082476Y-115207190D02*
X89130095Y-115254809D01*
X89130095Y-115254809D02*
X89225333Y-115302428D01*
X89225333Y-115302428D02*
X89606285Y-115302428D01*
X88701523Y-114778619D02*
X88082476Y-114778619D01*
X88082476Y-114778619D02*
X88415809Y-115159571D01*
X88415809Y-115159571D02*
X88272952Y-115159571D01*
X88272952Y-115159571D02*
X88177714Y-115207190D01*
X88177714Y-115207190D02*
X88130095Y-115254809D01*
X88130095Y-115254809D02*
X88082476Y-115350047D01*
X88082476Y-115350047D02*
X88082476Y-115588142D01*
X88082476Y-115588142D02*
X88130095Y-115683380D01*
X88130095Y-115683380D02*
X88177714Y-115731000D01*
X88177714Y-115731000D02*
X88272952Y-115778619D01*
X88272952Y-115778619D02*
X88558666Y-115778619D01*
X88558666Y-115778619D02*
X88653904Y-115731000D01*
X88653904Y-115731000D02*
X88701523Y-115683380D01*
X87511047Y-115207190D02*
X87606285Y-115159571D01*
X87606285Y-115159571D02*
X87653904Y-115111952D01*
X87653904Y-115111952D02*
X87701523Y-115016714D01*
X87701523Y-115016714D02*
X87701523Y-114969095D01*
X87701523Y-114969095D02*
X87653904Y-114873857D01*
X87653904Y-114873857D02*
X87606285Y-114826238D01*
X87606285Y-114826238D02*
X87511047Y-114778619D01*
X87511047Y-114778619D02*
X87320571Y-114778619D01*
X87320571Y-114778619D02*
X87225333Y-114826238D01*
X87225333Y-114826238D02*
X87177714Y-114873857D01*
X87177714Y-114873857D02*
X87130095Y-114969095D01*
X87130095Y-114969095D02*
X87130095Y-115016714D01*
X87130095Y-115016714D02*
X87177714Y-115111952D01*
X87177714Y-115111952D02*
X87225333Y-115159571D01*
X87225333Y-115159571D02*
X87320571Y-115207190D01*
X87320571Y-115207190D02*
X87511047Y-115207190D01*
X87511047Y-115207190D02*
X87606285Y-115254809D01*
X87606285Y-115254809D02*
X87653904Y-115302428D01*
X87653904Y-115302428D02*
X87701523Y-115397666D01*
X87701523Y-115397666D02*
X87701523Y-115588142D01*
X87701523Y-115588142D02*
X87653904Y-115683380D01*
X87653904Y-115683380D02*
X87606285Y-115731000D01*
X87606285Y-115731000D02*
X87511047Y-115778619D01*
X87511047Y-115778619D02*
X87320571Y-115778619D01*
X87320571Y-115778619D02*
X87225333Y-115731000D01*
X87225333Y-115731000D02*
X87177714Y-115683380D01*
X87177714Y-115683380D02*
X87130095Y-115588142D01*
X87130095Y-115588142D02*
X87130095Y-115397666D01*
X87130095Y-115397666D02*
X87177714Y-115302428D01*
X87177714Y-115302428D02*
X87225333Y-115254809D01*
X87225333Y-115254809D02*
X87320571Y-115207190D01*
%TO.C,C24*%
X90545857Y-103839380D02*
X90593476Y-103887000D01*
X90593476Y-103887000D02*
X90736333Y-103934619D01*
X90736333Y-103934619D02*
X90831571Y-103934619D01*
X90831571Y-103934619D02*
X90974428Y-103887000D01*
X90974428Y-103887000D02*
X91069666Y-103791761D01*
X91069666Y-103791761D02*
X91117285Y-103696523D01*
X91117285Y-103696523D02*
X91164904Y-103506047D01*
X91164904Y-103506047D02*
X91164904Y-103363190D01*
X91164904Y-103363190D02*
X91117285Y-103172714D01*
X91117285Y-103172714D02*
X91069666Y-103077476D01*
X91069666Y-103077476D02*
X90974428Y-102982238D01*
X90974428Y-102982238D02*
X90831571Y-102934619D01*
X90831571Y-102934619D02*
X90736333Y-102934619D01*
X90736333Y-102934619D02*
X90593476Y-102982238D01*
X90593476Y-102982238D02*
X90545857Y-103029857D01*
X90164904Y-103029857D02*
X90117285Y-102982238D01*
X90117285Y-102982238D02*
X90022047Y-102934619D01*
X90022047Y-102934619D02*
X89783952Y-102934619D01*
X89783952Y-102934619D02*
X89688714Y-102982238D01*
X89688714Y-102982238D02*
X89641095Y-103029857D01*
X89641095Y-103029857D02*
X89593476Y-103125095D01*
X89593476Y-103125095D02*
X89593476Y-103220333D01*
X89593476Y-103220333D02*
X89641095Y-103363190D01*
X89641095Y-103363190D02*
X90212523Y-103934619D01*
X90212523Y-103934619D02*
X89593476Y-103934619D01*
X88736333Y-103267952D02*
X88736333Y-103934619D01*
X88974428Y-102887000D02*
X89212523Y-103601285D01*
X89212523Y-103601285D02*
X88593476Y-103601285D01*
%TO.C,C25*%
X102115857Y-97014380D02*
X102163476Y-97062000D01*
X102163476Y-97062000D02*
X102306333Y-97109619D01*
X102306333Y-97109619D02*
X102401571Y-97109619D01*
X102401571Y-97109619D02*
X102544428Y-97062000D01*
X102544428Y-97062000D02*
X102639666Y-96966761D01*
X102639666Y-96966761D02*
X102687285Y-96871523D01*
X102687285Y-96871523D02*
X102734904Y-96681047D01*
X102734904Y-96681047D02*
X102734904Y-96538190D01*
X102734904Y-96538190D02*
X102687285Y-96347714D01*
X102687285Y-96347714D02*
X102639666Y-96252476D01*
X102639666Y-96252476D02*
X102544428Y-96157238D01*
X102544428Y-96157238D02*
X102401571Y-96109619D01*
X102401571Y-96109619D02*
X102306333Y-96109619D01*
X102306333Y-96109619D02*
X102163476Y-96157238D01*
X102163476Y-96157238D02*
X102115857Y-96204857D01*
X101734904Y-96204857D02*
X101687285Y-96157238D01*
X101687285Y-96157238D02*
X101592047Y-96109619D01*
X101592047Y-96109619D02*
X101353952Y-96109619D01*
X101353952Y-96109619D02*
X101258714Y-96157238D01*
X101258714Y-96157238D02*
X101211095Y-96204857D01*
X101211095Y-96204857D02*
X101163476Y-96300095D01*
X101163476Y-96300095D02*
X101163476Y-96395333D01*
X101163476Y-96395333D02*
X101211095Y-96538190D01*
X101211095Y-96538190D02*
X101782523Y-97109619D01*
X101782523Y-97109619D02*
X101163476Y-97109619D01*
X100258714Y-96109619D02*
X100734904Y-96109619D01*
X100734904Y-96109619D02*
X100782523Y-96585809D01*
X100782523Y-96585809D02*
X100734904Y-96538190D01*
X100734904Y-96538190D02*
X100639666Y-96490571D01*
X100639666Y-96490571D02*
X100401571Y-96490571D01*
X100401571Y-96490571D02*
X100306333Y-96538190D01*
X100306333Y-96538190D02*
X100258714Y-96585809D01*
X100258714Y-96585809D02*
X100211095Y-96681047D01*
X100211095Y-96681047D02*
X100211095Y-96919142D01*
X100211095Y-96919142D02*
X100258714Y-97014380D01*
X100258714Y-97014380D02*
X100306333Y-97062000D01*
X100306333Y-97062000D02*
X100401571Y-97109619D01*
X100401571Y-97109619D02*
X100639666Y-97109619D01*
X100639666Y-97109619D02*
X100734904Y-97062000D01*
X100734904Y-97062000D02*
X100782523Y-97014380D01*
%TO.C,C41*%
X144634857Y-102221380D02*
X144682476Y-102269000D01*
X144682476Y-102269000D02*
X144825333Y-102316619D01*
X144825333Y-102316619D02*
X144920571Y-102316619D01*
X144920571Y-102316619D02*
X145063428Y-102269000D01*
X145063428Y-102269000D02*
X145158666Y-102173761D01*
X145158666Y-102173761D02*
X145206285Y-102078523D01*
X145206285Y-102078523D02*
X145253904Y-101888047D01*
X145253904Y-101888047D02*
X145253904Y-101745190D01*
X145253904Y-101745190D02*
X145206285Y-101554714D01*
X145206285Y-101554714D02*
X145158666Y-101459476D01*
X145158666Y-101459476D02*
X145063428Y-101364238D01*
X145063428Y-101364238D02*
X144920571Y-101316619D01*
X144920571Y-101316619D02*
X144825333Y-101316619D01*
X144825333Y-101316619D02*
X144682476Y-101364238D01*
X144682476Y-101364238D02*
X144634857Y-101411857D01*
X143777714Y-101649952D02*
X143777714Y-102316619D01*
X144015809Y-101269000D02*
X144253904Y-101983285D01*
X144253904Y-101983285D02*
X143634857Y-101983285D01*
X142730095Y-102316619D02*
X143301523Y-102316619D01*
X143015809Y-102316619D02*
X143015809Y-101316619D01*
X143015809Y-101316619D02*
X143111047Y-101459476D01*
X143111047Y-101459476D02*
X143206285Y-101554714D01*
X143206285Y-101554714D02*
X143301523Y-101602333D01*
%TO.C,C31*%
X114180857Y-106285380D02*
X114228476Y-106333000D01*
X114228476Y-106333000D02*
X114371333Y-106380619D01*
X114371333Y-106380619D02*
X114466571Y-106380619D01*
X114466571Y-106380619D02*
X114609428Y-106333000D01*
X114609428Y-106333000D02*
X114704666Y-106237761D01*
X114704666Y-106237761D02*
X114752285Y-106142523D01*
X114752285Y-106142523D02*
X114799904Y-105952047D01*
X114799904Y-105952047D02*
X114799904Y-105809190D01*
X114799904Y-105809190D02*
X114752285Y-105618714D01*
X114752285Y-105618714D02*
X114704666Y-105523476D01*
X114704666Y-105523476D02*
X114609428Y-105428238D01*
X114609428Y-105428238D02*
X114466571Y-105380619D01*
X114466571Y-105380619D02*
X114371333Y-105380619D01*
X114371333Y-105380619D02*
X114228476Y-105428238D01*
X114228476Y-105428238D02*
X114180857Y-105475857D01*
X113847523Y-105380619D02*
X113228476Y-105380619D01*
X113228476Y-105380619D02*
X113561809Y-105761571D01*
X113561809Y-105761571D02*
X113418952Y-105761571D01*
X113418952Y-105761571D02*
X113323714Y-105809190D01*
X113323714Y-105809190D02*
X113276095Y-105856809D01*
X113276095Y-105856809D02*
X113228476Y-105952047D01*
X113228476Y-105952047D02*
X113228476Y-106190142D01*
X113228476Y-106190142D02*
X113276095Y-106285380D01*
X113276095Y-106285380D02*
X113323714Y-106333000D01*
X113323714Y-106333000D02*
X113418952Y-106380619D01*
X113418952Y-106380619D02*
X113704666Y-106380619D01*
X113704666Y-106380619D02*
X113799904Y-106333000D01*
X113799904Y-106333000D02*
X113847523Y-106285380D01*
X112276095Y-106380619D02*
X112847523Y-106380619D01*
X112561809Y-106380619D02*
X112561809Y-105380619D01*
X112561809Y-105380619D02*
X112657047Y-105523476D01*
X112657047Y-105523476D02*
X112752285Y-105618714D01*
X112752285Y-105618714D02*
X112847523Y-105666333D01*
%TO.C,R42*%
X59062857Y-114207619D02*
X59396190Y-113731428D01*
X59634285Y-114207619D02*
X59634285Y-113207619D01*
X59634285Y-113207619D02*
X59253333Y-113207619D01*
X59253333Y-113207619D02*
X59158095Y-113255238D01*
X59158095Y-113255238D02*
X59110476Y-113302857D01*
X59110476Y-113302857D02*
X59062857Y-113398095D01*
X59062857Y-113398095D02*
X59062857Y-113540952D01*
X59062857Y-113540952D02*
X59110476Y-113636190D01*
X59110476Y-113636190D02*
X59158095Y-113683809D01*
X59158095Y-113683809D02*
X59253333Y-113731428D01*
X59253333Y-113731428D02*
X59634285Y-113731428D01*
X58205714Y-113540952D02*
X58205714Y-114207619D01*
X58443809Y-113160000D02*
X58681904Y-113874285D01*
X58681904Y-113874285D02*
X58062857Y-113874285D01*
X57729523Y-113302857D02*
X57681904Y-113255238D01*
X57681904Y-113255238D02*
X57586666Y-113207619D01*
X57586666Y-113207619D02*
X57348571Y-113207619D01*
X57348571Y-113207619D02*
X57253333Y-113255238D01*
X57253333Y-113255238D02*
X57205714Y-113302857D01*
X57205714Y-113302857D02*
X57158095Y-113398095D01*
X57158095Y-113398095D02*
X57158095Y-113493333D01*
X57158095Y-113493333D02*
X57205714Y-113636190D01*
X57205714Y-113636190D02*
X57777142Y-114207619D01*
X57777142Y-114207619D02*
X57158095Y-114207619D01*
%TO.C,C45*%
X136900857Y-107156380D02*
X136948476Y-107204000D01*
X136948476Y-107204000D02*
X137091333Y-107251619D01*
X137091333Y-107251619D02*
X137186571Y-107251619D01*
X137186571Y-107251619D02*
X137329428Y-107204000D01*
X137329428Y-107204000D02*
X137424666Y-107108761D01*
X137424666Y-107108761D02*
X137472285Y-107013523D01*
X137472285Y-107013523D02*
X137519904Y-106823047D01*
X137519904Y-106823047D02*
X137519904Y-106680190D01*
X137519904Y-106680190D02*
X137472285Y-106489714D01*
X137472285Y-106489714D02*
X137424666Y-106394476D01*
X137424666Y-106394476D02*
X137329428Y-106299238D01*
X137329428Y-106299238D02*
X137186571Y-106251619D01*
X137186571Y-106251619D02*
X137091333Y-106251619D01*
X137091333Y-106251619D02*
X136948476Y-106299238D01*
X136948476Y-106299238D02*
X136900857Y-106346857D01*
X136043714Y-106584952D02*
X136043714Y-107251619D01*
X136281809Y-106204000D02*
X136519904Y-106918285D01*
X136519904Y-106918285D02*
X135900857Y-106918285D01*
X135043714Y-106251619D02*
X135519904Y-106251619D01*
X135519904Y-106251619D02*
X135567523Y-106727809D01*
X135567523Y-106727809D02*
X135519904Y-106680190D01*
X135519904Y-106680190D02*
X135424666Y-106632571D01*
X135424666Y-106632571D02*
X135186571Y-106632571D01*
X135186571Y-106632571D02*
X135091333Y-106680190D01*
X135091333Y-106680190D02*
X135043714Y-106727809D01*
X135043714Y-106727809D02*
X134996095Y-106823047D01*
X134996095Y-106823047D02*
X134996095Y-107061142D01*
X134996095Y-107061142D02*
X135043714Y-107156380D01*
X135043714Y-107156380D02*
X135091333Y-107204000D01*
X135091333Y-107204000D02*
X135186571Y-107251619D01*
X135186571Y-107251619D02*
X135424666Y-107251619D01*
X135424666Y-107251619D02*
X135519904Y-107204000D01*
X135519904Y-107204000D02*
X135567523Y-107156380D01*
%TO.C,R33*%
X142201857Y-111206619D02*
X142535190Y-110730428D01*
X142773285Y-111206619D02*
X142773285Y-110206619D01*
X142773285Y-110206619D02*
X142392333Y-110206619D01*
X142392333Y-110206619D02*
X142297095Y-110254238D01*
X142297095Y-110254238D02*
X142249476Y-110301857D01*
X142249476Y-110301857D02*
X142201857Y-110397095D01*
X142201857Y-110397095D02*
X142201857Y-110539952D01*
X142201857Y-110539952D02*
X142249476Y-110635190D01*
X142249476Y-110635190D02*
X142297095Y-110682809D01*
X142297095Y-110682809D02*
X142392333Y-110730428D01*
X142392333Y-110730428D02*
X142773285Y-110730428D01*
X141868523Y-110206619D02*
X141249476Y-110206619D01*
X141249476Y-110206619D02*
X141582809Y-110587571D01*
X141582809Y-110587571D02*
X141439952Y-110587571D01*
X141439952Y-110587571D02*
X141344714Y-110635190D01*
X141344714Y-110635190D02*
X141297095Y-110682809D01*
X141297095Y-110682809D02*
X141249476Y-110778047D01*
X141249476Y-110778047D02*
X141249476Y-111016142D01*
X141249476Y-111016142D02*
X141297095Y-111111380D01*
X141297095Y-111111380D02*
X141344714Y-111159000D01*
X141344714Y-111159000D02*
X141439952Y-111206619D01*
X141439952Y-111206619D02*
X141725666Y-111206619D01*
X141725666Y-111206619D02*
X141820904Y-111159000D01*
X141820904Y-111159000D02*
X141868523Y-111111380D01*
X140916142Y-110206619D02*
X140297095Y-110206619D01*
X140297095Y-110206619D02*
X140630428Y-110587571D01*
X140630428Y-110587571D02*
X140487571Y-110587571D01*
X140487571Y-110587571D02*
X140392333Y-110635190D01*
X140392333Y-110635190D02*
X140344714Y-110682809D01*
X140344714Y-110682809D02*
X140297095Y-110778047D01*
X140297095Y-110778047D02*
X140297095Y-111016142D01*
X140297095Y-111016142D02*
X140344714Y-111111380D01*
X140344714Y-111111380D02*
X140392333Y-111159000D01*
X140392333Y-111159000D02*
X140487571Y-111206619D01*
X140487571Y-111206619D02*
X140773285Y-111206619D01*
X140773285Y-111206619D02*
X140868523Y-111159000D01*
X140868523Y-111159000D02*
X140916142Y-111111380D01*
%TO.C,C38*%
X144634857Y-99935380D02*
X144682476Y-99983000D01*
X144682476Y-99983000D02*
X144825333Y-100030619D01*
X144825333Y-100030619D02*
X144920571Y-100030619D01*
X144920571Y-100030619D02*
X145063428Y-99983000D01*
X145063428Y-99983000D02*
X145158666Y-99887761D01*
X145158666Y-99887761D02*
X145206285Y-99792523D01*
X145206285Y-99792523D02*
X145253904Y-99602047D01*
X145253904Y-99602047D02*
X145253904Y-99459190D01*
X145253904Y-99459190D02*
X145206285Y-99268714D01*
X145206285Y-99268714D02*
X145158666Y-99173476D01*
X145158666Y-99173476D02*
X145063428Y-99078238D01*
X145063428Y-99078238D02*
X144920571Y-99030619D01*
X144920571Y-99030619D02*
X144825333Y-99030619D01*
X144825333Y-99030619D02*
X144682476Y-99078238D01*
X144682476Y-99078238D02*
X144634857Y-99125857D01*
X144301523Y-99030619D02*
X143682476Y-99030619D01*
X143682476Y-99030619D02*
X144015809Y-99411571D01*
X144015809Y-99411571D02*
X143872952Y-99411571D01*
X143872952Y-99411571D02*
X143777714Y-99459190D01*
X143777714Y-99459190D02*
X143730095Y-99506809D01*
X143730095Y-99506809D02*
X143682476Y-99602047D01*
X143682476Y-99602047D02*
X143682476Y-99840142D01*
X143682476Y-99840142D02*
X143730095Y-99935380D01*
X143730095Y-99935380D02*
X143777714Y-99983000D01*
X143777714Y-99983000D02*
X143872952Y-100030619D01*
X143872952Y-100030619D02*
X144158666Y-100030619D01*
X144158666Y-100030619D02*
X144253904Y-99983000D01*
X144253904Y-99983000D02*
X144301523Y-99935380D01*
X143111047Y-99459190D02*
X143206285Y-99411571D01*
X143206285Y-99411571D02*
X143253904Y-99363952D01*
X143253904Y-99363952D02*
X143301523Y-99268714D01*
X143301523Y-99268714D02*
X143301523Y-99221095D01*
X143301523Y-99221095D02*
X143253904Y-99125857D01*
X143253904Y-99125857D02*
X143206285Y-99078238D01*
X143206285Y-99078238D02*
X143111047Y-99030619D01*
X143111047Y-99030619D02*
X142920571Y-99030619D01*
X142920571Y-99030619D02*
X142825333Y-99078238D01*
X142825333Y-99078238D02*
X142777714Y-99125857D01*
X142777714Y-99125857D02*
X142730095Y-99221095D01*
X142730095Y-99221095D02*
X142730095Y-99268714D01*
X142730095Y-99268714D02*
X142777714Y-99363952D01*
X142777714Y-99363952D02*
X142825333Y-99411571D01*
X142825333Y-99411571D02*
X142920571Y-99459190D01*
X142920571Y-99459190D02*
X143111047Y-99459190D01*
X143111047Y-99459190D02*
X143206285Y-99506809D01*
X143206285Y-99506809D02*
X143253904Y-99554428D01*
X143253904Y-99554428D02*
X143301523Y-99649666D01*
X143301523Y-99649666D02*
X143301523Y-99840142D01*
X143301523Y-99840142D02*
X143253904Y-99935380D01*
X143253904Y-99935380D02*
X143206285Y-99983000D01*
X143206285Y-99983000D02*
X143111047Y-100030619D01*
X143111047Y-100030619D02*
X142920571Y-100030619D01*
X142920571Y-100030619D02*
X142825333Y-99983000D01*
X142825333Y-99983000D02*
X142777714Y-99935380D01*
X142777714Y-99935380D02*
X142730095Y-99840142D01*
X142730095Y-99840142D02*
X142730095Y-99649666D01*
X142730095Y-99649666D02*
X142777714Y-99554428D01*
X142777714Y-99554428D02*
X142825333Y-99506809D01*
X142825333Y-99506809D02*
X142920571Y-99459190D01*
%TO.C,U6*%
X97637504Y-98319419D02*
X97637504Y-99128942D01*
X97637504Y-99128942D02*
X97589885Y-99224180D01*
X97589885Y-99224180D02*
X97542266Y-99271800D01*
X97542266Y-99271800D02*
X97447028Y-99319419D01*
X97447028Y-99319419D02*
X97256552Y-99319419D01*
X97256552Y-99319419D02*
X97161314Y-99271800D01*
X97161314Y-99271800D02*
X97113695Y-99224180D01*
X97113695Y-99224180D02*
X97066076Y-99128942D01*
X97066076Y-99128942D02*
X97066076Y-98319419D01*
X96161314Y-98319419D02*
X96351790Y-98319419D01*
X96351790Y-98319419D02*
X96447028Y-98367038D01*
X96447028Y-98367038D02*
X96494647Y-98414657D01*
X96494647Y-98414657D02*
X96589885Y-98557514D01*
X96589885Y-98557514D02*
X96637504Y-98747990D01*
X96637504Y-98747990D02*
X96637504Y-99128942D01*
X96637504Y-99128942D02*
X96589885Y-99224180D01*
X96589885Y-99224180D02*
X96542266Y-99271800D01*
X96542266Y-99271800D02*
X96447028Y-99319419D01*
X96447028Y-99319419D02*
X96256552Y-99319419D01*
X96256552Y-99319419D02*
X96161314Y-99271800D01*
X96161314Y-99271800D02*
X96113695Y-99224180D01*
X96113695Y-99224180D02*
X96066076Y-99128942D01*
X96066076Y-99128942D02*
X96066076Y-98890847D01*
X96066076Y-98890847D02*
X96113695Y-98795609D01*
X96113695Y-98795609D02*
X96161314Y-98747990D01*
X96161314Y-98747990D02*
X96256552Y-98700371D01*
X96256552Y-98700371D02*
X96447028Y-98700371D01*
X96447028Y-98700371D02*
X96542266Y-98747990D01*
X96542266Y-98747990D02*
X96589885Y-98795609D01*
X96589885Y-98795609D02*
X96637504Y-98890847D01*
%TO.C,C34*%
X71762857Y-111064380D02*
X71810476Y-111112000D01*
X71810476Y-111112000D02*
X71953333Y-111159619D01*
X71953333Y-111159619D02*
X72048571Y-111159619D01*
X72048571Y-111159619D02*
X72191428Y-111112000D01*
X72191428Y-111112000D02*
X72286666Y-111016761D01*
X72286666Y-111016761D02*
X72334285Y-110921523D01*
X72334285Y-110921523D02*
X72381904Y-110731047D01*
X72381904Y-110731047D02*
X72381904Y-110588190D01*
X72381904Y-110588190D02*
X72334285Y-110397714D01*
X72334285Y-110397714D02*
X72286666Y-110302476D01*
X72286666Y-110302476D02*
X72191428Y-110207238D01*
X72191428Y-110207238D02*
X72048571Y-110159619D01*
X72048571Y-110159619D02*
X71953333Y-110159619D01*
X71953333Y-110159619D02*
X71810476Y-110207238D01*
X71810476Y-110207238D02*
X71762857Y-110254857D01*
X71429523Y-110159619D02*
X70810476Y-110159619D01*
X70810476Y-110159619D02*
X71143809Y-110540571D01*
X71143809Y-110540571D02*
X71000952Y-110540571D01*
X71000952Y-110540571D02*
X70905714Y-110588190D01*
X70905714Y-110588190D02*
X70858095Y-110635809D01*
X70858095Y-110635809D02*
X70810476Y-110731047D01*
X70810476Y-110731047D02*
X70810476Y-110969142D01*
X70810476Y-110969142D02*
X70858095Y-111064380D01*
X70858095Y-111064380D02*
X70905714Y-111112000D01*
X70905714Y-111112000D02*
X71000952Y-111159619D01*
X71000952Y-111159619D02*
X71286666Y-111159619D01*
X71286666Y-111159619D02*
X71381904Y-111112000D01*
X71381904Y-111112000D02*
X71429523Y-111064380D01*
X69953333Y-110492952D02*
X69953333Y-111159619D01*
X70191428Y-110112000D02*
X70429523Y-110826285D01*
X70429523Y-110826285D02*
X69810476Y-110826285D01*
%TO.C,R31*%
X124785857Y-111620619D02*
X125119190Y-111144428D01*
X125357285Y-111620619D02*
X125357285Y-110620619D01*
X125357285Y-110620619D02*
X124976333Y-110620619D01*
X124976333Y-110620619D02*
X124881095Y-110668238D01*
X124881095Y-110668238D02*
X124833476Y-110715857D01*
X124833476Y-110715857D02*
X124785857Y-110811095D01*
X124785857Y-110811095D02*
X124785857Y-110953952D01*
X124785857Y-110953952D02*
X124833476Y-111049190D01*
X124833476Y-111049190D02*
X124881095Y-111096809D01*
X124881095Y-111096809D02*
X124976333Y-111144428D01*
X124976333Y-111144428D02*
X125357285Y-111144428D01*
X124452523Y-110620619D02*
X123833476Y-110620619D01*
X123833476Y-110620619D02*
X124166809Y-111001571D01*
X124166809Y-111001571D02*
X124023952Y-111001571D01*
X124023952Y-111001571D02*
X123928714Y-111049190D01*
X123928714Y-111049190D02*
X123881095Y-111096809D01*
X123881095Y-111096809D02*
X123833476Y-111192047D01*
X123833476Y-111192047D02*
X123833476Y-111430142D01*
X123833476Y-111430142D02*
X123881095Y-111525380D01*
X123881095Y-111525380D02*
X123928714Y-111573000D01*
X123928714Y-111573000D02*
X124023952Y-111620619D01*
X124023952Y-111620619D02*
X124309666Y-111620619D01*
X124309666Y-111620619D02*
X124404904Y-111573000D01*
X124404904Y-111573000D02*
X124452523Y-111525380D01*
X122881095Y-111620619D02*
X123452523Y-111620619D01*
X123166809Y-111620619D02*
X123166809Y-110620619D01*
X123166809Y-110620619D02*
X123262047Y-110763476D01*
X123262047Y-110763476D02*
X123357285Y-110858714D01*
X123357285Y-110858714D02*
X123452523Y-110906333D01*
%TO.C,C30*%
X114180857Y-114159380D02*
X114228476Y-114207000D01*
X114228476Y-114207000D02*
X114371333Y-114254619D01*
X114371333Y-114254619D02*
X114466571Y-114254619D01*
X114466571Y-114254619D02*
X114609428Y-114207000D01*
X114609428Y-114207000D02*
X114704666Y-114111761D01*
X114704666Y-114111761D02*
X114752285Y-114016523D01*
X114752285Y-114016523D02*
X114799904Y-113826047D01*
X114799904Y-113826047D02*
X114799904Y-113683190D01*
X114799904Y-113683190D02*
X114752285Y-113492714D01*
X114752285Y-113492714D02*
X114704666Y-113397476D01*
X114704666Y-113397476D02*
X114609428Y-113302238D01*
X114609428Y-113302238D02*
X114466571Y-113254619D01*
X114466571Y-113254619D02*
X114371333Y-113254619D01*
X114371333Y-113254619D02*
X114228476Y-113302238D01*
X114228476Y-113302238D02*
X114180857Y-113349857D01*
X113847523Y-113254619D02*
X113228476Y-113254619D01*
X113228476Y-113254619D02*
X113561809Y-113635571D01*
X113561809Y-113635571D02*
X113418952Y-113635571D01*
X113418952Y-113635571D02*
X113323714Y-113683190D01*
X113323714Y-113683190D02*
X113276095Y-113730809D01*
X113276095Y-113730809D02*
X113228476Y-113826047D01*
X113228476Y-113826047D02*
X113228476Y-114064142D01*
X113228476Y-114064142D02*
X113276095Y-114159380D01*
X113276095Y-114159380D02*
X113323714Y-114207000D01*
X113323714Y-114207000D02*
X113418952Y-114254619D01*
X113418952Y-114254619D02*
X113704666Y-114254619D01*
X113704666Y-114254619D02*
X113799904Y-114207000D01*
X113799904Y-114207000D02*
X113847523Y-114159380D01*
X112609428Y-113254619D02*
X112514190Y-113254619D01*
X112514190Y-113254619D02*
X112418952Y-113302238D01*
X112418952Y-113302238D02*
X112371333Y-113349857D01*
X112371333Y-113349857D02*
X112323714Y-113445095D01*
X112323714Y-113445095D02*
X112276095Y-113635571D01*
X112276095Y-113635571D02*
X112276095Y-113873666D01*
X112276095Y-113873666D02*
X112323714Y-114064142D01*
X112323714Y-114064142D02*
X112371333Y-114159380D01*
X112371333Y-114159380D02*
X112418952Y-114207000D01*
X112418952Y-114207000D02*
X112514190Y-114254619D01*
X112514190Y-114254619D02*
X112609428Y-114254619D01*
X112609428Y-114254619D02*
X112704666Y-114207000D01*
X112704666Y-114207000D02*
X112752285Y-114159380D01*
X112752285Y-114159380D02*
X112799904Y-114064142D01*
X112799904Y-114064142D02*
X112847523Y-113873666D01*
X112847523Y-113873666D02*
X112847523Y-113635571D01*
X112847523Y-113635571D02*
X112799904Y-113445095D01*
X112799904Y-113445095D02*
X112752285Y-113349857D01*
X112752285Y-113349857D02*
X112704666Y-113302238D01*
X112704666Y-113302238D02*
X112609428Y-113254619D01*
%TO.C,R24*%
X92844857Y-97998619D02*
X93178190Y-97522428D01*
X93416285Y-97998619D02*
X93416285Y-96998619D01*
X93416285Y-96998619D02*
X93035333Y-96998619D01*
X93035333Y-96998619D02*
X92940095Y-97046238D01*
X92940095Y-97046238D02*
X92892476Y-97093857D01*
X92892476Y-97093857D02*
X92844857Y-97189095D01*
X92844857Y-97189095D02*
X92844857Y-97331952D01*
X92844857Y-97331952D02*
X92892476Y-97427190D01*
X92892476Y-97427190D02*
X92940095Y-97474809D01*
X92940095Y-97474809D02*
X93035333Y-97522428D01*
X93035333Y-97522428D02*
X93416285Y-97522428D01*
X92463904Y-97093857D02*
X92416285Y-97046238D01*
X92416285Y-97046238D02*
X92321047Y-96998619D01*
X92321047Y-96998619D02*
X92082952Y-96998619D01*
X92082952Y-96998619D02*
X91987714Y-97046238D01*
X91987714Y-97046238D02*
X91940095Y-97093857D01*
X91940095Y-97093857D02*
X91892476Y-97189095D01*
X91892476Y-97189095D02*
X91892476Y-97284333D01*
X91892476Y-97284333D02*
X91940095Y-97427190D01*
X91940095Y-97427190D02*
X92511523Y-97998619D01*
X92511523Y-97998619D02*
X91892476Y-97998619D01*
X91035333Y-97331952D02*
X91035333Y-97998619D01*
X91273428Y-96951000D02*
X91511523Y-97665285D01*
X91511523Y-97665285D02*
X90892476Y-97665285D01*
%TO.C,R35*%
X83700857Y-119080619D02*
X84034190Y-118604428D01*
X84272285Y-119080619D02*
X84272285Y-118080619D01*
X84272285Y-118080619D02*
X83891333Y-118080619D01*
X83891333Y-118080619D02*
X83796095Y-118128238D01*
X83796095Y-118128238D02*
X83748476Y-118175857D01*
X83748476Y-118175857D02*
X83700857Y-118271095D01*
X83700857Y-118271095D02*
X83700857Y-118413952D01*
X83700857Y-118413952D02*
X83748476Y-118509190D01*
X83748476Y-118509190D02*
X83796095Y-118556809D01*
X83796095Y-118556809D02*
X83891333Y-118604428D01*
X83891333Y-118604428D02*
X84272285Y-118604428D01*
X83367523Y-118080619D02*
X82748476Y-118080619D01*
X82748476Y-118080619D02*
X83081809Y-118461571D01*
X83081809Y-118461571D02*
X82938952Y-118461571D01*
X82938952Y-118461571D02*
X82843714Y-118509190D01*
X82843714Y-118509190D02*
X82796095Y-118556809D01*
X82796095Y-118556809D02*
X82748476Y-118652047D01*
X82748476Y-118652047D02*
X82748476Y-118890142D01*
X82748476Y-118890142D02*
X82796095Y-118985380D01*
X82796095Y-118985380D02*
X82843714Y-119033000D01*
X82843714Y-119033000D02*
X82938952Y-119080619D01*
X82938952Y-119080619D02*
X83224666Y-119080619D01*
X83224666Y-119080619D02*
X83319904Y-119033000D01*
X83319904Y-119033000D02*
X83367523Y-118985380D01*
X81843714Y-118080619D02*
X82319904Y-118080619D01*
X82319904Y-118080619D02*
X82367523Y-118556809D01*
X82367523Y-118556809D02*
X82319904Y-118509190D01*
X82319904Y-118509190D02*
X82224666Y-118461571D01*
X82224666Y-118461571D02*
X81986571Y-118461571D01*
X81986571Y-118461571D02*
X81891333Y-118509190D01*
X81891333Y-118509190D02*
X81843714Y-118556809D01*
X81843714Y-118556809D02*
X81796095Y-118652047D01*
X81796095Y-118652047D02*
X81796095Y-118890142D01*
X81796095Y-118890142D02*
X81843714Y-118985380D01*
X81843714Y-118985380D02*
X81891333Y-119033000D01*
X81891333Y-119033000D02*
X81986571Y-119080619D01*
X81986571Y-119080619D02*
X82224666Y-119080619D01*
X82224666Y-119080619D02*
X82319904Y-119033000D01*
X82319904Y-119033000D02*
X82367523Y-118985380D01*
%TO.C,R39*%
X63825857Y-110397619D02*
X64159190Y-109921428D01*
X64397285Y-110397619D02*
X64397285Y-109397619D01*
X64397285Y-109397619D02*
X64016333Y-109397619D01*
X64016333Y-109397619D02*
X63921095Y-109445238D01*
X63921095Y-109445238D02*
X63873476Y-109492857D01*
X63873476Y-109492857D02*
X63825857Y-109588095D01*
X63825857Y-109588095D02*
X63825857Y-109730952D01*
X63825857Y-109730952D02*
X63873476Y-109826190D01*
X63873476Y-109826190D02*
X63921095Y-109873809D01*
X63921095Y-109873809D02*
X64016333Y-109921428D01*
X64016333Y-109921428D02*
X64397285Y-109921428D01*
X63492523Y-109397619D02*
X62873476Y-109397619D01*
X62873476Y-109397619D02*
X63206809Y-109778571D01*
X63206809Y-109778571D02*
X63063952Y-109778571D01*
X63063952Y-109778571D02*
X62968714Y-109826190D01*
X62968714Y-109826190D02*
X62921095Y-109873809D01*
X62921095Y-109873809D02*
X62873476Y-109969047D01*
X62873476Y-109969047D02*
X62873476Y-110207142D01*
X62873476Y-110207142D02*
X62921095Y-110302380D01*
X62921095Y-110302380D02*
X62968714Y-110350000D01*
X62968714Y-110350000D02*
X63063952Y-110397619D01*
X63063952Y-110397619D02*
X63349666Y-110397619D01*
X63349666Y-110397619D02*
X63444904Y-110350000D01*
X63444904Y-110350000D02*
X63492523Y-110302380D01*
X62397285Y-110397619D02*
X62206809Y-110397619D01*
X62206809Y-110397619D02*
X62111571Y-110350000D01*
X62111571Y-110350000D02*
X62063952Y-110302380D01*
X62063952Y-110302380D02*
X61968714Y-110159523D01*
X61968714Y-110159523D02*
X61921095Y-109969047D01*
X61921095Y-109969047D02*
X61921095Y-109588095D01*
X61921095Y-109588095D02*
X61968714Y-109492857D01*
X61968714Y-109492857D02*
X62016333Y-109445238D01*
X62016333Y-109445238D02*
X62111571Y-109397619D01*
X62111571Y-109397619D02*
X62302047Y-109397619D01*
X62302047Y-109397619D02*
X62397285Y-109445238D01*
X62397285Y-109445238D02*
X62444904Y-109492857D01*
X62444904Y-109492857D02*
X62492523Y-109588095D01*
X62492523Y-109588095D02*
X62492523Y-109826190D01*
X62492523Y-109826190D02*
X62444904Y-109921428D01*
X62444904Y-109921428D02*
X62397285Y-109969047D01*
X62397285Y-109969047D02*
X62302047Y-110016666D01*
X62302047Y-110016666D02*
X62111571Y-110016666D01*
X62111571Y-110016666D02*
X62016333Y-109969047D01*
X62016333Y-109969047D02*
X61968714Y-109921428D01*
X61968714Y-109921428D02*
X61921095Y-109826190D01*
%TO.C,C37*%
X136024857Y-97649380D02*
X136072476Y-97697000D01*
X136072476Y-97697000D02*
X136215333Y-97744619D01*
X136215333Y-97744619D02*
X136310571Y-97744619D01*
X136310571Y-97744619D02*
X136453428Y-97697000D01*
X136453428Y-97697000D02*
X136548666Y-97601761D01*
X136548666Y-97601761D02*
X136596285Y-97506523D01*
X136596285Y-97506523D02*
X136643904Y-97316047D01*
X136643904Y-97316047D02*
X136643904Y-97173190D01*
X136643904Y-97173190D02*
X136596285Y-96982714D01*
X136596285Y-96982714D02*
X136548666Y-96887476D01*
X136548666Y-96887476D02*
X136453428Y-96792238D01*
X136453428Y-96792238D02*
X136310571Y-96744619D01*
X136310571Y-96744619D02*
X136215333Y-96744619D01*
X136215333Y-96744619D02*
X136072476Y-96792238D01*
X136072476Y-96792238D02*
X136024857Y-96839857D01*
X135691523Y-96744619D02*
X135072476Y-96744619D01*
X135072476Y-96744619D02*
X135405809Y-97125571D01*
X135405809Y-97125571D02*
X135262952Y-97125571D01*
X135262952Y-97125571D02*
X135167714Y-97173190D01*
X135167714Y-97173190D02*
X135120095Y-97220809D01*
X135120095Y-97220809D02*
X135072476Y-97316047D01*
X135072476Y-97316047D02*
X135072476Y-97554142D01*
X135072476Y-97554142D02*
X135120095Y-97649380D01*
X135120095Y-97649380D02*
X135167714Y-97697000D01*
X135167714Y-97697000D02*
X135262952Y-97744619D01*
X135262952Y-97744619D02*
X135548666Y-97744619D01*
X135548666Y-97744619D02*
X135643904Y-97697000D01*
X135643904Y-97697000D02*
X135691523Y-97649380D01*
X134739142Y-96744619D02*
X134072476Y-96744619D01*
X134072476Y-96744619D02*
X134501047Y-97744619D01*
%TO.C,U11*%
X47466094Y-116247619D02*
X47466094Y-117057142D01*
X47466094Y-117057142D02*
X47418475Y-117152380D01*
X47418475Y-117152380D02*
X47370856Y-117200000D01*
X47370856Y-117200000D02*
X47275618Y-117247619D01*
X47275618Y-117247619D02*
X47085142Y-117247619D01*
X47085142Y-117247619D02*
X46989904Y-117200000D01*
X46989904Y-117200000D02*
X46942285Y-117152380D01*
X46942285Y-117152380D02*
X46894666Y-117057142D01*
X46894666Y-117057142D02*
X46894666Y-116247619D01*
X45894666Y-117247619D02*
X46466094Y-117247619D01*
X46180380Y-117247619D02*
X46180380Y-116247619D01*
X46180380Y-116247619D02*
X46275618Y-116390476D01*
X46275618Y-116390476D02*
X46370856Y-116485714D01*
X46370856Y-116485714D02*
X46466094Y-116533333D01*
X44942285Y-117247619D02*
X45513713Y-117247619D01*
X45227999Y-117247619D02*
X45227999Y-116247619D01*
X45227999Y-116247619D02*
X45323237Y-116390476D01*
X45323237Y-116390476D02*
X45418475Y-116485714D01*
X45418475Y-116485714D02*
X45513713Y-116533333D01*
%TO.C,C44*%
X141739857Y-105523380D02*
X141787476Y-105571000D01*
X141787476Y-105571000D02*
X141930333Y-105618619D01*
X141930333Y-105618619D02*
X142025571Y-105618619D01*
X142025571Y-105618619D02*
X142168428Y-105571000D01*
X142168428Y-105571000D02*
X142263666Y-105475761D01*
X142263666Y-105475761D02*
X142311285Y-105380523D01*
X142311285Y-105380523D02*
X142358904Y-105190047D01*
X142358904Y-105190047D02*
X142358904Y-105047190D01*
X142358904Y-105047190D02*
X142311285Y-104856714D01*
X142311285Y-104856714D02*
X142263666Y-104761476D01*
X142263666Y-104761476D02*
X142168428Y-104666238D01*
X142168428Y-104666238D02*
X142025571Y-104618619D01*
X142025571Y-104618619D02*
X141930333Y-104618619D01*
X141930333Y-104618619D02*
X141787476Y-104666238D01*
X141787476Y-104666238D02*
X141739857Y-104713857D01*
X140882714Y-104951952D02*
X140882714Y-105618619D01*
X141120809Y-104571000D02*
X141358904Y-105285285D01*
X141358904Y-105285285D02*
X140739857Y-105285285D01*
X139930333Y-104951952D02*
X139930333Y-105618619D01*
X140168428Y-104571000D02*
X140406523Y-105285285D01*
X140406523Y-105285285D02*
X139787476Y-105285285D01*
%TO.C,C33*%
X86875857Y-112821380D02*
X86923476Y-112869000D01*
X86923476Y-112869000D02*
X87066333Y-112916619D01*
X87066333Y-112916619D02*
X87161571Y-112916619D01*
X87161571Y-112916619D02*
X87304428Y-112869000D01*
X87304428Y-112869000D02*
X87399666Y-112773761D01*
X87399666Y-112773761D02*
X87447285Y-112678523D01*
X87447285Y-112678523D02*
X87494904Y-112488047D01*
X87494904Y-112488047D02*
X87494904Y-112345190D01*
X87494904Y-112345190D02*
X87447285Y-112154714D01*
X87447285Y-112154714D02*
X87399666Y-112059476D01*
X87399666Y-112059476D02*
X87304428Y-111964238D01*
X87304428Y-111964238D02*
X87161571Y-111916619D01*
X87161571Y-111916619D02*
X87066333Y-111916619D01*
X87066333Y-111916619D02*
X86923476Y-111964238D01*
X86923476Y-111964238D02*
X86875857Y-112011857D01*
X86542523Y-111916619D02*
X85923476Y-111916619D01*
X85923476Y-111916619D02*
X86256809Y-112297571D01*
X86256809Y-112297571D02*
X86113952Y-112297571D01*
X86113952Y-112297571D02*
X86018714Y-112345190D01*
X86018714Y-112345190D02*
X85971095Y-112392809D01*
X85971095Y-112392809D02*
X85923476Y-112488047D01*
X85923476Y-112488047D02*
X85923476Y-112726142D01*
X85923476Y-112726142D02*
X85971095Y-112821380D01*
X85971095Y-112821380D02*
X86018714Y-112869000D01*
X86018714Y-112869000D02*
X86113952Y-112916619D01*
X86113952Y-112916619D02*
X86399666Y-112916619D01*
X86399666Y-112916619D02*
X86494904Y-112869000D01*
X86494904Y-112869000D02*
X86542523Y-112821380D01*
X85590142Y-111916619D02*
X84971095Y-111916619D01*
X84971095Y-111916619D02*
X85304428Y-112297571D01*
X85304428Y-112297571D02*
X85161571Y-112297571D01*
X85161571Y-112297571D02*
X85066333Y-112345190D01*
X85066333Y-112345190D02*
X85018714Y-112392809D01*
X85018714Y-112392809D02*
X84971095Y-112488047D01*
X84971095Y-112488047D02*
X84971095Y-112726142D01*
X84971095Y-112726142D02*
X85018714Y-112821380D01*
X85018714Y-112821380D02*
X85066333Y-112869000D01*
X85066333Y-112869000D02*
X85161571Y-112916619D01*
X85161571Y-112916619D02*
X85447285Y-112916619D01*
X85447285Y-112916619D02*
X85542523Y-112869000D01*
X85542523Y-112869000D02*
X85590142Y-112821380D01*
%TO.C,C27*%
X100070857Y-94982380D02*
X100118476Y-95030000D01*
X100118476Y-95030000D02*
X100261333Y-95077619D01*
X100261333Y-95077619D02*
X100356571Y-95077619D01*
X100356571Y-95077619D02*
X100499428Y-95030000D01*
X100499428Y-95030000D02*
X100594666Y-94934761D01*
X100594666Y-94934761D02*
X100642285Y-94839523D01*
X100642285Y-94839523D02*
X100689904Y-94649047D01*
X100689904Y-94649047D02*
X100689904Y-94506190D01*
X100689904Y-94506190D02*
X100642285Y-94315714D01*
X100642285Y-94315714D02*
X100594666Y-94220476D01*
X100594666Y-94220476D02*
X100499428Y-94125238D01*
X100499428Y-94125238D02*
X100356571Y-94077619D01*
X100356571Y-94077619D02*
X100261333Y-94077619D01*
X100261333Y-94077619D02*
X100118476Y-94125238D01*
X100118476Y-94125238D02*
X100070857Y-94172857D01*
X99689904Y-94172857D02*
X99642285Y-94125238D01*
X99642285Y-94125238D02*
X99547047Y-94077619D01*
X99547047Y-94077619D02*
X99308952Y-94077619D01*
X99308952Y-94077619D02*
X99213714Y-94125238D01*
X99213714Y-94125238D02*
X99166095Y-94172857D01*
X99166095Y-94172857D02*
X99118476Y-94268095D01*
X99118476Y-94268095D02*
X99118476Y-94363333D01*
X99118476Y-94363333D02*
X99166095Y-94506190D01*
X99166095Y-94506190D02*
X99737523Y-95077619D01*
X99737523Y-95077619D02*
X99118476Y-95077619D01*
X98785142Y-94077619D02*
X98118476Y-94077619D01*
X98118476Y-94077619D02*
X98547047Y-95077619D01*
%TO.C,R36*%
X86748857Y-119080619D02*
X87082190Y-118604428D01*
X87320285Y-119080619D02*
X87320285Y-118080619D01*
X87320285Y-118080619D02*
X86939333Y-118080619D01*
X86939333Y-118080619D02*
X86844095Y-118128238D01*
X86844095Y-118128238D02*
X86796476Y-118175857D01*
X86796476Y-118175857D02*
X86748857Y-118271095D01*
X86748857Y-118271095D02*
X86748857Y-118413952D01*
X86748857Y-118413952D02*
X86796476Y-118509190D01*
X86796476Y-118509190D02*
X86844095Y-118556809D01*
X86844095Y-118556809D02*
X86939333Y-118604428D01*
X86939333Y-118604428D02*
X87320285Y-118604428D01*
X86415523Y-118080619D02*
X85796476Y-118080619D01*
X85796476Y-118080619D02*
X86129809Y-118461571D01*
X86129809Y-118461571D02*
X85986952Y-118461571D01*
X85986952Y-118461571D02*
X85891714Y-118509190D01*
X85891714Y-118509190D02*
X85844095Y-118556809D01*
X85844095Y-118556809D02*
X85796476Y-118652047D01*
X85796476Y-118652047D02*
X85796476Y-118890142D01*
X85796476Y-118890142D02*
X85844095Y-118985380D01*
X85844095Y-118985380D02*
X85891714Y-119033000D01*
X85891714Y-119033000D02*
X85986952Y-119080619D01*
X85986952Y-119080619D02*
X86272666Y-119080619D01*
X86272666Y-119080619D02*
X86367904Y-119033000D01*
X86367904Y-119033000D02*
X86415523Y-118985380D01*
X84939333Y-118080619D02*
X85129809Y-118080619D01*
X85129809Y-118080619D02*
X85225047Y-118128238D01*
X85225047Y-118128238D02*
X85272666Y-118175857D01*
X85272666Y-118175857D02*
X85367904Y-118318714D01*
X85367904Y-118318714D02*
X85415523Y-118509190D01*
X85415523Y-118509190D02*
X85415523Y-118890142D01*
X85415523Y-118890142D02*
X85367904Y-118985380D01*
X85367904Y-118985380D02*
X85320285Y-119033000D01*
X85320285Y-119033000D02*
X85225047Y-119080619D01*
X85225047Y-119080619D02*
X85034571Y-119080619D01*
X85034571Y-119080619D02*
X84939333Y-119033000D01*
X84939333Y-119033000D02*
X84891714Y-118985380D01*
X84891714Y-118985380D02*
X84844095Y-118890142D01*
X84844095Y-118890142D02*
X84844095Y-118652047D01*
X84844095Y-118652047D02*
X84891714Y-118556809D01*
X84891714Y-118556809D02*
X84939333Y-118509190D01*
X84939333Y-118509190D02*
X85034571Y-118461571D01*
X85034571Y-118461571D02*
X85225047Y-118461571D01*
X85225047Y-118461571D02*
X85320285Y-118509190D01*
X85320285Y-118509190D02*
X85367904Y-118556809D01*
X85367904Y-118556809D02*
X85415523Y-118652047D01*
%TO.C,U12*%
X105456594Y-101303619D02*
X105456594Y-102113142D01*
X105456594Y-102113142D02*
X105408975Y-102208380D01*
X105408975Y-102208380D02*
X105361356Y-102256000D01*
X105361356Y-102256000D02*
X105266118Y-102303619D01*
X105266118Y-102303619D02*
X105075642Y-102303619D01*
X105075642Y-102303619D02*
X104980404Y-102256000D01*
X104980404Y-102256000D02*
X104932785Y-102208380D01*
X104932785Y-102208380D02*
X104885166Y-102113142D01*
X104885166Y-102113142D02*
X104885166Y-101303619D01*
X103885166Y-102303619D02*
X104456594Y-102303619D01*
X104170880Y-102303619D02*
X104170880Y-101303619D01*
X104170880Y-101303619D02*
X104266118Y-101446476D01*
X104266118Y-101446476D02*
X104361356Y-101541714D01*
X104361356Y-101541714D02*
X104456594Y-101589333D01*
X103504213Y-101398857D02*
X103456594Y-101351238D01*
X103456594Y-101351238D02*
X103361356Y-101303619D01*
X103361356Y-101303619D02*
X103123261Y-101303619D01*
X103123261Y-101303619D02*
X103028023Y-101351238D01*
X103028023Y-101351238D02*
X102980404Y-101398857D01*
X102980404Y-101398857D02*
X102932785Y-101494095D01*
X102932785Y-101494095D02*
X102932785Y-101589333D01*
X102932785Y-101589333D02*
X102980404Y-101732190D01*
X102980404Y-101732190D02*
X103551832Y-102303619D01*
X103551832Y-102303619D02*
X102932785Y-102303619D01*
%TO.C,U10*%
X96742094Y-118510120D02*
X96742094Y-119319643D01*
X96742094Y-119319643D02*
X96694475Y-119414881D01*
X96694475Y-119414881D02*
X96646856Y-119462501D01*
X96646856Y-119462501D02*
X96551618Y-119510120D01*
X96551618Y-119510120D02*
X96361142Y-119510120D01*
X96361142Y-119510120D02*
X96265904Y-119462501D01*
X96265904Y-119462501D02*
X96218285Y-119414881D01*
X96218285Y-119414881D02*
X96170666Y-119319643D01*
X96170666Y-119319643D02*
X96170666Y-118510120D01*
X95170666Y-119510120D02*
X95742094Y-119510120D01*
X95456380Y-119510120D02*
X95456380Y-118510120D01*
X95456380Y-118510120D02*
X95551618Y-118652977D01*
X95551618Y-118652977D02*
X95646856Y-118748215D01*
X95646856Y-118748215D02*
X95742094Y-118795834D01*
X94551618Y-118510120D02*
X94456380Y-118510120D01*
X94456380Y-118510120D02*
X94361142Y-118557739D01*
X94361142Y-118557739D02*
X94313523Y-118605358D01*
X94313523Y-118605358D02*
X94265904Y-118700596D01*
X94265904Y-118700596D02*
X94218285Y-118891072D01*
X94218285Y-118891072D02*
X94218285Y-119129167D01*
X94218285Y-119129167D02*
X94265904Y-119319643D01*
X94265904Y-119319643D02*
X94313523Y-119414881D01*
X94313523Y-119414881D02*
X94361142Y-119462501D01*
X94361142Y-119462501D02*
X94456380Y-119510120D01*
X94456380Y-119510120D02*
X94551618Y-119510120D01*
X94551618Y-119510120D02*
X94646856Y-119462501D01*
X94646856Y-119462501D02*
X94694475Y-119414881D01*
X94694475Y-119414881D02*
X94742094Y-119319643D01*
X94742094Y-119319643D02*
X94789713Y-119129167D01*
X94789713Y-119129167D02*
X94789713Y-118891072D01*
X94789713Y-118891072D02*
X94742094Y-118700596D01*
X94742094Y-118700596D02*
X94694475Y-118605358D01*
X94694475Y-118605358D02*
X94646856Y-118557739D01*
X94646856Y-118557739D02*
X94551618Y-118510120D01*
%TO.C,U7*%
X97789904Y-91534119D02*
X97789904Y-92343642D01*
X97789904Y-92343642D02*
X97742285Y-92438880D01*
X97742285Y-92438880D02*
X97694666Y-92486500D01*
X97694666Y-92486500D02*
X97599428Y-92534119D01*
X97599428Y-92534119D02*
X97408952Y-92534119D01*
X97408952Y-92534119D02*
X97313714Y-92486500D01*
X97313714Y-92486500D02*
X97266095Y-92438880D01*
X97266095Y-92438880D02*
X97218476Y-92343642D01*
X97218476Y-92343642D02*
X97218476Y-91534119D01*
X96837523Y-91534119D02*
X96170857Y-91534119D01*
X96170857Y-91534119D02*
X96599428Y-92534119D01*
%TO.C,C43*%
X139580857Y-96443380D02*
X139628476Y-96491000D01*
X139628476Y-96491000D02*
X139771333Y-96538619D01*
X139771333Y-96538619D02*
X139866571Y-96538619D01*
X139866571Y-96538619D02*
X140009428Y-96491000D01*
X140009428Y-96491000D02*
X140104666Y-96395761D01*
X140104666Y-96395761D02*
X140152285Y-96300523D01*
X140152285Y-96300523D02*
X140199904Y-96110047D01*
X140199904Y-96110047D02*
X140199904Y-95967190D01*
X140199904Y-95967190D02*
X140152285Y-95776714D01*
X140152285Y-95776714D02*
X140104666Y-95681476D01*
X140104666Y-95681476D02*
X140009428Y-95586238D01*
X140009428Y-95586238D02*
X139866571Y-95538619D01*
X139866571Y-95538619D02*
X139771333Y-95538619D01*
X139771333Y-95538619D02*
X139628476Y-95586238D01*
X139628476Y-95586238D02*
X139580857Y-95633857D01*
X138723714Y-95871952D02*
X138723714Y-96538619D01*
X138961809Y-95491000D02*
X139199904Y-96205285D01*
X139199904Y-96205285D02*
X138580857Y-96205285D01*
X138295142Y-95538619D02*
X137676095Y-95538619D01*
X137676095Y-95538619D02*
X138009428Y-95919571D01*
X138009428Y-95919571D02*
X137866571Y-95919571D01*
X137866571Y-95919571D02*
X137771333Y-95967190D01*
X137771333Y-95967190D02*
X137723714Y-96014809D01*
X137723714Y-96014809D02*
X137676095Y-96110047D01*
X137676095Y-96110047D02*
X137676095Y-96348142D01*
X137676095Y-96348142D02*
X137723714Y-96443380D01*
X137723714Y-96443380D02*
X137771333Y-96491000D01*
X137771333Y-96491000D02*
X137866571Y-96538619D01*
X137866571Y-96538619D02*
X138152285Y-96538619D01*
X138152285Y-96538619D02*
X138247523Y-96491000D01*
X138247523Y-96491000D02*
X138295142Y-96443380D01*
%TO.C,C32*%
X83840857Y-112694380D02*
X83888476Y-112742000D01*
X83888476Y-112742000D02*
X84031333Y-112789619D01*
X84031333Y-112789619D02*
X84126571Y-112789619D01*
X84126571Y-112789619D02*
X84269428Y-112742000D01*
X84269428Y-112742000D02*
X84364666Y-112646761D01*
X84364666Y-112646761D02*
X84412285Y-112551523D01*
X84412285Y-112551523D02*
X84459904Y-112361047D01*
X84459904Y-112361047D02*
X84459904Y-112218190D01*
X84459904Y-112218190D02*
X84412285Y-112027714D01*
X84412285Y-112027714D02*
X84364666Y-111932476D01*
X84364666Y-111932476D02*
X84269428Y-111837238D01*
X84269428Y-111837238D02*
X84126571Y-111789619D01*
X84126571Y-111789619D02*
X84031333Y-111789619D01*
X84031333Y-111789619D02*
X83888476Y-111837238D01*
X83888476Y-111837238D02*
X83840857Y-111884857D01*
X83507523Y-111789619D02*
X82888476Y-111789619D01*
X82888476Y-111789619D02*
X83221809Y-112170571D01*
X83221809Y-112170571D02*
X83078952Y-112170571D01*
X83078952Y-112170571D02*
X82983714Y-112218190D01*
X82983714Y-112218190D02*
X82936095Y-112265809D01*
X82936095Y-112265809D02*
X82888476Y-112361047D01*
X82888476Y-112361047D02*
X82888476Y-112599142D01*
X82888476Y-112599142D02*
X82936095Y-112694380D01*
X82936095Y-112694380D02*
X82983714Y-112742000D01*
X82983714Y-112742000D02*
X83078952Y-112789619D01*
X83078952Y-112789619D02*
X83364666Y-112789619D01*
X83364666Y-112789619D02*
X83459904Y-112742000D01*
X83459904Y-112742000D02*
X83507523Y-112694380D01*
X82507523Y-111884857D02*
X82459904Y-111837238D01*
X82459904Y-111837238D02*
X82364666Y-111789619D01*
X82364666Y-111789619D02*
X82126571Y-111789619D01*
X82126571Y-111789619D02*
X82031333Y-111837238D01*
X82031333Y-111837238D02*
X81983714Y-111884857D01*
X81983714Y-111884857D02*
X81936095Y-111980095D01*
X81936095Y-111980095D02*
X81936095Y-112075333D01*
X81936095Y-112075333D02*
X81983714Y-112218190D01*
X81983714Y-112218190D02*
X82555142Y-112789619D01*
X82555142Y-112789619D02*
X81936095Y-112789619D01*
D11*
%TO.C,R32*%
X123905742Y-107681500D02*
X124380258Y-107681500D01*
X123905742Y-108726500D02*
X124380258Y-108726500D01*
%TO.C,C39*%
X136117420Y-103325000D02*
X136398580Y-103325000D01*
X136117420Y-104345000D02*
X136398580Y-104345000D01*
%TO.C,C35*%
X69344000Y-113604420D02*
X69344000Y-113885580D01*
X68324000Y-113604420D02*
X68324000Y-113885580D01*
%TO.C,C36*%
X134760580Y-100662000D02*
X134479420Y-100662000D01*
X134760580Y-99642000D02*
X134479420Y-99642000D01*
%TO.C,R40*%
X63420258Y-113505500D02*
X62945742Y-113505500D01*
X63420258Y-112460500D02*
X62945742Y-112460500D01*
%TO.C,R34*%
X144582242Y-111776501D02*
X145056758Y-111776501D01*
X144582242Y-112821501D02*
X145056758Y-112821501D01*
%TO.C,R37*%
X87869500Y-120808759D02*
X87869500Y-120334243D01*
X88914500Y-120808759D02*
X88914500Y-120334243D01*
%TO.C,R41*%
X56719500Y-110459742D02*
X56719500Y-110934258D01*
X55674500Y-110459742D02*
X55674500Y-110934258D01*
%TO.C,C40*%
X134479420Y-101166000D02*
X134760580Y-101166000D01*
X134479420Y-102186000D02*
X134760580Y-102186000D01*
%TO.C,C26*%
X95644580Y-96522000D02*
X95363420Y-96522000D01*
X95644580Y-95502000D02*
X95363420Y-95502000D01*
D12*
%TO.C,U9*%
X147153000Y-118440000D02*
X147153000Y-118965000D01*
X147153000Y-118965000D02*
X147378001Y-118965000D01*
X148277999Y-118965000D02*
X148503000Y-118965000D01*
X148503000Y-118440000D02*
X148503000Y-118965000D01*
D13*
X147078002Y-117815000D02*
G75*
G03*
X147078002Y-117815000I-50000J0D01*
G01*
D11*
%TO.C,R38*%
X88914500Y-117286243D02*
X88914500Y-117760759D01*
X87869500Y-117286243D02*
X87869500Y-117760759D01*
%TO.C,C24*%
X90043580Y-105412000D02*
X89762420Y-105412000D01*
X90043580Y-104392000D02*
X89762420Y-104392000D01*
%TO.C,C25*%
X100328000Y-98806580D02*
X100328000Y-98525420D01*
X101348000Y-98806580D02*
X101348000Y-98525420D01*
%TO.C,C41*%
X141224580Y-102059000D02*
X140943420Y-102059000D01*
X141224580Y-101039000D02*
X140943420Y-101039000D01*
%TO.C,C31*%
X113028000Y-108391580D02*
X113028000Y-108110420D01*
X114048000Y-108391580D02*
X114048000Y-108110420D01*
%TO.C,R42*%
X55674500Y-113982258D02*
X55674500Y-113507742D01*
X56719500Y-113982258D02*
X56719500Y-113507742D01*
%TO.C,C45*%
X136117420Y-104849000D02*
X136398580Y-104849000D01*
X136117420Y-105869000D02*
X136398580Y-105869000D01*
%TO.C,R33*%
X141882758Y-112821501D02*
X141408242Y-112821501D01*
X141882758Y-111776501D02*
X141408242Y-111776501D01*
%TO.C,C38*%
X141224580Y-100535000D02*
X140943420Y-100535000D01*
X141224580Y-99515000D02*
X140943420Y-99515000D01*
%TO.C,U6*%
X102133311Y-104902000D02*
X101921179Y-104689868D01*
X97240132Y-100008821D02*
X98169977Y-99078976D01*
X97028000Y-99796689D02*
X97240132Y-100008821D01*
X101921179Y-105114132D02*
X102133311Y-104902000D01*
X96815868Y-100008821D02*
X97028000Y-99796689D01*
X97240132Y-109795179D02*
X97028000Y-110007311D01*
X92134821Y-104689868D02*
X91922689Y-104902000D01*
X97028000Y-110007311D02*
X96815868Y-109795179D01*
X91922689Y-104902000D02*
X92134821Y-105114132D01*
%TO.C,C34*%
X68324000Y-110837580D02*
X68324000Y-110556420D01*
X69344000Y-110837580D02*
X69344000Y-110556420D01*
%TO.C,R31*%
X123905742Y-109205500D02*
X124380258Y-109205500D01*
X123905742Y-110250500D02*
X124380258Y-110250500D01*
%TO.C,C30*%
X114048000Y-111158420D02*
X114048000Y-111439580D01*
X113028000Y-111158420D02*
X113028000Y-111439580D01*
%TO.C,R24*%
X95457742Y-97013500D02*
X95932258Y-97013500D01*
X95457742Y-98058500D02*
X95932258Y-98058500D01*
%TO.C,R35*%
X84469500Y-115967742D02*
X84469500Y-116442258D01*
X83424500Y-115967742D02*
X83424500Y-116442258D01*
%TO.C,R39*%
X63420258Y-111981500D02*
X62945742Y-111981500D01*
X63420258Y-110936500D02*
X62945742Y-110936500D01*
%TO.C,C37*%
X134760580Y-99138000D02*
X134479420Y-99138000D01*
X134760580Y-98118000D02*
X134479420Y-98118000D01*
D12*
%TO.C,U11*%
X45553000Y-118486000D02*
X45553000Y-119011000D01*
X45553000Y-119011000D02*
X45778001Y-119011000D01*
X46677999Y-119011000D02*
X46903000Y-119011000D01*
X46903000Y-118486000D02*
X46903000Y-119011000D01*
D13*
X45478002Y-117861000D02*
G75*
G03*
X45478002Y-117861000I-50000J0D01*
G01*
D11*
%TO.C,C44*%
X138301000Y-104470580D02*
X138301000Y-104189420D01*
X139321000Y-104470580D02*
X139321000Y-104189420D01*
%TO.C,C33*%
X86092420Y-113341000D02*
X86373580Y-113341000D01*
X86092420Y-114361000D02*
X86373580Y-114361000D01*
%TO.C,C27*%
X98411420Y-95502000D02*
X98692580Y-95502000D01*
X98411420Y-96522000D02*
X98692580Y-96522000D01*
%TO.C,R36*%
X85993500Y-115967742D02*
X85993500Y-116442258D01*
X84948500Y-115967742D02*
X84948500Y-116442258D01*
%TO.C,U12*%
X104218500Y-97881000D02*
X103568500Y-97881000D01*
X104218500Y-97881000D02*
X104868500Y-97881000D01*
X104218500Y-101001000D02*
X102543500Y-101001000D01*
X104218500Y-101001000D02*
X104868500Y-101001000D01*
D12*
%TO.C,U10*%
X92506000Y-119722501D02*
X93031000Y-119722501D01*
X93031000Y-119722501D02*
X93031000Y-119497500D01*
X93031000Y-118597502D02*
X93031000Y-118372501D01*
X92506000Y-118372501D02*
X93031000Y-118372501D01*
D13*
X91931000Y-119847499D02*
G75*
G03*
X91931000Y-119847499I-50000J0D01*
G01*
D12*
%TO.C,U7*%
X96353000Y-93712500D02*
X96353000Y-94237500D01*
X96353000Y-94237500D02*
X96578001Y-94237500D01*
X97477999Y-94237500D02*
X97703000Y-94237500D01*
X97703000Y-93712500D02*
X97703000Y-94237500D01*
D13*
X96278002Y-93087500D02*
G75*
G03*
X96278002Y-93087500I-50000J0D01*
G01*
D11*
%TO.C,C43*%
X139321000Y-98411420D02*
X139321000Y-98692580D01*
X138301000Y-98411420D02*
X138301000Y-98692580D01*
%TO.C,C32*%
X83325580Y-114361000D02*
X83044420Y-114361000D01*
X83325580Y-113341000D02*
X83044420Y-113341000D01*
%TD*%
M02*
