  0
SECTION
  2
HEADER
  9
$ANGBASE
  50
0.0
  9
$ANGDIR
  70
1
  9
$MEASUREMENT
  70
1
  0
ENDSEC
  0
SECTION
  2
TABLES
  0
TABLE
  2
LTYPE
  70
4
  0
LTYPE
  5
40F
  2
CONTINUOUS
  70
0
  3
Solid line
  72
65
  73
0
  40
0.0
  0
LTYPE
  5
410
  2
DASHDOT
 70
0
  3
Dash Dot ____ _ ____ _
 72
65
 73
4
 40
2.0
 49
1.25
 49
-0.25
 49
0.25
 49
-0.25
  0
LTYPE
  5
411
  2
DASHED
 70
0
  3
Dashed __ __ __ __ __
 72
65
 73
2
 40
0.75
 49
0.5
 49
-0.25
  0
LTYPE
  5
43B
  2
DOTTED
 70
0
  3
Dotted .  .  .  .
 72
65
 73
2
 40
0.2
 49
0.0
 49
-0.2
  0
ENDTAB
  0
TABLE
  2
STYLE
  70
4
  0
STYLE
  2
KICAD
  70
0
  40
0
  41
1
  42
1
  50
0
  71
0
  3
isocp.shx
  0
STYLE
  2
KICADB
  70
0
  40
0
  41
1
  42
1
  50
0
  71
0
  3
isocp.shx
  0
STYLE
  2
KICADI
  70
0
  40
0
  41
1
  42
1
  50
15
  71
0
  3
isocp.shx
  0
STYLE
  2
KICADBI
  70
0
  40
0
  41
1
  42
1
  50
15
  71
0
  3
isocp.shx
  0
ENDTAB
  0
TABLE
  2
LAYER
  70
1
  0
LAYER
  2
BLACK
  70
0
  62
7
  6
CONTINUOUS
  0
ENDTAB
  0
ENDSEC
  0
SECTION
  2
ENTITIES
0
LINE
8
BLACK
6
CONTINUOUS
10
2.5
20
0.
11
0.
21
-2.5
0
LINE
8
BLACK
6
CONTINUOUS
10
0.
20
-36.1999999999999957
11
0.
21
-2.5
0
LINE
8
BLACK
6
CONTINUOUS
10
58.3999999999999986
20
-36.1999999999999957
11
58.3999999999999986
21
-2.5
0
LINE
8
BLACK
6
CONTINUOUS
10
2.5
20
-38.6999999999999957
11
0.
21
-36.1999999999999957
0
LINE
8
BLACK
6
CONTINUOUS
10
55.8999999999999986
20
-38.6999999999999957
11
58.3999999999999986
21
-36.1999999999999957
0
LINE
8
BLACK
6
CONTINUOUS
10
55.8999999999999986
20
0.
11
2.5
21
0.
0
LINE
8
BLACK
6
CONTINUOUS
10
2.5
20
-38.6999999999999957
11
55.8999999999999986
21
-38.6999999999999957
0
LINE
8
BLACK
6
CONTINUOUS
10
55.8999999999999986
20
0.
11
58.3999999999999986
21
-2.5
0
LINE
8
BLACK
6
CONTINUOUS
10
36.9499999999999957
20
-0.35
11
37.6499999999999986
21
-1.05
0
LINE
8
BLACK
6
CONTINUOUS
10
37.6499999999999986
20
-0.35
11
36.9499999999999957
21
-1.05
0
LINE
8
BLACK
6
CONTINUOUS
10
36.9499999999999957
20
-2.1499999999999999
11
37.6499999999999986
21
-2.8500000000000001
0
LINE
8
BLACK
6
CONTINUOUS
10
37.6499999999999986
20
-2.1499999999999999
11
36.9499999999999957
21
-2.8500000000000001
0
LINE
8
BLACK
6
CONTINUOUS
10
42.5499999999999972
20
-0.35
11
43.25
21
-1.05
0
LINE
8
BLACK
6
CONTINUOUS
10
43.25
20
-0.35
11
42.5499999999999972
21
-1.05
0
LINE
8
BLACK
6
CONTINUOUS
10
42.5499999999999972
20
-2.1499999999999999
11
43.25
21
-2.8500000000000001
0
LINE
8
BLACK
6
CONTINUOUS
10
43.25
20
-2.1499999999999999
11
42.5499999999999972
21
-2.8500000000000001
0
LINE
8
BLACK
6
CONTINUOUS
10
51.8499999999999943
20
-0.35
11
52.5499999999999972
21
-1.05
0
LINE
8
BLACK
6
CONTINUOUS
10
52.5499999999999972
20
-0.35
11
51.8499999999999943
21
-1.05
0
LINE
8
BLACK
6
CONTINUOUS
10
51.8499999999999943
20
-2.1499999999999999
11
52.5499999999999972
21
-2.8500000000000001
0
LINE
8
BLACK
6
CONTINUOUS
10
52.5499999999999972
20
-2.1499999999999999
11
51.8499999999999943
21
-2.8500000000000001
0
CIRCLE
8
BLACK
10
0.
20
-18.
40
1.
0
CIRCLE
8
BLACK
10
58.3999999999999986
20
-18.
40
1.
0
LINE
8
BLACK
6
CONTINUOUS
10
2.5577679999999998
20
-41.8648379999999989
11
2.5577679999999998
21
-39.8648379999999989
0
LINE
8
BLACK
6
CONTINUOUS
10
2.5577679999999998
20
-39.8648379999999989
11
3.0339579999999997
21
-39.8648379999999989
0
LINE
8
BLACK
6
CONTINUOUS
10
3.0339579999999997
20
-39.8648379999999989
11
3.3196729999999999
21
-39.9600760000000008
0
LINE
8
BLACK
6
CONTINUOUS
10
3.3196729999999999
20
-39.9600760000000008
11
3.5101489999999997
21
-40.1505519999999976
0
LINE
8
BLACK
6
CONTINUOUS
10
3.5101489999999997
20
-40.1505519999999976
11
3.6053869999999999
21
-40.3410280000000014
0
LINE
8
BLACK
6
CONTINUOUS
10
3.6053869999999999
20
-40.3410280000000014
11
3.7006250000000001
21
-40.721979999999995
0
LINE
8
BLACK
6
CONTINUOUS
10
3.7006250000000001
20
-40.721979999999995
11
3.7006250000000001
21
-41.0076949999999982
0
LINE
8
BLACK
6
CONTINUOUS
10
3.7006250000000001
20
-41.0076949999999982
11
3.6053869999999999
21
-41.3886469999999989
0
LINE
8
BLACK
6
CONTINUOUS
10
3.6053869999999999
20
-41.3886469999999989
11
3.5101489999999997
21
-41.5791229999999956
0
LINE
8
BLACK
6
CONTINUOUS
10
3.5101489999999997
20
-41.5791229999999956
11
3.3196729999999999
21
-41.769599999999997
0
LINE
8
BLACK
6
CONTINUOUS
10
3.3196729999999999
20
-41.769599999999997
11
3.0339579999999997
21
-41.8648379999999989
0
LINE
8
BLACK
6
CONTINUOUS
10
3.0339579999999997
20
-41.8648379999999989
11
2.5577679999999998
21
-41.8648379999999989
0
LINE
8
BLACK
6
CONTINUOUS
10
4.5577679999999994
20
-41.8648379999999989
11
4.5577679999999994
21
-40.5315039999999982
0
LINE
8
BLACK
6
CONTINUOUS
10
4.5577679999999994
20
-40.9124569999999963
11
4.6530059999999995
21
-40.721979999999995
0
LINE
8
BLACK
6
CONTINUOUS
10
4.6530059999999995
20
-40.721979999999995
11
4.7482439999999997
21
-40.6267420000000001
0
LINE
8
BLACK
6
CONTINUOUS
10
4.7482439999999997
20
-40.6267420000000001
11
4.93872
21
-40.5315039999999982
0
LINE
8
BLACK
6
CONTINUOUS
10
4.93872
20
-40.5315039999999982
11
5.1291969999999996
21
-40.5315039999999982
0
LINE
8
BLACK
6
CONTINUOUS
10
5.7958629999999998
20
-41.8648379999999989
11
5.7958629999999998
21
-40.5315039999999982
0
LINE
8
BLACK
6
CONTINUOUS
10
5.7958629999999998
20
-39.8648379999999989
11
5.7006249999999996
21
-39.9600760000000008
0
LINE
8
BLACK
6
CONTINUOUS
10
5.7006249999999996
20
-39.9600760000000008
11
5.7958629999999998
21
-40.0553139999999956
0
LINE
8
BLACK
6
CONTINUOUS
10
5.7958629999999998
20
-40.0553139999999956
11
5.8911009999999999
21
-39.9600760000000008
0
LINE
8
BLACK
6
CONTINUOUS
10
5.8911009999999999
20
-39.9600760000000008
11
5.7958629999999998
21
-39.8648379999999989
0
LINE
8
BLACK
6
CONTINUOUS
10
5.7958629999999998
20
-39.8648379999999989
11
5.7958629999999998
21
-40.0553139999999956
0
LINE
8
BLACK
6
CONTINUOUS
10
7.0339579999999993
20
-41.8648379999999989
11
6.8434819999999998
21
-41.769599999999997
0
LINE
8
BLACK
6
CONTINUOUS
10
6.8434819999999998
20
-41.769599999999997
11
6.7482439999999997
21
-41.5791229999999956
0
LINE
8
BLACK
6
CONTINUOUS
10
6.7482439999999997
20
-41.5791229999999956
11
6.7482439999999997
21
-39.8648379999999989
0
LINE
8
BLACK
6
CONTINUOUS
10
8.0815769999999993
20
-41.8648379999999989
11
7.8911009999999999
21
-41.769599999999997
0
LINE
8
BLACK
6
CONTINUOUS
10
7.8911009999999999
20
-41.769599999999997
11
7.7958629999999998
21
-41.5791229999999956
0
LINE
8
BLACK
6
CONTINUOUS
10
7.7958629999999998
20
-41.5791229999999956
11
7.7958629999999998
21
-39.8648379999999989
0
LINE
8
BLACK
6
CONTINUOUS
10
10.3672919999999991
20
-41.8648379999999989
11
10.3672919999999991
21
-39.8648379999999989
0
LINE
8
BLACK
6
CONTINUOUS
10
10.3672919999999991
20
-39.8648379999999989
11
11.0339589999999994
21
-41.2934089999999969
0
LINE
8
BLACK
6
CONTINUOUS
10
11.0339589999999994
20
-41.2934089999999969
11
11.7006249999999987
21
-39.8648379999999989
0
LINE
8
BLACK
6
CONTINUOUS
10
11.7006249999999987
20
-39.8648379999999989
11
11.7006249999999987
21
-41.8648379999999989
0
LINE
8
BLACK
6
CONTINUOUS
10
13.5101490000000002
20
-41.8648379999999989
11
13.5101490000000002
21
-40.8172190000000015
0
LINE
8
BLACK
6
CONTINUOUS
10
13.5101490000000002
20
-40.8172190000000015
11
13.414911
21
-40.6267420000000001
0
LINE
8
BLACK
6
CONTINUOUS
10
13.414911
20
-40.6267420000000001
11
13.2244349999999997
21
-40.5315039999999982
0
LINE
8
BLACK
6
CONTINUOUS
10
13.2244349999999997
20
-40.5315039999999982
11
12.8434819999999998
21
-40.5315039999999982
0
LINE
8
BLACK
6
CONTINUOUS
10
12.8434819999999998
20
-40.5315039999999982
11
12.6530059999999995
21
-40.6267420000000001
0
LINE
8
BLACK
6
CONTINUOUS
10
13.5101490000000002
20
-41.769599999999997
11
13.3196729999999999
21
-41.8648379999999989
0
LINE
8
BLACK
6
CONTINUOUS
10
13.3196729999999999
20
-41.8648379999999989
11
12.8434819999999998
21
-41.8648379999999989
0
LINE
8
BLACK
6
CONTINUOUS
10
12.8434819999999998
20
-41.8648379999999989
11
12.6530059999999995
21
-41.769599999999997
0
LINE
8
BLACK
6
CONTINUOUS
10
12.6530059999999995
20
-41.769599999999997
11
12.5577679999999994
21
-41.5791229999999956
0
LINE
8
BLACK
6
CONTINUOUS
10
12.5577679999999994
20
-41.5791229999999956
11
12.5577679999999994
21
-41.3886469999999989
0
LINE
8
BLACK
6
CONTINUOUS
10
12.5577679999999994
20
-41.3886469999999989
11
12.6530059999999995
21
-41.198170999999995
0
LINE
8
BLACK
6
CONTINUOUS
10
12.6530059999999995
20
-41.198170999999995
11
12.8434819999999998
21
-41.1029330000000002
0
LINE
8
BLACK
6
CONTINUOUS
10
12.8434819999999998
20
-41.1029330000000002
11
13.3196729999999999
21
-41.1029330000000002
0
LINE
8
BLACK
6
CONTINUOUS
10
13.3196729999999999
20
-41.1029330000000002
11
13.5101490000000002
21
-41.0076949999999982
0
LINE
8
BLACK
6
CONTINUOUS
10
14.4625299999999992
20
-40.5315039999999982
11
14.4625299999999992
21
-42.5315039999999982
0
LINE
8
BLACK
6
CONTINUOUS
10
14.4625299999999992
20
-40.6267420000000001
11
14.6530059999999995
21
-40.5315039999999982
0
LINE
8
BLACK
6
CONTINUOUS
10
14.6530059999999995
20
-40.5315039999999982
11
15.0339589999999994
21
-40.5315039999999982
0
LINE
8
BLACK
6
CONTINUOUS
10
15.0339589999999994
20
-40.5315039999999982
11
15.2244349999999997
21
-40.6267420000000001
0
LINE
8
BLACK
6
CONTINUOUS
10
15.2244349999999997
20
-40.6267420000000001
11
15.3196729999999999
21
-40.721979999999995
0
LINE
8
BLACK
6
CONTINUOUS
10
15.3196729999999999
20
-40.721979999999995
11
15.414911
21
-40.9124569999999963
0
LINE
8
BLACK
6
CONTINUOUS
10
15.414911
20
-40.9124569999999963
11
15.414911
21
-41.4838850000000008
0
LINE
8
BLACK
6
CONTINUOUS
10
15.414911
20
-41.4838850000000008
11
15.3196729999999999
21
-41.6743609999999975
0
LINE
8
BLACK
6
CONTINUOUS
10
15.3196729999999999
20
-41.6743609999999975
11
15.2244349999999997
21
-41.769599999999997
0
LINE
8
BLACK
6
CONTINUOUS
10
15.2244349999999997
20
-41.769599999999997
11
15.0339589999999994
21
-41.8648379999999989
0
LINE
8
BLACK
6
CONTINUOUS
10
15.0339589999999994
20
-41.8648379999999989
11
14.6530059999999995
21
-41.8648379999999989
0
LINE
8
BLACK
6
CONTINUOUS
10
14.6530059999999995
20
-41.8648379999999989
11
14.4625299999999992
21
-41.769599999999997
0
LINE
8
BLACK
6
CONTINUOUS
10
16.2720540000000007
20
-41.6743609999999975
11
16.3672919999999991
21
-41.769599999999997
0
LINE
8
BLACK
6
CONTINUOUS
10
16.3672919999999991
20
-41.769599999999997
11
16.2720540000000007
21
-41.8648379999999989
0
LINE
8
BLACK
6
CONTINUOUS
10
16.2720540000000007
20
-41.8648379999999989
11
16.1768159999999988
21
-41.769599999999997
0
LINE
8
BLACK
6
CONTINUOUS
10
16.1768159999999988
20
-41.769599999999997
11
16.2720540000000007
21
-41.6743609999999975
0
LINE
8
BLACK
6
CONTINUOUS
10
16.2720540000000007
20
-41.6743609999999975
11
16.2720540000000007
21
-41.8648379999999989
0
LINE
8
BLACK
6
CONTINUOUS
10
16.2720540000000007
20
-40.6267420000000001
11
16.3672919999999991
21
-40.721979999999995
0
LINE
8
BLACK
6
CONTINUOUS
10
16.3672919999999991
20
-40.721979999999995
11
16.2720540000000007
21
-40.8172190000000015
0
LINE
8
BLACK
6
CONTINUOUS
10
16.2720540000000007
20
-40.8172190000000015
11
16.1768159999999988
21
-40.721979999999995
0
LINE
8
BLACK
6
CONTINUOUS
10
16.1768159999999988
20
-40.721979999999995
11
16.2720540000000007
21
-40.6267420000000001
0
LINE
8
BLACK
6
CONTINUOUS
10
16.2720540000000007
20
-40.6267420000000001
11
16.2720540000000007
21
-40.8172190000000015
0
LINE
8
BLACK
6
CONTINUOUS
10
-0.75
20
-44.7999999999999972
11
-0.05
21
-45.5
0
LINE
8
BLACK
6
CONTINUOUS
10
-0.05
20
-44.7999999999999972
11
-0.75
21
-45.5
0
LINE
8
BLACK
6
CONTINUOUS
10
2.93872
20
-44.0648379999999946
11
3.129197
21
-44.0648379999999946
0
LINE
8
BLACK
6
CONTINUOUS
10
3.129197
20
-44.0648379999999946
11
3.3196729999999999
21
-44.1600759999999966
0
LINE
8
BLACK
6
CONTINUOUS
10
3.3196729999999999
20
-44.1600759999999966
11
3.414911
21
-44.2553139999999985
0
LINE
8
BLACK
6
CONTINUOUS
10
3.414911
20
-44.2553139999999985
11
3.5101489999999997
21
-44.4457899999999952
0
LINE
8
BLACK
6
CONTINUOUS
10
3.5101489999999997
20
-44.4457899999999952
11
3.6053869999999999
21
-44.8267419999999959
0
LINE
8
BLACK
6
CONTINUOUS
10
3.6053869999999999
20
-44.8267419999999959
11
3.6053869999999999
21
-45.3029329999999959
0
LINE
8
BLACK
6
CONTINUOUS
10
3.6053869999999999
20
-45.3029329999999959
11
3.5101489999999997
21
-45.6838849999999965
0
LINE
8
BLACK
6
CONTINUOUS
10
3.5101489999999997
20
-45.6838849999999965
11
3.414911
21
-45.8743610000000004
0
LINE
8
BLACK
6
CONTINUOUS
10
3.414911
20
-45.8743610000000004
11
3.3196729999999999
21
-45.9695999999999998
0
LINE
8
BLACK
6
CONTINUOUS
10
3.3196729999999999
20
-45.9695999999999998
11
3.129197
21
-46.0648379999999946
0
LINE
8
BLACK
6
CONTINUOUS
10
3.129197
20
-46.0648379999999946
11
2.93872
21
-46.0648379999999946
0
LINE
8
BLACK
6
CONTINUOUS
10
2.93872
20
-46.0648379999999946
11
2.7482439999999997
21
-45.9695999999999998
0
LINE
8
BLACK
6
CONTINUOUS
10
2.7482439999999997
20
-45.9695999999999998
11
2.653006
21
-45.8743610000000004
0
LINE
8
BLACK
6
CONTINUOUS
10
2.653006
20
-45.8743610000000004
11
2.5577679999999998
21
-45.6838849999999965
0
LINE
8
BLACK
6
CONTINUOUS
10
2.5577679999999998
20
-45.6838849999999965
11
2.4625300000000001
21
-45.3029329999999959
0
LINE
8
BLACK
6
CONTINUOUS
10
2.4625300000000001
20
-45.3029329999999959
11
2.4625300000000001
21
-44.8267419999999959
0
LINE
8
BLACK
6
CONTINUOUS
10
2.4625300000000001
20
-44.8267419999999959
11
2.5577679999999998
21
-44.4457899999999952
0
LINE
8
BLACK
6
CONTINUOUS
10
2.5577679999999998
20
-44.4457899999999952
11
2.653006
21
-44.2553139999999985
0
LINE
8
BLACK
6
CONTINUOUS
10
2.653006
20
-44.2553139999999985
11
2.7482439999999997
21
-44.1600759999999966
0
LINE
8
BLACK
6
CONTINUOUS
10
2.7482439999999997
20
-44.1600759999999966
11
2.93872
21
-44.0648379999999946
0
LINE
8
BLACK
6
CONTINUOUS
10
4.4625300000000001
20
-45.8743610000000004
11
4.5577679999999994
21
-45.9695999999999998
0
LINE
8
BLACK
6
CONTINUOUS
10
4.5577679999999994
20
-45.9695999999999998
11
4.4625300000000001
21
-46.0648379999999946
0
LINE
8
BLACK
6
CONTINUOUS
10
4.4625300000000001
20
-46.0648379999999946
11
4.367292
21
-45.9695999999999998
0
LINE
8
BLACK
6
CONTINUOUS
10
4.367292
20
-45.9695999999999998
11
4.4625300000000001
21
-45.8743610000000004
0
LINE
8
BLACK
6
CONTINUOUS
10
4.4625300000000001
20
-45.8743610000000004
11
4.4625300000000001
21
-46.0648379999999946
0
LINE
8
BLACK
6
CONTINUOUS
10
5.2244349999999997
20
-44.0648379999999946
11
6.5577679999999994
21
-44.0648379999999946
0
LINE
8
BLACK
6
CONTINUOUS
10
6.5577679999999994
20
-44.0648379999999946
11
5.7006249999999996
21
-46.0648379999999946
0
LINE
8
BLACK
6
CONTINUOUS
10
7.7006249999999996
20
-44.0648379999999946
11
7.8911020000000001
21
-44.0648379999999946
0
LINE
8
BLACK
6
CONTINUOUS
10
7.8911020000000001
20
-44.0648379999999946
11
8.0815780000000004
21
-44.1600759999999966
0
LINE
8
BLACK
6
CONTINUOUS
10
8.0815780000000004
20
-44.1600759999999966
11
8.1768159999999988
21
-44.2553139999999985
0
LINE
8
BLACK
6
CONTINUOUS
10
8.1768159999999988
20
-44.2553139999999985
11
8.2720539999999989
21
-44.4457899999999952
0
LINE
8
BLACK
6
CONTINUOUS
10
8.2720539999999989
20
-44.4457899999999952
11
8.3672919999999991
21
-44.8267419999999959
0
LINE
8
BLACK
6
CONTINUOUS
10
8.3672919999999991
20
-44.8267419999999959
11
8.3672919999999991
21
-45.3029329999999959
0
LINE
8
BLACK
6
CONTINUOUS
10
8.3672919999999991
20
-45.3029329999999959
11
8.2720539999999989
21
-45.6838849999999965
0
LINE
8
BLACK
6
CONTINUOUS
10
8.2720539999999989
20
-45.6838849999999965
11
8.1768159999999988
21
-45.8743610000000004
0
LINE
8
BLACK
6
CONTINUOUS
10
8.1768159999999988
20
-45.8743610000000004
11
8.0815780000000004
21
-45.9695999999999998
0
LINE
8
BLACK
6
CONTINUOUS
10
8.0815780000000004
20
-45.9695999999999998
11
7.8911020000000001
21
-46.0648379999999946
0
LINE
8
BLACK
6
CONTINUOUS
10
7.8911020000000001
20
-46.0648379999999946
11
7.7006249999999996
21
-46.0648379999999946
0
LINE
8
BLACK
6
CONTINUOUS
10
7.7006249999999996
20
-46.0648379999999946
11
7.5101489999999993
21
-45.9695999999999998
0
LINE
8
BLACK
6
CONTINUOUS
10
7.5101489999999993
20
-45.9695999999999998
11
7.414911
21
-45.8743610000000004
0
LINE
8
BLACK
6
CONTINUOUS
10
7.414911
20
-45.8743610000000004
11
7.3196729999999999
21
-45.6838849999999965
0
LINE
8
BLACK
6
CONTINUOUS
10
7.3196729999999999
20
-45.6838849999999965
11
7.2244349999999997
21
-45.3029329999999959
0
LINE
8
BLACK
6
CONTINUOUS
10
7.2244349999999997
20
-45.3029329999999959
11
7.2244349999999997
21
-44.8267419999999959
0
LINE
8
BLACK
6
CONTINUOUS
10
7.2244349999999997
20
-44.8267419999999959
11
7.3196729999999999
21
-44.4457899999999952
0
LINE
8
BLACK
6
CONTINUOUS
10
7.3196729999999999
20
-44.4457899999999952
11
7.414911
21
-44.2553139999999985
0
LINE
8
BLACK
6
CONTINUOUS
10
7.414911
20
-44.2553139999999985
11
7.5101489999999993
21
-44.1600759999999966
0
LINE
8
BLACK
6
CONTINUOUS
10
7.5101489999999993
20
-44.1600759999999966
11
7.7006249999999996
21
-44.0648379999999946
0
LINE
8
BLACK
6
CONTINUOUS
10
9.6053870000000003
20
-44.0648379999999946
11
9.7958639999999999
21
-44.0648379999999946
0
LINE
8
BLACK
6
CONTINUOUS
10
9.7958639999999999
20
-44.0648379999999946
11
9.9863400000000002
21
-44.1600759999999966
0
LINE
8
BLACK
6
CONTINUOUS
10
9.9863400000000002
20
-44.1600759999999966
11
10.0815780000000004
21
-44.2553139999999985
0
LINE
8
BLACK
6
CONTINUOUS
10
10.0815780000000004
20
-44.2553139999999985
11
10.1768159999999988
21
-44.4457899999999952
0
LINE
8
BLACK
6
CONTINUOUS
10
10.1768159999999988
20
-44.4457899999999952
11
10.2720539999999989
21
-44.8267419999999959
0
LINE
8
BLACK
6
CONTINUOUS
10
10.2720539999999989
20
-44.8267419999999959
11
10.2720539999999989
21
-45.3029329999999959
0
LINE
8
BLACK
6
CONTINUOUS
10
10.2720539999999989
20
-45.3029329999999959
11
10.1768159999999988
21
-45.6838849999999965
0
LINE
8
BLACK
6
CONTINUOUS
10
10.1768159999999988
20
-45.6838849999999965
11
10.0815780000000004
21
-45.8743610000000004
0
LINE
8
BLACK
6
CONTINUOUS
10
10.0815780000000004
20
-45.8743610000000004
11
9.9863400000000002
21
-45.9695999999999998
0
LINE
8
BLACK
6
CONTINUOUS
10
9.9863400000000002
20
-45.9695999999999998
11
9.7958639999999999
21
-46.0648379999999946
0
LINE
8
BLACK
6
CONTINUOUS
10
9.7958639999999999
20
-46.0648379999999946
11
9.6053870000000003
21
-46.0648379999999946
0
LINE
8
BLACK
6
CONTINUOUS
10
9.6053870000000003
20
-46.0648379999999946
11
9.414911
21
-45.9695999999999998
0
LINE
8
BLACK
6
CONTINUOUS
10
9.414911
20
-45.9695999999999998
11
9.3196729999999999
21
-45.8743610000000004
0
LINE
8
BLACK
6
CONTINUOUS
10
9.3196729999999999
20
-45.8743610000000004
11
9.2244349999999997
21
-45.6838849999999965
0
LINE
8
BLACK
6
CONTINUOUS
10
9.2244349999999997
20
-45.6838849999999965
11
9.1291969999999996
21
-45.3029329999999959
0
LINE
8
BLACK
6
CONTINUOUS
10
9.1291969999999996
20
-45.3029329999999959
11
9.1291969999999996
21
-44.8267419999999959
0
LINE
8
BLACK
6
CONTINUOUS
10
9.1291969999999996
20
-44.8267419999999959
11
9.2244349999999997
21
-44.4457899999999952
0
LINE
8
BLACK
6
CONTINUOUS
10
9.2244349999999997
20
-44.4457899999999952
11
9.3196729999999999
21
-44.2553139999999985
0
LINE
8
BLACK
6
CONTINUOUS
10
9.3196729999999999
20
-44.2553139999999985
11
9.414911
21
-44.1600759999999966
0
LINE
8
BLACK
6
CONTINUOUS
10
9.414911
20
-44.1600759999999966
11
9.6053870000000003
21
-44.0648379999999946
0
LINE
8
BLACK
6
CONTINUOUS
10
11.1291969999999996
20
-46.0648379999999946
11
11.1291969999999996
21
-44.731504000000001
0
LINE
8
BLACK
6
CONTINUOUS
10
11.1291969999999996
20
-44.9219799999999978
11
11.2244349999999997
21
-44.8267419999999959
0
LINE
8
BLACK
6
CONTINUOUS
10
11.2244349999999997
20
-44.8267419999999959
11
11.414911
21
-44.731504000000001
0
LINE
8
BLACK
6
CONTINUOUS
10
11.414911
20
-44.731504000000001
11
11.7006259999999997
21
-44.731504000000001
0
LINE
8
BLACK
6
CONTINUOUS
10
11.7006259999999997
20
-44.731504000000001
11
11.8911020000000001
21
-44.8267419999999959
0
LINE
8
BLACK
6
CONTINUOUS
10
11.8911020000000001
20
-44.8267419999999959
11
11.9863400000000002
21
-45.0172189999999972
0
LINE
8
BLACK
6
CONTINUOUS
10
11.9863400000000002
20
-45.0172189999999972
11
11.9863400000000002
21
-46.0648379999999946
0
LINE
8
BLACK
6
CONTINUOUS
10
11.9863400000000002
20
-45.0172189999999972
11
12.0815779999999986
21
-44.8267419999999959
0
LINE
8
BLACK
6
CONTINUOUS
10
12.0815779999999986
20
-44.8267419999999959
11
12.2720539999999989
21
-44.731504000000001
0
LINE
8
BLACK
6
CONTINUOUS
10
12.2720539999999989
20
-44.731504000000001
11
12.5577679999999994
21
-44.731504000000001
0
LINE
8
BLACK
6
CONTINUOUS
10
12.5577679999999994
20
-44.731504000000001
11
12.7482449999999989
21
-44.8267419999999959
0
LINE
8
BLACK
6
CONTINUOUS
10
12.7482449999999989
20
-44.8267419999999959
11
12.8434829999999991
21
-45.0172189999999972
0
LINE
8
BLACK
6
CONTINUOUS
10
12.8434829999999991
20
-45.0172189999999972
11
12.8434829999999991
21
-46.0648379999999946
0
LINE
8
BLACK
6
CONTINUOUS
10
13.7958639999999999
20
-46.0648379999999946
11
13.7958639999999999
21
-44.731504000000001
0
LINE
8
BLACK
6
CONTINUOUS
10
13.7958639999999999
20
-44.9219799999999978
11
13.8911020000000001
21
-44.8267419999999959
0
LINE
8
BLACK
6
CONTINUOUS
10
13.8911020000000001
20
-44.8267419999999959
11
14.0815779999999986
21
-44.731504000000001
0
LINE
8
BLACK
6
CONTINUOUS
10
14.0815779999999986
20
-44.731504000000001
11
14.3672930000000001
21
-44.731504000000001
0
LINE
8
BLACK
6
CONTINUOUS
10
14.3672930000000001
20
-44.731504000000001
11
14.5577689999999986
21
-44.8267419999999959
0
LINE
8
BLACK
6
CONTINUOUS
10
14.5577689999999986
20
-44.8267419999999959
11
14.6530069999999988
21
-45.0172189999999972
0
LINE
8
BLACK
6
CONTINUOUS
10
14.6530069999999988
20
-45.0172189999999972
11
14.6530069999999988
21
-46.0648379999999946
0
LINE
8
BLACK
6
CONTINUOUS
10
14.6530069999999988
20
-45.0172189999999972
11
14.7482449999999989
21
-44.8267419999999959
0
LINE
8
BLACK
6
CONTINUOUS
10
14.7482449999999989
20
-44.8267419999999959
11
14.9387209999999993
21
-44.731504000000001
0
LINE
8
BLACK
6
CONTINUOUS
10
14.9387209999999993
20
-44.731504000000001
11
15.2244349999999997
21
-44.731504000000001
0
LINE
8
BLACK
6
CONTINUOUS
10
15.2244349999999997
20
-44.731504000000001
11
15.4149119999999993
21
-44.8267419999999959
0
LINE
8
BLACK
6
CONTINUOUS
10
15.4149119999999993
20
-44.8267419999999959
11
15.5101499999999994
21
-45.0172189999999972
0
LINE
8
BLACK
6
CONTINUOUS
10
15.5101499999999994
20
-45.0172189999999972
11
15.5101499999999994
21
-46.0648379999999946
0
LINE
8
BLACK
6
CONTINUOUS
10
19.4149119999999975
20
-43.9695999999999998
11
17.7006270000000008
21
-46.5410279999999972
0
LINE
8
BLACK
6
CONTINUOUS
10
21.9863409999999995
20
-44.0648379999999946
11
22.1768179999999973
21
-44.0648379999999946
0
LINE
8
BLACK
6
CONTINUOUS
10
22.1768179999999973
20
-44.0648379999999946
11
22.3672939999999976
21
-44.1600759999999966
0
LINE
8
BLACK
6
CONTINUOUS
10
22.3672939999999976
20
-44.1600759999999966
11
22.4625319999999995
21
-44.2553139999999985
0
LINE
8
BLACK
6
CONTINUOUS
10
22.4625319999999995
20
-44.2553139999999985
11
22.5577699999999979
21
-44.4457899999999952
0
LINE
8
BLACK
6
CONTINUOUS
10
22.5577699999999979
20
-44.4457899999999952
11
22.6530079999999998
21
-44.8267419999999959
0
LINE
8
BLACK
6
CONTINUOUS
10
22.6530079999999998
20
-44.8267419999999959
11
22.6530079999999998
21
-45.3029329999999959
0
LINE
8
BLACK
6
CONTINUOUS
10
22.6530079999999998
20
-45.3029329999999959
11
22.5577699999999979
21
-45.6838849999999965
0
LINE
8
BLACK
6
CONTINUOUS
10
22.5577699999999979
20
-45.6838849999999965
11
22.4625319999999995
21
-45.8743610000000004
0
LINE
8
BLACK
6
CONTINUOUS
10
22.4625319999999995
20
-45.8743610000000004
11
22.3672939999999976
21
-45.9695999999999998
0
LINE
8
BLACK
6
CONTINUOUS
10
22.3672939999999976
20
-45.9695999999999998
11
22.1768179999999973
21
-46.0648379999999946
0
LINE
8
BLACK
6
CONTINUOUS
10
22.1768179999999973
20
-46.0648379999999946
11
21.9863409999999995
21
-46.0648379999999946
0
LINE
8
BLACK
6
CONTINUOUS
10
21.9863409999999995
20
-46.0648379999999946
11
21.7958649999999992
21
-45.9695999999999998
0
LINE
8
BLACK
6
CONTINUOUS
10
21.7958649999999992
20
-45.9695999999999998
11
21.7006270000000008
21
-45.8743610000000004
0
LINE
8
BLACK
6
CONTINUOUS
10
21.7006270000000008
20
-45.8743610000000004
11
21.6053889999999988
21
-45.6838849999999965
0
LINE
8
BLACK
6
CONTINUOUS
10
21.6053889999999988
20
-45.6838849999999965
11
21.5101510000000005
21
-45.3029329999999959
0
LINE
8
BLACK
6
CONTINUOUS
10
21.5101510000000005
20
-45.3029329999999959
11
21.5101510000000005
21
-44.8267419999999959
0
LINE
8
BLACK
6
CONTINUOUS
10
21.5101510000000005
20
-44.8267419999999959
11
21.6053889999999988
21
-44.4457899999999952
0
LINE
8
BLACK
6
CONTINUOUS
10
21.6053889999999988
20
-44.4457899999999952
11
21.7006270000000008
21
-44.2553139999999985
0
LINE
8
BLACK
6
CONTINUOUS
10
21.7006270000000008
20
-44.2553139999999985
11
21.7958649999999992
21
-44.1600759999999966
0
LINE
8
BLACK
6
CONTINUOUS
10
21.7958649999999992
20
-44.1600759999999966
11
21.9863409999999995
21
-44.0648379999999946
0
LINE
8
BLACK
6
CONTINUOUS
10
23.5101510000000005
20
-45.8743610000000004
11
23.6053889999999988
21
-45.9695999999999998
0
LINE
8
BLACK
6
CONTINUOUS
10
23.6053889999999988
20
-45.9695999999999998
11
23.5101510000000005
21
-46.0648379999999946
0
LINE
8
BLACK
6
CONTINUOUS
10
23.5101510000000005
20
-46.0648379999999946
11
23.4149129999999985
21
-45.9695999999999998
0
LINE
8
BLACK
6
CONTINUOUS
10
23.4149129999999985
20
-45.9695999999999998
11
23.5101510000000005
21
-45.8743610000000004
0
LINE
8
BLACK
6
CONTINUOUS
10
23.5101510000000005
20
-45.8743610000000004
11
23.5101510000000005
21
-46.0648379999999946
0
LINE
8
BLACK
6
CONTINUOUS
10
24.8434840000000001
20
-44.0648379999999946
11
25.0339609999999979
21
-44.0648379999999946
0
LINE
8
BLACK
6
CONTINUOUS
10
25.0339609999999979
20
-44.0648379999999946
11
25.2244369999999982
21
-44.1600759999999966
0
LINE
8
BLACK
6
CONTINUOUS
10
25.2244369999999982
20
-44.1600759999999966
11
25.3196750000000002
21
-44.2553139999999985
0
LINE
8
BLACK
6
CONTINUOUS
10
25.3196750000000002
20
-44.2553139999999985
11
25.4149129999999985
21
-44.4457899999999952
0
LINE
8
BLACK
6
CONTINUOUS
10
25.4149129999999985
20
-44.4457899999999952
11
25.5101510000000005
21
-44.8267419999999959
0
LINE
8
BLACK
6
CONTINUOUS
10
25.5101510000000005
20
-44.8267419999999959
11
25.5101510000000005
21
-45.3029329999999959
0
LINE
8
BLACK
6
CONTINUOUS
10
25.5101510000000005
20
-45.3029329999999959
11
25.4149129999999985
21
-45.6838849999999965
0
LINE
8
BLACK
6
CONTINUOUS
10
25.4149129999999985
20
-45.6838849999999965
11
25.3196750000000002
21
-45.8743610000000004
0
LINE
8
BLACK
6
CONTINUOUS
10
25.3196750000000002
20
-45.8743610000000004
11
25.2244369999999982
21
-45.9695999999999998
0
LINE
8
BLACK
6
CONTINUOUS
10
25.2244369999999982
20
-45.9695999999999998
11
25.0339609999999979
21
-46.0648379999999946
0
LINE
8
BLACK
6
CONTINUOUS
10
25.0339609999999979
20
-46.0648379999999946
11
24.8434840000000001
21
-46.0648379999999946
0
LINE
8
BLACK
6
CONTINUOUS
10
24.8434840000000001
20
-46.0648379999999946
11
24.6530079999999998
21
-45.9695999999999998
0
LINE
8
BLACK
6
CONTINUOUS
10
24.6530079999999998
20
-45.9695999999999998
11
24.5577699999999979
21
-45.8743610000000004
0
LINE
8
BLACK
6
CONTINUOUS
10
24.5577699999999979
20
-45.8743610000000004
11
24.4625319999999995
21
-45.6838849999999965
0
LINE
8
BLACK
6
CONTINUOUS
10
24.4625319999999995
20
-45.6838849999999965
11
24.3672939999999976
21
-45.3029329999999959
0
LINE
8
BLACK
6
CONTINUOUS
10
24.3672939999999976
20
-45.3029329999999959
11
24.3672939999999976
21
-44.8267419999999959
0
LINE
8
BLACK
6
CONTINUOUS
10
24.3672939999999976
20
-44.8267419999999959
11
24.4625319999999995
21
-44.4457899999999952
0
LINE
8
BLACK
6
CONTINUOUS
10
24.4625319999999995
20
-44.4457899999999952
11
24.5577699999999979
21
-44.2553139999999985
0
LINE
8
BLACK
6
CONTINUOUS
10
24.5577699999999979
20
-44.2553139999999985
11
24.6530079999999998
21
-44.1600759999999966
0
LINE
8
BLACK
6
CONTINUOUS
10
24.6530079999999998
20
-44.1600759999999966
11
24.8434840000000001
21
-44.0648379999999946
0
LINE
8
BLACK
6
CONTINUOUS
10
26.2720559999999992
20
-44.2553139999999985
11
26.3672939999999976
21
-44.1600759999999966
0
LINE
8
BLACK
6
CONTINUOUS
10
26.3672939999999976
20
-44.1600759999999966
11
26.5577699999999979
21
-44.0648379999999946
0
LINE
8
BLACK
6
CONTINUOUS
10
26.5577699999999979
20
-44.0648379999999946
11
27.0339609999999979
21
-44.0648379999999946
0
LINE
8
BLACK
6
CONTINUOUS
10
27.0339609999999979
20
-44.0648379999999946
11
27.2244369999999982
21
-44.1600759999999966
0
LINE
8
BLACK
6
CONTINUOUS
10
27.2244369999999982
20
-44.1600759999999966
11
27.3196750000000002
21
-44.2553139999999985
0
LINE
8
BLACK
6
CONTINUOUS
10
27.3196750000000002
20
-44.2553139999999985
11
27.4149129999999985
21
-44.4457899999999952
0
LINE
8
BLACK
6
CONTINUOUS
10
27.4149129999999985
20
-44.4457899999999952
11
27.4149129999999985
21
-44.6362659999999991
0
LINE
8
BLACK
6
CONTINUOUS
10
27.4149129999999985
20
-44.6362659999999991
11
27.3196750000000002
21
-44.9219799999999978
0
LINE
8
BLACK
6
CONTINUOUS
10
27.3196750000000002
20
-44.9219799999999978
11
26.1768179999999973
21
-46.0648379999999946
0
LINE
8
BLACK
6
CONTINUOUS
10
26.1768179999999973
20
-46.0648379999999946
11
27.4149129999999985
21
-46.0648379999999946
0
LINE
8
BLACK
6
CONTINUOUS
10
28.0815799999999989
20
-44.0648379999999946
11
29.4149129999999985
21
-44.0648379999999946
0
LINE
8
BLACK
6
CONTINUOUS
10
29.4149129999999985
20
-44.0648379999999946
11
28.5577699999999979
21
-46.0648379999999946
0
LINE
8
BLACK
6
CONTINUOUS
10
31.0339609999999979
20
-44.0648379999999946
11
30.6530079999999998
21
-44.0648379999999946
0
LINE
8
BLACK
6
CONTINUOUS
10
30.6530079999999998
20
-44.0648379999999946
11
30.4625319999999995
21
-44.1600759999999966
0
LINE
8
BLACK
6
CONTINUOUS
10
30.4625319999999995
20
-44.1600759999999966
11
30.3672939999999976
21
-44.2553139999999985
0
LINE
8
BLACK
6
CONTINUOUS
10
30.3672939999999976
20
-44.2553139999999985
11
30.1768179999999973
21
-44.5410279999999972
0
LINE
8
BLACK
6
CONTINUOUS
10
30.1768179999999973
20
-44.5410279999999972
11
30.0815799999999989
21
-44.9219799999999978
0
LINE
8
BLACK
6
CONTINUOUS
10
30.0815799999999989
20
-44.9219799999999978
11
30.0815799999999989
21
-45.6838849999999965
0
LINE
8
BLACK
6
CONTINUOUS
10
30.0815799999999989
20
-45.6838849999999965
11
30.1768179999999973
21
-45.8743610000000004
0
LINE
8
BLACK
6
CONTINUOUS
10
30.1768179999999973
20
-45.8743610000000004
11
30.2720559999999992
21
-45.9695999999999998
0
LINE
8
BLACK
6
CONTINUOUS
10
30.2720559999999992
20
-45.9695999999999998
11
30.4625319999999995
21
-46.0648379999999946
0
LINE
8
BLACK
6
CONTINUOUS
10
30.4625319999999995
20
-46.0648379999999946
11
30.8434849999999976
21
-46.0648379999999946
0
LINE
8
BLACK
6
CONTINUOUS
10
30.8434849999999976
20
-46.0648379999999946
11
31.0339609999999979
21
-45.9695999999999998
0
LINE
8
BLACK
6
CONTINUOUS
10
31.0339609999999979
20
-45.9695999999999998
11
31.1291989999999998
21
-45.8743610000000004
0
LINE
8
BLACK
6
CONTINUOUS
10
31.1291989999999998
20
-45.8743610000000004
11
31.2244369999999982
21
-45.6838849999999965
0
LINE
8
BLACK
6
CONTINUOUS
10
31.2244369999999982
20
-45.6838849999999965
11
31.2244369999999982
21
-45.2076950000000011
0
LINE
8
BLACK
6
CONTINUOUS
10
31.2244369999999982
20
-45.2076950000000011
11
31.1291989999999998
21
-45.0172189999999972
0
LINE
8
BLACK
6
CONTINUOUS
10
31.1291989999999998
20
-45.0172189999999972
11
31.0339609999999979
21
-44.9219799999999978
0
LINE
8
BLACK
6
CONTINUOUS
10
31.0339609999999979
20
-44.9219799999999978
11
30.8434849999999976
21
-44.8267419999999959
0
LINE
8
BLACK
6
CONTINUOUS
10
30.8434849999999976
20
-44.8267419999999959
11
30.4625319999999995
21
-44.8267419999999959
0
LINE
8
BLACK
6
CONTINUOUS
10
30.4625319999999995
20
-44.8267419999999959
11
30.2720559999999992
21
-44.9219799999999978
0
LINE
8
BLACK
6
CONTINUOUS
10
30.2720559999999992
20
-44.9219799999999978
11
30.1768179999999973
21
-45.0172189999999972
0
LINE
8
BLACK
6
CONTINUOUS
10
30.1768179999999973
20
-45.0172189999999972
11
30.0815799999999989
21
-45.2076950000000011
0
LINE
8
BLACK
6
CONTINUOUS
10
31.9863419999999969
20
-44.0648379999999946
11
31.9863419999999969
21
-44.4457899999999952
0
LINE
8
BLACK
6
CONTINUOUS
10
32.7482469999999992
20
-44.0648379999999946
11
32.7482469999999992
21
-44.4457899999999952
0
LINE
8
BLACK
6
CONTINUOUS
10
35.7006289999999993
20
-46.8267419999999959
11
35.6053899999999999
21
-46.731504000000001
0
LINE
8
BLACK
6
CONTINUOUS
10
35.6053899999999999
20
-46.731504000000001
11
35.414913999999996
21
-46.4457899999999952
0
LINE
8
BLACK
6
CONTINUOUS
10
35.414913999999996
20
-46.4457899999999952
11
35.3196760000000012
21
-46.2553139999999985
0
LINE
8
BLACK
6
CONTINUOUS
10
35.3196760000000012
20
-46.2553139999999985
11
35.2244379999999992
21
-45.9695999999999998
0
LINE
8
BLACK
6
CONTINUOUS
10
35.2244379999999992
20
-45.9695999999999998
11
35.1291999999999973
21
-45.4934089999999998
0
LINE
8
BLACK
6
CONTINUOUS
10
35.1291999999999973
20
-45.4934089999999998
11
35.1291999999999973
21
-45.1124569999999991
0
LINE
8
BLACK
6
CONTINUOUS
10
35.1291999999999973
20
-45.1124569999999991
11
35.2244379999999992
21
-44.6362659999999991
0
LINE
8
BLACK
6
CONTINUOUS
10
35.2244379999999992
20
-44.6362659999999991
11
35.3196760000000012
21
-44.3505520000000004
0
LINE
8
BLACK
6
CONTINUOUS
10
35.3196760000000012
20
-44.3505520000000004
11
35.414913999999996
21
-44.1600759999999966
0
LINE
8
BLACK
6
CONTINUOUS
10
35.414913999999996
20
-44.1600759999999966
11
35.6053899999999999
21
-43.8743610000000004
0
LINE
8
BLACK
6
CONTINUOUS
10
35.6053899999999999
20
-43.8743610000000004
11
35.7006289999999993
21
-43.7791229999999985
0
LINE
8
BLACK
6
CONTINUOUS
10
37.3196760000000012
20
-44.0648379999999946
11
36.938722999999996
21
-44.0648379999999946
0
LINE
8
BLACK
6
CONTINUOUS
10
36.938722999999996
20
-44.0648379999999946
11
36.7482469999999992
21
-44.1600759999999966
0
LINE
8
BLACK
6
CONTINUOUS
10
36.7482469999999992
20
-44.1600759999999966
11
36.6530089999999973
21
-44.2553139999999985
0
LINE
8
BLACK
6
CONTINUOUS
10
36.6530089999999973
20
-44.2553139999999985
11
36.4625330000000005
21
-44.5410279999999972
0
LINE
8
BLACK
6
CONTINUOUS
10
36.4625330000000005
20
-44.5410279999999972
11
36.3672949999999986
21
-44.9219799999999978
0
LINE
8
BLACK
6
CONTINUOUS
10
36.3672949999999986
20
-44.9219799999999978
11
36.3672949999999986
21
-45.6838849999999965
0
LINE
8
BLACK
6
CONTINUOUS
10
36.3672949999999986
20
-45.6838849999999965
11
36.4625330000000005
21
-45.8743610000000004
0
LINE
8
BLACK
6
CONTINUOUS
10
36.4625330000000005
20
-45.8743610000000004
11
36.5577709999999954
21
-45.9695999999999998
0
LINE
8
BLACK
6
CONTINUOUS
10
36.5577709999999954
20
-45.9695999999999998
11
36.7482469999999992
21
-46.0648379999999946
0
LINE
8
BLACK
6
CONTINUOUS
10
36.7482469999999992
20
-46.0648379999999946
11
37.1291999999999973
21
-46.0648379999999946
0
LINE
8
BLACK
6
CONTINUOUS
10
37.1291999999999973
20
-46.0648379999999946
11
37.3196760000000012
21
-45.9695999999999998
0
LINE
8
BLACK
6
CONTINUOUS
10
37.3196760000000012
20
-45.9695999999999998
11
37.414913999999996
21
-45.8743610000000004
0
LINE
8
BLACK
6
CONTINUOUS
10
37.414913999999996
20
-45.8743610000000004
11
37.5101519999999979
21
-45.6838849999999965
0
LINE
8
BLACK
6
CONTINUOUS
10
37.5101519999999979
20
-45.6838849999999965
11
37.5101519999999979
21
-45.2076950000000011
0
LINE
8
BLACK
6
CONTINUOUS
10
37.5101519999999979
20
-45.2076950000000011
11
37.414913999999996
21
-45.0172189999999972
0
LINE
8
BLACK
6
CONTINUOUS
10
37.414913999999996
20
-45.0172189999999972
11
37.3196760000000012
21
-44.9219799999999978
0
LINE
8
BLACK
6
CONTINUOUS
10
37.3196760000000012
20
-44.9219799999999978
11
37.1291999999999973
21
-44.8267419999999959
0
LINE
8
BLACK
6
CONTINUOUS
10
37.1291999999999973
20
-44.8267419999999959
11
36.7482469999999992
21
-44.8267419999999959
0
LINE
8
BLACK
6
CONTINUOUS
10
36.7482469999999992
20
-44.8267419999999959
11
36.5577709999999954
21
-44.9219799999999978
0
LINE
8
BLACK
6
CONTINUOUS
10
36.5577709999999954
20
-44.9219799999999978
11
36.4625330000000005
21
-45.0172189999999972
0
LINE
8
BLACK
6
CONTINUOUS
10
36.4625330000000005
20
-45.0172189999999972
11
36.3672949999999986
21
-45.2076950000000011
0
LINE
8
BLACK
6
CONTINUOUS
10
39.891104999999996
20
-46.0648379999999946
11
39.891104999999996
21
-44.0648379999999946
0
LINE
8
BLACK
6
CONTINUOUS
10
40.7482479999999967
20
-46.0648379999999946
11
40.7482479999999967
21
-45.0172189999999972
0
LINE
8
BLACK
6
CONTINUOUS
10
40.7482479999999967
20
-45.0172189999999972
11
40.6530099999999948
21
-44.8267419999999959
0
LINE
8
BLACK
6
CONTINUOUS
10
40.6530099999999948
20
-44.8267419999999959
11
40.462533999999998
21
-44.731504000000001
0
LINE
8
BLACK
6
CONTINUOUS
10
40.462533999999998
20
-44.731504000000001
11
40.1768189999999947
21
-44.731504000000001
0
LINE
8
BLACK
6
CONTINUOUS
10
40.1768189999999947
20
-44.731504000000001
11
39.986342999999998
21
-44.8267419999999959
0
LINE
8
BLACK
6
CONTINUOUS
10
39.986342999999998
20
-44.8267419999999959
11
39.891104999999996
21
-44.9219799999999978
0
LINE
8
BLACK
6
CONTINUOUS
10
41.986342999999998
20
-46.0648379999999946
11
41.7958670000000012
21
-45.9695999999999998
0
LINE
8
BLACK
6
CONTINUOUS
10
41.7958670000000012
20
-45.9695999999999998
11
41.7006289999999993
21
-45.8743610000000004
0
LINE
8
BLACK
6
CONTINUOUS
10
41.7006289999999993
20
-45.8743610000000004
11
41.6053909999999973
21
-45.6838849999999965
0
LINE
8
BLACK
6
CONTINUOUS
10
41.6053909999999973
20
-45.6838849999999965
11
41.6053909999999973
21
-45.1124569999999991
0
LINE
8
BLACK
6
CONTINUOUS
10
41.6053909999999973
20
-45.1124569999999991
11
41.7006289999999993
21
-44.9219799999999978
0
LINE
8
BLACK
6
CONTINUOUS
10
41.7006289999999993
20
-44.9219799999999978
11
41.7958670000000012
21
-44.8267419999999959
0
LINE
8
BLACK
6
CONTINUOUS
10
41.7958670000000012
20
-44.8267419999999959
11
41.986342999999998
21
-44.731504000000001
0
LINE
8
BLACK
6
CONTINUOUS
10
41.986342999999998
20
-44.731504000000001
11
42.2720580000000012
21
-44.731504000000001
0
LINE
8
BLACK
6
CONTINUOUS
10
42.2720580000000012
20
-44.731504000000001
11
42.462533999999998
21
-44.8267419999999959
0
LINE
8
BLACK
6
CONTINUOUS
10
42.462533999999998
20
-44.8267419999999959
11
42.5577719999999999
21
-44.9219799999999978
0
LINE
8
BLACK
6
CONTINUOUS
10
42.5577719999999999
20
-44.9219799999999978
11
42.6530099999999948
21
-45.1124569999999991
0
LINE
8
BLACK
6
CONTINUOUS
10
42.6530099999999948
20
-45.1124569999999991
11
42.6530099999999948
21
-45.6838849999999965
0
LINE
8
BLACK
6
CONTINUOUS
10
42.6530099999999948
20
-45.6838849999999965
11
42.5577719999999999
21
-45.8743610000000004
0
LINE
8
BLACK
6
CONTINUOUS
10
42.5577719999999999
20
-45.8743610000000004
11
42.462533999999998
21
-45.9695999999999998
0
LINE
8
BLACK
6
CONTINUOUS
10
42.462533999999998
20
-45.9695999999999998
11
42.2720580000000012
21
-46.0648379999999946
0
LINE
8
BLACK
6
CONTINUOUS
10
42.2720580000000012
20
-46.0648379999999946
11
41.986342999999998
21
-46.0648379999999946
0
LINE
8
BLACK
6
CONTINUOUS
10
43.7958670000000012
20
-46.0648379999999946
11
43.6053909999999973
21
-45.9695999999999998
0
LINE
8
BLACK
6
CONTINUOUS
10
43.6053909999999973
20
-45.9695999999999998
11
43.5101529999999954
21
-45.7791229999999985
0
LINE
8
BLACK
6
CONTINUOUS
10
43.5101529999999954
20
-45.7791229999999985
11
43.5101529999999954
21
-44.0648379999999946
0
LINE
8
BLACK
6
CONTINUOUS
10
45.3196769999999987
20
-45.9695999999999998
11
45.1292009999999948
21
-46.0648379999999946
0
LINE
8
BLACK
6
CONTINUOUS
10
45.1292009999999948
20
-46.0648379999999946
11
44.7482479999999967
21
-46.0648379999999946
0
LINE
8
BLACK
6
CONTINUOUS
10
44.7482479999999967
20
-46.0648379999999946
11
44.5577719999999999
21
-45.9695999999999998
0
LINE
8
BLACK
6
CONTINUOUS
10
44.5577719999999999
20
-45.9695999999999998
11
44.462533999999998
21
-45.7791229999999985
0
LINE
8
BLACK
6
CONTINUOUS
10
44.462533999999998
20
-45.7791229999999985
11
44.462533999999998
21
-45.0172189999999972
0
LINE
8
BLACK
6
CONTINUOUS
10
44.462533999999998
20
-45.0172189999999972
11
44.5577719999999999
21
-44.8267419999999959
0
LINE
8
BLACK
6
CONTINUOUS
10
44.5577719999999999
20
-44.8267419999999959
11
44.7482479999999967
21
-44.731504000000001
0
LINE
8
BLACK
6
CONTINUOUS
10
44.7482479999999967
20
-44.731504000000001
11
45.1292009999999948
21
-44.731504000000001
0
LINE
8
BLACK
6
CONTINUOUS
10
45.1292009999999948
20
-44.731504000000001
11
45.3196769999999987
21
-44.8267419999999959
0
LINE
8
BLACK
6
CONTINUOUS
10
45.3196769999999987
20
-44.8267419999999959
11
45.4149150000000006
21
-45.0172189999999972
0
LINE
8
BLACK
6
CONTINUOUS
10
45.4149150000000006
20
-45.0172189999999972
11
45.4149150000000006
21
-45.2076950000000011
0
LINE
8
BLACK
6
CONTINUOUS
10
45.4149150000000006
20
-45.2076950000000011
11
44.462533999999998
21
-45.3981709999999978
0
LINE
8
BLACK
6
CONTINUOUS
10
46.1768199999999993
20
-45.9695999999999998
11
46.3672959999999961
21
-46.0648379999999946
0
LINE
8
BLACK
6
CONTINUOUS
10
46.3672959999999961
20
-46.0648379999999946
11
46.7482479999999967
21
-46.0648379999999946
0
LINE
8
BLACK
6
CONTINUOUS
10
46.7482479999999967
20
-46.0648379999999946
11
46.938724999999998
21
-45.9695999999999998
0
LINE
8
BLACK
6
CONTINUOUS
10
46.938724999999998
20
-45.9695999999999998
11
47.033963
21
-45.7791229999999985
0
LINE
8
BLACK
6
CONTINUOUS
10
47.033963
20
-45.7791229999999985
11
47.033963
21
-45.6838849999999965
0
LINE
8
BLACK
6
CONTINUOUS
10
47.033963
20
-45.6838849999999965
11
46.938724999999998
21
-45.4934089999999998
0
LINE
8
BLACK
6
CONTINUOUS
10
46.938724999999998
20
-45.4934089999999998
11
46.7482479999999967
21
-45.3981709999999978
0
LINE
8
BLACK
6
CONTINUOUS
10
46.7482479999999967
20
-45.3981709999999978
11
46.462533999999998
21
-45.3981709999999978
0
LINE
8
BLACK
6
CONTINUOUS
10
46.462533999999998
20
-45.3981709999999978
11
46.2720580000000012
21
-45.3029329999999959
0
LINE
8
BLACK
6
CONTINUOUS
10
46.2720580000000012
20
-45.3029329999999959
11
46.1768199999999993
21
-45.1124569999999991
0
LINE
8
BLACK
6
CONTINUOUS
10
46.1768199999999993
20
-45.1124569999999991
11
46.1768199999999993
21
-45.0172189999999972
0
LINE
8
BLACK
6
CONTINUOUS
10
46.1768199999999993
20
-45.0172189999999972
11
46.2720580000000012
21
-44.8267419999999959
0
LINE
8
BLACK
6
CONTINUOUS
10
46.2720580000000012
20
-44.8267419999999959
11
46.462533999999998
21
-44.731504000000001
0
LINE
8
BLACK
6
CONTINUOUS
10
46.462533999999998
20
-44.731504000000001
11
46.7482479999999967
21
-44.731504000000001
0
LINE
8
BLACK
6
CONTINUOUS
10
46.7482479999999967
20
-44.731504000000001
11
46.938724999999998
21
-44.8267419999999959
0
LINE
8
BLACK
6
CONTINUOUS
10
47.7006299999999968
20
-46.8267419999999959
11
47.7958679999999987
21
-46.731504000000001
0
LINE
8
BLACK
6
CONTINUOUS
10
47.7958679999999987
20
-46.731504000000001
11
47.9863439999999954
21
-46.4457899999999952
0
LINE
8
BLACK
6
CONTINUOUS
10
47.9863439999999954
20
-46.4457899999999952
11
48.0815819999999974
21
-46.2553139999999985
0
LINE
8
BLACK
6
CONTINUOUS
10
48.0815819999999974
20
-46.2553139999999985
11
48.1768199999999993
21
-45.9695999999999998
0
LINE
8
BLACK
6
CONTINUOUS
10
48.1768199999999993
20
-45.9695999999999998
11
48.2720580000000012
21
-45.4934089999999998
0
LINE
8
BLACK
6
CONTINUOUS
10
48.2720580000000012
20
-45.4934089999999998
11
48.2720580000000012
21
-45.1124569999999991
0
LINE
8
BLACK
6
CONTINUOUS
10
48.2720580000000012
20
-45.1124569999999991
11
48.1768199999999993
21
-44.6362659999999991
0
LINE
8
BLACK
6
CONTINUOUS
10
48.1768199999999993
20
-44.6362659999999991
11
48.0815819999999974
21
-44.3505520000000004
0
LINE
8
BLACK
6
CONTINUOUS
10
48.0815819999999974
20
-44.3505520000000004
11
47.9863439999999954
21
-44.1600759999999966
0
LINE
8
BLACK
6
CONTINUOUS
10
47.9863439999999954
20
-44.1600759999999966
11
47.7958679999999987
21
-43.8743610000000004
0
LINE
8
BLACK
6
CONTINUOUS
10
47.7958679999999987
20
-43.8743610000000004
11
47.7006299999999968
21
-43.7791229999999985
0
LINE
8
BLACK
6
CONTINUOUS
10
51.3196779999999961
20
-46.8267419999999959
11
51.2244389999999967
21
-46.731504000000001
0
LINE
8
BLACK
6
CONTINUOUS
10
51.2244389999999967
20
-46.731504000000001
11
51.033963
21
-46.4457899999999952
0
LINE
8
BLACK
6
CONTINUOUS
10
51.033963
20
-46.4457899999999952
11
50.938724999999998
21
-46.2553139999999985
0
LINE
8
BLACK
6
CONTINUOUS
10
50.938724999999998
20
-46.2553139999999985
11
50.8434869999999961
21
-45.9695999999999998
0
LINE
8
BLACK
6
CONTINUOUS
10
50.8434869999999961
20
-45.9695999999999998
11
50.7482489999999942
21
-45.4934089999999998
0
LINE
8
BLACK
6
CONTINUOUS
10
50.7482489999999942
20
-45.4934089999999998
11
50.7482489999999942
21
-45.1124569999999991
0
LINE
8
BLACK
6
CONTINUOUS
10
50.7482489999999942
20
-45.1124569999999991
11
50.8434869999999961
21
-44.6362659999999991
0
LINE
8
BLACK
6
CONTINUOUS
10
50.8434869999999961
20
-44.6362659999999991
11
50.938724999999998
21
-44.3505520000000004
0
LINE
8
BLACK
6
CONTINUOUS
10
50.938724999999998
20
-44.3505520000000004
11
51.033963
21
-44.1600759999999966
0
LINE
8
BLACK
6
CONTINUOUS
10
51.033963
20
-44.1600759999999966
11
51.2244389999999967
21
-43.8743610000000004
0
LINE
8
BLACK
6
CONTINUOUS
10
51.2244389999999967
20
-43.8743610000000004
11
51.3196779999999961
21
-43.7791229999999985
0
LINE
8
BLACK
6
CONTINUOUS
10
52.0815819999999974
20
-44.731504000000001
11
52.0815819999999974
21
-46.0648379999999946
0
LINE
8
BLACK
6
CONTINUOUS
10
52.0815819999999974
20
-44.9219799999999978
11
52.1768199999999993
21
-44.8267419999999959
0
LINE
8
BLACK
6
CONTINUOUS
10
52.1768199999999993
20
-44.8267419999999959
11
52.3672959999999961
21
-44.731504000000001
0
LINE
8
BLACK
6
CONTINUOUS
10
52.3672959999999961
20
-44.731504000000001
11
52.6530109999999993
21
-44.731504000000001
0
LINE
8
BLACK
6
CONTINUOUS
10
52.6530109999999993
20
-44.731504000000001
11
52.8434869999999961
21
-44.8267419999999959
0
LINE
8
BLACK
6
CONTINUOUS
10
52.8434869999999961
20
-44.8267419999999959
11
52.938724999999998
21
-45.0172189999999972
0
LINE
8
BLACK
6
CONTINUOUS
10
52.938724999999998
20
-45.0172189999999972
11
52.938724999999998
21
-46.0648379999999946
0
LINE
8
BLACK
6
CONTINUOUS
10
54.1768199999999993
20
-46.0648379999999946
11
53.9863439999999954
21
-45.9695999999999998
0
LINE
8
BLACK
6
CONTINUOUS
10
53.9863439999999954
20
-45.9695999999999998
11
53.8911060000000006
21
-45.8743610000000004
0
LINE
8
BLACK
6
CONTINUOUS
10
53.8911060000000006
20
-45.8743610000000004
11
53.7958679999999987
21
-45.6838849999999965
0
LINE
8
BLACK
6
CONTINUOUS
10
53.7958679999999987
20
-45.6838849999999965
11
53.7958679999999987
21
-45.1124569999999991
0
LINE
8
BLACK
6
CONTINUOUS
10
53.7958679999999987
20
-45.1124569999999991
11
53.8911060000000006
21
-44.9219799999999978
0
LINE
8
BLACK
6
CONTINUOUS
10
53.8911060000000006
20
-44.9219799999999978
11
53.9863439999999954
21
-44.8267419999999959
0
LINE
8
BLACK
6
CONTINUOUS
10
53.9863439999999954
20
-44.8267419999999959
11
54.1768199999999993
21
-44.731504000000001
0
LINE
8
BLACK
6
CONTINUOUS
10
54.1768199999999993
20
-44.731504000000001
11
54.4625349999999955
21
-44.731504000000001
0
LINE
8
BLACK
6
CONTINUOUS
10
54.4625349999999955
20
-44.731504000000001
11
54.6530109999999993
21
-44.8267419999999959
0
LINE
8
BLACK
6
CONTINUOUS
10
54.6530109999999993
20
-44.8267419999999959
11
54.7482489999999942
21
-44.9219799999999978
0
LINE
8
BLACK
6
CONTINUOUS
10
54.7482489999999942
20
-44.9219799999999978
11
54.8434869999999961
21
-45.1124569999999991
0
LINE
8
BLACK
6
CONTINUOUS
10
54.8434869999999961
20
-45.1124569999999991
11
54.8434869999999961
21
-45.6838849999999965
0
LINE
8
BLACK
6
CONTINUOUS
10
54.8434869999999961
20
-45.6838849999999965
11
54.7482489999999942
21
-45.8743610000000004
0
LINE
8
BLACK
6
CONTINUOUS
10
54.7482489999999942
20
-45.8743610000000004
11
54.6530109999999993
21
-45.9695999999999998
0
LINE
8
BLACK
6
CONTINUOUS
10
54.6530109999999993
20
-45.9695999999999998
11
54.4625349999999955
21
-46.0648379999999946
0
LINE
8
BLACK
6
CONTINUOUS
10
54.4625349999999955
20
-46.0648379999999946
11
54.1768199999999993
21
-46.0648379999999946
0
LINE
8
BLACK
6
CONTINUOUS
10
55.4149159999999981
20
-44.731504000000001
11
56.1768199999999993
21
-44.731504000000001
0
LINE
8
BLACK
6
CONTINUOUS
10
55.7006299999999968
20
-44.0648379999999946
11
55.7006299999999968
21
-45.7791229999999985
0
LINE
8
BLACK
6
CONTINUOUS
10
55.7006299999999968
20
-45.7791229999999985
11
55.7958679999999987
21
-45.9695999999999998
0
LINE
8
BLACK
6
CONTINUOUS
10
55.7958679999999987
20
-45.9695999999999998
11
55.9863439999999954
21
-46.0648379999999946
0
LINE
8
BLACK
6
CONTINUOUS
10
55.9863439999999954
20
-46.0648379999999946
11
56.1768199999999993
21
-46.0648379999999946
0
LINE
8
BLACK
6
CONTINUOUS
10
58.3672970000000007
20
-44.731504000000001
11
58.3672970000000007
21
-46.731504000000001
0
LINE
8
BLACK
6
CONTINUOUS
10
58.3672970000000007
20
-44.8267419999999959
11
58.5577729999999974
21
-44.731504000000001
0
LINE
8
BLACK
6
CONTINUOUS
10
58.5577729999999974
20
-44.731504000000001
11
58.9387259999999955
21
-44.731504000000001
0
LINE
8
BLACK
6
CONTINUOUS
10
58.9387259999999955
20
-44.731504000000001
11
59.1292019999999994
21
-44.8267419999999959
0
LINE
8
BLACK
6
CONTINUOUS
10
59.1292019999999994
20
-44.8267419999999959
11
59.2244399999999942
21
-44.9219799999999978
0
LINE
8
BLACK
6
CONTINUOUS
10
59.2244399999999942
20
-44.9219799999999978
11
59.3196779999999961
21
-45.1124569999999991
0
LINE
8
BLACK
6
CONTINUOUS
10
59.3196779999999961
20
-45.1124569999999991
11
59.3196779999999961
21
-45.6838849999999965
0
LINE
8
BLACK
6
CONTINUOUS
10
59.3196779999999961
20
-45.6838849999999965
11
59.2244399999999942
21
-45.8743610000000004
0
LINE
8
BLACK
6
CONTINUOUS
10
59.2244399999999942
20
-45.8743610000000004
11
59.1292019999999994
21
-45.9695999999999998
0
LINE
8
BLACK
6
CONTINUOUS
10
59.1292019999999994
20
-45.9695999999999998
11
58.9387259999999955
21
-46.0648379999999946
0
LINE
8
BLACK
6
CONTINUOUS
10
58.9387259999999955
20
-46.0648379999999946
11
58.5577729999999974
21
-46.0648379999999946
0
LINE
8
BLACK
6
CONTINUOUS
10
58.5577729999999974
20
-46.0648379999999946
11
58.3672970000000007
21
-45.9695999999999998
0
LINE
8
BLACK
6
CONTINUOUS
10
60.4625349999999955
20
-46.0648379999999946
11
60.2720589999999987
21
-45.9695999999999998
0
LINE
8
BLACK
6
CONTINUOUS
10
60.2720589999999987
20
-45.9695999999999998
11
60.1768209999999968
21
-45.7791229999999985
0
LINE
8
BLACK
6
CONTINUOUS
10
60.1768209999999968
20
-45.7791229999999985
11
60.1768209999999968
21
-44.0648379999999946
0
LINE
8
BLACK
6
CONTINUOUS
10
62.0815829999999949
20
-46.0648379999999946
11
62.0815829999999949
21
-45.0172189999999972
0
LINE
8
BLACK
6
CONTINUOUS
10
62.0815829999999949
20
-45.0172189999999972
11
61.986345
21
-44.8267419999999959
0
LINE
8
BLACK
6
CONTINUOUS
10
61.986345
20
-44.8267419999999959
11
61.7958689999999962
21
-44.731504000000001
0
LINE
8
BLACK
6
CONTINUOUS
10
61.7958689999999962
20
-44.731504000000001
11
61.4149159999999981
21
-44.731504000000001
0
LINE
8
BLACK
6
CONTINUOUS
10
61.4149159999999981
20
-44.731504000000001
11
61.2244399999999942
21
-44.8267419999999959
0
LINE
8
BLACK
6
CONTINUOUS
10
62.0815829999999949
20
-45.9695999999999998
11
61.8911069999999981
21
-46.0648379999999946
0
LINE
8
BLACK
6
CONTINUOUS
10
61.8911069999999981
20
-46.0648379999999946
11
61.4149159999999981
21
-46.0648379999999946
0
LINE
8
BLACK
6
CONTINUOUS
10
61.4149159999999981
20
-46.0648379999999946
11
61.2244399999999942
21
-45.9695999999999998
0
LINE
8
BLACK
6
CONTINUOUS
10
61.2244399999999942
20
-45.9695999999999998
11
61.1292019999999994
21
-45.7791229999999985
0
LINE
8
BLACK
6
CONTINUOUS
10
61.1292019999999994
20
-45.7791229999999985
11
61.1292019999999994
21
-45.5886469999999946
0
LINE
8
BLACK
6
CONTINUOUS
10
61.1292019999999994
20
-45.5886469999999946
11
61.2244399999999942
21
-45.3981709999999978
0
LINE
8
BLACK
6
CONTINUOUS
10
61.2244399999999942
20
-45.3981709999999978
11
61.4149159999999981
21
-45.3029329999999959
0
LINE
8
BLACK
6
CONTINUOUS
10
61.4149159999999981
20
-45.3029329999999959
11
61.8911069999999981
21
-45.3029329999999959
0
LINE
8
BLACK
6
CONTINUOUS
10
61.8911069999999981
20
-45.3029329999999959
11
62.0815829999999949
21
-45.2076950000000011
0
LINE
8
BLACK
6
CONTINUOUS
10
62.7482499999999987
20
-44.731504000000001
11
63.510154
21
-44.731504000000001
0
LINE
8
BLACK
6
CONTINUOUS
10
63.0339639999999974
20
-44.0648379999999946
11
63.0339639999999974
21
-45.7791229999999985
0
LINE
8
BLACK
6
CONTINUOUS
10
63.0339639999999974
20
-45.7791229999999985
11
63.1292019999999994
21
-45.9695999999999998
0
LINE
8
BLACK
6
CONTINUOUS
10
63.1292019999999994
20
-45.9695999999999998
11
63.3196779999999961
21
-46.0648379999999946
0
LINE
8
BLACK
6
CONTINUOUS
10
63.3196779999999961
20
-46.0648379999999946
11
63.510154
21
-46.0648379999999946
0
LINE
8
BLACK
6
CONTINUOUS
10
64.9387260000000026
20
-45.9695999999999998
11
64.7482499999999987
21
-46.0648379999999946
0
LINE
8
BLACK
6
CONTINUOUS
10
64.7482499999999987
20
-46.0648379999999946
11
64.3672969999999935
21
-46.0648379999999946
0
LINE
8
BLACK
6
CONTINUOUS
10
64.3672969999999935
20
-46.0648379999999946
11
64.1768210000000039
21
-45.9695999999999998
0
LINE
8
BLACK
6
CONTINUOUS
10
64.1768210000000039
20
-45.9695999999999998
11
64.0815829999999949
21
-45.7791229999999985
0
LINE
8
BLACK
6
CONTINUOUS
10
64.0815829999999949
20
-45.7791229999999985
11
64.0815829999999949
21
-45.0172189999999972
0
LINE
8
BLACK
6
CONTINUOUS
10
64.0815829999999949
20
-45.0172189999999972
11
64.1768210000000039
21
-44.8267419999999959
0
LINE
8
BLACK
6
CONTINUOUS
10
64.1768210000000039
20
-44.8267419999999959
11
64.3672969999999935
21
-44.731504000000001
0
LINE
8
BLACK
6
CONTINUOUS
10
64.3672969999999935
20
-44.731504000000001
11
64.7482499999999987
21
-44.731504000000001
0
LINE
8
BLACK
6
CONTINUOUS
10
64.7482499999999987
20
-44.731504000000001
11
64.9387260000000026
21
-44.8267419999999959
0
LINE
8
BLACK
6
CONTINUOUS
10
64.9387260000000026
20
-44.8267419999999959
11
65.0339639999999974
21
-45.0172189999999972
0
LINE
8
BLACK
6
CONTINUOUS
10
65.0339639999999974
20
-45.0172189999999972
11
65.0339639999999974
21
-45.2076950000000011
0
LINE
8
BLACK
6
CONTINUOUS
10
65.0339639999999974
20
-45.2076950000000011
11
64.0815829999999949
21
-45.3981709999999978
0
LINE
8
BLACK
6
CONTINUOUS
10
66.7482499999999987
20
-46.0648379999999946
11
66.7482499999999987
21
-44.0648379999999946
0
LINE
8
BLACK
6
CONTINUOUS
10
66.7482499999999987
20
-45.9695999999999998
11
66.5577739999999949
21
-46.0648379999999946
0
LINE
8
BLACK
6
CONTINUOUS
10
66.5577739999999949
20
-46.0648379999999946
11
66.1768210000000039
21
-46.0648379999999946
0
LINE
8
BLACK
6
CONTINUOUS
10
66.1768210000000039
20
-46.0648379999999946
11
65.986345
21
-45.9695999999999998
0
LINE
8
BLACK
6
CONTINUOUS
10
65.986345
20
-45.9695999999999998
11
65.891106999999991
21
-45.8743610000000004
0
LINE
8
BLACK
6
CONTINUOUS
10
65.891106999999991
20
-45.8743610000000004
11
65.7958689999999962
21
-45.6838849999999965
0
LINE
8
BLACK
6
CONTINUOUS
10
65.7958689999999962
20
-45.6838849999999965
11
65.7958689999999962
21
-45.1124569999999991
0
LINE
8
BLACK
6
CONTINUOUS
10
65.7958689999999962
20
-45.1124569999999991
11
65.891106999999991
21
-44.9219799999999978
0
LINE
8
BLACK
6
CONTINUOUS
10
65.891106999999991
20
-44.9219799999999978
11
65.986345
21
-44.8267419999999959
0
LINE
8
BLACK
6
CONTINUOUS
10
65.986345
20
-44.8267419999999959
11
66.1768210000000039
21
-44.731504000000001
0
LINE
8
BLACK
6
CONTINUOUS
10
66.1768210000000039
20
-44.731504000000001
11
66.5577739999999949
21
-44.731504000000001
0
LINE
8
BLACK
6
CONTINUOUS
10
66.5577739999999949
20
-44.731504000000001
11
66.7482499999999987
21
-44.8267419999999959
0
LINE
8
BLACK
6
CONTINUOUS
10
67.5101549999999975
20
-46.8267419999999959
11
67.6053929999999923
21
-46.731504000000001
0
LINE
8
BLACK
6
CONTINUOUS
10
67.6053929999999923
20
-46.731504000000001
11
67.7958689999999962
21
-46.4457899999999952
0
LINE
8
BLACK
6
CONTINUOUS
10
67.7958689999999962
20
-46.4457899999999952
11
67.891106999999991
21
-46.2553139999999985
0
LINE
8
BLACK
6
CONTINUOUS
10
67.891106999999991
20
-46.2553139999999985
11
67.986345
21
-45.9695999999999998
0
LINE
8
BLACK
6
CONTINUOUS
10
67.986345
20
-45.9695999999999998
11
68.0815829999999949
21
-45.4934089999999998
0
LINE
8
BLACK
6
CONTINUOUS
10
68.0815829999999949
20
-45.4934089999999998
11
68.0815829999999949
21
-45.1124569999999991
0
LINE
8
BLACK
6
CONTINUOUS
10
68.0815829999999949
20
-45.1124569999999991
11
67.986345
21
-44.6362659999999991
0
LINE
8
BLACK
6
CONTINUOUS
10
67.986345
20
-44.6362659999999991
11
67.891106999999991
21
-44.3505520000000004
0
LINE
8
BLACK
6
CONTINUOUS
10
67.891106999999991
20
-44.3505520000000004
11
67.7958689999999962
21
-44.1600759999999966
0
LINE
8
BLACK
6
CONTINUOUS
10
67.7958689999999962
20
-44.1600759999999966
11
67.6053929999999923
21
-43.8743610000000004
0
LINE
8
BLACK
6
CONTINUOUS
10
67.6053929999999923
20
-43.8743610000000004
11
67.5101549999999975
21
-43.7791229999999985
0
CIRCLE
8
BLACK
10
-1.05
20
-47.7899999999999991
40
1.
0
LINE
8
BLACK
6
CONTINUOUS
10
2.4625300000000001
20
-46.8953139999999991
11
2.5577679999999998
21
-46.8000759999999971
0
LINE
8
BLACK
6
CONTINUOUS
10
2.5577679999999998
20
-46.8000759999999971
11
2.7482439999999997
21
-46.7048379999999952
0
LINE
8
BLACK
6
CONTINUOUS
10
2.7482439999999997
20
-46.7048379999999952
11
3.2244349999999997
21
-46.7048379999999952
0
LINE
8
BLACK
6
CONTINUOUS
10
3.2244349999999997
20
-46.7048379999999952
11
3.414911
21
-46.8000759999999971
0
LINE
8
BLACK
6
CONTINUOUS
10
3.414911
20
-46.8000759999999971
11
3.5101489999999997
21
-46.8953139999999991
0
LINE
8
BLACK
6
CONTINUOUS
10
3.5101489999999997
20
-46.8953139999999991
11
3.6053869999999999
21
-47.0857899999999958
0
LINE
8
BLACK
6
CONTINUOUS
10
3.6053869999999999
20
-47.0857899999999958
11
3.6053869999999999
21
-47.2762659999999997
0
LINE
8
BLACK
6
CONTINUOUS
10
3.6053869999999999
20
-47.2762659999999997
11
3.5101489999999997
21
-47.5619799999999984
0
LINE
8
BLACK
6
CONTINUOUS
10
3.5101489999999997
20
-47.5619799999999984
11
2.367292
21
-48.7048379999999952
0
LINE
8
BLACK
6
CONTINUOUS
10
2.367292
20
-48.7048379999999952
11
3.6053869999999999
21
-48.7048379999999952
0
LINE
8
BLACK
6
CONTINUOUS
10
4.4625300000000001
20
-48.514361000000001
11
4.5577679999999994
21
-48.6096000000000004
0
LINE
8
BLACK
6
CONTINUOUS
10
4.5577679999999994
20
-48.6096000000000004
11
4.4625300000000001
21
-48.7048379999999952
0
LINE
8
BLACK
6
CONTINUOUS
10
4.4625300000000001
20
-48.7048379999999952
11
4.367292
21
-48.6096000000000004
0
LINE
8
BLACK
6
CONTINUOUS
10
4.367292
20
-48.6096000000000004
11
4.4625300000000001
21
-48.514361000000001
0
LINE
8
BLACK
6
CONTINUOUS
10
4.4625300000000001
20
-48.514361000000001
11
4.4625300000000001
21
-48.7048379999999952
0
LINE
8
BLACK
6
CONTINUOUS
10
5.7958629999999998
20
-46.7048379999999952
11
5.9863399999999993
21
-46.7048379999999952
0
LINE
8
BLACK
6
CONTINUOUS
10
5.9863399999999993
20
-46.7048379999999952
11
6.1768159999999996
21
-46.8000759999999971
0
LINE
8
BLACK
6
CONTINUOUS
10
6.1768159999999996
20
-46.8000759999999971
11
6.2720539999999998
21
-46.8953139999999991
0
LINE
8
BLACK
6
CONTINUOUS
10
6.2720539999999998
20
-46.8953139999999991
11
6.367292
21
-47.0857899999999958
0
LINE
8
BLACK
6
CONTINUOUS
10
6.367292
20
-47.0857899999999958
11
6.4625300000000001
21
-47.4667419999999964
0
LINE
8
BLACK
6
CONTINUOUS
10
6.4625300000000001
20
-47.4667419999999964
11
6.4625300000000001
21
-47.9429329999999965
0
LINE
8
BLACK
6
CONTINUOUS
10
6.4625300000000001
20
-47.9429329999999965
11
6.367292
21
-48.3238849999999971
0
LINE
8
BLACK
6
CONTINUOUS
10
6.367292
20
-48.3238849999999971
11
6.2720539999999998
21
-48.514361000000001
0
LINE
8
BLACK
6
CONTINUOUS
10
6.2720539999999998
20
-48.514361000000001
11
6.1768159999999996
21
-48.6096000000000004
0
LINE
8
BLACK
6
CONTINUOUS
10
6.1768159999999996
20
-48.6096000000000004
11
5.9863399999999993
21
-48.7048379999999952
0
LINE
8
BLACK
6
CONTINUOUS
10
5.9863399999999993
20
-48.7048379999999952
11
5.7958629999999998
21
-48.7048379999999952
0
LINE
8
BLACK
6
CONTINUOUS
10
5.7958629999999998
20
-48.7048379999999952
11
5.6053869999999995
21
-48.6096000000000004
0
LINE
8
BLACK
6
CONTINUOUS
10
5.6053869999999995
20
-48.6096000000000004
11
5.5101490000000002
21
-48.514361000000001
0
LINE
8
BLACK
6
CONTINUOUS
10
5.5101490000000002
20
-48.514361000000001
11
5.414911
21
-48.3238849999999971
0
LINE
8
BLACK
6
CONTINUOUS
10
5.414911
20
-48.3238849999999971
11
5.3196729999999999
21
-47.9429329999999965
0
LINE
8
BLACK
6
CONTINUOUS
10
5.3196729999999999
20
-47.9429329999999965
11
5.3196729999999999
21
-47.4667419999999964
0
LINE
8
BLACK
6
CONTINUOUS
10
5.3196729999999999
20
-47.4667419999999964
11
5.414911
21
-47.0857899999999958
0
LINE
8
BLACK
6
CONTINUOUS
10
5.414911
20
-47.0857899999999958
11
5.5101490000000002
21
-46.8953139999999991
0
LINE
8
BLACK
6
CONTINUOUS
10
5.5101490000000002
20
-46.8953139999999991
11
5.6053869999999995
21
-46.8000759999999971
0
LINE
8
BLACK
6
CONTINUOUS
10
5.6053869999999995
20
-46.8000759999999971
11
5.7958629999999998
21
-46.7048379999999952
0
LINE
8
BLACK
6
CONTINUOUS
10
7.7006249999999996
20
-46.7048379999999952
11
7.8911020000000001
21
-46.7048379999999952
0
LINE
8
BLACK
6
CONTINUOUS
10
7.8911020000000001
20
-46.7048379999999952
11
8.0815780000000004
21
-46.8000759999999971
0
LINE
8
BLACK
6
CONTINUOUS
10
8.0815780000000004
20
-46.8000759999999971
11
8.1768159999999988
21
-46.8953139999999991
0
LINE
8
BLACK
6
CONTINUOUS
10
8.1768159999999988
20
-46.8953139999999991
11
8.2720539999999989
21
-47.0857899999999958
0
LINE
8
BLACK
6
CONTINUOUS
10
8.2720539999999989
20
-47.0857899999999958
11
8.3672919999999991
21
-47.4667419999999964
0
LINE
8
BLACK
6
CONTINUOUS
10
8.3672919999999991
20
-47.4667419999999964
11
8.3672919999999991
21
-47.9429329999999965
0
LINE
8
BLACK
6
CONTINUOUS
10
8.3672919999999991
20
-47.9429329999999965
11
8.2720539999999989
21
-48.3238849999999971
0
LINE
8
BLACK
6
CONTINUOUS
10
8.2720539999999989
20
-48.3238849999999971
11
8.1768159999999988
21
-48.514361000000001
0
LINE
8
BLACK
6
CONTINUOUS
10
8.1768159999999988
20
-48.514361000000001
11
8.0815780000000004
21
-48.6096000000000004
0
LINE
8
BLACK
6
CONTINUOUS
10
8.0815780000000004
20
-48.6096000000000004
11
7.8911020000000001
21
-48.7048379999999952
0
LINE
8
BLACK
6
CONTINUOUS
10
7.8911020000000001
20
-48.7048379999999952
11
7.7006249999999996
21
-48.7048379999999952
0
LINE
8
BLACK
6
CONTINUOUS
10
7.7006249999999996
20
-48.7048379999999952
11
7.5101489999999993
21
-48.6096000000000004
0
LINE
8
BLACK
6
CONTINUOUS
10
7.5101489999999993
20
-48.6096000000000004
11
7.414911
21
-48.514361000000001
0
LINE
8
BLACK
6
CONTINUOUS
10
7.414911
20
-48.514361000000001
11
7.3196729999999999
21
-48.3238849999999971
0
LINE
8
BLACK
6
CONTINUOUS
10
7.3196729999999999
20
-48.3238849999999971
11
7.2244349999999997
21
-47.9429329999999965
0
LINE
8
BLACK
6
CONTINUOUS
10
7.2244349999999997
20
-47.9429329999999965
11
7.2244349999999997
21
-47.4667419999999964
0
LINE
8
BLACK
6
CONTINUOUS
10
7.2244349999999997
20
-47.4667419999999964
11
7.3196729999999999
21
-47.0857899999999958
0
LINE
8
BLACK
6
CONTINUOUS
10
7.3196729999999999
20
-47.0857899999999958
11
7.414911
21
-46.8953139999999991
0
LINE
8
BLACK
6
CONTINUOUS
10
7.414911
20
-46.8953139999999991
11
7.5101489999999993
21
-46.8000759999999971
0
LINE
8
BLACK
6
CONTINUOUS
10
7.5101489999999993
20
-46.8000759999999971
11
7.7006249999999996
21
-46.7048379999999952
0
LINE
8
BLACK
6
CONTINUOUS
10
9.6053870000000003
20
-46.7048379999999952
11
9.7958639999999999
21
-46.7048379999999952
0
LINE
8
BLACK
6
CONTINUOUS
10
9.7958639999999999
20
-46.7048379999999952
11
9.9863400000000002
21
-46.8000759999999971
0
LINE
8
BLACK
6
CONTINUOUS
10
9.9863400000000002
20
-46.8000759999999971
11
10.0815780000000004
21
-46.8953139999999991
0
LINE
8
BLACK
6
CONTINUOUS
10
10.0815780000000004
20
-46.8953139999999991
11
10.1768159999999988
21
-47.0857899999999958
0
LINE
8
BLACK
6
CONTINUOUS
10
10.1768159999999988
20
-47.0857899999999958
11
10.2720539999999989
21
-47.4667419999999964
0
LINE
8
BLACK
6
CONTINUOUS
10
10.2720539999999989
20
-47.4667419999999964
11
10.2720539999999989
21
-47.9429329999999965
0
LINE
8
BLACK
6
CONTINUOUS
10
10.2720539999999989
20
-47.9429329999999965
11
10.1768159999999988
21
-48.3238849999999971
0
LINE
8
BLACK
6
CONTINUOUS
10
10.1768159999999988
20
-48.3238849999999971
11
10.0815780000000004
21
-48.514361000000001
0
LINE
8
BLACK
6
CONTINUOUS
10
10.0815780000000004
20
-48.514361000000001
11
9.9863400000000002
21
-48.6096000000000004
0
LINE
8
BLACK
6
CONTINUOUS
10
9.9863400000000002
20
-48.6096000000000004
11
9.7958639999999999
21
-48.7048379999999952
0
LINE
8
BLACK
6
CONTINUOUS
10
9.7958639999999999
20
-48.7048379999999952
11
9.6053870000000003
21
-48.7048379999999952
0
LINE
8
BLACK
6
CONTINUOUS
10
9.6053870000000003
20
-48.7048379999999952
11
9.414911
21
-48.6096000000000004
0
LINE
8
BLACK
6
CONTINUOUS
10
9.414911
20
-48.6096000000000004
11
9.3196729999999999
21
-48.514361000000001
0
LINE
8
BLACK
6
CONTINUOUS
10
9.3196729999999999
20
-48.514361000000001
11
9.2244349999999997
21
-48.3238849999999971
0
LINE
8
BLACK
6
CONTINUOUS
10
9.2244349999999997
20
-48.3238849999999971
11
9.1291969999999996
21
-47.9429329999999965
0
LINE
8
BLACK
6
CONTINUOUS
10
9.1291969999999996
20
-47.9429329999999965
11
9.1291969999999996
21
-47.4667419999999964
0
LINE
8
BLACK
6
CONTINUOUS
10
9.1291969999999996
20
-47.4667419999999964
11
9.2244349999999997
21
-47.0857899999999958
0
LINE
8
BLACK
6
CONTINUOUS
10
9.2244349999999997
20
-47.0857899999999958
11
9.3196729999999999
21
-46.8953139999999991
0
LINE
8
BLACK
6
CONTINUOUS
10
9.3196729999999999
20
-46.8953139999999991
11
9.414911
21
-46.8000759999999971
0
LINE
8
BLACK
6
CONTINUOUS
10
9.414911
20
-46.8000759999999971
11
9.6053870000000003
21
-46.7048379999999952
0
LINE
8
BLACK
6
CONTINUOUS
10
11.1291969999999996
20
-48.7048379999999952
11
11.1291969999999996
21
-47.3715039999999945
0
LINE
8
BLACK
6
CONTINUOUS
10
11.1291969999999996
20
-47.5619799999999984
11
11.2244349999999997
21
-47.4667419999999964
0
LINE
8
BLACK
6
CONTINUOUS
10
11.2244349999999997
20
-47.4667419999999964
11
11.414911
21
-47.3715039999999945
0
LINE
8
BLACK
6
CONTINUOUS
10
11.414911
20
-47.3715039999999945
11
11.7006259999999997
21
-47.3715039999999945
0
LINE
8
BLACK
6
CONTINUOUS
10
11.7006259999999997
20
-47.3715039999999945
11
11.8911020000000001
21
-47.4667419999999964
0
LINE
8
BLACK
6
CONTINUOUS
10
11.8911020000000001
20
-47.4667419999999964
11
11.9863400000000002
21
-47.6572189999999978
0
LINE
8
BLACK
6
CONTINUOUS
10
11.9863400000000002
20
-47.6572189999999978
11
11.9863400000000002
21
-48.7048379999999952
0
LINE
8
BLACK
6
CONTINUOUS
10
11.9863400000000002
20
-47.6572189999999978
11
12.0815779999999986
21
-47.4667419999999964
0
LINE
8
BLACK
6
CONTINUOUS
10
12.0815779999999986
20
-47.4667419999999964
11
12.2720539999999989
21
-47.3715039999999945
0
LINE
8
BLACK
6
CONTINUOUS
10
12.2720539999999989
20
-47.3715039999999945
11
12.5577679999999994
21
-47.3715039999999945
0
LINE
8
BLACK
6
CONTINUOUS
10
12.5577679999999994
20
-47.3715039999999945
11
12.7482449999999989
21
-47.4667419999999964
0
LINE
8
BLACK
6
CONTINUOUS
10
12.7482449999999989
20
-47.4667419999999964
11
12.8434829999999991
21
-47.6572189999999978
0
LINE
8
BLACK
6
CONTINUOUS
10
12.8434829999999991
20
-47.6572189999999978
11
12.8434829999999991
21
-48.7048379999999952
0
LINE
8
BLACK
6
CONTINUOUS
10
13.7958639999999999
20
-48.7048379999999952
11
13.7958639999999999
21
-47.3715039999999945
0
LINE
8
BLACK
6
CONTINUOUS
10
13.7958639999999999
20
-47.5619799999999984
11
13.8911020000000001
21
-47.4667419999999964
0
LINE
8
BLACK
6
CONTINUOUS
10
13.8911020000000001
20
-47.4667419999999964
11
14.0815779999999986
21
-47.3715039999999945
0
LINE
8
BLACK
6
CONTINUOUS
10
14.0815779999999986
20
-47.3715039999999945
11
14.3672930000000001
21
-47.3715039999999945
0
LINE
8
BLACK
6
CONTINUOUS
10
14.3672930000000001
20
-47.3715039999999945
11
14.5577689999999986
21
-47.4667419999999964
0
LINE
8
BLACK
6
CONTINUOUS
10
14.5577689999999986
20
-47.4667419999999964
11
14.6530069999999988
21
-47.6572189999999978
0
LINE
8
BLACK
6
CONTINUOUS
10
14.6530069999999988
20
-47.6572189999999978
11
14.6530069999999988
21
-48.7048379999999952
0
LINE
8
BLACK
6
CONTINUOUS
10
14.6530069999999988
20
-47.6572189999999978
11
14.7482449999999989
21
-47.4667419999999964
0
LINE
8
BLACK
6
CONTINUOUS
10
14.7482449999999989
20
-47.4667419999999964
11
14.9387209999999993
21
-47.3715039999999945
0
LINE
8
BLACK
6
CONTINUOUS
10
14.9387209999999993
20
-47.3715039999999945
11
15.2244349999999997
21
-47.3715039999999945
0
LINE
8
BLACK
6
CONTINUOUS
10
15.2244349999999997
20
-47.3715039999999945
11
15.4149119999999993
21
-47.4667419999999964
0
LINE
8
BLACK
6
CONTINUOUS
10
15.4149119999999993
20
-47.4667419999999964
11
15.5101499999999994
21
-47.6572189999999978
0
LINE
8
BLACK
6
CONTINUOUS
10
15.5101499999999994
20
-47.6572189999999978
11
15.5101499999999994
21
-48.7048379999999952
0
LINE
8
BLACK
6
CONTINUOUS
10
19.4149119999999975
20
-46.6096000000000004
11
17.7006270000000008
21
-49.1810279999999977
0
LINE
8
BLACK
6
CONTINUOUS
10
21.9863409999999995
20
-46.7048379999999952
11
22.1768179999999973
21
-46.7048379999999952
0
LINE
8
BLACK
6
CONTINUOUS
10
22.1768179999999973
20
-46.7048379999999952
11
22.3672939999999976
21
-46.8000759999999971
0
LINE
8
BLACK
6
CONTINUOUS
10
22.3672939999999976
20
-46.8000759999999971
11
22.4625319999999995
21
-46.8953139999999991
0
LINE
8
BLACK
6
CONTINUOUS
10
22.4625319999999995
20
-46.8953139999999991
11
22.5577699999999979
21
-47.0857899999999958
0
LINE
8
BLACK
6
CONTINUOUS
10
22.5577699999999979
20
-47.0857899999999958
11
22.6530079999999998
21
-47.4667419999999964
0
LINE
8
BLACK
6
CONTINUOUS
10
22.6530079999999998
20
-47.4667419999999964
11
22.6530079999999998
21
-47.9429329999999965
0
LINE
8
BLACK
6
CONTINUOUS
10
22.6530079999999998
20
-47.9429329999999965
11
22.5577699999999979
21
-48.3238849999999971
0
LINE
8
BLACK
6
CONTINUOUS
10
22.5577699999999979
20
-48.3238849999999971
11
22.4625319999999995
21
-48.514361000000001
0
LINE
8
BLACK
6
CONTINUOUS
10
22.4625319999999995
20
-48.514361000000001
11
22.3672939999999976
21
-48.6096000000000004
0
LINE
8
BLACK
6
CONTINUOUS
10
22.3672939999999976
20
-48.6096000000000004
11
22.1768179999999973
21
-48.7048379999999952
0
LINE
8
BLACK
6
CONTINUOUS
10
22.1768179999999973
20
-48.7048379999999952
11
21.9863409999999995
21
-48.7048379999999952
0
LINE
8
BLACK
6
CONTINUOUS
10
21.9863409999999995
20
-48.7048379999999952
11
21.7958649999999992
21
-48.6096000000000004
0
LINE
8
BLACK
6
CONTINUOUS
10
21.7958649999999992
20
-48.6096000000000004
11
21.7006270000000008
21
-48.514361000000001
0
LINE
8
BLACK
6
CONTINUOUS
10
21.7006270000000008
20
-48.514361000000001
11
21.6053889999999988
21
-48.3238849999999971
0
LINE
8
BLACK
6
CONTINUOUS
10
21.6053889999999988
20
-48.3238849999999971
11
21.5101510000000005
21
-47.9429329999999965
0
LINE
8
BLACK
6
CONTINUOUS
10
21.5101510000000005
20
-47.9429329999999965
11
21.5101510000000005
21
-47.4667419999999964
0
LINE
8
BLACK
6
CONTINUOUS
10
21.5101510000000005
20
-47.4667419999999964
11
21.6053889999999988
21
-47.0857899999999958
0
LINE
8
BLACK
6
CONTINUOUS
10
21.6053889999999988
20
-47.0857899999999958
11
21.7006270000000008
21
-46.8953139999999991
0
LINE
8
BLACK
6
CONTINUOUS
10
21.7006270000000008
20
-46.8953139999999991
11
21.7958649999999992
21
-46.8000759999999971
0
LINE
8
BLACK
6
CONTINUOUS
10
21.7958649999999992
20
-46.8000759999999971
11
21.9863409999999995
21
-46.7048379999999952
0
LINE
8
BLACK
6
CONTINUOUS
10
23.5101510000000005
20
-48.514361000000001
11
23.6053889999999988
21
-48.6096000000000004
0
LINE
8
BLACK
6
CONTINUOUS
10
23.6053889999999988
20
-48.6096000000000004
11
23.5101510000000005
21
-48.7048379999999952
0
LINE
8
BLACK
6
CONTINUOUS
10
23.5101510000000005
20
-48.7048379999999952
11
23.4149129999999985
21
-48.6096000000000004
0
LINE
8
BLACK
6
CONTINUOUS
10
23.4149129999999985
20
-48.6096000000000004
11
23.5101510000000005
21
-48.514361000000001
0
LINE
8
BLACK
6
CONTINUOUS
10
23.5101510000000005
20
-48.514361000000001
11
23.5101510000000005
21
-48.7048379999999952
0
LINE
8
BLACK
6
CONTINUOUS
10
24.8434840000000001
20
-46.7048379999999952
11
25.0339609999999979
21
-46.7048379999999952
0
LINE
8
BLACK
6
CONTINUOUS
10
25.0339609999999979
20
-46.7048379999999952
11
25.2244369999999982
21
-46.8000759999999971
0
LINE
8
BLACK
6
CONTINUOUS
10
25.2244369999999982
20
-46.8000759999999971
11
25.3196750000000002
21
-46.8953139999999991
0
LINE
8
BLACK
6
CONTINUOUS
10
25.3196750000000002
20
-46.8953139999999991
11
25.4149129999999985
21
-47.0857899999999958
0
LINE
8
BLACK
6
CONTINUOUS
10
25.4149129999999985
20
-47.0857899999999958
11
25.5101510000000005
21
-47.4667419999999964
0
LINE
8
BLACK
6
CONTINUOUS
10
25.5101510000000005
20
-47.4667419999999964
11
25.5101510000000005
21
-47.9429329999999965
0
LINE
8
BLACK
6
CONTINUOUS
10
25.5101510000000005
20
-47.9429329999999965
11
25.4149129999999985
21
-48.3238849999999971
0
LINE
8
BLACK
6
CONTINUOUS
10
25.4149129999999985
20
-48.3238849999999971
11
25.3196750000000002
21
-48.514361000000001
0
LINE
8
BLACK
6
CONTINUOUS
10
25.3196750000000002
20
-48.514361000000001
11
25.2244369999999982
21
-48.6096000000000004
0
LINE
8
BLACK
6
CONTINUOUS
10
25.2244369999999982
20
-48.6096000000000004
11
25.0339609999999979
21
-48.7048379999999952
0
LINE
8
BLACK
6
CONTINUOUS
10
25.0339609999999979
20
-48.7048379999999952
11
24.8434840000000001
21
-48.7048379999999952
0
LINE
8
BLACK
6
CONTINUOUS
10
24.8434840000000001
20
-48.7048379999999952
11
24.6530079999999998
21
-48.6096000000000004
0
LINE
8
BLACK
6
CONTINUOUS
10
24.6530079999999998
20
-48.6096000000000004
11
24.5577699999999979
21
-48.514361000000001
0
LINE
8
BLACK
6
CONTINUOUS
10
24.5577699999999979
20
-48.514361000000001
11
24.4625319999999995
21
-48.3238849999999971
0
LINE
8
BLACK
6
CONTINUOUS
10
24.4625319999999995
20
-48.3238849999999971
11
24.3672939999999976
21
-47.9429329999999965
0
LINE
8
BLACK
6
CONTINUOUS
10
24.3672939999999976
20
-47.9429329999999965
11
24.3672939999999976
21
-47.4667419999999964
0
LINE
8
BLACK
6
CONTINUOUS
10
24.3672939999999976
20
-47.4667419999999964
11
24.4625319999999995
21
-47.0857899999999958
0
LINE
8
BLACK
6
CONTINUOUS
10
24.4625319999999995
20
-47.0857899999999958
11
24.5577699999999979
21
-46.8953139999999991
0
LINE
8
BLACK
6
CONTINUOUS
10
24.5577699999999979
20
-46.8953139999999991
11
24.6530079999999998
21
-46.8000759999999971
0
LINE
8
BLACK
6
CONTINUOUS
10
24.6530079999999998
20
-46.8000759999999971
11
24.8434840000000001
21
-46.7048379999999952
0
LINE
8
BLACK
6
CONTINUOUS
10
26.1768179999999973
20
-46.7048379999999952
11
27.5101510000000005
21
-46.7048379999999952
0
LINE
8
BLACK
6
CONTINUOUS
10
27.5101510000000005
20
-46.7048379999999952
11
26.6530079999999998
21
-48.7048379999999952
0
LINE
8
BLACK
6
CONTINUOUS
10
28.5577699999999979
20
-47.5619799999999984
11
28.3672939999999976
21
-47.4667419999999964
0
LINE
8
BLACK
6
CONTINUOUS
10
28.3672939999999976
20
-47.4667419999999964
11
28.2720559999999992
21
-47.3715039999999945
0
LINE
8
BLACK
6
CONTINUOUS
10
28.2720559999999992
20
-47.3715039999999945
11
28.1768179999999973
21
-47.1810279999999977
0
LINE
8
BLACK
6
CONTINUOUS
10
28.1768179999999973
20
-47.1810279999999977
11
28.1768179999999973
21
-47.0857899999999958
0
LINE
8
BLACK
6
CONTINUOUS
10
28.1768179999999973
20
-47.0857899999999958
11
28.2720559999999992
21
-46.8953139999999991
0
LINE
8
BLACK
6
CONTINUOUS
10
28.2720559999999992
20
-46.8953139999999991
11
28.3672939999999976
21
-46.8000759999999971
0
LINE
8
BLACK
6
CONTINUOUS
10
28.3672939999999976
20
-46.8000759999999971
11
28.5577699999999979
21
-46.7048379999999952
0
LINE
8
BLACK
6
CONTINUOUS
10
28.5577699999999979
20
-46.7048379999999952
11
28.9387229999999995
21
-46.7048379999999952
0
LINE
8
BLACK
6
CONTINUOUS
10
28.9387229999999995
20
-46.7048379999999952
11
29.1291989999999998
21
-46.8000759999999971
0
LINE
8
BLACK
6
CONTINUOUS
10
29.1291989999999998
20
-46.8000759999999971
11
29.2244369999999982
21
-46.8953139999999991
0
LINE
8
BLACK
6
CONTINUOUS
10
29.2244369999999982
20
-46.8953139999999991
11
29.3196750000000002
21
-47.0857899999999958
0
LINE
8
BLACK
6
CONTINUOUS
10
29.3196750000000002
20
-47.0857899999999958
11
29.3196750000000002
21
-47.1810279999999977
0
LINE
8
BLACK
6
CONTINUOUS
10
29.3196750000000002
20
-47.1810279999999977
11
29.2244369999999982
21
-47.3715039999999945
0
LINE
8
BLACK
6
CONTINUOUS
10
29.2244369999999982
20
-47.3715039999999945
11
29.1291989999999998
21
-47.4667419999999964
0
LINE
8
BLACK
6
CONTINUOUS
10
29.1291989999999998
20
-47.4667419999999964
11
28.9387229999999995
21
-47.5619799999999984
0
LINE
8
BLACK
6
CONTINUOUS
10
28.9387229999999995
20
-47.5619799999999984
11
28.5577699999999979
21
-47.5619799999999984
0
LINE
8
BLACK
6
CONTINUOUS
10
28.5577699999999979
20
-47.5619799999999984
11
28.3672939999999976
21
-47.6572189999999978
0
LINE
8
BLACK
6
CONTINUOUS
10
28.3672939999999976
20
-47.6572189999999978
11
28.2720559999999992
21
-47.7524569999999997
0
LINE
8
BLACK
6
CONTINUOUS
10
28.2720559999999992
20
-47.7524569999999997
11
28.1768179999999973
21
-47.9429329999999965
0
LINE
8
BLACK
6
CONTINUOUS
10
28.1768179999999973
20
-47.9429329999999965
11
28.1768179999999973
21
-48.3238849999999971
0
LINE
8
BLACK
6
CONTINUOUS
10
28.1768179999999973
20
-48.3238849999999971
11
28.2720559999999992
21
-48.514361000000001
0
LINE
8
BLACK
6
CONTINUOUS
10
28.2720559999999992
20
-48.514361000000001
11
28.3672939999999976
21
-48.6096000000000004
0
LINE
8
BLACK
6
CONTINUOUS
10
28.3672939999999976
20
-48.6096000000000004
11
28.5577699999999979
21
-48.7048379999999952
0
LINE
8
BLACK
6
CONTINUOUS
10
28.5577699999999979
20
-48.7048379999999952
11
28.9387229999999995
21
-48.7048379999999952
0
LINE
8
BLACK
6
CONTINUOUS
10
28.9387229999999995
20
-48.7048379999999952
11
29.1291989999999998
21
-48.6096000000000004
0
LINE
8
BLACK
6
CONTINUOUS
10
29.1291989999999998
20
-48.6096000000000004
11
29.2244369999999982
21
-48.514361000000001
0
LINE
8
BLACK
6
CONTINUOUS
10
29.2244369999999982
20
-48.514361000000001
11
29.3196750000000002
21
-48.3238849999999971
0
LINE
8
BLACK
6
CONTINUOUS
10
29.3196750000000002
20
-48.3238849999999971
11
29.3196750000000002
21
-47.9429329999999965
0
LINE
8
BLACK
6
CONTINUOUS
10
29.3196750000000002
20
-47.9429329999999965
11
29.2244369999999982
21
-47.7524569999999997
0
LINE
8
BLACK
6
CONTINUOUS
10
29.2244369999999982
20
-47.7524569999999997
11
29.1291989999999998
21
-47.6572189999999978
0
LINE
8
BLACK
6
CONTINUOUS
10
29.1291989999999998
20
-47.6572189999999978
11
28.9387229999999995
21
-47.5619799999999984
0
LINE
8
BLACK
6
CONTINUOUS
10
29.9863419999999969
20
-46.7048379999999952
11
31.3196750000000002
21
-46.7048379999999952
0
LINE
8
BLACK
6
CONTINUOUS
10
31.3196750000000002
20
-46.7048379999999952
11
30.4625319999999995
21
-48.7048379999999952
0
LINE
8
BLACK
6
CONTINUOUS
10
31.9863419999999969
20
-46.7048379999999952
11
31.9863419999999969
21
-47.0857899999999958
0
LINE
8
BLACK
6
CONTINUOUS
10
32.7482469999999992
20
-46.7048379999999952
11
32.7482469999999992
21
-47.0857899999999958
0
LINE
8
BLACK
6
CONTINUOUS
10
35.7006289999999993
20
-49.4667419999999964
11
35.6053899999999999
21
-49.3715039999999945
0
LINE
8
BLACK
6
CONTINUOUS
10
35.6053899999999999
20
-49.3715039999999945
11
35.414913999999996
21
-49.0857899999999958
0
LINE
8
BLACK
6
CONTINUOUS
10
35.414913999999996
20
-49.0857899999999958
11
35.3196760000000012
21
-48.8953139999999991
0
LINE
8
BLACK
6
CONTINUOUS
10
35.3196760000000012
20
-48.8953139999999991
11
35.2244379999999992
21
-48.6096000000000004
0
LINE
8
BLACK
6
CONTINUOUS
10
35.2244379999999992
20
-48.6096000000000004
11
35.1291999999999973
21
-48.1334090000000003
0
LINE
8
BLACK
6
CONTINUOUS
10
35.1291999999999973
20
-48.1334090000000003
11
35.1291999999999973
21
-47.7524569999999997
0
LINE
8
BLACK
6
CONTINUOUS
10
35.1291999999999973
20
-47.7524569999999997
11
35.2244379999999992
21
-47.2762659999999997
0
LINE
8
BLACK
6
CONTINUOUS
10
35.2244379999999992
20
-47.2762659999999997
11
35.3196760000000012
21
-46.990552000000001
0
LINE
8
BLACK
6
CONTINUOUS
10
35.3196760000000012
20
-46.990552000000001
11
35.414913999999996
21
-46.8000759999999971
0
LINE
8
BLACK
6
CONTINUOUS
10
35.414913999999996
20
-46.8000759999999971
11
35.6053899999999999
21
-46.514361000000001
0
LINE
8
BLACK
6
CONTINUOUS
10
35.6053899999999999
20
-46.514361000000001
11
35.7006289999999993
21
-46.419122999999999
0
LINE
8
BLACK
6
CONTINUOUS
10
36.3672949999999986
20
-46.8953139999999991
11
36.4625330000000005
21
-46.8000759999999971
0
LINE
8
BLACK
6
CONTINUOUS
10
36.4625330000000005
20
-46.8000759999999971
11
36.6530089999999973
21
-46.7048379999999952
0
LINE
8
BLACK
6
CONTINUOUS
10
36.6530089999999973
20
-46.7048379999999952
11
37.1291999999999973
21
-46.7048379999999952
0
LINE
8
BLACK
6
CONTINUOUS
10
37.1291999999999973
20
-46.7048379999999952
11
37.3196760000000012
21
-46.8000759999999971
0
LINE
8
BLACK
6
CONTINUOUS
10
37.3196760000000012
20
-46.8000759999999971
11
37.414913999999996
21
-46.8953139999999991
0
LINE
8
BLACK
6
CONTINUOUS
10
37.414913999999996
20
-46.8953139999999991
11
37.5101519999999979
21
-47.0857899999999958
0
LINE
8
BLACK
6
CONTINUOUS
10
37.5101519999999979
20
-47.0857899999999958
11
37.5101519999999979
21
-47.2762659999999997
0
LINE
8
BLACK
6
CONTINUOUS
10
37.5101519999999979
20
-47.2762659999999997
11
37.414913999999996
21
-47.5619799999999984
0
LINE
8
BLACK
6
CONTINUOUS
10
37.414913999999996
20
-47.5619799999999984
11
36.2720569999999967
21
-48.7048379999999952
0
LINE
8
BLACK
6
CONTINUOUS
10
36.2720569999999967
20
-48.7048379999999952
11
37.5101519999999979
21
-48.7048379999999952
0
LINE
8
BLACK
6
CONTINUOUS
10
39.891104999999996
20
-48.7048379999999952
11
39.891104999999996
21
-46.7048379999999952
0
LINE
8
BLACK
6
CONTINUOUS
10
40.7482479999999967
20
-48.7048379999999952
11
40.7482479999999967
21
-47.6572189999999978
0
LINE
8
BLACK
6
CONTINUOUS
10
40.7482479999999967
20
-47.6572189999999978
11
40.6530099999999948
21
-47.4667419999999964
0
LINE
8
BLACK
6
CONTINUOUS
10
40.6530099999999948
20
-47.4667419999999964
11
40.462533999999998
21
-47.3715039999999945
0
LINE
8
BLACK
6
CONTINUOUS
10
40.462533999999998
20
-47.3715039999999945
11
40.1768189999999947
21
-47.3715039999999945
0
LINE
8
BLACK
6
CONTINUOUS
10
40.1768189999999947
20
-47.3715039999999945
11
39.986342999999998
21
-47.4667419999999964
0
LINE
8
BLACK
6
CONTINUOUS
10
39.986342999999998
20
-47.4667419999999964
11
39.891104999999996
21
-47.5619799999999984
0
LINE
8
BLACK
6
CONTINUOUS
10
41.986342999999998
20
-48.7048379999999952
11
41.7958670000000012
21
-48.6096000000000004
0
LINE
8
BLACK
6
CONTINUOUS
10
41.7958670000000012
20
-48.6096000000000004
11
41.7006289999999993
21
-48.514361000000001
0
LINE
8
BLACK
6
CONTINUOUS
10
41.7006289999999993
20
-48.514361000000001
11
41.6053909999999973
21
-48.3238849999999971
0
LINE
8
BLACK
6
CONTINUOUS
10
41.6053909999999973
20
-48.3238849999999971
11
41.6053909999999973
21
-47.7524569999999997
0
LINE
8
BLACK
6
CONTINUOUS
10
41.6053909999999973
20
-47.7524569999999997
11
41.7006289999999993
21
-47.5619799999999984
0
LINE
8
BLACK
6
CONTINUOUS
10
41.7006289999999993
20
-47.5619799999999984
11
41.7958670000000012
21
-47.4667419999999964
0
LINE
8
BLACK
6
CONTINUOUS
10
41.7958670000000012
20
-47.4667419999999964
11
41.986342999999998
21
-47.3715039999999945
0
LINE
8
BLACK
6
CONTINUOUS
10
41.986342999999998
20
-47.3715039999999945
11
42.2720580000000012
21
-47.3715039999999945
0
LINE
8
BLACK
6
CONTINUOUS
10
42.2720580000000012
20
-47.3715039999999945
11
42.462533999999998
21
-47.4667419999999964
0
LINE
8
BLACK
6
CONTINUOUS
10
42.462533999999998
20
-47.4667419999999964
11
42.5577719999999999
21
-47.5619799999999984
0
LINE
8
BLACK
6
CONTINUOUS
10
42.5577719999999999
20
-47.5619799999999984
11
42.6530099999999948
21
-47.7524569999999997
0
LINE
8
BLACK
6
CONTINUOUS
10
42.6530099999999948
20
-47.7524569999999997
11
42.6530099999999948
21
-48.3238849999999971
0
LINE
8
BLACK
6
CONTINUOUS
10
42.6530099999999948
20
-48.3238849999999971
11
42.5577719999999999
21
-48.514361000000001
0
LINE
8
BLACK
6
CONTINUOUS
10
42.5577719999999999
20
-48.514361000000001
11
42.462533999999998
21
-48.6096000000000004
0
LINE
8
BLACK
6
CONTINUOUS
10
42.462533999999998
20
-48.6096000000000004
11
42.2720580000000012
21
-48.7048379999999952
0
LINE
8
BLACK
6
CONTINUOUS
10
42.2720580000000012
20
-48.7048379999999952
11
41.986342999999998
21
-48.7048379999999952
0
LINE
8
BLACK
6
CONTINUOUS
10
43.7958670000000012
20
-48.7048379999999952
11
43.6053909999999973
21
-48.6096000000000004
0
LINE
8
BLACK
6
CONTINUOUS
10
43.6053909999999973
20
-48.6096000000000004
11
43.5101529999999954
21
-48.419122999999999
0
LINE
8
BLACK
6
CONTINUOUS
10
43.5101529999999954
20
-48.419122999999999
11
43.5101529999999954
21
-46.7048379999999952
0
LINE
8
BLACK
6
CONTINUOUS
10
45.3196769999999987
20
-48.6096000000000004
11
45.1292009999999948
21
-48.7048379999999952
0
LINE
8
BLACK
6
CONTINUOUS
10
45.1292009999999948
20
-48.7048379999999952
11
44.7482479999999967
21
-48.7048379999999952
0
LINE
8
BLACK
6
CONTINUOUS
10
44.7482479999999967
20
-48.7048379999999952
11
44.5577719999999999
21
-48.6096000000000004
0
LINE
8
BLACK
6
CONTINUOUS
10
44.5577719999999999
20
-48.6096000000000004
11
44.462533999999998
21
-48.419122999999999
0
LINE
8
BLACK
6
CONTINUOUS
10
44.462533999999998
20
-48.419122999999999
11
44.462533999999998
21
-47.6572189999999978
0
LINE
8
BLACK
6
CONTINUOUS
10
44.462533999999998
20
-47.6572189999999978
11
44.5577719999999999
21
-47.4667419999999964
0
LINE
8
BLACK
6
CONTINUOUS
10
44.5577719999999999
20
-47.4667419999999964
11
44.7482479999999967
21
-47.3715039999999945
0
LINE
8
BLACK
6
CONTINUOUS
10
44.7482479999999967
20
-47.3715039999999945
11
45.1292009999999948
21
-47.3715039999999945
0
LINE
8
BLACK
6
CONTINUOUS
10
45.1292009999999948
20
-47.3715039999999945
11
45.3196769999999987
21
-47.4667419999999964
0
LINE
8
BLACK
6
CONTINUOUS
10
45.3196769999999987
20
-47.4667419999999964
11
45.4149150000000006
21
-47.6572189999999978
0
LINE
8
BLACK
6
CONTINUOUS
10
45.4149150000000006
20
-47.6572189999999978
11
45.4149150000000006
21
-47.8476949999999945
0
LINE
8
BLACK
6
CONTINUOUS
10
45.4149150000000006
20
-47.8476949999999945
11
44.462533999999998
21
-48.0381709999999984
0
LINE
8
BLACK
6
CONTINUOUS
10
46.1768199999999993
20
-48.6096000000000004
11
46.3672959999999961
21
-48.7048379999999952
0
LINE
8
BLACK
6
CONTINUOUS
10
46.3672959999999961
20
-48.7048379999999952
11
46.7482479999999967
21
-48.7048379999999952
0
LINE
8
BLACK
6
CONTINUOUS
10
46.7482479999999967
20
-48.7048379999999952
11
46.938724999999998
21
-48.6096000000000004
0
LINE
8
BLACK
6
CONTINUOUS
10
46.938724999999998
20
-48.6096000000000004
11
47.033963
21
-48.419122999999999
0
LINE
8
BLACK
6
CONTINUOUS
10
47.033963
20
-48.419122999999999
11
47.033963
21
-48.3238849999999971
0
LINE
8
BLACK
6
CONTINUOUS
10
47.033963
20
-48.3238849999999971
11
46.938724999999998
21
-48.1334090000000003
0
LINE
8
BLACK
6
CONTINUOUS
10
46.938724999999998
20
-48.1334090000000003
11
46.7482479999999967
21
-48.0381709999999984
0
LINE
8
BLACK
6
CONTINUOUS
10
46.7482479999999967
20
-48.0381709999999984
11
46.462533999999998
21
-48.0381709999999984
0
LINE
8
BLACK
6
CONTINUOUS
10
46.462533999999998
20
-48.0381709999999984
11
46.2720580000000012
21
-47.9429329999999965
0
LINE
8
BLACK
6
CONTINUOUS
10
46.2720580000000012
20
-47.9429329999999965
11
46.1768199999999993
21
-47.7524569999999997
0
LINE
8
BLACK
6
CONTINUOUS
10
46.1768199999999993
20
-47.7524569999999997
11
46.1768199999999993
21
-47.6572189999999978
0
LINE
8
BLACK
6
CONTINUOUS
10
46.1768199999999993
20
-47.6572189999999978
11
46.2720580000000012
21
-47.4667419999999964
0
LINE
8
BLACK
6
CONTINUOUS
10
46.2720580000000012
20
-47.4667419999999964
11
46.462533999999998
21
-47.3715039999999945
0
LINE
8
BLACK
6
CONTINUOUS
10
46.462533999999998
20
-47.3715039999999945
11
46.7482479999999967
21
-47.3715039999999945
0
LINE
8
BLACK
6
CONTINUOUS
10
46.7482479999999967
20
-47.3715039999999945
11
46.938724999999998
21
-47.4667419999999964
0
LINE
8
BLACK
6
CONTINUOUS
10
47.7006299999999968
20
-49.4667419999999964
11
47.7958679999999987
21
-49.3715039999999945
0
LINE
8
BLACK
6
CONTINUOUS
10
47.7958679999999987
20
-49.3715039999999945
11
47.9863439999999954
21
-49.0857899999999958
0
LINE
8
BLACK
6
CONTINUOUS
10
47.9863439999999954
20
-49.0857899999999958
11
48.0815819999999974
21
-48.8953139999999991
0
LINE
8
BLACK
6
CONTINUOUS
10
48.0815819999999974
20
-48.8953139999999991
11
48.1768199999999993
21
-48.6096000000000004
0
LINE
8
BLACK
6
CONTINUOUS
10
48.1768199999999993
20
-48.6096000000000004
11
48.2720580000000012
21
-48.1334090000000003
0
LINE
8
BLACK
6
CONTINUOUS
10
48.2720580000000012
20
-48.1334090000000003
11
48.2720580000000012
21
-47.7524569999999997
0
LINE
8
BLACK
6
CONTINUOUS
10
48.2720580000000012
20
-47.7524569999999997
11
48.1768199999999993
21
-47.2762659999999997
0
LINE
8
BLACK
6
CONTINUOUS
10
48.1768199999999993
20
-47.2762659999999997
11
48.0815819999999974
21
-46.990552000000001
0
LINE
8
BLACK
6
CONTINUOUS
10
48.0815819999999974
20
-46.990552000000001
11
47.9863439999999954
21
-46.8000759999999971
0
LINE
8
BLACK
6
CONTINUOUS
10
47.9863439999999954
20
-46.8000759999999971
11
47.7958679999999987
21
-46.514361000000001
0
LINE
8
BLACK
6
CONTINUOUS
10
47.7958679999999987
20
-46.514361000000001
11
47.7006299999999968
21
-46.419122999999999
0
LINE
8
BLACK
6
CONTINUOUS
10
51.3196779999999961
20
-49.4667419999999964
11
51.2244389999999967
21
-49.3715039999999945
0
LINE
8
BLACK
6
CONTINUOUS
10
51.2244389999999967
20
-49.3715039999999945
11
51.033963
21
-49.0857899999999958
0
LINE
8
BLACK
6
CONTINUOUS
10
51.033963
20
-49.0857899999999958
11
50.938724999999998
21
-48.8953139999999991
0
LINE
8
BLACK
6
CONTINUOUS
10
50.938724999999998
20
-48.8953139999999991
11
50.8434869999999961
21
-48.6096000000000004
0
LINE
8
BLACK
6
CONTINUOUS
10
50.8434869999999961
20
-48.6096000000000004
11
50.7482489999999942
21
-48.1334090000000003
0
LINE
8
BLACK
6
CONTINUOUS
10
50.7482489999999942
20
-48.1334090000000003
11
50.7482489999999942
21
-47.7524569999999997
0
LINE
8
BLACK
6
CONTINUOUS
10
50.7482489999999942
20
-47.7524569999999997
11
50.8434869999999961
21
-47.2762659999999997
0
LINE
8
BLACK
6
CONTINUOUS
10
50.8434869999999961
20
-47.2762659999999997
11
50.938724999999998
21
-46.990552000000001
0
LINE
8
BLACK
6
CONTINUOUS
10
50.938724999999998
20
-46.990552000000001
11
51.033963
21
-46.8000759999999971
0
LINE
8
BLACK
6
CONTINUOUS
10
51.033963
20
-46.8000759999999971
11
51.2244389999999967
21
-46.514361000000001
0
LINE
8
BLACK
6
CONTINUOUS
10
51.2244389999999967
20
-46.514361000000001
11
51.3196779999999961
21
-46.419122999999999
0
LINE
8
BLACK
6
CONTINUOUS
10
52.0815819999999974
20
-47.3715039999999945
11
52.0815819999999974
21
-48.7048379999999952
0
LINE
8
BLACK
6
CONTINUOUS
10
52.0815819999999974
20
-47.5619799999999984
11
52.1768199999999993
21
-47.4667419999999964
0
LINE
8
BLACK
6
CONTINUOUS
10
52.1768199999999993
20
-47.4667419999999964
11
52.3672959999999961
21
-47.3715039999999945
0
LINE
8
BLACK
6
CONTINUOUS
10
52.3672959999999961
20
-47.3715039999999945
11
52.6530109999999993
21
-47.3715039999999945
0
LINE
8
BLACK
6
CONTINUOUS
10
52.6530109999999993
20
-47.3715039999999945
11
52.8434869999999961
21
-47.4667419999999964
0
LINE
8
BLACK
6
CONTINUOUS
10
52.8434869999999961
20
-47.4667419999999964
11
52.938724999999998
21
-47.6572189999999978
0
LINE
8
BLACK
6
CONTINUOUS
10
52.938724999999998
20
-47.6572189999999978
11
52.938724999999998
21
-48.7048379999999952
0
LINE
8
BLACK
6
CONTINUOUS
10
54.1768199999999993
20
-48.7048379999999952
11
53.9863439999999954
21
-48.6096000000000004
0
LINE
8
BLACK
6
CONTINUOUS
10
53.9863439999999954
20
-48.6096000000000004
11
53.8911060000000006
21
-48.514361000000001
0
LINE
8
BLACK
6
CONTINUOUS
10
53.8911060000000006
20
-48.514361000000001
11
53.7958679999999987
21
-48.3238849999999971
0
LINE
8
BLACK
6
CONTINUOUS
10
53.7958679999999987
20
-48.3238849999999971
11
53.7958679999999987
21
-47.7524569999999997
0
LINE
8
BLACK
6
CONTINUOUS
10
53.7958679999999987
20
-47.7524569999999997
11
53.8911060000000006
21
-47.5619799999999984
0
LINE
8
BLACK
6
CONTINUOUS
10
53.8911060000000006
20
-47.5619799999999984
11
53.9863439999999954
21
-47.4667419999999964
0
LINE
8
BLACK
6
CONTINUOUS
10
53.9863439999999954
20
-47.4667419999999964
11
54.1768199999999993
21
-47.3715039999999945
0
LINE
8
BLACK
6
CONTINUOUS
10
54.1768199999999993
20
-47.3715039999999945
11
54.4625349999999955
21
-47.3715039999999945
0
LINE
8
BLACK
6
CONTINUOUS
10
54.4625349999999955
20
-47.3715039999999945
11
54.6530109999999993
21
-47.4667419999999964
0
LINE
8
BLACK
6
CONTINUOUS
10
54.6530109999999993
20
-47.4667419999999964
11
54.7482489999999942
21
-47.5619799999999984
0
LINE
8
BLACK
6
CONTINUOUS
10
54.7482489999999942
20
-47.5619799999999984
11
54.8434869999999961
21
-47.7524569999999997
0
LINE
8
BLACK
6
CONTINUOUS
10
54.8434869999999961
20
-47.7524569999999997
11
54.8434869999999961
21
-48.3238849999999971
0
LINE
8
BLACK
6
CONTINUOUS
10
54.8434869999999961
20
-48.3238849999999971
11
54.7482489999999942
21
-48.514361000000001
0
LINE
8
BLACK
6
CONTINUOUS
10
54.7482489999999942
20
-48.514361000000001
11
54.6530109999999993
21
-48.6096000000000004
0
LINE
8
BLACK
6
CONTINUOUS
10
54.6530109999999993
20
-48.6096000000000004
11
54.4625349999999955
21
-48.7048379999999952
0
LINE
8
BLACK
6
CONTINUOUS
10
54.4625349999999955
20
-48.7048379999999952
11
54.1768199999999993
21
-48.7048379999999952
0
LINE
8
BLACK
6
CONTINUOUS
10
55.4149159999999981
20
-47.3715039999999945
11
56.1768199999999993
21
-47.3715039999999945
0
LINE
8
BLACK
6
CONTINUOUS
10
55.7006299999999968
20
-46.7048379999999952
11
55.7006299999999968
21
-48.419122999999999
0
LINE
8
BLACK
6
CONTINUOUS
10
55.7006299999999968
20
-48.419122999999999
11
55.7958679999999987
21
-48.6096000000000004
0
LINE
8
BLACK
6
CONTINUOUS
10
55.7958679999999987
20
-48.6096000000000004
11
55.9863439999999954
21
-48.7048379999999952
0
LINE
8
BLACK
6
CONTINUOUS
10
55.9863439999999954
20
-48.7048379999999952
11
56.1768199999999993
21
-48.7048379999999952
0
LINE
8
BLACK
6
CONTINUOUS
10
58.3672970000000007
20
-47.3715039999999945
11
58.3672970000000007
21
-49.3715039999999945
0
LINE
8
BLACK
6
CONTINUOUS
10
58.3672970000000007
20
-47.4667419999999964
11
58.5577729999999974
21
-47.3715039999999945
0
LINE
8
BLACK
6
CONTINUOUS
10
58.5577729999999974
20
-47.3715039999999945
11
58.9387259999999955
21
-47.3715039999999945
0
LINE
8
BLACK
6
CONTINUOUS
10
58.9387259999999955
20
-47.3715039999999945
11
59.1292019999999994
21
-47.4667419999999964
0
LINE
8
BLACK
6
CONTINUOUS
10
59.1292019999999994
20
-47.4667419999999964
11
59.2244399999999942
21
-47.5619799999999984
0
LINE
8
BLACK
6
CONTINUOUS
10
59.2244399999999942
20
-47.5619799999999984
11
59.3196779999999961
21
-47.7524569999999997
0
LINE
8
BLACK
6
CONTINUOUS
10
59.3196779999999961
20
-47.7524569999999997
11
59.3196779999999961
21
-48.3238849999999971
0
LINE
8
BLACK
6
CONTINUOUS
10
59.3196779999999961
20
-48.3238849999999971
11
59.2244399999999942
21
-48.514361000000001
0
LINE
8
BLACK
6
CONTINUOUS
10
59.2244399999999942
20
-48.514361000000001
11
59.1292019999999994
21
-48.6096000000000004
0
LINE
8
BLACK
6
CONTINUOUS
10
59.1292019999999994
20
-48.6096000000000004
11
58.9387259999999955
21
-48.7048379999999952
0
LINE
8
BLACK
6
CONTINUOUS
10
58.9387259999999955
20
-48.7048379999999952
11
58.5577729999999974
21
-48.7048379999999952
0
LINE
8
BLACK
6
CONTINUOUS
10
58.5577729999999974
20
-48.7048379999999952
11
58.3672970000000007
21
-48.6096000000000004
0
LINE
8
BLACK
6
CONTINUOUS
10
60.4625349999999955
20
-48.7048379999999952
11
60.2720589999999987
21
-48.6096000000000004
0
LINE
8
BLACK
6
CONTINUOUS
10
60.2720589999999987
20
-48.6096000000000004
11
60.1768209999999968
21
-48.419122999999999
0
LINE
8
BLACK
6
CONTINUOUS
10
60.1768209999999968
20
-48.419122999999999
11
60.1768209999999968
21
-46.7048379999999952
0
LINE
8
BLACK
6
CONTINUOUS
10
62.0815829999999949
20
-48.7048379999999952
11
62.0815829999999949
21
-47.6572189999999978
0
LINE
8
BLACK
6
CONTINUOUS
10
62.0815829999999949
20
-47.6572189999999978
11
61.986345
21
-47.4667419999999964
0
LINE
8
BLACK
6
CONTINUOUS
10
61.986345
20
-47.4667419999999964
11
61.7958689999999962
21
-47.3715039999999945
0
LINE
8
BLACK
6
CONTINUOUS
10
61.7958689999999962
20
-47.3715039999999945
11
61.4149159999999981
21
-47.3715039999999945
0
LINE
8
BLACK
6
CONTINUOUS
10
61.4149159999999981
20
-47.3715039999999945
11
61.2244399999999942
21
-47.4667419999999964
0
LINE
8
BLACK
6
CONTINUOUS
10
62.0815829999999949
20
-48.6096000000000004
11
61.8911069999999981
21
-48.7048379999999952
0
LINE
8
BLACK
6
CONTINUOUS
10
61.8911069999999981
20
-48.7048379999999952
11
61.4149159999999981
21
-48.7048379999999952
0
LINE
8
BLACK
6
CONTINUOUS
10
61.4149159999999981
20
-48.7048379999999952
11
61.2244399999999942
21
-48.6096000000000004
0
LINE
8
BLACK
6
CONTINUOUS
10
61.2244399999999942
20
-48.6096000000000004
11
61.1292019999999994
21
-48.419122999999999
0
LINE
8
BLACK
6
CONTINUOUS
10
61.1292019999999994
20
-48.419122999999999
11
61.1292019999999994
21
-48.2286469999999952
0
LINE
8
BLACK
6
CONTINUOUS
10
61.1292019999999994
20
-48.2286469999999952
11
61.2244399999999942
21
-48.0381709999999984
0
LINE
8
BLACK
6
CONTINUOUS
10
61.2244399999999942
20
-48.0381709999999984
11
61.4149159999999981
21
-47.9429329999999965
0
LINE
8
BLACK
6
CONTINUOUS
10
61.4149159999999981
20
-47.9429329999999965
11
61.8911069999999981
21
-47.9429329999999965
0
LINE
8
BLACK
6
CONTINUOUS
10
61.8911069999999981
20
-47.9429329999999965
11
62.0815829999999949
21
-47.8476949999999945
0
LINE
8
BLACK
6
CONTINUOUS
10
62.7482499999999987
20
-47.3715039999999945
11
63.510154
21
-47.3715039999999945
0
LINE
8
BLACK
6
CONTINUOUS
10
63.0339639999999974
20
-46.7048379999999952
11
63.0339639999999974
21
-48.419122999999999
0
LINE
8
BLACK
6
CONTINUOUS
10
63.0339639999999974
20
-48.419122999999999
11
63.1292019999999994
21
-48.6096000000000004
0
LINE
8
BLACK
6
CONTINUOUS
10
63.1292019999999994
20
-48.6096000000000004
11
63.3196779999999961
21
-48.7048379999999952
0
LINE
8
BLACK
6
CONTINUOUS
10
63.3196779999999961
20
-48.7048379999999952
11
63.510154
21
-48.7048379999999952
0
LINE
8
BLACK
6
CONTINUOUS
10
64.9387260000000026
20
-48.6096000000000004
11
64.7482499999999987
21
-48.7048379999999952
0
LINE
8
BLACK
6
CONTINUOUS
10
64.7482499999999987
20
-48.7048379999999952
11
64.3672969999999935
21
-48.7048379999999952
0
LINE
8
BLACK
6
CONTINUOUS
10
64.3672969999999935
20
-48.7048379999999952
11
64.1768210000000039
21
-48.6096000000000004
0
LINE
8
BLACK
6
CONTINUOUS
10
64.1768210000000039
20
-48.6096000000000004
11
64.0815829999999949
21
-48.419122999999999
0
LINE
8
BLACK
6
CONTINUOUS
10
64.0815829999999949
20
-48.419122999999999
11
64.0815829999999949
21
-47.6572189999999978
0
LINE
8
BLACK
6
CONTINUOUS
10
64.0815829999999949
20
-47.6572189999999978
11
64.1768210000000039
21
-47.4667419999999964
0
LINE
8
BLACK
6
CONTINUOUS
10
64.1768210000000039
20
-47.4667419999999964
11
64.3672969999999935
21
-47.3715039999999945
0
LINE
8
BLACK
6
CONTINUOUS
10
64.3672969999999935
20
-47.3715039999999945
11
64.7482499999999987
21
-47.3715039999999945
0
LINE
8
BLACK
6
CONTINUOUS
10
64.7482499999999987
20
-47.3715039999999945
11
64.9387260000000026
21
-47.4667419999999964
0
LINE
8
BLACK
6
CONTINUOUS
10
64.9387260000000026
20
-47.4667419999999964
11
65.0339639999999974
21
-47.6572189999999978
0
LINE
8
BLACK
6
CONTINUOUS
10
65.0339639999999974
20
-47.6572189999999978
11
65.0339639999999974
21
-47.8476949999999945
0
LINE
8
BLACK
6
CONTINUOUS
10
65.0339639999999974
20
-47.8476949999999945
11
64.0815829999999949
21
-48.0381709999999984
0
LINE
8
BLACK
6
CONTINUOUS
10
66.7482499999999987
20
-48.7048379999999952
11
66.7482499999999987
21
-46.7048379999999952
0
LINE
8
BLACK
6
CONTINUOUS
10
66.7482499999999987
20
-48.6096000000000004
11
66.5577739999999949
21
-48.7048379999999952
0
LINE
8
BLACK
6
CONTINUOUS
10
66.5577739999999949
20
-48.7048379999999952
11
66.1768210000000039
21
-48.7048379999999952
0
LINE
8
BLACK
6
CONTINUOUS
10
66.1768210000000039
20
-48.7048379999999952
11
65.986345
21
-48.6096000000000004
0
LINE
8
BLACK
6
CONTINUOUS
10
65.986345
20
-48.6096000000000004
11
65.891106999999991
21
-48.514361000000001
0
LINE
8
BLACK
6
CONTINUOUS
10
65.891106999999991
20
-48.514361000000001
11
65.7958689999999962
21
-48.3238849999999971
0
LINE
8
BLACK
6
CONTINUOUS
10
65.7958689999999962
20
-48.3238849999999971
11
65.7958689999999962
21
-47.7524569999999997
0
LINE
8
BLACK
6
CONTINUOUS
10
65.7958689999999962
20
-47.7524569999999997
11
65.891106999999991
21
-47.5619799999999984
0
LINE
8
BLACK
6
CONTINUOUS
10
65.891106999999991
20
-47.5619799999999984
11
65.986345
21
-47.4667419999999964
0
LINE
8
BLACK
6
CONTINUOUS
10
65.986345
20
-47.4667419999999964
11
66.1768210000000039
21
-47.3715039999999945
0
LINE
8
BLACK
6
CONTINUOUS
10
66.1768210000000039
20
-47.3715039999999945
11
66.5577739999999949
21
-47.3715039999999945
0
LINE
8
BLACK
6
CONTINUOUS
10
66.5577739999999949
20
-47.3715039999999945
11
66.7482499999999987
21
-47.4667419999999964
0
LINE
8
BLACK
6
CONTINUOUS
10
67.5101549999999975
20
-49.4667419999999964
11
67.6053929999999923
21
-49.3715039999999945
0
LINE
8
BLACK
6
CONTINUOUS
10
67.6053929999999923
20
-49.3715039999999945
11
67.7958689999999962
21
-49.0857899999999958
0
LINE
8
BLACK
6
CONTINUOUS
10
67.7958689999999962
20
-49.0857899999999958
11
67.891106999999991
21
-48.8953139999999991
0
LINE
8
BLACK
6
CONTINUOUS
10
67.891106999999991
20
-48.8953139999999991
11
67.986345
21
-48.6096000000000004
0
LINE
8
BLACK
6
CONTINUOUS
10
67.986345
20
-48.6096000000000004
11
68.0815829999999949
21
-48.1334090000000003
0
LINE
8
BLACK
6
CONTINUOUS
10
68.0815829999999949
20
-48.1334090000000003
11
68.0815829999999949
21
-47.7524569999999997
0
LINE
8
BLACK
6
CONTINUOUS
10
68.0815829999999949
20
-47.7524569999999997
11
67.986345
21
-47.2762659999999997
0
LINE
8
BLACK
6
CONTINUOUS
10
67.986345
20
-47.2762659999999997
11
67.891106999999991
21
-46.990552000000001
0
LINE
8
BLACK
6
CONTINUOUS
10
67.891106999999991
20
-46.990552000000001
11
67.7958689999999962
21
-46.8000759999999971
0
LINE
8
BLACK
6
CONTINUOUS
10
67.7958689999999962
20
-46.8000759999999971
11
67.6053929999999923
21
-46.514361000000001
0
LINE
8
BLACK
6
CONTINUOUS
10
67.6053929999999923
20
-46.514361000000001
11
67.5101549999999975
21
-46.419122999999999
  0
ENDSEC
  0
EOF
