%TF.GenerationSoftware,KiCad,Pcbnew,7.0.2-0*%
%TF.CreationDate,2024-03-07T21:22:06-08:00*%
%TF.ProjectId,led-usb-hub,6c65642d-7573-4622-9d68-75622e6b6963,rev?*%
%TF.SameCoordinates,Original*%
%TF.FileFunction,Soldermask,Bot*%
%TF.FilePolarity,Negative*%
%FSLAX46Y46*%
G04 Gerber Fmt 4.6, Leading zero omitted, Abs format (unit mm)*
G04 Created by KiCad (PCBNEW 7.0.2-0) date 2024-03-07 21:22:06*
%MOMM*%
%LPD*%
G01*
G04 APERTURE LIST*
G04 Aperture macros list*
%AMRoundRect*
0 Rectangle with rounded corners*
0 $1 Rounding radius*
0 $2 $3 $4 $5 $6 $7 $8 $9 X,Y pos of 4 corners*
0 Add a 4 corners polygon primitive as box body*
4,1,4,$2,$3,$4,$5,$6,$7,$8,$9,$2,$3,0*
0 Add four circle primitives for the rounded corners*
1,1,$1+$1,$2,$3*
1,1,$1+$1,$4,$5*
1,1,$1+$1,$6,$7*
1,1,$1+$1,$8,$9*
0 Add four rect primitives between the rounded corners*
20,1,$1+$1,$2,$3,$4,$5,0*
20,1,$1+$1,$4,$5,$6,$7,0*
20,1,$1+$1,$6,$7,$8,$9,0*
20,1,$1+$1,$8,$9,$2,$3,0*%
G04 Aperture macros list end*
%ADD10C,4.000000*%
%ADD11C,0.700000*%
%ADD12O,0.900000X2.400000*%
%ADD13O,0.900000X1.700000*%
%ADD14RoundRect,0.141000X-0.423000X-0.423000X0.423000X-0.423000X0.423000X0.423000X-0.423000X0.423000X0*%
%ADD15C,1.128000*%
%ADD16C,1.100000*%
%ADD17O,1.408000X2.816000*%
%ADD18RoundRect,0.102000X-1.050000X-1.050000X1.050000X-1.050000X1.050000X1.050000X-1.050000X1.050000X0*%
%ADD19R,1.700000X1.700000*%
%ADD20O,1.700000X1.700000*%
%ADD21RoundRect,0.200000X-0.200000X-0.275000X0.200000X-0.275000X0.200000X0.275000X-0.200000X0.275000X0*%
%ADD22RoundRect,0.225000X-0.225000X-0.250000X0.225000X-0.250000X0.225000X0.250000X-0.225000X0.250000X0*%
%ADD23RoundRect,0.225000X-0.250000X0.225000X-0.250000X-0.225000X0.250000X-0.225000X0.250000X0.225000X0*%
%ADD24RoundRect,0.225000X0.225000X0.250000X-0.225000X0.250000X-0.225000X-0.250000X0.225000X-0.250000X0*%
%ADD25RoundRect,0.200000X0.200000X0.275000X-0.200000X0.275000X-0.200000X-0.275000X0.200000X-0.275000X0*%
%ADD26RoundRect,0.200000X0.275000X-0.200000X0.275000X0.200000X-0.275000X0.200000X-0.275000X-0.200000X0*%
%ADD27RoundRect,0.200000X-0.275000X0.200000X-0.275000X-0.200000X0.275000X-0.200000X0.275000X0.200000X0*%
%ADD28R,0.299999X0.449999*%
%ADD29RoundRect,0.225000X0.250000X-0.225000X0.250000X0.225000X-0.250000X0.225000X-0.250000X-0.225000X0*%
%ADD30RoundRect,0.125000X0.353553X0.530330X-0.530330X-0.353553X-0.353553X-0.530330X0.530330X0.353553X0*%
%ADD31RoundRect,0.125000X-0.353553X0.530330X-0.530330X0.353553X0.353553X-0.530330X0.530330X-0.353553X0*%
%ADD32RoundRect,0.150000X0.587500X0.150000X-0.587500X0.150000X-0.587500X-0.150000X0.587500X-0.150000X0*%
%ADD33R,0.449999X0.299999*%
G04 APERTURE END LIST*
D10*
%TO.C,H1*%
X64128000Y-126873000D03*
%TD*%
D11*
%TO.C,J1*%
X100003000Y-88088000D03*
X99153000Y-88088000D03*
X98303000Y-88088000D03*
X97453000Y-88088000D03*
X96603000Y-88088000D03*
X95753000Y-88088000D03*
X94903000Y-88088000D03*
X94053000Y-88088000D03*
X94053000Y-86738000D03*
X94903000Y-86738000D03*
X95753000Y-86738000D03*
X96603000Y-86738000D03*
X97453000Y-86738000D03*
X98303000Y-86738000D03*
X99153000Y-86738000D03*
X100003000Y-86738000D03*
D12*
X101353000Y-87108000D03*
D13*
X101353000Y-83728000D03*
X92703000Y-83728000D03*
D12*
X92703000Y-87108000D03*
%TD*%
D14*
%TO.C,J2*%
X151328000Y-121496000D03*
D15*
X148828000Y-121496000D03*
X146828000Y-121496000D03*
X144328000Y-121496000D03*
D16*
X145953000Y-114836000D03*
X147203000Y-114836000D03*
X149703000Y-114836000D03*
D17*
X141428000Y-123216000D03*
X154228000Y-123216000D03*
X141428000Y-115716000D03*
X154228000Y-115716000D03*
D18*
X147828000Y-130256000D03*
D16*
X148453000Y-114836000D03*
%TD*%
D10*
%TO.C,H4*%
X129928000Y-87503000D03*
%TD*%
%TO.C,H2*%
X129928000Y-126873000D03*
%TD*%
D14*
%TO.C,J3*%
X100528000Y-121542000D03*
D15*
X98028000Y-121542000D03*
X96028000Y-121542000D03*
X93528000Y-121542000D03*
D16*
X95153000Y-114882000D03*
X96403000Y-114882000D03*
X98903000Y-114882000D03*
D17*
X90628000Y-123262000D03*
X103428000Y-123262000D03*
X90628000Y-115762000D03*
X103428000Y-115762000D03*
D18*
X97028000Y-130302000D03*
D16*
X97653000Y-114882000D03*
%TD*%
D19*
%TO.C,J5*%
X157480000Y-95504000D03*
D20*
X157480000Y-92964000D03*
X157480000Y-90424000D03*
%TD*%
D14*
%TO.C,J4*%
X49728000Y-121542000D03*
D15*
X47228000Y-121542000D03*
X45228000Y-121542000D03*
X42728000Y-121542000D03*
D16*
X44353000Y-114882000D03*
X45603000Y-114882000D03*
X48103000Y-114882000D03*
D17*
X39828000Y-123262000D03*
X52628000Y-123262000D03*
X39828000Y-115762000D03*
X52628000Y-115762000D03*
D18*
X46228000Y-130302000D03*
D16*
X46853000Y-114882000D03*
%TD*%
D10*
%TO.C,H3*%
X64128000Y-87503000D03*
%TD*%
D21*
%TO.C,R32*%
X123318000Y-108204000D03*
X124968000Y-108204000D03*
%TD*%
D22*
%TO.C,C39*%
X135483000Y-103835000D03*
X137033000Y-103835000D03*
%TD*%
D23*
%TO.C,C35*%
X68834000Y-112970000D03*
X68834000Y-114520000D03*
%TD*%
D24*
%TO.C,C36*%
X135395000Y-100152000D03*
X133845000Y-100152000D03*
%TD*%
D25*
%TO.C,R40*%
X64008000Y-112983000D03*
X62358000Y-112983000D03*
%TD*%
D21*
%TO.C,R34*%
X143994500Y-112299001D03*
X145644500Y-112299001D03*
%TD*%
D26*
%TO.C,R37*%
X88392000Y-121396501D03*
X88392000Y-119746501D03*
%TD*%
D27*
%TO.C,R41*%
X56197000Y-109872000D03*
X56197000Y-111522000D03*
%TD*%
D22*
%TO.C,C40*%
X133845000Y-101676000D03*
X135395000Y-101676000D03*
%TD*%
D24*
%TO.C,C26*%
X96279000Y-96012000D03*
X94729000Y-96012000D03*
%TD*%
D28*
%TO.C,U9*%
X147478001Y-117815000D03*
X148177999Y-117815000D03*
X147828000Y-118965000D03*
%TD*%
D27*
%TO.C,R38*%
X88392000Y-116698501D03*
X88392000Y-118348501D03*
%TD*%
D24*
%TO.C,C24*%
X90678000Y-104902000D03*
X89128000Y-104902000D03*
%TD*%
D29*
%TO.C,C25*%
X100838000Y-99441000D03*
X100838000Y-97891000D03*
%TD*%
D24*
%TO.C,C41*%
X141859000Y-101549000D03*
X140309000Y-101549000D03*
%TD*%
D29*
%TO.C,C31*%
X113538000Y-109026000D03*
X113538000Y-107476000D03*
%TD*%
D26*
%TO.C,R42*%
X56197000Y-114570000D03*
X56197000Y-112920000D03*
%TD*%
D22*
%TO.C,C45*%
X135483000Y-105359000D03*
X137033000Y-105359000D03*
%TD*%
D25*
%TO.C,R33*%
X142470500Y-112299001D03*
X140820500Y-112299001D03*
%TD*%
D24*
%TO.C,C38*%
X141859000Y-100025000D03*
X140309000Y-100025000D03*
%TD*%
D30*
%TO.C,U6*%
X98000272Y-99969930D03*
X98565957Y-100535616D03*
X99131643Y-101101301D03*
X99697328Y-101666986D03*
X100263014Y-102232672D03*
X100828699Y-102798357D03*
X101394384Y-103364043D03*
X101960070Y-103929728D03*
D31*
X101960070Y-105874272D03*
X101394384Y-106439957D03*
X100828699Y-107005643D03*
X100263014Y-107571328D03*
X99697328Y-108137014D03*
X99131643Y-108702699D03*
X98565957Y-109268384D03*
X98000272Y-109834070D03*
D30*
X96055728Y-109834070D03*
X95490043Y-109268384D03*
X94924357Y-108702699D03*
X94358672Y-108137014D03*
X93792986Y-107571328D03*
X93227301Y-107005643D03*
X92661616Y-106439957D03*
X92095930Y-105874272D03*
D31*
X92095930Y-103929728D03*
X92661616Y-103364043D03*
X93227301Y-102798357D03*
X93792986Y-102232672D03*
X94358672Y-101666986D03*
X94924357Y-101101301D03*
X95490043Y-100535616D03*
X96055728Y-99969930D03*
%TD*%
D29*
%TO.C,C34*%
X68834000Y-111472000D03*
X68834000Y-109922000D03*
%TD*%
D21*
%TO.C,R31*%
X123318000Y-109728000D03*
X124968000Y-109728000D03*
%TD*%
D23*
%TO.C,C30*%
X113538000Y-110524000D03*
X113538000Y-112074000D03*
%TD*%
D21*
%TO.C,R24*%
X94870000Y-97536000D03*
X96520000Y-97536000D03*
%TD*%
D27*
%TO.C,R35*%
X83947000Y-115380000D03*
X83947000Y-117030000D03*
%TD*%
D25*
%TO.C,R39*%
X64008000Y-111459000D03*
X62358000Y-111459000D03*
%TD*%
D24*
%TO.C,C37*%
X135395000Y-98628000D03*
X133845000Y-98628000D03*
%TD*%
D28*
%TO.C,U11*%
X45878001Y-117861000D03*
X46577999Y-117861000D03*
X46228000Y-119011000D03*
%TD*%
D29*
%TO.C,C44*%
X138811000Y-105105000D03*
X138811000Y-103555000D03*
%TD*%
D22*
%TO.C,C33*%
X85458000Y-113851000D03*
X87008000Y-113851000D03*
%TD*%
%TO.C,C27*%
X97777000Y-96012000D03*
X99327000Y-96012000D03*
%TD*%
D27*
%TO.C,R36*%
X85471000Y-115380000D03*
X85471000Y-117030000D03*
%TD*%
D32*
%TO.C,U12*%
X104620300Y-98491000D03*
X104620300Y-100391000D03*
X102745300Y-99441000D03*
%TD*%
D33*
%TO.C,U10*%
X91881000Y-119397500D03*
X91881000Y-118697502D03*
X93031000Y-119047501D03*
%TD*%
D28*
%TO.C,U7*%
X96678001Y-93087500D03*
X97377999Y-93087500D03*
X97028000Y-94237500D03*
%TD*%
D23*
%TO.C,C43*%
X138811000Y-97777000D03*
X138811000Y-99327000D03*
%TD*%
D24*
%TO.C,C32*%
X83960000Y-113851000D03*
X82410000Y-113851000D03*
%TD*%
M02*
