%TF.GenerationSoftware,KiCad,Pcbnew,9.0.2*%
%TF.CreationDate,2025-06-16T09:35:24-07:00*%
%TF.ProjectId,led-usb-hub,6c65642d-7573-4622-9d68-75622e6b6963,rev?*%
%TF.SameCoordinates,PX37fb0e0PY47e8340*%
%TF.FileFunction,Copper,L2,Inr*%
%TF.FilePolarity,Positive*%
%FSLAX46Y46*%
G04 Gerber Fmt 4.6, Leading zero omitted, Abs format (unit mm)*
G04 Created by KiCad (PCBNEW 9.0.2) date 2025-06-16 09:35:24*
%MOMM*%
%LPD*%
G01*
G04 APERTURE LIST*
G04 Aperture macros list*
%AMRoundRect*
0 Rectangle with rounded corners*
0 $1 Rounding radius*
0 $2 $3 $4 $5 $6 $7 $8 $9 X,Y pos of 4 corners*
0 Add a 4 corners polygon primitive as box body*
4,1,4,$2,$3,$4,$5,$6,$7,$8,$9,$2,$3,0*
0 Add four circle primitives for the rounded corners*
1,1,$1+$1,$2,$3*
1,1,$1+$1,$4,$5*
1,1,$1+$1,$6,$7*
1,1,$1+$1,$8,$9*
0 Add four rect primitives between the rounded corners*
20,1,$1+$1,$2,$3,$4,$5,0*
20,1,$1+$1,$4,$5,$6,$7,0*
20,1,$1+$1,$6,$7,$8,$9,0*
20,1,$1+$1,$8,$9,$2,$3,0*%
G04 Aperture macros list end*
%TA.AperFunction,ComponentPad*%
%ADD10R,1.700000X1.700000*%
%TD*%
%TA.AperFunction,ComponentPad*%
%ADD11C,1.700000*%
%TD*%
%TA.AperFunction,ComponentPad*%
%ADD12C,0.700000*%
%TD*%
%TA.AperFunction,ComponentPad*%
%ADD13O,0.900000X2.400000*%
%TD*%
%TA.AperFunction,ComponentPad*%
%ADD14O,0.900000X1.700000*%
%TD*%
%TA.AperFunction,ComponentPad*%
%ADD15RoundRect,0.141000X-0.423000X-0.423000X0.423000X-0.423000X0.423000X0.423000X-0.423000X0.423000X0*%
%TD*%
%TA.AperFunction,ComponentPad*%
%ADD16C,1.128000*%
%TD*%
%TA.AperFunction,ComponentPad*%
%ADD17C,1.100000*%
%TD*%
%TA.AperFunction,ComponentPad*%
%ADD18O,1.408000X2.816000*%
%TD*%
%TA.AperFunction,ComponentPad*%
%ADD19R,2.100000X2.100000*%
%TD*%
%TA.AperFunction,ViaPad*%
%ADD20C,0.600000*%
%TD*%
%TA.AperFunction,ViaPad*%
%ADD21C,1.000000*%
%TD*%
%TA.AperFunction,Conductor*%
%ADD22C,0.500000*%
%TD*%
%TA.AperFunction,Conductor*%
%ADD23C,0.300000*%
%TD*%
G04 APERTURE END LIST*
D10*
%TO.N,RESET*%
%TO.C,J5*%
X56800000Y-4220000D03*
D11*
%TO.N,SWCLK*%
X56800000Y-6760000D03*
%TO.N,SWDIO*%
X56800000Y-9300000D03*
%TO.N,Earth*%
X56800000Y-11840000D03*
%TD*%
D12*
%TO.N,Earth*%
%TO.C,J1*%
X32175000Y-6125000D03*
%TO.N,VUSB*%
X31325000Y-6125000D03*
%TO.N,/CC1*%
X30475000Y-6125000D03*
%TO.N,UD+*%
X29625000Y-6125000D03*
%TO.N,UD-*%
X28775000Y-6125000D03*
%TO.N,unconnected-(J1-SBU1-PadA8)*%
X27925000Y-6125000D03*
%TO.N,VUSB*%
X27075000Y-6125000D03*
%TO.N,Earth*%
X26225000Y-6125000D03*
X26225000Y-4775000D03*
%TO.N,VUSB*%
X27075000Y-4775000D03*
%TO.N,/CC2*%
X27925000Y-4775000D03*
%TO.N,UD+*%
X28775000Y-4775000D03*
%TO.N,UD-*%
X29625000Y-4775000D03*
%TO.N,unconnected-(J1-SBU2-PadB8)*%
X30475000Y-4775000D03*
%TO.N,VUSB*%
X31325000Y-4775000D03*
%TO.N,Earth*%
X32175000Y-4775000D03*
D13*
%TO.N,unconnected-(J1-SHIELD-PadS1)*%
X33525000Y-5145000D03*
D14*
%TO.N,unconnected-(J1-SHIELD-PadS1)_1*%
X33525000Y-1765000D03*
D13*
%TO.N,unconnected-(J1-SHIELD-PadS1)_3*%
X24875000Y-5145000D03*
D14*
%TO.N,unconnected-(J1-SHIELD-PadS1)_2*%
X24875000Y-1765000D03*
%TD*%
D15*
%TO.N,+5V_2*%
%TO.C,J3*%
X32700000Y-27780000D03*
D16*
%TO.N,U2-*%
X30200000Y-27780000D03*
%TO.N,U2+*%
X28200000Y-27780000D03*
%TO.N,Earth*%
X25700000Y-27780000D03*
D17*
%TO.N,/L2_B'*%
X27325000Y-21120000D03*
%TO.N,/L2_G'*%
X28575000Y-21120000D03*
%TO.N,/L2_R'*%
X31075000Y-21120000D03*
D18*
%TO.N,Earth*%
X22800000Y-29500000D03*
X35600000Y-29500000D03*
X22800000Y-22000000D03*
X35600000Y-22000000D03*
D19*
X29200000Y-36540000D03*
D17*
%TO.N,+3V3_MCU*%
X29825000Y-21120000D03*
%TD*%
D15*
%TO.N,+5V_3*%
%TO.C,J4*%
X12700000Y-27780000D03*
D16*
%TO.N,U3-*%
X10200000Y-27780000D03*
%TO.N,U3+*%
X8200000Y-27780000D03*
%TO.N,Earth*%
X5700000Y-27780000D03*
D17*
%TO.N,/L3_B'*%
X7325000Y-21120000D03*
%TO.N,/L3_G'*%
X8575000Y-21120000D03*
%TO.N,/L3_R'*%
X11075000Y-21120000D03*
D18*
%TO.N,Earth*%
X2800000Y-29500000D03*
X15600000Y-29500000D03*
X2800000Y-22000000D03*
X15600000Y-22000000D03*
D19*
X9200000Y-36540000D03*
D17*
%TO.N,+3V3_MCU*%
X9825000Y-21120000D03*
%TD*%
D15*
%TO.N,+5V_1*%
%TO.C,J2*%
X52700000Y-27780000D03*
D16*
%TO.N,U1-*%
X50200000Y-27780000D03*
%TO.N,U1+*%
X48200000Y-27780000D03*
%TO.N,Earth*%
X45700000Y-27780000D03*
D17*
%TO.N,/L1_B'*%
X47325000Y-21120000D03*
%TO.N,/L1_G'*%
X48575000Y-21120000D03*
%TO.N,/L1_R'*%
X51075000Y-21120000D03*
D18*
%TO.N,Earth*%
X42800000Y-29500000D03*
X55600000Y-29500000D03*
X42800000Y-22000000D03*
X55600000Y-22000000D03*
D19*
X49200000Y-36540000D03*
D17*
%TO.N,+3V3_MCU*%
X49825000Y-21120000D03*
%TD*%
D20*
%TO.N,/LED_PWR'*%
X46400000Y-1900000D03*
%TO.N,/LED_USB'*%
X48400000Y-2000000D03*
%TO.N,/EN_LED*%
X55200000Y-5000000D03*
D21*
%TO.N,VUSB*%
X39200000Y-23500000D03*
D20*
X1096769Y-7155680D03*
D21*
X2800000Y-1175000D03*
X17200000Y-23900000D03*
D20*
%TO.N,Earth*%
X9300000Y-9050000D03*
D21*
X16200000Y-9300000D03*
X30200000Y-17600000D03*
D20*
X42100000Y-10200000D03*
X40000000Y-4900000D03*
X18628980Y-12728980D03*
X3000000Y-2775000D03*
X39300000Y-8350000D03*
X48800000Y-4100000D03*
D21*
X41700000Y-14400000D03*
D20*
X36400000Y-14000000D03*
X8300000Y-18000000D03*
X46886086Y-13413914D03*
X52200000Y-1600000D03*
X16900000Y-5500000D03*
D21*
X12400000Y-5400000D03*
X28700000Y-24600000D03*
X50525000Y-14030742D03*
X48700000Y-24600000D03*
D20*
X25100000Y-22000000D03*
X23600000Y-14000000D03*
D21*
X1600000Y-15600000D03*
D20*
X45450000Y-6250000D03*
X50050000Y-7000000D03*
X44900000Y-10500000D03*
X33742301Y-10800000D03*
X45100000Y-22000000D03*
X37300000Y-1600000D03*
D21*
X21463603Y-17925000D03*
X8700000Y-24600000D03*
D20*
X16000000Y-2300000D03*
X800000Y-9625000D03*
X19000000Y-2300000D03*
X31000000Y-8500000D03*
X45400000Y-4000000D03*
X5100000Y-22000000D03*
D21*
%TO.N,+5V_1*%
X39200000Y-28700000D03*
%TO.N,+5V_3*%
X19200000Y-23700000D03*
%TO.N,+3V3_L*%
X12500000Y-9850000D03*
D20*
X24198774Y-6488903D03*
D21*
X6713319Y-6338343D03*
D20*
%TO.N,+3V3_MCU*%
X40600000Y-3300000D03*
X41900000Y-19300000D03*
X40800000Y-11300000D03*
D21*
X54900000Y-9400000D03*
D20*
X47004263Y-12673281D03*
D21*
X42500000Y-6600000D03*
D20*
X36100000Y-8700000D03*
%TO.N,OC1*%
X31032958Y-13200000D03*
X14100000Y-10600000D03*
X33400000Y-20500000D03*
%TO.N,OC2*%
X33400000Y-21400000D03*
X10900000Y-10600000D03*
X21105000Y-24205000D03*
%TO.N,OC3*%
X10900000Y-9100000D03*
X33400000Y-22400000D03*
%TO.N,U0+*%
X44200000Y-10200000D03*
%TO.N,U0-*%
X43000000Y-10200000D03*
%TO.N,PWR_EN0*%
X33000000Y-13193800D03*
X18500000Y-10300000D03*
%TO.N,PWR_EN1*%
X32000000Y-13193800D03*
X16600000Y-13175000D03*
%TO.N,PWR_EN2*%
X21400000Y-20300000D03*
X12800000Y-12800000D03*
%TO.N,/EN_LED*%
X46700000Y-11900000D03*
%TO.N,/UD'+*%
X16900000Y-2300000D03*
%TO.N,/UD'-*%
X18100000Y-2300000D03*
%TO.N,OC0*%
X34000000Y-13193800D03*
X14200000Y-9100000D03*
D21*
%TO.N,+5V_0*%
X54100000Y-19100000D03*
X44400000Y-32300000D03*
D20*
%TO.N,LED_PWR*%
X47400000Y-6200000D03*
%TO.N,LED_USB*%
X47200000Y-8000000D03*
%TO.N,RESET*%
X41473223Y-10926777D03*
X39800000Y-3300000D03*
%TO.N,/REG_MCU_FB*%
X55350000Y-18394214D03*
%TO.N,BOOT*%
X45000000Y-11500000D03*
X42900000Y-1600000D03*
%TO.N,/PWR_ON'*%
X16200000Y-4300000D03*
X2550000Y-2150000D03*
%TD*%
D22*
%TO.N,VUSB*%
X17200000Y-20400000D02*
X18500000Y-19100000D01*
D23*
X2800000Y-1175000D02*
X2593164Y-1381836D01*
D22*
X12200000Y-6800000D02*
X16062075Y-6800000D01*
X16062075Y-6800000D02*
X18562075Y-9300000D01*
X23300000Y-9300000D02*
X23600000Y-9000000D01*
X22300000Y-9300000D02*
X23300000Y-9300000D01*
X39200000Y-19600000D02*
X39200000Y-23500000D01*
X22800000Y-9800000D02*
X22300000Y-9300000D01*
X31325000Y-6925000D02*
X32900000Y-8500000D01*
X32900000Y-8500000D02*
X34100000Y-8500000D01*
X23600000Y-9000000D02*
X26300000Y-9000000D01*
X31325000Y-6125000D02*
X31325000Y-6925000D01*
X6700000Y-1300000D02*
X12200000Y-6800000D01*
X17200000Y-23900000D02*
X17200000Y-20400000D01*
X26300000Y-9000000D02*
X27075000Y-8225000D01*
X2925000Y-1300000D02*
X6700000Y-1300000D01*
X18500000Y-19100000D02*
X21900000Y-19100000D01*
X22800000Y-9800000D02*
X23600000Y-9000000D01*
X2800000Y-1175000D02*
X2925000Y-1300000D01*
D23*
X2593164Y-1381836D02*
X2318164Y-1381836D01*
D22*
X22800000Y-18200000D02*
X22800000Y-9800000D01*
D23*
X1500000Y-6752449D02*
X1096769Y-7155680D01*
D22*
X27075000Y-8225000D02*
X27075000Y-6125000D01*
X35200000Y-15600000D02*
X39200000Y-19600000D01*
X18562075Y-9300000D02*
X22300000Y-9300000D01*
X34100000Y-8500000D02*
X35200000Y-9600000D01*
D23*
X1500000Y-2200000D02*
X1500000Y-6752449D01*
D22*
X35200000Y-9600000D02*
X35200000Y-15600000D01*
X21900000Y-19100000D02*
X22800000Y-18200000D01*
D23*
X2318164Y-1381836D02*
X1500000Y-2200000D01*
D22*
%TO.N,+3V3_L*%
X7451662Y-5600000D02*
X9400000Y-5600000D01*
X9400000Y-5600000D02*
X12500000Y-8700000D01*
X6713319Y-6338343D02*
X7451662Y-5600000D01*
X12500000Y-8700000D02*
X12500000Y-9850000D01*
D23*
%TO.N,+3V3_MCU*%
X36100000Y-7500000D02*
X37000000Y-6600000D01*
D22*
X29825000Y-25675000D02*
X29800000Y-25700000D01*
X51626719Y-12673281D02*
X54900000Y-9400000D01*
D23*
X37000000Y-6600000D02*
X42500000Y-6600000D01*
D22*
X40600000Y-3300000D02*
X42400000Y-5100000D01*
X47004263Y-12673281D02*
X51626719Y-12673281D01*
X9825000Y-21897817D02*
X13627183Y-25700000D01*
X42400000Y-5100000D02*
X44000000Y-5100000D01*
X49825000Y-21575000D02*
X49825000Y-21120000D01*
X41900000Y-19300000D02*
X50500000Y-19300000D01*
X54900000Y-9400000D02*
X50600000Y-5100000D01*
X13627183Y-25700000D02*
X29800000Y-25700000D01*
X45700000Y-25700000D02*
X49825000Y-21575000D01*
D23*
X40800000Y-9600000D02*
X42500000Y-7900000D01*
D22*
X54900000Y-14900000D02*
X54900000Y-9400000D01*
X52200000Y-17600000D02*
X54900000Y-14900000D01*
X29825000Y-21045000D02*
X29825000Y-25600000D01*
X9825000Y-21120000D02*
X9825000Y-21897817D01*
X49825000Y-21120000D02*
X49825000Y-19975000D01*
X44000000Y-5100000D02*
X42500000Y-6600000D01*
D23*
X42500000Y-7900000D02*
X42500000Y-6600000D01*
D22*
X50600000Y-5100000D02*
X44000000Y-5100000D01*
X50500000Y-19300000D02*
X52200000Y-17600000D01*
D23*
X40800000Y-11300000D02*
X40800000Y-9600000D01*
D22*
X49825000Y-19975000D02*
X52200000Y-17600000D01*
D23*
X36100000Y-8700000D02*
X36100000Y-7500000D01*
D22*
X29800000Y-25700000D02*
X45700000Y-25700000D01*
%TD*%
%TA.AperFunction,Conductor*%
%TO.N,Earth*%
G36*
X25700000Y-5953553D02*
G01*
X25511819Y-5765372D01*
X25478334Y-5704049D01*
X25475500Y-5677691D01*
X25475500Y-5222308D01*
X25495185Y-5155269D01*
X25511819Y-5134627D01*
X25700000Y-4946446D01*
X25700000Y-5953553D01*
G37*
%TD.AperFunction*%
%TA.AperFunction,Conductor*%
G36*
X32888181Y-5134627D02*
G01*
X32921666Y-5195950D01*
X32924500Y-5222308D01*
X32924500Y-5677691D01*
X32904815Y-5744730D01*
X32888181Y-5765372D01*
X32700000Y-5953553D01*
X32700000Y-4946446D01*
X32888181Y-5134627D01*
G37*
%TD.AperFunction*%
%TA.AperFunction,Conductor*%
G36*
X26560002Y-4155034D02*
G01*
X26591660Y-4157298D01*
X26591664Y-4157301D01*
X26591671Y-4157302D01*
X26618001Y-4177016D01*
X26647594Y-4199169D01*
X26647596Y-4199175D01*
X26647601Y-4199179D01*
X26657482Y-4225679D01*
X26672011Y-4264633D01*
X26672010Y-4264640D01*
X26672012Y-4264645D01*
X26669491Y-4299849D01*
X26668723Y-4303376D01*
X26668723Y-4303377D01*
X26667070Y-4310970D01*
X26664354Y-4323453D01*
X26662165Y-4332026D01*
X26660790Y-4336706D01*
X26660764Y-4336839D01*
X26656300Y-4352046D01*
X26656297Y-4352061D01*
X26650000Y-4395861D01*
X26650000Y-4250000D01*
X26396444Y-4250000D01*
X26460645Y-4185799D01*
X26460651Y-4185795D01*
X26460654Y-4185791D01*
X26489160Y-4170228D01*
X26521968Y-4152314D01*
X26521973Y-4152314D01*
X26521980Y-4152311D01*
X26560002Y-4155034D01*
G37*
%TD.AperFunction*%
%TA.AperFunction,Conductor*%
G36*
X32007734Y-4254180D02*
G01*
X32053554Y-4300000D01*
X31808683Y-4300000D01*
X31820786Y-4267550D01*
X31876720Y-4225679D01*
X31946412Y-4220695D01*
X32007734Y-4254180D01*
G37*
%TD.AperFunction*%
%TA.AperFunction,Conductor*%
G36*
X36880121Y-8941D02*
G01*
X36909484Y-14960D01*
X36913298Y-18683D01*
X36918411Y-20185D01*
X36938030Y-42826D01*
X36959481Y-63767D01*
X36960676Y-68962D01*
X36964166Y-72989D01*
X36968430Y-102645D01*
X36975154Y-131856D01*
X36973351Y-136872D01*
X36974110Y-142147D01*
X36961660Y-169406D01*
X36951527Y-197609D01*
X36946367Y-202894D01*
X36945085Y-205703D01*
X36936804Y-213506D01*
X36937031Y-213733D01*
X36819481Y-331282D01*
X36819475Y-331290D01*
X36740426Y-468209D01*
X36740423Y-468216D01*
X36699500Y-620943D01*
X36699500Y-779057D01*
X36709577Y-816663D01*
X36740423Y-931783D01*
X36740426Y-931790D01*
X36819475Y-1068709D01*
X36819479Y-1068714D01*
X36819480Y-1068716D01*
X36931284Y-1180520D01*
X36931286Y-1180521D01*
X36931290Y-1180524D01*
X37028423Y-1236603D01*
X37068216Y-1259577D01*
X37220943Y-1300500D01*
X37220945Y-1300500D01*
X37379055Y-1300500D01*
X37379057Y-1300500D01*
X37531784Y-1259577D01*
X37668716Y-1180520D01*
X37780520Y-1068716D01*
X37859577Y-931784D01*
X37900500Y-779057D01*
X37900500Y-620943D01*
X37859577Y-468216D01*
X37859573Y-468209D01*
X37780524Y-331290D01*
X37780518Y-331282D01*
X37662969Y-213733D01*
X37664987Y-211714D01*
X37631933Y-166431D01*
X37627788Y-96684D01*
X37662009Y-35769D01*
X37723731Y-3025D01*
X37748628Y-500D01*
X42451372Y-500D01*
X42518411Y-20185D01*
X42564166Y-72989D01*
X42574110Y-142147D01*
X42545085Y-205703D01*
X42536804Y-213506D01*
X42537031Y-213733D01*
X42419481Y-331282D01*
X42419475Y-331290D01*
X42340426Y-468209D01*
X42340423Y-468216D01*
X42299500Y-620943D01*
X42299500Y-779057D01*
X42309577Y-816663D01*
X42340423Y-931783D01*
X42340426Y-931790D01*
X42419475Y-1068709D01*
X42419481Y-1068717D01*
X42521512Y-1170748D01*
X42554997Y-1232071D01*
X42550013Y-1301763D01*
X42541218Y-1320429D01*
X42480202Y-1426110D01*
X42480201Y-1426114D01*
X42449500Y-1540691D01*
X42449500Y-1659309D01*
X42480201Y-1773886D01*
X42539511Y-1876613D01*
X42541218Y-1879569D01*
X42557691Y-1947469D01*
X42534839Y-2013496D01*
X42521513Y-2029251D01*
X42419478Y-2131286D01*
X42419475Y-2131290D01*
X42340426Y-2268209D01*
X42340423Y-2268216D01*
X42299500Y-2420943D01*
X42299500Y-2579057D01*
X42321320Y-2660488D01*
X42340423Y-2731783D01*
X42340426Y-2731790D01*
X42419475Y-2868709D01*
X42419479Y-2868714D01*
X42419480Y-2868716D01*
X42531284Y-2980520D01*
X42531286Y-2980521D01*
X42531290Y-2980524D01*
X42628730Y-3036780D01*
X42668216Y-3059577D01*
X42820943Y-3100500D01*
X42820945Y-3100500D01*
X42979055Y-3100500D01*
X42979057Y-3100500D01*
X43131784Y-3059577D01*
X43268716Y-2980520D01*
X43380520Y-2868716D01*
X43459577Y-2731784D01*
X43500500Y-2579057D01*
X43500500Y-2420943D01*
X43459577Y-2268216D01*
X43429539Y-2216188D01*
X43380524Y-2131290D01*
X43380518Y-2131282D01*
X43278487Y-2029251D01*
X43265142Y-2004812D01*
X43248987Y-1982125D01*
X43248627Y-1974566D01*
X43245002Y-1967928D01*
X43246988Y-1940150D01*
X43245664Y-1912334D01*
X43249698Y-1902256D01*
X43249986Y-1898236D01*
X43258782Y-1879568D01*
X43260486Y-1876615D01*
X43260489Y-1876613D01*
X43281229Y-1840691D01*
X45949500Y-1840691D01*
X45949500Y-1959309D01*
X45980201Y-2073886D01*
X46039511Y-2176613D01*
X46123387Y-2260489D01*
X46226114Y-2319799D01*
X46340691Y-2350500D01*
X46340694Y-2350500D01*
X46459306Y-2350500D01*
X46459309Y-2350500D01*
X46573886Y-2319799D01*
X46676613Y-2260489D01*
X46760489Y-2176613D01*
X46819799Y-2073886D01*
X46850500Y-1959309D01*
X46850500Y-1940691D01*
X47949500Y-1940691D01*
X47949500Y-2059309D01*
X47980201Y-2173886D01*
X48039511Y-2276613D01*
X48123387Y-2360489D01*
X48226114Y-2419799D01*
X48340691Y-2450500D01*
X48340694Y-2450500D01*
X48459306Y-2450500D01*
X48459309Y-2450500D01*
X48569617Y-2420943D01*
X51599500Y-2420943D01*
X51599500Y-2579057D01*
X51621320Y-2660488D01*
X51640423Y-2731783D01*
X51640426Y-2731790D01*
X51719475Y-2868709D01*
X51719479Y-2868714D01*
X51719480Y-2868716D01*
X51831284Y-2980520D01*
X51831286Y-2980521D01*
X51831290Y-2980524D01*
X51928730Y-3036780D01*
X51968216Y-3059577D01*
X52120943Y-3100500D01*
X52120945Y-3100500D01*
X52279055Y-3100500D01*
X52279057Y-3100500D01*
X52431784Y-3059577D01*
X52568716Y-2980520D01*
X52680520Y-2868716D01*
X52759577Y-2731784D01*
X52800500Y-2579057D01*
X52800500Y-2420943D01*
X52759577Y-2268216D01*
X52729539Y-2216188D01*
X52680524Y-2131290D01*
X52680518Y-2131282D01*
X52568717Y-2019481D01*
X52568709Y-2019475D01*
X52431790Y-1940426D01*
X52431786Y-1940424D01*
X52431784Y-1940423D01*
X52279057Y-1899500D01*
X52120943Y-1899500D01*
X51968216Y-1940423D01*
X51968209Y-1940426D01*
X51831290Y-2019475D01*
X51831282Y-2019481D01*
X51719481Y-2131282D01*
X51719475Y-2131290D01*
X51640426Y-2268209D01*
X51640423Y-2268216D01*
X51599500Y-2420943D01*
X48569617Y-2420943D01*
X48573886Y-2419799D01*
X48676613Y-2360489D01*
X48760489Y-2276613D01*
X48819799Y-2173886D01*
X48850500Y-2059309D01*
X48850500Y-1940691D01*
X48819799Y-1826114D01*
X48760489Y-1723387D01*
X48676613Y-1639511D01*
X48573886Y-1580201D01*
X48459309Y-1549500D01*
X48340691Y-1549500D01*
X48226114Y-1580201D01*
X48226112Y-1580201D01*
X48226112Y-1580202D01*
X48123387Y-1639511D01*
X48123384Y-1639513D01*
X48039513Y-1723384D01*
X48039511Y-1723387D01*
X47993562Y-1802973D01*
X47980201Y-1826114D01*
X47949500Y-1940691D01*
X46850500Y-1940691D01*
X46850500Y-1840691D01*
X46819799Y-1726114D01*
X46760489Y-1623387D01*
X46676613Y-1539511D01*
X46573886Y-1480201D01*
X46459309Y-1449500D01*
X46340691Y-1449500D01*
X46226114Y-1480201D01*
X46226112Y-1480201D01*
X46226112Y-1480202D01*
X46123387Y-1539511D01*
X46123384Y-1539513D01*
X46039513Y-1623384D01*
X46039511Y-1623387D01*
X45980201Y-1726114D01*
X45949500Y-1840691D01*
X43281229Y-1840691D01*
X43319799Y-1773886D01*
X43350500Y-1659309D01*
X43350500Y-1540691D01*
X43319799Y-1426114D01*
X43260489Y-1323387D01*
X43260487Y-1323385D01*
X43258781Y-1320430D01*
X43242308Y-1252530D01*
X43265160Y-1186503D01*
X43278476Y-1170759D01*
X43380520Y-1068716D01*
X43459577Y-931784D01*
X43500500Y-779057D01*
X43500500Y-620943D01*
X43459577Y-468216D01*
X43459573Y-468209D01*
X43380524Y-331290D01*
X43380518Y-331282D01*
X43262969Y-213733D01*
X43264987Y-211714D01*
X43231933Y-166431D01*
X43227788Y-96684D01*
X43262009Y-35769D01*
X43323731Y-3025D01*
X43348628Y-500D01*
X51751372Y-500D01*
X51818411Y-20185D01*
X51864166Y-72989D01*
X51874110Y-142147D01*
X51845085Y-205703D01*
X51836804Y-213506D01*
X51837031Y-213733D01*
X51719481Y-331282D01*
X51719475Y-331290D01*
X51640426Y-468209D01*
X51640423Y-468216D01*
X51599500Y-620943D01*
X51599500Y-779057D01*
X51609577Y-816663D01*
X51640423Y-931783D01*
X51640426Y-931790D01*
X51719475Y-1068709D01*
X51719479Y-1068714D01*
X51719480Y-1068716D01*
X51831284Y-1180520D01*
X51831286Y-1180521D01*
X51831290Y-1180524D01*
X51928423Y-1236603D01*
X51968216Y-1259577D01*
X52120943Y-1300500D01*
X52120945Y-1300500D01*
X52279055Y-1300500D01*
X52279057Y-1300500D01*
X52431784Y-1259577D01*
X52568716Y-1180520D01*
X52680520Y-1068716D01*
X52759577Y-931784D01*
X52800500Y-779057D01*
X52800500Y-620943D01*
X52759577Y-468216D01*
X52759573Y-468209D01*
X52680524Y-331290D01*
X52680518Y-331282D01*
X52562969Y-213733D01*
X52564987Y-211714D01*
X52531933Y-166431D01*
X52527788Y-96684D01*
X52562009Y-35769D01*
X52623731Y-3025D01*
X52648628Y-500D01*
X55848431Y-500D01*
X55915470Y-20185D01*
X55936112Y-36819D01*
X58357085Y-2457792D01*
X58390570Y-2519115D01*
X58393404Y-2545794D01*
X58370082Y-11548053D01*
X58350223Y-11615041D01*
X58297301Y-11660659D01*
X58228117Y-11670424D01*
X58164637Y-11641234D01*
X58127015Y-11582358D01*
X58123609Y-11567129D01*
X58116758Y-11523874D01*
X58116757Y-11523869D01*
X58051095Y-11321782D01*
X57954624Y-11132449D01*
X57915270Y-11078282D01*
X57915269Y-11078282D01*
X57282962Y-11710590D01*
X57265925Y-11647007D01*
X57200099Y-11532993D01*
X57107007Y-11439901D01*
X56992993Y-11374075D01*
X56929409Y-11357037D01*
X57561716Y-10724728D01*
X57507550Y-10685375D01*
X57318217Y-10588904D01*
X57116128Y-10523242D01*
X57057411Y-10513942D01*
X56994276Y-10484012D01*
X56957345Y-10424701D01*
X56958343Y-10354838D01*
X56996953Y-10296606D01*
X57052615Y-10269852D01*
X57091835Y-10262051D01*
X57273914Y-10186632D01*
X57437782Y-10077139D01*
X57577139Y-9937782D01*
X57686632Y-9773914D01*
X57762051Y-9591835D01*
X57797129Y-9415489D01*
X57800500Y-9398543D01*
X57800500Y-9201456D01*
X57762052Y-9008170D01*
X57762051Y-9008169D01*
X57762051Y-9008165D01*
X57748982Y-8976613D01*
X57686635Y-8826092D01*
X57686628Y-8826079D01*
X57577139Y-8662218D01*
X57577136Y-8662214D01*
X57437785Y-8522863D01*
X57437781Y-8522860D01*
X57273920Y-8413371D01*
X57273907Y-8413364D01*
X57091839Y-8337950D01*
X57091829Y-8337947D01*
X56898543Y-8299500D01*
X56898541Y-8299500D01*
X56701459Y-8299500D01*
X56701457Y-8299500D01*
X56508170Y-8337947D01*
X56508160Y-8337950D01*
X56326092Y-8413364D01*
X56326079Y-8413371D01*
X56162218Y-8522860D01*
X56162214Y-8522863D01*
X56022863Y-8662214D01*
X56022860Y-8662218D01*
X55913371Y-8826079D01*
X55913364Y-8826092D01*
X55837950Y-9008160D01*
X55837947Y-9008170D01*
X55799500Y-9201456D01*
X55799500Y-9201459D01*
X55799500Y-9398541D01*
X55799500Y-9398543D01*
X55799499Y-9398543D01*
X55837947Y-9591829D01*
X55837950Y-9591839D01*
X55913364Y-9773907D01*
X55913371Y-9773920D01*
X56022860Y-9937781D01*
X56022863Y-9937785D01*
X56162214Y-10077136D01*
X56162218Y-10077139D01*
X56326079Y-10186628D01*
X56326092Y-10186635D01*
X56501538Y-10259306D01*
X56508165Y-10262051D01*
X56521342Y-10264672D01*
X56547381Y-10269852D01*
X56609292Y-10302237D01*
X56643866Y-10362952D01*
X56640127Y-10432722D01*
X56599261Y-10489394D01*
X56542589Y-10513942D01*
X56483870Y-10523242D01*
X56483869Y-10523242D01*
X56281782Y-10588904D01*
X56092439Y-10685380D01*
X56038282Y-10724727D01*
X56038282Y-10724728D01*
X56670591Y-11357037D01*
X56607007Y-11374075D01*
X56492993Y-11439901D01*
X56399901Y-11532993D01*
X56334075Y-11647007D01*
X56317037Y-11710591D01*
X55684728Y-11078282D01*
X55684727Y-11078282D01*
X55645380Y-11132439D01*
X55548904Y-11321782D01*
X55542431Y-11341706D01*
X55502994Y-11399381D01*
X55438635Y-11426580D01*
X55369789Y-11414665D01*
X55318313Y-11367421D01*
X55300500Y-11303388D01*
X55300500Y-10445929D01*
X55304763Y-10413696D01*
X55537300Y-9550025D01*
X55538532Y-9545133D01*
X55538705Y-9544396D01*
X55538922Y-9532340D01*
X55541283Y-9510402D01*
X55550500Y-9464069D01*
X55550500Y-9335931D01*
X55550500Y-9335928D01*
X55527352Y-9219559D01*
X55525502Y-9210260D01*
X55525501Y-9210258D01*
X55525501Y-9210256D01*
X55476465Y-9091873D01*
X55476464Y-9091872D01*
X55476461Y-9091866D01*
X55405276Y-8985331D01*
X55405273Y-8985327D01*
X55314674Y-8894728D01*
X55314668Y-8894723D01*
X55273505Y-8867218D01*
X55260754Y-8857446D01*
X55244557Y-8843277D01*
X55244558Y-8843277D01*
X54688030Y-8522860D01*
X54469418Y-8396995D01*
X54443609Y-8377216D01*
X52924936Y-6858543D01*
X55799499Y-6858543D01*
X55837947Y-7051829D01*
X55837950Y-7051839D01*
X55913364Y-7233907D01*
X55913371Y-7233920D01*
X56022860Y-7397781D01*
X56022863Y-7397785D01*
X56162214Y-7537136D01*
X56162218Y-7537139D01*
X56326079Y-7646628D01*
X56326092Y-7646635D01*
X56508160Y-7722049D01*
X56508165Y-7722051D01*
X56508169Y-7722051D01*
X56508170Y-7722052D01*
X56701456Y-7760500D01*
X56701459Y-7760500D01*
X56898543Y-7760500D01*
X57028582Y-7734632D01*
X57091835Y-7722051D01*
X57273914Y-7646632D01*
X57437782Y-7537139D01*
X57577139Y-7397782D01*
X57686632Y-7233914D01*
X57762051Y-7051835D01*
X57778510Y-6969093D01*
X57800500Y-6858543D01*
X57800500Y-6661456D01*
X57762052Y-6468170D01*
X57762051Y-6468169D01*
X57762051Y-6468165D01*
X57746075Y-6429596D01*
X57686635Y-6286092D01*
X57686628Y-6286079D01*
X57577139Y-6122218D01*
X57577136Y-6122214D01*
X57437785Y-5982863D01*
X57437781Y-5982860D01*
X57273920Y-5873371D01*
X57273907Y-5873364D01*
X57091839Y-5797950D01*
X57091829Y-5797947D01*
X56898543Y-5759500D01*
X56898541Y-5759500D01*
X56701459Y-5759500D01*
X56701457Y-5759500D01*
X56508170Y-5797947D01*
X56508160Y-5797950D01*
X56326092Y-5873364D01*
X56326079Y-5873371D01*
X56162218Y-5982860D01*
X56162214Y-5982863D01*
X56022863Y-6122214D01*
X56022860Y-6122218D01*
X55913371Y-6286079D01*
X55913364Y-6286092D01*
X55837950Y-6468160D01*
X55837947Y-6468170D01*
X55799500Y-6661456D01*
X55799500Y-6661459D01*
X55799500Y-6858541D01*
X55799500Y-6858543D01*
X55799499Y-6858543D01*
X52924936Y-6858543D01*
X51007084Y-4940691D01*
X54749500Y-4940691D01*
X54749500Y-5059309D01*
X54780201Y-5173886D01*
X54839511Y-5276613D01*
X54923387Y-5360489D01*
X55026114Y-5419799D01*
X55140691Y-5450500D01*
X55140694Y-5450500D01*
X55259306Y-5450500D01*
X55259309Y-5450500D01*
X55373886Y-5419799D01*
X55476613Y-5360489D01*
X55560489Y-5276613D01*
X55619799Y-5173886D01*
X55619799Y-5173885D01*
X55621430Y-5171061D01*
X55671997Y-5122845D01*
X55740604Y-5109623D01*
X55805469Y-5135591D01*
X55831916Y-5164167D01*
X55841496Y-5178504D01*
X55891278Y-5211767D01*
X55891281Y-5211767D01*
X55891282Y-5211768D01*
X55935177Y-5220500D01*
X55935180Y-5220500D01*
X57664822Y-5220500D01*
X57708717Y-5211768D01*
X57708717Y-5211767D01*
X57708722Y-5211767D01*
X57758504Y-5178504D01*
X57791767Y-5128722D01*
X57794100Y-5116994D01*
X57800500Y-5084822D01*
X57800500Y-3355177D01*
X57791768Y-3311282D01*
X57791767Y-3311281D01*
X57791767Y-3311278D01*
X57758504Y-3261496D01*
X57727367Y-3240691D01*
X57708724Y-3228234D01*
X57708717Y-3228231D01*
X57664822Y-3219500D01*
X57664820Y-3219500D01*
X55935180Y-3219500D01*
X55935178Y-3219500D01*
X55891282Y-3228231D01*
X55891275Y-3228234D01*
X55841496Y-3261495D01*
X55841495Y-3261496D01*
X55808234Y-3311275D01*
X55808231Y-3311282D01*
X55799500Y-3355177D01*
X55799500Y-4674591D01*
X55779815Y-4741630D01*
X55727011Y-4787385D01*
X55657853Y-4797329D01*
X55594297Y-4768304D01*
X55568114Y-4736594D01*
X55560489Y-4723387D01*
X55476613Y-4639511D01*
X55373886Y-4580201D01*
X55259309Y-4549500D01*
X55140691Y-4549500D01*
X55026114Y-4580201D01*
X55026112Y-4580201D01*
X55026112Y-4580202D01*
X54923387Y-4639511D01*
X54923384Y-4639513D01*
X54839513Y-4723384D01*
X54839511Y-4723387D01*
X54786744Y-4814782D01*
X54780201Y-4826114D01*
X54749500Y-4940691D01*
X51007084Y-4940691D01*
X50845915Y-4779522D01*
X50845913Y-4779520D01*
X50787691Y-4745905D01*
X50754589Y-4726793D01*
X50688578Y-4709106D01*
X50652727Y-4699500D01*
X50652726Y-4699500D01*
X42617255Y-4699500D01*
X42550216Y-4679815D01*
X42529574Y-4663181D01*
X41330378Y-3463985D01*
X41309633Y-3436468D01*
X41308631Y-3434662D01*
X41308630Y-3434660D01*
X41308629Y-3434659D01*
X40974797Y-3040732D01*
X40971448Y-3036780D01*
X40971859Y-3036431D01*
X40966305Y-3029169D01*
X40965437Y-3029836D01*
X40960491Y-3023390D01*
X40960489Y-3023387D01*
X40876613Y-2939511D01*
X40773886Y-2880201D01*
X40659309Y-2849500D01*
X40540691Y-2849500D01*
X40426114Y-2880201D01*
X40426112Y-2880201D01*
X40426112Y-2880202D01*
X40323387Y-2939511D01*
X40323384Y-2939513D01*
X40287681Y-2975217D01*
X40226358Y-3008702D01*
X40156666Y-3003718D01*
X40112319Y-2975217D01*
X40076615Y-2939513D01*
X40076613Y-2939511D01*
X39973886Y-2880201D01*
X39859309Y-2849500D01*
X39740691Y-2849500D01*
X39626114Y-2880201D01*
X39626112Y-2880201D01*
X39626112Y-2880202D01*
X39523387Y-2939511D01*
X39523384Y-2939513D01*
X39439513Y-3023384D01*
X39439511Y-3023387D01*
X39418617Y-3059577D01*
X39380201Y-3126114D01*
X39349500Y-3240691D01*
X39349500Y-3359309D01*
X39380201Y-3473886D01*
X39439511Y-3576613D01*
X39523387Y-3660489D01*
X39626114Y-3719799D01*
X39740691Y-3750500D01*
X39740694Y-3750500D01*
X39859306Y-3750500D01*
X39859309Y-3750500D01*
X39973886Y-3719799D01*
X40076613Y-3660489D01*
X40112319Y-3624782D01*
X40118714Y-3621290D01*
X40122918Y-3615332D01*
X40148968Y-3604769D01*
X40173639Y-3591298D01*
X40180912Y-3591818D01*
X40187668Y-3589079D01*
X40215292Y-3594276D01*
X40243331Y-3596282D01*
X40250853Y-3600968D01*
X40256333Y-3601999D01*
X40279253Y-3618658D01*
X40285172Y-3622345D01*
X40286465Y-3623567D01*
X40323387Y-3660489D01*
X40328896Y-3663669D01*
X40339415Y-3673611D01*
X40339495Y-3673749D01*
X40340732Y-3674797D01*
X40734659Y-4008629D01*
X40734661Y-4008630D01*
X40738886Y-4011090D01*
X40764178Y-4030571D01*
X42079519Y-5345912D01*
X42079520Y-5345913D01*
X42154087Y-5420480D01*
X42245413Y-5473207D01*
X42347273Y-5500500D01*
X42634289Y-5500500D01*
X42701328Y-5520185D01*
X42747083Y-5572989D01*
X42757027Y-5642147D01*
X42728002Y-5705703D01*
X42696159Y-5731962D01*
X42194368Y-6020863D01*
X42176671Y-6029266D01*
X41489193Y-6291365D01*
X41445020Y-6299500D01*
X36960438Y-6299500D01*
X36911157Y-6312705D01*
X36884010Y-6319979D01*
X36824934Y-6354087D01*
X36824933Y-6354086D01*
X36815492Y-6359537D01*
X36815487Y-6359541D01*
X35859541Y-7315487D01*
X35859535Y-7315495D01*
X35819982Y-7384004D01*
X35819979Y-7384009D01*
X35799500Y-7460439D01*
X35799500Y-8050225D01*
X35795236Y-8082461D01*
X35794684Y-8084512D01*
X35658848Y-8589017D01*
X35657653Y-8593756D01*
X35657474Y-8594518D01*
X35657473Y-8594525D01*
X35657425Y-8597065D01*
X35653223Y-8626796D01*
X35649500Y-8640688D01*
X35649500Y-8640691D01*
X35649500Y-8759309D01*
X35680201Y-8873886D01*
X35739511Y-8976613D01*
X35823387Y-9060489D01*
X35926114Y-9119799D01*
X36040691Y-9150500D01*
X36040694Y-9150500D01*
X36159306Y-9150500D01*
X36159309Y-9150500D01*
X36273886Y-9119799D01*
X36376613Y-9060489D01*
X36460489Y-8976613D01*
X36519799Y-8873886D01*
X36550500Y-8759309D01*
X36550500Y-8640691D01*
X36545778Y-8623069D01*
X36541829Y-8599241D01*
X36541147Y-8589008D01*
X36404763Y-8082462D01*
X36400500Y-8050226D01*
X36400500Y-7675833D01*
X36420185Y-7608794D01*
X36436819Y-7588152D01*
X37088152Y-6936819D01*
X37149475Y-6903334D01*
X37175833Y-6900500D01*
X41445022Y-6900500D01*
X41489195Y-6908635D01*
X41489371Y-6908702D01*
X41945652Y-7082656D01*
X42001279Y-7124930D01*
X42017341Y-7154345D01*
X42190597Y-7608794D01*
X42191365Y-7610807D01*
X42192499Y-7616968D01*
X42194477Y-7620045D01*
X42199500Y-7654980D01*
X42199500Y-7724167D01*
X42179815Y-7791206D01*
X42163181Y-7811848D01*
X40559541Y-9415487D01*
X40559535Y-9415495D01*
X40519982Y-9484004D01*
X40519979Y-9484009D01*
X40499500Y-9560439D01*
X40499500Y-10650225D01*
X40495236Y-10682461D01*
X40483856Y-10724728D01*
X40358848Y-11189017D01*
X40357653Y-11193756D01*
X40357474Y-11194518D01*
X40357473Y-11194525D01*
X40357425Y-11197065D01*
X40353223Y-11226796D01*
X40349500Y-11240688D01*
X40349500Y-11240691D01*
X40349500Y-11359309D01*
X40380201Y-11473886D01*
X40439511Y-11576613D01*
X40523387Y-11660489D01*
X40626114Y-11719799D01*
X40740691Y-11750500D01*
X40740694Y-11750500D01*
X40859306Y-11750500D01*
X40859309Y-11750500D01*
X40973886Y-11719799D01*
X41076613Y-11660489D01*
X41160489Y-11576613D01*
X41219799Y-11473886D01*
X41224861Y-11454993D01*
X41233578Y-11440691D01*
X44549500Y-11440691D01*
X44549500Y-11559309D01*
X44580201Y-11673886D01*
X44639511Y-11776613D01*
X44723387Y-11860489D01*
X44826114Y-11919799D01*
X44940691Y-11950500D01*
X44940694Y-11950500D01*
X45059306Y-11950500D01*
X45059309Y-11950500D01*
X45173886Y-11919799D01*
X45276613Y-11860489D01*
X45360489Y-11776613D01*
X45419799Y-11673886D01*
X45450500Y-11559309D01*
X45450500Y-11440691D01*
X45419799Y-11326114D01*
X45360489Y-11223387D01*
X45276613Y-11139511D01*
X45173886Y-11080201D01*
X45059309Y-11049500D01*
X44940691Y-11049500D01*
X44826114Y-11080201D01*
X44826112Y-11080201D01*
X44826112Y-11080202D01*
X44723387Y-11139511D01*
X44723384Y-11139513D01*
X44639513Y-11223384D01*
X44639511Y-11223387D01*
X44580201Y-11326114D01*
X44549500Y-11440691D01*
X41233578Y-11440691D01*
X41261223Y-11395335D01*
X41324069Y-11364804D01*
X41376727Y-11367312D01*
X41413914Y-11377277D01*
X41413916Y-11377277D01*
X41532529Y-11377277D01*
X41532532Y-11377277D01*
X41647109Y-11346576D01*
X41647111Y-11346574D01*
X41647113Y-11346574D01*
X41647114Y-11346573D01*
X41658499Y-11340000D01*
X41749836Y-11287266D01*
X41833712Y-11203390D01*
X41893022Y-11100663D01*
X41923723Y-10986086D01*
X41923723Y-10867468D01*
X41893022Y-10752891D01*
X41833712Y-10650164D01*
X41749836Y-10566288D01*
X41647109Y-10506978D01*
X41532532Y-10476277D01*
X41413914Y-10476277D01*
X41299337Y-10506978D01*
X41299335Y-10506978D01*
X41299335Y-10506979D01*
X41286501Y-10514389D01*
X41218601Y-10530862D01*
X41152574Y-10508010D01*
X41109383Y-10453089D01*
X41100500Y-10407002D01*
X41100500Y-10140691D01*
X42549500Y-10140691D01*
X42549500Y-10259309D01*
X42580201Y-10373886D01*
X42639511Y-10476613D01*
X42723387Y-10560489D01*
X42826114Y-10619799D01*
X42940691Y-10650500D01*
X42940694Y-10650500D01*
X43059306Y-10650500D01*
X43059309Y-10650500D01*
X43173886Y-10619799D01*
X43276613Y-10560489D01*
X43360489Y-10476613D01*
X43419799Y-10373886D01*
X43450500Y-10259309D01*
X43450500Y-10140691D01*
X43749500Y-10140691D01*
X43749500Y-10259309D01*
X43780201Y-10373886D01*
X43839511Y-10476613D01*
X43923387Y-10560489D01*
X44026114Y-10619799D01*
X44140691Y-10650500D01*
X44140694Y-10650500D01*
X44259306Y-10650500D01*
X44259309Y-10650500D01*
X44373886Y-10619799D01*
X44476613Y-10560489D01*
X44560489Y-10476613D01*
X44619799Y-10373886D01*
X44650500Y-10259309D01*
X44650500Y-10140691D01*
X44619799Y-10026114D01*
X44560489Y-9923387D01*
X44476613Y-9839511D01*
X44373886Y-9780201D01*
X44259309Y-9749500D01*
X44140691Y-9749500D01*
X44026114Y-9780201D01*
X44026112Y-9780201D01*
X44026112Y-9780202D01*
X43923387Y-9839511D01*
X43923384Y-9839513D01*
X43839513Y-9923384D01*
X43839511Y-9923387D01*
X43814971Y-9965892D01*
X43780201Y-10026114D01*
X43749500Y-10140691D01*
X43450500Y-10140691D01*
X43419799Y-10026114D01*
X43360489Y-9923387D01*
X43276613Y-9839511D01*
X43173886Y-9780201D01*
X43059309Y-9749500D01*
X42940691Y-9749500D01*
X42826114Y-9780201D01*
X42826112Y-9780201D01*
X42826112Y-9780202D01*
X42723387Y-9839511D01*
X42723384Y-9839513D01*
X42639513Y-9923384D01*
X42639511Y-9923387D01*
X42614971Y-9965892D01*
X42580201Y-10026114D01*
X42549500Y-10140691D01*
X41100500Y-10140691D01*
X41100500Y-9775833D01*
X41120185Y-9708794D01*
X41136819Y-9688152D01*
X41930248Y-8894723D01*
X42740460Y-8084511D01*
X42777929Y-8019612D01*
X42780021Y-8015989D01*
X42800197Y-7940691D01*
X46749500Y-7940691D01*
X46749500Y-8059309D01*
X46780201Y-8173886D01*
X46839511Y-8276613D01*
X46923387Y-8360489D01*
X47026114Y-8419799D01*
X47140691Y-8450500D01*
X47140694Y-8450500D01*
X47259306Y-8450500D01*
X47259309Y-8450500D01*
X47373886Y-8419799D01*
X47476613Y-8360489D01*
X47560489Y-8276613D01*
X47619799Y-8173886D01*
X47650500Y-8059309D01*
X47650500Y-7940691D01*
X47619799Y-7826114D01*
X47560489Y-7723387D01*
X47476613Y-7639511D01*
X47373886Y-7580201D01*
X47259309Y-7549500D01*
X47140691Y-7549500D01*
X47026114Y-7580201D01*
X47026112Y-7580201D01*
X47026112Y-7580202D01*
X46923387Y-7639511D01*
X46923384Y-7639513D01*
X46839513Y-7723384D01*
X46839511Y-7723387D01*
X46788438Y-7811848D01*
X46780201Y-7826114D01*
X46749500Y-7940691D01*
X42800197Y-7940691D01*
X42800500Y-7939562D01*
X42800500Y-7654980D01*
X42808635Y-7610807D01*
X43070734Y-6923319D01*
X43079135Y-6905627D01*
X43503004Y-6169415D01*
X43522778Y-6143613D01*
X43525700Y-6140691D01*
X46949500Y-6140691D01*
X46949500Y-6259309D01*
X46980201Y-6373886D01*
X47039511Y-6476613D01*
X47123387Y-6560489D01*
X47226114Y-6619799D01*
X47340691Y-6650500D01*
X47340694Y-6650500D01*
X47459306Y-6650500D01*
X47459309Y-6650500D01*
X47573886Y-6619799D01*
X47676613Y-6560489D01*
X47760489Y-6476613D01*
X47819799Y-6373886D01*
X47850500Y-6259309D01*
X47850500Y-6140691D01*
X47819799Y-6026114D01*
X47760489Y-5923387D01*
X47676613Y-5839511D01*
X47573886Y-5780201D01*
X47459309Y-5749500D01*
X47340691Y-5749500D01*
X47226114Y-5780201D01*
X47226112Y-5780201D01*
X47226112Y-5780202D01*
X47123387Y-5839511D01*
X47123384Y-5839513D01*
X47039513Y-5923384D01*
X47039511Y-5923387D01*
X46990890Y-6007601D01*
X46980201Y-6026114D01*
X46949500Y-6140691D01*
X43525700Y-6140691D01*
X44129574Y-5536819D01*
X44190897Y-5503334D01*
X44217255Y-5500500D01*
X50382745Y-5500500D01*
X50449784Y-5520185D01*
X50470426Y-5536819D01*
X53877214Y-8943607D01*
X53896995Y-8969418D01*
X54109278Y-9338129D01*
X54125668Y-9406049D01*
X54109278Y-9461869D01*
X53896998Y-9830577D01*
X53877217Y-9856388D01*
X51497145Y-12236462D01*
X51435822Y-12269947D01*
X51409464Y-12272781D01*
X47636682Y-12272781D01*
X47602565Y-12267995D01*
X47600562Y-12267421D01*
X47600553Y-12267420D01*
X47227478Y-12236613D01*
X47162286Y-12211478D01*
X47121032Y-12155088D01*
X47116814Y-12085346D01*
X47117908Y-12080940D01*
X47119798Y-12073887D01*
X47119799Y-12073886D01*
X47150500Y-11959309D01*
X47150500Y-11840691D01*
X47119799Y-11726114D01*
X47060489Y-11623387D01*
X46976613Y-11539511D01*
X46873886Y-11480201D01*
X46759309Y-11449500D01*
X46640691Y-11449500D01*
X46526114Y-11480201D01*
X46526112Y-11480201D01*
X46526112Y-11480202D01*
X46423387Y-11539511D01*
X46423384Y-11539513D01*
X46339513Y-11623384D01*
X46339511Y-11623387D01*
X46310355Y-11673887D01*
X46280201Y-11726114D01*
X46249500Y-11840691D01*
X46249500Y-11959309D01*
X46280201Y-12073886D01*
X46339511Y-12176613D01*
X46423387Y-12260489D01*
X46526114Y-12319799D01*
X46526116Y-12319800D01*
X46526246Y-12319854D01*
X46526338Y-12319928D01*
X46533153Y-12323863D01*
X46532539Y-12324925D01*
X46580650Y-12363693D01*
X46602717Y-12429987D01*
X46587337Y-12491782D01*
X46587576Y-12491881D01*
X46586916Y-12493472D01*
X46586185Y-12496413D01*
X46584465Y-12499391D01*
X46584464Y-12499395D01*
X46553763Y-12613972D01*
X46553763Y-12732590D01*
X46584464Y-12847167D01*
X46643774Y-12949894D01*
X46727650Y-13033770D01*
X46830377Y-13093080D01*
X46944954Y-13123781D01*
X46944957Y-13123781D01*
X47063570Y-13123781D01*
X47063572Y-13123781D01*
X47063573Y-13123780D01*
X47071486Y-13122738D01*
X47079891Y-13122254D01*
X47079882Y-13122135D01*
X47455780Y-13091095D01*
X47600559Y-13079140D01*
X47604193Y-13078180D01*
X47605294Y-13077890D01*
X47636950Y-13073781D01*
X51679444Y-13073781D01*
X51679446Y-13073781D01*
X51781307Y-13046488D01*
X51872632Y-12993761D01*
X54287819Y-10578572D01*
X54349142Y-10545088D01*
X54418834Y-10550072D01*
X54474767Y-10591944D01*
X54499184Y-10657408D01*
X54499500Y-10666254D01*
X54499500Y-14682744D01*
X54479815Y-14749783D01*
X54463181Y-14770425D01*
X51936645Y-17296961D01*
X50370426Y-18863181D01*
X50309103Y-18896666D01*
X50282745Y-18899500D01*
X42532419Y-18899500D01*
X42498302Y-18894714D01*
X42496299Y-18894140D01*
X42496290Y-18894139D01*
X41976527Y-18851220D01*
X41976568Y-18850721D01*
X41967495Y-18849557D01*
X41967363Y-18850561D01*
X41959312Y-18849501D01*
X41959309Y-18849500D01*
X41840691Y-18849500D01*
X41726114Y-18880201D01*
X41726112Y-18880201D01*
X41726112Y-18880202D01*
X41623387Y-18939511D01*
X41623384Y-18939513D01*
X41539513Y-19023384D01*
X41539511Y-19023387D01*
X41512874Y-19069524D01*
X41480201Y-19126114D01*
X41449500Y-19240691D01*
X41449500Y-19359309D01*
X41480201Y-19473886D01*
X41539511Y-19576613D01*
X41623387Y-19660489D01*
X41726114Y-19719799D01*
X41840691Y-19750500D01*
X41840694Y-19750500D01*
X41959307Y-19750500D01*
X41959309Y-19750500D01*
X41959310Y-19750499D01*
X41967223Y-19749457D01*
X41975628Y-19748973D01*
X41975619Y-19748854D01*
X42329813Y-19719606D01*
X42496296Y-19705859D01*
X42499930Y-19704899D01*
X42501031Y-19704609D01*
X42532687Y-19700500D01*
X49322324Y-19700500D01*
X49339596Y-19705571D01*
X49357598Y-19705623D01*
X49372424Y-19715211D01*
X49389363Y-19720185D01*
X49401150Y-19733788D01*
X49416268Y-19743565D01*
X49423557Y-19759647D01*
X49435118Y-19772989D01*
X49437679Y-19790805D01*
X49445112Y-19807203D01*
X49443600Y-19831979D01*
X49445062Y-19842147D01*
X49445011Y-19842497D01*
X49443965Y-19849626D01*
X49435773Y-19880201D01*
X49424500Y-19922273D01*
X49424500Y-19982320D01*
X49423187Y-19991271D01*
X49421316Y-19995336D01*
X49419442Y-20008327D01*
X49258694Y-20553786D01*
X49220862Y-20612526D01*
X49157278Y-20641488D01*
X49088129Y-20631476D01*
X49052071Y-20606414D01*
X49021545Y-20575888D01*
X49021541Y-20575885D01*
X48906817Y-20499228D01*
X48906804Y-20499221D01*
X48779332Y-20446421D01*
X48779322Y-20446418D01*
X48643995Y-20419500D01*
X48643993Y-20419500D01*
X48506007Y-20419500D01*
X48506005Y-20419500D01*
X48370677Y-20446418D01*
X48370667Y-20446421D01*
X48243195Y-20499221D01*
X48243182Y-20499228D01*
X48128458Y-20575885D01*
X48128454Y-20575888D01*
X48037681Y-20666662D01*
X47976358Y-20700147D01*
X47906666Y-20695163D01*
X47862319Y-20666662D01*
X47771545Y-20575888D01*
X47771541Y-20575885D01*
X47656817Y-20499228D01*
X47656804Y-20499221D01*
X47529332Y-20446421D01*
X47529322Y-20446418D01*
X47393995Y-20419500D01*
X47393993Y-20419500D01*
X47256007Y-20419500D01*
X47256005Y-20419500D01*
X47120677Y-20446418D01*
X47120667Y-20446421D01*
X46993195Y-20499221D01*
X46993182Y-20499228D01*
X46878458Y-20575885D01*
X46878454Y-20575888D01*
X46780888Y-20673454D01*
X46780885Y-20673458D01*
X46704228Y-20788182D01*
X46704221Y-20788195D01*
X46651421Y-20915667D01*
X46651418Y-20915677D01*
X46624500Y-21051004D01*
X46624500Y-21051007D01*
X46624500Y-21188993D01*
X46624500Y-21188995D01*
X46624499Y-21188995D01*
X46651418Y-21324322D01*
X46651421Y-21324332D01*
X46704221Y-21451804D01*
X46704228Y-21451817D01*
X46780885Y-21566541D01*
X46780888Y-21566545D01*
X46878454Y-21664111D01*
X46878458Y-21664114D01*
X46993182Y-21740771D01*
X46993195Y-21740778D01*
X47118337Y-21792613D01*
X47120672Y-21793580D01*
X47120676Y-21793580D01*
X47120677Y-21793581D01*
X47256004Y-21820500D01*
X47256007Y-21820500D01*
X47393995Y-21820500D01*
X47485041Y-21802389D01*
X47529328Y-21793580D01*
X47656811Y-21740775D01*
X47771542Y-21664114D01*
X47808185Y-21627471D01*
X47862319Y-21573338D01*
X47923642Y-21539853D01*
X47993334Y-21544837D01*
X48037681Y-21573338D01*
X48128454Y-21664111D01*
X48128458Y-21664114D01*
X48243182Y-21740771D01*
X48243195Y-21740778D01*
X48368337Y-21792613D01*
X48370672Y-21793580D01*
X48370676Y-21793580D01*
X48370677Y-21793581D01*
X48506004Y-21820500D01*
X48506007Y-21820500D01*
X48643994Y-21820500D01*
X48703838Y-21808596D01*
X48773429Y-21814823D01*
X48828607Y-21857685D01*
X48851852Y-21923575D01*
X48835785Y-21991572D01*
X48815711Y-22017894D01*
X45570426Y-25263181D01*
X45509103Y-25296666D01*
X45482745Y-25299500D01*
X30563335Y-25299500D01*
X30496296Y-25279815D01*
X30466507Y-25252962D01*
X30252672Y-24985668D01*
X30226164Y-24921022D01*
X30225500Y-24908206D01*
X30225500Y-22266723D01*
X30230557Y-22231672D01*
X30391302Y-21686210D01*
X30429135Y-21627471D01*
X30492719Y-21598509D01*
X30561868Y-21608520D01*
X30597926Y-21633583D01*
X30628454Y-21664111D01*
X30628458Y-21664114D01*
X30743182Y-21740771D01*
X30743195Y-21740778D01*
X30868337Y-21792613D01*
X30870672Y-21793580D01*
X30870676Y-21793580D01*
X30870677Y-21793581D01*
X31006004Y-21820500D01*
X31006007Y-21820500D01*
X31143995Y-21820500D01*
X31235041Y-21802389D01*
X31279328Y-21793580D01*
X31406811Y-21740775D01*
X31521542Y-21664114D01*
X31619114Y-21566542D01*
X31695775Y-21451811D01*
X31748580Y-21324328D01*
X31757389Y-21280041D01*
X31775500Y-21188995D01*
X31775500Y-21051004D01*
X31748581Y-20915677D01*
X31748580Y-20915676D01*
X31748580Y-20915672D01*
X31739498Y-20893746D01*
X31695778Y-20788195D01*
X31695771Y-20788182D01*
X31619114Y-20673458D01*
X31619111Y-20673454D01*
X31521545Y-20575888D01*
X31521541Y-20575885D01*
X31461349Y-20535666D01*
X31406816Y-20499228D01*
X31406804Y-20499221D01*
X31279332Y-20446421D01*
X31279322Y-20446418D01*
X31250530Y-20440691D01*
X32949500Y-20440691D01*
X32949500Y-20559309D01*
X32980201Y-20673886D01*
X33039511Y-20776613D01*
X33039513Y-20776615D01*
X33125217Y-20862319D01*
X33158702Y-20923642D01*
X33153718Y-20993334D01*
X33125217Y-21037681D01*
X33039513Y-21123384D01*
X33039511Y-21123387D01*
X32980201Y-21226114D01*
X32949500Y-21340691D01*
X32949500Y-21459309D01*
X32980201Y-21573886D01*
X33039511Y-21676613D01*
X33123387Y-21760489D01*
X33179027Y-21792613D01*
X33227242Y-21843181D01*
X33240464Y-21911788D01*
X33214496Y-21976653D01*
X33179027Y-22007387D01*
X33123387Y-22039511D01*
X33123384Y-22039513D01*
X33039513Y-22123384D01*
X33039511Y-22123387D01*
X32980201Y-22226114D01*
X32949500Y-22340691D01*
X32949500Y-22459309D01*
X32980201Y-22573886D01*
X33039511Y-22676613D01*
X33123387Y-22760489D01*
X33226114Y-22819799D01*
X33340691Y-22850500D01*
X33340694Y-22850500D01*
X33459306Y-22850500D01*
X33459309Y-22850500D01*
X33573886Y-22819799D01*
X33676613Y-22760489D01*
X33760489Y-22676613D01*
X33819799Y-22573886D01*
X33850500Y-22459309D01*
X33850500Y-22340691D01*
X33819799Y-22226114D01*
X33760489Y-22123387D01*
X33676613Y-22039511D01*
X33620972Y-22007386D01*
X33572757Y-21956820D01*
X33559535Y-21888213D01*
X33585503Y-21823348D01*
X33620973Y-21792613D01*
X33676613Y-21760489D01*
X33760489Y-21676613D01*
X33819799Y-21573886D01*
X33850500Y-21459309D01*
X33850500Y-21340691D01*
X33819799Y-21226114D01*
X33805436Y-21201237D01*
X34396000Y-21201237D01*
X34396000Y-21750000D01*
X35150000Y-21750000D01*
X35150000Y-22250000D01*
X34396000Y-22250000D01*
X34396000Y-22798762D01*
X34425645Y-22985937D01*
X34484210Y-23166178D01*
X34570247Y-23335034D01*
X34681642Y-23488354D01*
X34681642Y-23488355D01*
X34815644Y-23622357D01*
X34968965Y-23733752D01*
X35137821Y-23819789D01*
X35318055Y-23878351D01*
X35350000Y-23883411D01*
X35350000Y-23035277D01*
X35426306Y-23079333D01*
X35540756Y-23110000D01*
X35659244Y-23110000D01*
X35773694Y-23079333D01*
X35850000Y-23035277D01*
X35850000Y-23883411D01*
X35881944Y-23878351D01*
X36062178Y-23819789D01*
X36231034Y-23733752D01*
X36384354Y-23622357D01*
X36384355Y-23622357D01*
X36518357Y-23488355D01*
X36518357Y-23488354D01*
X36629752Y-23335034D01*
X36715789Y-23166178D01*
X36774354Y-22985937D01*
X36804000Y-22798762D01*
X36804000Y-22250000D01*
X36050000Y-22250000D01*
X36050000Y-21750000D01*
X36804000Y-21750000D01*
X36804000Y-21201237D01*
X36774354Y-21014062D01*
X36715789Y-20833821D01*
X36629752Y-20664965D01*
X36518357Y-20511645D01*
X36518357Y-20511644D01*
X36384355Y-20377642D01*
X36231034Y-20266247D01*
X36062178Y-20180210D01*
X35881936Y-20121646D01*
X35881930Y-20121644D01*
X35850000Y-20116586D01*
X35850000Y-20964722D01*
X35773694Y-20920667D01*
X35659244Y-20890000D01*
X35540756Y-20890000D01*
X35426306Y-20920667D01*
X35350000Y-20964722D01*
X35350000Y-20116586D01*
X35318069Y-20121644D01*
X35318063Y-20121646D01*
X35137821Y-20180210D01*
X34968965Y-20266247D01*
X34815645Y-20377642D01*
X34815644Y-20377642D01*
X34681642Y-20511644D01*
X34681642Y-20511645D01*
X34570247Y-20664965D01*
X34484210Y-20833821D01*
X34425645Y-21014062D01*
X34396000Y-21201237D01*
X33805436Y-21201237D01*
X33760489Y-21123387D01*
X33676613Y-21039511D01*
X33674783Y-21037681D01*
X33641298Y-20976358D01*
X33646282Y-20906666D01*
X33674783Y-20862319D01*
X33703281Y-20833821D01*
X33760489Y-20776613D01*
X33819799Y-20673886D01*
X33850500Y-20559309D01*
X33850500Y-20440691D01*
X33819799Y-20326114D01*
X33760489Y-20223387D01*
X33676613Y-20139511D01*
X33573886Y-20080201D01*
X33459309Y-20049500D01*
X33340691Y-20049500D01*
X33226114Y-20080201D01*
X33226112Y-20080201D01*
X33226112Y-20080202D01*
X33123387Y-20139511D01*
X33123384Y-20139513D01*
X33039513Y-20223384D01*
X33039511Y-20223387D01*
X33014766Y-20266247D01*
X32980201Y-20326114D01*
X32949500Y-20440691D01*
X31250530Y-20440691D01*
X31143995Y-20419500D01*
X31143993Y-20419500D01*
X31006007Y-20419500D01*
X31006005Y-20419500D01*
X30870677Y-20446418D01*
X30870667Y-20446421D01*
X30743195Y-20499221D01*
X30743182Y-20499228D01*
X30628458Y-20575885D01*
X30628454Y-20575888D01*
X30537681Y-20666662D01*
X30476358Y-20700147D01*
X30406666Y-20695163D01*
X30362319Y-20666662D01*
X30271545Y-20575888D01*
X30271541Y-20575885D01*
X30156817Y-20499228D01*
X30156804Y-20499221D01*
X30029332Y-20446421D01*
X30029322Y-20446418D01*
X29893995Y-20419500D01*
X29893993Y-20419500D01*
X29756007Y-20419500D01*
X29756005Y-20419500D01*
X29620677Y-20446418D01*
X29620667Y-20446421D01*
X29493195Y-20499221D01*
X29493182Y-20499228D01*
X29378458Y-20575885D01*
X29378454Y-20575888D01*
X29287681Y-20666662D01*
X29226358Y-20700147D01*
X29156666Y-20695163D01*
X29112319Y-20666662D01*
X29021545Y-20575888D01*
X29021541Y-20575885D01*
X28906817Y-20499228D01*
X28906804Y-20499221D01*
X28779332Y-20446421D01*
X28779322Y-20446418D01*
X28643995Y-20419500D01*
X28643993Y-20419500D01*
X28506007Y-20419500D01*
X28506005Y-20419500D01*
X28370677Y-20446418D01*
X28370667Y-20446421D01*
X28243195Y-20499221D01*
X28243182Y-20499228D01*
X28128458Y-20575885D01*
X28128454Y-20575888D01*
X28037681Y-20666662D01*
X27976358Y-20700147D01*
X27906666Y-20695163D01*
X27862319Y-20666662D01*
X27771545Y-20575888D01*
X27771541Y-20575885D01*
X27656817Y-20499228D01*
X27656804Y-20499221D01*
X27529332Y-20446421D01*
X27529322Y-20446418D01*
X27393995Y-20419500D01*
X27393993Y-20419500D01*
X27256007Y-20419500D01*
X27256005Y-20419500D01*
X27120677Y-20446418D01*
X27120667Y-20446421D01*
X26993195Y-20499221D01*
X26993182Y-20499228D01*
X26878458Y-20575885D01*
X26878454Y-20575888D01*
X26780888Y-20673454D01*
X26780885Y-20673458D01*
X26704228Y-20788182D01*
X26704221Y-20788195D01*
X26651421Y-20915667D01*
X26651418Y-20915677D01*
X26624500Y-21051004D01*
X26624500Y-21051007D01*
X26624500Y-21188993D01*
X26624500Y-21188995D01*
X26624499Y-21188995D01*
X26651418Y-21324322D01*
X26651421Y-21324332D01*
X26704221Y-21451804D01*
X26704228Y-21451817D01*
X26780885Y-21566541D01*
X26780888Y-21566545D01*
X26878454Y-21664111D01*
X26878458Y-21664114D01*
X26993182Y-21740771D01*
X26993195Y-21740778D01*
X27118337Y-21792613D01*
X27120672Y-21793580D01*
X27120676Y-21793580D01*
X27120677Y-21793581D01*
X27256004Y-21820500D01*
X27256007Y-21820500D01*
X27393995Y-21820500D01*
X27485041Y-21802389D01*
X27529328Y-21793580D01*
X27656811Y-21740775D01*
X27771542Y-21664114D01*
X27808185Y-21627471D01*
X27862319Y-21573338D01*
X27923642Y-21539853D01*
X27993334Y-21544837D01*
X28037681Y-21573338D01*
X28128454Y-21664111D01*
X28128458Y-21664114D01*
X28243182Y-21740771D01*
X28243195Y-21740778D01*
X28368337Y-21792613D01*
X28370672Y-21793580D01*
X28370676Y-21793580D01*
X28370677Y-21793581D01*
X28506004Y-21820500D01*
X28506007Y-21820500D01*
X28643995Y-21820500D01*
X28735041Y-21802389D01*
X28779328Y-21793580D01*
X28906811Y-21740775D01*
X29021542Y-21664114D01*
X29052071Y-21633585D01*
X29113393Y-21600099D01*
X29183085Y-21605083D01*
X29239019Y-21646953D01*
X29258696Y-21686213D01*
X29419443Y-22231675D01*
X29424500Y-22266724D01*
X29424500Y-24908206D01*
X29404815Y-24975245D01*
X29397328Y-24985668D01*
X29183493Y-25252962D01*
X29126243Y-25293014D01*
X29086665Y-25299500D01*
X13844437Y-25299500D01*
X13777398Y-25279815D01*
X13756756Y-25263181D01*
X10779895Y-22286319D01*
X10436585Y-21943009D01*
X10432770Y-21936022D01*
X10426313Y-21931363D01*
X10416263Y-21905793D01*
X10403100Y-21881686D01*
X10403015Y-21872085D01*
X10400756Y-21866335D01*
X10402656Y-21831097D01*
X10422606Y-21730995D01*
X10455013Y-21669098D01*
X10515741Y-21634546D01*
X10585509Y-21638311D01*
X10622575Y-21661677D01*
X10623748Y-21660249D01*
X10628458Y-21664114D01*
X10743182Y-21740771D01*
X10743195Y-21740778D01*
X10868337Y-21792613D01*
X10870672Y-21793580D01*
X10870676Y-21793580D01*
X10870677Y-21793581D01*
X11006004Y-21820500D01*
X11006007Y-21820500D01*
X11143995Y-21820500D01*
X11235041Y-21802389D01*
X11279328Y-21793580D01*
X11406811Y-21740775D01*
X11521542Y-21664114D01*
X11619114Y-21566542D01*
X11695775Y-21451811D01*
X11748580Y-21324328D01*
X11775500Y-21188993D01*
X11775500Y-21051007D01*
X11775500Y-21051004D01*
X11748581Y-20915677D01*
X11748580Y-20915676D01*
X11748580Y-20915672D01*
X11739498Y-20893746D01*
X11695778Y-20788195D01*
X11695771Y-20788182D01*
X11619114Y-20673458D01*
X11619111Y-20673454D01*
X11521545Y-20575888D01*
X11521541Y-20575885D01*
X11406817Y-20499228D01*
X11406804Y-20499221D01*
X11279332Y-20446421D01*
X11279322Y-20446418D01*
X11143995Y-20419500D01*
X11143993Y-20419500D01*
X11006007Y-20419500D01*
X11006005Y-20419500D01*
X10870677Y-20446418D01*
X10870667Y-20446421D01*
X10743195Y-20499221D01*
X10743182Y-20499228D01*
X10628458Y-20575885D01*
X10628454Y-20575888D01*
X10537681Y-20666662D01*
X10476358Y-20700147D01*
X10406666Y-20695163D01*
X10362319Y-20666662D01*
X10271545Y-20575888D01*
X10271541Y-20575885D01*
X10156817Y-20499228D01*
X10156804Y-20499221D01*
X10029332Y-20446421D01*
X10029322Y-20446418D01*
X9893995Y-20419500D01*
X9893993Y-20419500D01*
X9756007Y-20419500D01*
X9756005Y-20419500D01*
X9620677Y-20446418D01*
X9620667Y-20446421D01*
X9493195Y-20499221D01*
X9493182Y-20499228D01*
X9378458Y-20575885D01*
X9378454Y-20575888D01*
X9287681Y-20666662D01*
X9226358Y-20700147D01*
X9156666Y-20695163D01*
X9112319Y-20666662D01*
X9021545Y-20575888D01*
X9021541Y-20575885D01*
X8906817Y-20499228D01*
X8906804Y-20499221D01*
X8779332Y-20446421D01*
X8779322Y-20446418D01*
X8643995Y-20419500D01*
X8643993Y-20419500D01*
X8506007Y-20419500D01*
X8506005Y-20419500D01*
X8370677Y-20446418D01*
X8370667Y-20446421D01*
X8243195Y-20499221D01*
X8243182Y-20499228D01*
X8128458Y-20575885D01*
X8128454Y-20575888D01*
X8037681Y-20666662D01*
X7976358Y-20700147D01*
X7906666Y-20695163D01*
X7862319Y-20666662D01*
X7771545Y-20575888D01*
X7771541Y-20575885D01*
X7656817Y-20499228D01*
X7656804Y-20499221D01*
X7529332Y-20446421D01*
X7529322Y-20446418D01*
X7393995Y-20419500D01*
X7393993Y-20419500D01*
X7256007Y-20419500D01*
X7256005Y-20419500D01*
X7120677Y-20446418D01*
X7120667Y-20446421D01*
X6993195Y-20499221D01*
X6993182Y-20499228D01*
X6878458Y-20575885D01*
X6878454Y-20575888D01*
X6780888Y-20673454D01*
X6780885Y-20673458D01*
X6704228Y-20788182D01*
X6704221Y-20788195D01*
X6651421Y-20915667D01*
X6651418Y-20915677D01*
X6624500Y-21051004D01*
X6624500Y-21051007D01*
X6624500Y-21188993D01*
X6624500Y-21188995D01*
X6624499Y-21188995D01*
X6651418Y-21324322D01*
X6651421Y-21324332D01*
X6704221Y-21451804D01*
X6704228Y-21451817D01*
X6780885Y-21566541D01*
X6780888Y-21566545D01*
X6878454Y-21664111D01*
X6878458Y-21664114D01*
X6993182Y-21740771D01*
X6993195Y-21740778D01*
X7118337Y-21792613D01*
X7120672Y-21793580D01*
X7120676Y-21793580D01*
X7120677Y-21793581D01*
X7256004Y-21820500D01*
X7256007Y-21820500D01*
X7393995Y-21820500D01*
X7485041Y-21802389D01*
X7529328Y-21793580D01*
X7656811Y-21740775D01*
X7771542Y-21664114D01*
X7808185Y-21627471D01*
X7862319Y-21573338D01*
X7923642Y-21539853D01*
X7993334Y-21544837D01*
X8037681Y-21573338D01*
X8128454Y-21664111D01*
X8128458Y-21664114D01*
X8243182Y-21740771D01*
X8243195Y-21740778D01*
X8368337Y-21792613D01*
X8370672Y-21793580D01*
X8370676Y-21793580D01*
X8370677Y-21793581D01*
X8506004Y-21820500D01*
X8506007Y-21820500D01*
X8643995Y-21820500D01*
X8735041Y-21802389D01*
X8779328Y-21793580D01*
X8906811Y-21740775D01*
X9021542Y-21664114D01*
X9100123Y-21585532D01*
X9122112Y-21573525D01*
X9141822Y-21558055D01*
X9152251Y-21557068D01*
X9161444Y-21552049D01*
X9186434Y-21553836D01*
X9211381Y-21551477D01*
X9220687Y-21556285D01*
X9231136Y-21557033D01*
X9251195Y-21572048D01*
X9273454Y-21583550D01*
X9283278Y-21596065D01*
X9287070Y-21598904D01*
X9295246Y-21611311D01*
X9400257Y-21793580D01*
X9407944Y-21806921D01*
X9424500Y-21868823D01*
X9424500Y-21950544D01*
X9435493Y-21991572D01*
X9451793Y-22052406D01*
X9504522Y-22143733D01*
X9732372Y-22371582D01*
X9738959Y-22378169D01*
X9739420Y-22378771D01*
X9739445Y-22378805D01*
X9740089Y-22379299D01*
X9745846Y-22385056D01*
X13302362Y-25941571D01*
X13302372Y-25941582D01*
X13381271Y-26020481D01*
X13426933Y-26046843D01*
X13426935Y-26046845D01*
X13461604Y-26066861D01*
X13472595Y-26073207D01*
X13574456Y-26100500D01*
X13574458Y-26100500D01*
X45752725Y-26100500D01*
X45752727Y-26100500D01*
X45854588Y-26073207D01*
X45945913Y-26020480D01*
X49627391Y-22339001D01*
X49649842Y-22323026D01*
X49756696Y-22209696D01*
X50145480Y-21820913D01*
X50173335Y-21772666D01*
X50190496Y-21749609D01*
X50198826Y-21740775D01*
X50250271Y-21686212D01*
X50264176Y-21671465D01*
X50267317Y-21668534D01*
X50267219Y-21668436D01*
X50271538Y-21664116D01*
X50271542Y-21664114D01*
X50362321Y-21573334D01*
X50423640Y-21539852D01*
X50493332Y-21544836D01*
X50537680Y-21573337D01*
X50628454Y-21664111D01*
X50628458Y-21664114D01*
X50743182Y-21740771D01*
X50743195Y-21740778D01*
X50868337Y-21792613D01*
X50870672Y-21793580D01*
X50870676Y-21793580D01*
X50870677Y-21793581D01*
X51006004Y-21820500D01*
X51006007Y-21820500D01*
X51143995Y-21820500D01*
X51235041Y-21802389D01*
X51279328Y-21793580D01*
X51406811Y-21740775D01*
X51521542Y-21664114D01*
X51619114Y-21566542D01*
X51695775Y-21451811D01*
X51748580Y-21324328D01*
X51773064Y-21201237D01*
X54396000Y-21201237D01*
X54396000Y-21750000D01*
X55150000Y-21750000D01*
X55150000Y-22250000D01*
X54396000Y-22250000D01*
X54396000Y-22798762D01*
X54425645Y-22985937D01*
X54484210Y-23166178D01*
X54570247Y-23335034D01*
X54681642Y-23488354D01*
X54681642Y-23488355D01*
X54815644Y-23622357D01*
X54968965Y-23733752D01*
X55137821Y-23819789D01*
X55318055Y-23878351D01*
X55350000Y-23883411D01*
X55350000Y-23035277D01*
X55426306Y-23079333D01*
X55540756Y-23110000D01*
X55659244Y-23110000D01*
X55773694Y-23079333D01*
X55850000Y-23035277D01*
X55850000Y-23883410D01*
X55881944Y-23878351D01*
X56062178Y-23819789D01*
X56231034Y-23733752D01*
X56384354Y-23622357D01*
X56384355Y-23622357D01*
X56518357Y-23488355D01*
X56518357Y-23488354D01*
X56629752Y-23335034D01*
X56715789Y-23166178D01*
X56774354Y-22985937D01*
X56804000Y-22798762D01*
X56804000Y-22250000D01*
X56050000Y-22250000D01*
X56050000Y-21750000D01*
X56804000Y-21750000D01*
X56804000Y-21201237D01*
X56774354Y-21014062D01*
X56715789Y-20833821D01*
X56629752Y-20664965D01*
X56518357Y-20511645D01*
X56518357Y-20511644D01*
X56384355Y-20377642D01*
X56231034Y-20266247D01*
X56062178Y-20180210D01*
X55881936Y-20121646D01*
X55881930Y-20121644D01*
X55850000Y-20116586D01*
X55850000Y-20964722D01*
X55773694Y-20920667D01*
X55659244Y-20890000D01*
X55540756Y-20890000D01*
X55426306Y-20920667D01*
X55350000Y-20964722D01*
X55350000Y-20116586D01*
X55318069Y-20121644D01*
X55318063Y-20121646D01*
X55137821Y-20180210D01*
X54968965Y-20266247D01*
X54815645Y-20377642D01*
X54815644Y-20377642D01*
X54681642Y-20511644D01*
X54681642Y-20511645D01*
X54570247Y-20664965D01*
X54484210Y-20833821D01*
X54425645Y-21014062D01*
X54396000Y-21201237D01*
X51773064Y-21201237D01*
X51775500Y-21188993D01*
X51775500Y-21051007D01*
X51775500Y-21051004D01*
X51748581Y-20915677D01*
X51748580Y-20915676D01*
X51748580Y-20915672D01*
X51739498Y-20893746D01*
X51695778Y-20788195D01*
X51695771Y-20788182D01*
X51619114Y-20673458D01*
X51619111Y-20673454D01*
X51521545Y-20575888D01*
X51521541Y-20575885D01*
X51406817Y-20499228D01*
X51406804Y-20499221D01*
X51279332Y-20446421D01*
X51279322Y-20446418D01*
X51143995Y-20419500D01*
X51143993Y-20419500D01*
X51006007Y-20419500D01*
X51006005Y-20419500D01*
X50870677Y-20446418D01*
X50870667Y-20446421D01*
X50743195Y-20499221D01*
X50743182Y-20499228D01*
X50628458Y-20575885D01*
X50628453Y-20575889D01*
X50597925Y-20606417D01*
X50536601Y-20639902D01*
X50466910Y-20634916D01*
X50410977Y-20593044D01*
X50391302Y-20553787D01*
X50391302Y-20553786D01*
X50280399Y-20177460D01*
X50280331Y-20107592D01*
X50311660Y-20054731D01*
X51202321Y-19164071D01*
X53449499Y-19164071D01*
X53474497Y-19289738D01*
X53474499Y-19289744D01*
X53523533Y-19408124D01*
X53523538Y-19408133D01*
X53594723Y-19514668D01*
X53594726Y-19514672D01*
X53685327Y-19605273D01*
X53685331Y-19605276D01*
X53791866Y-19676461D01*
X53791872Y-19676464D01*
X53791873Y-19676465D01*
X53910256Y-19725501D01*
X53910260Y-19725501D01*
X53910261Y-19725502D01*
X54035928Y-19750500D01*
X54035931Y-19750500D01*
X54164071Y-19750500D01*
X54271716Y-19729087D01*
X54289744Y-19725501D01*
X54408127Y-19676465D01*
X54514669Y-19605276D01*
X54605276Y-19514669D01*
X54676465Y-19408127D01*
X54725501Y-19289744D01*
X54750500Y-19164069D01*
X54750500Y-19035931D01*
X54750500Y-19035928D01*
X54725502Y-18910261D01*
X54725501Y-18910260D01*
X54725501Y-18910256D01*
X54676465Y-18791873D01*
X54676464Y-18791872D01*
X54676461Y-18791866D01*
X54605276Y-18685331D01*
X54605273Y-18685327D01*
X54514672Y-18594726D01*
X54514668Y-18594723D01*
X54408133Y-18523538D01*
X54408124Y-18523533D01*
X54289744Y-18474499D01*
X54289738Y-18474497D01*
X54164071Y-18449500D01*
X54164069Y-18449500D01*
X54035931Y-18449500D01*
X54035929Y-18449500D01*
X53910261Y-18474497D01*
X53910255Y-18474499D01*
X53791875Y-18523533D01*
X53791866Y-18523538D01*
X53685331Y-18594723D01*
X53685327Y-18594726D01*
X53594726Y-18685327D01*
X53594723Y-18685331D01*
X53523538Y-18791866D01*
X53523533Y-18791875D01*
X53474499Y-18910255D01*
X53474497Y-18910261D01*
X53449500Y-19035928D01*
X53449500Y-19035931D01*
X53449500Y-19164069D01*
X53449500Y-19164071D01*
X53449499Y-19164071D01*
X51202321Y-19164071D01*
X52031488Y-18334905D01*
X54899500Y-18334905D01*
X54899500Y-18453523D01*
X54930201Y-18568100D01*
X54989511Y-18670827D01*
X55073387Y-18754703D01*
X55176114Y-18814013D01*
X55290691Y-18844714D01*
X55290694Y-18844714D01*
X55409306Y-18844714D01*
X55409309Y-18844714D01*
X55523886Y-18814013D01*
X55626613Y-18754703D01*
X55710489Y-18670827D01*
X55769799Y-18568100D01*
X55800500Y-18453523D01*
X55800500Y-18334905D01*
X55769799Y-18220328D01*
X55710489Y-18117601D01*
X55626613Y-18033725D01*
X55523886Y-17974415D01*
X55409309Y-17943714D01*
X55290691Y-17943714D01*
X55176114Y-17974415D01*
X55176112Y-17974415D01*
X55176112Y-17974416D01*
X55073387Y-18033725D01*
X55073384Y-18033727D01*
X54989513Y-18117598D01*
X54989511Y-18117601D01*
X54930201Y-18220328D01*
X54899500Y-18334905D01*
X52031488Y-18334905D01*
X52520480Y-17845913D01*
X52520480Y-17845912D01*
X55135703Y-15230687D01*
X55135708Y-15230684D01*
X55145911Y-15220480D01*
X55145913Y-15220480D01*
X55220480Y-15145913D01*
X55273207Y-15054587D01*
X55300501Y-14952727D01*
X55300501Y-14847273D01*
X55300501Y-14839678D01*
X55300500Y-14839660D01*
X55300500Y-12376611D01*
X55320185Y-12309572D01*
X55372989Y-12263817D01*
X55442147Y-12253873D01*
X55505703Y-12282898D01*
X55542432Y-12338294D01*
X55548906Y-12358221D01*
X55645375Y-12547550D01*
X55684728Y-12601716D01*
X56317037Y-11969408D01*
X56334075Y-12032993D01*
X56399901Y-12147007D01*
X56492993Y-12240099D01*
X56607007Y-12305925D01*
X56670590Y-12322962D01*
X56038282Y-12955269D01*
X56038282Y-12955270D01*
X56092449Y-12994624D01*
X56281782Y-13091095D01*
X56483870Y-13156757D01*
X56693754Y-13190000D01*
X56906246Y-13190000D01*
X57116127Y-13156757D01*
X57116130Y-13156757D01*
X57318217Y-13091095D01*
X57507554Y-12994622D01*
X57561716Y-12955270D01*
X57561717Y-12955270D01*
X56929408Y-12322962D01*
X56992993Y-12305925D01*
X57107007Y-12240099D01*
X57200099Y-12147007D01*
X57265925Y-12032993D01*
X57282962Y-11969408D01*
X57915270Y-12601717D01*
X57915270Y-12601716D01*
X57954622Y-12547554D01*
X58051095Y-12358217D01*
X58116756Y-12156132D01*
X58122068Y-12122592D01*
X58151996Y-12059456D01*
X58211307Y-12022524D01*
X58281170Y-12023520D01*
X58339403Y-12062129D01*
X58367519Y-12126092D01*
X58368542Y-12142308D01*
X58356903Y-16635152D01*
X58337044Y-16702140D01*
X58284122Y-16747758D01*
X58252302Y-16757304D01*
X58107172Y-16780291D01*
X57919970Y-16841117D01*
X57744594Y-16930476D01*
X57653741Y-16996485D01*
X57585354Y-17046172D01*
X57585352Y-17046174D01*
X57585351Y-17046174D01*
X57446174Y-17185351D01*
X57446174Y-17185352D01*
X57446172Y-17185354D01*
X57396485Y-17253741D01*
X57330476Y-17344594D01*
X57241117Y-17519970D01*
X57180290Y-17707173D01*
X57149500Y-17901577D01*
X57149500Y-18098422D01*
X57180290Y-18292826D01*
X57241117Y-18480029D01*
X57330476Y-18655405D01*
X57446172Y-18814646D01*
X57585354Y-18953828D01*
X57744595Y-19069524D01*
X57827455Y-19111743D01*
X57919970Y-19158882D01*
X57919972Y-19158882D01*
X57919975Y-19158884D01*
X58020317Y-19191487D01*
X58107173Y-19219709D01*
X58245230Y-19241575D01*
X58308365Y-19271504D01*
X58345296Y-19330816D01*
X58349832Y-19364369D01*
X58306107Y-36242143D01*
X58286248Y-36309131D01*
X58269788Y-36329503D01*
X56031571Y-38567720D01*
X55970248Y-38601205D01*
X55944103Y-38604039D01*
X2547910Y-38695628D01*
X2480837Y-38676058D01*
X2460016Y-38659309D01*
X36819Y-36236112D01*
X3334Y-36174789D01*
X500Y-36148431D01*
X500Y-35442155D01*
X7650000Y-35442155D01*
X7650000Y-36290000D01*
X8526069Y-36290000D01*
X8500000Y-36421056D01*
X8500000Y-36658944D01*
X8526069Y-36790000D01*
X7650000Y-36790000D01*
X7650000Y-37637844D01*
X7656401Y-37697372D01*
X7656403Y-37697379D01*
X7706645Y-37832086D01*
X7706649Y-37832093D01*
X7792809Y-37947187D01*
X7792812Y-37947190D01*
X7907906Y-38033350D01*
X7907913Y-38033354D01*
X8042620Y-38083596D01*
X8042627Y-38083598D01*
X8102155Y-38089999D01*
X8102172Y-38090000D01*
X8950000Y-38090000D01*
X8950000Y-37244120D01*
X8995818Y-37263099D01*
X9131056Y-37290000D01*
X9268944Y-37290000D01*
X9404182Y-37263099D01*
X9450000Y-37244120D01*
X9450000Y-38090000D01*
X10297828Y-38090000D01*
X10297844Y-38089999D01*
X10357372Y-38083598D01*
X10357379Y-38083596D01*
X10492086Y-38033354D01*
X10492093Y-38033350D01*
X10607187Y-37947190D01*
X10607190Y-37947187D01*
X10693350Y-37832093D01*
X10693354Y-37832086D01*
X10743596Y-37697379D01*
X10743598Y-37697372D01*
X10749999Y-37637844D01*
X10750000Y-37637827D01*
X10750000Y-36790000D01*
X9873931Y-36790000D01*
X9900000Y-36658944D01*
X9900000Y-36421056D01*
X9873931Y-36290000D01*
X10750000Y-36290000D01*
X10750000Y-35442172D01*
X10749999Y-35442155D01*
X27650000Y-35442155D01*
X27650000Y-36290000D01*
X28526069Y-36290000D01*
X28500000Y-36421056D01*
X28500000Y-36658944D01*
X28526069Y-36790000D01*
X27650000Y-36790000D01*
X27650000Y-37637844D01*
X27656401Y-37697372D01*
X27656403Y-37697379D01*
X27706645Y-37832086D01*
X27706649Y-37832093D01*
X27792809Y-37947187D01*
X27792812Y-37947190D01*
X27907906Y-38033350D01*
X27907913Y-38033354D01*
X28042620Y-38083596D01*
X28042627Y-38083598D01*
X28102155Y-38089999D01*
X28102172Y-38090000D01*
X28950000Y-38090000D01*
X28950000Y-37244120D01*
X28995818Y-37263099D01*
X29131056Y-37290000D01*
X29268944Y-37290000D01*
X29404182Y-37263099D01*
X29450000Y-37244120D01*
X29450000Y-38090000D01*
X30297828Y-38090000D01*
X30297844Y-38089999D01*
X30357372Y-38083598D01*
X30357379Y-38083596D01*
X30492086Y-38033354D01*
X30492093Y-38033350D01*
X30607187Y-37947190D01*
X30607190Y-37947187D01*
X30693350Y-37832093D01*
X30693354Y-37832086D01*
X30743596Y-37697379D01*
X30743598Y-37697372D01*
X30749999Y-37637844D01*
X30750000Y-37637827D01*
X30750000Y-36790000D01*
X29873931Y-36790000D01*
X29900000Y-36658944D01*
X29900000Y-36421056D01*
X29873931Y-36290000D01*
X30750000Y-36290000D01*
X30750000Y-35442172D01*
X30749999Y-35442155D01*
X47650000Y-35442155D01*
X47650000Y-36290000D01*
X48526069Y-36290000D01*
X48500000Y-36421056D01*
X48500000Y-36658944D01*
X48526069Y-36790000D01*
X47650000Y-36790000D01*
X47650000Y-37637844D01*
X47656401Y-37697372D01*
X47656403Y-37697379D01*
X47706645Y-37832086D01*
X47706649Y-37832093D01*
X47792809Y-37947187D01*
X47792812Y-37947190D01*
X47907906Y-38033350D01*
X47907913Y-38033354D01*
X48042620Y-38083596D01*
X48042627Y-38083598D01*
X48102155Y-38089999D01*
X48102172Y-38090000D01*
X48950000Y-38090000D01*
X48950000Y-37244120D01*
X48995818Y-37263099D01*
X49131056Y-37290000D01*
X49268944Y-37290000D01*
X49404182Y-37263099D01*
X49450000Y-37244120D01*
X49450000Y-38090000D01*
X50297828Y-38090000D01*
X50297844Y-38089999D01*
X50357372Y-38083598D01*
X50357379Y-38083596D01*
X50492086Y-38033354D01*
X50492093Y-38033350D01*
X50607187Y-37947190D01*
X50607190Y-37947187D01*
X50693350Y-37832093D01*
X50693354Y-37832086D01*
X50743596Y-37697379D01*
X50743598Y-37697372D01*
X50749999Y-37637844D01*
X50750000Y-37637827D01*
X50750000Y-36790000D01*
X49873931Y-36790000D01*
X49900000Y-36658944D01*
X49900000Y-36421056D01*
X49873931Y-36290000D01*
X50750000Y-36290000D01*
X50750000Y-35442172D01*
X50749999Y-35442155D01*
X50743598Y-35382627D01*
X50743596Y-35382620D01*
X50693354Y-35247913D01*
X50693350Y-35247906D01*
X50607190Y-35132812D01*
X50607187Y-35132809D01*
X50492093Y-35046649D01*
X50492086Y-35046645D01*
X50357379Y-34996403D01*
X50357372Y-34996401D01*
X50297844Y-34990000D01*
X49450000Y-34990000D01*
X49450000Y-35835879D01*
X49404182Y-35816901D01*
X49268944Y-35790000D01*
X49131056Y-35790000D01*
X48995818Y-35816901D01*
X48950000Y-35835879D01*
X48950000Y-34990000D01*
X48102155Y-34990000D01*
X48042627Y-34996401D01*
X48042620Y-34996403D01*
X47907913Y-35046645D01*
X47907906Y-35046649D01*
X47792812Y-35132809D01*
X47792809Y-35132812D01*
X47706649Y-35247906D01*
X47706645Y-35247913D01*
X47656403Y-35382620D01*
X47656401Y-35382627D01*
X47650000Y-35442155D01*
X30749999Y-35442155D01*
X30743598Y-35382627D01*
X30743596Y-35382620D01*
X30693354Y-35247913D01*
X30693350Y-35247906D01*
X30607190Y-35132812D01*
X30607187Y-35132809D01*
X30492093Y-35046649D01*
X30492086Y-35046645D01*
X30357379Y-34996403D01*
X30357372Y-34996401D01*
X30297844Y-34990000D01*
X29450000Y-34990000D01*
X29450000Y-35835879D01*
X29404182Y-35816901D01*
X29268944Y-35790000D01*
X29131056Y-35790000D01*
X28995818Y-35816901D01*
X28950000Y-35835879D01*
X28950000Y-34990000D01*
X28102155Y-34990000D01*
X28042627Y-34996401D01*
X28042620Y-34996403D01*
X27907913Y-35046645D01*
X27907906Y-35046649D01*
X27792812Y-35132809D01*
X27792809Y-35132812D01*
X27706649Y-35247906D01*
X27706645Y-35247913D01*
X27656403Y-35382620D01*
X27656401Y-35382627D01*
X27650000Y-35442155D01*
X10749999Y-35442155D01*
X10743598Y-35382627D01*
X10743596Y-35382620D01*
X10693354Y-35247913D01*
X10693350Y-35247906D01*
X10607190Y-35132812D01*
X10607187Y-35132809D01*
X10492093Y-35046649D01*
X10492086Y-35046645D01*
X10357379Y-34996403D01*
X10357372Y-34996401D01*
X10297844Y-34990000D01*
X9450000Y-34990000D01*
X9450000Y-35835879D01*
X9404182Y-35816901D01*
X9268944Y-35790000D01*
X9131056Y-35790000D01*
X8995818Y-35816901D01*
X8950000Y-35835879D01*
X8950000Y-34990000D01*
X8102155Y-34990000D01*
X8042627Y-34996401D01*
X8042620Y-34996403D01*
X7907913Y-35046645D01*
X7907906Y-35046649D01*
X7792812Y-35132809D01*
X7792809Y-35132812D01*
X7706649Y-35247906D01*
X7706645Y-35247913D01*
X7656403Y-35382620D01*
X7656401Y-35382627D01*
X7650000Y-35442155D01*
X500Y-35442155D01*
X500Y-32364071D01*
X43749499Y-32364071D01*
X43774497Y-32489738D01*
X43774499Y-32489744D01*
X43823533Y-32608124D01*
X43823538Y-32608133D01*
X43894723Y-32714668D01*
X43894726Y-32714672D01*
X43985327Y-32805273D01*
X43985331Y-32805276D01*
X44091866Y-32876461D01*
X44091872Y-32876464D01*
X44091873Y-32876465D01*
X44210256Y-32925501D01*
X44210260Y-32925501D01*
X44210261Y-32925502D01*
X44335928Y-32950500D01*
X44335931Y-32950500D01*
X44464071Y-32950500D01*
X44548615Y-32933682D01*
X44589744Y-32925501D01*
X44708127Y-32876465D01*
X44814669Y-32805276D01*
X44905276Y-32714669D01*
X44976465Y-32608127D01*
X45025501Y-32489744D01*
X45050500Y-32364069D01*
X45050500Y-32235931D01*
X45050500Y-32235928D01*
X45025502Y-32110261D01*
X45025501Y-32110260D01*
X45025501Y-32110256D01*
X44976465Y-31991873D01*
X44976464Y-31991872D01*
X44976461Y-31991866D01*
X44905276Y-31885331D01*
X44905273Y-31885327D01*
X44814672Y-31794726D01*
X44814668Y-31794723D01*
X44708133Y-31723538D01*
X44708124Y-31723533D01*
X44589744Y-31674499D01*
X44589738Y-31674497D01*
X44464071Y-31649500D01*
X44464069Y-31649500D01*
X44335931Y-31649500D01*
X44335929Y-31649500D01*
X44210261Y-31674497D01*
X44210255Y-31674499D01*
X44091875Y-31723533D01*
X44091866Y-31723538D01*
X43985331Y-31794723D01*
X43985327Y-31794726D01*
X43894726Y-31885327D01*
X43894723Y-31885331D01*
X43823538Y-31991866D01*
X43823533Y-31991875D01*
X43774499Y-32110255D01*
X43774497Y-32110261D01*
X43749500Y-32235928D01*
X43749500Y-32235931D01*
X43749500Y-32364069D01*
X43749500Y-32364071D01*
X43749499Y-32364071D01*
X500Y-32364071D01*
X500Y-28701237D01*
X1596000Y-28701237D01*
X1596000Y-29250000D01*
X2350000Y-29250000D01*
X2350000Y-29750000D01*
X1596000Y-29750000D01*
X1596000Y-30298762D01*
X1625645Y-30485937D01*
X1684210Y-30666178D01*
X1770247Y-30835034D01*
X1881642Y-30988354D01*
X1881642Y-30988355D01*
X2015644Y-31122357D01*
X2168965Y-31233752D01*
X2337821Y-31319789D01*
X2518055Y-31378351D01*
X2550000Y-31383411D01*
X2550000Y-30535277D01*
X2626306Y-30579333D01*
X2740756Y-30610000D01*
X2859244Y-30610000D01*
X2973694Y-30579333D01*
X3050000Y-30535277D01*
X3050000Y-31383410D01*
X3081944Y-31378351D01*
X3262178Y-31319789D01*
X3431034Y-31233752D01*
X3584354Y-31122357D01*
X3584355Y-31122357D01*
X3718357Y-30988355D01*
X3718357Y-30988354D01*
X3829752Y-30835034D01*
X3915789Y-30666178D01*
X3974354Y-30485937D01*
X4004000Y-30298762D01*
X4004000Y-29750000D01*
X3250000Y-29750000D01*
X3250000Y-29250000D01*
X4004000Y-29250000D01*
X4004000Y-28701236D01*
X4002017Y-28688713D01*
X5144838Y-28688713D01*
X5196006Y-28722903D01*
X5196009Y-28722905D01*
X5389642Y-28803110D01*
X5389650Y-28803112D01*
X5595200Y-28843999D01*
X5595203Y-28844000D01*
X5804797Y-28844000D01*
X5804799Y-28843999D01*
X6010349Y-28803112D01*
X6010357Y-28803110D01*
X6203990Y-28722905D01*
X6236419Y-28701237D01*
X14396000Y-28701237D01*
X14396000Y-29250000D01*
X15150000Y-29250000D01*
X15150000Y-29750000D01*
X14396000Y-29750000D01*
X14396000Y-30298762D01*
X14425645Y-30485937D01*
X14484210Y-30666178D01*
X14570247Y-30835034D01*
X14681642Y-30988354D01*
X14681642Y-30988355D01*
X14815644Y-31122357D01*
X14968965Y-31233752D01*
X15137821Y-31319789D01*
X15318055Y-31378351D01*
X15350000Y-31383411D01*
X15350000Y-30535277D01*
X15426306Y-30579333D01*
X15540756Y-30610000D01*
X15659244Y-30610000D01*
X15773694Y-30579333D01*
X15850000Y-30535277D01*
X15850000Y-31383410D01*
X15881944Y-31378351D01*
X16062178Y-31319789D01*
X16231034Y-31233752D01*
X16384354Y-31122357D01*
X16384355Y-31122357D01*
X16518357Y-30988355D01*
X16518357Y-30988354D01*
X16629752Y-30835034D01*
X16715789Y-30666178D01*
X16774354Y-30485937D01*
X16804000Y-30298762D01*
X16804000Y-29750000D01*
X16050000Y-29750000D01*
X16050000Y-29250000D01*
X16804000Y-29250000D01*
X16804000Y-28701237D01*
X21596000Y-28701237D01*
X21596000Y-29250000D01*
X22350000Y-29250000D01*
X22350000Y-29750000D01*
X21596000Y-29750000D01*
X21596000Y-30298762D01*
X21625645Y-30485937D01*
X21684210Y-30666178D01*
X21770247Y-30835034D01*
X21881642Y-30988354D01*
X21881642Y-30988355D01*
X22015644Y-31122357D01*
X22168965Y-31233752D01*
X22337821Y-31319789D01*
X22518055Y-31378351D01*
X22550000Y-31383411D01*
X22550000Y-30535277D01*
X22626306Y-30579333D01*
X22740756Y-30610000D01*
X22859244Y-30610000D01*
X22973694Y-30579333D01*
X23050000Y-30535277D01*
X23050000Y-31383411D01*
X23081944Y-31378351D01*
X23262178Y-31319789D01*
X23431034Y-31233752D01*
X23584354Y-31122357D01*
X23584355Y-31122357D01*
X23718357Y-30988355D01*
X23718357Y-30988354D01*
X23829752Y-30835034D01*
X23915789Y-30666178D01*
X23974354Y-30485937D01*
X24004000Y-30298762D01*
X24004000Y-29750000D01*
X23250000Y-29750000D01*
X23250000Y-29250000D01*
X24004000Y-29250000D01*
X24004000Y-28701236D01*
X24002017Y-28688713D01*
X25144838Y-28688713D01*
X25196006Y-28722903D01*
X25196009Y-28722905D01*
X25389642Y-28803110D01*
X25389650Y-28803112D01*
X25595200Y-28843999D01*
X25595203Y-28844000D01*
X25804797Y-28844000D01*
X25804799Y-28843999D01*
X26010349Y-28803112D01*
X26010357Y-28803110D01*
X26203990Y-28722905D01*
X26236419Y-28701237D01*
X34396000Y-28701237D01*
X34396000Y-29250000D01*
X35150000Y-29250000D01*
X35150000Y-29750000D01*
X34396000Y-29750000D01*
X34396000Y-30298762D01*
X34425645Y-30485937D01*
X34484210Y-30666178D01*
X34570247Y-30835034D01*
X34681642Y-30988354D01*
X34681642Y-30988355D01*
X34815644Y-31122357D01*
X34968965Y-31233752D01*
X35137821Y-31319789D01*
X35318055Y-31378351D01*
X35350000Y-31383411D01*
X35350000Y-30535277D01*
X35426306Y-30579333D01*
X35540756Y-30610000D01*
X35659244Y-30610000D01*
X35773694Y-30579333D01*
X35850000Y-30535277D01*
X35850000Y-31383411D01*
X35881944Y-31378351D01*
X36062178Y-31319789D01*
X36231034Y-31233752D01*
X36384354Y-31122357D01*
X36384355Y-31122357D01*
X36518357Y-30988355D01*
X36518357Y-30988354D01*
X36629752Y-30835034D01*
X36715789Y-30666178D01*
X36774354Y-30485937D01*
X36804000Y-30298762D01*
X36804000Y-29750000D01*
X36050000Y-29750000D01*
X36050000Y-29250000D01*
X36804000Y-29250000D01*
X36804000Y-28764071D01*
X38549499Y-28764071D01*
X38574497Y-28889738D01*
X38574499Y-28889744D01*
X38623533Y-29008124D01*
X38623538Y-29008133D01*
X38694723Y-29114668D01*
X38694726Y-29114672D01*
X38785327Y-29205273D01*
X38785331Y-29205276D01*
X38891866Y-29276461D01*
X38891872Y-29276464D01*
X38891873Y-29276465D01*
X39010256Y-29325501D01*
X39010260Y-29325501D01*
X39010261Y-29325502D01*
X39135928Y-29350500D01*
X39135931Y-29350500D01*
X39264071Y-29350500D01*
X39348615Y-29333682D01*
X39389744Y-29325501D01*
X39508127Y-29276465D01*
X39614669Y-29205276D01*
X39705276Y-29114669D01*
X39776465Y-29008127D01*
X39825501Y-28889744D01*
X39834600Y-28844000D01*
X39850500Y-28764071D01*
X39850500Y-28701237D01*
X41596000Y-28701237D01*
X41596000Y-29250000D01*
X42350000Y-29250000D01*
X42350000Y-29750000D01*
X41596000Y-29750000D01*
X41596000Y-30298762D01*
X41625645Y-30485937D01*
X41684210Y-30666178D01*
X41770247Y-30835034D01*
X41881642Y-30988354D01*
X41881642Y-30988355D01*
X42015644Y-31122357D01*
X42168965Y-31233752D01*
X42337821Y-31319789D01*
X42518055Y-31378351D01*
X42550000Y-31383411D01*
X42550000Y-30535277D01*
X42626306Y-30579333D01*
X42740756Y-30610000D01*
X42859244Y-30610000D01*
X42973694Y-30579333D01*
X43050000Y-30535277D01*
X43050000Y-31383410D01*
X43081944Y-31378351D01*
X43262178Y-31319789D01*
X43431034Y-31233752D01*
X43584354Y-31122357D01*
X43584355Y-31122357D01*
X43718357Y-30988355D01*
X43718357Y-30988354D01*
X43829752Y-30835034D01*
X43915789Y-30666178D01*
X43974354Y-30485937D01*
X44004000Y-30298762D01*
X44004000Y-29750000D01*
X43250000Y-29750000D01*
X43250000Y-29250000D01*
X44004000Y-29250000D01*
X44004000Y-28701236D01*
X44002017Y-28688713D01*
X45144838Y-28688713D01*
X45196006Y-28722903D01*
X45196009Y-28722905D01*
X45389642Y-28803110D01*
X45389650Y-28803112D01*
X45595200Y-28843999D01*
X45595203Y-28844000D01*
X45804797Y-28844000D01*
X45804799Y-28843999D01*
X46010349Y-28803112D01*
X46010357Y-28803110D01*
X46203990Y-28722905D01*
X46236419Y-28701237D01*
X54396000Y-28701237D01*
X54396000Y-29250000D01*
X55150000Y-29250000D01*
X55150000Y-29750000D01*
X54396000Y-29750000D01*
X54396000Y-30298762D01*
X54425645Y-30485937D01*
X54484210Y-30666178D01*
X54570247Y-30835034D01*
X54681642Y-30988354D01*
X54681642Y-30988355D01*
X54815644Y-31122357D01*
X54968965Y-31233752D01*
X55137821Y-31319789D01*
X55318055Y-31378351D01*
X55350000Y-31383411D01*
X55350000Y-30535277D01*
X55426306Y-30579333D01*
X55540756Y-30610000D01*
X55659244Y-30610000D01*
X55773694Y-30579333D01*
X55850000Y-30535277D01*
X55850000Y-31383410D01*
X55881944Y-31378351D01*
X56062178Y-31319789D01*
X56231034Y-31233752D01*
X56384354Y-31122357D01*
X56384355Y-31122357D01*
X56518357Y-30988355D01*
X56518357Y-30988354D01*
X56629752Y-30835034D01*
X56715789Y-30666178D01*
X56774354Y-30485937D01*
X56804000Y-30298762D01*
X56804000Y-29750000D01*
X56050000Y-29750000D01*
X56050000Y-29250000D01*
X56804000Y-29250000D01*
X56804000Y-28701237D01*
X56774354Y-28514062D01*
X56715789Y-28333821D01*
X56629752Y-28164965D01*
X56518357Y-28011645D01*
X56518357Y-28011644D01*
X56384355Y-27877642D01*
X56231034Y-27766247D01*
X56062178Y-27680210D01*
X55881936Y-27621646D01*
X55881930Y-27621644D01*
X55850000Y-27616586D01*
X55850000Y-28464722D01*
X55773694Y-28420667D01*
X55659244Y-28390000D01*
X55540756Y-28390000D01*
X55426306Y-28420667D01*
X55350000Y-28464722D01*
X55350000Y-27616586D01*
X55318069Y-27621644D01*
X55318063Y-27621646D01*
X55137821Y-27680210D01*
X54968965Y-27766247D01*
X54815645Y-27877642D01*
X54815644Y-27877642D01*
X54681642Y-28011644D01*
X54681642Y-28011645D01*
X54570247Y-28164965D01*
X54484210Y-28333821D01*
X54425645Y-28514062D01*
X54396000Y-28701237D01*
X46236419Y-28701237D01*
X46255161Y-28688714D01*
X45700001Y-28133553D01*
X45700000Y-28133553D01*
X45144838Y-28688713D01*
X44002017Y-28688713D01*
X43997770Y-28661900D01*
X43974354Y-28514062D01*
X43915789Y-28333821D01*
X43829752Y-28164965D01*
X43718357Y-28011645D01*
X43718357Y-28011644D01*
X43584355Y-27877642D01*
X43435416Y-27769431D01*
X43435415Y-27769430D01*
X43431035Y-27766247D01*
X43262178Y-27680210D01*
X43246759Y-27675200D01*
X44636000Y-27675200D01*
X44636000Y-27884799D01*
X44676887Y-28090349D01*
X44676889Y-28090357D01*
X44757095Y-28283991D01*
X44791285Y-28335160D01*
X44791285Y-28335161D01*
X45346446Y-27780000D01*
X45346446Y-27779999D01*
X45305635Y-27739188D01*
X45390000Y-27739188D01*
X45390000Y-27820812D01*
X45411126Y-27899656D01*
X45451938Y-27970344D01*
X45509656Y-28028062D01*
X45580344Y-28068874D01*
X45659188Y-28090000D01*
X45740812Y-28090000D01*
X45819656Y-28068874D01*
X45890344Y-28028062D01*
X45948062Y-27970344D01*
X45988874Y-27899656D01*
X46010000Y-27820812D01*
X46010000Y-27779999D01*
X46053553Y-27779999D01*
X46053553Y-27780000D01*
X46608714Y-28335161D01*
X46642905Y-28283990D01*
X46723110Y-28090357D01*
X46723112Y-28090349D01*
X46763999Y-27884799D01*
X46764000Y-27884797D01*
X46764000Y-27709623D01*
X47485500Y-27709623D01*
X47485500Y-27850376D01*
X47512955Y-27988404D01*
X47512958Y-27988413D01*
X47566814Y-28118436D01*
X47566816Y-28118440D01*
X47566818Y-28118443D01*
X47645012Y-28235467D01*
X47645014Y-28235469D01*
X47645017Y-28235473D01*
X47744526Y-28334982D01*
X47744529Y-28334984D01*
X47744533Y-28334988D01*
X47861557Y-28413182D01*
X47861560Y-28413183D01*
X47861563Y-28413185D01*
X47944773Y-28447651D01*
X47991588Y-28467042D01*
X47991590Y-28467042D01*
X47991595Y-28467044D01*
X48129623Y-28494499D01*
X48129626Y-28494500D01*
X48129628Y-28494500D01*
X48270374Y-28494500D01*
X48270375Y-28494499D01*
X48343721Y-28479910D01*
X48408404Y-28467044D01*
X48408407Y-28467042D01*
X48408412Y-28467042D01*
X48538443Y-28413182D01*
X48655467Y-28334988D01*
X48655473Y-28334982D01*
X48655474Y-28334982D01*
X48754982Y-28235474D01*
X48754982Y-28235473D01*
X48754988Y-28235467D01*
X48833182Y-28118443D01*
X48887042Y-27988412D01*
X48914500Y-27850372D01*
X48914500Y-27709628D01*
X48914500Y-27709625D01*
X48914499Y-27709623D01*
X49485500Y-27709623D01*
X49485500Y-27850376D01*
X49512955Y-27988404D01*
X49512958Y-27988413D01*
X49566814Y-28118436D01*
X49566816Y-28118440D01*
X49566818Y-28118443D01*
X49645012Y-28235467D01*
X49645014Y-28235469D01*
X49645017Y-28235473D01*
X49744526Y-28334982D01*
X49744529Y-28334984D01*
X49744533Y-28334988D01*
X49861557Y-28413182D01*
X49861560Y-28413183D01*
X49861563Y-28413185D01*
X49944773Y-28447651D01*
X49991588Y-28467042D01*
X49991590Y-28467042D01*
X49991595Y-28467044D01*
X50129623Y-28494499D01*
X50129626Y-28494500D01*
X50129628Y-28494500D01*
X50270374Y-28494500D01*
X50270375Y-28494499D01*
X50343721Y-28479910D01*
X50408404Y-28467044D01*
X50408407Y-28467042D01*
X50408412Y-28467042D01*
X50538443Y-28413182D01*
X50655467Y-28334988D01*
X50655473Y-28334982D01*
X50655474Y-28334982D01*
X50754982Y-28235474D01*
X50754982Y-28235473D01*
X50754988Y-28235467D01*
X50833182Y-28118443D01*
X50887042Y-27988412D01*
X50914500Y-27850372D01*
X50914500Y-27709628D01*
X50914500Y-27709625D01*
X50914499Y-27709623D01*
X50887044Y-27571595D01*
X50887041Y-27571586D01*
X50833185Y-27441563D01*
X50833183Y-27441560D01*
X50833182Y-27441557D01*
X50754988Y-27324533D01*
X50754985Y-27324530D01*
X50754982Y-27324526D01*
X50743933Y-27313477D01*
X51985500Y-27313477D01*
X51985500Y-28246510D01*
X51985501Y-28246519D01*
X51988328Y-28270896D01*
X52032347Y-28370590D01*
X52032348Y-28370591D01*
X52109409Y-28447652D01*
X52209105Y-28491672D01*
X52233481Y-28494500D01*
X53166518Y-28494499D01*
X53190895Y-28491672D01*
X53290591Y-28447652D01*
X53367652Y-28370591D01*
X53411672Y-28270895D01*
X53414500Y-28246519D01*
X53414499Y-27313482D01*
X53411672Y-27289105D01*
X53367652Y-27189409D01*
X53290591Y-27112348D01*
X53246670Y-27092955D01*
X53190896Y-27068328D01*
X53166519Y-27065500D01*
X52233489Y-27065500D01*
X52233480Y-27065501D01*
X52209103Y-27068328D01*
X52109409Y-27112347D01*
X52032348Y-27189408D01*
X51988328Y-27289102D01*
X51988328Y-27289104D01*
X51985500Y-27313477D01*
X50743933Y-27313477D01*
X50655473Y-27225017D01*
X50655469Y-27225014D01*
X50655467Y-27225012D01*
X50538443Y-27146818D01*
X50538440Y-27146816D01*
X50538436Y-27146814D01*
X50408413Y-27092958D01*
X50408404Y-27092955D01*
X50270375Y-27065500D01*
X50270372Y-27065500D01*
X50129628Y-27065500D01*
X50129625Y-27065500D01*
X49991595Y-27092955D01*
X49991586Y-27092958D01*
X49861563Y-27146814D01*
X49861557Y-27146817D01*
X49861557Y-27146818D01*
X49744794Y-27224838D01*
X49744526Y-27225017D01*
X49744526Y-27225018D01*
X49645018Y-27324526D01*
X49645017Y-27324526D01*
X49566814Y-27441563D01*
X49512958Y-27571586D01*
X49512955Y-27571595D01*
X49485500Y-27709623D01*
X48914499Y-27709623D01*
X48887044Y-27571595D01*
X48887041Y-27571586D01*
X48833185Y-27441563D01*
X48833183Y-27441560D01*
X48833182Y-27441557D01*
X48754988Y-27324533D01*
X48754984Y-27324529D01*
X48754982Y-27324526D01*
X48655473Y-27225017D01*
X48655469Y-27225014D01*
X48655467Y-27225012D01*
X48538443Y-27146818D01*
X48538440Y-27146816D01*
X48538436Y-27146814D01*
X48408413Y-27092958D01*
X48408404Y-27092955D01*
X48270375Y-27065500D01*
X48270372Y-27065500D01*
X48129628Y-27065500D01*
X48129625Y-27065500D01*
X47991595Y-27092955D01*
X47991586Y-27092958D01*
X47861563Y-27146814D01*
X47861557Y-27146817D01*
X47861557Y-27146818D01*
X47744794Y-27224838D01*
X47744526Y-27225017D01*
X47744526Y-27225018D01*
X47645018Y-27324526D01*
X47645017Y-27324526D01*
X47566814Y-27441563D01*
X47512958Y-27571586D01*
X47512955Y-27571595D01*
X47485500Y-27709623D01*
X46764000Y-27709623D01*
X46764000Y-27675202D01*
X46763999Y-27675200D01*
X46723112Y-27469650D01*
X46723110Y-27469642D01*
X46642905Y-27276009D01*
X46642903Y-27276006D01*
X46608713Y-27224838D01*
X46053553Y-27779999D01*
X46010000Y-27779999D01*
X46010000Y-27739188D01*
X45988874Y-27660344D01*
X45948062Y-27589656D01*
X45890344Y-27531938D01*
X45819656Y-27491126D01*
X45740812Y-27470000D01*
X45659188Y-27470000D01*
X45580344Y-27491126D01*
X45509656Y-27531938D01*
X45451938Y-27589656D01*
X45411126Y-27660344D01*
X45390000Y-27739188D01*
X45305635Y-27739188D01*
X44791285Y-27224837D01*
X44791284Y-27224838D01*
X44757101Y-27275998D01*
X44757094Y-27276011D01*
X44676889Y-27469642D01*
X44676887Y-27469650D01*
X44636000Y-27675200D01*
X43246759Y-27675200D01*
X43081936Y-27621646D01*
X43081930Y-27621644D01*
X43050000Y-27616586D01*
X43050000Y-28464722D01*
X42973694Y-28420667D01*
X42859244Y-28390000D01*
X42740756Y-28390000D01*
X42626306Y-28420667D01*
X42550000Y-28464722D01*
X42550000Y-27616586D01*
X42518069Y-27621644D01*
X42518063Y-27621646D01*
X42337821Y-27680210D01*
X42168965Y-27766247D01*
X42015645Y-27877642D01*
X42015644Y-27877642D01*
X41881642Y-28011644D01*
X41881642Y-28011645D01*
X41770247Y-28164965D01*
X41684210Y-28333821D01*
X41625645Y-28514062D01*
X41596000Y-28701237D01*
X39850500Y-28701237D01*
X39850500Y-28635928D01*
X39825502Y-28510261D01*
X39825501Y-28510260D01*
X39825501Y-28510256D01*
X39776465Y-28391873D01*
X39776464Y-28391872D01*
X39776461Y-28391866D01*
X39705276Y-28285331D01*
X39705273Y-28285327D01*
X39614672Y-28194726D01*
X39614668Y-28194723D01*
X39508133Y-28123538D01*
X39508124Y-28123533D01*
X39389744Y-28074499D01*
X39389738Y-28074497D01*
X39264071Y-28049500D01*
X39264069Y-28049500D01*
X39135931Y-28049500D01*
X39135929Y-28049500D01*
X39010261Y-28074497D01*
X39010255Y-28074499D01*
X38891875Y-28123533D01*
X38891866Y-28123538D01*
X38785331Y-28194723D01*
X38785327Y-28194726D01*
X38694726Y-28285327D01*
X38694723Y-28285331D01*
X38623538Y-28391866D01*
X38623533Y-28391875D01*
X38574499Y-28510255D01*
X38574497Y-28510261D01*
X38549500Y-28635928D01*
X38549500Y-28635931D01*
X38549500Y-28764069D01*
X38549500Y-28764071D01*
X38549499Y-28764071D01*
X36804000Y-28764071D01*
X36804000Y-28701237D01*
X36795764Y-28649237D01*
X36774354Y-28514062D01*
X36715789Y-28333821D01*
X36629752Y-28164965D01*
X36518357Y-28011645D01*
X36518357Y-28011644D01*
X36384355Y-27877642D01*
X36231034Y-27766247D01*
X36062178Y-27680210D01*
X35881936Y-27621646D01*
X35881930Y-27621644D01*
X35850000Y-27616586D01*
X35850000Y-28464722D01*
X35773694Y-28420667D01*
X35659244Y-28390000D01*
X35540756Y-28390000D01*
X35426306Y-28420667D01*
X35350000Y-28464722D01*
X35350000Y-27616586D01*
X35318069Y-27621644D01*
X35318063Y-27621646D01*
X35137821Y-27680210D01*
X34968965Y-27766247D01*
X34815645Y-27877642D01*
X34815644Y-27877642D01*
X34681642Y-28011644D01*
X34681642Y-28011645D01*
X34570247Y-28164965D01*
X34484210Y-28333821D01*
X34425645Y-28514062D01*
X34396000Y-28701237D01*
X26236419Y-28701237D01*
X26255161Y-28688714D01*
X25700001Y-28133553D01*
X25700000Y-28133553D01*
X25144838Y-28688713D01*
X24002017Y-28688713D01*
X23997770Y-28661900D01*
X23974354Y-28514062D01*
X23915789Y-28333821D01*
X23829752Y-28164965D01*
X23718357Y-28011645D01*
X23718357Y-28011644D01*
X23584355Y-27877642D01*
X23435416Y-27769431D01*
X23435415Y-27769430D01*
X23431035Y-27766247D01*
X23262178Y-27680210D01*
X23246759Y-27675200D01*
X24636000Y-27675200D01*
X24636000Y-27884799D01*
X24676887Y-28090349D01*
X24676889Y-28090357D01*
X24757095Y-28283991D01*
X24791285Y-28335160D01*
X24791285Y-28335161D01*
X25346446Y-27780000D01*
X25346446Y-27779999D01*
X25305635Y-27739188D01*
X25390000Y-27739188D01*
X25390000Y-27820812D01*
X25411126Y-27899656D01*
X25451938Y-27970344D01*
X25509656Y-28028062D01*
X25580344Y-28068874D01*
X25659188Y-28090000D01*
X25740812Y-28090000D01*
X25819656Y-28068874D01*
X25890344Y-28028062D01*
X25948062Y-27970344D01*
X25988874Y-27899656D01*
X26010000Y-27820812D01*
X26010000Y-27779999D01*
X26053553Y-27779999D01*
X26053553Y-27780000D01*
X26608714Y-28335161D01*
X26642905Y-28283990D01*
X26723110Y-28090357D01*
X26723112Y-28090349D01*
X26763999Y-27884799D01*
X26764000Y-27884797D01*
X26764000Y-27709623D01*
X27485500Y-27709623D01*
X27485500Y-27850376D01*
X27512955Y-27988404D01*
X27512958Y-27988413D01*
X27566814Y-28118436D01*
X27566816Y-28118440D01*
X27566818Y-28118443D01*
X27645012Y-28235467D01*
X27645014Y-28235469D01*
X27645017Y-28235473D01*
X27744526Y-28334982D01*
X27744529Y-28334984D01*
X27744533Y-28334988D01*
X27861557Y-28413182D01*
X27861560Y-28413183D01*
X27861563Y-28413185D01*
X27944773Y-28447651D01*
X27991588Y-28467042D01*
X27991590Y-28467042D01*
X27991595Y-28467044D01*
X28129623Y-28494499D01*
X28129626Y-28494500D01*
X28129628Y-28494500D01*
X28270374Y-28494500D01*
X28270375Y-28494499D01*
X28343721Y-28479910D01*
X28408404Y-28467044D01*
X28408407Y-28467042D01*
X28408412Y-28467042D01*
X28538443Y-28413182D01*
X28655467Y-28334988D01*
X28655473Y-28334982D01*
X28655474Y-28334982D01*
X28754982Y-28235474D01*
X28754982Y-28235473D01*
X28754988Y-28235467D01*
X28833182Y-28118443D01*
X28887042Y-27988412D01*
X28914500Y-27850372D01*
X28914500Y-27709628D01*
X28914500Y-27709625D01*
X28914499Y-27709623D01*
X29485500Y-27709623D01*
X29485500Y-27850376D01*
X29512955Y-27988404D01*
X29512958Y-27988413D01*
X29566814Y-28118436D01*
X29566816Y-28118440D01*
X29566818Y-28118443D01*
X29645012Y-28235467D01*
X29645014Y-28235469D01*
X29645017Y-28235473D01*
X29744526Y-28334982D01*
X29744529Y-28334984D01*
X29744533Y-28334988D01*
X29861557Y-28413182D01*
X29861560Y-28413183D01*
X29861563Y-28413185D01*
X29944773Y-28447651D01*
X29991588Y-28467042D01*
X29991590Y-28467042D01*
X29991595Y-28467044D01*
X30129623Y-28494499D01*
X30129626Y-28494500D01*
X30129628Y-28494500D01*
X30270374Y-28494500D01*
X30270375Y-28494499D01*
X30343721Y-28479910D01*
X30408404Y-28467044D01*
X30408407Y-28467042D01*
X30408412Y-28467042D01*
X30538443Y-28413182D01*
X30655467Y-28334988D01*
X30655473Y-28334982D01*
X30655474Y-28334982D01*
X30754982Y-28235474D01*
X30754982Y-28235473D01*
X30754988Y-28235467D01*
X30833182Y-28118443D01*
X30887042Y-27988412D01*
X30914500Y-27850372D01*
X30914500Y-27709628D01*
X30914500Y-27709625D01*
X30914499Y-27709623D01*
X30887044Y-27571595D01*
X30887041Y-27571586D01*
X30833185Y-27441563D01*
X30833183Y-27441560D01*
X30833182Y-27441557D01*
X30754988Y-27324533D01*
X30754985Y-27324530D01*
X30754982Y-27324526D01*
X30743933Y-27313477D01*
X31985500Y-27313477D01*
X31985500Y-28246510D01*
X31985501Y-28246519D01*
X31988328Y-28270896D01*
X32032347Y-28370590D01*
X32032348Y-28370591D01*
X32109409Y-28447652D01*
X32209105Y-28491672D01*
X32233481Y-28494500D01*
X33166518Y-28494499D01*
X33190895Y-28491672D01*
X33290591Y-28447652D01*
X33367652Y-28370591D01*
X33411672Y-28270895D01*
X33414500Y-28246519D01*
X33414499Y-27313482D01*
X33411672Y-27289105D01*
X33367652Y-27189409D01*
X33290591Y-27112348D01*
X33246670Y-27092955D01*
X33190896Y-27068328D01*
X33166519Y-27065500D01*
X32233489Y-27065500D01*
X32233480Y-27065501D01*
X32209103Y-27068328D01*
X32109409Y-27112347D01*
X32032348Y-27189408D01*
X31988328Y-27289102D01*
X31988328Y-27289104D01*
X31985500Y-27313477D01*
X30743933Y-27313477D01*
X30655473Y-27225017D01*
X30655469Y-27225014D01*
X30655467Y-27225012D01*
X30538443Y-27146818D01*
X30538440Y-27146816D01*
X30538436Y-27146814D01*
X30408413Y-27092958D01*
X30408404Y-27092955D01*
X30270375Y-27065500D01*
X30270372Y-27065500D01*
X30129628Y-27065500D01*
X30129625Y-27065500D01*
X29991595Y-27092955D01*
X29991586Y-27092958D01*
X29861563Y-27146814D01*
X29861557Y-27146817D01*
X29861557Y-27146818D01*
X29744794Y-27224838D01*
X29744526Y-27225017D01*
X29744526Y-27225018D01*
X29645018Y-27324526D01*
X29645017Y-27324526D01*
X29566814Y-27441563D01*
X29512958Y-27571586D01*
X29512955Y-27571595D01*
X29485500Y-27709623D01*
X28914499Y-27709623D01*
X28887044Y-27571595D01*
X28887041Y-27571586D01*
X28833185Y-27441563D01*
X28833183Y-27441560D01*
X28833182Y-27441557D01*
X28754988Y-27324533D01*
X28754984Y-27324529D01*
X28754982Y-27324526D01*
X28655473Y-27225017D01*
X28655469Y-27225014D01*
X28655467Y-27225012D01*
X28538443Y-27146818D01*
X28538440Y-27146816D01*
X28538436Y-27146814D01*
X28408413Y-27092958D01*
X28408404Y-27092955D01*
X28270375Y-27065500D01*
X28270372Y-27065500D01*
X28129628Y-27065500D01*
X28129625Y-27065500D01*
X27991595Y-27092955D01*
X27991586Y-27092958D01*
X27861563Y-27146814D01*
X27861557Y-27146817D01*
X27861557Y-27146818D01*
X27744794Y-27224838D01*
X27744526Y-27225017D01*
X27744526Y-27225018D01*
X27645018Y-27324526D01*
X27645017Y-27324526D01*
X27566814Y-27441563D01*
X27512958Y-27571586D01*
X27512955Y-27571595D01*
X27485500Y-27709623D01*
X26764000Y-27709623D01*
X26764000Y-27675202D01*
X26763999Y-27675200D01*
X26723112Y-27469650D01*
X26723110Y-27469642D01*
X26642905Y-27276009D01*
X26642903Y-27276006D01*
X26608713Y-27224838D01*
X26053553Y-27779999D01*
X26010000Y-27779999D01*
X26010000Y-27739188D01*
X25988874Y-27660344D01*
X25948062Y-27589656D01*
X25890344Y-27531938D01*
X25819656Y-27491126D01*
X25740812Y-27470000D01*
X25659188Y-27470000D01*
X25580344Y-27491126D01*
X25509656Y-27531938D01*
X25451938Y-27589656D01*
X25411126Y-27660344D01*
X25390000Y-27739188D01*
X25305635Y-27739188D01*
X24791285Y-27224837D01*
X24791284Y-27224838D01*
X24757101Y-27275998D01*
X24757094Y-27276011D01*
X24676889Y-27469642D01*
X24676887Y-27469650D01*
X24636000Y-27675200D01*
X23246759Y-27675200D01*
X23081936Y-27621646D01*
X23081930Y-27621644D01*
X23050000Y-27616586D01*
X23050000Y-28464722D01*
X22973694Y-28420667D01*
X22859244Y-28390000D01*
X22740756Y-28390000D01*
X22626306Y-28420667D01*
X22550000Y-28464722D01*
X22550000Y-27616586D01*
X22518069Y-27621644D01*
X22518063Y-27621646D01*
X22337821Y-27680210D01*
X22168965Y-27766247D01*
X22015645Y-27877642D01*
X22015644Y-27877642D01*
X21881642Y-28011644D01*
X21881642Y-28011645D01*
X21770247Y-28164965D01*
X21684210Y-28333821D01*
X21625645Y-28514062D01*
X21596000Y-28701237D01*
X16804000Y-28701237D01*
X16774354Y-28514062D01*
X16715789Y-28333821D01*
X16629752Y-28164965D01*
X16518357Y-28011645D01*
X16518357Y-28011644D01*
X16384355Y-27877642D01*
X16231034Y-27766247D01*
X16062178Y-27680210D01*
X15881936Y-27621646D01*
X15881930Y-27621644D01*
X15850000Y-27616586D01*
X15850000Y-28464722D01*
X15773694Y-28420667D01*
X15659244Y-28390000D01*
X15540756Y-28390000D01*
X15426306Y-28420667D01*
X15350000Y-28464722D01*
X15350000Y-27616586D01*
X15318069Y-27621644D01*
X15318063Y-27621646D01*
X15137821Y-27680210D01*
X14968965Y-27766247D01*
X14815645Y-27877642D01*
X14815644Y-27877642D01*
X14681642Y-28011644D01*
X14681642Y-28011645D01*
X14570247Y-28164965D01*
X14484210Y-28333821D01*
X14425645Y-28514062D01*
X14396000Y-28701237D01*
X6236419Y-28701237D01*
X6255161Y-28688714D01*
X5700001Y-28133553D01*
X5700000Y-28133553D01*
X5144838Y-28688713D01*
X4002017Y-28688713D01*
X3997770Y-28661900D01*
X3974354Y-28514062D01*
X3915789Y-28333821D01*
X3829752Y-28164965D01*
X3718357Y-28011645D01*
X3718357Y-28011644D01*
X3584355Y-27877642D01*
X3435416Y-27769431D01*
X3435415Y-27769430D01*
X3431035Y-27766247D01*
X3262178Y-27680210D01*
X3246759Y-27675200D01*
X4636000Y-27675200D01*
X4636000Y-27884799D01*
X4676887Y-28090349D01*
X4676889Y-28090357D01*
X4757095Y-28283991D01*
X4791285Y-28335160D01*
X4791285Y-28335161D01*
X5346446Y-27780000D01*
X5346446Y-27779999D01*
X5305635Y-27739188D01*
X5390000Y-27739188D01*
X5390000Y-27820812D01*
X5411126Y-27899656D01*
X5451938Y-27970344D01*
X5509656Y-28028062D01*
X5580344Y-28068874D01*
X5659188Y-28090000D01*
X5740812Y-28090000D01*
X5819656Y-28068874D01*
X5890344Y-28028062D01*
X5948062Y-27970344D01*
X5988874Y-27899656D01*
X6010000Y-27820812D01*
X6010000Y-27779999D01*
X6053553Y-27779999D01*
X6053553Y-27780000D01*
X6608714Y-28335161D01*
X6642905Y-28283990D01*
X6723110Y-28090357D01*
X6723112Y-28090349D01*
X6763999Y-27884799D01*
X6764000Y-27884797D01*
X6764000Y-27709623D01*
X7485500Y-27709623D01*
X7485500Y-27850376D01*
X7512955Y-27988404D01*
X7512958Y-27988413D01*
X7566814Y-28118436D01*
X7566816Y-28118440D01*
X7566818Y-28118443D01*
X7645012Y-28235467D01*
X7645014Y-28235469D01*
X7645017Y-28235473D01*
X7744526Y-28334982D01*
X7744529Y-28334984D01*
X7744533Y-28334988D01*
X7861557Y-28413182D01*
X7861560Y-28413183D01*
X7861563Y-28413185D01*
X7944773Y-28447651D01*
X7991588Y-28467042D01*
X7991590Y-28467042D01*
X7991595Y-28467044D01*
X8129623Y-28494499D01*
X8129626Y-28494500D01*
X8129628Y-28494500D01*
X8270374Y-28494500D01*
X8270375Y-28494499D01*
X8343721Y-28479910D01*
X8408404Y-28467044D01*
X8408407Y-28467042D01*
X8408412Y-28467042D01*
X8538443Y-28413182D01*
X8655467Y-28334988D01*
X8655473Y-28334982D01*
X8655474Y-28334982D01*
X8754982Y-28235474D01*
X8754982Y-28235473D01*
X8754988Y-28235467D01*
X8833182Y-28118443D01*
X8887042Y-27988412D01*
X8914500Y-27850372D01*
X8914500Y-27709628D01*
X8914500Y-27709625D01*
X8914499Y-27709623D01*
X9485500Y-27709623D01*
X9485500Y-27850376D01*
X9512955Y-27988404D01*
X9512958Y-27988413D01*
X9566814Y-28118436D01*
X9566816Y-28118440D01*
X9566818Y-28118443D01*
X9645012Y-28235467D01*
X9645014Y-28235469D01*
X9645017Y-28235473D01*
X9744526Y-28334982D01*
X9744529Y-28334984D01*
X9744533Y-28334988D01*
X9861557Y-28413182D01*
X9861560Y-28413183D01*
X9861563Y-28413185D01*
X9944773Y-28447651D01*
X9991588Y-28467042D01*
X9991590Y-28467042D01*
X9991595Y-28467044D01*
X10129623Y-28494499D01*
X10129626Y-28494500D01*
X10129628Y-28494500D01*
X10270374Y-28494500D01*
X10270375Y-28494499D01*
X10343721Y-28479910D01*
X10408404Y-28467044D01*
X10408407Y-28467042D01*
X10408412Y-28467042D01*
X10538443Y-28413182D01*
X10655467Y-28334988D01*
X10655473Y-28334982D01*
X10655474Y-28334982D01*
X10754982Y-28235474D01*
X10754982Y-28235473D01*
X10754988Y-28235467D01*
X10833182Y-28118443D01*
X10887042Y-27988412D01*
X10914500Y-27850372D01*
X10914500Y-27709628D01*
X10914500Y-27709625D01*
X10914499Y-27709623D01*
X10887044Y-27571595D01*
X10887041Y-27571586D01*
X10833185Y-27441563D01*
X10833183Y-27441560D01*
X10833182Y-27441557D01*
X10754988Y-27324533D01*
X10754985Y-27324530D01*
X10754982Y-27324526D01*
X10743933Y-27313477D01*
X11985500Y-27313477D01*
X11985500Y-28246510D01*
X11985501Y-28246519D01*
X11988328Y-28270896D01*
X12032347Y-28370590D01*
X12032348Y-28370591D01*
X12109409Y-28447652D01*
X12209105Y-28491672D01*
X12233481Y-28494500D01*
X13166518Y-28494499D01*
X13190895Y-28491672D01*
X13290591Y-28447652D01*
X13367652Y-28370591D01*
X13411672Y-28270895D01*
X13414500Y-28246519D01*
X13414499Y-27313482D01*
X13411672Y-27289105D01*
X13367652Y-27189409D01*
X13290591Y-27112348D01*
X13246670Y-27092955D01*
X13190896Y-27068328D01*
X13166519Y-27065500D01*
X12233489Y-27065500D01*
X12233480Y-27065501D01*
X12209103Y-27068328D01*
X12109409Y-27112347D01*
X12032348Y-27189408D01*
X11988328Y-27289102D01*
X11988328Y-27289104D01*
X11985500Y-27313477D01*
X10743933Y-27313477D01*
X10655473Y-27225017D01*
X10655469Y-27225014D01*
X10655467Y-27225012D01*
X10538443Y-27146818D01*
X10538440Y-27146816D01*
X10538436Y-27146814D01*
X10408413Y-27092958D01*
X10408404Y-27092955D01*
X10270375Y-27065500D01*
X10270372Y-27065500D01*
X10129628Y-27065500D01*
X10129625Y-27065500D01*
X9991595Y-27092955D01*
X9991586Y-27092958D01*
X9861563Y-27146814D01*
X9861557Y-27146817D01*
X9861557Y-27146818D01*
X9744794Y-27224838D01*
X9744526Y-27225017D01*
X9744526Y-27225018D01*
X9645018Y-27324526D01*
X9645017Y-27324526D01*
X9566814Y-27441563D01*
X9512958Y-27571586D01*
X9512955Y-27571595D01*
X9485500Y-27709623D01*
X8914499Y-27709623D01*
X8887044Y-27571595D01*
X8887041Y-27571586D01*
X8833185Y-27441563D01*
X8833183Y-27441560D01*
X8833182Y-27441557D01*
X8754988Y-27324533D01*
X8754984Y-27324529D01*
X8754982Y-27324526D01*
X8655473Y-27225017D01*
X8655469Y-27225014D01*
X8655467Y-27225012D01*
X8538443Y-27146818D01*
X8538440Y-27146816D01*
X8538436Y-27146814D01*
X8408413Y-27092958D01*
X8408404Y-27092955D01*
X8270375Y-27065500D01*
X8270372Y-27065500D01*
X8129628Y-27065500D01*
X8129625Y-27065500D01*
X7991595Y-27092955D01*
X7991586Y-27092958D01*
X7861563Y-27146814D01*
X7861557Y-27146817D01*
X7861557Y-27146818D01*
X7744794Y-27224838D01*
X7744526Y-27225017D01*
X7744526Y-27225018D01*
X7645018Y-27324526D01*
X7645017Y-27324526D01*
X7566814Y-27441563D01*
X7512958Y-27571586D01*
X7512955Y-27571595D01*
X7485500Y-27709623D01*
X6764000Y-27709623D01*
X6764000Y-27675202D01*
X6763999Y-27675200D01*
X6723112Y-27469650D01*
X6723110Y-27469642D01*
X6642905Y-27276009D01*
X6642903Y-27276006D01*
X6608713Y-27224838D01*
X6053553Y-27779999D01*
X6010000Y-27779999D01*
X6010000Y-27739188D01*
X5988874Y-27660344D01*
X5948062Y-27589656D01*
X5890344Y-27531938D01*
X5819656Y-27491126D01*
X5740812Y-27470000D01*
X5659188Y-27470000D01*
X5580344Y-27491126D01*
X5509656Y-27531938D01*
X5451938Y-27589656D01*
X5411126Y-27660344D01*
X5390000Y-27739188D01*
X5305635Y-27739188D01*
X4791285Y-27224837D01*
X4791284Y-27224838D01*
X4757101Y-27275998D01*
X4757094Y-27276011D01*
X4676889Y-27469642D01*
X4676887Y-27469650D01*
X4636000Y-27675200D01*
X3246759Y-27675200D01*
X3081936Y-27621646D01*
X3081930Y-27621644D01*
X3050000Y-27616586D01*
X3050000Y-28464722D01*
X2973694Y-28420667D01*
X2859244Y-28390000D01*
X2740756Y-28390000D01*
X2626306Y-28420667D01*
X2550000Y-28464722D01*
X2550000Y-27616586D01*
X2518069Y-27621644D01*
X2518063Y-27621646D01*
X2337821Y-27680210D01*
X2168965Y-27766247D01*
X2015645Y-27877642D01*
X2015644Y-27877642D01*
X1881642Y-28011644D01*
X1881642Y-28011645D01*
X1770247Y-28164965D01*
X1684210Y-28333821D01*
X1625645Y-28514062D01*
X1596000Y-28701237D01*
X500Y-28701237D01*
X500Y-26871285D01*
X5144837Y-26871285D01*
X5700000Y-27426446D01*
X5700001Y-27426446D01*
X6255161Y-26871285D01*
X25144837Y-26871285D01*
X25700000Y-27426446D01*
X25700001Y-27426446D01*
X26255161Y-26871285D01*
X45144837Y-26871285D01*
X45700000Y-27426446D01*
X45700001Y-27426446D01*
X46255161Y-26871285D01*
X46203991Y-26837095D01*
X46010357Y-26756889D01*
X46010349Y-26756887D01*
X45804798Y-26716000D01*
X45595202Y-26716000D01*
X45389650Y-26756887D01*
X45389642Y-26756889D01*
X45196011Y-26837094D01*
X45195998Y-26837101D01*
X45144838Y-26871284D01*
X45144837Y-26871285D01*
X26255161Y-26871285D01*
X26203991Y-26837095D01*
X26010357Y-26756889D01*
X26010349Y-26756887D01*
X25804798Y-26716000D01*
X25595202Y-26716000D01*
X25389650Y-26756887D01*
X25389642Y-26756889D01*
X25196011Y-26837094D01*
X25195998Y-26837101D01*
X25144838Y-26871284D01*
X25144837Y-26871285D01*
X6255161Y-26871285D01*
X6203991Y-26837095D01*
X6010357Y-26756889D01*
X6010349Y-26756887D01*
X5804798Y-26716000D01*
X5595202Y-26716000D01*
X5389650Y-26756887D01*
X5389642Y-26756889D01*
X5196011Y-26837094D01*
X5195998Y-26837101D01*
X5144838Y-26871284D01*
X5144837Y-26871285D01*
X500Y-26871285D01*
X500Y-21201237D01*
X1596000Y-21201237D01*
X1596000Y-21750000D01*
X2350000Y-21750000D01*
X2350000Y-22250000D01*
X1596000Y-22250000D01*
X1596000Y-22798762D01*
X1625645Y-22985937D01*
X1684210Y-23166178D01*
X1770247Y-23335034D01*
X1881642Y-23488354D01*
X1881642Y-23488355D01*
X2015644Y-23622357D01*
X2168965Y-23733752D01*
X2337821Y-23819789D01*
X2518055Y-23878351D01*
X2550000Y-23883411D01*
X2550000Y-23035277D01*
X2626306Y-23079333D01*
X2740756Y-23110000D01*
X2859244Y-23110000D01*
X2973694Y-23079333D01*
X3050000Y-23035277D01*
X3050000Y-23883410D01*
X3081944Y-23878351D01*
X3262178Y-23819789D01*
X3431034Y-23733752D01*
X3584354Y-23622357D01*
X3584355Y-23622357D01*
X3718357Y-23488355D01*
X3718357Y-23488354D01*
X3829752Y-23335034D01*
X3915789Y-23166178D01*
X3974354Y-22985937D01*
X4004000Y-22798762D01*
X4004000Y-22250000D01*
X3250000Y-22250000D01*
X3250000Y-21750000D01*
X4004000Y-21750000D01*
X4004000Y-21201237D01*
X3982313Y-21064313D01*
X3974353Y-21014062D01*
X3915789Y-20833821D01*
X3829752Y-20664965D01*
X3718357Y-20511645D01*
X3718357Y-20511644D01*
X3584355Y-20377642D01*
X3431034Y-20266247D01*
X3262178Y-20180210D01*
X3081936Y-20121646D01*
X3081930Y-20121644D01*
X3050000Y-20116586D01*
X3050000Y-20964722D01*
X2973694Y-20920667D01*
X2859244Y-20890000D01*
X2740756Y-20890000D01*
X2626306Y-20920667D01*
X2550000Y-20964722D01*
X2550000Y-20116586D01*
X2518069Y-20121644D01*
X2518063Y-20121646D01*
X2337821Y-20180210D01*
X2168965Y-20266247D01*
X2015645Y-20377642D01*
X2015644Y-20377642D01*
X1881642Y-20511644D01*
X1881642Y-20511645D01*
X1770247Y-20664965D01*
X1684210Y-20833821D01*
X1625645Y-21014062D01*
X1596000Y-21201237D01*
X500Y-21201237D01*
X500Y-19371915D01*
X20185Y-19304876D01*
X72989Y-19259121D01*
X105102Y-19249442D01*
X292826Y-19219709D01*
X480025Y-19158884D01*
X655405Y-19069524D01*
X814646Y-18953828D01*
X953828Y-18814646D01*
X1069524Y-18655405D01*
X1158884Y-18480025D01*
X1219709Y-18292826D01*
X1226060Y-18252725D01*
X1250500Y-18098422D01*
X1250500Y-17901577D01*
X1219709Y-17707173D01*
X1158882Y-17519970D01*
X1069523Y-17344594D01*
X953828Y-17185354D01*
X814646Y-17046172D01*
X655405Y-16930476D01*
X480029Y-16841117D01*
X292827Y-16780291D01*
X105101Y-16750557D01*
X41967Y-16720627D01*
X5036Y-16661316D01*
X500Y-16628084D01*
X500Y-12740691D01*
X12349500Y-12740691D01*
X12349500Y-12859309D01*
X12380201Y-12973886D01*
X12439511Y-13076613D01*
X12523387Y-13160489D01*
X12626114Y-13219799D01*
X12740691Y-13250500D01*
X12740694Y-13250500D01*
X12859306Y-13250500D01*
X12859309Y-13250500D01*
X12973886Y-13219799D01*
X13076613Y-13160489D01*
X13121411Y-13115691D01*
X16149500Y-13115691D01*
X16149500Y-13234309D01*
X16180201Y-13348886D01*
X16239511Y-13451613D01*
X16323387Y-13535489D01*
X16426114Y-13594799D01*
X16540691Y-13625500D01*
X16540694Y-13625500D01*
X16659306Y-13625500D01*
X16659309Y-13625500D01*
X16773886Y-13594799D01*
X16876613Y-13535489D01*
X16960489Y-13451613D01*
X17019799Y-13348886D01*
X17050500Y-13234309D01*
X17050500Y-13115691D01*
X17019799Y-13001114D01*
X16960489Y-12898387D01*
X16876613Y-12814511D01*
X16773886Y-12755201D01*
X16659309Y-12724500D01*
X16540691Y-12724500D01*
X16426114Y-12755201D01*
X16426112Y-12755201D01*
X16426112Y-12755202D01*
X16323387Y-12814511D01*
X16323384Y-12814513D01*
X16239513Y-12898384D01*
X16239511Y-12898387D01*
X16183385Y-12995600D01*
X16180201Y-13001114D01*
X16149500Y-13115691D01*
X13121411Y-13115691D01*
X13160489Y-13076613D01*
X13177882Y-13046488D01*
X13178417Y-13045562D01*
X13178417Y-13045561D01*
X13193226Y-13019912D01*
X13219799Y-12973886D01*
X13250500Y-12859309D01*
X13250500Y-12740691D01*
X13219799Y-12626114D01*
X13160489Y-12523387D01*
X13076613Y-12439511D01*
X12973886Y-12380201D01*
X12859309Y-12349500D01*
X12740691Y-12349500D01*
X12626114Y-12380201D01*
X12626112Y-12380201D01*
X12626112Y-12380202D01*
X12523387Y-12439511D01*
X12523384Y-12439513D01*
X12439513Y-12523384D01*
X12439511Y-12523387D01*
X12380201Y-12626114D01*
X12349500Y-12740691D01*
X500Y-12740691D01*
X500Y-10540691D01*
X10449500Y-10540691D01*
X10449500Y-10659309D01*
X10480201Y-10773886D01*
X10539511Y-10876613D01*
X10623387Y-10960489D01*
X10726114Y-11019799D01*
X10840691Y-11050500D01*
X10840694Y-11050500D01*
X10959306Y-11050500D01*
X10959309Y-11050500D01*
X11073886Y-11019799D01*
X11176613Y-10960489D01*
X11260489Y-10876613D01*
X11319799Y-10773886D01*
X11350500Y-10659309D01*
X11350500Y-10540691D01*
X13649500Y-10540691D01*
X13649500Y-10659309D01*
X13680201Y-10773886D01*
X13739511Y-10876613D01*
X13823387Y-10960489D01*
X13926114Y-11019799D01*
X14040691Y-11050500D01*
X14040694Y-11050500D01*
X14159306Y-11050500D01*
X14159309Y-11050500D01*
X14273886Y-11019799D01*
X14376613Y-10960489D01*
X14460489Y-10876613D01*
X14519799Y-10773886D01*
X14550500Y-10659309D01*
X14550500Y-10540691D01*
X14519799Y-10426114D01*
X14460489Y-10323387D01*
X14376613Y-10239511D01*
X14273886Y-10180201D01*
X14159309Y-10149500D01*
X14040691Y-10149500D01*
X13926114Y-10180201D01*
X13926112Y-10180201D01*
X13926112Y-10180202D01*
X13823387Y-10239511D01*
X13823384Y-10239513D01*
X13739513Y-10323384D01*
X13739511Y-10323387D01*
X13710355Y-10373887D01*
X13680201Y-10426114D01*
X13649500Y-10540691D01*
X11350500Y-10540691D01*
X11319799Y-10426114D01*
X11260489Y-10323387D01*
X11176613Y-10239511D01*
X11073886Y-10180201D01*
X10959309Y-10149500D01*
X10840691Y-10149500D01*
X10726114Y-10180201D01*
X10726112Y-10180201D01*
X10726112Y-10180202D01*
X10623387Y-10239511D01*
X10623384Y-10239513D01*
X10539513Y-10323384D01*
X10539511Y-10323387D01*
X10510355Y-10373887D01*
X10480201Y-10426114D01*
X10449500Y-10540691D01*
X500Y-10540691D01*
X500Y-9040691D01*
X10449500Y-9040691D01*
X10449500Y-9159309D01*
X10480201Y-9273886D01*
X10539511Y-9376613D01*
X10623387Y-9460489D01*
X10726114Y-9519799D01*
X10840691Y-9550500D01*
X10840694Y-9550500D01*
X10959306Y-9550500D01*
X10959309Y-9550500D01*
X11073886Y-9519799D01*
X11176613Y-9460489D01*
X11260489Y-9376613D01*
X11319799Y-9273886D01*
X11350500Y-9159309D01*
X11350500Y-9040691D01*
X11319799Y-8926114D01*
X11260489Y-8823387D01*
X11176613Y-8739511D01*
X11073886Y-8680201D01*
X10959309Y-8649500D01*
X10840691Y-8649500D01*
X10726114Y-8680201D01*
X10726112Y-8680201D01*
X10726112Y-8680202D01*
X10623387Y-8739511D01*
X10623384Y-8739513D01*
X10539513Y-8823384D01*
X10539511Y-8823387D01*
X10510355Y-8873887D01*
X10480201Y-8926114D01*
X10449500Y-9040691D01*
X500Y-9040691D01*
X500Y-7096371D01*
X646269Y-7096371D01*
X646269Y-7214989D01*
X676970Y-7329566D01*
X736280Y-7432293D01*
X820156Y-7516169D01*
X922883Y-7575479D01*
X1037460Y-7606180D01*
X1037463Y-7606180D01*
X1156075Y-7606180D01*
X1156078Y-7606180D01*
X1270655Y-7575479D01*
X1373382Y-7516169D01*
X1457258Y-7432293D01*
X1471162Y-7408208D01*
X1481297Y-7393281D01*
X1490613Y-7381503D01*
X1490613Y-7381501D01*
X1490618Y-7381496D01*
X1685611Y-7000301D01*
X1708317Y-6969101D01*
X1740460Y-6936960D01*
X1780022Y-6868437D01*
X1800500Y-6792011D01*
X1800500Y-6712887D01*
X1800500Y-6402414D01*
X6062818Y-6402414D01*
X6087816Y-6528081D01*
X6087818Y-6528087D01*
X6136852Y-6646467D01*
X6136857Y-6646476D01*
X6208042Y-6753011D01*
X6208045Y-6753015D01*
X6298646Y-6843616D01*
X6298650Y-6843619D01*
X6405185Y-6914804D01*
X6405191Y-6914807D01*
X6405192Y-6914808D01*
X6523575Y-6963844D01*
X6523579Y-6963844D01*
X6523580Y-6963845D01*
X6649247Y-6988843D01*
X6649250Y-6988843D01*
X6777390Y-6988843D01*
X6876675Y-6969093D01*
X6903063Y-6963844D01*
X7021446Y-6914808D01*
X7127988Y-6843619D01*
X7218595Y-6753012D01*
X7246107Y-6711836D01*
X7255874Y-6699091D01*
X7270043Y-6682897D01*
X7627157Y-6062629D01*
X7677666Y-6014353D01*
X7734619Y-6000500D01*
X9182745Y-6000500D01*
X9249784Y-6020185D01*
X9270426Y-6036819D01*
X12039170Y-8805563D01*
X12072655Y-8866886D01*
X12071225Y-8925482D01*
X11862700Y-9699968D01*
X11861462Y-9704882D01*
X11861295Y-9705595D01*
X11861294Y-9705603D01*
X11861075Y-9717671D01*
X11858713Y-9739604D01*
X11849500Y-9785927D01*
X11849500Y-9785931D01*
X11849500Y-9914069D01*
X11849500Y-9914071D01*
X11849499Y-9914071D01*
X11874497Y-10039738D01*
X11874499Y-10039744D01*
X11923533Y-10158124D01*
X11923538Y-10158133D01*
X11994723Y-10264668D01*
X11994726Y-10264672D01*
X12085327Y-10355273D01*
X12085331Y-10355276D01*
X12191866Y-10426461D01*
X12191872Y-10426464D01*
X12191873Y-10426465D01*
X12310256Y-10475501D01*
X12310260Y-10475501D01*
X12310261Y-10475502D01*
X12435928Y-10500500D01*
X12435931Y-10500500D01*
X12564071Y-10500500D01*
X12648615Y-10483682D01*
X12689744Y-10475501D01*
X12808127Y-10426465D01*
X12914669Y-10355276D01*
X13005276Y-10264669D01*
X13076465Y-10158127D01*
X13125501Y-10039744D01*
X13140191Y-9965893D01*
X13150500Y-9914071D01*
X13150500Y-9785931D01*
X13148111Y-9773920D01*
X13140837Y-9737358D01*
X13138733Y-9721446D01*
X13137300Y-9699973D01*
X13130093Y-9673207D01*
X12966285Y-9064802D01*
X12965123Y-9060488D01*
X12959793Y-9040691D01*
X13749500Y-9040691D01*
X13749500Y-9159309D01*
X13780201Y-9273886D01*
X13839511Y-9376613D01*
X13923387Y-9460489D01*
X14026114Y-9519799D01*
X14140691Y-9550500D01*
X14140694Y-9550500D01*
X14259306Y-9550500D01*
X14259309Y-9550500D01*
X14373886Y-9519799D01*
X14476613Y-9460489D01*
X14560489Y-9376613D01*
X14619799Y-9273886D01*
X14650500Y-9159309D01*
X14650500Y-9040691D01*
X14619799Y-8926114D01*
X14560489Y-8823387D01*
X14476613Y-8739511D01*
X14373886Y-8680201D01*
X14259309Y-8649500D01*
X14140691Y-8649500D01*
X14026114Y-8680201D01*
X14026112Y-8680201D01*
X14026112Y-8680202D01*
X13923387Y-8739511D01*
X13923384Y-8739513D01*
X13839513Y-8823384D01*
X13839511Y-8823387D01*
X13810355Y-8873887D01*
X13780201Y-8926114D01*
X13749500Y-9040691D01*
X12959793Y-9040691D01*
X12931827Y-8936819D01*
X12904764Y-8836304D01*
X12900500Y-8804066D01*
X12900500Y-8647275D01*
X12900499Y-8647268D01*
X12897189Y-8634915D01*
X12897189Y-8634916D01*
X12873207Y-8545412D01*
X12820480Y-8454087D01*
X9645913Y-5279520D01*
X9579874Y-5241392D01*
X9554589Y-5226793D01*
X9498509Y-5211767D01*
X9452727Y-5199500D01*
X9452726Y-5199500D01*
X7512001Y-5199500D01*
X7511985Y-5199499D01*
X7504389Y-5199499D01*
X7398935Y-5199499D01*
X7358191Y-5210416D01*
X7297072Y-5226793D01*
X7297071Y-5226794D01*
X7205747Y-5279520D01*
X7169709Y-5315558D01*
X7143900Y-5335338D01*
X6904442Y-5473205D01*
X6368736Y-5781634D01*
X6368713Y-5781648D01*
X6364198Y-5784350D01*
X6363604Y-5784719D01*
X6363601Y-5784722D01*
X6354981Y-5793047D01*
X6337737Y-5806949D01*
X6298652Y-5833065D01*
X6208041Y-5923675D01*
X6136857Y-6030209D01*
X6136852Y-6030218D01*
X6087818Y-6148598D01*
X6087816Y-6148604D01*
X6062819Y-6274271D01*
X6062819Y-6274274D01*
X6062819Y-6402412D01*
X6062819Y-6402414D01*
X6062818Y-6402414D01*
X1800500Y-6402414D01*
X1800500Y-2375832D01*
X1809144Y-2346391D01*
X1815668Y-2316405D01*
X1819422Y-2311389D01*
X1820185Y-2308793D01*
X1836815Y-2288155D01*
X1908783Y-2216187D01*
X1970105Y-2182703D01*
X2039797Y-2187687D01*
X2095730Y-2229559D01*
X2116238Y-2271775D01*
X2130201Y-2323887D01*
X2151332Y-2360486D01*
X2189511Y-2426613D01*
X2273387Y-2510489D01*
X2376114Y-2569799D01*
X2490691Y-2600500D01*
X2490694Y-2600500D01*
X2609306Y-2600500D01*
X2609309Y-2600500D01*
X2723886Y-2569799D01*
X2826613Y-2510489D01*
X2910489Y-2426613D01*
X2969799Y-2323886D01*
X3000500Y-2209309D01*
X3000500Y-2090691D01*
X2969799Y-1976114D01*
X2969797Y-1976111D01*
X2969797Y-1976109D01*
X2967504Y-1970573D01*
X2960035Y-1901104D01*
X2991310Y-1838625D01*
X3051400Y-1802973D01*
X3065963Y-1800171D01*
X3789024Y-1705516D01*
X3789028Y-1705514D01*
X3793993Y-1704446D01*
X3794095Y-1704920D01*
X3823950Y-1700500D01*
X6482745Y-1700500D01*
X6549784Y-1720185D01*
X6570426Y-1736819D01*
X9228338Y-4394730D01*
X11879518Y-7045910D01*
X11879520Y-7045913D01*
X11954087Y-7120480D01*
X12028581Y-7163489D01*
X12045411Y-7173206D01*
X12045412Y-7173206D01*
X12045413Y-7173207D01*
X12147273Y-7200501D01*
X12147275Y-7200501D01*
X12260323Y-7200501D01*
X12260339Y-7200500D01*
X15844820Y-7200500D01*
X15911859Y-7220185D01*
X15932501Y-7236819D01*
X18316162Y-9620480D01*
X18367315Y-9650014D01*
X18415530Y-9700580D01*
X18428752Y-9769188D01*
X18402784Y-9834052D01*
X18345870Y-9874580D01*
X18337410Y-9877174D01*
X18326114Y-9880200D01*
X18223387Y-9939511D01*
X18223384Y-9939513D01*
X18139513Y-10023384D01*
X18139511Y-10023387D01*
X18080201Y-10126114D01*
X18049500Y-10240691D01*
X18049500Y-10359309D01*
X18080201Y-10473886D01*
X18139511Y-10576613D01*
X18223387Y-10660489D01*
X18326114Y-10719799D01*
X18440691Y-10750500D01*
X18440694Y-10750500D01*
X18559306Y-10750500D01*
X18559309Y-10750500D01*
X18673886Y-10719799D01*
X18776613Y-10660489D01*
X18860489Y-10576613D01*
X18919799Y-10473886D01*
X18950500Y-10359309D01*
X18950500Y-10240691D01*
X18919799Y-10126114D01*
X18860489Y-10023387D01*
X18776613Y-9939511D01*
X18776611Y-9939510D01*
X18776609Y-9939508D01*
X18763408Y-9931887D01*
X18715192Y-9881320D01*
X18701970Y-9812712D01*
X18727938Y-9747848D01*
X18784852Y-9707320D01*
X18825408Y-9700500D01*
X22082745Y-9700500D01*
X22149784Y-9720185D01*
X22170426Y-9736819D01*
X22363181Y-9929573D01*
X22396666Y-9990896D01*
X22399500Y-10017254D01*
X22399500Y-17982745D01*
X22379815Y-18049784D01*
X22363181Y-18070426D01*
X21770426Y-18663181D01*
X21709103Y-18696666D01*
X21682745Y-18699500D01*
X18560339Y-18699500D01*
X18560323Y-18699499D01*
X18552727Y-18699499D01*
X18447273Y-18699499D01*
X18379366Y-18717695D01*
X18345412Y-18726793D01*
X18254084Y-18779522D01*
X16879522Y-20154084D01*
X16879518Y-20154090D01*
X16826793Y-20245412D01*
X16826792Y-20245415D01*
X16824471Y-20254080D01*
X16824469Y-20254087D01*
X16799500Y-20347273D01*
X16799500Y-20516970D01*
X16779815Y-20584009D01*
X16727011Y-20629764D01*
X16657853Y-20639708D01*
X16594297Y-20610683D01*
X16575182Y-20589856D01*
X16518357Y-20511645D01*
X16518357Y-20511644D01*
X16384355Y-20377642D01*
X16231034Y-20266247D01*
X16062178Y-20180210D01*
X15881936Y-20121646D01*
X15881930Y-20121644D01*
X15850000Y-20116586D01*
X15850000Y-20964722D01*
X15773694Y-20920667D01*
X15659244Y-20890000D01*
X15540756Y-20890000D01*
X15426306Y-20920667D01*
X15350000Y-20964722D01*
X15350000Y-20116586D01*
X15318069Y-20121644D01*
X15318063Y-20121646D01*
X15137821Y-20180210D01*
X14968965Y-20266247D01*
X14815645Y-20377642D01*
X14815644Y-20377642D01*
X14681642Y-20511644D01*
X14681642Y-20511645D01*
X14570247Y-20664965D01*
X14484210Y-20833821D01*
X14425645Y-21014062D01*
X14396000Y-21201237D01*
X14396000Y-21750000D01*
X15150000Y-21750000D01*
X15150000Y-22250000D01*
X14396000Y-22250000D01*
X14396000Y-22798762D01*
X14425645Y-22985937D01*
X14484210Y-23166178D01*
X14570247Y-23335034D01*
X14681642Y-23488354D01*
X14681642Y-23488355D01*
X14815644Y-23622357D01*
X14968965Y-23733752D01*
X15137821Y-23819789D01*
X15318055Y-23878351D01*
X15350000Y-23883411D01*
X15350000Y-23035277D01*
X15426306Y-23079333D01*
X15540756Y-23110000D01*
X15659244Y-23110000D01*
X15773694Y-23079333D01*
X15850000Y-23035277D01*
X15850000Y-23883410D01*
X15881944Y-23878351D01*
X16062178Y-23819789D01*
X16231038Y-23733750D01*
X16365881Y-23635780D01*
X16381026Y-23630375D01*
X16393761Y-23620553D01*
X16413256Y-23618875D01*
X16431687Y-23612299D01*
X16447351Y-23615941D01*
X16463373Y-23614563D01*
X16480680Y-23623691D01*
X16499741Y-23628124D01*
X16510949Y-23639656D01*
X16525173Y-23647159D01*
X16534797Y-23664195D01*
X16548436Y-23678229D01*
X16552014Y-23694671D01*
X16559540Y-23707993D01*
X16561001Y-23735966D01*
X16562566Y-23743157D01*
X16562024Y-23752651D01*
X16561467Y-23754866D01*
X16561294Y-23755603D01*
X16561032Y-23770050D01*
X16560894Y-23772477D01*
X16560411Y-23773828D01*
X16558713Y-23789604D01*
X16549500Y-23835927D01*
X16549500Y-23835931D01*
X16549500Y-23964069D01*
X16549500Y-23964071D01*
X16549499Y-23964071D01*
X16574497Y-24089738D01*
X16574499Y-24089744D01*
X16623533Y-24208124D01*
X16623538Y-24208133D01*
X16694723Y-24314668D01*
X16694726Y-24314672D01*
X16785327Y-24405273D01*
X16785331Y-24405276D01*
X16891866Y-24476461D01*
X16891872Y-24476464D01*
X16891873Y-24476465D01*
X17010256Y-24525501D01*
X17010260Y-24525501D01*
X17010261Y-24525502D01*
X17135928Y-24550500D01*
X17135931Y-24550500D01*
X17264071Y-24550500D01*
X17348615Y-24533682D01*
X17389744Y-24525501D01*
X17508127Y-24476465D01*
X17614669Y-24405276D01*
X17705276Y-24314669D01*
X17776465Y-24208127D01*
X17825501Y-24089744D01*
X17850500Y-23964069D01*
X17850500Y-23835931D01*
X17839269Y-23779471D01*
X17838241Y-23764071D01*
X18549499Y-23764071D01*
X18574497Y-23889738D01*
X18574499Y-23889744D01*
X18623533Y-24008124D01*
X18623538Y-24008133D01*
X18694723Y-24114668D01*
X18694726Y-24114672D01*
X18785327Y-24205273D01*
X18785331Y-24205276D01*
X18891866Y-24276461D01*
X18891872Y-24276464D01*
X18891873Y-24276465D01*
X19010256Y-24325501D01*
X19010260Y-24325501D01*
X19010261Y-24325502D01*
X19135928Y-24350500D01*
X19135931Y-24350500D01*
X19264071Y-24350500D01*
X19348615Y-24333682D01*
X19389744Y-24325501D01*
X19508127Y-24276465D01*
X19614669Y-24205276D01*
X19674254Y-24145691D01*
X20654500Y-24145691D01*
X20654500Y-24264309D01*
X20685201Y-24378886D01*
X20744511Y-24481613D01*
X20828387Y-24565489D01*
X20931114Y-24624799D01*
X21045691Y-24655500D01*
X21045694Y-24655500D01*
X21164306Y-24655500D01*
X21164309Y-24655500D01*
X21278886Y-24624799D01*
X21381613Y-24565489D01*
X21465489Y-24481613D01*
X21524799Y-24378886D01*
X21555500Y-24264309D01*
X21555500Y-24145691D01*
X21524799Y-24031114D01*
X21465489Y-23928387D01*
X21381613Y-23844511D01*
X21278886Y-23785201D01*
X21164309Y-23754500D01*
X21045691Y-23754500D01*
X20931114Y-23785201D01*
X20931112Y-23785201D01*
X20931112Y-23785202D01*
X20828387Y-23844511D01*
X20828384Y-23844513D01*
X20744513Y-23928384D01*
X20744511Y-23928387D01*
X20685201Y-24031114D01*
X20654500Y-24145691D01*
X19674254Y-24145691D01*
X19705276Y-24114669D01*
X19722952Y-24088213D01*
X19736010Y-24068673D01*
X19776461Y-24008133D01*
X19776461Y-24008132D01*
X19776465Y-24008127D01*
X19825501Y-23889744D01*
X19845646Y-23788472D01*
X19850500Y-23764071D01*
X19850500Y-23635928D01*
X19825502Y-23510261D01*
X19825501Y-23510260D01*
X19825501Y-23510256D01*
X19776465Y-23391873D01*
X19776464Y-23391872D01*
X19776461Y-23391866D01*
X19705276Y-23285331D01*
X19705273Y-23285327D01*
X19614672Y-23194726D01*
X19614668Y-23194723D01*
X19508133Y-23123538D01*
X19508124Y-23123533D01*
X19389744Y-23074499D01*
X19389738Y-23074497D01*
X19264071Y-23049500D01*
X19264069Y-23049500D01*
X19135931Y-23049500D01*
X19135929Y-23049500D01*
X19010261Y-23074497D01*
X19010255Y-23074499D01*
X18891875Y-23123533D01*
X18891866Y-23123538D01*
X18785331Y-23194723D01*
X18785327Y-23194726D01*
X18694726Y-23285327D01*
X18694723Y-23285331D01*
X18623538Y-23391866D01*
X18623533Y-23391875D01*
X18574499Y-23510255D01*
X18574497Y-23510261D01*
X18549500Y-23635928D01*
X18549500Y-23635931D01*
X18549500Y-23764069D01*
X18549500Y-23764071D01*
X18549499Y-23764071D01*
X17838241Y-23764071D01*
X17837300Y-23749973D01*
X17806594Y-23635928D01*
X17604764Y-22886304D01*
X17600500Y-22854066D01*
X17600500Y-20617254D01*
X17620185Y-20550215D01*
X17636819Y-20529573D01*
X17925701Y-20240691D01*
X20949500Y-20240691D01*
X20949500Y-20359309D01*
X20980201Y-20473886D01*
X21039511Y-20576613D01*
X21123387Y-20660489D01*
X21226114Y-20719799D01*
X21340691Y-20750500D01*
X21340694Y-20750500D01*
X21459305Y-20750500D01*
X21459309Y-20750500D01*
X21514717Y-20735653D01*
X21584563Y-20737316D01*
X21642426Y-20776478D01*
X21669931Y-20840706D01*
X21664739Y-20893746D01*
X21625646Y-21014061D01*
X21596000Y-21201237D01*
X21596000Y-21750000D01*
X22350000Y-21750000D01*
X22350000Y-22250000D01*
X21596000Y-22250000D01*
X21596000Y-22798762D01*
X21625645Y-22985937D01*
X21684210Y-23166178D01*
X21770247Y-23335034D01*
X21881642Y-23488354D01*
X21881642Y-23488355D01*
X22015644Y-23622357D01*
X22168965Y-23733752D01*
X22337821Y-23819789D01*
X22518055Y-23878351D01*
X22550000Y-23883411D01*
X22550000Y-23035277D01*
X22626306Y-23079333D01*
X22740756Y-23110000D01*
X22859244Y-23110000D01*
X22973694Y-23079333D01*
X23050000Y-23035277D01*
X23050000Y-23883410D01*
X23081944Y-23878351D01*
X23262178Y-23819789D01*
X23431034Y-23733752D01*
X23584354Y-23622357D01*
X23584355Y-23622357D01*
X23718357Y-23488355D01*
X23718357Y-23488354D01*
X23829752Y-23335034D01*
X23915789Y-23166178D01*
X23974354Y-22985937D01*
X24004000Y-22798762D01*
X24004000Y-22250000D01*
X23250000Y-22250000D01*
X23250000Y-21750000D01*
X24004000Y-21750000D01*
X24004000Y-21201237D01*
X23974354Y-21014062D01*
X23915789Y-20833821D01*
X23829752Y-20664965D01*
X23718357Y-20511645D01*
X23718357Y-20511644D01*
X23584355Y-20377642D01*
X23431034Y-20266247D01*
X23262178Y-20180210D01*
X23081936Y-20121646D01*
X23081930Y-20121644D01*
X23050000Y-20116586D01*
X23050000Y-20964722D01*
X22973694Y-20920667D01*
X22859244Y-20890000D01*
X22740756Y-20890000D01*
X22626306Y-20920667D01*
X22550000Y-20964722D01*
X22550000Y-20116586D01*
X22518069Y-20121644D01*
X22518063Y-20121646D01*
X22337821Y-20180210D01*
X22168962Y-20266249D01*
X22047385Y-20354580D01*
X21981579Y-20378060D01*
X21913525Y-20362234D01*
X21864830Y-20312129D01*
X21850500Y-20254262D01*
X21850500Y-20240693D01*
X21850500Y-20240691D01*
X21819799Y-20126114D01*
X21760489Y-20023387D01*
X21676613Y-19939511D01*
X21573886Y-19880201D01*
X21459309Y-19849500D01*
X21340691Y-19849500D01*
X21226114Y-19880201D01*
X21226112Y-19880201D01*
X21226112Y-19880202D01*
X21123387Y-19939511D01*
X21123384Y-19939513D01*
X21039513Y-20023384D01*
X21039511Y-20023387D01*
X20982781Y-20121646D01*
X20980201Y-20126114D01*
X20949500Y-20240691D01*
X17925701Y-20240691D01*
X18629573Y-19536819D01*
X18690896Y-19503334D01*
X18717254Y-19500500D01*
X21952725Y-19500500D01*
X21952727Y-19500500D01*
X22054588Y-19473207D01*
X22145913Y-19420480D01*
X23120480Y-18445913D01*
X23173207Y-18354588D01*
X23200500Y-18252727D01*
X23200500Y-18147273D01*
X23200500Y-13140691D01*
X30582458Y-13140691D01*
X30582458Y-13259309D01*
X30613159Y-13373886D01*
X30672469Y-13476613D01*
X30756345Y-13560489D01*
X30859072Y-13619799D01*
X30973649Y-13650500D01*
X30973652Y-13650500D01*
X31092264Y-13650500D01*
X31092267Y-13650500D01*
X31206844Y-13619799D01*
X31309571Y-13560489D01*
X31393447Y-13476613D01*
X31410881Y-13446415D01*
X31461446Y-13398200D01*
X31530053Y-13384976D01*
X31594918Y-13410943D01*
X31625654Y-13446413D01*
X31628658Y-13451615D01*
X31639511Y-13470413D01*
X31723387Y-13554289D01*
X31826114Y-13613599D01*
X31940691Y-13644300D01*
X31940694Y-13644300D01*
X32059306Y-13644300D01*
X32059309Y-13644300D01*
X32173886Y-13613599D01*
X32276613Y-13554289D01*
X32360489Y-13470413D01*
X32392613Y-13414772D01*
X32443180Y-13366557D01*
X32511787Y-13353335D01*
X32576652Y-13379303D01*
X32607386Y-13414772D01*
X32639511Y-13470413D01*
X32723387Y-13554289D01*
X32826114Y-13613599D01*
X32940691Y-13644300D01*
X32940694Y-13644300D01*
X33059306Y-13644300D01*
X33059309Y-13644300D01*
X33173886Y-13613599D01*
X33276613Y-13554289D01*
X33360489Y-13470413D01*
X33392613Y-13414772D01*
X33443180Y-13366557D01*
X33511787Y-13353335D01*
X33576652Y-13379303D01*
X33607386Y-13414772D01*
X33639511Y-13470413D01*
X33723387Y-13554289D01*
X33826114Y-13613599D01*
X33940691Y-13644300D01*
X33940694Y-13644300D01*
X34059306Y-13644300D01*
X34059309Y-13644300D01*
X34173886Y-13613599D01*
X34276613Y-13554289D01*
X34360489Y-13470413D01*
X34419799Y-13367686D01*
X34450500Y-13253109D01*
X34450500Y-13134491D01*
X34419799Y-13019914D01*
X34360489Y-12917187D01*
X34276613Y-12833311D01*
X34173886Y-12774001D01*
X34059309Y-12743300D01*
X33940691Y-12743300D01*
X33826114Y-12774001D01*
X33826112Y-12774001D01*
X33826112Y-12774002D01*
X33723387Y-12833311D01*
X33723384Y-12833313D01*
X33639513Y-12917184D01*
X33639511Y-12917187D01*
X33607387Y-12972827D01*
X33556819Y-13021042D01*
X33488212Y-13034264D01*
X33423347Y-13008296D01*
X33392613Y-12972827D01*
X33382476Y-12955270D01*
X33360489Y-12917187D01*
X33276613Y-12833311D01*
X33173886Y-12774001D01*
X33059309Y-12743300D01*
X32940691Y-12743300D01*
X32826114Y-12774001D01*
X32826112Y-12774001D01*
X32826112Y-12774002D01*
X32723387Y-12833311D01*
X32723384Y-12833313D01*
X32639513Y-12917184D01*
X32639511Y-12917187D01*
X32607387Y-12972827D01*
X32556819Y-13021042D01*
X32488212Y-13034264D01*
X32423347Y-13008296D01*
X32392613Y-12972827D01*
X32382476Y-12955270D01*
X32360489Y-12917187D01*
X32276613Y-12833311D01*
X32173886Y-12774001D01*
X32059309Y-12743300D01*
X31940691Y-12743300D01*
X31826114Y-12774001D01*
X31826112Y-12774001D01*
X31826112Y-12774002D01*
X31723387Y-12833311D01*
X31723384Y-12833313D01*
X31639513Y-12917184D01*
X31639509Y-12917190D01*
X31622075Y-12947386D01*
X31571507Y-12995600D01*
X31502900Y-13008822D01*
X31438036Y-12982853D01*
X31407302Y-12947385D01*
X31393447Y-12923387D01*
X31309571Y-12839511D01*
X31206844Y-12780201D01*
X31092267Y-12749500D01*
X30973649Y-12749500D01*
X30859072Y-12780201D01*
X30859070Y-12780201D01*
X30859070Y-12780202D01*
X30756345Y-12839511D01*
X30756342Y-12839513D01*
X30672471Y-12923384D01*
X30672469Y-12923387D01*
X30616739Y-13019914D01*
X30613159Y-13026114D01*
X30582458Y-13140691D01*
X23200500Y-13140691D01*
X23200500Y-10017254D01*
X23220185Y-9950216D01*
X23236819Y-9929574D01*
X23729574Y-9436819D01*
X23790897Y-9403334D01*
X23817255Y-9400500D01*
X26352725Y-9400500D01*
X26352727Y-9400500D01*
X26454588Y-9373207D01*
X26545913Y-9320480D01*
X27310703Y-8555687D01*
X27310708Y-8555684D01*
X27320911Y-8545480D01*
X27320913Y-8545480D01*
X27395480Y-8470913D01*
X27448207Y-8379587D01*
X27449278Y-8375591D01*
X27475501Y-8277726D01*
X27475501Y-8172273D01*
X27475501Y-8164678D01*
X27475500Y-8164660D01*
X27475500Y-6658183D01*
X27495185Y-6591144D01*
X27547989Y-6545389D01*
X27617147Y-6535445D01*
X27661498Y-6550795D01*
X27731814Y-6591392D01*
X27859108Y-6625500D01*
X27859110Y-6625500D01*
X27990890Y-6625500D01*
X27990892Y-6625500D01*
X28118186Y-6591392D01*
X28232314Y-6525500D01*
X28262319Y-6495495D01*
X28323642Y-6462010D01*
X28393334Y-6466994D01*
X28437681Y-6495495D01*
X28467686Y-6525500D01*
X28581814Y-6591392D01*
X28709108Y-6625500D01*
X28709110Y-6625500D01*
X28840890Y-6625500D01*
X28840892Y-6625500D01*
X28968186Y-6591392D01*
X29082314Y-6525500D01*
X29112319Y-6495495D01*
X29173642Y-6462010D01*
X29243334Y-6466994D01*
X29287681Y-6495495D01*
X29317686Y-6525500D01*
X29431814Y-6591392D01*
X29559108Y-6625500D01*
X29559110Y-6625500D01*
X29690890Y-6625500D01*
X29690892Y-6625500D01*
X29818186Y-6591392D01*
X29932314Y-6525500D01*
X29962319Y-6495495D01*
X30023642Y-6462010D01*
X30093334Y-6466994D01*
X30137681Y-6495495D01*
X30167686Y-6525500D01*
X30281814Y-6591392D01*
X30409108Y-6625500D01*
X30409110Y-6625500D01*
X30540890Y-6625500D01*
X30540892Y-6625500D01*
X30668186Y-6591392D01*
X30714669Y-6564554D01*
X30741729Y-6557989D01*
X30767820Y-6548258D01*
X30775213Y-6549866D01*
X30782568Y-6548082D01*
X30808886Y-6557190D01*
X30836094Y-6563109D01*
X30844786Y-6569615D01*
X30848595Y-6570934D01*
X30864348Y-6584259D01*
X30888179Y-6608089D01*
X30921666Y-6669411D01*
X30924500Y-6695772D01*
X30924500Y-6872273D01*
X30924500Y-6977727D01*
X30930550Y-7000306D01*
X30951793Y-7079589D01*
X30961484Y-7096373D01*
X31004520Y-7170913D01*
X32579519Y-8745912D01*
X32579520Y-8745913D01*
X32654087Y-8820480D01*
X32745413Y-8873207D01*
X32847273Y-8900500D01*
X33882745Y-8900500D01*
X33949784Y-8920185D01*
X33970426Y-8936819D01*
X34763181Y-9729574D01*
X34796666Y-9790897D01*
X34799500Y-9817255D01*
X34799500Y-15652726D01*
X34826793Y-15754589D01*
X34853156Y-15800250D01*
X34879520Y-15845913D01*
X34879522Y-15845915D01*
X38763181Y-19729574D01*
X38796666Y-19790897D01*
X38799500Y-19817255D01*
X38799500Y-22454068D01*
X38795236Y-22486304D01*
X38771655Y-22573887D01*
X38562700Y-23349968D01*
X38561462Y-23354882D01*
X38561295Y-23355595D01*
X38561294Y-23355603D01*
X38561075Y-23367671D01*
X38558713Y-23389604D01*
X38549500Y-23435927D01*
X38549500Y-23435931D01*
X38549500Y-23564069D01*
X38549500Y-23564071D01*
X38549499Y-23564071D01*
X38574497Y-23689738D01*
X38574499Y-23689744D01*
X38623533Y-23808124D01*
X38623538Y-23808133D01*
X38694723Y-23914668D01*
X38694726Y-23914672D01*
X38785327Y-24005273D01*
X38785331Y-24005276D01*
X38891866Y-24076461D01*
X38891872Y-24076464D01*
X38891873Y-24076465D01*
X39010256Y-24125501D01*
X39010260Y-24125501D01*
X39010261Y-24125502D01*
X39135928Y-24150500D01*
X39135931Y-24150500D01*
X39264071Y-24150500D01*
X39348615Y-24133682D01*
X39389744Y-24125501D01*
X39508127Y-24076465D01*
X39614669Y-24005276D01*
X39705276Y-23914669D01*
X39776465Y-23808127D01*
X39825501Y-23689744D01*
X39838640Y-23623691D01*
X39850500Y-23564071D01*
X39850500Y-23435931D01*
X39850499Y-23435927D01*
X39840837Y-23387358D01*
X39838733Y-23371446D01*
X39837300Y-23349973D01*
X39795501Y-23194726D01*
X39604764Y-22486304D01*
X39600500Y-22454066D01*
X39600500Y-21201237D01*
X41596000Y-21201237D01*
X41596000Y-21750000D01*
X42350000Y-21750000D01*
X42350000Y-22250000D01*
X41596000Y-22250000D01*
X41596000Y-22798762D01*
X41625645Y-22985937D01*
X41684210Y-23166178D01*
X41770247Y-23335034D01*
X41881642Y-23488354D01*
X41881642Y-23488355D01*
X42015644Y-23622357D01*
X42168965Y-23733752D01*
X42337821Y-23819789D01*
X42518055Y-23878351D01*
X42550000Y-23883411D01*
X42550000Y-23035277D01*
X42626306Y-23079333D01*
X42740756Y-23110000D01*
X42859244Y-23110000D01*
X42973694Y-23079333D01*
X43050000Y-23035277D01*
X43050000Y-23883411D01*
X43081944Y-23878351D01*
X43262178Y-23819789D01*
X43431034Y-23733752D01*
X43584354Y-23622357D01*
X43584355Y-23622357D01*
X43718357Y-23488355D01*
X43718357Y-23488354D01*
X43829752Y-23335034D01*
X43915789Y-23166178D01*
X43974354Y-22985937D01*
X44004000Y-22798762D01*
X44004000Y-22250000D01*
X43250000Y-22250000D01*
X43250000Y-21750000D01*
X44004000Y-21750000D01*
X44004000Y-21201237D01*
X43974354Y-21014062D01*
X43915789Y-20833821D01*
X43829752Y-20664965D01*
X43718357Y-20511645D01*
X43718357Y-20511644D01*
X43584355Y-20377642D01*
X43431034Y-20266247D01*
X43262178Y-20180210D01*
X43081936Y-20121646D01*
X43081930Y-20121644D01*
X43050000Y-20116586D01*
X43050000Y-20964722D01*
X42973694Y-20920667D01*
X42859244Y-20890000D01*
X42740756Y-20890000D01*
X42626306Y-20920667D01*
X42550000Y-20964722D01*
X42550000Y-20116586D01*
X42518069Y-20121644D01*
X42518063Y-20121646D01*
X42337821Y-20180210D01*
X42168965Y-20266247D01*
X42015645Y-20377642D01*
X42015644Y-20377642D01*
X41881642Y-20511644D01*
X41881642Y-20511645D01*
X41770247Y-20664965D01*
X41684210Y-20833821D01*
X41625645Y-21014062D01*
X41596000Y-21201237D01*
X39600500Y-21201237D01*
X39600500Y-19547275D01*
X39600500Y-19547273D01*
X39598344Y-19539226D01*
X39573207Y-19445412D01*
X39520480Y-19354087D01*
X35636819Y-15470426D01*
X35603334Y-15409103D01*
X35600500Y-15382745D01*
X35600500Y-9547274D01*
X35600499Y-9547267D01*
X35596271Y-9531486D01*
X35596265Y-9531470D01*
X35573207Y-9445412D01*
X35520480Y-9354087D01*
X34345913Y-8179520D01*
X34300250Y-8153156D01*
X34254589Y-8126793D01*
X34203657Y-8113146D01*
X34152727Y-8099500D01*
X34152726Y-8099500D01*
X33117255Y-8099500D01*
X33050216Y-8079815D01*
X33029574Y-8063181D01*
X32153074Y-7186681D01*
X32119589Y-7125358D01*
X32124573Y-7055666D01*
X32166445Y-6999733D01*
X32231909Y-6975316D01*
X32240755Y-6975000D01*
X32258720Y-6975000D01*
X32258722Y-6974999D01*
X32422928Y-6942336D01*
X32422936Y-6942334D01*
X32575561Y-6879114D01*
X32346447Y-6650000D01*
X32700000Y-6650000D01*
X32700000Y-6296447D01*
X32929114Y-6525561D01*
X32969222Y-6428734D01*
X33013063Y-6374330D01*
X33079357Y-6352265D01*
X33147056Y-6369544D01*
X33153579Y-6373959D01*
X33249947Y-6429596D01*
X33293216Y-6454577D01*
X33445943Y-6495500D01*
X33445945Y-6495500D01*
X33604055Y-6495500D01*
X33604057Y-6495500D01*
X33756784Y-6454577D01*
X33893716Y-6375520D01*
X34005520Y-6263716D01*
X34084577Y-6126784D01*
X34125500Y-5974057D01*
X34125500Y-4315943D01*
X34084577Y-4163216D01*
X34077407Y-4150797D01*
X34005524Y-4026290D01*
X34005518Y-4026282D01*
X33893717Y-3914481D01*
X33893709Y-3914475D01*
X33756790Y-3835426D01*
X33756786Y-3835424D01*
X33756784Y-3835423D01*
X33604057Y-3794500D01*
X33445943Y-3794500D01*
X33293216Y-3835423D01*
X33293209Y-3835426D01*
X33156290Y-3914475D01*
X33156282Y-3914481D01*
X33044481Y-4026282D01*
X33044475Y-4026290D01*
X32965426Y-4163209D01*
X32965423Y-4163216D01*
X32924500Y-4315943D01*
X32924500Y-4327691D01*
X32904815Y-4394730D01*
X32888181Y-4415372D01*
X32700000Y-4603553D01*
X32700000Y-4300000D01*
X32296446Y-4300000D01*
X32575561Y-4020884D01*
X32422936Y-3957665D01*
X32422928Y-3957663D01*
X32258721Y-3925000D01*
X32091279Y-3925000D01*
X31927071Y-3957662D01*
X31927062Y-3957665D01*
X31774437Y-4020884D01*
X31771527Y-4035513D01*
X31783916Y-4058201D01*
X31778932Y-4127893D01*
X31737060Y-4183826D01*
X31671596Y-4208243D01*
X31605276Y-4194435D01*
X31559485Y-4170482D01*
X31492454Y-4150800D01*
X31492440Y-4150797D01*
X31448641Y-4144500D01*
X31448638Y-4144500D01*
X31201362Y-4144500D01*
X31184754Y-4145390D01*
X31184745Y-4145390D01*
X31184739Y-4145391D01*
X31184733Y-4145391D01*
X31184702Y-4145394D01*
X31158381Y-4148224D01*
X31158378Y-4148225D01*
X31100485Y-4166352D01*
X31100481Y-4166353D01*
X31039166Y-4199832D01*
X31018585Y-4215239D01*
X31003728Y-4226361D01*
X31003726Y-4226363D01*
X31003722Y-4226366D01*
X30896048Y-4334040D01*
X30834725Y-4367524D01*
X30765033Y-4362540D01*
X30746367Y-4353745D01*
X30668189Y-4308609D01*
X30668186Y-4308608D01*
X30540892Y-4274500D01*
X30409108Y-4274500D01*
X30281812Y-4308608D01*
X30167686Y-4374500D01*
X30167683Y-4374502D01*
X30137681Y-4404505D01*
X30076358Y-4437990D01*
X30006666Y-4433006D01*
X29962319Y-4404505D01*
X29932316Y-4374502D01*
X29932314Y-4374500D01*
X29875250Y-4341554D01*
X29818187Y-4308608D01*
X29739670Y-4287570D01*
X29690892Y-4274500D01*
X29559108Y-4274500D01*
X29431812Y-4308608D01*
X29317686Y-4374500D01*
X29317683Y-4374502D01*
X29287681Y-4404505D01*
X29226358Y-4437990D01*
X29156666Y-4433006D01*
X29112319Y-4404505D01*
X29082316Y-4374502D01*
X29082314Y-4374500D01*
X29025250Y-4341554D01*
X28968187Y-4308608D01*
X28889670Y-4287570D01*
X28840892Y-4274500D01*
X28709108Y-4274500D01*
X28581812Y-4308608D01*
X28467686Y-4374500D01*
X28467683Y-4374502D01*
X28437681Y-4404505D01*
X28376358Y-4437990D01*
X28306666Y-4433006D01*
X28262319Y-4404505D01*
X28232316Y-4374502D01*
X28232314Y-4374500D01*
X28175250Y-4341554D01*
X28118187Y-4308608D01*
X28039670Y-4287570D01*
X27990892Y-4274500D01*
X27859108Y-4274500D01*
X27731811Y-4308608D01*
X27685329Y-4335445D01*
X27617428Y-4351916D01*
X27551402Y-4329063D01*
X27535649Y-4315739D01*
X27474090Y-4254180D01*
X27396274Y-4176364D01*
X27396259Y-4176350D01*
X27396248Y-4176340D01*
X27383910Y-4165257D01*
X27383883Y-4165234D01*
X27363250Y-4148607D01*
X27363245Y-4148604D01*
X27309488Y-4120484D01*
X27309487Y-4120483D01*
X27309482Y-4120481D01*
X27242454Y-4100800D01*
X27242440Y-4100797D01*
X27198641Y-4094500D01*
X27198638Y-4094500D01*
X26951362Y-4094500D01*
X26934754Y-4095390D01*
X26934745Y-4095390D01*
X26934739Y-4095391D01*
X26934733Y-4095391D01*
X26934702Y-4095394D01*
X26908380Y-4098224D01*
X26908378Y-4098225D01*
X26850483Y-4116354D01*
X26850472Y-4116358D01*
X26812845Y-4136904D01*
X26744572Y-4151755D01*
X26679108Y-4127337D01*
X26637238Y-4071403D01*
X26631803Y-4052262D01*
X26625561Y-4020884D01*
X26472936Y-3957665D01*
X26472928Y-3957663D01*
X26308721Y-3925000D01*
X26141279Y-3925000D01*
X25977071Y-3957662D01*
X25977062Y-3957665D01*
X25824437Y-4020884D01*
X26053554Y-4250000D01*
X25700000Y-4250000D01*
X25700000Y-4603553D01*
X25511819Y-4415372D01*
X25478334Y-4354049D01*
X25475500Y-4327691D01*
X25475500Y-4315945D01*
X25475500Y-4315943D01*
X25434577Y-4163216D01*
X25427407Y-4150797D01*
X25355524Y-4026290D01*
X25355518Y-4026282D01*
X25243717Y-3914481D01*
X25243709Y-3914475D01*
X25106790Y-3835426D01*
X25106786Y-3835424D01*
X25106784Y-3835423D01*
X24954057Y-3794500D01*
X24795943Y-3794500D01*
X24643216Y-3835423D01*
X24643209Y-3835426D01*
X24506290Y-3914475D01*
X24506282Y-3914481D01*
X24394481Y-4026282D01*
X24394475Y-4026290D01*
X24315426Y-4163209D01*
X24315423Y-4163216D01*
X24274500Y-4315943D01*
X24274500Y-5914403D01*
X24254815Y-5981442D01*
X24202011Y-6027197D01*
X24150500Y-6038403D01*
X24139465Y-6038403D01*
X24024888Y-6069104D01*
X24024886Y-6069104D01*
X24024886Y-6069105D01*
X23922161Y-6128414D01*
X23922158Y-6128416D01*
X23838287Y-6212287D01*
X23838285Y-6212290D01*
X23790377Y-6295269D01*
X23778975Y-6315017D01*
X23748274Y-6429594D01*
X23748274Y-6548212D01*
X23778975Y-6662789D01*
X23838285Y-6765516D01*
X23922161Y-6849392D01*
X24024888Y-6908702D01*
X24139465Y-6939403D01*
X24139468Y-6939403D01*
X24258080Y-6939403D01*
X24258083Y-6939403D01*
X24372660Y-6908702D01*
X24475387Y-6849392D01*
X24559263Y-6765516D01*
X24618573Y-6662789D01*
X24640184Y-6582135D01*
X24676546Y-6522478D01*
X24739393Y-6491948D01*
X24792049Y-6494456D01*
X24795943Y-6495500D01*
X24795947Y-6495500D01*
X24954055Y-6495500D01*
X24954057Y-6495500D01*
X25106784Y-6454577D01*
X25183390Y-6410349D01*
X25250755Y-6371457D01*
X25251925Y-6373484D01*
X25305887Y-6352618D01*
X25374333Y-6366650D01*
X25424328Y-6415459D01*
X25430777Y-6428734D01*
X25470884Y-6525561D01*
X25700000Y-6296445D01*
X25700000Y-6600000D01*
X26103552Y-6600000D01*
X25824437Y-6879114D01*
X25977063Y-6942334D01*
X25977071Y-6942336D01*
X26141277Y-6974999D01*
X26141280Y-6975000D01*
X26308720Y-6975000D01*
X26308722Y-6974999D01*
X26472928Y-6942336D01*
X26472932Y-6942335D01*
X26503046Y-6929862D01*
X26572515Y-6922393D01*
X26634995Y-6953667D01*
X26670648Y-7013756D01*
X26674500Y-7044423D01*
X26674500Y-8007745D01*
X26654815Y-8074784D01*
X26638181Y-8095426D01*
X26170426Y-8563181D01*
X26109103Y-8596666D01*
X26082745Y-8599500D01*
X23547273Y-8599500D01*
X23445410Y-8626793D01*
X23354087Y-8679520D01*
X23354084Y-8679522D01*
X23170426Y-8863181D01*
X23109103Y-8896666D01*
X23082745Y-8899500D01*
X18779330Y-8899500D01*
X18712291Y-8879815D01*
X18691649Y-8863181D01*
X16307990Y-6479522D01*
X16307988Y-6479520D01*
X16257205Y-6450200D01*
X16216664Y-6426793D01*
X16155292Y-6410349D01*
X16114802Y-6399500D01*
X16114801Y-6399500D01*
X12417254Y-6399500D01*
X12350215Y-6379815D01*
X12329573Y-6363181D01*
X10286637Y-4320245D01*
X10207083Y-4240691D01*
X15749500Y-4240691D01*
X15749500Y-4359309D01*
X15780201Y-4473886D01*
X15839511Y-4576613D01*
X15923387Y-4660489D01*
X16026114Y-4719799D01*
X16140691Y-4750500D01*
X16140694Y-4750500D01*
X16259306Y-4750500D01*
X16259309Y-4750500D01*
X16373886Y-4719799D01*
X16476613Y-4660489D01*
X16560489Y-4576613D01*
X16619799Y-4473886D01*
X16650500Y-4359309D01*
X16650500Y-4240691D01*
X16619799Y-4126114D01*
X16560489Y-4023387D01*
X16476613Y-3939511D01*
X16373886Y-3880201D01*
X16259309Y-3849500D01*
X16140691Y-3849500D01*
X16026114Y-3880201D01*
X16026112Y-3880201D01*
X16026112Y-3880202D01*
X15923387Y-3939511D01*
X15923384Y-3939513D01*
X15839513Y-4023384D01*
X15839511Y-4023387D01*
X15783452Y-4120484D01*
X15780201Y-4126114D01*
X15749500Y-4240691D01*
X10207083Y-4240691D01*
X9641189Y-3674797D01*
X8207084Y-2240691D01*
X16449500Y-2240691D01*
X16449500Y-2359309D01*
X16480201Y-2473886D01*
X16539511Y-2576613D01*
X16623387Y-2660489D01*
X16726114Y-2719799D01*
X16840691Y-2750500D01*
X16840694Y-2750500D01*
X16959306Y-2750500D01*
X16959309Y-2750500D01*
X17073886Y-2719799D01*
X17176613Y-2660489D01*
X17260489Y-2576613D01*
X17319799Y-2473886D01*
X17350500Y-2359309D01*
X17350500Y-2240691D01*
X17649500Y-2240691D01*
X17649500Y-2359309D01*
X17680201Y-2473886D01*
X17739511Y-2576613D01*
X17823387Y-2660489D01*
X17926114Y-2719799D01*
X18040691Y-2750500D01*
X18040694Y-2750500D01*
X18159306Y-2750500D01*
X18159309Y-2750500D01*
X18273886Y-2719799D01*
X18376613Y-2660489D01*
X18460489Y-2576613D01*
X18519799Y-2473886D01*
X18550500Y-2359309D01*
X18550500Y-2240691D01*
X18519799Y-2126114D01*
X18460489Y-2023387D01*
X18376613Y-1939511D01*
X18273886Y-1880201D01*
X18159309Y-1849500D01*
X18040691Y-1849500D01*
X17926114Y-1880201D01*
X17926112Y-1880201D01*
X17926112Y-1880202D01*
X17823387Y-1939511D01*
X17823384Y-1939513D01*
X17739513Y-2023384D01*
X17739511Y-2023387D01*
X17700652Y-2090693D01*
X17680201Y-2126114D01*
X17649500Y-2240691D01*
X17350500Y-2240691D01*
X17319799Y-2126114D01*
X17260489Y-2023387D01*
X17176613Y-1939511D01*
X17073886Y-1880201D01*
X16959309Y-1849500D01*
X16840691Y-1849500D01*
X16726114Y-1880201D01*
X16726112Y-1880201D01*
X16726112Y-1880202D01*
X16623387Y-1939511D01*
X16623384Y-1939513D01*
X16539513Y-2023384D01*
X16539511Y-2023387D01*
X16500652Y-2090693D01*
X16480201Y-2126114D01*
X16449500Y-2240691D01*
X8207084Y-2240691D01*
X7252336Y-1285943D01*
X24274500Y-1285943D01*
X24274500Y-2244057D01*
X24311120Y-2380723D01*
X24315423Y-2396783D01*
X24315426Y-2396790D01*
X24394475Y-2533709D01*
X24394479Y-2533714D01*
X24394480Y-2533716D01*
X24506284Y-2645520D01*
X24506286Y-2645521D01*
X24506290Y-2645524D01*
X24532211Y-2660489D01*
X24643216Y-2724577D01*
X24795943Y-2765500D01*
X24795945Y-2765500D01*
X24954055Y-2765500D01*
X24954057Y-2765500D01*
X25106784Y-2724577D01*
X25243716Y-2645520D01*
X25355520Y-2533716D01*
X25434577Y-2396784D01*
X25475500Y-2244057D01*
X25475500Y-1285943D01*
X32924500Y-1285943D01*
X32924500Y-2244057D01*
X32961120Y-2380723D01*
X32965423Y-2396783D01*
X32965426Y-2396790D01*
X33044475Y-2533709D01*
X33044479Y-2533714D01*
X33044480Y-2533716D01*
X33156284Y-2645520D01*
X33156286Y-2645521D01*
X33156290Y-2645524D01*
X33182211Y-2660489D01*
X33293216Y-2724577D01*
X33445943Y-2765500D01*
X33445945Y-2765500D01*
X33604055Y-2765500D01*
X33604057Y-2765500D01*
X33756784Y-2724577D01*
X33893716Y-2645520D01*
X34005520Y-2533716D01*
X34070629Y-2420943D01*
X36699500Y-2420943D01*
X36699500Y-2579057D01*
X36721320Y-2660488D01*
X36740423Y-2731783D01*
X36740426Y-2731790D01*
X36819475Y-2868709D01*
X36819479Y-2868714D01*
X36819480Y-2868716D01*
X36931284Y-2980520D01*
X36931286Y-2980521D01*
X36931290Y-2980524D01*
X37028730Y-3036780D01*
X37068216Y-3059577D01*
X37220943Y-3100500D01*
X37220945Y-3100500D01*
X37379055Y-3100500D01*
X37379057Y-3100500D01*
X37531784Y-3059577D01*
X37668716Y-2980520D01*
X37780520Y-2868716D01*
X37859577Y-2731784D01*
X37900500Y-2579057D01*
X37900500Y-2420943D01*
X37859577Y-2268216D01*
X37829539Y-2216188D01*
X37780524Y-2131290D01*
X37780518Y-2131282D01*
X37668717Y-2019481D01*
X37668709Y-2019475D01*
X37531790Y-1940426D01*
X37531786Y-1940424D01*
X37531784Y-1940423D01*
X37379057Y-1899500D01*
X37220943Y-1899500D01*
X37068216Y-1940423D01*
X37068209Y-1940426D01*
X36931290Y-2019475D01*
X36931282Y-2019481D01*
X36819481Y-2131282D01*
X36819475Y-2131290D01*
X36740426Y-2268209D01*
X36740423Y-2268216D01*
X36699500Y-2420943D01*
X34070629Y-2420943D01*
X34084577Y-2396784D01*
X34125500Y-2244057D01*
X34125500Y-1285943D01*
X34084577Y-1133216D01*
X34047339Y-1068717D01*
X34005524Y-996290D01*
X34005518Y-996282D01*
X33893717Y-884481D01*
X33893709Y-884475D01*
X33756790Y-805426D01*
X33756786Y-805424D01*
X33756784Y-805423D01*
X33604057Y-764500D01*
X33445943Y-764500D01*
X33293216Y-805423D01*
X33293209Y-805426D01*
X33156290Y-884475D01*
X33156282Y-884481D01*
X33044481Y-996282D01*
X33044475Y-996290D01*
X32965426Y-1133209D01*
X32965423Y-1133216D01*
X32924500Y-1285943D01*
X25475500Y-1285943D01*
X25434577Y-1133216D01*
X25397339Y-1068717D01*
X25355524Y-996290D01*
X25355518Y-996282D01*
X25243717Y-884481D01*
X25243709Y-884475D01*
X25106790Y-805426D01*
X25106786Y-805424D01*
X25106784Y-805423D01*
X24954057Y-764500D01*
X24795943Y-764500D01*
X24643216Y-805423D01*
X24643209Y-805426D01*
X24506290Y-884475D01*
X24506282Y-884481D01*
X24394481Y-996282D01*
X24394475Y-996290D01*
X24315426Y-1133209D01*
X24315423Y-1133216D01*
X24274500Y-1285943D01*
X7252336Y-1285943D01*
X6945913Y-979520D01*
X6900250Y-953156D01*
X6854589Y-926793D01*
X6803657Y-913146D01*
X6752727Y-899500D01*
X6752726Y-899500D01*
X3846724Y-899500D01*
X3799233Y-890045D01*
X3141986Y-617547D01*
X3142205Y-617017D01*
X3118344Y-605362D01*
X3108127Y-598535D01*
X3108124Y-598533D01*
X2989744Y-549499D01*
X2989738Y-549497D01*
X2864071Y-524500D01*
X2864069Y-524500D01*
X2735931Y-524500D01*
X2735929Y-524500D01*
X2610261Y-549497D01*
X2610255Y-549499D01*
X2491875Y-598533D01*
X2491866Y-598538D01*
X2385332Y-669722D01*
X2294721Y-760334D01*
X2275702Y-788797D01*
X2257902Y-809902D01*
X2250771Y-816660D01*
X2250768Y-816663D01*
X1763275Y-1505477D01*
X1761825Y-1507904D01*
X1743083Y-1531944D01*
X1315489Y-1959540D01*
X1259541Y-2015487D01*
X1259535Y-2015495D01*
X1219982Y-2084004D01*
X1219979Y-2084009D01*
X1199500Y-2160439D01*
X1199500Y-6541164D01*
X1194000Y-6559894D01*
X1193455Y-6579407D01*
X1184358Y-6592728D01*
X1179815Y-6608203D01*
X1165064Y-6620984D01*
X1154055Y-6637108D01*
X1128986Y-6652246D01*
X1127011Y-6653958D01*
X1123875Y-6655338D01*
X1020550Y-6699082D01*
X960090Y-6724678D01*
X943850Y-6730262D01*
X922879Y-6735882D01*
X922878Y-6735882D01*
X899947Y-6749120D01*
X899948Y-6749121D01*
X893328Y-6752942D01*
X882471Y-6757540D01*
X869360Y-6763830D01*
X867442Y-6764863D01*
X858277Y-6773179D01*
X846780Y-6779817D01*
X846778Y-6779819D01*
X820158Y-6795189D01*
X820156Y-6795190D01*
X736279Y-6879067D01*
X679318Y-6977727D01*
X676970Y-6981794D01*
X646269Y-7096371D01*
X500Y-7096371D01*
X500Y-2551569D01*
X20185Y-2484530D01*
X36819Y-2463888D01*
X2463888Y-36819D01*
X2525211Y-3334D01*
X2551569Y-500D01*
X36851372Y-500D01*
X36880121Y-8941D01*
G37*
%TD.AperFunction*%
%TD*%
%TA.AperFunction,Conductor*%
%TO.N,+3V3_MCU*%
G36*
X29915454Y-24813679D02*
G01*
X29921828Y-24821035D01*
X30463830Y-25498538D01*
X30490338Y-25563184D01*
X30477688Y-25631899D01*
X30429896Y-25682866D01*
X30367002Y-25700000D01*
X29282998Y-25700000D01*
X29215959Y-25680315D01*
X29170204Y-25627511D01*
X29160260Y-25558353D01*
X29186170Y-25498538D01*
X29728172Y-24821035D01*
X29785423Y-24780983D01*
X29855238Y-24778240D01*
X29915454Y-24813679D01*
G37*
%TD.AperFunction*%
%TD*%
%TA.AperFunction,Conductor*%
%TO.N,Earth*%
G36*
X26650000Y-4510120D02*
G01*
X26608608Y-4581812D01*
X26574500Y-4709108D01*
X26574500Y-4840891D01*
X26608608Y-4968187D01*
X26650000Y-5039878D01*
X26650000Y-5860120D01*
X26608608Y-5931812D01*
X26574500Y-6059108D01*
X26574500Y-6190892D01*
X26608608Y-6318186D01*
X26650000Y-6389878D01*
X26650000Y-6600000D01*
X25700000Y-6600000D01*
X25700000Y-4250000D01*
X26650000Y-4250000D01*
X26650000Y-4510120D01*
G37*
%TD.AperFunction*%
%TD*%
%TA.AperFunction,Conductor*%
%TO.N,VUSB*%
G36*
X27265677Y-4269685D02*
G01*
X27286319Y-4286319D01*
X27436424Y-4436424D01*
X27469909Y-4497747D01*
X27464925Y-4567439D01*
X27461695Y-4574294D01*
X27461719Y-4574304D01*
X27458608Y-4581814D01*
X27424500Y-4709108D01*
X27424500Y-4840892D01*
X27456984Y-4962126D01*
X27458609Y-4968188D01*
X27458610Y-4968191D01*
X27483386Y-5011103D01*
X27500000Y-5073104D01*
X27500000Y-5826895D01*
X27483387Y-5888895D01*
X27458609Y-5931811D01*
X27458608Y-5931814D01*
X27424500Y-6059108D01*
X27424500Y-6190892D01*
X27455549Y-6306769D01*
X27455263Y-6318768D01*
X27459458Y-6330015D01*
X27454447Y-6353051D01*
X27453886Y-6376619D01*
X27446787Y-6388265D01*
X27444607Y-6398288D01*
X27423456Y-6426543D01*
X27369504Y-6480496D01*
X27286317Y-6563682D01*
X27224997Y-6597166D01*
X27198638Y-6600000D01*
X26951362Y-6600000D01*
X26884323Y-6580315D01*
X26863681Y-6563681D01*
X26841819Y-6541819D01*
X26808334Y-6480496D01*
X26805500Y-6454138D01*
X26805500Y-6389879D01*
X26805500Y-6389877D01*
X26784666Y-6312127D01*
X26761675Y-6272305D01*
X26749286Y-6242396D01*
X26734225Y-6186185D01*
X26730000Y-6154093D01*
X26730000Y-6095903D01*
X26734225Y-6063812D01*
X26749285Y-6007603D01*
X26761670Y-5977698D01*
X26776505Y-5952005D01*
X26776508Y-5952002D01*
X26784666Y-5937871D01*
X26784667Y-5937870D01*
X26805500Y-5860120D01*
X26805500Y-5039876D01*
X26784666Y-4962126D01*
X26761672Y-4922301D01*
X26749285Y-4892393D01*
X26734225Y-4836184D01*
X26730000Y-4804093D01*
X26730000Y-4745903D01*
X26734225Y-4713812D01*
X26749285Y-4657603D01*
X26761670Y-4627698D01*
X26776505Y-4602005D01*
X26776508Y-4602002D01*
X26784666Y-4587871D01*
X26784667Y-4587870D01*
X26805500Y-4510120D01*
X26805500Y-4395862D01*
X26814144Y-4366421D01*
X26820668Y-4336435D01*
X26824422Y-4331419D01*
X26825185Y-4328823D01*
X26841819Y-4308181D01*
X26863681Y-4286319D01*
X26925004Y-4252834D01*
X26951362Y-4250000D01*
X27198638Y-4250000D01*
X27265677Y-4269685D01*
G37*
%TD.AperFunction*%
%TD*%
%TA.AperFunction,Conductor*%
%TO.N,VUSB*%
G36*
X31515677Y-4319685D02*
G01*
X31536319Y-4336319D01*
X31673455Y-4473455D01*
X31706940Y-4534778D01*
X31705549Y-4593229D01*
X31674500Y-4709108D01*
X31674500Y-4840891D01*
X31708609Y-4968188D01*
X31708610Y-4968191D01*
X31733386Y-5011103D01*
X31750000Y-5073104D01*
X31750000Y-5826895D01*
X31733387Y-5888895D01*
X31708609Y-5931811D01*
X31708608Y-5931814D01*
X31674500Y-6059108D01*
X31674500Y-6190891D01*
X31708609Y-6318188D01*
X31711720Y-6325700D01*
X31709239Y-6326727D01*
X31712692Y-6340948D01*
X31722427Y-6367048D01*
X31720821Y-6374430D01*
X31722604Y-6381774D01*
X31713495Y-6408103D01*
X31707575Y-6435321D01*
X31701078Y-6443999D01*
X31699762Y-6447805D01*
X31686425Y-6463575D01*
X31536317Y-6613682D01*
X31474996Y-6647166D01*
X31448638Y-6650000D01*
X31201362Y-6650000D01*
X31134323Y-6630315D01*
X31113681Y-6613681D01*
X30963575Y-6463575D01*
X30930090Y-6402252D01*
X30935074Y-6332560D01*
X30938303Y-6325709D01*
X30938280Y-6325700D01*
X30941387Y-6318193D01*
X30941392Y-6318186D01*
X30975500Y-6190892D01*
X30975500Y-6059108D01*
X30941392Y-5931814D01*
X30916613Y-5888895D01*
X30900000Y-5826895D01*
X30900000Y-5073104D01*
X30916614Y-5011103D01*
X30941389Y-4968191D01*
X30941388Y-4968191D01*
X30941392Y-4968186D01*
X30975500Y-4840892D01*
X30975500Y-4709108D01*
X30944450Y-4593226D01*
X30944735Y-4581228D01*
X30940541Y-4569982D01*
X30945551Y-4546947D01*
X30946113Y-4523380D01*
X30953212Y-4511732D01*
X30955393Y-4501709D01*
X30976538Y-4473461D01*
X31113683Y-4336316D01*
X31175004Y-4302834D01*
X31201362Y-4300000D01*
X31448638Y-4300000D01*
X31515677Y-4319685D01*
G37*
%TD.AperFunction*%
%TD*%
%TA.AperFunction,Conductor*%
%TO.N,Earth*%
G36*
X32700000Y-6650000D02*
G01*
X31750000Y-6650000D01*
X31750000Y-6622757D01*
X31761820Y-6608090D01*
X31796374Y-6573536D01*
X31796380Y-6573530D01*
X31805157Y-6563989D01*
X31818494Y-6548219D01*
X31818496Y-6548216D01*
X31818651Y-6547994D01*
X31826927Y-6535362D01*
X31832054Y-6528515D01*
X31841573Y-6507670D01*
X31846725Y-6498620D01*
X31848041Y-6494814D01*
X31847526Y-6494636D01*
X31859522Y-6468370D01*
X31861947Y-6457219D01*
X31861991Y-6457137D01*
X31865887Y-6443221D01*
X31869558Y-6432615D01*
X31871813Y-6425557D01*
X31871896Y-6422050D01*
X31874102Y-6401511D01*
X31875773Y-6392838D01*
X31875774Y-6392834D01*
X31873218Y-6366071D01*
X31873714Y-6345087D01*
X31871931Y-6337743D01*
X31870545Y-6338079D01*
X31868122Y-6312705D01*
X31868120Y-6312700D01*
X31868118Y-6312677D01*
X31866606Y-6307035D01*
X31866604Y-6307029D01*
X31858810Y-6277942D01*
X31858811Y-6277942D01*
X31834225Y-6186185D01*
X31830000Y-6154092D01*
X31830000Y-6095905D01*
X31834225Y-6063813D01*
X31836054Y-6056985D01*
X31849287Y-6007597D01*
X31861671Y-5977698D01*
X31868054Y-5966644D01*
X31883588Y-5929142D01*
X31900201Y-5867142D01*
X31905500Y-5826895D01*
X31905500Y-5073104D01*
X31900201Y-5032856D01*
X31883587Y-4970855D01*
X31868052Y-4933351D01*
X31861674Y-4922305D01*
X31849285Y-4892396D01*
X31834225Y-4836188D01*
X31830000Y-4804096D01*
X31830000Y-4745905D01*
X31834225Y-4713812D01*
X31855751Y-4633475D01*
X31861005Y-4596928D01*
X31862396Y-4538477D01*
X31843419Y-4460255D01*
X31827339Y-4430806D01*
X31809937Y-4398936D01*
X31809932Y-4398929D01*
X31783416Y-4363507D01*
X31783407Y-4363497D01*
X31750000Y-4330090D01*
X31750000Y-4300000D01*
X32700000Y-4300000D01*
X32700000Y-6650000D01*
G37*
%TD.AperFunction*%
%TD*%
%TA.AperFunction,Conductor*%
%TO.N,VUSB*%
G36*
X39449306Y-22513034D02*
G01*
X39452331Y-22518265D01*
X39687147Y-23390401D01*
X39685989Y-23399281D01*
X39678891Y-23404741D01*
X39678154Y-23404914D01*
X39202305Y-23500536D01*
X39197695Y-23500536D01*
X38721845Y-23404914D01*
X38714409Y-23399924D01*
X38712679Y-23391138D01*
X38712852Y-23390401D01*
X38947669Y-22518265D01*
X38953129Y-22511167D01*
X38958967Y-22509607D01*
X39441033Y-22509607D01*
X39449306Y-22513034D01*
G37*
%TD.AperFunction*%
%TD*%
%TA.AperFunction,Conductor*%
%TO.N,VUSB*%
G36*
X17449306Y-22913034D02*
G01*
X17452331Y-22918265D01*
X17687147Y-23790401D01*
X17685989Y-23799281D01*
X17678891Y-23804741D01*
X17678154Y-23804914D01*
X17202305Y-23900536D01*
X17197695Y-23900536D01*
X16721845Y-23804914D01*
X16714409Y-23799924D01*
X16712679Y-23791138D01*
X16712852Y-23790401D01*
X16947669Y-22918265D01*
X16953129Y-22911167D01*
X16958967Y-22909607D01*
X17441033Y-22909607D01*
X17449306Y-22913034D01*
G37*
%TD.AperFunction*%
%TD*%
%TA.AperFunction,Conductor*%
%TO.N,VUSB*%
G36*
X3086641Y-762936D02*
G01*
X3771803Y-1047007D01*
X3778132Y-1053340D01*
X3779021Y-1057814D01*
X3779021Y-1539731D01*
X3775594Y-1548004D01*
X3768840Y-1551332D01*
X2908381Y-1663974D01*
X2899733Y-1661650D01*
X2895392Y-1654679D01*
X2799959Y-1179773D01*
X2801688Y-1170990D01*
X3072444Y-767228D01*
X3079898Y-762266D01*
X3086641Y-762936D01*
G37*
%TD.AperFunction*%
%TD*%
%TA.AperFunction,Conductor*%
%TO.N,VUSB*%
G36*
X2393727Y-903510D02*
G01*
X2796651Y-1171594D01*
X2801641Y-1179030D01*
X2801649Y-1179072D01*
X2895260Y-1653805D01*
X2893498Y-1662584D01*
X2886044Y-1667547D01*
X2885936Y-1667568D01*
X2655650Y-1710727D01*
X2650467Y-1710528D01*
X2609311Y-1699500D01*
X2609309Y-1699500D01*
X2490691Y-1699500D01*
X2490688Y-1699500D01*
X2376116Y-1730199D01*
X2293433Y-1777937D01*
X2289738Y-1779304D01*
X2102701Y-1814358D01*
X2093938Y-1812514D01*
X2092273Y-1811131D01*
X1891482Y-1610340D01*
X1888055Y-1602067D01*
X1890204Y-1595309D01*
X2377699Y-906492D01*
X2385274Y-901720D01*
X2393727Y-903510D01*
G37*
%TD.AperFunction*%
%TD*%
%TA.AperFunction,Conductor*%
%TO.N,VUSB*%
G36*
X1639147Y-6731895D02*
G01*
X1642574Y-6740168D01*
X1641290Y-6745496D01*
X1352179Y-7310680D01*
X1345361Y-7316485D01*
X1336435Y-7315768D01*
X1335290Y-7315098D01*
X1098731Y-7157983D01*
X1095464Y-7154719D01*
X937919Y-6917991D01*
X936188Y-6909205D01*
X941177Y-6901769D01*
X943095Y-6900736D01*
X1322364Y-6740168D01*
X1347813Y-6729394D01*
X1352374Y-6728468D01*
X1630874Y-6728468D01*
X1639147Y-6731895D01*
G37*
%TD.AperFunction*%
%TD*%
%TA.AperFunction,Conductor*%
%TO.N,+3V3_L*%
G36*
X7243195Y-5467593D02*
G01*
X7584068Y-5808466D01*
X7587495Y-5816739D01*
X7585935Y-5822577D01*
X7135282Y-6605310D01*
X7128184Y-6610770D01*
X7119304Y-6609612D01*
X7118661Y-6609213D01*
X6714569Y-6340352D01*
X6711309Y-6337092D01*
X6442448Y-5933000D01*
X6440718Y-5924214D01*
X6445708Y-5916778D01*
X6446324Y-5916395D01*
X7229086Y-5465725D01*
X7237964Y-5464568D01*
X7243195Y-5467593D01*
G37*
%TD.AperFunction*%
%TD*%
%TA.AperFunction,Conductor*%
%TO.N,+3V3_L*%
G36*
X12749306Y-8863034D02*
G01*
X12752331Y-8868265D01*
X12987147Y-9740401D01*
X12985989Y-9749281D01*
X12978891Y-9754741D01*
X12978154Y-9754914D01*
X12502305Y-9850536D01*
X12497695Y-9850536D01*
X12021845Y-9754914D01*
X12014409Y-9749924D01*
X12012679Y-9741138D01*
X12012852Y-9740401D01*
X12247669Y-8868265D01*
X12253129Y-8861167D01*
X12258967Y-8859607D01*
X12741033Y-8859607D01*
X12749306Y-8863034D01*
G37*
%TD.AperFunction*%
%TD*%
%TA.AperFunction,Conductor*%
%TO.N,+3V3_MCU*%
G36*
X54494014Y-9128730D02*
G01*
X54494657Y-9129129D01*
X54898749Y-9397990D01*
X54902009Y-9401250D01*
X55170870Y-9805342D01*
X55172600Y-9814128D01*
X55167610Y-9821564D01*
X55166967Y-9821963D01*
X54384234Y-10272616D01*
X54375354Y-10273774D01*
X54370123Y-10270749D01*
X54029250Y-9929876D01*
X54025823Y-9921603D01*
X54027382Y-9915768D01*
X54478038Y-9133030D01*
X54485134Y-9127572D01*
X54494014Y-9128730D01*
G37*
%TD.AperFunction*%
%TD*%
%TA.AperFunction,Conductor*%
%TO.N,+3V3_MCU*%
G36*
X42398490Y-6114785D02*
G01*
X42404639Y-6121295D01*
X42405178Y-6123158D01*
X42500536Y-6597695D01*
X42500536Y-6602305D01*
X42405178Y-7076841D01*
X42400188Y-7084277D01*
X42391402Y-7086007D01*
X42389539Y-7085468D01*
X41517139Y-6752871D01*
X41510629Y-6746722D01*
X41509607Y-6741939D01*
X41509607Y-6458060D01*
X41513034Y-6449787D01*
X41517137Y-6447129D01*
X42389539Y-6114531D01*
X42398490Y-6114785D01*
G37*
%TD.AperFunction*%
%TD*%
%TA.AperFunction,Conductor*%
%TO.N,+3V3_MCU*%
G36*
X40856166Y-3141265D02*
G01*
X41189998Y-3535192D01*
X41192732Y-3543719D01*
X41189345Y-3551029D01*
X40851029Y-3889345D01*
X40842756Y-3892772D01*
X40835192Y-3889998D01*
X40441265Y-3556166D01*
X40437169Y-3548203D01*
X40439079Y-3540773D01*
X40597985Y-3301263D01*
X40601263Y-3297985D01*
X40840773Y-3139079D01*
X40849560Y-3137361D01*
X40856166Y-3141265D01*
G37*
%TD.AperFunction*%
%TD*%
%TA.AperFunction,Conductor*%
%TO.N,+3V3_MCU*%
G36*
X47587762Y-12422394D02*
G01*
X47595725Y-12426490D01*
X47598499Y-12434054D01*
X47598499Y-12912507D01*
X47595072Y-12920780D01*
X47587762Y-12924167D01*
X47073158Y-12966660D01*
X47064631Y-12963926D01*
X47060727Y-12957320D01*
X47003732Y-12675601D01*
X47003732Y-12670961D01*
X47053841Y-12423281D01*
X47060727Y-12389240D01*
X47065727Y-12381812D01*
X47073157Y-12379901D01*
X47587762Y-12422394D01*
G37*
%TD.AperFunction*%
%TD*%
%TA.AperFunction,Conductor*%
%TO.N,+3V3_MCU*%
G36*
X42483499Y-19049113D02*
G01*
X42491462Y-19053209D01*
X42494236Y-19060773D01*
X42494236Y-19539226D01*
X42490809Y-19547499D01*
X42483499Y-19550886D01*
X41968895Y-19593379D01*
X41960368Y-19590645D01*
X41956464Y-19584039D01*
X41899469Y-19302320D01*
X41899469Y-19297680D01*
X41949578Y-19050000D01*
X41956464Y-19015959D01*
X41961464Y-19008531D01*
X41968894Y-19006620D01*
X42483499Y-19049113D01*
G37*
%TD.AperFunction*%
%TD*%
%TA.AperFunction,Conductor*%
%TO.N,+3V3_MCU*%
G36*
X54384232Y-8527382D02*
G01*
X55166967Y-8978037D01*
X55172427Y-8985134D01*
X55171269Y-8994014D01*
X55170870Y-8994657D01*
X54902009Y-9398749D01*
X54898749Y-9402009D01*
X54494657Y-9670870D01*
X54485871Y-9672600D01*
X54478435Y-9667610D01*
X54478044Y-9666980D01*
X54027382Y-8884232D01*
X54026225Y-8875354D01*
X54029248Y-8870125D01*
X54370124Y-8529249D01*
X54378396Y-8525823D01*
X54384232Y-8527382D01*
G37*
%TD.AperFunction*%
%TD*%
%TA.AperFunction,Conductor*%
%TO.N,+3V3_MCU*%
G36*
X49297826Y-21015119D02*
G01*
X49823404Y-21118838D01*
X49827656Y-21120600D01*
X50270837Y-21417870D01*
X50275798Y-21425325D01*
X50274036Y-21434105D01*
X50272832Y-21435613D01*
X49536702Y-22216350D01*
X49528533Y-22220019D01*
X49520163Y-22216837D01*
X49519916Y-22216597D01*
X49178948Y-21875629D01*
X49175521Y-21867356D01*
X49175616Y-21865875D01*
X49243776Y-21336978D01*
X49244564Y-21334021D01*
X49248580Y-21324328D01*
X49275500Y-21188993D01*
X49275500Y-21091572D01*
X49275596Y-21090077D01*
X49283969Y-21025105D01*
X49288425Y-21017337D01*
X49297068Y-21014996D01*
X49297826Y-21015119D01*
G37*
%TD.AperFunction*%
%TD*%
%TA.AperFunction,Conductor*%
%TO.N,+3V3_MCU*%
G36*
X55378155Y-9495085D02*
G01*
X55385590Y-9500075D01*
X55387320Y-9508861D01*
X55387147Y-9509598D01*
X55152331Y-10381735D01*
X55146871Y-10388833D01*
X55141033Y-10390393D01*
X54658967Y-10390393D01*
X54650694Y-10386966D01*
X54647669Y-10381735D01*
X54412852Y-9509598D01*
X54414010Y-9500718D01*
X54421108Y-9495258D01*
X54421822Y-9495090D01*
X54897696Y-9399463D01*
X54902304Y-9399463D01*
X55378155Y-9495085D01*
G37*
%TD.AperFunction*%
%TD*%
%TA.AperFunction,Conductor*%
%TO.N,+3V3_MCU*%
G36*
X30351899Y-21224783D02*
G01*
X30359335Y-21229771D01*
X30361066Y-21238557D01*
X30360818Y-21239561D01*
X30077473Y-22201039D01*
X30071847Y-22208006D01*
X30066250Y-22209432D01*
X29583750Y-22209432D01*
X29575477Y-22206005D01*
X29572527Y-22201039D01*
X29289181Y-21239561D01*
X29290130Y-21230657D01*
X29297097Y-21225031D01*
X29298083Y-21224787D01*
X29822699Y-21119462D01*
X29827301Y-21119462D01*
X30351899Y-21224783D01*
G37*
%TD.AperFunction*%
%TD*%
%TA.AperFunction,Conductor*%
%TO.N,+3V3_MCU*%
G36*
X9829062Y-21120246D02*
G01*
X10352966Y-21225007D01*
X10360407Y-21229990D01*
X10362146Y-21238767D01*
X10222814Y-21937906D01*
X10219613Y-21943892D01*
X9879360Y-22284145D01*
X9871087Y-22287572D01*
X9862814Y-22284145D01*
X9860949Y-22281713D01*
X9373148Y-21435034D01*
X9371987Y-21426155D01*
X9376768Y-21419476D01*
X9646176Y-21238767D01*
X9820253Y-21122002D01*
X9829032Y-21120241D01*
X9829062Y-21120246D01*
G37*
%TD.AperFunction*%
%TD*%
%TA.AperFunction,Conductor*%
%TO.N,+3V3_MCU*%
G36*
X50074523Y-20033995D02*
G01*
X50077473Y-20038961D01*
X50360818Y-21000438D01*
X50359869Y-21009342D01*
X50352902Y-21014968D01*
X50351898Y-21015216D01*
X49827303Y-21120537D01*
X49822697Y-21120537D01*
X49298101Y-21015216D01*
X49290664Y-21010228D01*
X49288933Y-21001442D01*
X49289177Y-21000450D01*
X49572527Y-20038961D01*
X49578153Y-20031994D01*
X49583750Y-20030568D01*
X50066250Y-20030568D01*
X50074523Y-20033995D01*
G37*
%TD.AperFunction*%
%TD*%
%TA.AperFunction,Conductor*%
%TO.N,+3V3_MCU*%
G36*
X43029876Y-5729250D02*
G01*
X43370749Y-6070123D01*
X43374176Y-6078396D01*
X43372616Y-6084234D01*
X42921963Y-6866967D01*
X42914865Y-6872427D01*
X42905985Y-6871269D01*
X42905342Y-6870870D01*
X42501250Y-6602009D01*
X42497990Y-6598749D01*
X42229129Y-6194657D01*
X42227399Y-6185871D01*
X42232389Y-6178435D01*
X42233005Y-6178052D01*
X43015767Y-5727382D01*
X43024645Y-5726225D01*
X43029876Y-5729250D01*
G37*
%TD.AperFunction*%
%TD*%
%TA.AperFunction,Conductor*%
%TO.N,+3V3_MCU*%
G36*
X42976842Y-6694822D02*
G01*
X42984277Y-6699811D01*
X42986007Y-6708597D01*
X42985468Y-6710460D01*
X42652872Y-7582861D01*
X42646723Y-7589371D01*
X42641940Y-7590393D01*
X42358060Y-7590393D01*
X42349787Y-7586966D01*
X42347128Y-7582861D01*
X42014531Y-6710460D01*
X42014785Y-6701509D01*
X42021295Y-6695360D01*
X42023147Y-6694823D01*
X42497696Y-6599463D01*
X42502304Y-6599463D01*
X42976842Y-6694822D01*
G37*
%TD.AperFunction*%
%TD*%
%TA.AperFunction,Conductor*%
%TO.N,+3V3_MCU*%
G36*
X40949306Y-10709191D02*
G01*
X40952331Y-10714422D01*
X41022321Y-10974371D01*
X41022723Y-10977413D01*
X41022723Y-10986088D01*
X41053422Y-11100661D01*
X41053423Y-11100663D01*
X41058090Y-11108747D01*
X41059255Y-11111554D01*
X41090994Y-11229435D01*
X41089836Y-11238315D01*
X41082738Y-11243775D01*
X41082016Y-11243945D01*
X40802320Y-11300530D01*
X40797680Y-11300530D01*
X40517983Y-11243945D01*
X40510554Y-11238945D01*
X40508835Y-11230157D01*
X40509005Y-11229435D01*
X40541500Y-11108747D01*
X40647669Y-10714422D01*
X40653129Y-10707324D01*
X40658967Y-10705764D01*
X40941033Y-10705764D01*
X40949306Y-10709191D01*
G37*
%TD.AperFunction*%
%TD*%
%TA.AperFunction,Conductor*%
%TO.N,+3V3_MCU*%
G36*
X36249306Y-8109191D02*
G01*
X36252331Y-8114422D01*
X36390994Y-8629435D01*
X36389836Y-8638315D01*
X36382738Y-8643775D01*
X36382016Y-8643945D01*
X36102320Y-8700530D01*
X36097680Y-8700530D01*
X35817983Y-8643945D01*
X35810554Y-8638945D01*
X35808835Y-8630157D01*
X35809005Y-8629435D01*
X35947669Y-8114422D01*
X35953129Y-8107324D01*
X35958967Y-8105764D01*
X36241033Y-8105764D01*
X36249306Y-8109191D01*
G37*
%TD.AperFunction*%
%TD*%
M02*
