%TF.GenerationSoftware,KiCad,Pcbnew,7.0.2-0*%
%TF.CreationDate,2023-08-10T19:07:58-07:00*%
%TF.ProjectId,led-usb-hub,6c65642d-7573-4622-9d68-75622e6b6963,rev?*%
%TF.SameCoordinates,Original*%
%TF.FileFunction,Soldermask,Bot*%
%TF.FilePolarity,Negative*%
%FSLAX46Y46*%
G04 Gerber Fmt 4.6, Leading zero omitted, Abs format (unit mm)*
G04 Created by KiCad (PCBNEW 7.0.2-0) date 2023-08-10 19:07:58*
%MOMM*%
%LPD*%
G01*
G04 APERTURE LIST*
G04 Aperture macros list*
%AMRoundRect*
0 Rectangle with rounded corners*
0 $1 Rounding radius*
0 $2 $3 $4 $5 $6 $7 $8 $9 X,Y pos of 4 corners*
0 Add a 4 corners polygon primitive as box body*
4,1,4,$2,$3,$4,$5,$6,$7,$8,$9,$2,$3,0*
0 Add four circle primitives for the rounded corners*
1,1,$1+$1,$2,$3*
1,1,$1+$1,$4,$5*
1,1,$1+$1,$6,$7*
1,1,$1+$1,$8,$9*
0 Add four rect primitives between the rounded corners*
20,1,$1+$1,$2,$3,$4,$5,0*
20,1,$1+$1,$4,$5,$6,$7,0*
20,1,$1+$1,$6,$7,$8,$9,0*
20,1,$1+$1,$8,$9,$2,$3,0*%
G04 Aperture macros list end*
%ADD10C,0.820000*%
%ADD11O,1.200000X2.520000*%
%ADD12RoundRect,0.400000X-0.300000X-0.350000X0.300000X-0.350000X0.300000X0.350000X-0.300000X0.350000X0*%
%ADD13C,1.000000*%
%ADD14C,0.700000*%
%ADD15O,0.900000X2.400000*%
%ADD16O,0.900000X1.700000*%
%ADD17C,3.200000*%
G04 APERTURE END LIST*
D10*
%TO.C,J2*%
X60600000Y-92260000D03*
X58100000Y-92260000D03*
X56100000Y-92260000D03*
D11*
X50700000Y-86480000D03*
X50700000Y-93980000D03*
D10*
X53600000Y-92260000D03*
D12*
X57100000Y-101020000D03*
D11*
X63500000Y-86480000D03*
X63500000Y-93980000D03*
D13*
X58975000Y-85600000D03*
X57725000Y-85600000D03*
X56475000Y-85600000D03*
X55225000Y-85600000D03*
%TD*%
D10*
%TO.C,J4*%
X116480000Y-92260000D03*
X113980000Y-92260000D03*
X111980000Y-92260000D03*
D11*
X106580000Y-86480000D03*
X106580000Y-93980000D03*
D10*
X109480000Y-92260000D03*
D12*
X112980000Y-101020000D03*
D11*
X119380000Y-86480000D03*
X119380000Y-93980000D03*
D13*
X114855000Y-85600000D03*
X113605000Y-85600000D03*
X112355000Y-85600000D03*
X111105000Y-85600000D03*
%TD*%
D14*
%TO.C,J1*%
X101781000Y-63994400D03*
X100931000Y-63994400D03*
X100081000Y-63994400D03*
X99231000Y-63994400D03*
X98381000Y-63994400D03*
X97531000Y-63994400D03*
X96681000Y-63994400D03*
X95831000Y-63994400D03*
X95831000Y-62644400D03*
X96681000Y-62644400D03*
X97531000Y-62644400D03*
X98381000Y-62644400D03*
X99231000Y-62644400D03*
X100081000Y-62644400D03*
X100931000Y-62644400D03*
X101781000Y-62644400D03*
D15*
X103131000Y-63014400D03*
D16*
X103131000Y-59634400D03*
D15*
X94481000Y-63014400D03*
D16*
X94481000Y-59634400D03*
%TD*%
D17*
%TO.C,H2*%
X41148000Y-94488000D03*
%TD*%
%TO.C,H1*%
X117856000Y-74168000D03*
%TD*%
D10*
%TO.C,J3*%
X88540000Y-92260000D03*
X86040000Y-92260000D03*
X84040000Y-92260000D03*
D11*
X78640000Y-86480000D03*
X78640000Y-93980000D03*
D10*
X81540000Y-92260000D03*
D12*
X85040000Y-101020000D03*
D11*
X91440000Y-86480000D03*
X91440000Y-93980000D03*
D13*
X86915000Y-85600000D03*
X85665000Y-85600000D03*
X84415000Y-85600000D03*
X83165000Y-85600000D03*
%TD*%
D17*
%TO.C,H3*%
X156464000Y-94488000D03*
%TD*%
M02*
