%TF.GenerationSoftware,KiCad,Pcbnew,7.0.2-0*%
%TF.CreationDate,2023-08-10T19:07:58-07:00*%
%TF.ProjectId,led-usb-hub,6c65642d-7573-4622-9d68-75622e6b6963,rev?*%
%TF.SameCoordinates,Original*%
%TF.FileFunction,Copper,L1,Top*%
%TF.FilePolarity,Positive*%
%FSLAX46Y46*%
G04 Gerber Fmt 4.6, Leading zero omitted, Abs format (unit mm)*
G04 Created by KiCad (PCBNEW 7.0.2-0) date 2023-08-10 19:07:58*
%MOMM*%
%LPD*%
G01*
G04 APERTURE LIST*
G04 Aperture macros list*
%AMRoundRect*
0 Rectangle with rounded corners*
0 $1 Rounding radius*
0 $2 $3 $4 $5 $6 $7 $8 $9 X,Y pos of 4 corners*
0 Add a 4 corners polygon primitive as box body*
4,1,4,$2,$3,$4,$5,$6,$7,$8,$9,$2,$3,0*
0 Add four circle primitives for the rounded corners*
1,1,$1+$1,$2,$3*
1,1,$1+$1,$4,$5*
1,1,$1+$1,$6,$7*
1,1,$1+$1,$8,$9*
0 Add four rect primitives between the rounded corners*
20,1,$1+$1,$2,$3,$4,$5,0*
20,1,$1+$1,$4,$5,$6,$7,0*
20,1,$1+$1,$6,$7,$8,$9,0*
20,1,$1+$1,$8,$9,$2,$3,0*%
G04 Aperture macros list end*
%TA.AperFunction,SMDPad,CuDef*%
%ADD10R,1.300000X1.100000*%
%TD*%
%TA.AperFunction,SMDPad,CuDef*%
%ADD11RoundRect,0.237500X-0.300000X-0.237500X0.300000X-0.237500X0.300000X0.237500X-0.300000X0.237500X0*%
%TD*%
%TA.AperFunction,SMDPad,CuDef*%
%ADD12RoundRect,0.237500X-0.237500X0.300000X-0.237500X-0.300000X0.237500X-0.300000X0.237500X0.300000X0*%
%TD*%
%TA.AperFunction,SMDPad,CuDef*%
%ADD13RoundRect,0.381000X-1.524000X0.381000X-1.524000X-0.381000X1.524000X-0.381000X1.524000X0.381000X0*%
%TD*%
%TA.AperFunction,SMDPad,CuDef*%
%ADD14RoundRect,0.250000X-0.500000X-0.250000X0.500000X-0.250000X0.500000X0.250000X-0.500000X0.250000X0*%
%TD*%
%TA.AperFunction,SMDPad,CuDef*%
%ADD15R,1.701800X3.708400*%
%TD*%
%TA.AperFunction,SMDPad,CuDef*%
%ADD16RoundRect,0.237500X0.237500X-0.250000X0.237500X0.250000X-0.237500X0.250000X-0.237500X-0.250000X0*%
%TD*%
%TA.AperFunction,SMDPad,CuDef*%
%ADD17RoundRect,0.237500X-0.250000X-0.237500X0.250000X-0.237500X0.250000X0.237500X-0.250000X0.237500X0*%
%TD*%
%TA.AperFunction,SMDPad,CuDef*%
%ADD18RoundRect,0.150000X-0.150000X0.825000X-0.150000X-0.825000X0.150000X-0.825000X0.150000X0.825000X0*%
%TD*%
%TA.AperFunction,ComponentPad*%
%ADD19C,0.820000*%
%TD*%
%TA.AperFunction,ComponentPad*%
%ADD20O,1.200000X2.520000*%
%TD*%
%TA.AperFunction,ComponentPad*%
%ADD21RoundRect,0.400000X-0.300000X-0.350000X0.300000X-0.350000X0.300000X0.350000X-0.300000X0.350000X0*%
%TD*%
%TA.AperFunction,ComponentPad*%
%ADD22C,1.000000*%
%TD*%
%TA.AperFunction,SMDPad,CuDef*%
%ADD23RoundRect,0.237500X0.300000X0.237500X-0.300000X0.237500X-0.300000X-0.237500X0.300000X-0.237500X0*%
%TD*%
%TA.AperFunction,SMDPad,CuDef*%
%ADD24RoundRect,0.237500X-0.237500X0.250000X-0.237500X-0.250000X0.237500X-0.250000X0.237500X0.250000X0*%
%TD*%
%TA.AperFunction,ComponentPad*%
%ADD25C,0.700000*%
%TD*%
%TA.AperFunction,ComponentPad*%
%ADD26O,0.900000X2.400000*%
%TD*%
%TA.AperFunction,ComponentPad*%
%ADD27O,0.900000X1.700000*%
%TD*%
%TA.AperFunction,ViaPad*%
%ADD28C,0.800000*%
%TD*%
%TA.AperFunction,ViaPad*%
%ADD29C,1.200000*%
%TD*%
%TA.AperFunction,ViaPad*%
%ADD30C,1.600000*%
%TD*%
%TA.AperFunction,Conductor*%
%ADD31C,0.500000*%
%TD*%
%TA.AperFunction,Conductor*%
%ADD32C,1.000000*%
%TD*%
%TA.AperFunction,Conductor*%
%ADD33C,0.375000*%
%TD*%
%TA.AperFunction,Conductor*%
%ADD34C,0.250000*%
%TD*%
%TA.AperFunction,Conductor*%
%ADD35C,0.200000*%
%TD*%
G04 APERTURE END LIST*
D10*
%TO.P,Y1,1,1*%
%TO.N,/X-*%
X102884000Y-80391000D03*
%TO.P,Y1,2,GND*%
%TO.N,Earth*%
X100584000Y-80391000D03*
%TO.P,Y1,3,3*%
%TO.N,/X+*%
X100584000Y-82191000D03*
%TO.P,Y1,4,GND*%
%TO.N,Earth*%
X102884000Y-82191000D03*
%TD*%
D11*
%TO.P,C5,1*%
%TO.N,+5V*%
X153977000Y-65786000D03*
%TO.P,C5,2*%
%TO.N,Earth*%
X155702000Y-65786000D03*
%TD*%
%TO.P,C7,1*%
%TO.N,+5V*%
X91493000Y-77724000D03*
%TO.P,C7,2*%
%TO.N,Earth*%
X93218000Y-77724000D03*
%TD*%
D12*
%TO.P,C1,1*%
%TO.N,Net-(U1-1.8V)*%
X97790000Y-77369500D03*
%TO.P,C1,2*%
%TO.N,Earth*%
X97790000Y-79094500D03*
%TD*%
D13*
%TO.P,U2,1,D+*%
%TO.N,U4+*%
X129500000Y-64270000D03*
%TO.P,U2,2,D0*%
%TO.N,L1_B*%
X129500000Y-66810000D03*
%TO.P,U2,3,D1*%
%TO.N,L1_G*%
X129500000Y-69350000D03*
%TO.P,U2,4,GND*%
%TO.N,Earth*%
X129500000Y-71890000D03*
%TO.P,U2,5,GND*%
X129500000Y-74430000D03*
%TO.P,U2,6,D2*%
%TO.N,unconnected-(U2-D2-Pad6)*%
X129500000Y-76970000D03*
%TO.P,U2,7,D3*%
%TO.N,L1_R*%
X129500000Y-79510000D03*
%TO.P,U2,8,D4*%
%TO.N,L2_B*%
X129500000Y-82050000D03*
%TO.P,U2,9,D5*%
%TO.N,L2_G*%
X129500000Y-84590000D03*
%TO.P,U2,10,D6*%
%TO.N,L2_R*%
X129500000Y-87130000D03*
%TO.P,U2,11,D7*%
%TO.N,L3_R*%
X129500000Y-89670000D03*
%TO.P,U2,12,D8*%
%TO.N,L3_G*%
X129500000Y-92210000D03*
%TO.P,U2,13,D9*%
%TO.N,L3_B*%
X129500000Y-94750000D03*
%TO.P,U2,14,D10*%
%TO.N,LINK*%
X149820000Y-94750000D03*
%TO.P,U2,15,MOSI*%
%TO.N,unconnected-(U2-MOSI-Pad15)*%
X149820000Y-92210000D03*
%TO.P,U2,16,MISO*%
%TO.N,unconnected-(U2-MISO-Pad16)*%
X149820000Y-89670000D03*
%TO.P,U2,17,SCK*%
%TO.N,unconnected-(U2-SCK-Pad17)*%
X149820000Y-87130000D03*
%TO.P,U2,18,A0*%
%TO.N,unconnected-(U2-A0-Pad18)*%
X149820000Y-84590000D03*
%TO.P,U2,19,A1*%
%TO.N,unconnected-(U2-A1-Pad19)*%
X149820000Y-82050000D03*
%TO.P,U2,20,A2*%
%TO.N,unconnected-(U2-A2-Pad20)*%
X149820000Y-79510000D03*
%TO.P,U2,21,A3*%
%TO.N,unconnected-(U2-A3-Pad21)*%
X149820000Y-76970000D03*
%TO.P,U2,22,3.3V*%
%TO.N,+3V3*%
X149820000Y-74430000D03*
%TO.P,U2,23,RST*%
%TO.N,Net-(U2-RST)*%
X149820000Y-71890000D03*
%TO.P,U2,24,GND*%
%TO.N,Earth*%
X149820000Y-69350000D03*
%TO.P,U2,25,RAW*%
%TO.N,+5V*%
X149820000Y-66810000D03*
%TO.P,U2,26,D-*%
%TO.N,U4-*%
X149820000Y-64270000D03*
%TD*%
D14*
%TO.P,D1,1,K*%
%TO.N,Earth*%
X86076000Y-59436000D03*
%TO.P,D1,2,A*%
%TO.N,Net-(D1-A)*%
X88676000Y-59436000D03*
%TD*%
D15*
%TO.P,SW1,1,1*%
%TO.N,Earth*%
X121735002Y-60071000D03*
%TO.P,SW1,2,2*%
%TO.N,Net-(U2-RST)*%
X127635000Y-60071000D03*
%TD*%
D16*
%TO.P,R1,1*%
%TO.N,Earth*%
X92583000Y-62912000D03*
%TO.P,R1,2*%
%TO.N,Net-(J1-CC2)*%
X92583000Y-61087000D03*
%TD*%
D17*
%TO.P,R8,1*%
%TO.N,Net-(J3-R)*%
X123905000Y-87122000D03*
%TO.P,R8,2*%
%TO.N,L2_R*%
X125730000Y-87122000D03*
%TD*%
D18*
%TO.P,U1,1,DM4*%
%TO.N,U4-*%
X99949000Y-69915000D03*
%TO.P,U1,2,DP4*%
%TO.N,U4+*%
X98679000Y-69915000D03*
%TO.P,U1,3,DM3*%
%TO.N,U3-*%
X97409000Y-69915000D03*
%TO.P,U1,4,DP3*%
%TO.N,U3+*%
X96139000Y-69915000D03*
%TO.P,U1,5,DM2*%
%TO.N,U2-*%
X94869000Y-69915000D03*
%TO.P,U1,6,DP2*%
%TO.N,U2+*%
X93599000Y-69915000D03*
%TO.P,U1,7,DM1*%
%TO.N,U1-*%
X92329000Y-69915000D03*
%TO.P,U1,8,DP1*%
%TO.N,U1+*%
X91059000Y-69915000D03*
%TO.P,U1,9,UDM*%
%TO.N,UD-*%
X91059000Y-74865000D03*
%TO.P,U1,10,UDP*%
%TO.N,UD+*%
X92329000Y-74865000D03*
%TO.P,U1,11,5V*%
%TO.N,+5V*%
X93599000Y-74865000D03*
%TO.P,U1,12,GND*%
%TO.N,Earth*%
X94869000Y-74865000D03*
%TO.P,U1,13,3.3V*%
%TO.N,Net-(U1-3.3V)*%
X96139000Y-74865000D03*
%TO.P,U1,14,1.8V*%
%TO.N,Net-(U1-1.8V)*%
X97409000Y-74865000D03*
%TO.P,U1,15,XOUT*%
%TO.N,/X+*%
X98679000Y-74865000D03*
%TO.P,U1,16,XIN*%
%TO.N,/X-*%
X99949000Y-74865000D03*
%TD*%
D16*
%TO.P,R14,1*%
%TO.N,LINK*%
X83820000Y-62126500D03*
%TO.P,R14,2*%
%TO.N,Net-(D2-A)*%
X83820000Y-60301500D03*
%TD*%
D17*
%TO.P,R3,1*%
%TO.N,Net-(J2-B)*%
X123905000Y-66802000D03*
%TO.P,R3,2*%
%TO.N,L1_B*%
X125730000Y-66802000D03*
%TD*%
D19*
%TO.P,J2,1,VBUS*%
%TO.N,+5V*%
X60600000Y-92260000D03*
%TO.P,J2,2,D-*%
%TO.N,U1-*%
X58100000Y-92260000D03*
%TO.P,J2,3,D+*%
%TO.N,U1+*%
X56100000Y-92260000D03*
D20*
%TO.P,J2,4,GND*%
%TO.N,Earth*%
X50700000Y-86480000D03*
X50700000Y-93980000D03*
D19*
X53600000Y-92260000D03*
D21*
X57100000Y-101020000D03*
D20*
X63500000Y-86480000D03*
X63500000Y-93980000D03*
D22*
%TO.P,J2,5,R*%
%TO.N,Net-(J2-R)*%
X58975000Y-85600000D03*
%TO.P,J2,6,LV*%
%TO.N,+3V3*%
X57725000Y-85600000D03*
%TO.P,J2,7,G*%
%TO.N,Net-(J2-G)*%
X56475000Y-85600000D03*
%TO.P,J2,8,B*%
%TO.N,Net-(J2-B)*%
X55225000Y-85600000D03*
%TD*%
D17*
%TO.P,R12,1*%
%TO.N,+3V3*%
X153924000Y-74422000D03*
%TO.P,R12,2*%
%TO.N,Earth*%
X155749000Y-74422000D03*
%TD*%
%TO.P,R11,1*%
%TO.N,Net-(J4-B)*%
X123905000Y-94742000D03*
%TO.P,R11,2*%
%TO.N,L3_B*%
X125730000Y-94742000D03*
%TD*%
D11*
%TO.P,C6,1*%
%TO.N,+5V*%
X153977000Y-67818000D03*
%TO.P,C6,2*%
%TO.N,Earth*%
X155702000Y-67818000D03*
%TD*%
D14*
%TO.P,D2,1,K*%
%TO.N,Earth*%
X79248000Y-59436000D03*
%TO.P,D2,2,A*%
%TO.N,Net-(D2-A)*%
X81848000Y-59436000D03*
%TD*%
D19*
%TO.P,J4,1,VBUS*%
%TO.N,+5V*%
X116480000Y-92260000D03*
%TO.P,J4,2,D-*%
%TO.N,U3-*%
X113980000Y-92260000D03*
%TO.P,J4,3,D+*%
%TO.N,U3+*%
X111980000Y-92260000D03*
D20*
%TO.P,J4,4,GND*%
%TO.N,Earth*%
X106580000Y-86480000D03*
X106580000Y-93980000D03*
D19*
X109480000Y-92260000D03*
D21*
X112980000Y-101020000D03*
D20*
X119380000Y-86480000D03*
X119380000Y-93980000D03*
D22*
%TO.P,J4,5,R*%
%TO.N,Net-(J4-R)*%
X114855000Y-85600000D03*
%TO.P,J4,6,LV*%
%TO.N,+3V3*%
X113605000Y-85600000D03*
%TO.P,J4,7,G*%
%TO.N,Net-(J4-G)*%
X112355000Y-85600000D03*
%TO.P,J4,8,B*%
%TO.N,Net-(J4-B)*%
X111105000Y-85600000D03*
%TD*%
D12*
%TO.P,C9,1*%
%TO.N,/X-*%
X103124000Y-85598000D03*
%TO.P,C9,2*%
%TO.N,Earth*%
X103124000Y-87323000D03*
%TD*%
D11*
%TO.P,C4,1*%
%TO.N,+5V*%
X100838000Y-66548000D03*
%TO.P,C4,2*%
%TO.N,Earth*%
X102563000Y-66548000D03*
%TD*%
D23*
%TO.P,C3,1*%
%TO.N,+5V*%
X96721000Y-66548000D03*
%TO.P,C3,2*%
%TO.N,Earth*%
X94996000Y-66548000D03*
%TD*%
D24*
%TO.P,R2,1*%
%TO.N,Earth*%
X105029000Y-61087000D03*
%TO.P,R2,2*%
%TO.N,Net-(J1-CC1)*%
X105029000Y-62912000D03*
%TD*%
D12*
%TO.P,C8,1*%
%TO.N,/X+*%
X101473000Y-85598000D03*
%TO.P,C8,2*%
%TO.N,Earth*%
X101473000Y-87323000D03*
%TD*%
D17*
%TO.P,R10,1*%
%TO.N,Net-(J4-G)*%
X123905000Y-92202000D03*
%TO.P,R10,2*%
%TO.N,L3_G*%
X125730000Y-92202000D03*
%TD*%
D25*
%TO.P,J1,A1,GND*%
%TO.N,Earth*%
X101781000Y-63994400D03*
%TO.P,J1,A4,VBUS*%
%TO.N,+5V*%
X100931000Y-63994400D03*
%TO.P,J1,A5,CC1*%
%TO.N,Net-(J1-CC1)*%
X100081000Y-63994400D03*
%TO.P,J1,A6,D+*%
%TO.N,UD+*%
X99231000Y-63994400D03*
%TO.P,J1,A7,D-*%
%TO.N,UD-*%
X98381000Y-63994400D03*
%TO.P,J1,A8,SBU1*%
%TO.N,unconnected-(J1-SBU1-PadA8)*%
X97531000Y-63994400D03*
%TO.P,J1,A9,VBUS*%
%TO.N,+5V*%
X96681000Y-63994400D03*
%TO.P,J1,A12,GND*%
%TO.N,Earth*%
X95831000Y-63994400D03*
%TO.P,J1,B1,GND*%
X95831000Y-62644400D03*
%TO.P,J1,B4,VBUS*%
%TO.N,+5V*%
X96681000Y-62644400D03*
%TO.P,J1,B5,CC2*%
%TO.N,Net-(J1-CC2)*%
X97531000Y-62644400D03*
%TO.P,J1,B6,D+*%
%TO.N,UD+*%
X98381000Y-62644400D03*
%TO.P,J1,B7,D-*%
%TO.N,UD-*%
X99231000Y-62644400D03*
%TO.P,J1,B8,SBU2*%
%TO.N,unconnected-(J1-SBU2-PadB8)*%
X100081000Y-62644400D03*
%TO.P,J1,B9,VBUS*%
%TO.N,+5V*%
X100931000Y-62644400D03*
%TO.P,J1,B12,GND*%
%TO.N,Earth*%
X101781000Y-62644400D03*
D26*
%TO.P,J1,S1,SHIELD*%
X103131000Y-63014400D03*
D27*
X103131000Y-59634400D03*
D26*
X94481000Y-63014400D03*
D27*
X94481000Y-59634400D03*
%TD*%
D17*
%TO.P,R7,1*%
%TO.N,Net-(J3-G)*%
X123905000Y-84582000D03*
%TO.P,R7,2*%
%TO.N,L2_G*%
X125730000Y-84582000D03*
%TD*%
%TO.P,R9,1*%
%TO.N,Net-(J4-R)*%
X123905000Y-89662000D03*
%TO.P,R9,2*%
%TO.N,L3_R*%
X125730000Y-89662000D03*
%TD*%
%TO.P,R6,1*%
%TO.N,Net-(J3-B)*%
X123905000Y-82042000D03*
%TO.P,R6,2*%
%TO.N,L2_B*%
X125730000Y-82042000D03*
%TD*%
D12*
%TO.P,C2,1*%
%TO.N,Net-(U1-3.3V)*%
X96012000Y-77369500D03*
%TO.P,C2,2*%
%TO.N,Earth*%
X96012000Y-79094500D03*
%TD*%
D17*
%TO.P,R4,1*%
%TO.N,Net-(J2-G)*%
X123905000Y-69342000D03*
%TO.P,R4,2*%
%TO.N,L1_G*%
X125730000Y-69342000D03*
%TD*%
D19*
%TO.P,J3,1,VBUS*%
%TO.N,+5V*%
X88540000Y-92260000D03*
%TO.P,J3,2,D-*%
%TO.N,U2-*%
X86040000Y-92260000D03*
%TO.P,J3,3,D+*%
%TO.N,U2+*%
X84040000Y-92260000D03*
D20*
%TO.P,J3,4,GND*%
%TO.N,Earth*%
X78640000Y-86480000D03*
X78640000Y-93980000D03*
D19*
X81540000Y-92260000D03*
D21*
X85040000Y-101020000D03*
D20*
X91440000Y-86480000D03*
X91440000Y-93980000D03*
D22*
%TO.P,J3,5,R*%
%TO.N,Net-(J3-R)*%
X86915000Y-85600000D03*
%TO.P,J3,6,LV*%
%TO.N,+3V3*%
X85665000Y-85600000D03*
%TO.P,J3,7,G*%
%TO.N,Net-(J3-G)*%
X84415000Y-85600000D03*
%TO.P,J3,8,B*%
%TO.N,Net-(J3-B)*%
X83165000Y-85600000D03*
%TD*%
D16*
%TO.P,R13,1*%
%TO.N,+5V*%
X90678000Y-61261000D03*
%TO.P,R13,2*%
%TO.N,Net-(D1-A)*%
X90678000Y-59436000D03*
%TD*%
D17*
%TO.P,R5,1*%
%TO.N,Net-(J2-R)*%
X123905000Y-79502000D03*
%TO.P,R5,2*%
%TO.N,L1_R*%
X125730000Y-79502000D03*
%TD*%
D28*
%TO.N,Earth*%
X120015000Y-60071000D03*
D29*
X94640400Y-77724000D03*
D28*
X93218000Y-67691000D03*
D29*
X100838000Y-77343000D03*
X156972000Y-66802000D03*
X97155000Y-86868000D03*
X157480000Y-74422000D03*
X132461000Y-73152000D03*
X97155000Y-92837000D03*
D28*
X105918000Y-65786000D03*
D29*
X88392000Y-65024000D03*
D30*
%TO.N,+5V*%
X151638000Y-66802000D03*
X102870000Y-97282000D03*
X105029000Y-75819000D03*
X105029000Y-69088000D03*
D28*
%TO.N,UD+*%
X89281000Y-77978000D03*
%TO.N,UD-*%
X88265000Y-76581000D03*
D29*
%TO.N,Net-(J2-R)*%
X119634000Y-79502000D03*
D30*
%TO.N,+3V3*%
X151638000Y-74422000D03*
D29*
%TO.N,Net-(J2-G)*%
X119634000Y-69342000D03*
%TO.N,Net-(J2-B)*%
X119634000Y-66802000D03*
%TO.N,Net-(J3-R)*%
X121666000Y-87630000D03*
%TO.N,Net-(J3-G)*%
X118872000Y-83820000D03*
%TO.N,Net-(J3-B)*%
X119634000Y-82042000D03*
D28*
%TO.N,LINK*%
X85852000Y-73660000D03*
X83820000Y-66040000D03*
%TD*%
D31*
%TO.N,Net-(U1-1.8V)*%
X97409000Y-74865000D02*
X97409000Y-76988500D01*
X97409000Y-76988500D02*
X97790000Y-77369500D01*
%TO.N,Earth*%
X101781000Y-63994400D02*
X102151000Y-63994400D01*
X94742000Y-78486000D02*
X94742000Y-77978000D01*
X94869000Y-76962000D02*
X94869000Y-78613000D01*
D32*
X119380000Y-93980000D02*
X106580000Y-93980000D01*
D31*
X94996000Y-78740000D02*
X94742000Y-78486000D01*
X92583000Y-62912000D02*
X94378600Y-62912000D01*
D33*
X79248000Y-59436000D02*
X79248000Y-60452000D01*
D31*
X155702000Y-65786000D02*
X155702000Y-67818000D01*
X94869000Y-76962000D02*
X94869000Y-77343000D01*
D32*
X63500000Y-93980000D02*
X50700000Y-93980000D01*
D33*
X86076000Y-61946000D02*
X86076000Y-59436000D01*
X103124000Y-87323000D02*
X97610000Y-87323000D01*
D31*
X95831000Y-62644400D02*
X94851000Y-62644400D01*
X101781000Y-62644400D02*
X101781000Y-63994400D01*
X95831000Y-63994400D02*
X95461000Y-63994400D01*
D33*
X97610000Y-87323000D02*
X97155000Y-86868000D01*
D32*
X78640000Y-93980000D02*
X91440000Y-93980000D01*
D31*
X105029000Y-61087000D02*
X104583600Y-61087000D01*
X94869000Y-74865000D02*
X94869000Y-76962000D01*
X101781000Y-62644400D02*
X102761000Y-62644400D01*
X104583600Y-61087000D02*
X103131000Y-59634400D01*
X94851000Y-62644400D02*
X94481000Y-63014400D01*
D33*
X101473000Y-87323000D02*
X103124000Y-87323000D01*
D31*
X94996000Y-66548000D02*
X93853000Y-67691000D01*
D33*
X88392000Y-65024000D02*
X88392000Y-64262000D01*
D31*
X149820000Y-69350000D02*
X154424000Y-69350000D01*
X93218000Y-77724000D02*
X94640400Y-77724000D01*
X93853000Y-67691000D02*
X93218000Y-67691000D01*
X157480000Y-74422000D02*
X155749000Y-74422000D01*
D33*
X121735002Y-60071000D02*
X120015000Y-60071000D01*
D31*
X97790000Y-79094500D02*
X96012000Y-79094500D01*
X94869000Y-78613000D02*
X94996000Y-78740000D01*
D32*
X50700000Y-93980000D02*
X50700000Y-86480000D01*
D31*
X94869000Y-77343000D02*
X94488000Y-77724000D01*
D33*
X85344000Y-61214000D02*
X86614000Y-62484000D01*
X100584000Y-77597000D02*
X100838000Y-77343000D01*
D31*
X94378600Y-62912000D02*
X94481000Y-63014400D01*
D33*
X100965000Y-80391000D02*
X100584000Y-80391000D01*
D31*
X129500000Y-73152000D02*
X129500000Y-74430000D01*
X94742000Y-77978000D02*
X94488000Y-77724000D01*
X155702000Y-65786000D02*
X155956000Y-65786000D01*
X95831000Y-63994400D02*
X95831000Y-62644400D01*
X95461000Y-63994400D02*
X94481000Y-63014400D01*
X155956000Y-65786000D02*
X156972000Y-66802000D01*
X102563000Y-66548000D02*
X105156000Y-66548000D01*
X103131000Y-63014400D02*
X103131000Y-59634400D01*
X105156000Y-66548000D02*
X105918000Y-65786000D01*
D33*
X97155000Y-86868000D02*
X97155000Y-92837000D01*
X100584000Y-80391000D02*
X100584000Y-77597000D01*
X79248000Y-60452000D02*
X80010000Y-61214000D01*
D31*
X129500000Y-73152000D02*
X132461000Y-73152000D01*
D32*
X106580000Y-93980000D02*
X106580000Y-86480000D01*
D31*
X95350500Y-79094500D02*
X94996000Y-78740000D01*
X129500000Y-71890000D02*
X129500000Y-73152000D01*
X102761000Y-62644400D02*
X103131000Y-63014400D01*
D33*
X88392000Y-64262000D02*
X86614000Y-62484000D01*
X80010000Y-61214000D02*
X85344000Y-61214000D01*
X86614000Y-62484000D02*
X86076000Y-61946000D01*
D32*
X78640000Y-93980000D02*
X78640000Y-86480000D01*
D31*
X155702000Y-67818000D02*
X155956000Y-67818000D01*
X96012000Y-79094500D02*
X95350500Y-79094500D01*
X155956000Y-67818000D02*
X156972000Y-66802000D01*
X154424000Y-69350000D02*
X156972000Y-66802000D01*
D32*
X91440000Y-86480000D02*
X91440000Y-93980000D01*
D31*
X102151000Y-63994400D02*
X103131000Y-63014400D01*
D33*
X102884000Y-82191000D02*
X102765000Y-82191000D01*
D32*
X63500000Y-93980000D02*
X63500000Y-86480000D01*
D33*
X102765000Y-82191000D02*
X100965000Y-80391000D01*
D31*
%TO.N,Net-(U1-3.3V)*%
X96139000Y-74865000D02*
X96139000Y-77242500D01*
X96139000Y-77242500D02*
X96012000Y-77369500D01*
%TO.N,+5V*%
X96681000Y-65278000D02*
X96681000Y-66508000D01*
X96681000Y-63994400D02*
X96681000Y-64770000D01*
X93599000Y-74865000D02*
X93599000Y-75579228D01*
D32*
X104915000Y-95110000D02*
X102870000Y-97155000D01*
X151638000Y-66802000D02*
X152961000Y-66802000D01*
X91493000Y-77724000D02*
X91493000Y-80465000D01*
D33*
X96173000Y-65278000D02*
X96681000Y-64770000D01*
D31*
X93599000Y-75579228D02*
X91454228Y-77724000D01*
X96681000Y-64770000D02*
X96681000Y-65278000D01*
D33*
X90678000Y-61261000D02*
X90678000Y-64008000D01*
X91948000Y-65278000D02*
X96173000Y-65278000D01*
D32*
X100838000Y-67945000D02*
X100838000Y-66548000D01*
X152961000Y-66802000D02*
X153977000Y-65786000D01*
X105029000Y-75832000D02*
X105029000Y-95110000D01*
D31*
X96681000Y-66508000D02*
X96721000Y-66548000D01*
D32*
X100838000Y-66548000D02*
X96721000Y-66548000D01*
D33*
X96173000Y-65278000D02*
X96681000Y-65278000D01*
D32*
X101981000Y-69088000D02*
X100838000Y-67945000D01*
X152961000Y-66802000D02*
X153977000Y-67818000D01*
X91493000Y-80465000D02*
X89916000Y-82042000D01*
D33*
X90678000Y-64008000D02*
X91948000Y-65278000D01*
D32*
X89916000Y-82042000D02*
X88540000Y-83418000D01*
X104902000Y-69088000D02*
X101981000Y-69088000D01*
X88540000Y-83418000D02*
X88540000Y-92260000D01*
D34*
%TO.N,Net-(J1-CC1)*%
X103886000Y-65405000D02*
X100838000Y-65405000D01*
X100081000Y-64648000D02*
X100081000Y-63994400D01*
X105029000Y-64262000D02*
X103886000Y-65405000D01*
X105029000Y-62912000D02*
X105029000Y-64262000D01*
X100838000Y-65405000D02*
X100081000Y-64648000D01*
%TO.N,UD+*%
X98381000Y-62948000D02*
X99231000Y-63798000D01*
D35*
X99231000Y-63994400D02*
X99231000Y-63798000D01*
X89281000Y-77978000D02*
X89789000Y-77978000D01*
X92329000Y-74865000D02*
X92329000Y-75438000D01*
D34*
X98381000Y-62644400D02*
X98381000Y-62948000D01*
D35*
X92329000Y-75438000D02*
X89789000Y-77978000D01*
%TO.N,UD-*%
X88801999Y-77117999D02*
X88265000Y-76581000D01*
X89633001Y-77117999D02*
X88801999Y-77117999D01*
X91059000Y-75692000D02*
X89633001Y-77117999D01*
X91059000Y-74865000D02*
X91059000Y-75692000D01*
D34*
%TO.N,Net-(J1-CC2)*%
X97531000Y-62149426D02*
X96468574Y-61087000D01*
X96468574Y-61087000D02*
X92583000Y-61087000D01*
X97531000Y-62644400D02*
X97531000Y-62149426D01*
D35*
%TO.N,U1-*%
X57325001Y-91485001D02*
X57325001Y-90313199D01*
X75277200Y-82267000D02*
X85183200Y-72361000D01*
X57325001Y-90313199D02*
X61185000Y-86453200D01*
X63847200Y-82267000D02*
X75277200Y-82267000D01*
X58100000Y-92260000D02*
X57325001Y-91485001D01*
X91919000Y-71000000D02*
X92329000Y-70590000D01*
X61185000Y-86453200D02*
X61185000Y-84929200D01*
X61185000Y-84929200D02*
X63847200Y-82267000D01*
X92329000Y-70590000D02*
X92329000Y-69915000D01*
X91919000Y-71830092D02*
X91919000Y-71000000D01*
X85183200Y-72361000D02*
X91388092Y-72361000D01*
X91388092Y-72361000D02*
X91919000Y-71830092D01*
%TO.N,U1+*%
X56874999Y-91485001D02*
X56874999Y-90126801D01*
X91469000Y-71643692D02*
X91469000Y-71000000D01*
X56874999Y-90126801D02*
X60735000Y-86266800D01*
X91201692Y-71911000D02*
X91469000Y-71643692D01*
X75090800Y-81817000D02*
X84996800Y-71911000D01*
X63660800Y-81817000D02*
X75090800Y-81817000D01*
X56100000Y-92260000D02*
X56874999Y-91485001D01*
X60735000Y-84742800D02*
X63660800Y-81817000D01*
X91059000Y-70590000D02*
X91059000Y-69915000D01*
X84996800Y-71911000D02*
X91201692Y-71911000D01*
X91469000Y-71000000D02*
X91059000Y-70590000D01*
X60735000Y-86266800D02*
X60735000Y-84742800D01*
D33*
%TO.N,Net-(J2-R)*%
X123905000Y-79502000D02*
X119634000Y-79502000D01*
D31*
%TO.N,+3V3*%
X151638000Y-74422000D02*
X153924000Y-74422000D01*
D33*
%TO.N,Net-(J2-G)*%
X123905000Y-69342000D02*
X119634000Y-69342000D01*
%TO.N,Net-(J2-B)*%
X123905000Y-66802000D02*
X119634000Y-66802000D01*
D35*
%TO.N,U2-*%
X94459000Y-71975200D02*
X94459000Y-71000000D01*
X93057200Y-73377000D02*
X94459000Y-71975200D01*
X89501200Y-73377000D02*
X93057200Y-73377000D01*
X81759000Y-86774800D02*
X81759000Y-81119200D01*
X94869000Y-70590000D02*
X94869000Y-69915000D01*
X94459000Y-71000000D02*
X94869000Y-70590000D01*
X85265001Y-91485001D02*
X85265001Y-90280801D01*
X85265001Y-90280801D02*
X81759000Y-86774800D01*
X86040000Y-92260000D02*
X85265001Y-91485001D01*
X81759000Y-81119200D02*
X89501200Y-73377000D01*
%TO.N,U2+*%
X94009000Y-71788800D02*
X94009000Y-71000000D01*
X94009000Y-71000000D02*
X93599000Y-70590000D01*
X81309000Y-86961200D02*
X81309000Y-80932800D01*
X84040000Y-92260000D02*
X84814999Y-91485001D01*
X92870800Y-72927000D02*
X94009000Y-71788800D01*
X93599000Y-70590000D02*
X93599000Y-69915000D01*
X84814999Y-90467199D02*
X81309000Y-86961200D01*
X89314800Y-72927000D02*
X92870800Y-72927000D01*
X81309000Y-80932800D02*
X89314800Y-72927000D01*
X84814999Y-91485001D02*
X84814999Y-90467199D01*
D33*
%TO.N,Net-(J3-R)*%
X122174000Y-87122000D02*
X121666000Y-87630000D01*
X123905000Y-87122000D02*
X122174000Y-87122000D01*
%TO.N,Net-(J3-G)*%
X123905000Y-84582000D02*
X119634000Y-84582000D01*
X119634000Y-84582000D02*
X118872000Y-83820000D01*
%TO.N,Net-(J3-B)*%
X123905000Y-82042000D02*
X119634000Y-82042000D01*
D35*
%TO.N,U3-*%
X96999000Y-72042800D02*
X97883200Y-72927000D01*
X96999000Y-71000000D02*
X96999000Y-72042800D01*
X97409000Y-69915000D02*
X97409000Y-70590000D01*
X108551200Y-72927000D02*
X109445000Y-73820800D01*
X97409000Y-70590000D02*
X96999000Y-71000000D01*
X97883200Y-72927000D02*
X108551200Y-72927000D01*
X109445000Y-87282800D02*
X113205001Y-91042801D01*
X109445000Y-73820800D02*
X109445000Y-87282800D01*
X113205001Y-91485001D02*
X113980000Y-92260000D01*
X113205001Y-91042801D02*
X113205001Y-91485001D01*
%TO.N,U3+*%
X112754999Y-91229199D02*
X112754999Y-91485001D01*
X112754999Y-91485001D02*
X111980000Y-92260000D01*
X96549000Y-71000000D02*
X96549000Y-72229200D01*
X108364800Y-73377000D02*
X108995000Y-74007200D01*
X96139000Y-69915000D02*
X96139000Y-70590000D01*
X96139000Y-70590000D02*
X96549000Y-71000000D01*
X96549000Y-72229200D02*
X97696800Y-73377000D01*
X108995000Y-74007200D02*
X108995000Y-87469200D01*
X97696800Y-73377000D02*
X108364800Y-73377000D01*
X108995000Y-87469200D02*
X112754999Y-91229199D01*
D33*
%TO.N,Net-(J4-R)*%
X118669172Y-88138000D02*
X115570000Y-88138000D01*
X120193172Y-89662000D02*
X118669172Y-88138000D01*
X114855000Y-87423000D02*
X114855000Y-85600000D01*
X123905000Y-89662000D02*
X120193172Y-89662000D01*
X115570000Y-88138000D02*
X114855000Y-87423000D01*
%TO.N,Net-(J4-G)*%
X121920000Y-92202000D02*
X123905000Y-92202000D01*
X113217000Y-88833000D02*
X118551000Y-88833000D01*
X112355000Y-87971000D02*
X113217000Y-88833000D01*
X118551000Y-88833000D02*
X121920000Y-92202000D01*
X112355000Y-85600000D02*
X112355000Y-87971000D01*
%TO.N,Net-(J4-B)*%
X112522000Y-89408000D02*
X111105000Y-87991000D01*
X111105000Y-87991000D02*
X111105000Y-85600000D01*
X123905000Y-94742000D02*
X122936000Y-94742000D01*
X122936000Y-94742000D02*
X117602000Y-89408000D01*
X117602000Y-89408000D02*
X112522000Y-89408000D01*
%TO.N,L1_B*%
X125738000Y-66810000D02*
X125730000Y-66802000D01*
X129500000Y-66810000D02*
X125738000Y-66810000D01*
%TO.N,L1_G*%
X125730000Y-69342000D02*
X129492000Y-69342000D01*
X129492000Y-69342000D02*
X129500000Y-69350000D01*
%TO.N,L1_R*%
X129492000Y-79502000D02*
X129500000Y-79510000D01*
X125730000Y-79502000D02*
X129492000Y-79502000D01*
%TO.N,L2_B*%
X125730000Y-82042000D02*
X129492000Y-82042000D01*
X129492000Y-82042000D02*
X129500000Y-82050000D01*
%TO.N,L2_G*%
X125738000Y-84590000D02*
X129500000Y-84590000D01*
X125730000Y-84582000D02*
X125738000Y-84590000D01*
%TO.N,L2_R*%
X129492000Y-87122000D02*
X129500000Y-87130000D01*
X125730000Y-87122000D02*
X129492000Y-87122000D01*
%TO.N,L3_B*%
X129492000Y-94742000D02*
X129500000Y-94750000D01*
X125730000Y-94742000D02*
X129492000Y-94742000D01*
%TO.N,L3_G*%
X125730000Y-92202000D02*
X125738000Y-92210000D01*
X125738000Y-92210000D02*
X129500000Y-92210000D01*
%TO.N,L3_R*%
X125738000Y-89670000D02*
X129500000Y-89670000D01*
X125730000Y-89662000D02*
X125738000Y-89670000D01*
D35*
%TO.N,U4-*%
X139950000Y-61618446D02*
X139950000Y-62484000D01*
X99949000Y-69915000D02*
X99949000Y-70590000D01*
X99949000Y-70590000D02*
X99539000Y-71000000D01*
X140966000Y-63500000D02*
X140970000Y-63500000D01*
X109026793Y-71757007D02*
X118270800Y-62513000D01*
X131351800Y-62513000D02*
X133213916Y-60650884D01*
X140970000Y-63500000D02*
X141740000Y-64270000D01*
X118270800Y-62513000D02*
X131351800Y-62513000D01*
X133213916Y-60650884D02*
X138982438Y-60650884D01*
X139950000Y-62484000D02*
X140966000Y-63500000D01*
X138982438Y-60650884D02*
X139950000Y-61618446D01*
X100015207Y-71757007D02*
X109026793Y-71757007D01*
X99539000Y-71280800D02*
X100015207Y-71757007D01*
X141740000Y-64270000D02*
X149820000Y-64270000D01*
X99539000Y-71000000D02*
X99539000Y-71280800D01*
%TO.N,U4+*%
X139450000Y-62484000D02*
X139450000Y-61825554D01*
X139450000Y-61825554D02*
X138725330Y-61100884D01*
X109213193Y-72207007D02*
X99828807Y-72207007D01*
X99089000Y-71000000D02*
X98679000Y-70590000D01*
X138430000Y-63500000D02*
X138434000Y-63500000D01*
X137660000Y-64270000D02*
X138430000Y-63500000D01*
X133400316Y-61100884D02*
X131538200Y-62963000D01*
X99828807Y-72207007D02*
X99089000Y-71467200D01*
X98679000Y-70590000D02*
X98679000Y-69915000D01*
X138434000Y-63500000D02*
X139450000Y-62484000D01*
X118457200Y-62963000D02*
X109213193Y-72207007D01*
X129500000Y-64270000D02*
X137660000Y-64270000D01*
X138725330Y-61100884D02*
X133400316Y-61100884D01*
X131538200Y-62963000D02*
X118457200Y-62963000D01*
X99089000Y-71467200D02*
X99089000Y-71000000D01*
D34*
%TO.N,/X+*%
X98679000Y-74865000D02*
X98679000Y-76200000D01*
X99377500Y-76898500D02*
X99377500Y-80984500D01*
X99949000Y-85598000D02*
X101473000Y-85598000D01*
X99314000Y-82677000D02*
X99800000Y-82191000D01*
X99377500Y-80984500D02*
X100584000Y-82191000D01*
X99822000Y-85598000D02*
X99949000Y-85598000D01*
X98679000Y-76200000D02*
X99377500Y-76898500D01*
X99314000Y-82677000D02*
X99314000Y-85090000D01*
X99800000Y-82191000D02*
X100584000Y-82191000D01*
X99314000Y-85090000D02*
X99822000Y-85598000D01*
%TO.N,/X-*%
X104140000Y-81407000D02*
X104140000Y-84582000D01*
X99949000Y-74865000D02*
X102297000Y-74865000D01*
X103124000Y-80391000D02*
X104140000Y-81407000D01*
X102884000Y-75452000D02*
X102884000Y-80391000D01*
X102884000Y-80391000D02*
X103124000Y-80391000D01*
X104140000Y-84582000D02*
X103124000Y-85598000D01*
X102297000Y-74865000D02*
X102884000Y-75452000D01*
D33*
%TO.N,Net-(D1-A)*%
X90678000Y-59436000D02*
X88676000Y-59436000D01*
%TO.N,Net-(U2-RST)*%
X127635000Y-60071000D02*
X153543000Y-60071000D01*
X158877000Y-70358000D02*
X157345000Y-71890000D01*
X158877000Y-65405000D02*
X158877000Y-70358000D01*
X153543000Y-60071000D02*
X158877000Y-65405000D01*
X157345000Y-71890000D02*
X149820000Y-71890000D01*
%TO.N,Net-(D2-A)*%
X82954500Y-59436000D02*
X83820000Y-60301500D01*
X81848000Y-59436000D02*
X82954500Y-59436000D01*
%TO.N,LINK*%
X141986000Y-99060000D02*
X78486000Y-99060000D01*
X73914000Y-94488000D02*
X73914000Y-86614000D01*
X146296000Y-94750000D02*
X141986000Y-99060000D01*
X73914000Y-86614000D02*
X80518000Y-80010000D01*
X80518000Y-80010000D02*
X85852000Y-74676000D01*
X85852000Y-74676000D02*
X85852000Y-73660000D01*
X78486000Y-99060000D02*
X73914000Y-94488000D01*
X83820000Y-66040000D02*
X83820000Y-62126500D01*
X149820000Y-94750000D02*
X146296000Y-94750000D01*
%TD*%
M02*
