M48
; DRILL file {KiCad 7.0.2-0} date 2023 August 10, Thursday 19:08:03
; FORMAT={-:-/ absolute / metric / decimal}
; #@! TF.CreationDate,2023-08-10T19:08:03-07:00
; #@! TF.GenerationSoftware,Kicad,Pcbnew,7.0.2-0
; #@! TF.FileFunction,Plated,1,2,PTH
FMAT,2
METRIC
; #@! TA.AperFunction,Plated,PTH,ViaDrill
T1C0.400
; #@! TA.AperFunction,Plated,PTH,ComponentDrill
T2C0.400
; #@! TA.AperFunction,Plated,PTH,ViaDrill
T3C0.600
; #@! TA.AperFunction,Plated,PTH,ComponentDrill
T4C0.600
; #@! TA.AperFunction,Plated,PTH,ComponentDrill
T5C0.620
; #@! TA.AperFunction,Plated,PTH,ViaDrill
T6C0.800
; #@! TA.AperFunction,Plated,PTH,ComponentDrill
T7C0.800
; #@! TA.AperFunction,Plated,PTH,ComponentDrill
T8C0.900
; #@! TA.AperFunction,Plated,PTH,ComponentDrill
T9C1.050
%
G90
G05
T1
X83.82Y-66.04
X85.852Y-73.66
X88.265Y-76.581
X89.281Y-77.978
X93.218Y-67.691
X105.918Y-65.786
X120.015Y-60.071
T2
X95.831Y-62.644
X95.831Y-63.994
X96.681Y-62.644
X96.681Y-63.994
X97.531Y-62.644
X97.531Y-63.994
X98.381Y-62.644
X98.381Y-63.994
X99.231Y-62.644
X99.231Y-63.994
X100.081Y-62.644
X100.081Y-63.994
X100.931Y-62.644
X100.931Y-63.994
X101.781Y-62.644
X101.781Y-63.994
T3
X88.392Y-65.024
X94.64Y-77.724
X97.155Y-86.868
X97.155Y-92.837
X100.838Y-77.343
X118.872Y-83.82
X119.634Y-66.802
X119.634Y-69.342
X119.634Y-79.502
X119.634Y-82.042
X121.666Y-87.63
X132.461Y-73.152
X156.972Y-66.802
X157.48Y-74.422
T5
X53.6Y-92.26
X56.1Y-92.26
X58.1Y-92.26
X60.6Y-92.26
X81.54Y-92.26
X84.04Y-92.26
X86.04Y-92.26
X88.54Y-92.26
X109.48Y-92.26
X111.98Y-92.26
X113.98Y-92.26
X116.48Y-92.26
T6
X102.87Y-97.282
X105.029Y-69.088
X105.029Y-75.819
X151.638Y-66.802
X151.638Y-74.422
T7
X55.225Y-85.6
X56.475Y-85.6
X57.725Y-85.6
X58.975Y-85.6
X83.165Y-85.6
X84.415Y-85.6
X85.665Y-85.6
X86.915Y-85.6
X111.105Y-85.6
X112.355Y-85.6
X113.605Y-85.6
X114.855Y-85.6
T9
X57.1Y-101.02
X85.04Y-101.02
X112.98Y-101.02
T4
G00X94.481Y-60.034
M15
G01X94.481Y-59.234
M16
G05
G00X94.481Y-63.764
M15
G01X94.481Y-62.264
M16
G05
G00X103.131Y-60.034
M15
G01X103.131Y-59.234
M16
G05
G00X103.131Y-63.764
M15
G01X103.131Y-62.264
M16
G05
T8
G00X50.7Y-85.82
M15
G01X50.7Y-87.14
M16
G05
G00X50.7Y-93.32
M15
G01X50.7Y-94.64
M16
G05
G00X63.5Y-85.82
M15
G01X63.5Y-87.14
M16
G05
G00X63.5Y-93.32
M15
G01X63.5Y-94.64
M16
G05
G00X78.64Y-85.82
M15
G01X78.64Y-87.14
M16
G05
G00X78.64Y-93.32
M15
G01X78.64Y-94.64
M16
G05
G00X91.44Y-85.82
M15
G01X91.44Y-87.14
M16
G05
G00X91.44Y-93.32
M15
G01X91.44Y-94.64
M16
G05
G00X106.58Y-85.82
M15
G01X106.58Y-87.14
M16
G05
G00X106.58Y-93.32
M15
G01X106.58Y-94.64
M16
G05
G00X119.38Y-85.82
M15
G01X119.38Y-87.14
M16
G05
G00X119.38Y-93.32
M15
G01X119.38Y-94.64
M16
G05
T0
M30
