M48
; DRILL file {KiCad 7.0.2-0} date 2024 February 19, Monday 15:31:35
; FORMAT={-:-/ absolute / metric / decimal}
; #@! TF.CreationDate,2024-02-19T15:31:35-08:00
; #@! TF.GenerationSoftware,Kicad,Pcbnew,7.0.2-0
; #@! TF.FileFunction,Plated,1,4,PTH
FMAT,2
METRIC
; #@! TA.AperFunction,Plated,PTH,ViaDrill
T1C0.200
; #@! TA.AperFunction,Plated,PTH,ViaDrill
T2C0.300
; #@! TA.AperFunction,Plated,PTH,ViaDrill
T3C0.400
; #@! TA.AperFunction,Plated,PTH,ComponentDrill
T4C0.400
; #@! TA.AperFunction,Plated,PTH,ComponentDrill
T5C0.600
; #@! TA.AperFunction,Plated,PTH,ComponentDrill
T6C0.620
; #@! TA.AperFunction,Plated,PTH,ComponentDrill
T7C0.800
; #@! TA.AperFunction,Plated,PTH,ComponentDrill
T8C0.900
; #@! TA.AperFunction,Plated,PTH,ComponentDrill
T9C1.000
; #@! TA.AperFunction,Plated,PTH,ComponentDrill
T10C1.400
%
G90
G05
T1
X46.228Y-119.503
X90.424Y-108.077
X91.186Y-110.49
X93.472Y-110.474
X93.574Y-119.048
X97.028Y-94.739
X100.33Y-109.982
X100.584Y-90.678
X100.584Y-91.694
X100.584Y-92.71
X100.584Y-93.726
X100.838Y-109.169
X103.505Y-107.442
X104.14Y-106.68
X105.791Y-115.062
X106.553Y-114.681
X107.442Y-104.902
X107.442Y-105.918
X107.442Y-106.934
X107.442Y-107.95
X125.527Y-100.173
X132.842Y-107.188
X133.392Y-104.775
X137.16Y-110.617
X137.795Y-111.125
X139.954Y-114.808
X140.208Y-103.708
X147.828Y-119.457
T2
X37.263Y-110.083
X37.263Y-113.893
X37.263Y-117.703
X37.263Y-121.513
X37.263Y-125.323
X37.263Y-129.133
X41.073Y-110.083
X41.073Y-129.133
X44.883Y-125.323
X48.693Y-125.323
X48.693Y-129.133
X56.197Y-115.523
X56.313Y-125.323
X56.313Y-129.133
X57.15Y-108.966
X60.123Y-110.083
X60.123Y-125.323
X60.123Y-129.133
X61.468Y-117.729
X62.484Y-116.713
X63.5Y-115.697
X63.933Y-121.513
X66.167Y-118.745
X67.743Y-106.273
X67.743Y-125.323
X67.743Y-129.133
X67.818Y-114.554
X68.834Y-108.718
X71.553Y-87.223
X71.553Y-91.033
X71.553Y-94.843
X71.553Y-98.653
X71.553Y-102.463
X71.553Y-106.273
X71.553Y-121.513
X71.553Y-129.133
X74.93Y-113.284
X75.311Y-87.122
X75.363Y-94.843
X75.363Y-98.653
X75.363Y-102.463
X75.363Y-106.273
X75.363Y-129.133
X75.946Y-114.3
X75.946Y-120.396
X75.946Y-125.603
X76.962Y-115.316
X77.216Y-120.396
X79.121Y-91.669
X79.756Y-123.825
X79.756Y-125.603
X79.883Y-119.126
X82.804Y-114.935
X82.983Y-83.413
X82.983Y-98.653
X82.983Y-102.463
X82.983Y-121.513
X82.983Y-125.323
X83.058Y-87.122
X83.947Y-110.871
X84.328Y-109.855
X84.709Y-88.397
X84.836Y-102.87
X86.614Y-114.935
X86.793Y-98.653
X86.793Y-121.513
X88.011Y-104.902
X89.154Y-100.33
X89.916Y-112.014
X90.17Y-102.362
X90.424Y-88.392
X90.603Y-91.033
X90.603Y-94.843
X90.932Y-113.03
X91.694Y-98.806
X91.694Y-102.362
X91.948Y-114.046
X93.726Y-96.012
X93.98Y-97.536
X94.413Y-91.033
X94.413Y-125.323
X94.413Y-129.133
X94.742Y-103.182
X96.52Y-101.6
X97.028Y-105.156
X99.314Y-97.028
X100.33Y-104.394
X102.033Y-91.033
X102.033Y-94.843
X102.033Y-125.323
X102.033Y-129.133
X103.378Y-84.709
X103.378Y-88.646
X105.843Y-102.463
X105.843Y-125.323
X105.843Y-129.133
X106.754Y-121.539
X107.29Y-99.441
X107.569Y-84.582
X109.653Y-129.133
X109.728Y-104.14
X110.617Y-118.491
X110.617Y-120.015
X111.303Y-100.584
X112.141Y-108.331
X112.268Y-94.488
X112.395Y-112.175
X112.776Y-84.645
X113.463Y-87.223
X113.463Y-91.033
X113.463Y-102.463
X113.463Y-129.133
X114.808Y-125.476
X117.273Y-87.223
X117.273Y-91.033
X117.273Y-102.463
X117.856Y-85.217
X118.618Y-123.825
X118.745Y-119.132
X121.083Y-91.033
X121.083Y-94.843
X123.19Y-103.632
X124.333Y-97.866
X124.893Y-91.033
X124.893Y-102.463
X124.893Y-129.133
X125.209Y-120.422
X127.381Y-103.962
X127.635Y-114.427
X127.889Y-107.823
X128.703Y-83.413
X129.286Y-107.823
X130.175Y-96.088
X131.826Y-96.393
X132.204Y-111.074
X132.207Y-119.888
X132.513Y-83.413
X132.588Y-99.187
X133.35Y-101.168
X133.858Y-97.536
X134.366Y-93.98
X134.65Y-104.809
X134.747Y-109.982
X135.509Y-110.617
X136.271Y-111.252
X136.652Y-121.92
X136.906Y-96.469
X137.033Y-100.584
X137.033Y-102.235
X137.82Y-101.371
X138.303Y-112.395
X138.684Y-100.584
X138.684Y-102.235
X138.811Y-106.121
X138.811Y-113.284
X138.82Y-96.901
X139.319Y-89.916
X139.446Y-114.046
X140.133Y-129.133
X140.335Y-113.284
X142.367Y-88.646
X143.256Y-88.011
X143.256Y-100.406
X143.943Y-117.703
X143.943Y-125.323
X143.943Y-129.133
X144.145Y-100.787
X144.526Y-114.046
X147.753Y-98.653
X147.753Y-125.323
X150.876Y-105.156
X151.563Y-98.653
X151.563Y-117.703
X151.563Y-129.133
X153.289Y-83.82
X155.373Y-83.413
X155.373Y-106.273
X155.373Y-129.133
X159.183Y-98.653
X159.183Y-102.463
X159.183Y-110.083
X159.183Y-113.893
X159.183Y-117.703
X159.183Y-121.513
X159.183Y-125.323
T3
X94.488Y-84.582
X99.568Y-84.582
X107.315Y-92.583
X110.998Y-96.52
X115.189Y-108.077
X135.509Y-102.819
T4
X94.053Y-86.738
X94.053Y-88.088
X94.903Y-86.738
X94.903Y-88.088
X95.753Y-86.738
X95.753Y-88.088
X96.603Y-86.738
X96.603Y-88.088
X97.453Y-86.738
X97.453Y-88.088
X98.303Y-86.738
X98.303Y-88.088
X99.153Y-86.738
X99.153Y-88.088
X100.003Y-86.738
X100.003Y-88.088
T6
X42.728Y-121.542
X45.228Y-121.542
X47.228Y-121.542
X49.728Y-121.542
X93.528Y-121.542
X96.028Y-121.542
X98.028Y-121.542
X100.528Y-121.542
X144.328Y-121.496
X146.828Y-121.496
X148.828Y-121.496
X151.328Y-121.496
T7
X44.353Y-114.882
X45.603Y-114.882
X46.853Y-114.882
X48.103Y-114.882
X95.153Y-114.882
X96.403Y-114.882
X97.653Y-114.882
X98.903Y-114.882
X145.953Y-114.836
X147.203Y-114.836
X148.453Y-114.836
X149.703Y-114.836
T9
X157.48Y-90.424
X157.48Y-92.964
X157.48Y-95.504
T5
G00X92.703Y-84.128
M15
G01X92.703Y-83.328
M16
G05
G00X92.703Y-87.858
M15
G01X92.703Y-86.358
M16
G05
G00X101.353Y-84.128
M15
G01X101.353Y-83.328
M16
G05
G00X101.353Y-87.858
M15
G01X101.353Y-86.358
M16
G05
T8
G00X39.828Y-115.102
M15
G01X39.828Y-116.422
M16
G05
G00X39.828Y-122.602
M15
G01X39.828Y-123.922
M16
G05
G00X52.628Y-115.102
M15
G01X52.628Y-116.422
M16
G05
G00X52.628Y-122.602
M15
G01X52.628Y-123.922
M16
G05
G00X90.628Y-115.102
M15
G01X90.628Y-116.422
M16
G05
G00X90.628Y-122.602
M15
G01X90.628Y-123.922
M16
G05
G00X103.428Y-115.102
M15
G01X103.428Y-116.422
M16
G05
G00X103.428Y-122.602
M15
G01X103.428Y-123.922
M16
G05
G00X141.428Y-115.056
M15
G01X141.428Y-116.376
M16
G05
G00X141.428Y-122.556
M15
G01X141.428Y-123.876
M16
G05
G00X154.228Y-115.056
M15
G01X154.228Y-116.376
M16
G05
G00X154.228Y-122.556
M15
G01X154.228Y-123.876
M16
G05
T10
G00X46.228Y-130.252
M15
G01X46.228Y-130.352
M16
G05
G00X97.028Y-130.252
M15
G01X97.028Y-130.352
M16
G05
G00X147.828Y-130.206
M15
G01X147.828Y-130.306
M16
G05
T0
M30
