%TF.GenerationSoftware,KiCad,Pcbnew,7.0.2-0*%
%TF.CreationDate,2023-08-10T19:07:58-07:00*%
%TF.ProjectId,led-usb-hub,6c65642d-7573-4622-9d68-75622e6b6963,rev?*%
%TF.SameCoordinates,Original*%
%TF.FileFunction,Soldermask,Top*%
%TF.FilePolarity,Negative*%
%FSLAX46Y46*%
G04 Gerber Fmt 4.6, Leading zero omitted, Abs format (unit mm)*
G04 Created by KiCad (PCBNEW 7.0.2-0) date 2023-08-10 19:07:58*
%MOMM*%
%LPD*%
G01*
G04 APERTURE LIST*
G04 Aperture macros list*
%AMRoundRect*
0 Rectangle with rounded corners*
0 $1 Rounding radius*
0 $2 $3 $4 $5 $6 $7 $8 $9 X,Y pos of 4 corners*
0 Add a 4 corners polygon primitive as box body*
4,1,4,$2,$3,$4,$5,$6,$7,$8,$9,$2,$3,0*
0 Add four circle primitives for the rounded corners*
1,1,$1+$1,$2,$3*
1,1,$1+$1,$4,$5*
1,1,$1+$1,$6,$7*
1,1,$1+$1,$8,$9*
0 Add four rect primitives between the rounded corners*
20,1,$1+$1,$2,$3,$4,$5,0*
20,1,$1+$1,$4,$5,$6,$7,0*
20,1,$1+$1,$6,$7,$8,$9,0*
20,1,$1+$1,$8,$9,$2,$3,0*%
G04 Aperture macros list end*
%ADD10R,1.300000X1.100000*%
%ADD11RoundRect,0.237500X-0.300000X-0.237500X0.300000X-0.237500X0.300000X0.237500X-0.300000X0.237500X0*%
%ADD12RoundRect,0.237500X-0.237500X0.300000X-0.237500X-0.300000X0.237500X-0.300000X0.237500X0.300000X0*%
%ADD13RoundRect,0.381000X-1.524000X0.381000X-1.524000X-0.381000X1.524000X-0.381000X1.524000X0.381000X0*%
%ADD14RoundRect,0.250000X-0.500000X-0.250000X0.500000X-0.250000X0.500000X0.250000X-0.500000X0.250000X0*%
%ADD15R,1.701800X3.708400*%
%ADD16RoundRect,0.237500X0.237500X-0.250000X0.237500X0.250000X-0.237500X0.250000X-0.237500X-0.250000X0*%
%ADD17RoundRect,0.237500X-0.250000X-0.237500X0.250000X-0.237500X0.250000X0.237500X-0.250000X0.237500X0*%
%ADD18RoundRect,0.150000X-0.150000X0.825000X-0.150000X-0.825000X0.150000X-0.825000X0.150000X0.825000X0*%
%ADD19C,0.820000*%
%ADD20O,1.200000X2.520000*%
%ADD21RoundRect,0.400000X-0.300000X-0.350000X0.300000X-0.350000X0.300000X0.350000X-0.300000X0.350000X0*%
%ADD22C,1.000000*%
%ADD23RoundRect,0.237500X0.300000X0.237500X-0.300000X0.237500X-0.300000X-0.237500X0.300000X-0.237500X0*%
%ADD24RoundRect,0.237500X-0.237500X0.250000X-0.237500X-0.250000X0.237500X-0.250000X0.237500X0.250000X0*%
%ADD25C,0.700000*%
%ADD26O,0.900000X2.400000*%
%ADD27O,0.900000X1.700000*%
%ADD28C,3.200000*%
G04 APERTURE END LIST*
D10*
%TO.C,Y1*%
X102884000Y-80391000D03*
X100584000Y-80391000D03*
X100584000Y-82191000D03*
X102884000Y-82191000D03*
%TD*%
D11*
%TO.C,C5*%
X153977000Y-65786000D03*
X155702000Y-65786000D03*
%TD*%
%TO.C,C7*%
X91493000Y-77724000D03*
X93218000Y-77724000D03*
%TD*%
D12*
%TO.C,C1*%
X97790000Y-77369500D03*
X97790000Y-79094500D03*
%TD*%
D13*
%TO.C,U2*%
X129500000Y-64270000D03*
X129500000Y-66810000D03*
X129500000Y-69350000D03*
X129500000Y-71890000D03*
X129500000Y-74430000D03*
X129500000Y-76970000D03*
X129500000Y-79510000D03*
X129500000Y-82050000D03*
X129500000Y-84590000D03*
X129500000Y-87130000D03*
X129500000Y-89670000D03*
X129500000Y-92210000D03*
X129500000Y-94750000D03*
X149820000Y-94750000D03*
X149820000Y-92210000D03*
X149820000Y-89670000D03*
X149820000Y-87130000D03*
X149820000Y-84590000D03*
X149820000Y-82050000D03*
X149820000Y-79510000D03*
X149820000Y-76970000D03*
X149820000Y-74430000D03*
X149820000Y-71890000D03*
X149820000Y-69350000D03*
X149820000Y-66810000D03*
X149820000Y-64270000D03*
%TD*%
D14*
%TO.C,D1*%
X86076000Y-59436000D03*
X88676000Y-59436000D03*
%TD*%
D15*
%TO.C,SW1*%
X121735002Y-60071000D03*
X127635000Y-60071000D03*
%TD*%
D16*
%TO.C,R1*%
X92583000Y-62912000D03*
X92583000Y-61087000D03*
%TD*%
D17*
%TO.C,R8*%
X123905000Y-87122000D03*
X125730000Y-87122000D03*
%TD*%
D18*
%TO.C,U1*%
X99949000Y-69915000D03*
X98679000Y-69915000D03*
X97409000Y-69915000D03*
X96139000Y-69915000D03*
X94869000Y-69915000D03*
X93599000Y-69915000D03*
X92329000Y-69915000D03*
X91059000Y-69915000D03*
X91059000Y-74865000D03*
X92329000Y-74865000D03*
X93599000Y-74865000D03*
X94869000Y-74865000D03*
X96139000Y-74865000D03*
X97409000Y-74865000D03*
X98679000Y-74865000D03*
X99949000Y-74865000D03*
%TD*%
D16*
%TO.C,R14*%
X83820000Y-62126500D03*
X83820000Y-60301500D03*
%TD*%
D17*
%TO.C,R3*%
X123905000Y-66802000D03*
X125730000Y-66802000D03*
%TD*%
D19*
%TO.C,J2*%
X60600000Y-92260000D03*
X58100000Y-92260000D03*
X56100000Y-92260000D03*
D20*
X50700000Y-86480000D03*
X50700000Y-93980000D03*
D19*
X53600000Y-92260000D03*
D21*
X57100000Y-101020000D03*
D20*
X63500000Y-86480000D03*
X63500000Y-93980000D03*
D22*
X58975000Y-85600000D03*
X57725000Y-85600000D03*
X56475000Y-85600000D03*
X55225000Y-85600000D03*
%TD*%
D17*
%TO.C,R12*%
X153924000Y-74422000D03*
X155749000Y-74422000D03*
%TD*%
%TO.C,R11*%
X123905000Y-94742000D03*
X125730000Y-94742000D03*
%TD*%
D11*
%TO.C,C6*%
X153977000Y-67818000D03*
X155702000Y-67818000D03*
%TD*%
D14*
%TO.C,D2*%
X79248000Y-59436000D03*
X81848000Y-59436000D03*
%TD*%
D19*
%TO.C,J4*%
X116480000Y-92260000D03*
X113980000Y-92260000D03*
X111980000Y-92260000D03*
D20*
X106580000Y-86480000D03*
X106580000Y-93980000D03*
D19*
X109480000Y-92260000D03*
D21*
X112980000Y-101020000D03*
D20*
X119380000Y-86480000D03*
X119380000Y-93980000D03*
D22*
X114855000Y-85600000D03*
X113605000Y-85600000D03*
X112355000Y-85600000D03*
X111105000Y-85600000D03*
%TD*%
D12*
%TO.C,C9*%
X103124000Y-85598000D03*
X103124000Y-87323000D03*
%TD*%
D11*
%TO.C,C4*%
X100838000Y-66548000D03*
X102563000Y-66548000D03*
%TD*%
D23*
%TO.C,C3*%
X96721000Y-66548000D03*
X94996000Y-66548000D03*
%TD*%
D24*
%TO.C,R2*%
X105029000Y-61087000D03*
X105029000Y-62912000D03*
%TD*%
D12*
%TO.C,C8*%
X101473000Y-85598000D03*
X101473000Y-87323000D03*
%TD*%
D17*
%TO.C,R10*%
X123905000Y-92202000D03*
X125730000Y-92202000D03*
%TD*%
D25*
%TO.C,J1*%
X101781000Y-63994400D03*
X100931000Y-63994400D03*
X100081000Y-63994400D03*
X99231000Y-63994400D03*
X98381000Y-63994400D03*
X97531000Y-63994400D03*
X96681000Y-63994400D03*
X95831000Y-63994400D03*
X95831000Y-62644400D03*
X96681000Y-62644400D03*
X97531000Y-62644400D03*
X98381000Y-62644400D03*
X99231000Y-62644400D03*
X100081000Y-62644400D03*
X100931000Y-62644400D03*
X101781000Y-62644400D03*
D26*
X103131000Y-63014400D03*
D27*
X103131000Y-59634400D03*
D26*
X94481000Y-63014400D03*
D27*
X94481000Y-59634400D03*
%TD*%
D17*
%TO.C,R7*%
X123905000Y-84582000D03*
X125730000Y-84582000D03*
%TD*%
D28*
%TO.C,H2*%
X41148000Y-94488000D03*
%TD*%
D17*
%TO.C,R9*%
X123905000Y-89662000D03*
X125730000Y-89662000D03*
%TD*%
%TO.C,R6*%
X123905000Y-82042000D03*
X125730000Y-82042000D03*
%TD*%
D28*
%TO.C,H1*%
X117856000Y-74168000D03*
%TD*%
D12*
%TO.C,C2*%
X96012000Y-77369500D03*
X96012000Y-79094500D03*
%TD*%
D17*
%TO.C,R4*%
X123905000Y-69342000D03*
X125730000Y-69342000D03*
%TD*%
D19*
%TO.C,J3*%
X88540000Y-92260000D03*
X86040000Y-92260000D03*
X84040000Y-92260000D03*
D20*
X78640000Y-86480000D03*
X78640000Y-93980000D03*
D19*
X81540000Y-92260000D03*
D21*
X85040000Y-101020000D03*
D20*
X91440000Y-86480000D03*
X91440000Y-93980000D03*
D22*
X86915000Y-85600000D03*
X85665000Y-85600000D03*
X84415000Y-85600000D03*
X83165000Y-85600000D03*
%TD*%
D16*
%TO.C,R13*%
X90678000Y-61261000D03*
X90678000Y-59436000D03*
%TD*%
D28*
%TO.C,H3*%
X156464000Y-94488000D03*
%TD*%
D17*
%TO.C,R5*%
X123905000Y-79502000D03*
X125730000Y-79502000D03*
%TD*%
M02*
