%TF.GenerationSoftware,KiCad,Pcbnew,7.0.2-0*%
%TF.CreationDate,2024-02-19T10:57:34-08:00*%
%TF.ProjectId,led-usb-hub,6c65642d-7573-4622-9d68-75622e6b6963,rev?*%
%TF.SameCoordinates,Original*%
%TF.FileFunction,Copper,L4,Bot*%
%TF.FilePolarity,Positive*%
%FSLAX46Y46*%
G04 Gerber Fmt 4.6, Leading zero omitted, Abs format (unit mm)*
G04 Created by KiCad (PCBNEW 7.0.2-0) date 2024-02-19 10:57:34*
%MOMM*%
%LPD*%
G01*
G04 APERTURE LIST*
G04 Aperture macros list*
%AMRoundRect*
0 Rectangle with rounded corners*
0 $1 Rounding radius*
0 $2 $3 $4 $5 $6 $7 $8 $9 X,Y pos of 4 corners*
0 Add a 4 corners polygon primitive as box body*
4,1,4,$2,$3,$4,$5,$6,$7,$8,$9,$2,$3,0*
0 Add four circle primitives for the rounded corners*
1,1,$1+$1,$2,$3*
1,1,$1+$1,$4,$5*
1,1,$1+$1,$6,$7*
1,1,$1+$1,$8,$9*
0 Add four rect primitives between the rounded corners*
20,1,$1+$1,$2,$3,$4,$5,0*
20,1,$1+$1,$4,$5,$6,$7,0*
20,1,$1+$1,$6,$7,$8,$9,0*
20,1,$1+$1,$8,$9,$2,$3,0*%
G04 Aperture macros list end*
%TA.AperFunction,ComponentPad*%
%ADD10C,0.700000*%
%TD*%
%TA.AperFunction,ComponentPad*%
%ADD11O,0.900000X2.400000*%
%TD*%
%TA.AperFunction,ComponentPad*%
%ADD12O,0.900000X1.700000*%
%TD*%
%TA.AperFunction,ComponentPad*%
%ADD13RoundRect,0.141000X-0.423000X-0.423000X0.423000X-0.423000X0.423000X0.423000X-0.423000X0.423000X0*%
%TD*%
%TA.AperFunction,ComponentPad*%
%ADD14C,1.128000*%
%TD*%
%TA.AperFunction,ComponentPad*%
%ADD15C,1.100000*%
%TD*%
%TA.AperFunction,ComponentPad*%
%ADD16O,1.408000X2.816000*%
%TD*%
%TA.AperFunction,ComponentPad*%
%ADD17R,2.100000X2.100000*%
%TD*%
%TA.AperFunction,ComponentPad*%
%ADD18R,1.700000X1.700000*%
%TD*%
%TA.AperFunction,ComponentPad*%
%ADD19O,1.700000X1.700000*%
%TD*%
%TA.AperFunction,SMDPad,CuDef*%
%ADD20RoundRect,0.200000X-0.200000X-0.275000X0.200000X-0.275000X0.200000X0.275000X-0.200000X0.275000X0*%
%TD*%
%TA.AperFunction,SMDPad,CuDef*%
%ADD21RoundRect,0.225000X-0.225000X-0.250000X0.225000X-0.250000X0.225000X0.250000X-0.225000X0.250000X0*%
%TD*%
%TA.AperFunction,SMDPad,CuDef*%
%ADD22RoundRect,0.225000X-0.250000X0.225000X-0.250000X-0.225000X0.250000X-0.225000X0.250000X0.225000X0*%
%TD*%
%TA.AperFunction,SMDPad,CuDef*%
%ADD23RoundRect,0.225000X0.225000X0.250000X-0.225000X0.250000X-0.225000X-0.250000X0.225000X-0.250000X0*%
%TD*%
%TA.AperFunction,SMDPad,CuDef*%
%ADD24RoundRect,0.200000X0.200000X0.275000X-0.200000X0.275000X-0.200000X-0.275000X0.200000X-0.275000X0*%
%TD*%
%TA.AperFunction,SMDPad,CuDef*%
%ADD25RoundRect,0.200000X0.275000X-0.200000X0.275000X0.200000X-0.275000X0.200000X-0.275000X-0.200000X0*%
%TD*%
%TA.AperFunction,SMDPad,CuDef*%
%ADD26RoundRect,0.200000X-0.275000X0.200000X-0.275000X-0.200000X0.275000X-0.200000X0.275000X0.200000X0*%
%TD*%
%TA.AperFunction,SMDPad,CuDef*%
%ADD27R,0.299999X0.449999*%
%TD*%
%TA.AperFunction,SMDPad,CuDef*%
%ADD28RoundRect,0.225000X0.250000X-0.225000X0.250000X0.225000X-0.250000X0.225000X-0.250000X-0.225000X0*%
%TD*%
%TA.AperFunction,SMDPad,CuDef*%
%ADD29RoundRect,0.125000X0.353553X0.530330X-0.530330X-0.353553X-0.353553X-0.530330X0.530330X0.353553X0*%
%TD*%
%TA.AperFunction,SMDPad,CuDef*%
%ADD30RoundRect,0.125000X-0.353553X0.530330X-0.530330X0.353553X0.353553X-0.530330X0.530330X-0.353553X0*%
%TD*%
%TA.AperFunction,SMDPad,CuDef*%
%ADD31RoundRect,0.150000X-0.587500X-0.150000X0.587500X-0.150000X0.587500X0.150000X-0.587500X0.150000X0*%
%TD*%
%TA.AperFunction,SMDPad,CuDef*%
%ADD32R,0.449999X0.299999*%
%TD*%
%TA.AperFunction,ViaPad*%
%ADD33C,1.000000*%
%TD*%
%TA.AperFunction,ViaPad*%
%ADD34C,0.700000*%
%TD*%
%TA.AperFunction,ViaPad*%
%ADD35C,0.500000*%
%TD*%
%TA.AperFunction,Conductor*%
%ADD36C,0.500000*%
%TD*%
%TA.AperFunction,Conductor*%
%ADD37C,0.350000*%
%TD*%
%TA.AperFunction,Conductor*%
%ADD38C,0.250000*%
%TD*%
%TA.AperFunction,Conductor*%
%ADD39C,0.200000*%
%TD*%
%TA.AperFunction,Conductor*%
%ADD40C,0.239000*%
%TD*%
G04 APERTURE END LIST*
D10*
%TO.P,J1,A1,GND*%
%TO.N,Earth*%
X100003000Y-88088000D03*
%TO.P,J1,A4,VBUS*%
%TO.N,VUSB*%
X99153000Y-88088000D03*
%TO.P,J1,A5,CC1*%
%TO.N,/CC1*%
X98303000Y-88088000D03*
%TO.P,J1,A6,D+*%
%TO.N,UD+*%
X97453000Y-88088000D03*
%TO.P,J1,A7,D-*%
%TO.N,UD-*%
X96603000Y-88088000D03*
%TO.P,J1,A8,SBU1*%
%TO.N,unconnected-(J1-SBU1-PadA8)*%
X95753000Y-88088000D03*
%TO.P,J1,A9,VBUS*%
%TO.N,VUSB*%
X94903000Y-88088000D03*
%TO.P,J1,A12,GND*%
%TO.N,Earth*%
X94053000Y-88088000D03*
%TO.P,J1,B1,GND*%
X94053000Y-86738000D03*
%TO.P,J1,B4,VBUS*%
%TO.N,VUSB*%
X94903000Y-86738000D03*
%TO.P,J1,B5,CC2*%
%TO.N,/CC2*%
X95753000Y-86738000D03*
%TO.P,J1,B6,D+*%
%TO.N,UD+*%
X96603000Y-86738000D03*
%TO.P,J1,B7,D-*%
%TO.N,UD-*%
X97453000Y-86738000D03*
%TO.P,J1,B8,SBU2*%
%TO.N,unconnected-(J1-SBU2-PadB8)*%
X98303000Y-86738000D03*
%TO.P,J1,B9,VBUS*%
%TO.N,VUSB*%
X99153000Y-86738000D03*
%TO.P,J1,B12,GND*%
%TO.N,Earth*%
X100003000Y-86738000D03*
D11*
%TO.P,J1,S1,SHIELD*%
%TO.N,unconnected-(J1-SHIELD-PadS1)*%
X101353000Y-87108000D03*
D12*
%TO.P,J1,S2,SHIELD*%
%TO.N,unconnected-(J1-SHIELD-PadS2)*%
X101353000Y-83728000D03*
%TO.P,J1,S3,SHIELD*%
%TO.N,unconnected-(J1-SHIELD-PadS3)*%
X92703000Y-83728000D03*
D11*
%TO.P,J1,S4,SHIELD*%
%TO.N,unconnected-(J1-SHIELD-PadS4)*%
X92703000Y-87108000D03*
%TD*%
D13*
%TO.P,J2,1,VBUS*%
%TO.N,+5V_1*%
X151328000Y-121496000D03*
D14*
%TO.P,J2,2,D-*%
%TO.N,U1-*%
X148828000Y-121496000D03*
%TO.P,J2,3,D+*%
%TO.N,U1+*%
X146828000Y-121496000D03*
%TO.P,J2,4,GND*%
%TO.N,Earth*%
X144328000Y-121496000D03*
D15*
%TO.P,J2,B*%
%TO.N,/L1_B'*%
X145953000Y-114836000D03*
%TO.P,J2,G*%
%TO.N,/L1_G'*%
X147203000Y-114836000D03*
%TO.P,J2,R*%
%TO.N,/L1_R'*%
X149703000Y-114836000D03*
D16*
%TO.P,J2,S1,SHIELD*%
%TO.N,Earth*%
X141428000Y-123216000D03*
%TO.P,J2,S2,SHIELD*%
X154228000Y-123216000D03*
%TO.P,J2,S3,SHIELD*%
X141428000Y-115716000D03*
%TO.P,J2,S4,SHIELD*%
X154228000Y-115716000D03*
D17*
%TO.P,J2,S5,SHIELD*%
X147828000Y-130256000D03*
D15*
%TO.P,J2,V*%
%TO.N,+3V3_PI*%
X148453000Y-114836000D03*
%TD*%
D13*
%TO.P,J3,1,VBUS*%
%TO.N,+5V_2*%
X100528000Y-121542000D03*
D14*
%TO.P,J3,2,D-*%
%TO.N,U2-*%
X98028000Y-121542000D03*
%TO.P,J3,3,D+*%
%TO.N,U2+*%
X96028000Y-121542000D03*
%TO.P,J3,4,GND*%
%TO.N,Earth*%
X93528000Y-121542000D03*
D15*
%TO.P,J3,B*%
%TO.N,/L2_B'*%
X95153000Y-114882000D03*
%TO.P,J3,G*%
%TO.N,/L2_G'*%
X96403000Y-114882000D03*
%TO.P,J3,R*%
%TO.N,/L2_R'*%
X98903000Y-114882000D03*
D16*
%TO.P,J3,S1,SHIELD*%
%TO.N,Earth*%
X90628000Y-123262000D03*
%TO.P,J3,S2,SHIELD*%
X103428000Y-123262000D03*
%TO.P,J3,S3,SHIELD*%
X90628000Y-115762000D03*
%TO.P,J3,S4,SHIELD*%
X103428000Y-115762000D03*
D17*
%TO.P,J3,S5,SHIELD*%
X97028000Y-130302000D03*
D15*
%TO.P,J3,V*%
%TO.N,+3V3_PI*%
X97653000Y-114882000D03*
%TD*%
D18*
%TO.P,J5,1,Pin_1*%
%TO.N,/SWCLK*%
X157480000Y-95504000D03*
D19*
%TO.P,J5,2,Pin_2*%
%TO.N,Earth*%
X157480000Y-92964000D03*
%TO.P,J5,3,Pin_3*%
%TO.N,/SWDIO*%
X157480000Y-90424000D03*
%TD*%
D13*
%TO.P,J4,1,VBUS*%
%TO.N,+5V_3*%
X49728000Y-121542000D03*
D14*
%TO.P,J4,2,D-*%
%TO.N,U3-*%
X47228000Y-121542000D03*
%TO.P,J4,3,D+*%
%TO.N,U3+*%
X45228000Y-121542000D03*
%TO.P,J4,4,GND*%
%TO.N,Earth*%
X42728000Y-121542000D03*
D15*
%TO.P,J4,B*%
%TO.N,/L3_B'*%
X44353000Y-114882000D03*
%TO.P,J4,G*%
%TO.N,/L3_G'*%
X45603000Y-114882000D03*
%TO.P,J4,R*%
%TO.N,/L3_R'*%
X48103000Y-114882000D03*
D16*
%TO.P,J4,S1,SHIELD*%
%TO.N,Earth*%
X39828000Y-123262000D03*
%TO.P,J4,S2,SHIELD*%
X52628000Y-123262000D03*
%TO.P,J4,S3,SHIELD*%
X39828000Y-115762000D03*
%TO.P,J4,S4,SHIELD*%
X52628000Y-115762000D03*
D17*
%TO.P,J4,S5,SHIELD*%
X46228000Y-130302000D03*
D15*
%TO.P,J4,V*%
%TO.N,+3V3_PI*%
X46853000Y-114882000D03*
%TD*%
D20*
%TO.P,R32,1*%
%TO.N,/U1'-*%
X123318000Y-108204000D03*
%TO.P,R32,2*%
%TO.N,U1-*%
X124968000Y-108204000D03*
%TD*%
D21*
%TO.P,C39,1*%
%TO.N,+1V1*%
X135483000Y-103835000D03*
%TO.P,C39,2*%
%TO.N,Earth*%
X137033000Y-103835000D03*
%TD*%
D22*
%TO.P,C35,1*%
%TO.N,/U3'-*%
X68834000Y-112970000D03*
%TO.P,C35,2*%
%TO.N,Earth*%
X68834000Y-114520000D03*
%TD*%
D23*
%TO.P,C36,1*%
%TO.N,Earth*%
X135395000Y-100152000D03*
%TO.P,C36,2*%
%TO.N,+1V1*%
X133845000Y-100152000D03*
%TD*%
D24*
%TO.P,R40,1*%
%TO.N,/U3'-*%
X64008000Y-112983000D03*
%TO.P,R40,2*%
%TO.N,U3-*%
X62358000Y-112983000D03*
%TD*%
D20*
%TO.P,R34,1*%
%TO.N,U1-*%
X143994500Y-112299001D03*
%TO.P,R34,2*%
%TO.N,Earth*%
X145644500Y-112299001D03*
%TD*%
D25*
%TO.P,R37,1*%
%TO.N,Earth*%
X88392000Y-121396501D03*
%TO.P,R37,2*%
%TO.N,U2+*%
X88392000Y-119746501D03*
%TD*%
D26*
%TO.P,R41,1*%
%TO.N,Earth*%
X56197000Y-109872000D03*
%TO.P,R41,2*%
%TO.N,U3+*%
X56197000Y-111522000D03*
%TD*%
D21*
%TO.P,C40,1*%
%TO.N,+3V3_PI*%
X133845000Y-101676000D03*
%TO.P,C40,2*%
%TO.N,Earth*%
X135395000Y-101676000D03*
%TD*%
D23*
%TO.P,C26,1*%
%TO.N,/UD'+*%
X96279000Y-96012000D03*
%TO.P,C26,2*%
%TO.N,Earth*%
X94729000Y-96012000D03*
%TD*%
D27*
%TO.P,U9,1,IO1*%
%TO.N,U1+*%
X147478001Y-117815000D03*
%TO.P,U9,2,IO2*%
%TO.N,U1-*%
X148177999Y-117815000D03*
%TO.P,U9,3,GND*%
%TO.N,Earth*%
X147828000Y-118965000D03*
%TD*%
D26*
%TO.P,R38,1*%
%TO.N,Earth*%
X88392000Y-116698501D03*
%TO.P,R38,2*%
%TO.N,U2-*%
X88392000Y-118348501D03*
%TD*%
D23*
%TO.P,C24,1*%
%TO.N,+3V3_L*%
X90678000Y-104902000D03*
%TO.P,C24,2*%
%TO.N,Earth*%
X89128000Y-104902000D03*
%TD*%
D28*
%TO.P,C25,1*%
%TO.N,+3V3_L*%
X100838000Y-99441000D03*
%TO.P,C25,2*%
%TO.N,Earth*%
X100838000Y-97891000D03*
%TD*%
D23*
%TO.P,C41,1*%
%TO.N,+3V3_PI*%
X141859000Y-101549000D03*
%TO.P,C41,2*%
%TO.N,Earth*%
X140309000Y-101549000D03*
%TD*%
D28*
%TO.P,C31,1*%
%TO.N,/U1'-*%
X113538000Y-109026000D03*
%TO.P,C31,2*%
%TO.N,Earth*%
X113538000Y-107476000D03*
%TD*%
D25*
%TO.P,R42,1*%
%TO.N,Earth*%
X56197000Y-114570000D03*
%TO.P,R42,2*%
%TO.N,U3-*%
X56197000Y-112920000D03*
%TD*%
D21*
%TO.P,C45,1*%
%TO.N,+3V3_PI*%
X135483000Y-105359000D03*
%TO.P,C45,2*%
%TO.N,Earth*%
X137033000Y-105359000D03*
%TD*%
D24*
%TO.P,R33,1*%
%TO.N,U1+*%
X142470500Y-112299001D03*
%TO.P,R33,2*%
%TO.N,Earth*%
X140820500Y-112299001D03*
%TD*%
D23*
%TO.P,C38,1*%
%TO.N,+1V1*%
X141859000Y-100025000D03*
%TO.P,C38,2*%
%TO.N,Earth*%
X140309000Y-100025000D03*
%TD*%
D29*
%TO.P,U6,1,DP0*%
%TO.N,/UD'+*%
X98000272Y-99969930D03*
%TO.P,U6,2,DM0*%
%TO.N,/UD'-*%
X98565957Y-100535616D03*
%TO.P,U6,3,VCC*%
%TO.N,+3V3_L*%
X99131643Y-101101301D03*
%TO.P,U6,4,\u002ARESET*%
%TO.N,PWR_ON*%
X99697328Y-101666986D03*
%TO.P,U6,5,EECLK*%
%TO.N,unconnected-(U6-EECLK-Pad5)*%
X100263014Y-102232672D03*
%TO.P,U6,6,EEDATA/GANGED*%
%TO.N,Earth*%
X100828699Y-102798357D03*
%TO.P,U6,7,GND*%
X101394384Y-103364043D03*
%TO.P,U6,8,BUSPWR*%
X101960070Y-103929728D03*
D30*
%TO.P,U6,9,\u002APWRON1*%
%TO.N,PWR_EN0*%
X101960070Y-105874272D03*
%TO.P,U6,10,\u002AOVRCUR1*%
%TO.N,OC0*%
X101394384Y-106439957D03*
%TO.P,U6,11,DM1*%
%TO.N,/U0'-*%
X100828699Y-107005643D03*
%TO.P,U6,12,DP1*%
%TO.N,/U0'+*%
X100263014Y-107571328D03*
%TO.P,U6,13,\u002APWRON2*%
%TO.N,PWR_EN1*%
X99697328Y-108137014D03*
%TO.P,U6,14,\u002AOVRCUR2*%
%TO.N,OC1*%
X99131643Y-108702699D03*
%TO.P,U6,15,DM2*%
%TO.N,/U1'-*%
X98565957Y-109268384D03*
%TO.P,U6,16,DP2*%
%TO.N,/U1'+*%
X98000272Y-109834070D03*
D29*
%TO.P,U6,17,\u002APWRON3*%
%TO.N,PWR_EN2*%
X96055728Y-109834070D03*
%TO.P,U6,18,\u002AOVRCUR3*%
%TO.N,OC2*%
X95490043Y-109268384D03*
%TO.P,U6,19,DM3*%
%TO.N,/U2'-*%
X94924357Y-108702699D03*
%TO.P,U6,20,DP3*%
%TO.N,/U2'+*%
X94358672Y-108137014D03*
%TO.P,U6,21,\u002APWRON4*%
%TO.N,PWR_EN3*%
X93792986Y-107571328D03*
%TO.P,U6,22,\u002AOVRCUR4*%
%TO.N,OC3*%
X93227301Y-107005643D03*
%TO.P,U6,23,DM4*%
%TO.N,/U3'-*%
X92661616Y-106439957D03*
%TO.P,U6,24,DP4*%
%TO.N,/U3'+*%
X92095930Y-105874272D03*
D30*
%TO.P,U6,25,VCC*%
%TO.N,+3V3_L*%
X92095930Y-103929728D03*
%TO.P,U6,26,\u002AEXTMEM*%
X92661616Y-103364043D03*
%TO.P,U6,27,TSTPLL/48MCLK*%
%TO.N,Earth*%
X93227301Y-102798357D03*
%TO.P,U6,28,GND*%
X93792986Y-102232672D03*
%TO.P,U6,29,XTAL2*%
%TO.N,/OSC_USB2'*%
X94358672Y-101666986D03*
%TO.P,U6,30,XTAL1*%
%TO.N,/OSC_USB1*%
X94924357Y-101101301D03*
%TO.P,U6,31,TSTMODE*%
%TO.N,Earth*%
X95490043Y-100535616D03*
%TO.P,U6,32,SUSPND*%
%TO.N,unconnected-(U6-SUSPND-Pad32)*%
X96055728Y-99969930D03*
%TD*%
D28*
%TO.P,C34,1*%
%TO.N,/U3'+*%
X68834000Y-111472000D03*
%TO.P,C34,2*%
%TO.N,Earth*%
X68834000Y-109922000D03*
%TD*%
D20*
%TO.P,R31,1*%
%TO.N,/U1'+*%
X123318000Y-109728000D03*
%TO.P,R31,2*%
%TO.N,U1+*%
X124968000Y-109728000D03*
%TD*%
D22*
%TO.P,C30,1*%
%TO.N,/U1'+*%
X113538000Y-110524000D03*
%TO.P,C30,2*%
%TO.N,Earth*%
X113538000Y-112074000D03*
%TD*%
D20*
%TO.P,R24,1*%
%TO.N,+3V3_L*%
X94870000Y-97536000D03*
%TO.P,R24,2*%
%TO.N,/UD'+*%
X96520000Y-97536000D03*
%TD*%
D26*
%TO.P,R35,1*%
%TO.N,/U2'+*%
X83947000Y-115380000D03*
%TO.P,R35,2*%
%TO.N,U2+*%
X83947000Y-117030000D03*
%TD*%
D24*
%TO.P,R39,1*%
%TO.N,/U3'+*%
X64008000Y-111459000D03*
%TO.P,R39,2*%
%TO.N,U3+*%
X62358000Y-111459000D03*
%TD*%
D23*
%TO.P,C37,1*%
%TO.N,Earth*%
X135395000Y-98628000D03*
%TO.P,C37,2*%
%TO.N,+3V3_PI*%
X133845000Y-98628000D03*
%TD*%
D27*
%TO.P,U11,1,IO1*%
%TO.N,U3+*%
X45878001Y-117861000D03*
%TO.P,U11,2,IO2*%
%TO.N,U3-*%
X46577999Y-117861000D03*
%TO.P,U11,3,GND*%
%TO.N,Earth*%
X46228000Y-119011000D03*
%TD*%
D28*
%TO.P,C44,1*%
%TO.N,+3V3_PI*%
X138811000Y-105105000D03*
%TO.P,C44,2*%
%TO.N,Earth*%
X138811000Y-103555000D03*
%TD*%
D21*
%TO.P,C33,1*%
%TO.N,/U2'-*%
X85458000Y-113851000D03*
%TO.P,C33,2*%
%TO.N,Earth*%
X87008000Y-113851000D03*
%TD*%
%TO.P,C27,1*%
%TO.N,/UD'-*%
X97777000Y-96012000D03*
%TO.P,C27,2*%
%TO.N,Earth*%
X99327000Y-96012000D03*
%TD*%
D26*
%TO.P,R36,1*%
%TO.N,/U2'-*%
X85471000Y-115380000D03*
%TO.P,R36,2*%
%TO.N,U2-*%
X85471000Y-117030000D03*
%TD*%
D31*
%TO.P,U12,1,OUT*%
%TO.N,PWR_ON*%
X103281000Y-100391000D03*
%TO.P,U12,2,GND*%
%TO.N,Earth*%
X103281000Y-98491000D03*
%TO.P,U12,3,VIN*%
%TO.N,+3V3_L*%
X105156000Y-99441000D03*
%TD*%
D32*
%TO.P,U10,1,IO1*%
%TO.N,U2+*%
X91881000Y-119397500D03*
%TO.P,U10,2,IO2*%
%TO.N,U2-*%
X91881000Y-118697502D03*
%TO.P,U10,3,GND*%
%TO.N,Earth*%
X93031000Y-119047501D03*
%TD*%
D27*
%TO.P,U7,1,IO1*%
%TO.N,/UD'+*%
X96678001Y-93087500D03*
%TO.P,U7,2,IO2*%
%TO.N,/UD'-*%
X97377999Y-93087500D03*
%TO.P,U7,3,GND*%
%TO.N,Earth*%
X97028000Y-94237500D03*
%TD*%
D22*
%TO.P,C43,1*%
%TO.N,+3V3_PI*%
X138811000Y-97777000D03*
%TO.P,C43,2*%
%TO.N,Earth*%
X138811000Y-99327000D03*
%TD*%
D23*
%TO.P,C32,1*%
%TO.N,/U2'+*%
X83960000Y-113851000D03*
%TO.P,C32,2*%
%TO.N,Earth*%
X82410000Y-113851000D03*
%TD*%
D33*
%TO.N,VUSB*%
X115189000Y-108077000D03*
X110998000Y-96520000D03*
D34*
%TO.N,Earth*%
X94413000Y-125322501D03*
X41073000Y-110082501D03*
X150876000Y-105156000D03*
X71553000Y-98652501D03*
X60123000Y-129132501D03*
X67743000Y-106272501D03*
X117273000Y-102462501D03*
X56313000Y-129132501D03*
X75311000Y-87122000D03*
X56197000Y-115523000D03*
X143256000Y-88011000D03*
X102033000Y-125322501D03*
X155373000Y-83412501D03*
X82804000Y-114935000D03*
X124333000Y-97866000D03*
X102033000Y-94842501D03*
X123190000Y-103632000D03*
X37263000Y-117702501D03*
X79883000Y-119126000D03*
X137033000Y-100584000D03*
X159183000Y-110082501D03*
D33*
X99568000Y-84582000D03*
D34*
X86793000Y-98652501D03*
X127635000Y-114427000D03*
X75363000Y-106272501D03*
X103378000Y-84709000D03*
X94742000Y-103181686D03*
D35*
X46228000Y-119502800D03*
D34*
X37263000Y-125322501D03*
X151563000Y-98652501D03*
X82983000Y-83412501D03*
X132204000Y-111074000D03*
X132207000Y-119888000D03*
X90603000Y-91032501D03*
X71553000Y-129132501D03*
X90603000Y-94842501D03*
X143943000Y-129132501D03*
X48693000Y-125322501D03*
X159183000Y-125322501D03*
X155373000Y-106272501D03*
X143943000Y-117702501D03*
X84836000Y-102870000D03*
X144526000Y-114046000D03*
X107315000Y-92583000D03*
X112776000Y-84645500D03*
X83058000Y-87122000D03*
X117856000Y-85217000D03*
X113463000Y-91032501D03*
X151563000Y-117702501D03*
D35*
X125526800Y-100173000D03*
X93573600Y-119047501D03*
D34*
X94413000Y-129132501D03*
X37263000Y-110082501D03*
X121083000Y-94842501D03*
D33*
X94488000Y-84582000D03*
D34*
X159183000Y-98652501D03*
X136906000Y-96469000D03*
X105843000Y-129132501D03*
X71553000Y-87222501D03*
X128703000Y-83412501D03*
X82983000Y-121512501D03*
X75363000Y-102462501D03*
X138684000Y-100584000D03*
X159183000Y-117702501D03*
X41073000Y-129132501D03*
X109728000Y-104140000D03*
X82983000Y-98652501D03*
X140133000Y-129132501D03*
X153289000Y-83820000D03*
X99314000Y-97028000D03*
X79756000Y-123825000D03*
X96520000Y-101600000D03*
X71553000Y-102462501D03*
X113463000Y-129132501D03*
X37263000Y-121512501D03*
X159183000Y-113892501D03*
X48693000Y-129132501D03*
X112141000Y-108331000D03*
X121083000Y-91032501D03*
X75363000Y-94842501D03*
X159183000Y-121512501D03*
X132513000Y-83412501D03*
X143943000Y-125322501D03*
X86614000Y-114935000D03*
X117273000Y-91032501D03*
X118618000Y-123825000D03*
X124893000Y-91032501D03*
X102033000Y-91032501D03*
X67743000Y-129132501D03*
X124893000Y-129132501D03*
X56313000Y-125322501D03*
X37263000Y-113892501D03*
X118745000Y-119132500D03*
X68834000Y-108718500D03*
X86793000Y-121512501D03*
X79121000Y-91668600D03*
D35*
X100584000Y-93726000D03*
D34*
X125209000Y-120422000D03*
X159183000Y-102462501D03*
X82983000Y-125322501D03*
X137820400Y-101371200D03*
X151563000Y-129132501D03*
X109653000Y-129132501D03*
X147753000Y-125322501D03*
X60123000Y-110082501D03*
X88011000Y-104902000D03*
X37263000Y-129132501D03*
D35*
X107442000Y-107950000D03*
D34*
X71553000Y-121512501D03*
X124893000Y-102462501D03*
X90424000Y-88392000D03*
X75363000Y-98652501D03*
X93726000Y-96012000D03*
X105843000Y-125322501D03*
D35*
X97028000Y-94738500D03*
D34*
X91694000Y-98806000D03*
X71553000Y-106272501D03*
X147753000Y-98652501D03*
X131826000Y-96393000D03*
X82983000Y-102462501D03*
D35*
X107442000Y-104902000D03*
D34*
X113463000Y-102462501D03*
X105843000Y-102462501D03*
X60123000Y-125322501D03*
X63933000Y-121512501D03*
X113463000Y-87222501D03*
X67818000Y-114554000D03*
X140335000Y-113284000D03*
X107569000Y-84582000D03*
X71553000Y-94842501D03*
X117273000Y-87222501D03*
X137033000Y-102235000D03*
X75363000Y-129132501D03*
X100330000Y-104394000D03*
D35*
X100584000Y-90678000D03*
D34*
X155373000Y-129132501D03*
X44883000Y-125322501D03*
X112395000Y-112175000D03*
X57150000Y-108966000D03*
X102033000Y-129132501D03*
X71553000Y-91032501D03*
D35*
X147828000Y-119456800D03*
D34*
X112268000Y-94488000D03*
X94413000Y-91032501D03*
X67743000Y-125322501D03*
X84709000Y-88396607D03*
X138684000Y-102235000D03*
%TO.N,+1V1*%
X132588000Y-99187000D03*
X143256000Y-100406000D03*
X135509000Y-102819000D03*
%TO.N,+3V3_L*%
X107289600Y-99441000D03*
X93980000Y-97536000D03*
X97028000Y-105156000D03*
X91694000Y-102362000D03*
D35*
%TO.N,/U0'+*%
X107442000Y-106934000D03*
%TO.N,/U0'-*%
X107442000Y-105918000D03*
D34*
%TO.N,L2_R*%
X139446000Y-114046000D03*
X110617000Y-118491000D03*
%TO.N,L2_G*%
X110617000Y-120015000D03*
X138811000Y-113284000D03*
%TO.N,L2_B*%
X106754500Y-121539000D03*
X138303000Y-112395000D03*
%TO.N,L3_R*%
X76962000Y-115316000D03*
X91948000Y-114046000D03*
X61468000Y-117729000D03*
X136271000Y-111252000D03*
%TO.N,L3_G*%
X75946000Y-114300000D03*
X90932000Y-113030000D03*
X62484000Y-116713000D03*
X135509000Y-110617000D03*
%TO.N,L3_B*%
X74930000Y-113284000D03*
X63500000Y-115697000D03*
X134747000Y-109982000D03*
X89916000Y-112014000D03*
D35*
%TO.N,OC1*%
X100330000Y-109982000D03*
X139954000Y-114808000D03*
D34*
X114808000Y-125476000D03*
%TO.N,OC2*%
X83947000Y-110871000D03*
D35*
X105791000Y-115062000D03*
D34*
X79756000Y-125603000D03*
D35*
X137795000Y-111125000D03*
X93472000Y-110473500D03*
%TO.N,OC3*%
X106553000Y-114681000D03*
X137160000Y-110617000D03*
X90424000Y-108077000D03*
D34*
X75946000Y-125603000D03*
D35*
%TO.N,BOOTSEL*%
X140208000Y-103708000D03*
D34*
X142367000Y-88646000D03*
D35*
X133391500Y-104775000D03*
D34*
X127889000Y-107823000D03*
%TO.N,QSPI1*%
X129286000Y-107823000D03*
D35*
X132842000Y-107188000D03*
%TO.N,PWR_EN0*%
X104140000Y-106680000D03*
%TO.N,PWR_EN1*%
X100838000Y-109169200D03*
D34*
%TO.N,PWR_EN2*%
X77216000Y-120396000D03*
D35*
X91186000Y-110490000D03*
D34*
X84328000Y-109855000D03*
%TO.N,PWR_ON*%
X111302800Y-100584000D03*
D35*
%TO.N,/UD'+*%
X100584000Y-91694000D03*
%TO.N,/UD'-*%
X100584000Y-92710000D03*
D34*
%TO.N,PWR_EN3*%
X75946000Y-120396000D03*
D35*
%TO.N,OC0*%
X103505000Y-107442000D03*
D34*
%TO.N,+3V3_PI*%
X127381000Y-103962000D03*
X66167000Y-118745000D03*
X138811000Y-106121200D03*
X136652000Y-121920000D03*
X134366000Y-93980000D03*
X133350000Y-101168000D03*
X144145000Y-100787000D03*
X134650000Y-104808700D03*
X138820400Y-96901000D03*
X139319000Y-89916000D03*
X130175000Y-96088000D03*
X133858000Y-97536000D03*
%TO.N,/OSC_USB1*%
X89154000Y-100330000D03*
%TO.N,/CC1*%
X103378000Y-88646000D03*
%TO.N,/OSC_USB2'*%
X90170000Y-102362000D03*
%TD*%
D36*
%TO.N,VUSB*%
X110998000Y-96520000D02*
X115189000Y-100711000D01*
X99153000Y-86072000D02*
X98679000Y-85598000D01*
X98679000Y-85598000D02*
X95377000Y-85598000D01*
X115189000Y-100711000D02*
X115189000Y-108077000D01*
X94903000Y-86072000D02*
X94903000Y-86738000D01*
X95377000Y-85598000D02*
X94903000Y-86072000D01*
X99153000Y-86738000D02*
X99153000Y-86072000D01*
D37*
%TO.N,Earth*%
X86614000Y-114935000D02*
X86868000Y-114935000D01*
X100050000Y-97891000D02*
X99314000Y-97155000D01*
X86868000Y-114935000D02*
X87008000Y-114795000D01*
X140820500Y-112798500D02*
X140820500Y-112299001D01*
X145644500Y-112299001D02*
X145644500Y-112927500D01*
X103281000Y-98491000D02*
X102301000Y-98491000D01*
X101701000Y-97891000D02*
X100838000Y-97891000D01*
X56197000Y-115523000D02*
X56197000Y-114609500D01*
X95490043Y-100570043D02*
X96520000Y-101600000D01*
X88392000Y-121396501D02*
X88762501Y-121396501D01*
D36*
X112395000Y-112175000D02*
X113437000Y-112175000D01*
D37*
X88392000Y-116698501D02*
X89691499Y-116698501D01*
X100330000Y-104394000D02*
X100364427Y-104394000D01*
D38*
X56515000Y-108966000D02*
X57150000Y-108966000D01*
D37*
X88762501Y-121396501D02*
X90628000Y-123262000D01*
X99314000Y-97155000D02*
X99314000Y-97028000D01*
X93792986Y-102232672D02*
X94742000Y-103181686D01*
X68834000Y-108718500D02*
X68834000Y-109721500D01*
X87008000Y-114795000D02*
X87008000Y-113851000D01*
X89691499Y-116698501D02*
X90628000Y-115762000D01*
X67818000Y-114554000D02*
X68800000Y-114554000D01*
D36*
X89128000Y-104902000D02*
X88011000Y-104902000D01*
D37*
X82550000Y-114935000D02*
X82410000Y-114795000D01*
D38*
X46228000Y-119011000D02*
X46228000Y-119502800D01*
X56197000Y-109284000D02*
X56515000Y-108966000D01*
D37*
X99314000Y-96025000D02*
X99327000Y-96012000D01*
X100364427Y-104394000D02*
X101394384Y-103364043D01*
D38*
X147828000Y-118965000D02*
X147828000Y-119456800D01*
X56197000Y-109872000D02*
X56197000Y-109284000D01*
D36*
X93792986Y-102232672D02*
X93227301Y-102798357D01*
D37*
X144780000Y-113792000D02*
X144526000Y-114046000D01*
D38*
X93081800Y-119047501D02*
X93573600Y-119047501D01*
D37*
X95490043Y-100535616D02*
X95490043Y-100570043D01*
X102301000Y-98491000D02*
X101701000Y-97891000D01*
X100828699Y-102798357D02*
X101960070Y-103929728D01*
X82804000Y-114935000D02*
X82550000Y-114935000D01*
X100838000Y-97891000D02*
X100050000Y-97891000D01*
X99314000Y-97028000D02*
X99314000Y-96025000D01*
X93726000Y-96012000D02*
X94729000Y-96012000D01*
D36*
X137033000Y-103835000D02*
X137033000Y-105359000D01*
D37*
X112141000Y-108331000D02*
X112996000Y-107476000D01*
X112996000Y-107476000D02*
X113538000Y-107476000D01*
X140335000Y-113284000D02*
X140820500Y-112798500D01*
X145644500Y-112927500D02*
X144780000Y-113792000D01*
D39*
X97028000Y-94738500D02*
X97028000Y-94237500D01*
D37*
X82410000Y-114795000D02*
X82410000Y-113851000D01*
%TO.N,+1V1*%
X142875000Y-100025000D02*
X143256000Y-100406000D01*
X141859000Y-100025000D02*
X142875000Y-100025000D01*
D36*
X132588000Y-99771000D02*
X132969000Y-100152000D01*
X132588000Y-99771000D02*
X132588000Y-99187000D01*
X132969000Y-100152000D02*
X133845000Y-100152000D01*
D37*
X135483000Y-102845000D02*
X135509000Y-102819000D01*
X135483000Y-103835000D02*
X135483000Y-102845000D01*
D36*
%TO.N,+3V3_L*%
X91694000Y-102396427D02*
X92661616Y-103364043D01*
X91694000Y-102362000D02*
X91694000Y-102396427D01*
X105156000Y-99441000D02*
X107289600Y-99441000D01*
X90678000Y-104902000D02*
X91123659Y-104902000D01*
X97028000Y-105156000D02*
X94453573Y-105156000D01*
X97028000Y-103204944D02*
X99131643Y-101101301D01*
X92095930Y-103929728D02*
X92095931Y-103929728D01*
X105156000Y-99441000D02*
X100838000Y-99441000D01*
X94453573Y-105156000D02*
X92661616Y-103364043D01*
X91123659Y-104902000D02*
X92661616Y-103364043D01*
D37*
X94870000Y-97536000D02*
X93980000Y-97536000D01*
D36*
X100791944Y-99441000D02*
X99131643Y-101101301D01*
X97028000Y-105156000D02*
X97028000Y-103204944D01*
X92095931Y-103929728D02*
X92661616Y-103364043D01*
D40*
%TO.N,UD-*%
X97453000Y-86738000D02*
X97453000Y-86988000D01*
X96603000Y-87838000D02*
X96603000Y-88088000D01*
X97453000Y-86988000D02*
X96603000Y-87838000D01*
%TO.N,U2-*%
X94093100Y-118840501D02*
X94093100Y-118832317D01*
X93358416Y-118528001D02*
X93258415Y-118628002D01*
X98028000Y-121542000D02*
X97235000Y-120749000D01*
X87006000Y-118540501D02*
X87006000Y-118540001D01*
X85478245Y-118840501D02*
X84916000Y-118278256D01*
X97235000Y-120749000D02*
X97235000Y-119469757D01*
X88959000Y-118840501D02*
X91400502Y-118840501D01*
X92587301Y-118628002D02*
X92517801Y-118697502D01*
X86406000Y-118540001D02*
X86406000Y-118540501D01*
X88317000Y-118348501D02*
X87825000Y-118840501D01*
X93258415Y-118628002D02*
X92587301Y-118628002D01*
X88467000Y-118348501D02*
X88959000Y-118840501D01*
X97235000Y-119469757D02*
X96605744Y-118840501D01*
X91400502Y-118840501D02*
X91543501Y-118697502D01*
X91543501Y-118697502D02*
X91881000Y-118697502D01*
X96605744Y-118840501D02*
X94093100Y-118840501D01*
X87825000Y-118840501D02*
X87306000Y-118840501D01*
X86106000Y-118840501D02*
X85478245Y-118840501D01*
X92517801Y-118697502D02*
X91931800Y-118697502D01*
X94093100Y-118832317D02*
X93788784Y-118528001D01*
X93788784Y-118528001D02*
X93358416Y-118528001D01*
X84916000Y-117585000D02*
X85471000Y-117030000D01*
X84916000Y-118278256D02*
X84916000Y-117585000D01*
X87005999Y-118540501D02*
G75*
G03*
X87306000Y-118840501I300001J1D01*
G01*
X86106000Y-118840500D02*
G75*
G03*
X86406000Y-118540501I0J300000D01*
G01*
X87005999Y-118540001D02*
G75*
G03*
X86706000Y-118240001I-299999J1D01*
G01*
X86706000Y-118240000D02*
G75*
G03*
X86406000Y-118540001I0J-300000D01*
G01*
%TO.N,U2+*%
X94093100Y-119254501D02*
X94996000Y-119254501D01*
X93358416Y-119567001D02*
X93788784Y-119567001D01*
X91931800Y-119397500D02*
X92517801Y-119397500D01*
X96196000Y-119254501D02*
X96434256Y-119254501D01*
X92587301Y-119467000D02*
X93258415Y-119467000D01*
X94093100Y-119262685D02*
X94093100Y-119254501D01*
X93788784Y-119567001D02*
X94093100Y-119262685D01*
X84502000Y-118449744D02*
X84502000Y-117585000D01*
X88317000Y-119746501D02*
X87825000Y-119254501D01*
X87825000Y-119254501D02*
X85306757Y-119254501D01*
X93258415Y-119467000D02*
X93358416Y-119567001D01*
X91400502Y-119254501D02*
X91543501Y-119397500D01*
X96434256Y-119254501D02*
X96821000Y-119641245D01*
X91543501Y-119397500D02*
X91881000Y-119397500D01*
X95296000Y-119554501D02*
X95296000Y-119555001D01*
X96821000Y-119641245D02*
X96821000Y-120749000D01*
X85306757Y-119254501D02*
X84502000Y-118449744D01*
X84502000Y-117585000D02*
X83947000Y-117030000D01*
X96821000Y-120749000D02*
X96028000Y-121542000D01*
X92517801Y-119397500D02*
X92587301Y-119467000D01*
X95896000Y-119555001D02*
X95896000Y-119554501D01*
X88467000Y-119746501D02*
X88959000Y-119254501D01*
X88959000Y-119254501D02*
X91400502Y-119254501D01*
X96196000Y-119254500D02*
G75*
G03*
X95896000Y-119554501I0J-300000D01*
G01*
X95596000Y-119855000D02*
G75*
G03*
X95896000Y-119555001I0J300000D01*
G01*
X95295999Y-119555001D02*
G75*
G03*
X95596000Y-119855001I300001J1D01*
G01*
X95295999Y-119554501D02*
G75*
G03*
X94996000Y-119254501I-299999J1D01*
G01*
%TO.N,U3-*%
X62358000Y-112983000D02*
X61645499Y-112983000D01*
X46747500Y-119287616D02*
X46747500Y-119717984D01*
X61090499Y-112428000D02*
X57401501Y-112428000D01*
X46577999Y-118447001D02*
X46647499Y-118516501D01*
X61645499Y-112983000D02*
X61090499Y-112428000D01*
X50499000Y-115577245D02*
X49615744Y-116460501D01*
X54992499Y-112428000D02*
X51186744Y-112428000D01*
X46435000Y-120749000D02*
X47228000Y-121542000D01*
X46647499Y-119187615D02*
X46747500Y-119287616D01*
X51186744Y-112428000D02*
X50499000Y-113115744D01*
X46435000Y-117101245D02*
X46435000Y-117380502D01*
X50499000Y-114315744D02*
X50499000Y-115577245D01*
X46747500Y-119717984D02*
X46443184Y-120022300D01*
X46435000Y-117380502D02*
X46577999Y-117523501D01*
X46435000Y-120022300D02*
X46435000Y-120749000D01*
X46443184Y-120022300D02*
X46435000Y-120022300D01*
X49615744Y-116460501D02*
X47075744Y-116460501D01*
X57401501Y-112428000D02*
X56909501Y-112920000D01*
X47075744Y-116460501D02*
X46435000Y-117101245D01*
X50799558Y-114015744D02*
X50799000Y-114015744D01*
X55484499Y-112920000D02*
X54992499Y-112428000D01*
X56197000Y-112920000D02*
X55484499Y-112920000D01*
X56909501Y-112920000D02*
X56197000Y-112920000D01*
X50799000Y-113415744D02*
X50799558Y-113415744D01*
X46577999Y-117861000D02*
X46577999Y-118447001D01*
X46647499Y-118516501D02*
X46647499Y-119187615D01*
X46577999Y-117523501D02*
X46577999Y-117861000D01*
X50498956Y-113115744D02*
G75*
G03*
X50799000Y-113415744I300044J44D01*
G01*
X51099556Y-113715744D02*
G75*
G03*
X50799558Y-113415744I-299956J44D01*
G01*
X50799558Y-114015658D02*
G75*
G03*
X51099558Y-113715744I42J299958D01*
G01*
X50799000Y-114015700D02*
G75*
G03*
X50499000Y-114315744I0J-300000D01*
G01*
%TO.N,U3+*%
X45878001Y-118447001D02*
X45808501Y-118516501D01*
X46021000Y-117380502D02*
X46021000Y-116929757D01*
X46904256Y-116046501D02*
X49444256Y-116046501D01*
X56909501Y-111522000D02*
X56197000Y-111522000D01*
X61645499Y-111459000D02*
X61090499Y-112014000D01*
X45878001Y-117861000D02*
X45878001Y-118447001D01*
X45878001Y-117861000D02*
X45878001Y-117523501D01*
X61090499Y-112014000D02*
X57401501Y-112014000D01*
X45808501Y-119187615D02*
X45708500Y-119287616D01*
X46021000Y-120749000D02*
X45228000Y-121542000D01*
X54992499Y-112014000D02*
X51015256Y-112014000D01*
X49444256Y-116046501D02*
X50085000Y-115405757D01*
X45878001Y-117523501D02*
X46021000Y-117380502D01*
X46021000Y-120022300D02*
X46021000Y-120749000D01*
X62358000Y-111459000D02*
X61645499Y-111459000D01*
X46012816Y-120022300D02*
X46021000Y-120022300D01*
X50085000Y-115405757D02*
X50085000Y-112944256D01*
X57401501Y-112014000D02*
X56909501Y-111522000D01*
X45808501Y-118516501D02*
X45808501Y-119187615D01*
X45708500Y-119717984D02*
X46012816Y-120022300D01*
X55484499Y-111522000D02*
X54992499Y-112014000D01*
X50085000Y-112944256D02*
X51015256Y-112014000D01*
X46021000Y-116929757D02*
X46904256Y-116046501D01*
X45708500Y-119287616D02*
X45708500Y-119717984D01*
X56197000Y-111522000D02*
X55484499Y-111522000D01*
%TO.N,/U0'+*%
X104225744Y-109173000D02*
X105363000Y-108035744D01*
X101892314Y-108927684D02*
X101892314Y-108927687D01*
X105363000Y-107273744D02*
X106003743Y-106633001D01*
X102137627Y-109173000D02*
X104225744Y-109173000D01*
X105363000Y-108035744D02*
X105363000Y-107273744D01*
X100958097Y-108266411D02*
X101231041Y-108266411D01*
X106003743Y-106633001D02*
X107141001Y-106633001D01*
X101892314Y-108927687D02*
X102137627Y-109173000D01*
X100263014Y-107571328D02*
X100958097Y-108266411D01*
X107141001Y-106633001D02*
X107442000Y-106934000D01*
X101231041Y-108266411D02*
X101892314Y-108927684D01*
%TO.N,/U0'-*%
X101523782Y-107973670D02*
X102185055Y-108634943D01*
X101523782Y-107700726D02*
X101523782Y-107973670D01*
X102185055Y-108634943D02*
X102185058Y-108634943D01*
X105982411Y-106068845D02*
X105982411Y-106068844D01*
X106732565Y-106218999D02*
X107032257Y-106218999D01*
X107141001Y-106218999D02*
X107442000Y-105918000D01*
X106582411Y-106068844D02*
X106582411Y-106068845D01*
X104054256Y-108759000D02*
X104949000Y-107864256D01*
X106132565Y-105918690D02*
X106432257Y-105918690D01*
X104949000Y-107102256D02*
X105832257Y-106218999D01*
X102309115Y-108759000D02*
X104054256Y-108759000D01*
X102185058Y-108634943D02*
X102309115Y-108759000D01*
X104949000Y-107864256D02*
X104949000Y-107102256D01*
X107032257Y-106218999D02*
X107141001Y-106218999D01*
X100828699Y-107005643D02*
X101523782Y-107700726D01*
X105832257Y-106218911D02*
G75*
G03*
X105982411Y-106068845I43J150111D01*
G01*
X106582410Y-106068844D02*
G75*
G03*
X106432257Y-105918690I-150110J44D01*
G01*
X106582401Y-106068845D02*
G75*
G03*
X106732565Y-106218999I150199J45D01*
G01*
X106132565Y-105918611D02*
G75*
G03*
X105982411Y-106068844I35J-150189D01*
G01*
D38*
%TO.N,L2_R*%
X110617000Y-118491000D02*
X124079000Y-118491000D01*
X134366000Y-119126000D02*
X139446000Y-114046000D01*
X124079000Y-118491000D02*
X124714000Y-119126000D01*
X124714000Y-119126000D02*
X134366000Y-119126000D01*
%TO.N,L2_G*%
X138811000Y-113284000D02*
X133750000Y-118345000D01*
X109677200Y-119075200D02*
X110617000Y-120015000D01*
X125203000Y-118345000D02*
X124460000Y-117602000D01*
X109677200Y-118097300D02*
X109677200Y-119075200D01*
X110172500Y-117602000D02*
X109677200Y-118097300D01*
X124460000Y-117602000D02*
X110172500Y-117602000D01*
X133750000Y-118345000D02*
X125203000Y-118345000D01*
%TO.N,L2_B*%
X133223000Y-117602000D02*
X138430000Y-112395000D01*
X106754500Y-121539000D02*
X108839000Y-119454500D01*
X108839000Y-117602000D02*
X109601000Y-116840000D01*
X124968000Y-116840000D02*
X125730000Y-117602000D01*
X108839000Y-119454500D02*
X108839000Y-117602000D01*
X109601000Y-116840000D02*
X124968000Y-116840000D01*
X125730000Y-117602000D02*
X133223000Y-117602000D01*
%TO.N,L3_R*%
X136271000Y-111252000D02*
X132207000Y-115316000D01*
X93218000Y-114046000D02*
X91948000Y-114046000D01*
X93472000Y-113792000D02*
X93218000Y-114046000D01*
X74549000Y-117729000D02*
X76962000Y-115316000D01*
X126238000Y-114554000D02*
X110490000Y-114554000D01*
X127000000Y-115316000D02*
X126238000Y-114554000D01*
X110490000Y-114554000D02*
X109728000Y-113792000D01*
X132207000Y-115316000D02*
X127000000Y-115316000D01*
X109728000Y-113792000D02*
X93472000Y-113792000D01*
X61468000Y-117729000D02*
X74549000Y-117729000D01*
%TO.N,L3_G*%
X111125000Y-113792000D02*
X132334000Y-113792000D01*
X90932000Y-113030000D02*
X110363000Y-113030000D01*
X73533000Y-116713000D02*
X75946000Y-114300000D01*
X62484000Y-116713000D02*
X73533000Y-116713000D01*
X132334000Y-113792000D02*
X135509000Y-110617000D01*
X110363000Y-113030000D02*
X111125000Y-113792000D01*
%TO.N,L3_B*%
X131699000Y-113030000D02*
X134747000Y-109982000D01*
X111379000Y-113030000D02*
X131699000Y-113030000D01*
X95123000Y-112014000D02*
X95310000Y-112201000D01*
X110550000Y-112201000D02*
X111379000Y-113030000D01*
X72517000Y-115697000D02*
X74930000Y-113284000D01*
X89916000Y-112014000D02*
X95123000Y-112014000D01*
X95310000Y-112201000D02*
X110550000Y-112201000D01*
X63500000Y-115697000D02*
X72517000Y-115697000D01*
D39*
%TO.N,OC1*%
X100330000Y-109982000D02*
X100330000Y-109901056D01*
X118999000Y-125476000D02*
X114808000Y-125476000D01*
X123063000Y-121412000D02*
X118999000Y-125476000D01*
X100330000Y-109901056D02*
X99131643Y-108702699D01*
X133350000Y-121412000D02*
X123063000Y-121412000D01*
X139954000Y-114808000D02*
X133350000Y-121412000D01*
%TO.N,OC2*%
X80760000Y-124599000D02*
X79756000Y-125603000D01*
X137795000Y-111125000D02*
X137795000Y-111760000D01*
X80760000Y-114058000D02*
X80760000Y-124599000D01*
X94284927Y-110473500D02*
X95490043Y-109268384D01*
X106807000Y-116078000D02*
X105791000Y-115062000D01*
X83947000Y-110871000D02*
X80760000Y-114058000D01*
X132715000Y-116840000D02*
X126047500Y-116840000D01*
X126047500Y-116840000D02*
X125285500Y-116078000D01*
X125285500Y-116078000D02*
X106807000Y-116078000D01*
X93472000Y-110473500D02*
X94284927Y-110473500D01*
X137795000Y-111760000D02*
X132715000Y-116840000D01*
%TO.N,OC3*%
X78232000Y-116586000D02*
X78232000Y-113284000D01*
X75946000Y-125603000D02*
X75946000Y-124980000D01*
X92155944Y-108077000D02*
X93227301Y-107005643D01*
X90424000Y-108077000D02*
X92155944Y-108077000D01*
X83439000Y-108077000D02*
X90424000Y-108077000D01*
X132588000Y-116078000D02*
X126492000Y-116078000D01*
X78232000Y-113284000D02*
X83439000Y-108077000D01*
X125730000Y-115316000D02*
X107188000Y-115316000D01*
X126492000Y-116078000D02*
X125730000Y-115316000D01*
X74676000Y-123710000D02*
X74676000Y-120142000D01*
X74676000Y-120142000D02*
X78232000Y-116586000D01*
X137160000Y-111506000D02*
X132588000Y-116078000D01*
X75946000Y-124980000D02*
X74676000Y-123710000D01*
X137160000Y-110617000D02*
X137160000Y-111506000D01*
X107188000Y-115316000D02*
X106553000Y-114681000D01*
D40*
%TO.N,U1+*%
X147478001Y-117815000D02*
X147478001Y-117477501D01*
X143025500Y-113566502D02*
X143025500Y-114896244D01*
X126235501Y-109173000D02*
X125680501Y-109728000D01*
X147408501Y-119141615D02*
X147308500Y-119241616D01*
X125680501Y-109728000D02*
X124968000Y-109728000D01*
X147234256Y-116565000D02*
X144694256Y-116565000D01*
X144694256Y-116565000D02*
X143025500Y-114896244D01*
X143025500Y-111031500D02*
X143025500Y-110044244D01*
X142470500Y-111586500D02*
X143025500Y-111031500D01*
X147621000Y-116951744D02*
X147234256Y-116565000D01*
X147408501Y-118470501D02*
X147408501Y-119141615D01*
X139211200Y-109173000D02*
X138864166Y-109173000D01*
X142154256Y-109173000D02*
X140411200Y-109173000D01*
X147621000Y-119976300D02*
X147621000Y-120703000D01*
X142470500Y-112299001D02*
X142470500Y-111586500D01*
X139511200Y-109473500D02*
X139511200Y-109473000D01*
X147478001Y-118401001D02*
X147408501Y-118470501D01*
X147612816Y-119976300D02*
X147621000Y-119976300D01*
X147308500Y-119241616D02*
X147308500Y-119671984D01*
X140111200Y-109473000D02*
X140111200Y-109473500D01*
X138864166Y-109173000D02*
X126235501Y-109173000D01*
X142470500Y-112299001D02*
X142470500Y-113011502D01*
X147478001Y-117815000D02*
X147478001Y-118401001D01*
X147308500Y-119671984D02*
X147612816Y-119976300D01*
X147478001Y-117477501D02*
X147621000Y-117334502D01*
X143025500Y-110044244D02*
X142154256Y-109173000D01*
X142470500Y-113011502D02*
X143025500Y-113566502D01*
X147621000Y-120703000D02*
X146828000Y-121496000D01*
X147621000Y-117334502D02*
X147621000Y-116951744D01*
X140411200Y-109173000D02*
G75*
G03*
X140111200Y-109473000I0J-300000D01*
G01*
X139511200Y-109473500D02*
G75*
G03*
X139811200Y-109773500I300000J0D01*
G01*
X139511200Y-109473000D02*
G75*
G03*
X139211200Y-109173000I-300000J0D01*
G01*
X139811200Y-109773500D02*
G75*
G03*
X140111200Y-109473500I0J300000D01*
G01*
%TO.N,U1-*%
X148247499Y-119141615D02*
X148347500Y-119241616D01*
X143994500Y-113011502D02*
X143439500Y-113566502D01*
X143994500Y-111586500D02*
X143994500Y-112299001D01*
X143439500Y-113566502D02*
X143439500Y-114724756D01*
X147405744Y-116151000D02*
X144865744Y-116151000D01*
X148347500Y-119671984D02*
X148043184Y-119976300D01*
X143439500Y-109872756D02*
X143439500Y-111031500D01*
X126235501Y-108759000D02*
X142325744Y-108759000D01*
X148035000Y-116780256D02*
X147405744Y-116151000D01*
X125680501Y-108204000D02*
X126235501Y-108759000D01*
X143439500Y-111031500D02*
X143994500Y-111586500D01*
X144865744Y-116151000D02*
X143439500Y-114724756D01*
X148035000Y-117334502D02*
X148035000Y-116780256D01*
X148035000Y-120703000D02*
X148828000Y-121496000D01*
X148347500Y-119241616D02*
X148347500Y-119671984D01*
X148043184Y-119976300D02*
X148035000Y-119976300D01*
X148177999Y-117815000D02*
X148177999Y-118401001D01*
X124968000Y-108204000D02*
X125680501Y-108204000D01*
X148177999Y-117815000D02*
X148177999Y-117477501D01*
X148035000Y-119976300D02*
X148035000Y-120703000D01*
X143994500Y-112299001D02*
X143994500Y-113011502D01*
X142325744Y-108759000D02*
X143439500Y-109872756D01*
X148247499Y-118470501D02*
X148247499Y-119141615D01*
X148177999Y-118401001D02*
X148247499Y-118470501D01*
X148177999Y-117477501D02*
X148035000Y-117334502D01*
D39*
%TO.N,BOOTSEL*%
X142367000Y-90678000D02*
X146050000Y-94361000D01*
X142367000Y-88646000D02*
X142367000Y-90678000D01*
X129159000Y-106553000D02*
X127889000Y-107823000D01*
X131613500Y-106553000D02*
X129159000Y-106553000D01*
X145288000Y-103708000D02*
X140208000Y-103708000D01*
X133391500Y-104775000D02*
X131613500Y-106553000D01*
X146050000Y-94361000D02*
X146050000Y-102946000D01*
X146050000Y-102946000D02*
X145288000Y-103708000D01*
%TO.N,QSPI1*%
X132207000Y-107823000D02*
X129286000Y-107823000D01*
X132842000Y-107188000D02*
X132207000Y-107823000D01*
%TO.N,PWR_EN0*%
X103334272Y-105874272D02*
X101960070Y-105874272D01*
X104140000Y-106680000D02*
X103334272Y-105874272D01*
%TO.N,PWR_EN1*%
X100729514Y-109169200D02*
X99697328Y-108137014D01*
X100838000Y-109169200D02*
X100729514Y-109169200D01*
%TO.N,PWR_EN2*%
X80010000Y-117614000D02*
X77228000Y-120396000D01*
X84328000Y-109855000D02*
X83693000Y-109855000D01*
X83693000Y-109855000D02*
X80010000Y-113538000D01*
D38*
X91186000Y-110490000D02*
X91948000Y-111252000D01*
D39*
X80010000Y-113538000D02*
X80010000Y-117614000D01*
D38*
X91948000Y-111252000D02*
X94637798Y-111252000D01*
X94637798Y-111252000D02*
X96055728Y-109834070D01*
D37*
%TO.N,PWR_ON*%
X108595200Y-100391000D02*
X108788200Y-100584000D01*
X108788200Y-100584000D02*
X111302800Y-100584000D01*
X103281000Y-100391000D02*
X108595200Y-100391000D01*
X103281000Y-100391000D02*
X100973314Y-100391000D01*
X100973314Y-100391000D02*
X99697328Y-101666986D01*
D40*
%TO.N,/UD'+*%
X96821000Y-92100097D02*
X96821000Y-92607002D01*
X97434097Y-91487000D02*
X96821000Y-92100097D01*
X96279000Y-96037000D02*
X96821000Y-96579000D01*
X98287553Y-99955590D02*
X98273214Y-99969930D01*
X100584000Y-91694000D02*
X100283001Y-91994999D01*
X98820794Y-98251000D02*
X99136083Y-98566289D01*
X96821000Y-92607002D02*
X96678001Y-92750001D01*
X96508500Y-95069999D02*
X96508500Y-94523316D01*
X98891744Y-91487000D02*
X97434097Y-91487000D01*
X98499360Y-99531325D02*
X98499361Y-99531324D01*
X96678001Y-92750001D02*
X96678001Y-93087500D01*
X96821000Y-96579000D02*
X96821000Y-97444851D01*
X96279000Y-95299499D02*
X96508500Y-95069999D01*
X98273214Y-99969930D02*
X98000272Y-99969930D01*
X99399743Y-91994999D02*
X98891744Y-91487000D01*
X98499361Y-99743780D02*
X98287553Y-99955590D01*
X97627149Y-98251000D02*
X98820794Y-98251000D01*
X96821000Y-97444851D02*
X97627149Y-98251000D01*
X99136083Y-98566289D02*
X99136083Y-99107063D01*
X98711170Y-99107061D02*
X98499361Y-99318868D01*
X96608501Y-93494499D02*
X96678001Y-93424999D01*
X98923626Y-99107062D02*
X98923627Y-99107062D01*
X96678001Y-93424999D02*
X96678001Y-93087500D01*
X96608501Y-94423315D02*
X96608501Y-93494499D01*
X98923627Y-99107062D02*
X98923626Y-99107061D01*
X96279000Y-96012000D02*
X96279000Y-95299499D01*
X96508500Y-94523316D02*
X96608501Y-94423315D01*
X100283001Y-91994999D02*
X99399743Y-91994999D01*
X98923671Y-99107017D02*
G75*
G03*
X99136083Y-99107063I106229J106217D01*
G01*
X98923626Y-99107061D02*
G75*
G03*
X98711170Y-99107061I-106228J-106228D01*
G01*
X98499409Y-99743828D02*
G75*
G03*
X98499361Y-99531324I-106309J106228D01*
G01*
X98499364Y-99318871D02*
G75*
G03*
X98499360Y-99531325I106236J-106229D01*
G01*
%TO.N,/UD'-*%
X100584000Y-92710000D02*
X100283001Y-92409001D01*
X99287313Y-99541317D02*
X98565957Y-100262673D01*
X99287317Y-99541317D02*
X99287313Y-99541317D01*
X97235000Y-97273363D02*
X97798637Y-97837000D01*
X97777000Y-95299499D02*
X97547500Y-95069999D01*
X97605585Y-91901000D02*
X97235000Y-92271585D01*
X97235000Y-92607002D02*
X97377999Y-92750001D01*
X99550083Y-99278551D02*
X99287317Y-99541317D01*
X97377999Y-92750001D02*
X97377999Y-93087500D01*
X97235000Y-92271585D02*
X97235000Y-92607002D01*
X100283001Y-92409001D02*
X99228257Y-92409001D01*
X98720256Y-91901000D02*
X97605585Y-91901000D01*
X98992282Y-97837000D02*
X99550083Y-98394801D01*
X97777000Y-96012000D02*
X97777000Y-95299499D01*
X97777000Y-96037000D02*
X97235000Y-96579000D01*
X98565957Y-100262673D02*
X98565957Y-100535616D01*
X97235000Y-96579000D02*
X97235000Y-97273363D01*
X97447499Y-94423315D02*
X97447499Y-93494499D01*
X99228257Y-92409001D02*
X98720256Y-91901000D01*
X97798637Y-97837000D02*
X98992282Y-97837000D01*
X99550083Y-98394801D02*
X99550083Y-99278551D01*
X97447499Y-93494499D02*
X97377999Y-93424999D01*
X97547500Y-95069999D02*
X97547500Y-94523316D01*
X97547500Y-94523316D02*
X97447499Y-94423315D01*
X97377999Y-93424999D02*
X97377999Y-93087500D01*
%TO.N,/U1'+*%
X114792501Y-109982000D02*
X117640744Y-109982000D01*
X122050499Y-109173000D02*
X122605499Y-109728000D01*
X117640744Y-109982000D02*
X118449744Y-109173000D01*
X108242744Y-109982000D02*
X112283499Y-109982000D01*
X106765744Y-111459000D02*
X108242744Y-109982000D01*
X99898144Y-111459000D02*
X98273214Y-109834070D01*
X114250501Y-110524000D02*
X114792501Y-109982000D01*
X99898144Y-111459000D02*
X106765744Y-111459000D01*
X112825499Y-110524000D02*
X113538000Y-110524000D01*
X112283499Y-109982000D02*
X112825499Y-110524000D01*
X113538000Y-110524000D02*
X114250501Y-110524000D01*
X122605499Y-109728000D02*
X123318000Y-109728000D01*
X98273214Y-109834070D02*
X98000272Y-109834070D01*
X118449744Y-109173000D02*
X122050499Y-109173000D01*
%TO.N,/U1'-*%
X98565957Y-109541327D02*
X98565957Y-109268384D01*
X122605499Y-108204000D02*
X122050499Y-108759000D01*
X105363552Y-110744551D02*
X105064000Y-110744551D01*
X112825499Y-109026000D02*
X113538000Y-109026000D01*
X108071256Y-109568000D02*
X112283499Y-109568000D01*
X114792501Y-109568000D02*
X117469256Y-109568000D01*
X114250501Y-109026000D02*
X114792501Y-109568000D01*
X122050499Y-108759000D02*
X118278256Y-108759000D01*
X104913776Y-110894775D02*
X104913776Y-110894776D01*
X108071256Y-109568000D02*
X106594256Y-111045000D01*
X113538000Y-109026000D02*
X114250501Y-109026000D01*
X118278256Y-108759000D02*
X117469256Y-109568000D01*
X105513776Y-110894776D02*
X105513776Y-110894775D01*
X112283499Y-109568000D02*
X112825499Y-109026000D01*
X106594256Y-111045000D02*
X105664000Y-111045000D01*
X100069630Y-111045000D02*
X98565957Y-109541327D01*
X100069630Y-111045000D02*
X104763552Y-111045000D01*
X123318000Y-108204000D02*
X122605499Y-108204000D01*
X105513849Y-110894775D02*
G75*
G03*
X105363552Y-110744551I-150249J-25D01*
G01*
X105064000Y-110744576D02*
G75*
G03*
X104913776Y-110894775I0J-150224D01*
G01*
X104763552Y-111044976D02*
G75*
G03*
X104913776Y-110894776I48J150176D01*
G01*
X105513800Y-110894776D02*
G75*
G03*
X105664000Y-111045000I150200J-24D01*
G01*
%TO.N,/U2'+*%
X93374628Y-109394000D02*
X93663589Y-109105041D01*
X84502000Y-114418000D02*
X83960000Y-113876000D01*
X83960000Y-113826000D02*
X84502000Y-113284000D01*
X83947000Y-115305000D02*
X84502000Y-114750000D01*
X84502000Y-113284000D02*
X84502000Y-111801256D01*
X93663589Y-109105041D02*
X93663589Y-108832097D01*
X84502000Y-111801256D02*
X86909256Y-109394000D01*
X86909256Y-109394000D02*
X93374628Y-109394000D01*
X93663589Y-108832097D02*
X94358672Y-108137014D01*
X84502000Y-114750000D02*
X84502000Y-114418000D01*
%TO.N,/U2'-*%
X94229274Y-109397782D02*
X94924357Y-108702699D01*
X93956330Y-109397782D02*
X94229274Y-109397782D01*
X85458000Y-113826000D02*
X84916000Y-113284000D01*
X93676058Y-109678054D02*
X93956330Y-109397782D01*
X89835448Y-110108449D02*
X90135000Y-110108449D01*
X84916000Y-111972744D02*
X87080744Y-109808000D01*
X85471000Y-115305000D02*
X84916000Y-114750000D01*
X90435448Y-109808000D02*
X93546116Y-109808000D01*
X84916000Y-113284000D02*
X84916000Y-111972744D01*
X93676058Y-109678058D02*
X93676058Y-109678054D01*
X93546116Y-109808000D02*
X93676058Y-109678058D01*
X89685224Y-109958224D02*
X89685224Y-109958225D01*
X90285224Y-109958225D02*
X90285224Y-109958224D01*
X84916000Y-114750000D02*
X84916000Y-114418000D01*
X87080744Y-109808000D02*
X89535000Y-109808000D01*
X84916000Y-114418000D02*
X85458000Y-113876000D01*
X90435448Y-109808024D02*
G75*
G03*
X90285224Y-109958224I-48J-150176D01*
G01*
X89685151Y-109958225D02*
G75*
G03*
X89835448Y-110108449I150249J25D01*
G01*
X89685200Y-109958224D02*
G75*
G03*
X89535000Y-109808000I-150200J24D01*
G01*
X90135000Y-110108424D02*
G75*
G03*
X90285224Y-109958225I0J150224D01*
G01*
%TO.N,/U3'+*%
X81326448Y-106680551D02*
X81626000Y-106680551D01*
X68121499Y-111472000D02*
X67579499Y-112014000D01*
X65275501Y-112014000D02*
X64720501Y-111459000D01*
X81176224Y-106830776D02*
X81176224Y-106830775D01*
X67579499Y-112014000D02*
X65275501Y-112014000D01*
X68834000Y-111472000D02*
X69546501Y-111472000D01*
X92095930Y-105874272D02*
X92095930Y-106147214D01*
X69546501Y-111472000D02*
X70088501Y-112014000D01*
X74891256Y-112014000D02*
X79924256Y-106981000D01*
X81776224Y-106830775D02*
X81776224Y-106830776D01*
X70088501Y-112014000D02*
X74891256Y-112014000D01*
X68834000Y-111472000D02*
X68121499Y-111472000D01*
X92095930Y-106147214D02*
X91262144Y-106981000D01*
X81926448Y-106981000D02*
X91262144Y-106981000D01*
X64720501Y-111459000D02*
X64008000Y-111459000D01*
X79924256Y-106981000D02*
X81026000Y-106981000D01*
X81326448Y-106680624D02*
G75*
G03*
X81176224Y-106830775I-48J-150176D01*
G01*
X81776249Y-106830775D02*
G75*
G03*
X81626000Y-106680551I-150249J-25D01*
G01*
X81026000Y-106981024D02*
G75*
G03*
X81176224Y-106830776I0J150224D01*
G01*
X81776200Y-106830776D02*
G75*
G03*
X81926448Y-106981000I150200J-24D01*
G01*
%TO.N,/U3'-*%
X64720501Y-112983000D02*
X64008000Y-112983000D01*
X68121499Y-112970000D02*
X67579499Y-112428000D01*
X68834000Y-112970000D02*
X69546501Y-112970000D01*
X69546501Y-112970000D02*
X70088501Y-112428000D01*
X70088501Y-112428000D02*
X75062744Y-112428000D01*
X68834000Y-112970000D02*
X68121499Y-112970000D01*
X75062744Y-112428000D02*
X80095744Y-107395000D01*
X67579499Y-112428000D02*
X65275501Y-112428000D01*
X92388673Y-106439957D02*
X91433630Y-107395000D01*
X80095744Y-107395000D02*
X91433630Y-107395000D01*
X92661616Y-106439957D02*
X92388673Y-106439957D01*
X65275501Y-112428000D02*
X64720501Y-112983000D01*
D39*
%TO.N,PWR_EN3*%
X83820000Y-108712000D02*
X79121000Y-113411000D01*
X79121000Y-113411000D02*
X79121000Y-117233000D01*
X79121000Y-117233000D02*
X75958000Y-120396000D01*
X93792986Y-107571328D02*
X92652314Y-108712000D01*
X92652314Y-108712000D02*
X83820000Y-108712000D01*
%TO.N,OC0*%
X103505000Y-107442000D02*
X102396427Y-107442000D01*
X102396427Y-107442000D02*
X101394384Y-106439957D01*
D36*
%TO.N,+3V3_PI*%
X134650000Y-104808700D02*
X134650000Y-104805000D01*
X109601000Y-126873000D02*
X122555000Y-126873000D01*
X109601000Y-126873000D02*
X109855000Y-126873000D01*
X137414000Y-93980000D02*
X134366000Y-93980000D01*
X134650000Y-104805000D02*
X133350000Y-103505000D01*
X135200300Y-105359000D02*
X134650000Y-104808700D01*
X138633200Y-106299000D02*
X138811000Y-106121200D01*
X66167000Y-118745000D02*
X74295000Y-126873000D01*
X130175000Y-101168000D02*
X127381000Y-103962000D01*
X109855000Y-126873000D02*
X101854000Y-118872000D01*
X135763000Y-106299000D02*
X138633200Y-106299000D01*
X144145000Y-100787000D02*
X144145000Y-98425000D01*
X135483000Y-105359000D02*
X135200300Y-105359000D01*
X135483000Y-105359000D02*
X135483000Y-106019000D01*
X138820400Y-96901000D02*
X138820400Y-97767600D01*
X134366000Y-93980000D02*
X134366000Y-91948000D01*
X97653000Y-116449000D02*
X97653000Y-114882000D01*
X136398000Y-89916000D02*
X139319000Y-89916000D01*
X144145000Y-98425000D02*
X143497000Y-97777000D01*
X143497000Y-97777000D02*
X138811000Y-97777000D01*
X133845000Y-98628000D02*
X133845000Y-97549000D01*
X138811000Y-105105000D02*
X138811000Y-106121200D01*
X133350000Y-101168000D02*
X130175000Y-101168000D01*
X74295000Y-126873000D02*
X109601000Y-126873000D01*
X134366000Y-91948000D02*
X136398000Y-89916000D01*
X122555000Y-126873000D02*
X126492000Y-122936000D01*
X141859000Y-101549000D02*
X143383000Y-101549000D01*
X126492000Y-122936000D02*
X135636000Y-122936000D01*
X138820400Y-96901000D02*
X138820400Y-95386400D01*
X133350000Y-103505000D02*
X133350000Y-101168000D01*
X130175000Y-96088000D02*
X130175000Y-101168000D01*
X135483000Y-106019000D02*
X135763000Y-106299000D01*
X143383000Y-101549000D02*
X144145000Y-100787000D01*
X138820400Y-95386400D02*
X137414000Y-93980000D01*
X133845000Y-97549000D02*
X133858000Y-97536000D01*
X101854000Y-118872000D02*
X100076000Y-118872000D01*
X100076000Y-118872000D02*
X97653000Y-116449000D01*
X135636000Y-122936000D02*
X136652000Y-121920000D01*
D39*
%TO.N,/OSC_USB1*%
X94153056Y-100330000D02*
X94924357Y-101101301D01*
X89154000Y-100330000D02*
X94153056Y-100330000D01*
%TO.N,/CC1*%
X98679000Y-89281000D02*
X98303000Y-88905000D01*
X103378000Y-88646000D02*
X102743000Y-89281000D01*
X102743000Y-89281000D02*
X98679000Y-89281000D01*
X98303000Y-88905000D02*
X98303000Y-88088000D01*
%TO.N,/OSC_USB2'*%
X93783686Y-101092000D02*
X94358672Y-101666986D01*
X91440000Y-101092000D02*
X93783686Y-101092000D01*
X90170000Y-102362000D02*
X91440000Y-101092000D01*
%TD*%
%TA.AperFunction,Conductor*%
%TO.N,Earth*%
G36*
X137679176Y-98266885D02*
G01*
X137705013Y-98289041D01*
X138252200Y-98907600D01*
X139088511Y-98907600D01*
X139155550Y-98927285D01*
X139177772Y-98945527D01*
X139827000Y-99618800D01*
X140545503Y-99618800D01*
X140612542Y-99638485D01*
X140622964Y-99645972D01*
X140669461Y-99683169D01*
X140709514Y-99740419D01*
X140716000Y-99779997D01*
X140716000Y-101794402D01*
X140696315Y-101861441D01*
X140669463Y-101891229D01*
X140622966Y-101928427D01*
X140558320Y-101954936D01*
X140545503Y-101955600D01*
X140360399Y-101955600D01*
X139242800Y-103073199D01*
X139242800Y-103783837D01*
X139223115Y-103850876D01*
X139206482Y-103871517D01*
X139177518Y-103900481D01*
X139116198Y-103933966D01*
X139089838Y-103936800D01*
X137617199Y-103936800D01*
X137348719Y-104205281D01*
X137287396Y-104238766D01*
X137261038Y-104241600D01*
X136855762Y-104241600D01*
X136788723Y-104221915D01*
X136768081Y-104205281D01*
X136688319Y-104125519D01*
X136654834Y-104064196D01*
X136652000Y-104037838D01*
X136652000Y-102819200D01*
X136283059Y-102450259D01*
X136263353Y-102424578D01*
X136200859Y-102316334D01*
X136081231Y-102183475D01*
X135936590Y-102078386D01*
X135911793Y-102067346D01*
X135907693Y-102064528D01*
X135877209Y-102051901D01*
X135874228Y-102050621D01*
X135773264Y-102005669D01*
X135598393Y-101968500D01*
X135598391Y-101968500D01*
X135419609Y-101968500D01*
X135419607Y-101968500D01*
X135244734Y-102005669D01*
X135207194Y-102022384D01*
X135137944Y-102031668D01*
X135074667Y-102002039D01*
X135070620Y-101998301D01*
X135064261Y-101992160D01*
X135029712Y-101931430D01*
X135026400Y-101902963D01*
X135026400Y-98400161D01*
X135046085Y-98333122D01*
X135062711Y-98312488D01*
X135091684Y-98283515D01*
X135153006Y-98250033D01*
X135179362Y-98247200D01*
X137612137Y-98247200D01*
X137679176Y-98266885D01*
G37*
%TD.AperFunction*%
%TD*%
%TA.AperFunction,Conductor*%
%TO.N,+3V3_PI*%
G36*
X133518077Y-100908485D02*
G01*
X133538719Y-100925119D01*
X133858000Y-101244400D01*
X134060638Y-101244400D01*
X134127677Y-101264085D01*
X134148319Y-101280719D01*
X134177281Y-101309681D01*
X134210766Y-101371004D01*
X134213600Y-101397362D01*
X134213600Y-101904238D01*
X134193915Y-101971277D01*
X134177281Y-101991919D01*
X134148319Y-102020881D01*
X134086996Y-102054366D01*
X134060638Y-102057200D01*
X133299762Y-102057200D01*
X133232723Y-102037515D01*
X133212081Y-102020881D01*
X133183119Y-101991919D01*
X133149634Y-101930596D01*
X133146800Y-101904238D01*
X133146800Y-101446899D01*
X133132318Y-101432417D01*
X133098834Y-101371095D01*
X133096000Y-101344737D01*
X133096000Y-101041762D01*
X133115685Y-100974723D01*
X133132319Y-100954081D01*
X133161281Y-100925119D01*
X133222604Y-100891634D01*
X133248962Y-100888800D01*
X133451038Y-100888800D01*
X133518077Y-100908485D01*
G37*
%TD.AperFunction*%
%TD*%
%TA.AperFunction,Conductor*%
%TO.N,VUSB*%
G36*
X111459477Y-96332554D02*
G01*
X111465080Y-96337450D01*
X111574033Y-96523797D01*
X111877326Y-97042535D01*
X111878544Y-97051405D01*
X111875499Y-97056712D01*
X111534712Y-97397499D01*
X111526439Y-97400926D01*
X111520535Y-97399326D01*
X111140258Y-97176987D01*
X110815450Y-96987080D01*
X110810037Y-96979946D01*
X110810536Y-96972526D01*
X110995437Y-96523795D01*
X111001755Y-96517454D01*
X111450526Y-96332537D01*
X111459477Y-96332554D01*
G37*
%TD.AperFunction*%
%TD*%
%TA.AperFunction,Conductor*%
%TO.N,VUSB*%
G36*
X115438244Y-107080427D02*
G01*
X115441289Y-107085734D01*
X115648357Y-107875806D01*
X115647139Y-107884677D01*
X115641536Y-107889573D01*
X115193497Y-108076127D01*
X115184543Y-108076144D01*
X115184503Y-108076127D01*
X114736463Y-107889573D01*
X114730142Y-107883229D01*
X114729642Y-107875806D01*
X114936711Y-107085734D01*
X114942124Y-107078600D01*
X114948029Y-107077000D01*
X115429971Y-107077000D01*
X115438244Y-107080427D01*
G37*
%TD.AperFunction*%
%TD*%
%TA.AperFunction,Conductor*%
%TO.N,VUSB*%
G36*
X94765157Y-85886074D02*
G01*
X95101824Y-86222741D01*
X95104684Y-86227417D01*
X95223042Y-86593797D01*
X95222325Y-86602723D01*
X95216398Y-86608199D01*
X94906791Y-86736837D01*
X94897836Y-86736846D01*
X94897796Y-86736830D01*
X94588775Y-86607872D01*
X94582460Y-86601523D01*
X94581886Y-86594421D01*
X94745489Y-85891692D01*
X94750702Y-85884413D01*
X94759537Y-85882952D01*
X94765157Y-85886074D01*
G37*
%TD.AperFunction*%
%TD*%
%TA.AperFunction,Conductor*%
%TO.N,VUSB*%
G36*
X99307388Y-85886074D02*
G01*
X99310510Y-85891694D01*
X99474113Y-86594421D01*
X99472652Y-86603256D01*
X99467224Y-86607872D01*
X99158203Y-86736830D01*
X99149248Y-86736853D01*
X99149208Y-86736837D01*
X98839601Y-86608199D01*
X98833276Y-86601860D01*
X98832957Y-86593799D01*
X98951316Y-86227414D01*
X98954173Y-86222743D01*
X99290843Y-85886073D01*
X99299115Y-85882647D01*
X99307388Y-85886074D01*
G37*
%TD.AperFunction*%
%TD*%
%TA.AperFunction,Conductor*%
%TO.N,Earth*%
G36*
X99635333Y-96898598D02*
G01*
X99641648Y-96904947D01*
X99641712Y-96905105D01*
X99853772Y-97442961D01*
X99853618Y-97451914D01*
X99851160Y-97455525D01*
X99616403Y-97690282D01*
X99608130Y-97693709D01*
X99600946Y-97691244D01*
X99076942Y-97283600D01*
X99072516Y-97275815D01*
X99074891Y-97267181D01*
X99075808Y-97266137D01*
X99311632Y-97028962D01*
X99315474Y-97026396D01*
X99626378Y-96898575D01*
X99635333Y-96898598D01*
G37*
%TD.AperFunction*%
%TD*%
%TA.AperFunction,Conductor*%
%TO.N,Earth*%
G36*
X87173086Y-114533176D02*
G01*
X87176513Y-114541449D01*
X87175460Y-114546299D01*
X87139885Y-114624388D01*
X86942030Y-115058683D01*
X86935482Y-115064791D01*
X86926934Y-115064653D01*
X86618505Y-114937852D01*
X86612157Y-114931538D01*
X86485324Y-114624387D01*
X86485334Y-114615433D01*
X86491672Y-114609108D01*
X86493489Y-114608526D01*
X86831694Y-114530051D01*
X86834339Y-114529749D01*
X87164813Y-114529749D01*
X87173086Y-114533176D01*
G37*
%TD.AperFunction*%
%TD*%
%TA.AperFunction,Conductor*%
%TO.N,Earth*%
G36*
X140826960Y-112308537D02*
G01*
X140827500Y-112309400D01*
X141079395Y-112753893D01*
X141080493Y-112762781D01*
X141077699Y-112767720D01*
X140686992Y-113179058D01*
X140678810Y-113182696D01*
X140670451Y-113179483D01*
X140670236Y-113179273D01*
X140434523Y-112943560D01*
X140431101Y-112935632D01*
X140420686Y-112580368D01*
X140423869Y-112572000D01*
X140425740Y-112570395D01*
X140810690Y-112305529D01*
X140819447Y-112303664D01*
X140826960Y-112308537D01*
G37*
%TD.AperFunction*%
%TD*%
%TA.AperFunction,Conductor*%
%TO.N,Earth*%
G36*
X145652059Y-112307881D02*
G01*
X145652897Y-112308909D01*
X145954916Y-112725822D01*
X145956994Y-112734532D01*
X145954834Y-112739662D01*
X145602023Y-113214664D01*
X145594338Y-113219263D01*
X145585654Y-113217081D01*
X145584357Y-113215961D01*
X145348683Y-112980287D01*
X145345647Y-112975010D01*
X145261537Y-112657388D01*
X145262733Y-112648513D01*
X145264952Y-112645760D01*
X145635531Y-112307135D01*
X145643949Y-112304085D01*
X145652059Y-112307881D01*
G37*
%TD.AperFunction*%
%TD*%
%TA.AperFunction,Conductor*%
%TO.N,Earth*%
G36*
X102641109Y-98204664D02*
G01*
X103256793Y-98480543D01*
X103262941Y-98487052D01*
X103262685Y-98496003D01*
X103256440Y-98502047D01*
X102618529Y-98763123D01*
X102609755Y-98763160D01*
X102153080Y-98580671D01*
X102146670Y-98574419D01*
X102146557Y-98565464D01*
X102149147Y-98561535D01*
X102382720Y-98327962D01*
X102385816Y-98325744D01*
X102631163Y-98204848D01*
X102640097Y-98204266D01*
X102641109Y-98204664D01*
G37*
%TD.AperFunction*%
%TD*%
%TA.AperFunction,Conductor*%
%TO.N,Earth*%
G36*
X101182701Y-97462496D02*
G01*
X101854214Y-97803793D01*
X101860036Y-97810595D01*
X101859342Y-97819523D01*
X101857185Y-97822495D01*
X101622134Y-98057546D01*
X101619832Y-98059334D01*
X101182982Y-98318603D01*
X101174119Y-98319879D01*
X101167771Y-98315720D01*
X100967217Y-98057546D01*
X100842876Y-97897480D01*
X100840508Y-97888846D01*
X100842888Y-97883113D01*
X101168175Y-97465734D01*
X101175962Y-97461316D01*
X101182701Y-97462496D01*
G37*
%TD.AperFunction*%
%TD*%
%TA.AperFunction,Conductor*%
%TO.N,Earth*%
G36*
X56371244Y-114826427D02*
G01*
X56374289Y-114831734D01*
X56517777Y-115379216D01*
X56516559Y-115388087D01*
X56510965Y-115392980D01*
X56201506Y-115522119D01*
X56192551Y-115522142D01*
X56192494Y-115522119D01*
X55883034Y-115392980D01*
X55876719Y-115386631D01*
X55876222Y-115379216D01*
X56019711Y-114831734D01*
X56025124Y-114824600D01*
X56031029Y-114823000D01*
X56362971Y-114823000D01*
X56371244Y-114826427D01*
G37*
%TD.AperFunction*%
%TD*%
%TA.AperFunction,Conductor*%
%TO.N,Earth*%
G36*
X56204746Y-114575844D02*
G01*
X56590243Y-114916424D01*
X56594174Y-114924470D01*
X56592950Y-114930447D01*
X56375240Y-115363555D01*
X56368462Y-115369407D01*
X56364786Y-115370000D01*
X56029214Y-115370000D01*
X56020941Y-115366573D01*
X56018760Y-115363555D01*
X55801046Y-114930445D01*
X55800394Y-114921516D01*
X55803752Y-114916426D01*
X56189254Y-114575843D01*
X56197721Y-114572934D01*
X56204746Y-114575844D01*
G37*
%TD.AperFunction*%
%TD*%
%TA.AperFunction,Conductor*%
%TO.N,Earth*%
G36*
X96156560Y-100985837D02*
G01*
X96570219Y-101227693D01*
X96645153Y-101271505D01*
X96650566Y-101278639D01*
X96650069Y-101286054D01*
X96522563Y-101596191D01*
X96516248Y-101602540D01*
X96516191Y-101602563D01*
X96206054Y-101730069D01*
X96197099Y-101730046D01*
X96191505Y-101725153D01*
X95905837Y-101236561D01*
X95904620Y-101227693D01*
X95907663Y-101222388D01*
X96142387Y-100987664D01*
X96150659Y-100984238D01*
X96156560Y-100985837D01*
G37*
%TD.AperFunction*%
%TD*%
%TA.AperFunction,Conductor*%
%TO.N,Earth*%
G36*
X95517706Y-100548848D02*
G01*
X96135177Y-100852236D01*
X96140113Y-100856824D01*
X96299115Y-101128396D01*
X96300338Y-101137267D01*
X96297291Y-101142581D01*
X96063423Y-101376449D01*
X96055150Y-101379876D01*
X96048059Y-101377482D01*
X95757654Y-101156198D01*
X95753995Y-101151508D01*
X95501809Y-100563970D01*
X95501695Y-100555017D01*
X95507946Y-100548605D01*
X95516900Y-100548490D01*
X95517706Y-100548848D01*
G37*
%TD.AperFunction*%
%TD*%
%TA.AperFunction,Conductor*%
%TO.N,Earth*%
G36*
X112408311Y-111826901D02*
G01*
X113084955Y-111923564D01*
X113084955Y-111923565D01*
X113092660Y-111928127D01*
X113095000Y-111935147D01*
X113095000Y-112414852D01*
X113091573Y-112423125D01*
X113084955Y-112426434D01*
X112408316Y-112523097D01*
X112399641Y-112520875D01*
X112395079Y-112513170D01*
X112394961Y-112511556D01*
X112394000Y-112175000D01*
X112394961Y-111838449D01*
X112398412Y-111830187D01*
X112406694Y-111826784D01*
X112408311Y-111826901D01*
G37*
%TD.AperFunction*%
%TD*%
%TA.AperFunction,Conductor*%
%TO.N,Earth*%
G36*
X113177358Y-111667943D02*
G01*
X113533465Y-112067786D01*
X113536408Y-112076243D01*
X113534946Y-112081266D01*
X113291931Y-112516951D01*
X113284908Y-112522507D01*
X113280015Y-112522828D01*
X112623002Y-112426466D01*
X112615314Y-112421875D01*
X112613000Y-112414890D01*
X112613000Y-111932415D01*
X112616427Y-111924142D01*
X112619703Y-111921836D01*
X113163630Y-111665142D01*
X113172572Y-111664711D01*
X113177358Y-111667943D01*
G37*
%TD.AperFunction*%
%TD*%
%TA.AperFunction,Conductor*%
%TO.N,Earth*%
G36*
X88751047Y-116316734D02*
G01*
X89259652Y-116520556D01*
X89266057Y-116526814D01*
X89267000Y-116531416D01*
X89267000Y-116865585D01*
X89263573Y-116873858D01*
X89259652Y-116876445D01*
X88751049Y-117080266D01*
X88742095Y-117080163D01*
X88738070Y-117077310D01*
X88718290Y-117055722D01*
X88398240Y-116706403D01*
X88395179Y-116697990D01*
X88398240Y-116690598D01*
X88738071Y-116319690D01*
X88746186Y-116315906D01*
X88751047Y-116316734D01*
G37*
%TD.AperFunction*%
%TD*%
%TA.AperFunction,Conductor*%
%TO.N,Earth*%
G36*
X57020565Y-108653443D02*
G01*
X57020662Y-108653668D01*
X57148830Y-108960796D01*
X57148853Y-108969751D01*
X57148837Y-108969791D01*
X57020537Y-109278584D01*
X57014198Y-109284909D01*
X57005274Y-109284912D01*
X56559587Y-109101240D01*
X56555772Y-109098696D01*
X56392721Y-108935645D01*
X56389294Y-108927372D01*
X56392721Y-108919099D01*
X56396263Y-108916671D01*
X57005134Y-108647472D01*
X57014085Y-108647262D01*
X57020565Y-108653443D01*
G37*
%TD.AperFunction*%
%TD*%
%TA.AperFunction,Conductor*%
%TO.N,Earth*%
G36*
X90295914Y-121943311D02*
G01*
X90304154Y-121946814D01*
X90307168Y-121952223D01*
X90626310Y-123252940D01*
X90624953Y-123261791D01*
X90619411Y-123266543D01*
X89934447Y-123549293D01*
X89925493Y-123549282D01*
X89919329Y-123543313D01*
X89787559Y-123252940D01*
X89305801Y-122191318D01*
X89305504Y-122182369D01*
X89308181Y-122178213D01*
X89546469Y-121939925D01*
X89554741Y-121936499D01*
X89554836Y-121936499D01*
X90295914Y-121943311D01*
G37*
%TD.AperFunction*%
%TD*%
%TA.AperFunction,Conductor*%
%TO.N,Earth*%
G36*
X88871158Y-121195595D02*
G01*
X89266454Y-121651867D01*
X89269281Y-121660363D01*
X89265884Y-121667800D01*
X89030283Y-121903401D01*
X89022010Y-121906828D01*
X89020249Y-121906695D01*
X88308853Y-121798411D01*
X88301190Y-121793778D01*
X88299047Y-121785083D01*
X88299224Y-121784171D01*
X88389944Y-121401482D01*
X88395186Y-121394224D01*
X88396644Y-121393461D01*
X88857640Y-121192530D01*
X88866593Y-121192366D01*
X88871158Y-121195595D01*
G37*
%TD.AperFunction*%
%TD*%
%TA.AperFunction,Conductor*%
%TO.N,Earth*%
G36*
X94378560Y-102567523D02*
G01*
X94792219Y-102809379D01*
X94867153Y-102853191D01*
X94872566Y-102860325D01*
X94872069Y-102867740D01*
X94744563Y-103177877D01*
X94738248Y-103184226D01*
X94738191Y-103184249D01*
X94428054Y-103311755D01*
X94419099Y-103311732D01*
X94413505Y-103306839D01*
X94127837Y-102818247D01*
X94126620Y-102809379D01*
X94129663Y-102804074D01*
X94364387Y-102569350D01*
X94372659Y-102565924D01*
X94378560Y-102567523D01*
G37*
%TD.AperFunction*%
%TD*%
%TA.AperFunction,Conductor*%
%TO.N,Earth*%
G36*
X93821903Y-102246005D02*
G01*
X94435873Y-102537002D01*
X94440598Y-102541087D01*
X94618517Y-102808055D01*
X94620253Y-102816839D01*
X94617054Y-102822816D01*
X94383130Y-103056740D01*
X94374857Y-103060167D01*
X94368369Y-103058203D01*
X94101401Y-102880284D01*
X94097316Y-102875559D01*
X93806320Y-102261590D01*
X93805874Y-102252646D01*
X93811882Y-102246006D01*
X93820826Y-102245560D01*
X93821903Y-102246005D01*
G37*
%TD.AperFunction*%
%TD*%
%TA.AperFunction,Conductor*%
%TO.N,Earth*%
G36*
X68838478Y-108719368D02*
G01*
X69147965Y-108848519D01*
X69154280Y-108854868D01*
X69154777Y-108862283D01*
X69011289Y-109409766D01*
X69005876Y-109416900D01*
X68999971Y-109418500D01*
X68668029Y-109418500D01*
X68659756Y-109415073D01*
X68656711Y-109409766D01*
X68513222Y-108862283D01*
X68514440Y-108853412D01*
X68520032Y-108848520D01*
X68829494Y-108719379D01*
X68838449Y-108719357D01*
X68838478Y-108719368D01*
G37*
%TD.AperFunction*%
%TD*%
%TA.AperFunction,Conductor*%
%TO.N,Earth*%
G36*
X69009888Y-109025427D02*
G01*
X69012177Y-109028667D01*
X69279796Y-109590291D01*
X69280261Y-109599234D01*
X69276069Y-109604820D01*
X68840835Y-109918080D01*
X68832118Y-109920132D01*
X68827165Y-109918080D01*
X68391930Y-109604820D01*
X68387217Y-109597206D01*
X68388202Y-109590293D01*
X68655823Y-109028666D01*
X68662475Y-109022673D01*
X68666385Y-109022000D01*
X69001615Y-109022000D01*
X69009888Y-109025427D01*
G37*
%TD.AperFunction*%
%TD*%
%TA.AperFunction,Conductor*%
%TO.N,Earth*%
G36*
X87015187Y-113855597D02*
G01*
X87433695Y-114181514D01*
X87438117Y-114189301D01*
X87437223Y-114195438D01*
X87186068Y-114768993D01*
X87179611Y-114775197D01*
X87175351Y-114776000D01*
X86840649Y-114776000D01*
X86832376Y-114772573D01*
X86829932Y-114768993D01*
X86578776Y-114195438D01*
X86578596Y-114186485D01*
X86582302Y-114181516D01*
X87000811Y-113855597D01*
X87009444Y-113853218D01*
X87015187Y-113855597D01*
G37*
%TD.AperFunction*%
%TD*%
%TA.AperFunction,Conductor*%
%TO.N,Earth*%
G36*
X89934184Y-115405392D02*
G01*
X89943619Y-115410235D01*
X90619517Y-115757133D01*
X90625313Y-115763959D01*
X90625036Y-115771893D01*
X90147176Y-116964580D01*
X90140918Y-116970986D01*
X90134919Y-116971845D01*
X89326609Y-116874738D01*
X89318804Y-116870349D01*
X89316305Y-116863122D01*
X89316305Y-116863121D01*
X89316305Y-116526459D01*
X89317711Y-116520900D01*
X89918553Y-115410233D01*
X89925503Y-115404589D01*
X89934184Y-115405392D01*
G37*
%TD.AperFunction*%
%TD*%
%TA.AperFunction,Conductor*%
%TO.N,Earth*%
G36*
X68509267Y-114376711D02*
G01*
X68516400Y-114382123D01*
X68518000Y-114388028D01*
X68518000Y-114719971D01*
X68514573Y-114728244D01*
X68509266Y-114731289D01*
X67961783Y-114874777D01*
X67952912Y-114873559D01*
X67948019Y-114867965D01*
X67818879Y-114558505D01*
X67818857Y-114549551D01*
X67818880Y-114549494D01*
X67948020Y-114240032D01*
X67954368Y-114233719D01*
X67961783Y-114233222D01*
X68509267Y-114376711D01*
G37*
%TD.AperFunction*%
%TD*%
%TA.AperFunction,Conductor*%
%TO.N,Earth*%
G36*
X68503764Y-114094662D02*
G01*
X68829401Y-114512811D01*
X68831781Y-114521444D01*
X68829401Y-114527189D01*
X68503205Y-114946054D01*
X68495418Y-114950476D01*
X68489816Y-114949801D01*
X67916542Y-114731867D01*
X67910027Y-114725724D01*
X67909000Y-114720931D01*
X67909000Y-114386259D01*
X67912427Y-114377986D01*
X67915502Y-114375777D01*
X68489339Y-114091367D01*
X68498272Y-114090764D01*
X68503764Y-114094662D01*
G37*
%TD.AperFunction*%
%TD*%
%TA.AperFunction,Conductor*%
%TO.N,Earth*%
G36*
X88024311Y-104553901D02*
G01*
X88700955Y-104650565D01*
X88708660Y-104655127D01*
X88711000Y-104662147D01*
X88711000Y-105141852D01*
X88707573Y-105150125D01*
X88700955Y-105153434D01*
X88024316Y-105250097D01*
X88015641Y-105247875D01*
X88011079Y-105240170D01*
X88010961Y-105238556D01*
X88010000Y-104902000D01*
X88010961Y-104565449D01*
X88014412Y-104557187D01*
X88022694Y-104553784D01*
X88024311Y-104553901D01*
G37*
%TD.AperFunction*%
%TD*%
%TA.AperFunction,Conductor*%
%TO.N,Earth*%
G36*
X88805816Y-104455383D02*
G01*
X88810204Y-104459074D01*
X89124080Y-104895165D01*
X89126132Y-104903882D01*
X89124080Y-104908835D01*
X88810204Y-105344925D01*
X88802590Y-105349638D01*
X88796877Y-105349145D01*
X88235869Y-105154727D01*
X88229174Y-105148780D01*
X88228000Y-105143672D01*
X88228000Y-104660327D01*
X88231427Y-104652054D01*
X88235865Y-104649274D01*
X88796877Y-104454854D01*
X88805816Y-104455383D01*
G37*
%TD.AperFunction*%
%TD*%
%TA.AperFunction,Conductor*%
%TO.N,Earth*%
G36*
X82586305Y-114530051D02*
G01*
X82924506Y-114608525D01*
X82931790Y-114613733D01*
X82933258Y-114622567D01*
X82932675Y-114624388D01*
X82805859Y-114931497D01*
X82799534Y-114937835D01*
X82799494Y-114937852D01*
X82491065Y-115064653D01*
X82482110Y-115064630D01*
X82475970Y-115058684D01*
X82242539Y-114546299D01*
X82242228Y-114537350D01*
X82248336Y-114530802D01*
X82253187Y-114529749D01*
X82583661Y-114529749D01*
X82586305Y-114530051D01*
G37*
%TD.AperFunction*%
%TD*%
%TA.AperFunction,Conductor*%
%TO.N,Earth*%
G36*
X46352291Y-119014427D02*
G01*
X46355321Y-119019676D01*
X46377102Y-119101095D01*
X46377499Y-119104119D01*
X46377499Y-119159872D01*
X46377274Y-119162154D01*
X46372209Y-119187614D01*
X46377274Y-119213073D01*
X46377275Y-119213084D01*
X46393164Y-119292964D01*
X46450898Y-119379367D01*
X46452473Y-119382843D01*
X46456329Y-119397257D01*
X46455156Y-119406135D01*
X46449543Y-119411074D01*
X46232516Y-119501909D01*
X46223562Y-119501942D01*
X46223482Y-119501909D01*
X46006456Y-119411074D01*
X46000147Y-119404718D01*
X45999670Y-119397259D01*
X46003528Y-119382837D01*
X46005096Y-119379376D01*
X46062836Y-119292964D01*
X46078501Y-119214210D01*
X46078501Y-119214209D01*
X46083791Y-119187615D01*
X46078726Y-119162150D01*
X46078501Y-119159868D01*
X46078501Y-119104119D01*
X46078898Y-119101095D01*
X46100679Y-119019676D01*
X46106128Y-119012570D01*
X46111982Y-119011000D01*
X46344018Y-119011000D01*
X46352291Y-119014427D01*
G37*
%TD.AperFunction*%
%TD*%
%TA.AperFunction,Conductor*%
%TO.N,Earth*%
G36*
X46234470Y-119021409D02*
G01*
X46237748Y-119024687D01*
X46375447Y-119232156D01*
X46377240Y-119240549D01*
X46354629Y-119376222D01*
X46349889Y-119383820D01*
X46343088Y-119385999D01*
X46112912Y-119385999D01*
X46104639Y-119382572D01*
X46101371Y-119376222D01*
X46078759Y-119240549D01*
X46080552Y-119232156D01*
X46218252Y-119024687D01*
X46225682Y-119019689D01*
X46234470Y-119021409D01*
G37*
%TD.AperFunction*%
%TD*%
%TA.AperFunction,Conductor*%
%TO.N,Earth*%
G36*
X100721129Y-103802028D02*
G01*
X100955863Y-104036762D01*
X100959290Y-104045035D01*
X100957453Y-104051328D01*
X100658620Y-104519690D01*
X100651281Y-104524821D01*
X100644308Y-104524218D01*
X100333808Y-104396563D01*
X100327460Y-104390249D01*
X100200098Y-104080461D01*
X100200121Y-104071508D01*
X100205444Y-104065674D01*
X100707385Y-103799960D01*
X100716297Y-103799118D01*
X100721129Y-103802028D01*
G37*
%TD.AperFunction*%
%TD*%
%TA.AperFunction,Conductor*%
%TO.N,Earth*%
G36*
X101381049Y-103382939D02*
G01*
X101381495Y-103391883D01*
X101381049Y-103392961D01*
X101090053Y-104006930D01*
X101085968Y-104011655D01*
X100819000Y-104189574D01*
X100810216Y-104191310D01*
X100804239Y-104188111D01*
X100570315Y-103954187D01*
X100566888Y-103945914D01*
X100568852Y-103939426D01*
X100746772Y-103672456D01*
X100751494Y-103668374D01*
X101365466Y-103377376D01*
X101374409Y-103376931D01*
X101381049Y-103382939D01*
G37*
%TD.AperFunction*%
%TD*%
%TA.AperFunction,Conductor*%
%TO.N,Earth*%
G36*
X147952291Y-118968427D02*
G01*
X147955321Y-118973676D01*
X147977102Y-119055095D01*
X147977499Y-119058119D01*
X147977499Y-119113872D01*
X147977274Y-119116154D01*
X147972209Y-119141614D01*
X147977274Y-119167073D01*
X147977275Y-119167084D01*
X147993164Y-119246964D01*
X148050898Y-119333367D01*
X148052473Y-119336843D01*
X148056329Y-119351257D01*
X148055156Y-119360135D01*
X148049543Y-119365074D01*
X147832516Y-119455909D01*
X147823562Y-119455942D01*
X147823482Y-119455909D01*
X147606456Y-119365074D01*
X147600147Y-119358718D01*
X147599670Y-119351259D01*
X147603528Y-119336837D01*
X147605096Y-119333376D01*
X147662836Y-119246964D01*
X147678501Y-119168210D01*
X147678501Y-119168209D01*
X147683791Y-119141615D01*
X147678726Y-119116150D01*
X147678501Y-119113868D01*
X147678501Y-119058119D01*
X147678898Y-119055095D01*
X147700679Y-118973676D01*
X147706128Y-118966570D01*
X147711982Y-118965000D01*
X147944018Y-118965000D01*
X147952291Y-118968427D01*
G37*
%TD.AperFunction*%
%TD*%
%TA.AperFunction,Conductor*%
%TO.N,Earth*%
G36*
X147834470Y-118975409D02*
G01*
X147837748Y-118978687D01*
X147975447Y-119186156D01*
X147977240Y-119194549D01*
X147954629Y-119330222D01*
X147949889Y-119337820D01*
X147943088Y-119339999D01*
X147712912Y-119339999D01*
X147704639Y-119336572D01*
X147701371Y-119330222D01*
X147678759Y-119194549D01*
X147680552Y-119186156D01*
X147818252Y-118978687D01*
X147825682Y-118973689D01*
X147834470Y-118975409D01*
G37*
%TD.AperFunction*%
%TD*%
%TA.AperFunction,Conductor*%
%TO.N,Earth*%
G36*
X56266792Y-109054005D02*
G01*
X56267265Y-109054453D01*
X56434255Y-109221443D01*
X56436042Y-109223742D01*
X56650838Y-109585464D01*
X56652116Y-109594327D01*
X56646813Y-109601461D01*
X56204841Y-109867560D01*
X56195986Y-109868892D01*
X56189861Y-109865079D01*
X55954101Y-109585464D01*
X55874111Y-109490594D01*
X55871399Y-109482062D01*
X55874335Y-109475256D01*
X56250272Y-109054925D01*
X56258341Y-109051044D01*
X56266792Y-109054005D01*
G37*
%TD.AperFunction*%
%TD*%
%TA.AperFunction,Conductor*%
%TO.N,Earth*%
G36*
X144903614Y-113433665D02*
G01*
X145138334Y-113668385D01*
X145141761Y-113676658D01*
X145140161Y-113682563D01*
X144854494Y-114171153D01*
X144847360Y-114176566D01*
X144839945Y-114176069D01*
X144529808Y-114048563D01*
X144523460Y-114042249D01*
X144395930Y-113732052D01*
X144395953Y-113723099D01*
X144400844Y-113717506D01*
X144889439Y-113431837D01*
X144898307Y-113430620D01*
X144903614Y-113433665D01*
G37*
%TD.AperFunction*%
%TD*%
%TA.AperFunction,Conductor*%
%TO.N,Earth*%
G36*
X93476936Y-118820344D02*
G01*
X93481874Y-118825957D01*
X93572709Y-119042984D01*
X93572742Y-119051938D01*
X93572709Y-119052018D01*
X93481874Y-119269044D01*
X93475518Y-119275353D01*
X93468057Y-119275830D01*
X93453643Y-119271974D01*
X93450168Y-119270399D01*
X93363764Y-119212665D01*
X93363763Y-119212665D01*
X93283882Y-119196775D01*
X93283875Y-119196775D01*
X93258414Y-119191710D01*
X93232955Y-119196775D01*
X93230673Y-119197000D01*
X93174920Y-119197000D01*
X93171896Y-119196603D01*
X93090476Y-119174821D01*
X93083370Y-119169372D01*
X93081800Y-119163518D01*
X93081800Y-118931483D01*
X93085227Y-118923210D01*
X93090476Y-118920180D01*
X93171896Y-118898399D01*
X93174920Y-118898002D01*
X93230673Y-118898002D01*
X93232955Y-118898227D01*
X93258415Y-118903291D01*
X93283875Y-118898227D01*
X93283882Y-118898226D01*
X93285008Y-118898002D01*
X93285010Y-118898002D01*
X93363764Y-118882337D01*
X93450176Y-118824597D01*
X93453637Y-118823029D01*
X93468059Y-118819171D01*
X93476936Y-118820344D01*
G37*
%TD.AperFunction*%
%TD*%
%TA.AperFunction,Conductor*%
%TO.N,Earth*%
G36*
X93396223Y-118920871D02*
G01*
X93403820Y-118925611D01*
X93405999Y-118932412D01*
X93405999Y-119162589D01*
X93402572Y-119170862D01*
X93396222Y-119174130D01*
X93275256Y-119194289D01*
X93271051Y-119194223D01*
X93258415Y-119191710D01*
X93254575Y-119192474D01*
X93245825Y-119190746D01*
X93044687Y-119057248D01*
X93039689Y-119049818D01*
X93041409Y-119041030D01*
X93044683Y-119037755D01*
X93245828Y-118904253D01*
X93254575Y-118902527D01*
X93258415Y-118903291D01*
X93271054Y-118900776D01*
X93275254Y-118900711D01*
X93396223Y-118920871D01*
G37*
%TD.AperFunction*%
%TD*%
%TA.AperFunction,Conductor*%
%TO.N,Earth*%
G36*
X101175278Y-102798342D02*
G01*
X101183545Y-102801785D01*
X101185557Y-102804495D01*
X101301869Y-103020502D01*
X101302774Y-103029411D01*
X101299840Y-103034322D01*
X101064664Y-103269498D01*
X101056391Y-103272925D01*
X101050845Y-103271527D01*
X100980072Y-103233418D01*
X100834837Y-103155215D01*
X100829177Y-103148275D01*
X100828684Y-103144936D01*
X100828015Y-102809395D01*
X100831425Y-102801116D01*
X100839691Y-102797673D01*
X101175278Y-102798342D01*
G37*
%TD.AperFunction*%
%TD*%
%TA.AperFunction,Conductor*%
%TO.N,Earth*%
G36*
X101737921Y-103456556D02*
G01*
X101921429Y-103555367D01*
X101953930Y-103572868D01*
X101959590Y-103579808D01*
X101960083Y-103583147D01*
X101960753Y-103918688D01*
X101957343Y-103926968D01*
X101949076Y-103930411D01*
X101949030Y-103930411D01*
X101613489Y-103929741D01*
X101605222Y-103926298D01*
X101603210Y-103923588D01*
X101585709Y-103891087D01*
X101486898Y-103707580D01*
X101485994Y-103698673D01*
X101488926Y-103693764D01*
X101724105Y-103458585D01*
X101732377Y-103455159D01*
X101737921Y-103456556D01*
G37*
%TD.AperFunction*%
%TD*%
%TA.AperFunction,Conductor*%
%TO.N,Earth*%
G36*
X100507780Y-97465702D02*
G01*
X100832740Y-97884026D01*
X100835109Y-97892662D01*
X100832245Y-97898977D01*
X100478675Y-98296793D01*
X100470618Y-98300700D01*
X100463905Y-98299049D01*
X100058042Y-98055233D01*
X99842219Y-97925581D01*
X99836893Y-97918385D01*
X99838216Y-97909528D01*
X99839968Y-97907284D01*
X100075528Y-97671724D01*
X100078568Y-97669534D01*
X100493313Y-97462412D01*
X100502245Y-97461782D01*
X100507780Y-97465702D01*
G37*
%TD.AperFunction*%
%TD*%
%TA.AperFunction,Conductor*%
%TO.N,Earth*%
G36*
X99488244Y-96331427D02*
G01*
X99491289Y-96336734D01*
X99634777Y-96884216D01*
X99633559Y-96893087D01*
X99627965Y-96897980D01*
X99318506Y-97027119D01*
X99309551Y-97027142D01*
X99309494Y-97027119D01*
X99000034Y-96897980D01*
X98993719Y-96891631D01*
X98993222Y-96884216D01*
X99136711Y-96336734D01*
X99142124Y-96329600D01*
X99148029Y-96328000D01*
X99479971Y-96328000D01*
X99488244Y-96331427D01*
G37*
%TD.AperFunction*%
%TD*%
%TA.AperFunction,Conductor*%
%TO.N,Earth*%
G36*
X99334187Y-96016597D02*
G01*
X99752558Y-96342407D01*
X99756980Y-96350194D01*
X99755998Y-96356527D01*
X99541967Y-96821845D01*
X99492316Y-96929792D01*
X99492133Y-96930189D01*
X99485563Y-96936273D01*
X99481504Y-96937000D01*
X99146806Y-96937000D01*
X99138533Y-96933573D01*
X99136003Y-96929792D01*
X98897553Y-96356344D01*
X98897540Y-96347389D01*
X98901166Y-96342622D01*
X99319811Y-96016597D01*
X99328444Y-96014218D01*
X99334187Y-96016597D01*
G37*
%TD.AperFunction*%
%TD*%
%TA.AperFunction,Conductor*%
%TO.N,Earth*%
G36*
X94417267Y-95834711D02*
G01*
X94424400Y-95840123D01*
X94426000Y-95846028D01*
X94426000Y-96177971D01*
X94422573Y-96186244D01*
X94417266Y-96189289D01*
X93869783Y-96332777D01*
X93860912Y-96331559D01*
X93856019Y-96325965D01*
X93726879Y-96016505D01*
X93726857Y-96007551D01*
X93726880Y-96007494D01*
X93856020Y-95698032D01*
X93862368Y-95691719D01*
X93869783Y-95691222D01*
X94417267Y-95834711D01*
G37*
%TD.AperFunction*%
%TD*%
%TA.AperFunction,Conductor*%
%TO.N,Earth*%
G36*
X94411820Y-95569930D02*
G01*
X94725080Y-96005165D01*
X94727132Y-96013882D01*
X94725080Y-96018835D01*
X94411820Y-96454069D01*
X94404206Y-96458782D01*
X94397291Y-96457796D01*
X93835667Y-96190176D01*
X93829673Y-96183524D01*
X93829000Y-96179614D01*
X93829000Y-95844385D01*
X93832427Y-95836112D01*
X93835667Y-95833823D01*
X94397292Y-95566202D01*
X94406234Y-95565738D01*
X94411820Y-95569930D01*
G37*
%TD.AperFunction*%
%TD*%
%TA.AperFunction,Conductor*%
%TO.N,Earth*%
G36*
X137282655Y-104437427D02*
G01*
X137285556Y-104442230D01*
X137463472Y-105015167D01*
X137462652Y-105024084D01*
X137459487Y-105027868D01*
X137040189Y-105354401D01*
X137031556Y-105356781D01*
X137025811Y-105354401D01*
X136606512Y-105027868D01*
X136602090Y-105020081D01*
X136602527Y-105015167D01*
X136780444Y-104442230D01*
X136786171Y-104435346D01*
X136791618Y-104434000D01*
X137274382Y-104434000D01*
X137282655Y-104437427D01*
G37*
%TD.AperFunction*%
%TD*%
%TA.AperFunction,Conductor*%
%TO.N,Earth*%
G36*
X112518613Y-107718665D02*
G01*
X112753334Y-107953386D01*
X112756761Y-107961659D01*
X112755161Y-107967564D01*
X112469494Y-108456153D01*
X112462360Y-108461566D01*
X112454945Y-108461069D01*
X112144808Y-108333563D01*
X112138460Y-108327249D01*
X112010930Y-108017052D01*
X112010953Y-108008099D01*
X112015844Y-108002506D01*
X112504438Y-107716837D01*
X112513306Y-107715620D01*
X112518613Y-107718665D01*
G37*
%TD.AperFunction*%
%TD*%
%TA.AperFunction,Conductor*%
%TO.N,Earth*%
G36*
X113097484Y-107156543D02*
G01*
X113530280Y-107469205D01*
X113534980Y-107476828D01*
X113533654Y-107484376D01*
X113291844Y-107919088D01*
X113284827Y-107924653D01*
X113280153Y-107925009D01*
X112852895Y-107871066D01*
X112846088Y-107867731D01*
X112609845Y-107631488D01*
X112606418Y-107623215D01*
X112609845Y-107614942D01*
X112609912Y-107614875D01*
X113082499Y-107157617D01*
X113090826Y-107154329D01*
X113097484Y-107156543D01*
G37*
%TD.AperFunction*%
%TD*%
%TA.AperFunction,Conductor*%
%TO.N,Earth*%
G36*
X140984283Y-112788528D02*
G01*
X140987710Y-112796801D01*
X140986336Y-112802302D01*
X140663337Y-113408591D01*
X140656423Y-113414282D01*
X140648562Y-113413911D01*
X140339505Y-113286852D01*
X140333157Y-113280538D01*
X140205596Y-112971624D01*
X140205606Y-112962670D01*
X140211944Y-112956345D01*
X140212112Y-112956277D01*
X140643429Y-112785919D01*
X140647727Y-112785101D01*
X140976010Y-112785101D01*
X140984283Y-112788528D01*
G37*
%TD.AperFunction*%
%TD*%
%TA.AperFunction,Conductor*%
%TO.N,Earth*%
G36*
X97127764Y-94241927D02*
G01*
X97130622Y-94246595D01*
X97176930Y-94389555D01*
X97177499Y-94393160D01*
X97177499Y-94395572D01*
X97177274Y-94397854D01*
X97172209Y-94423314D01*
X97177274Y-94448773D01*
X97177275Y-94448784D01*
X97193164Y-94528664D01*
X97248207Y-94611041D01*
X97249610Y-94613935D01*
X97255652Y-94632586D01*
X97254941Y-94641513D01*
X97249038Y-94646985D01*
X97032517Y-94737609D01*
X97023563Y-94737642D01*
X97023483Y-94737609D01*
X96806961Y-94646985D01*
X96800652Y-94640629D01*
X96800347Y-94632588D01*
X96806390Y-94613932D01*
X96807788Y-94611046D01*
X96862836Y-94528664D01*
X96878501Y-94449910D01*
X96878501Y-94449909D01*
X96883791Y-94423315D01*
X96878726Y-94397850D01*
X96878501Y-94395568D01*
X96878501Y-94393160D01*
X96879070Y-94389555D01*
X96925378Y-94246595D01*
X96931188Y-94239780D01*
X96936509Y-94238500D01*
X97119491Y-94238500D01*
X97127764Y-94241927D01*
G37*
%TD.AperFunction*%
%TD*%
%TA.AperFunction,Conductor*%
%TO.N,Earth*%
G36*
X97034470Y-94247909D02*
G01*
X97037748Y-94251187D01*
X97174842Y-94457743D01*
X97176562Y-94466531D01*
X97176194Y-94467913D01*
X97130667Y-94604499D01*
X97124800Y-94611264D01*
X97119567Y-94612499D01*
X96936433Y-94612499D01*
X96928160Y-94609072D01*
X96925333Y-94604499D01*
X96879805Y-94467913D01*
X96880440Y-94458981D01*
X96881148Y-94457758D01*
X97018252Y-94251186D01*
X97025682Y-94246189D01*
X97034470Y-94247909D01*
G37*
%TD.AperFunction*%
%TD*%
%TA.AperFunction,Conductor*%
%TO.N,Earth*%
G36*
X82417187Y-113855597D02*
G01*
X82835695Y-114181514D01*
X82840117Y-114189301D01*
X82839223Y-114195438D01*
X82588068Y-114768993D01*
X82581611Y-114775197D01*
X82577351Y-114776000D01*
X82242649Y-114776000D01*
X82234376Y-114772573D01*
X82231932Y-114768993D01*
X81980776Y-114195438D01*
X81980596Y-114186485D01*
X81984302Y-114181516D01*
X82402811Y-113855597D01*
X82411444Y-113853218D01*
X82417187Y-113855597D01*
G37*
%TD.AperFunction*%
%TD*%
%TA.AperFunction,Conductor*%
%TO.N,+1V1*%
G36*
X142729318Y-99855334D02*
G01*
X143378207Y-100078605D01*
X143384915Y-100084537D01*
X143385463Y-100093475D01*
X143385221Y-100094117D01*
X143258852Y-100401494D01*
X143252537Y-100407843D01*
X143252497Y-100407859D01*
X142941663Y-100536213D01*
X142932708Y-100536203D01*
X142927359Y-100531732D01*
X142715677Y-100202892D01*
X142713815Y-100196559D01*
X142713815Y-99866398D01*
X142717242Y-99858125D01*
X142725515Y-99854698D01*
X142729318Y-99855334D01*
G37*
%TD.AperFunction*%
%TD*%
%TA.AperFunction,Conductor*%
%TO.N,+1V1*%
G36*
X142190707Y-99579202D02*
G01*
X142198529Y-99582930D01*
X142752333Y-99846823D01*
X142758327Y-99853475D01*
X142759000Y-99857385D01*
X142759000Y-100192614D01*
X142755573Y-100200887D01*
X142752333Y-100203176D01*
X142190708Y-100470796D01*
X142181765Y-100471261D01*
X142176179Y-100467069D01*
X141862919Y-100031835D01*
X141860867Y-100023118D01*
X141862919Y-100018165D01*
X141978641Y-99857385D01*
X142176179Y-99582929D01*
X142183793Y-99578217D01*
X142190707Y-99579202D01*
G37*
%TD.AperFunction*%
%TD*%
%TA.AperFunction,Conductor*%
%TO.N,+1V1*%
G36*
X132923947Y-99186971D02*
G01*
X132932212Y-99190415D01*
X132935622Y-99198695D01*
X132935424Y-99200815D01*
X132847465Y-99672683D01*
X132844236Y-99678812D01*
X132506781Y-100016267D01*
X132498508Y-100019694D01*
X132490235Y-100016267D01*
X132487373Y-100011585D01*
X132267945Y-99331182D01*
X132268667Y-99322256D01*
X132274571Y-99316795D01*
X132585123Y-99187198D01*
X132589646Y-99186297D01*
X132923947Y-99186971D01*
G37*
%TD.AperFunction*%
%TD*%
%TA.AperFunction,Conductor*%
%TO.N,+1V1*%
G36*
X133536990Y-99705756D02*
G01*
X133840922Y-100145780D01*
X133842804Y-100154534D01*
X133840659Y-100159444D01*
X133518775Y-100589136D01*
X133511072Y-100593702D01*
X133505205Y-100593039D01*
X132792042Y-100318274D01*
X132785554Y-100312102D01*
X132785330Y-100303150D01*
X132787973Y-100299085D01*
X133127949Y-99959109D01*
X133129823Y-99957589D01*
X133520976Y-99702603D01*
X133529776Y-99700956D01*
X133536990Y-99705756D01*
G37*
%TD.AperFunction*%
%TD*%
%TA.AperFunction,Conductor*%
%TO.N,+1V1*%
G36*
X135513478Y-102819868D02*
G01*
X135822529Y-102948837D01*
X135828844Y-102955186D01*
X135829196Y-102963108D01*
X135660557Y-103505601D01*
X135654828Y-103512484D01*
X135649384Y-103513828D01*
X135317423Y-103513828D01*
X135309150Y-103510401D01*
X135305992Y-103504622D01*
X135187860Y-102963108D01*
X135187721Y-102962470D01*
X135189306Y-102953659D01*
X135194644Y-102949182D01*
X135504494Y-102819879D01*
X135513449Y-102819857D01*
X135513478Y-102819868D01*
G37*
%TD.AperFunction*%
%TD*%
%TA.AperFunction,Conductor*%
%TO.N,+1V1*%
G36*
X135658624Y-102913427D02*
G01*
X135661068Y-102917007D01*
X135912223Y-103490561D01*
X135912403Y-103499514D01*
X135908695Y-103504485D01*
X135490189Y-103830401D01*
X135481556Y-103832781D01*
X135475811Y-103830401D01*
X135057304Y-103504485D01*
X135052882Y-103496698D01*
X135053775Y-103490563D01*
X135304931Y-102917007D01*
X135311389Y-102910803D01*
X135315649Y-102910000D01*
X135650351Y-102910000D01*
X135658624Y-102913427D01*
G37*
%TD.AperFunction*%
%TD*%
%TA.AperFunction,Conductor*%
%TO.N,+3V3_L*%
G36*
X91948149Y-102124388D02*
G01*
X91949453Y-102125950D01*
X92286460Y-102609780D01*
X92339517Y-102685951D01*
X92341433Y-102694698D01*
X92338189Y-102700911D01*
X91998981Y-103040119D01*
X91990708Y-103043546D01*
X91983379Y-103040966D01*
X91456650Y-102617634D01*
X91452348Y-102609780D01*
X91454859Y-102601185D01*
X91455682Y-102600265D01*
X91693293Y-102361293D01*
X91931555Y-102124388D01*
X91931604Y-102124339D01*
X91939885Y-102120937D01*
X91948149Y-102124388D01*
G37*
%TD.AperFunction*%
%TD*%
%TA.AperFunction,Conductor*%
%TO.N,+3V3_L*%
G36*
X107284958Y-99095124D02*
G01*
X107289520Y-99102829D01*
X107289638Y-99104451D01*
X107290600Y-99441000D01*
X107289638Y-99777548D01*
X107286187Y-99785812D01*
X107277905Y-99789215D01*
X107276283Y-99789097D01*
X106599645Y-99692435D01*
X106591940Y-99687873D01*
X106589600Y-99680853D01*
X106589600Y-99201147D01*
X106593027Y-99192874D01*
X106599645Y-99189565D01*
X106599644Y-99189564D01*
X107276284Y-99092902D01*
X107284958Y-99095124D01*
G37*
%TD.AperFunction*%
%TD*%
%TA.AperFunction,Conductor*%
%TO.N,+3V3_L*%
G36*
X106183093Y-99189843D02*
G01*
X106190936Y-99194162D01*
X106193500Y-99201471D01*
X106193500Y-99680528D01*
X106190073Y-99688801D01*
X106183092Y-99692156D01*
X105746984Y-99740612D01*
X105740378Y-99739408D01*
X105175448Y-99451424D01*
X105169634Y-99444613D01*
X105170338Y-99435686D01*
X105175448Y-99430576D01*
X105740379Y-99142590D01*
X105746983Y-99141387D01*
X106183093Y-99189843D01*
G37*
%TD.AperFunction*%
%TD*%
%TA.AperFunction,Conductor*%
%TO.N,+3V3_L*%
G36*
X97023358Y-104810124D02*
G01*
X97027920Y-104817829D01*
X97028038Y-104819451D01*
X97029000Y-105156000D01*
X97028038Y-105492548D01*
X97024587Y-105500812D01*
X97016305Y-105504215D01*
X97014683Y-105504097D01*
X96338045Y-105407435D01*
X96330340Y-105402873D01*
X96328000Y-105395853D01*
X96328000Y-104916147D01*
X96331427Y-104907874D01*
X96338045Y-104904565D01*
X96338045Y-104904564D01*
X97014684Y-104807902D01*
X97023358Y-104810124D01*
G37*
%TD.AperFunction*%
%TD*%
%TA.AperFunction,Conductor*%
%TO.N,+3V3_L*%
G36*
X101181832Y-99010527D02*
G01*
X101194665Y-99014512D01*
X101754770Y-99188444D01*
X101761654Y-99194171D01*
X101763000Y-99199618D01*
X101763000Y-99682381D01*
X101759573Y-99690654D01*
X101754770Y-99693555D01*
X101181832Y-99871472D01*
X101172915Y-99870652D01*
X101169131Y-99867487D01*
X101024978Y-99682381D01*
X100842597Y-99448188D01*
X100840218Y-99439556D01*
X100842597Y-99433812D01*
X101169132Y-99014511D01*
X101176918Y-99010090D01*
X101181832Y-99010527D01*
G37*
%TD.AperFunction*%
%TD*%
%TA.AperFunction,Conductor*%
%TO.N,+3V3_L*%
G36*
X104571621Y-99142591D02*
G01*
X105136551Y-99430576D01*
X105142365Y-99437387D01*
X105141661Y-99446314D01*
X105136551Y-99451424D01*
X104571621Y-99739408D01*
X104565015Y-99740612D01*
X104128908Y-99692156D01*
X104121064Y-99687837D01*
X104118500Y-99680528D01*
X104118500Y-99201471D01*
X104121927Y-99193198D01*
X104128906Y-99189843D01*
X104565015Y-99141387D01*
X104571621Y-99142591D01*
G37*
%TD.AperFunction*%
%TD*%
%TA.AperFunction,Conductor*%
%TO.N,+3V3_L*%
G36*
X91272709Y-104405985D02*
G01*
X91273038Y-104406302D01*
X91614201Y-104747465D01*
X91617628Y-104755738D01*
X91614201Y-104764011D01*
X91613702Y-104764481D01*
X91124138Y-105199787D01*
X91115679Y-105202724D01*
X91109725Y-105200678D01*
X90891020Y-105049977D01*
X90681976Y-104905934D01*
X90677109Y-104898419D01*
X90676940Y-104897037D01*
X90648443Y-104438948D01*
X90651349Y-104430479D01*
X90659394Y-104426546D01*
X90659652Y-104426532D01*
X91264310Y-104402884D01*
X91272709Y-104405985D01*
G37*
%TD.AperFunction*%
%TD*%
%TA.AperFunction,Conductor*%
%TO.N,+3V3_L*%
G36*
X94671267Y-97358711D02*
G01*
X94678400Y-97364123D01*
X94680000Y-97370028D01*
X94680000Y-97701971D01*
X94676573Y-97710244D01*
X94671266Y-97713289D01*
X94123783Y-97856777D01*
X94114912Y-97855559D01*
X94110019Y-97849965D01*
X94048260Y-97701971D01*
X93980880Y-97540505D01*
X93980857Y-97531550D01*
X93980856Y-97531550D01*
X94110020Y-97222032D01*
X94116368Y-97215719D01*
X94123783Y-97215222D01*
X94671267Y-97358711D01*
G37*
%TD.AperFunction*%
%TD*%
%TA.AperFunction,Conductor*%
%TO.N,+3V3_L*%
G36*
X94523575Y-97142755D02*
G01*
X94864155Y-97528253D01*
X94867065Y-97536722D01*
X94864155Y-97543747D01*
X94523575Y-97929244D01*
X94515529Y-97933175D01*
X94509552Y-97931951D01*
X94076445Y-97714239D01*
X94070593Y-97707461D01*
X94070000Y-97703785D01*
X94070000Y-97368214D01*
X94073427Y-97359941D01*
X94076443Y-97357760D01*
X94509554Y-97140047D01*
X94518483Y-97139395D01*
X94523575Y-97142755D01*
G37*
%TD.AperFunction*%
%TD*%
%TA.AperFunction,Conductor*%
%TO.N,+3V3_L*%
G36*
X100371783Y-99272586D02*
G01*
X100833713Y-99438499D01*
X100840341Y-99444520D01*
X100840647Y-99445229D01*
X101012177Y-99881536D01*
X101012014Y-99890490D01*
X101007045Y-99896003D01*
X100286787Y-100303075D01*
X100277898Y-100304162D01*
X100272757Y-100301162D01*
X99932142Y-99960547D01*
X99928715Y-99952274D01*
X99930555Y-99945977D01*
X100357973Y-99277296D01*
X100365315Y-99272172D01*
X100371783Y-99272586D01*
G37*
%TD.AperFunction*%
%TD*%
%TA.AperFunction,Conductor*%
%TO.N,+3V3_L*%
G36*
X97276126Y-104459427D02*
G01*
X97279435Y-104466045D01*
X97376097Y-105142683D01*
X97373875Y-105151358D01*
X97366170Y-105155920D01*
X97364548Y-105156038D01*
X97028000Y-105157000D01*
X96691451Y-105156038D01*
X96683187Y-105152587D01*
X96679784Y-105144305D01*
X96679902Y-105142683D01*
X96776565Y-104466045D01*
X96781127Y-104458340D01*
X96788147Y-104456000D01*
X97267853Y-104456000D01*
X97276126Y-104459427D01*
G37*
%TD.AperFunction*%
%TD*%
%TA.AperFunction,Conductor*%
%TO.N,UD-*%
G36*
X96857009Y-87430217D02*
G01*
X97014314Y-87587522D01*
X97017741Y-87595795D01*
X97017641Y-87597323D01*
X96973589Y-87931704D01*
X96972632Y-87935036D01*
X96967834Y-87945542D01*
X96948791Y-88077996D01*
X96944222Y-88085697D01*
X96937234Y-88088031D01*
X96607172Y-88088697D01*
X96598892Y-88085287D01*
X96364451Y-87849502D01*
X96361049Y-87841222D01*
X96364500Y-87832958D01*
X96365179Y-87832333D01*
X96841181Y-87429557D01*
X96849708Y-87426830D01*
X96857009Y-87430217D01*
G37*
%TD.AperFunction*%
%TD*%
%TA.AperFunction,Conductor*%
%TO.N,UD-*%
G36*
X97457106Y-86740711D02*
G01*
X97691547Y-86976496D01*
X97694950Y-86984777D01*
X97691499Y-86993041D01*
X97690808Y-86993676D01*
X97214821Y-87396441D01*
X97206291Y-87399169D01*
X97198990Y-87395782D01*
X97041685Y-87238477D01*
X97038258Y-87230204D01*
X97038357Y-87228686D01*
X97082410Y-86894286D01*
X97083363Y-86890969D01*
X97088165Y-86880457D01*
X97107209Y-86747999D01*
X97111777Y-86740301D01*
X97118761Y-86737968D01*
X97448829Y-86737302D01*
X97457106Y-86740711D01*
G37*
%TD.AperFunction*%
%TD*%
%TA.AperFunction,Conductor*%
%TO.N,U2-*%
G36*
X97356208Y-120743005D02*
G01*
X98231633Y-121017112D01*
X98238503Y-121022853D01*
X98239301Y-121031772D01*
X98238948Y-121032746D01*
X98029857Y-121538505D01*
X98023530Y-121544841D01*
X98023505Y-121544852D01*
X97518002Y-121753268D01*
X97509047Y-121753253D01*
X97502725Y-121746911D01*
X97502625Y-121746660D01*
X97121633Y-120758380D01*
X97121855Y-120749428D01*
X97128341Y-120743254D01*
X97132550Y-120742471D01*
X97352713Y-120742471D01*
X97356208Y-120743005D01*
G37*
%TD.AperFunction*%
%TD*%
%TA.AperFunction,Conductor*%
%TO.N,U2-*%
G36*
X87926599Y-118184615D02*
G01*
X88387363Y-118346520D01*
X88394032Y-118352495D01*
X88394700Y-118354226D01*
X88508315Y-118736694D01*
X88507385Y-118745601D01*
X88500431Y-118751242D01*
X88499851Y-118751398D01*
X87652402Y-118956503D01*
X87643555Y-118955118D01*
X87638278Y-118947883D01*
X87637950Y-118945131D01*
X87637950Y-118723845D01*
X87639257Y-118718472D01*
X87828464Y-118352495D01*
X87912327Y-118190279D01*
X87919170Y-118184504D01*
X87926599Y-118184615D01*
G37*
%TD.AperFunction*%
%TD*%
%TA.AperFunction,Conductor*%
%TO.N,U2-*%
G36*
X88866342Y-118185105D02*
G01*
X88871672Y-118190280D01*
X89144743Y-118718472D01*
X89146050Y-118723845D01*
X89146050Y-118945131D01*
X89142623Y-118953404D01*
X89134350Y-118956831D01*
X89131598Y-118956503D01*
X88284148Y-118751398D01*
X88276913Y-118746121D01*
X88275528Y-118737274D01*
X88275684Y-118736694D01*
X88389299Y-118354226D01*
X88394940Y-118347272D01*
X88396629Y-118346522D01*
X88857400Y-118184615D01*
X88866342Y-118185105D01*
G37*
%TD.AperFunction*%
%TD*%
%TA.AperFunction,Conductor*%
%TO.N,U2-*%
G36*
X91659836Y-118565537D02*
G01*
X91660624Y-118565962D01*
X91784923Y-118639520D01*
X91865701Y-118687323D01*
X91871075Y-118694486D01*
X91869811Y-118703351D01*
X91866239Y-118707122D01*
X91662725Y-118843011D01*
X91653942Y-118844755D01*
X91649422Y-118842798D01*
X91602265Y-118809076D01*
X91600798Y-118807832D01*
X91445765Y-118652799D01*
X91442338Y-118644526D01*
X91445765Y-118636253D01*
X91450255Y-118633454D01*
X91650901Y-118564966D01*
X91659836Y-118565537D01*
G37*
%TD.AperFunction*%
%TD*%
%TA.AperFunction,Conductor*%
%TO.N,U2-*%
G36*
X92110757Y-118548470D02*
G01*
X92110756Y-118548470D01*
X92246630Y-118576097D01*
X92254055Y-118581103D01*
X92255999Y-118587562D01*
X92255999Y-118807441D01*
X92252572Y-118815714D01*
X92246630Y-118818906D01*
X92110756Y-118846533D01*
X92101966Y-118844824D01*
X92058107Y-118815714D01*
X91894687Y-118707250D01*
X91889689Y-118699820D01*
X91891409Y-118691032D01*
X91894687Y-118687754D01*
X92101956Y-118550186D01*
X92110742Y-118548467D01*
X92110757Y-118548470D01*
G37*
%TD.AperFunction*%
%TD*%
%TA.AperFunction,Conductor*%
%TO.N,U2-*%
G36*
X85464422Y-117028366D02*
G01*
X85472327Y-117032570D01*
X85473852Y-117034960D01*
X85657835Y-117419380D01*
X85658315Y-117428322D01*
X85652332Y-117434984D01*
X85652300Y-117434999D01*
X85652265Y-117435016D01*
X85037868Y-117724324D01*
X85032884Y-117725439D01*
X84811760Y-117725439D01*
X84803487Y-117722012D01*
X84800060Y-117713739D01*
X84800461Y-117710702D01*
X84993431Y-116992780D01*
X84998887Y-116985682D01*
X85005849Y-116984173D01*
X85464422Y-117028366D01*
G37*
%TD.AperFunction*%
%TD*%
%TA.AperFunction,Conductor*%
%TO.N,U2+*%
G36*
X92110757Y-119248468D02*
G01*
X92110756Y-119248468D01*
X92246630Y-119276095D01*
X92254055Y-119281101D01*
X92255999Y-119287560D01*
X92255999Y-119507439D01*
X92252572Y-119515712D01*
X92246630Y-119518904D01*
X92110756Y-119546531D01*
X92101966Y-119544822D01*
X92060048Y-119517000D01*
X91894687Y-119407247D01*
X91889689Y-119399817D01*
X91891409Y-119391029D01*
X91894683Y-119387754D01*
X92101956Y-119250184D01*
X92110742Y-119248465D01*
X92110757Y-119248468D01*
G37*
%TD.AperFunction*%
%TD*%
%TA.AperFunction,Conductor*%
%TO.N,U2+*%
G36*
X87652395Y-119138497D02*
G01*
X88499851Y-119343603D01*
X88507086Y-119348880D01*
X88508471Y-119357727D01*
X88508315Y-119358307D01*
X88394700Y-119740775D01*
X88389059Y-119747729D01*
X88387363Y-119748481D01*
X87926599Y-119910385D01*
X87917657Y-119909895D01*
X87912327Y-119904720D01*
X87639257Y-119376529D01*
X87637950Y-119371156D01*
X87637950Y-119149870D01*
X87641377Y-119141597D01*
X87649650Y-119138170D01*
X87652395Y-119138497D01*
G37*
%TD.AperFunction*%
%TD*%
%TA.AperFunction,Conductor*%
%TO.N,U2+*%
G36*
X91662723Y-119251989D02*
G01*
X91805643Y-119347418D01*
X91866239Y-119387879D01*
X91871216Y-119395323D01*
X91869472Y-119404106D01*
X91865701Y-119407678D01*
X91660638Y-119529031D01*
X91651773Y-119530295D01*
X91650899Y-119530035D01*
X91450258Y-119461548D01*
X91443536Y-119455632D01*
X91442965Y-119446695D01*
X91445763Y-119442204D01*
X91600804Y-119287163D01*
X91602259Y-119285930D01*
X91649423Y-119252202D01*
X91658145Y-119250178D01*
X91662723Y-119251989D01*
G37*
%TD.AperFunction*%
%TD*%
%TA.AperFunction,Conductor*%
%TO.N,U2+*%
G36*
X84420710Y-116986790D02*
G01*
X84424568Y-116992782D01*
X84617539Y-117710702D01*
X84616377Y-117719581D01*
X84609277Y-117725038D01*
X84606240Y-117725439D01*
X84385116Y-117725439D01*
X84380132Y-117724324D01*
X83765734Y-117435016D01*
X83759709Y-117428391D01*
X83760133Y-117419447D01*
X83760143Y-117419425D01*
X83944147Y-117034959D01*
X83950810Y-117028977D01*
X83953571Y-117028366D01*
X84412148Y-116984173D01*
X84420710Y-116986790D01*
G37*
%TD.AperFunction*%
%TD*%
%TA.AperFunction,Conductor*%
%TO.N,U2+*%
G36*
X96931723Y-120745898D02*
G01*
X96935150Y-120754171D01*
X96934367Y-120758380D01*
X96553374Y-121746660D01*
X96547200Y-121753146D01*
X96538248Y-121753368D01*
X96537997Y-121753268D01*
X96032494Y-121544852D01*
X96026152Y-121538530D01*
X96026142Y-121538505D01*
X95817051Y-121032746D01*
X95817057Y-121023791D01*
X95823393Y-121017464D01*
X95824346Y-121017118D01*
X96699791Y-120743005D01*
X96703287Y-120742471D01*
X96923450Y-120742471D01*
X96931723Y-120745898D01*
G37*
%TD.AperFunction*%
%TD*%
%TA.AperFunction,Conductor*%
%TO.N,U2+*%
G36*
X89140445Y-119139883D02*
G01*
X89145722Y-119147118D01*
X89146050Y-119149870D01*
X89146050Y-119371156D01*
X89144743Y-119376529D01*
X88871672Y-119904720D01*
X88864829Y-119910496D01*
X88857400Y-119910385D01*
X88396636Y-119748481D01*
X88389967Y-119742506D01*
X88389299Y-119740775D01*
X88275684Y-119358307D01*
X88276614Y-119349400D01*
X88283568Y-119343759D01*
X88284121Y-119343610D01*
X89131599Y-119138498D01*
X89140445Y-119139883D01*
G37*
%TD.AperFunction*%
%TD*%
%TA.AperFunction,Conductor*%
%TO.N,U3-*%
G36*
X62023796Y-112575378D02*
G01*
X62351979Y-112975504D01*
X62354576Y-112984074D01*
X62351200Y-112991203D01*
X61993907Y-113347981D01*
X61985632Y-113351402D01*
X61978827Y-113349214D01*
X61510342Y-113013659D01*
X61505612Y-113006055D01*
X61507643Y-112997334D01*
X61508876Y-112995880D01*
X61667611Y-112837145D01*
X61668700Y-112836185D01*
X62007584Y-112573549D01*
X62016221Y-112571191D01*
X62023796Y-112575378D01*
G37*
%TD.AperFunction*%
%TD*%
%TA.AperFunction,Conductor*%
%TO.N,U3-*%
G36*
X46556208Y-120743005D02*
G01*
X47431633Y-121017112D01*
X47438503Y-121022853D01*
X47439301Y-121031772D01*
X47438948Y-121032746D01*
X47229857Y-121538505D01*
X47223530Y-121544841D01*
X47223505Y-121544852D01*
X46718002Y-121753268D01*
X46709047Y-121753253D01*
X46702725Y-121746911D01*
X46702625Y-121746660D01*
X46321633Y-120758380D01*
X46321855Y-120749428D01*
X46328341Y-120743254D01*
X46332550Y-120742471D01*
X46552713Y-120742471D01*
X46556208Y-120743005D01*
G37*
%TD.AperFunction*%
%TD*%
%TA.AperFunction,Conductor*%
%TO.N,U3-*%
G36*
X55851295Y-112541606D02*
G01*
X56189364Y-112911577D01*
X56192415Y-112919996D01*
X56188619Y-112928106D01*
X56188128Y-112928530D01*
X55787675Y-113255624D01*
X55779100Y-113258204D01*
X55773251Y-113255921D01*
X55295882Y-112897690D01*
X55291322Y-112889983D01*
X55293547Y-112881309D01*
X55294625Y-112880066D01*
X55452664Y-112722027D01*
X55455922Y-112719731D01*
X55837651Y-112538923D01*
X55846593Y-112538480D01*
X55851295Y-112541606D01*
G37*
%TD.AperFunction*%
%TD*%
%TA.AperFunction,Conductor*%
%TO.N,U3-*%
G36*
X56556348Y-112538923D02*
G01*
X56938074Y-112719729D01*
X56941338Y-112722030D01*
X57099367Y-112880059D01*
X57102794Y-112888332D01*
X57099367Y-112896605D01*
X57098117Y-112897690D01*
X56620748Y-113255921D01*
X56612074Y-113258146D01*
X56606324Y-113255624D01*
X56205871Y-112928530D01*
X56201631Y-112920643D01*
X56204211Y-112912068D01*
X56204622Y-112911591D01*
X56542706Y-112541604D01*
X56550814Y-112537810D01*
X56556348Y-112538923D01*
G37*
%TD.AperFunction*%
%TD*%
%TA.AperFunction,Conductor*%
%TO.N,U3-*%
G36*
X46584469Y-117871409D02*
G01*
X46587747Y-117874687D01*
X46725313Y-118081955D01*
X46727033Y-118090743D01*
X46727030Y-118090756D01*
X46699404Y-118226630D01*
X46694398Y-118234055D01*
X46687939Y-118235999D01*
X46468059Y-118235999D01*
X46459786Y-118232572D01*
X46456594Y-118226630D01*
X46428967Y-118090756D01*
X46430675Y-118081969D01*
X46568251Y-117874686D01*
X46575681Y-117869689D01*
X46584469Y-117871409D01*
G37*
%TD.AperFunction*%
%TD*%
%TA.AperFunction,Conductor*%
%TO.N,U3-*%
G36*
X46639247Y-117425765D02*
G01*
X46642047Y-117430258D01*
X46710534Y-117630899D01*
X46709963Y-117639836D01*
X46709530Y-117640638D01*
X46588177Y-117845701D01*
X46581014Y-117851075D01*
X46572149Y-117849811D01*
X46568378Y-117846239D01*
X46432489Y-117642725D01*
X46430745Y-117633942D01*
X46432700Y-117629425D01*
X46466429Y-117582259D01*
X46467662Y-117580804D01*
X46622702Y-117425764D01*
X46630974Y-117422338D01*
X46639247Y-117425765D01*
G37*
%TD.AperFunction*%
%TD*%
%TA.AperFunction,Conductor*%
%TO.N,U3+*%
G36*
X56620748Y-111186078D02*
G01*
X57019932Y-111485636D01*
X57079611Y-111530422D01*
X57098117Y-111544309D01*
X57102677Y-111552016D01*
X57100452Y-111560690D01*
X57099367Y-111561940D01*
X56941338Y-111719969D01*
X56938073Y-111722270D01*
X56556349Y-111903075D01*
X56547406Y-111903519D01*
X56542704Y-111900393D01*
X56204635Y-111530422D01*
X56201584Y-111522003D01*
X56205380Y-111513893D01*
X56205858Y-111513480D01*
X56606325Y-111186374D01*
X56614899Y-111183795D01*
X56620748Y-111186078D01*
G37*
%TD.AperFunction*%
%TD*%
%TA.AperFunction,Conductor*%
%TO.N,U3+*%
G36*
X45884471Y-117871409D02*
G01*
X45887749Y-117874687D01*
X46025315Y-118081955D01*
X46027035Y-118090743D01*
X46027032Y-118090756D01*
X45999406Y-118226630D01*
X45994400Y-118234055D01*
X45987941Y-118235999D01*
X45768061Y-118235999D01*
X45759788Y-118232572D01*
X45756596Y-118226630D01*
X45728969Y-118090756D01*
X45730677Y-118081969D01*
X45868253Y-117874686D01*
X45875683Y-117869689D01*
X45884471Y-117871409D01*
G37*
%TD.AperFunction*%
%TD*%
%TA.AperFunction,Conductor*%
%TO.N,U3+*%
G36*
X45833298Y-117425765D02*
G01*
X45988331Y-117580798D01*
X45989575Y-117582265D01*
X46023297Y-117629422D01*
X46025322Y-117638145D01*
X46023510Y-117642725D01*
X45887621Y-117846239D01*
X45880177Y-117851216D01*
X45871394Y-117849472D01*
X45867822Y-117845701D01*
X45861286Y-117834656D01*
X45746468Y-117640636D01*
X45745205Y-117631773D01*
X45745457Y-117630925D01*
X45813953Y-117430256D01*
X45819868Y-117423536D01*
X45828805Y-117422965D01*
X45833298Y-117425765D01*
G37*
%TD.AperFunction*%
%TD*%
%TA.AperFunction,Conductor*%
%TO.N,U3+*%
G36*
X46131723Y-120745898D02*
G01*
X46135150Y-120754171D01*
X46134367Y-120758380D01*
X45753374Y-121746660D01*
X45747200Y-121753146D01*
X45738248Y-121753368D01*
X45737997Y-121753268D01*
X45232494Y-121544852D01*
X45226152Y-121538530D01*
X45226142Y-121538505D01*
X45017051Y-121032746D01*
X45017057Y-121023791D01*
X45023393Y-121017464D01*
X45024346Y-121017118D01*
X45899791Y-120743005D01*
X45903287Y-120742471D01*
X46123450Y-120742471D01*
X46131723Y-120745898D01*
G37*
%TD.AperFunction*%
%TD*%
%TA.AperFunction,Conductor*%
%TO.N,U3+*%
G36*
X61993907Y-111094017D02*
G01*
X62351200Y-111450797D01*
X62354633Y-111459067D01*
X62351979Y-111466495D01*
X62023796Y-111866621D01*
X62015900Y-111870844D01*
X62007583Y-111868449D01*
X61668709Y-111605821D01*
X61667603Y-111604846D01*
X61508882Y-111446125D01*
X61505455Y-111437852D01*
X61508882Y-111429579D01*
X61510337Y-111428343D01*
X61978829Y-111092783D01*
X61987548Y-111090753D01*
X61993907Y-111094017D01*
G37*
%TD.AperFunction*%
%TD*%
%TA.AperFunction,Conductor*%
%TO.N,U3+*%
G36*
X55787675Y-111186375D02*
G01*
X56188128Y-111513469D01*
X56192368Y-111521356D01*
X56189788Y-111529931D01*
X56189364Y-111530422D01*
X55851295Y-111900393D01*
X55843185Y-111904189D01*
X55837650Y-111903075D01*
X55455926Y-111722270D01*
X55452661Y-111719969D01*
X55294632Y-111561940D01*
X55291205Y-111553667D01*
X55294632Y-111545394D01*
X55295874Y-111544315D01*
X55773251Y-111186077D01*
X55781925Y-111183853D01*
X55787675Y-111186375D01*
G37*
%TD.AperFunction*%
%TD*%
%TA.AperFunction,Conductor*%
%TO.N,/U0'+*%
G36*
X100291636Y-107585329D02*
G01*
X100903796Y-107874667D01*
X100909810Y-107881300D01*
X100910157Y-107882454D01*
X100974764Y-108145534D01*
X100975102Y-108148324D01*
X100975102Y-108368383D01*
X100971675Y-108376656D01*
X100963402Y-108380083D01*
X100958915Y-108379188D01*
X100572885Y-108218867D01*
X100566803Y-108213081D01*
X100276072Y-107600928D01*
X100275619Y-107591985D01*
X100281622Y-107585340D01*
X100290565Y-107584887D01*
X100291636Y-107585329D01*
G37*
%TD.AperFunction*%
%TD*%
%TA.AperFunction,Conductor*%
%TO.N,/U0'+*%
G36*
X107082741Y-106519965D02*
G01*
X107526747Y-106698634D01*
X107533143Y-106704901D01*
X107533233Y-106713856D01*
X107533205Y-106713925D01*
X107444851Y-106929482D01*
X107438542Y-106935838D01*
X107438486Y-106935861D01*
X107220924Y-107025590D01*
X107211969Y-107025577D01*
X107206086Y-107020178D01*
X107068000Y-106755041D01*
X107066677Y-106749637D01*
X107066677Y-106530820D01*
X107070104Y-106522547D01*
X107078377Y-106519120D01*
X107082741Y-106519965D01*
G37*
%TD.AperFunction*%
%TD*%
%TA.AperFunction,Conductor*%
%TO.N,/U0'-*%
G36*
X107220922Y-105826408D02*
G01*
X107438486Y-105916138D01*
X107444828Y-105922460D01*
X107444851Y-105922517D01*
X107533205Y-106138074D01*
X107533172Y-106147028D01*
X107526816Y-106153337D01*
X107526747Y-106153365D01*
X107082745Y-106332033D01*
X107073790Y-106331943D01*
X107067523Y-106325547D01*
X107066677Y-106321179D01*
X107066677Y-106102362D01*
X107068000Y-106096958D01*
X107158851Y-105922517D01*
X107206086Y-105831820D01*
X107212947Y-105826066D01*
X107220922Y-105826408D01*
G37*
%TD.AperFunction*%
%TD*%
%TA.AperFunction,Conductor*%
%TO.N,/U0'-*%
G36*
X100858299Y-107018701D02*
G01*
X101470452Y-107309432D01*
X101476238Y-107315514D01*
X101636559Y-107701544D01*
X101636568Y-107710498D01*
X101630241Y-107716836D01*
X101625754Y-107717731D01*
X101405696Y-107717731D01*
X101402906Y-107717393D01*
X101139825Y-107652786D01*
X101132607Y-107647485D01*
X101132042Y-107646434D01*
X100842701Y-107034269D01*
X100842265Y-107025326D01*
X100848280Y-107018692D01*
X100857224Y-107018255D01*
X100858299Y-107018701D01*
G37*
%TD.AperFunction*%
%TD*%
%TA.AperFunction,Conductor*%
%TO.N,L2_R*%
G36*
X111309170Y-118363256D02*
G01*
X111315844Y-118369225D01*
X111317000Y-118374297D01*
X111317000Y-118607702D01*
X111313573Y-118615975D01*
X111309169Y-118618744D01*
X110761355Y-118810707D01*
X110752414Y-118810209D01*
X110746688Y-118804171D01*
X110617880Y-118495505D01*
X110617857Y-118486550D01*
X110617856Y-118486550D01*
X110746688Y-118177827D01*
X110753037Y-118171513D01*
X110761355Y-118171292D01*
X111309170Y-118363256D01*
G37*
%TD.AperFunction*%
%TD*%
%TA.AperFunction,Conductor*%
%TO.N,L2_R*%
G36*
X139132850Y-113916258D02*
G01*
X139146834Y-113922007D01*
X139442191Y-114043436D01*
X139448540Y-114049751D01*
X139448563Y-114049808D01*
X139575741Y-114359149D01*
X139575718Y-114368104D01*
X139569992Y-114374142D01*
X139046891Y-114625765D01*
X139037950Y-114626263D01*
X139033546Y-114623494D01*
X138868505Y-114458453D01*
X138865078Y-114450180D01*
X138866233Y-114445112D01*
X139117858Y-113922005D01*
X139124532Y-113916037D01*
X139132850Y-113916258D01*
G37*
%TD.AperFunction*%
%TD*%
%TA.AperFunction,Conductor*%
%TO.N,L2_G*%
G36*
X138497850Y-113154258D02*
G01*
X138511834Y-113160007D01*
X138807191Y-113281436D01*
X138813540Y-113287751D01*
X138813563Y-113287808D01*
X138940741Y-113597149D01*
X138940718Y-113606104D01*
X138934992Y-113612142D01*
X138411891Y-113863765D01*
X138402950Y-113864263D01*
X138398546Y-113861494D01*
X138233505Y-113696453D01*
X138230078Y-113688180D01*
X138231233Y-113683112D01*
X138482858Y-113160005D01*
X138489532Y-113154037D01*
X138497850Y-113154258D01*
G37*
%TD.AperFunction*%
%TD*%
%TA.AperFunction,Conductor*%
%TO.N,L2_G*%
G36*
X110217888Y-119435233D02*
G01*
X110740992Y-119686857D01*
X110746962Y-119693532D01*
X110746741Y-119701850D01*
X110619563Y-120011191D01*
X110613248Y-120017540D01*
X110613191Y-120017563D01*
X110303850Y-120144741D01*
X110294895Y-120144718D01*
X110288857Y-120138992D01*
X110230436Y-120017540D01*
X110037233Y-119615889D01*
X110036736Y-119606950D01*
X110039503Y-119602548D01*
X110204547Y-119437504D01*
X110212819Y-119434078D01*
X110217888Y-119435233D01*
G37*
%TD.AperFunction*%
%TD*%
%TA.AperFunction,Conductor*%
%TO.N,L2_B*%
G36*
X137991455Y-112265917D02*
G01*
X138301523Y-112393395D01*
X138305371Y-112395967D01*
X138540471Y-112632414D01*
X138543874Y-112640696D01*
X138540423Y-112648960D01*
X138538681Y-112650387D01*
X137980530Y-113023887D01*
X137971748Y-113025640D01*
X137965750Y-113022436D01*
X137800766Y-112857452D01*
X137797339Y-112849179D01*
X137797866Y-112845709D01*
X137975846Y-112273268D01*
X137981574Y-112266387D01*
X137990492Y-112265571D01*
X137991455Y-112265917D01*
G37*
%TD.AperFunction*%
%TD*%
%TA.AperFunction,Conductor*%
%TO.N,L2_B*%
G36*
X107166953Y-120961505D02*
G01*
X107331994Y-121126546D01*
X107335421Y-121134819D01*
X107334265Y-121139891D01*
X107082642Y-121662992D01*
X107075967Y-121668962D01*
X107067649Y-121668741D01*
X106758308Y-121541563D01*
X106751960Y-121535249D01*
X106624757Y-121225850D01*
X106624781Y-121216895D01*
X106630505Y-121210858D01*
X107153610Y-120959233D01*
X107162549Y-120958736D01*
X107166953Y-120961505D01*
G37*
%TD.AperFunction*%
%TD*%
%TA.AperFunction,Conductor*%
%TO.N,L3_R*%
G36*
X135957850Y-111122258D02*
G01*
X135971834Y-111128007D01*
X136267191Y-111249436D01*
X136273540Y-111255751D01*
X136273563Y-111255808D01*
X136400741Y-111565149D01*
X136400718Y-111574104D01*
X136394992Y-111580142D01*
X135871891Y-111831765D01*
X135862950Y-111832263D01*
X135858546Y-111829494D01*
X135693505Y-111664453D01*
X135690078Y-111656180D01*
X135691233Y-111651112D01*
X135942858Y-111128005D01*
X135949532Y-111122037D01*
X135957850Y-111122258D01*
G37*
%TD.AperFunction*%
%TD*%
%TA.AperFunction,Conductor*%
%TO.N,L3_R*%
G36*
X92640170Y-113918256D02*
G01*
X92646844Y-113924225D01*
X92648000Y-113929297D01*
X92648000Y-114162702D01*
X92644573Y-114170975D01*
X92640169Y-114173744D01*
X92092355Y-114365707D01*
X92083414Y-114365209D01*
X92077688Y-114359171D01*
X91948880Y-114050506D01*
X91948857Y-114041551D01*
X91948880Y-114041494D01*
X91995701Y-113929297D01*
X92077688Y-113732827D01*
X92084037Y-113726513D01*
X92092355Y-113726292D01*
X92640170Y-113918256D01*
G37*
%TD.AperFunction*%
%TD*%
%TA.AperFunction,Conductor*%
%TO.N,L3_R*%
G36*
X76648850Y-115186258D02*
G01*
X76662834Y-115192007D01*
X76958191Y-115313436D01*
X76964540Y-115319751D01*
X76964563Y-115319808D01*
X77091741Y-115629149D01*
X77091718Y-115638104D01*
X77085992Y-115644142D01*
X76562891Y-115895765D01*
X76553950Y-115896263D01*
X76549546Y-115893494D01*
X76384505Y-115728453D01*
X76381078Y-115720180D01*
X76382233Y-115715112D01*
X76633858Y-115192005D01*
X76640532Y-115186037D01*
X76648850Y-115186258D01*
G37*
%TD.AperFunction*%
%TD*%
%TA.AperFunction,Conductor*%
%TO.N,L3_R*%
G36*
X62160170Y-117601256D02*
G01*
X62166844Y-117607225D01*
X62168000Y-117612297D01*
X62168000Y-117845702D01*
X62164573Y-117853975D01*
X62160169Y-117856744D01*
X61612355Y-118048707D01*
X61603414Y-118048209D01*
X61597688Y-118042171D01*
X61468880Y-117733506D01*
X61468857Y-117724551D01*
X61468880Y-117724494D01*
X61515701Y-117612297D01*
X61597688Y-117415827D01*
X61604037Y-117409513D01*
X61612355Y-117409292D01*
X62160170Y-117601256D01*
G37*
%TD.AperFunction*%
%TD*%
%TA.AperFunction,Conductor*%
%TO.N,L3_G*%
G36*
X91624170Y-112902256D02*
G01*
X91630844Y-112908225D01*
X91632000Y-112913297D01*
X91632000Y-113146702D01*
X91628573Y-113154975D01*
X91624169Y-113157744D01*
X91076355Y-113349707D01*
X91067414Y-113349209D01*
X91061688Y-113343171D01*
X90932880Y-113034506D01*
X90932857Y-113025551D01*
X90932880Y-113025494D01*
X90979701Y-112913297D01*
X91061688Y-112716827D01*
X91068037Y-112710513D01*
X91076355Y-112710292D01*
X91624170Y-112902256D01*
G37*
%TD.AperFunction*%
%TD*%
%TA.AperFunction,Conductor*%
%TO.N,L3_G*%
G36*
X75632850Y-114170258D02*
G01*
X75646834Y-114176007D01*
X75942191Y-114297436D01*
X75948540Y-114303751D01*
X75948563Y-114303808D01*
X76075741Y-114613149D01*
X76075718Y-114622104D01*
X76069992Y-114628142D01*
X75546891Y-114879765D01*
X75537950Y-114880263D01*
X75533546Y-114877494D01*
X75368505Y-114712453D01*
X75365078Y-114704180D01*
X75366233Y-114699112D01*
X75617858Y-114176005D01*
X75624532Y-114170037D01*
X75632850Y-114170258D01*
G37*
%TD.AperFunction*%
%TD*%
%TA.AperFunction,Conductor*%
%TO.N,L3_G*%
G36*
X63176170Y-116585256D02*
G01*
X63182844Y-116591225D01*
X63184000Y-116596297D01*
X63184000Y-116829702D01*
X63180573Y-116837975D01*
X63176169Y-116840744D01*
X62628355Y-117032707D01*
X62619414Y-117032209D01*
X62613688Y-117026171D01*
X62484880Y-116717506D01*
X62484857Y-116708551D01*
X62484880Y-116708494D01*
X62531701Y-116596297D01*
X62613688Y-116399827D01*
X62620037Y-116393513D01*
X62628355Y-116393292D01*
X63176170Y-116585256D01*
G37*
%TD.AperFunction*%
%TD*%
%TA.AperFunction,Conductor*%
%TO.N,L3_G*%
G36*
X135195850Y-110487258D02*
G01*
X135209834Y-110493007D01*
X135505191Y-110614436D01*
X135511540Y-110620751D01*
X135511563Y-110620808D01*
X135638741Y-110930149D01*
X135638718Y-110939104D01*
X135632992Y-110945142D01*
X135109891Y-111196765D01*
X135100950Y-111197263D01*
X135096546Y-111194494D01*
X134931505Y-111029453D01*
X134928078Y-111021180D01*
X134929233Y-111016112D01*
X135180858Y-110493005D01*
X135187532Y-110487037D01*
X135195850Y-110487258D01*
G37*
%TD.AperFunction*%
%TD*%
%TA.AperFunction,Conductor*%
%TO.N,L3_B*%
G36*
X134433850Y-109852258D02*
G01*
X134447834Y-109858007D01*
X134743191Y-109979436D01*
X134749540Y-109985751D01*
X134749563Y-109985808D01*
X134876741Y-110295149D01*
X134876718Y-110304104D01*
X134870992Y-110310142D01*
X134347891Y-110561765D01*
X134338950Y-110562263D01*
X134334546Y-110559494D01*
X134169505Y-110394453D01*
X134166078Y-110386180D01*
X134167233Y-110381112D01*
X134418858Y-109858005D01*
X134425532Y-109852037D01*
X134433850Y-109852258D01*
G37*
%TD.AperFunction*%
%TD*%
%TA.AperFunction,Conductor*%
%TO.N,L3_B*%
G36*
X74616850Y-113154258D02*
G01*
X74630834Y-113160007D01*
X74926191Y-113281436D01*
X74932540Y-113287751D01*
X74932563Y-113287808D01*
X75059741Y-113597149D01*
X75059718Y-113606104D01*
X75053992Y-113612142D01*
X74530891Y-113863765D01*
X74521950Y-113864263D01*
X74517546Y-113861494D01*
X74352505Y-113696453D01*
X74349078Y-113688180D01*
X74350233Y-113683112D01*
X74601858Y-113160005D01*
X74608532Y-113154037D01*
X74616850Y-113154258D01*
G37*
%TD.AperFunction*%
%TD*%
%TA.AperFunction,Conductor*%
%TO.N,L3_B*%
G36*
X90608170Y-111886256D02*
G01*
X90614844Y-111892225D01*
X90616000Y-111897297D01*
X90616000Y-112130702D01*
X90612573Y-112138975D01*
X90608169Y-112141744D01*
X90060355Y-112333707D01*
X90051414Y-112333209D01*
X90045688Y-112327171D01*
X89916880Y-112018506D01*
X89916857Y-112009551D01*
X89916880Y-112009494D01*
X89963701Y-111897297D01*
X90045688Y-111700827D01*
X90052037Y-111694513D01*
X90060355Y-111694292D01*
X90608170Y-111886256D01*
G37*
%TD.AperFunction*%
%TD*%
%TA.AperFunction,Conductor*%
%TO.N,L3_B*%
G36*
X64192170Y-115569256D02*
G01*
X64198844Y-115575225D01*
X64200000Y-115580297D01*
X64200000Y-115813702D01*
X64196573Y-115821975D01*
X64192169Y-115824744D01*
X63644355Y-116016707D01*
X63635414Y-116016209D01*
X63629688Y-116010171D01*
X63500880Y-115701505D01*
X63500857Y-115692550D01*
X63500856Y-115692550D01*
X63629688Y-115383827D01*
X63636037Y-115377513D01*
X63644355Y-115377292D01*
X64192170Y-115569256D01*
G37*
%TD.AperFunction*%
%TD*%
%TA.AperFunction,Conductor*%
%TO.N,OC1*%
G36*
X115500595Y-125373078D02*
G01*
X115507032Y-125379301D01*
X115508000Y-125383960D01*
X115508000Y-125568039D01*
X115504573Y-125576312D01*
X115500594Y-125578922D01*
X114952612Y-125795146D01*
X114943659Y-125794995D01*
X114937520Y-125788769D01*
X114808880Y-125480505D01*
X114808857Y-125471550D01*
X114808856Y-125471550D01*
X114937520Y-125163229D01*
X114943869Y-125156915D01*
X114952611Y-125156853D01*
X115500595Y-125373078D01*
G37*
%TD.AperFunction*%
%TD*%
%TA.AperFunction,Conductor*%
%TO.N,OC1*%
G36*
X100103686Y-109530766D02*
G01*
X100495144Y-109797302D01*
X100500054Y-109804791D01*
X100498230Y-109813558D01*
X100496865Y-109815213D01*
X100332379Y-109981021D01*
X100328510Y-109983607D01*
X100110413Y-110073004D01*
X100101459Y-110072971D01*
X100095150Y-110066615D01*
X100094948Y-110066086D01*
X99956706Y-109673683D01*
X99957189Y-109664743D01*
X99959465Y-109661527D01*
X100088829Y-109532163D01*
X100097101Y-109528737D01*
X100103686Y-109530766D01*
G37*
%TD.AperFunction*%
%TD*%
%TA.AperFunction,Conductor*%
%TO.N,OC1*%
G36*
X99160561Y-108716033D02*
G01*
X99773306Y-109006449D01*
X99779161Y-109012684D01*
X99906601Y-109331935D01*
X99906486Y-109340889D01*
X99904008Y-109344546D01*
X99773490Y-109475064D01*
X99765217Y-109478491D01*
X99760879Y-109477657D01*
X99441628Y-109350217D01*
X99435393Y-109344362D01*
X99144977Y-108731617D01*
X99144531Y-108722673D01*
X99150539Y-108716033D01*
X99159483Y-108715587D01*
X99160561Y-108716033D01*
G37*
%TD.AperFunction*%
%TD*%
%TA.AperFunction,Conductor*%
%TO.N,OC1*%
G36*
X139732988Y-114716410D02*
G01*
X139950177Y-114805436D01*
X139956531Y-114811744D01*
X139956564Y-114811823D01*
X140045588Y-115029008D01*
X140045555Y-115037963D01*
X140040083Y-115043866D01*
X139678734Y-115228394D01*
X139669808Y-115229105D01*
X139665140Y-115226247D01*
X139535752Y-115096859D01*
X139532325Y-115088586D01*
X139533604Y-115083268D01*
X139718135Y-114721914D01*
X139724948Y-114716106D01*
X139732988Y-114716410D01*
G37*
%TD.AperFunction*%
%TD*%
%TA.AperFunction,Conductor*%
%TO.N,OC2*%
G36*
X80185892Y-125042944D02*
G01*
X80316055Y-125173107D01*
X80319482Y-125181380D01*
X80318514Y-125186039D01*
X80083927Y-125726414D01*
X80077489Y-125732638D01*
X80068746Y-125732576D01*
X79759808Y-125605563D01*
X79753460Y-125599249D01*
X79626423Y-125290251D01*
X79626446Y-125281298D01*
X79632582Y-125275074D01*
X80172960Y-125040484D01*
X80181913Y-125040334D01*
X80185892Y-125042944D01*
G37*
%TD.AperFunction*%
%TD*%
%TA.AperFunction,Conductor*%
%TO.N,OC2*%
G36*
X138016038Y-111216514D02*
G01*
X138022347Y-111222870D01*
X138022652Y-111230912D01*
X137897622Y-111616905D01*
X137891812Y-111623720D01*
X137886491Y-111625000D01*
X137703509Y-111625000D01*
X137695236Y-111621573D01*
X137692378Y-111616905D01*
X137567347Y-111230912D01*
X137568058Y-111221986D01*
X137573960Y-111216514D01*
X137790484Y-111125889D01*
X137799437Y-111125857D01*
X138016038Y-111216514D01*
G37*
%TD.AperFunction*%
%TD*%
%TA.AperFunction,Conductor*%
%TO.N,OC2*%
G36*
X95476708Y-109287280D02*
G01*
X95477154Y-109296224D01*
X95476708Y-109297302D01*
X95186292Y-109910047D01*
X95180057Y-109915902D01*
X94860806Y-110043342D01*
X94851852Y-110043227D01*
X94848195Y-110040749D01*
X94717677Y-109910231D01*
X94714250Y-109901958D01*
X94715084Y-109897620D01*
X94842525Y-109578367D01*
X94848377Y-109572135D01*
X95461125Y-109281717D01*
X95470068Y-109281272D01*
X95476708Y-109287280D01*
G37*
%TD.AperFunction*%
%TD*%
%TA.AperFunction,Conductor*%
%TO.N,OC2*%
G36*
X106020963Y-114970444D02*
G01*
X106026866Y-114975916D01*
X106211394Y-115337265D01*
X106212105Y-115346191D01*
X106209247Y-115350859D01*
X106079859Y-115480247D01*
X106071586Y-115483674D01*
X106066265Y-115482394D01*
X105796908Y-115344843D01*
X105704915Y-115297865D01*
X105699106Y-115291051D01*
X105699410Y-115283011D01*
X105788436Y-115065821D01*
X105794743Y-115059468D01*
X106012011Y-114970411D01*
X106020963Y-114970444D01*
G37*
%TD.AperFunction*%
%TD*%
%TA.AperFunction,Conductor*%
%TO.N,OC2*%
G36*
X83634251Y-110741422D02*
G01*
X83943191Y-110868436D01*
X83949540Y-110874751D01*
X83949563Y-110874808D01*
X84076576Y-111183746D01*
X84076553Y-111192701D01*
X84070414Y-111198927D01*
X83530039Y-111433514D01*
X83521086Y-111433665D01*
X83517107Y-111431055D01*
X83386944Y-111300892D01*
X83383517Y-111292619D01*
X83384485Y-111287960D01*
X83423136Y-111198927D01*
X83619074Y-110747582D01*
X83625510Y-110741361D01*
X83634251Y-110741422D01*
G37*
%TD.AperFunction*%
%TD*%
%TA.AperFunction,Conductor*%
%TO.N,OC2*%
G36*
X93963906Y-110370878D02*
G01*
X93970720Y-110376687D01*
X93972000Y-110382008D01*
X93972000Y-110564991D01*
X93968573Y-110573264D01*
X93963905Y-110576122D01*
X93577912Y-110701152D01*
X93568986Y-110700441D01*
X93563514Y-110694538D01*
X93472889Y-110478015D01*
X93472857Y-110469063D01*
X93563514Y-110252460D01*
X93569870Y-110246152D01*
X93577911Y-110245847D01*
X93963906Y-110370878D01*
G37*
%TD.AperFunction*%
%TD*%
%TA.AperFunction,Conductor*%
%TO.N,OC3*%
G36*
X75967330Y-124866321D02*
G01*
X75969522Y-124869362D01*
X76263755Y-125457855D01*
X76264390Y-125466787D01*
X76258522Y-125473552D01*
X76257796Y-125473885D01*
X75951203Y-125601830D01*
X75942248Y-125601853D01*
X75942208Y-125601837D01*
X75633480Y-125473564D01*
X75627155Y-125467225D01*
X75627163Y-125458274D01*
X75819954Y-124998383D01*
X75822467Y-124994638D01*
X75950785Y-124866320D01*
X75959057Y-124862894D01*
X75967330Y-124866321D01*
G37*
%TD.AperFunction*%
%TD*%
%TA.AperFunction,Conductor*%
%TO.N,OC3*%
G36*
X93213966Y-107024539D02*
G01*
X93214412Y-107033483D01*
X93213966Y-107034561D01*
X92923550Y-107647306D01*
X92917315Y-107653161D01*
X92598064Y-107780601D01*
X92589110Y-107780486D01*
X92585453Y-107778008D01*
X92454935Y-107647490D01*
X92451508Y-107639217D01*
X92452342Y-107634879D01*
X92579783Y-107315626D01*
X92585635Y-107309394D01*
X93198383Y-107018976D01*
X93207326Y-107018531D01*
X93213966Y-107024539D01*
G37*
%TD.AperFunction*%
%TD*%
%TA.AperFunction,Conductor*%
%TO.N,OC3*%
G36*
X90915906Y-107974378D02*
G01*
X90922720Y-107980187D01*
X90924000Y-107985508D01*
X90924000Y-108168491D01*
X90920573Y-108176764D01*
X90915905Y-108179622D01*
X90529912Y-108304652D01*
X90520986Y-108303941D01*
X90515514Y-108298038D01*
X90464854Y-108177000D01*
X90424889Y-108081515D01*
X90424857Y-108072562D01*
X90515514Y-107855960D01*
X90521870Y-107849652D01*
X90529911Y-107849347D01*
X90915906Y-107974378D01*
G37*
%TD.AperFunction*%
%TD*%
%TA.AperFunction,Conductor*%
%TO.N,OC3*%
G36*
X90327013Y-107850058D02*
G01*
X90332485Y-107855961D01*
X90423109Y-108072482D01*
X90423142Y-108081436D01*
X90423109Y-108081516D01*
X90332485Y-108298038D01*
X90326129Y-108304347D01*
X90318087Y-108304652D01*
X89932095Y-108179622D01*
X89925280Y-108173812D01*
X89924000Y-108168491D01*
X89924000Y-107985508D01*
X89927427Y-107977235D01*
X89932091Y-107974378D01*
X90318088Y-107849347D01*
X90327013Y-107850058D01*
G37*
%TD.AperFunction*%
%TD*%
%TA.AperFunction,Conductor*%
%TO.N,OC3*%
G36*
X137381038Y-110708514D02*
G01*
X137387347Y-110714870D01*
X137387652Y-110722912D01*
X137262622Y-111108905D01*
X137256812Y-111115720D01*
X137251491Y-111117000D01*
X137068509Y-111117000D01*
X137060236Y-111113573D01*
X137057378Y-111108905D01*
X136932347Y-110722912D01*
X136933058Y-110713986D01*
X136938960Y-110708514D01*
X137155484Y-110617889D01*
X137164437Y-110617857D01*
X137381038Y-110708514D01*
G37*
%TD.AperFunction*%
%TD*%
%TA.AperFunction,Conductor*%
%TO.N,OC3*%
G36*
X106782963Y-114589444D02*
G01*
X106788866Y-114594916D01*
X106973394Y-114956265D01*
X106974105Y-114965191D01*
X106971247Y-114969859D01*
X106841859Y-115099247D01*
X106833586Y-115102674D01*
X106828265Y-115101394D01*
X106558908Y-114963843D01*
X106466915Y-114916865D01*
X106461106Y-114910051D01*
X106461410Y-114902011D01*
X106550436Y-114684821D01*
X106556743Y-114678468D01*
X106774011Y-114589411D01*
X106782963Y-114589444D01*
G37*
%TD.AperFunction*%
%TD*%
%TA.AperFunction,Conductor*%
%TO.N,U1+*%
G36*
X147433298Y-117379765D02*
G01*
X147588331Y-117534798D01*
X147589575Y-117536265D01*
X147623297Y-117583422D01*
X147625322Y-117592145D01*
X147623510Y-117596725D01*
X147487621Y-117800239D01*
X147480177Y-117805216D01*
X147471394Y-117803472D01*
X147467822Y-117799701D01*
X147461286Y-117788656D01*
X147346468Y-117594636D01*
X147345205Y-117585773D01*
X147345457Y-117584925D01*
X147413953Y-117384256D01*
X147419868Y-117377536D01*
X147428805Y-117376965D01*
X147433298Y-117379765D01*
G37*
%TD.AperFunction*%
%TD*%
%TA.AperFunction,Conductor*%
%TO.N,U1+*%
G36*
X125318416Y-109318550D02*
G01*
X125657290Y-109581178D01*
X125658396Y-109582153D01*
X125817117Y-109740874D01*
X125820544Y-109749147D01*
X125817117Y-109757420D01*
X125815657Y-109758659D01*
X125347171Y-110094214D01*
X125338450Y-110096245D01*
X125332091Y-110092981D01*
X125299154Y-110060092D01*
X124974798Y-109736201D01*
X124971366Y-109727932D01*
X124974019Y-109720506D01*
X125302204Y-109320376D01*
X125310099Y-109316155D01*
X125318416Y-109318550D01*
G37*
%TD.AperFunction*%
%TD*%
%TA.AperFunction,Conductor*%
%TO.N,U1+*%
G36*
X142509190Y-111395548D02*
G01*
X142510440Y-111396633D01*
X142668469Y-111554662D01*
X142670770Y-111557927D01*
X142851575Y-111939651D01*
X142852019Y-111948594D01*
X142848893Y-111953296D01*
X142478922Y-112291365D01*
X142470503Y-112294416D01*
X142462393Y-112290620D01*
X142461969Y-112290129D01*
X142134875Y-111889676D01*
X142132295Y-111881101D01*
X142134578Y-111875252D01*
X142375158Y-111554662D01*
X142492810Y-111397882D01*
X142500516Y-111393323D01*
X142509190Y-111395548D01*
G37*
%TD.AperFunction*%
%TD*%
%TA.AperFunction,Conductor*%
%TO.N,U1+*%
G36*
X142478431Y-112306212D02*
G01*
X142478922Y-112306636D01*
X142848893Y-112644705D01*
X142852689Y-112652815D01*
X142851575Y-112658350D01*
X142670770Y-113040074D01*
X142668469Y-113043339D01*
X142510440Y-113201368D01*
X142502167Y-113204795D01*
X142493894Y-113201368D01*
X142492809Y-113200118D01*
X142134578Y-112722749D01*
X142132353Y-112714075D01*
X142134873Y-112708327D01*
X142461970Y-112307871D01*
X142469856Y-112303632D01*
X142478431Y-112306212D01*
G37*
%TD.AperFunction*%
%TD*%
%TA.AperFunction,Conductor*%
%TO.N,U1+*%
G36*
X147484471Y-117825409D02*
G01*
X147487749Y-117828687D01*
X147625315Y-118035955D01*
X147627035Y-118044743D01*
X147627032Y-118044756D01*
X147599406Y-118180630D01*
X147594400Y-118188055D01*
X147587941Y-118189999D01*
X147368061Y-118189999D01*
X147359788Y-118186572D01*
X147356596Y-118180630D01*
X147328969Y-118044756D01*
X147330677Y-118035969D01*
X147468253Y-117828686D01*
X147475683Y-117823689D01*
X147484471Y-117825409D01*
G37*
%TD.AperFunction*%
%TD*%
%TA.AperFunction,Conductor*%
%TO.N,U1+*%
G36*
X147731723Y-120699898D02*
G01*
X147735150Y-120708171D01*
X147734367Y-120712380D01*
X147353374Y-121700660D01*
X147347200Y-121707146D01*
X147338248Y-121707368D01*
X147337997Y-121707268D01*
X146832494Y-121498852D01*
X146826152Y-121492530D01*
X146826142Y-121492505D01*
X146617051Y-120986746D01*
X146617057Y-120977791D01*
X146623393Y-120971464D01*
X146624346Y-120971118D01*
X147499791Y-120697005D01*
X147503287Y-120696471D01*
X147723450Y-120696471D01*
X147731723Y-120699898D01*
G37*
%TD.AperFunction*%
%TD*%
%TA.AperFunction,Conductor*%
%TO.N,U1-*%
G36*
X143971105Y-111396633D02*
G01*
X143972190Y-111397883D01*
X144330421Y-111875252D01*
X144332646Y-111883926D01*
X144330124Y-111889676D01*
X144003030Y-112290129D01*
X143995143Y-112294369D01*
X143986568Y-112291789D01*
X143986077Y-112291365D01*
X143616106Y-111953296D01*
X143612310Y-111945186D01*
X143613423Y-111939653D01*
X143794231Y-111557923D01*
X143796527Y-111554665D01*
X143954560Y-111396632D01*
X143962832Y-111393206D01*
X143971105Y-111396633D01*
G37*
%TD.AperFunction*%
%TD*%
%TA.AperFunction,Conductor*%
%TO.N,U1-*%
G36*
X148156208Y-120697005D02*
G01*
X149031633Y-120971112D01*
X149038503Y-120976853D01*
X149039301Y-120985772D01*
X149038948Y-120986746D01*
X148829857Y-121492505D01*
X148823530Y-121498841D01*
X148823505Y-121498852D01*
X148318002Y-121707268D01*
X148309047Y-121707253D01*
X148302725Y-121700911D01*
X148302625Y-121700660D01*
X147921633Y-120712380D01*
X147921855Y-120703428D01*
X147928341Y-120697254D01*
X147932550Y-120696471D01*
X148152713Y-120696471D01*
X148156208Y-120697005D01*
G37*
%TD.AperFunction*%
%TD*%
%TA.AperFunction,Conductor*%
%TO.N,U1-*%
G36*
X148184469Y-117825409D02*
G01*
X148187747Y-117828687D01*
X148325313Y-118035955D01*
X148327033Y-118044743D01*
X148327030Y-118044756D01*
X148299404Y-118180630D01*
X148294398Y-118188055D01*
X148287939Y-118189999D01*
X148068059Y-118189999D01*
X148059786Y-118186572D01*
X148056594Y-118180630D01*
X148028967Y-118044756D01*
X148030675Y-118035969D01*
X148168251Y-117828686D01*
X148175681Y-117823689D01*
X148184469Y-117825409D01*
G37*
%TD.AperFunction*%
%TD*%
%TA.AperFunction,Conductor*%
%TO.N,U1-*%
G36*
X125347169Y-107837783D02*
G01*
X125348892Y-107839017D01*
X125815657Y-108173340D01*
X125820387Y-108180944D01*
X125818356Y-108189665D01*
X125817117Y-108191125D01*
X125658396Y-108349846D01*
X125657290Y-108350821D01*
X125318416Y-108613449D01*
X125309778Y-108615808D01*
X125302203Y-108611621D01*
X125087925Y-108350370D01*
X124974019Y-108211494D01*
X124971423Y-108202925D01*
X124974797Y-108195799D01*
X125332092Y-107839016D01*
X125340366Y-107835596D01*
X125347169Y-107837783D01*
G37*
%TD.AperFunction*%
%TD*%
%TA.AperFunction,Conductor*%
%TO.N,U1-*%
G36*
X148239247Y-117379765D02*
G01*
X148242047Y-117384258D01*
X148310534Y-117584899D01*
X148309963Y-117593836D01*
X148309530Y-117594638D01*
X148188177Y-117799701D01*
X148181014Y-117805075D01*
X148172149Y-117803811D01*
X148168378Y-117800239D01*
X148032489Y-117596725D01*
X148030745Y-117587942D01*
X148032700Y-117583425D01*
X148066429Y-117536259D01*
X148067662Y-117534804D01*
X148222702Y-117379764D01*
X148230974Y-117376338D01*
X148239247Y-117379765D01*
G37*
%TD.AperFunction*%
%TD*%
%TA.AperFunction,Conductor*%
%TO.N,U1-*%
G36*
X144002606Y-112307381D02*
G01*
X144003030Y-112307872D01*
X144330124Y-112708325D01*
X144332704Y-112716900D01*
X144330421Y-112722749D01*
X143972190Y-113200118D01*
X143964483Y-113204678D01*
X143955809Y-113202453D01*
X143954559Y-113201368D01*
X143796530Y-113043339D01*
X143794229Y-113040074D01*
X143641156Y-112716900D01*
X143613423Y-112658349D01*
X143612980Y-112649407D01*
X143616103Y-112644708D01*
X143986078Y-112306635D01*
X143994496Y-112303585D01*
X144002606Y-112307381D01*
G37*
%TD.AperFunction*%
%TD*%
%TA.AperFunction,Conductor*%
%TO.N,BOOTSEL*%
G36*
X142371478Y-88646868D02*
G01*
X142679769Y-88775520D01*
X142686084Y-88781869D01*
X142686146Y-88790612D01*
X142469922Y-89338594D01*
X142463698Y-89345032D01*
X142459039Y-89346000D01*
X142274961Y-89346000D01*
X142266688Y-89342573D01*
X142264078Y-89338594D01*
X142047853Y-88790612D01*
X142048004Y-88781659D01*
X142054228Y-88775520D01*
X142362494Y-88646879D01*
X142371449Y-88646857D01*
X142371478Y-88646868D01*
G37*
%TD.AperFunction*%
%TD*%
%TA.AperFunction,Conductor*%
%TO.N,BOOTSEL*%
G36*
X128318892Y-107262944D02*
G01*
X128449055Y-107393107D01*
X128452482Y-107401380D01*
X128451514Y-107406039D01*
X128216927Y-107946414D01*
X128210489Y-107952638D01*
X128201746Y-107952576D01*
X127892808Y-107825563D01*
X127886460Y-107819249D01*
X127759423Y-107510251D01*
X127759446Y-107501298D01*
X127765582Y-107495074D01*
X128305960Y-107260484D01*
X128314913Y-107260334D01*
X128318892Y-107262944D01*
G37*
%TD.AperFunction*%
%TD*%
%TA.AperFunction,Conductor*%
%TO.N,BOOTSEL*%
G36*
X140699906Y-103605378D02*
G01*
X140706720Y-103611187D01*
X140708000Y-103616508D01*
X140708000Y-103799491D01*
X140704573Y-103807764D01*
X140699905Y-103810622D01*
X140313912Y-103935652D01*
X140304986Y-103934941D01*
X140299514Y-103929038D01*
X140208889Y-103712515D01*
X140208857Y-103703563D01*
X140299514Y-103486960D01*
X140305870Y-103480652D01*
X140313911Y-103480347D01*
X140699906Y-103605378D01*
G37*
%TD.AperFunction*%
%TD*%
%TA.AperFunction,Conductor*%
%TO.N,BOOTSEL*%
G36*
X133170488Y-104683410D02*
G01*
X133387677Y-104772436D01*
X133394031Y-104778744D01*
X133394064Y-104778823D01*
X133483088Y-104996008D01*
X133483055Y-105004963D01*
X133477583Y-105010866D01*
X133116234Y-105195394D01*
X133107308Y-105196105D01*
X133102640Y-105193247D01*
X132973252Y-105063859D01*
X132969825Y-105055586D01*
X132971104Y-105050268D01*
X133155635Y-104688914D01*
X133162448Y-104683106D01*
X133170488Y-104683410D01*
G37*
%TD.AperFunction*%
%TD*%
%TA.AperFunction,Conductor*%
%TO.N,QSPI1*%
G36*
X129978595Y-107720078D02*
G01*
X129985032Y-107726301D01*
X129986000Y-107730960D01*
X129986000Y-107915039D01*
X129982573Y-107923312D01*
X129978594Y-107925922D01*
X129430612Y-108142146D01*
X129421659Y-108141995D01*
X129415520Y-108135769D01*
X129327950Y-107925922D01*
X129286879Y-107827505D01*
X129286857Y-107818551D01*
X129286880Y-107818494D01*
X129415520Y-107510229D01*
X129421869Y-107503915D01*
X129430611Y-107503853D01*
X129978595Y-107720078D01*
G37*
%TD.AperFunction*%
%TD*%
%TA.AperFunction,Conductor*%
%TO.N,QSPI1*%
G36*
X132620988Y-107096410D02*
G01*
X132838177Y-107185436D01*
X132844531Y-107191744D01*
X132844564Y-107191823D01*
X132933588Y-107409008D01*
X132933555Y-107417963D01*
X132928083Y-107423866D01*
X132566734Y-107608394D01*
X132557808Y-107609105D01*
X132553140Y-107606247D01*
X132423752Y-107476859D01*
X132420325Y-107468586D01*
X132421604Y-107463268D01*
X132606135Y-107101914D01*
X132612948Y-107096106D01*
X132620988Y-107096410D01*
G37*
%TD.AperFunction*%
%TD*%
%TA.AperFunction,Conductor*%
%TO.N,PWR_EN0*%
G36*
X102555286Y-105771770D02*
G01*
X102562225Y-105777430D01*
X102563623Y-105782977D01*
X102563623Y-106106772D01*
X102560196Y-106115045D01*
X102551923Y-106118472D01*
X102547452Y-106117584D01*
X101969925Y-105878760D01*
X101963589Y-105872432D01*
X101963584Y-105863478D01*
X102059558Y-105633990D01*
X102065910Y-105627681D01*
X102073713Y-105627299D01*
X102555286Y-105771770D01*
G37*
%TD.AperFunction*%
%TD*%
%TA.AperFunction,Conductor*%
%TO.N,PWR_EN0*%
G36*
X103864732Y-106259604D02*
G01*
X104226084Y-106444134D01*
X104231893Y-106450948D01*
X104231588Y-106458991D01*
X104142564Y-106676176D01*
X104136255Y-106682531D01*
X104136176Y-106682564D01*
X103918991Y-106771588D01*
X103910036Y-106771555D01*
X103904134Y-106766084D01*
X103719604Y-106404733D01*
X103718894Y-106395808D01*
X103721750Y-106391142D01*
X103851141Y-106261751D01*
X103859413Y-106258325D01*
X103864732Y-106259604D01*
G37*
%TD.AperFunction*%
%TD*%
%TA.AperFunction,Conductor*%
%TO.N,PWR_EN1*%
G36*
X100518412Y-108812008D02*
G01*
X100921374Y-108934492D01*
X100928292Y-108940175D01*
X100929164Y-108949088D01*
X100928796Y-108950122D01*
X100839607Y-109167710D01*
X100837021Y-109171579D01*
X100670840Y-109336436D01*
X100662553Y-109339830D01*
X100654294Y-109336370D01*
X100653183Y-109335073D01*
X100376255Y-108959489D01*
X100374103Y-108950797D01*
X100377397Y-108944275D01*
X100506743Y-108814929D01*
X100515015Y-108811503D01*
X100518412Y-108812008D01*
G37*
%TD.AperFunction*%
%TD*%
%TA.AperFunction,Conductor*%
%TO.N,PWR_EN1*%
G36*
X99726246Y-108150348D02*
G01*
X100338991Y-108440764D01*
X100344846Y-108446999D01*
X100472286Y-108766250D01*
X100472171Y-108775204D01*
X100469693Y-108778861D01*
X100339175Y-108909379D01*
X100330902Y-108912806D01*
X100326564Y-108911972D01*
X100007313Y-108784532D01*
X100001078Y-108778677D01*
X99710662Y-108165932D01*
X99710216Y-108156988D01*
X99716224Y-108150348D01*
X99725168Y-108149902D01*
X99726246Y-108150348D01*
G37*
%TD.AperFunction*%
%TD*%
%TA.AperFunction,Conductor*%
%TO.N,PWR_EN2*%
G36*
X77650615Y-119843053D02*
G01*
X77780789Y-119973227D01*
X77784216Y-119981500D01*
X77783191Y-119986288D01*
X77543997Y-120519595D01*
X77537485Y-120525741D01*
X77528873Y-120525628D01*
X77219808Y-120398563D01*
X77213460Y-120392249D01*
X77086485Y-120083402D01*
X77086508Y-120074448D01*
X77092796Y-120068158D01*
X77637834Y-119840529D01*
X77646788Y-119840504D01*
X77650615Y-119843053D01*
G37*
%TD.AperFunction*%
%TD*%
%TA.AperFunction,Conductor*%
%TO.N,PWR_EN2*%
G36*
X84198557Y-109542463D02*
G01*
X84198821Y-109543049D01*
X84326830Y-109849796D01*
X84326853Y-109858751D01*
X84326837Y-109858791D01*
X84198620Y-110167383D01*
X84192281Y-110173708D01*
X84183326Y-110173699D01*
X84183158Y-110173627D01*
X83719790Y-109972558D01*
X83716174Y-109970098D01*
X83587969Y-109841893D01*
X83584542Y-109833620D01*
X83587969Y-109825347D01*
X83591145Y-109823089D01*
X84182933Y-109537020D01*
X84191871Y-109536506D01*
X84198557Y-109542463D01*
G37*
%TD.AperFunction*%
%TD*%
%TA.AperFunction,Conductor*%
%TO.N,PWR_EN2*%
G36*
X91416518Y-110398217D02*
G01*
X91422101Y-110403105D01*
X91623385Y-110747371D01*
X91624603Y-110756241D01*
X91621558Y-110761548D01*
X91457548Y-110925558D01*
X91449275Y-110928985D01*
X91443371Y-110927385D01*
X91099105Y-110726101D01*
X91093692Y-110718967D01*
X91094183Y-110711565D01*
X91183436Y-110493822D01*
X91189743Y-110487468D01*
X91407565Y-110398184D01*
X91416518Y-110398217D01*
G37*
%TD.AperFunction*%
%TD*%
%TA.AperFunction,Conductor*%
%TO.N,PWR_EN2*%
G36*
X96042393Y-109852966D02*
G01*
X96042839Y-109861910D01*
X96042393Y-109862988D01*
X95751788Y-110476132D01*
X95746263Y-110481676D01*
X95444477Y-110625993D01*
X95435535Y-110626471D01*
X95431156Y-110623711D01*
X95266086Y-110458641D01*
X95262659Y-110450368D01*
X95263804Y-110445320D01*
X95408122Y-110143532D01*
X95413663Y-110138010D01*
X96026810Y-109847403D01*
X96035753Y-109846958D01*
X96042393Y-109852966D01*
G37*
%TD.AperFunction*%
%TD*%
%TA.AperFunction,Conductor*%
%TO.N,PWR_ON*%
G36*
X111167887Y-100264440D02*
G01*
X111172780Y-100270034D01*
X111301919Y-100579493D01*
X111301942Y-100588448D01*
X111301919Y-100588505D01*
X111172780Y-100897965D01*
X111166431Y-100904280D01*
X111159016Y-100904777D01*
X110611534Y-100761289D01*
X110604400Y-100755876D01*
X110602800Y-100749971D01*
X110602800Y-100418028D01*
X110606227Y-100409755D01*
X110611531Y-100406711D01*
X111159016Y-100263222D01*
X111167887Y-100264440D01*
G37*
%TD.AperFunction*%
%TD*%
%TA.AperFunction,Conductor*%
%TO.N,PWR_ON*%
G36*
X104310053Y-100213556D02*
G01*
X104317046Y-100219146D01*
X104318500Y-100224794D01*
X104318500Y-100557205D01*
X104315073Y-100565478D01*
X104310052Y-100568444D01*
X103930017Y-100678391D01*
X103921992Y-100677834D01*
X103303908Y-100401682D01*
X103297753Y-100395179D01*
X103297999Y-100386227D01*
X103303908Y-100380318D01*
X103921993Y-100104164D01*
X103930016Y-100103608D01*
X104310053Y-100213556D01*
G37*
%TD.AperFunction*%
%TD*%
%TA.AperFunction,Conductor*%
%TO.N,PWR_ON*%
G36*
X102640007Y-100104165D02*
G01*
X103258091Y-100380318D01*
X103264246Y-100386821D01*
X103264000Y-100395773D01*
X103258091Y-100401682D01*
X102640007Y-100677834D01*
X102631982Y-100678391D01*
X102251948Y-100568444D01*
X102244954Y-100562853D01*
X102243500Y-100557205D01*
X102243500Y-100224794D01*
X102246927Y-100216521D01*
X102251944Y-100213556D01*
X102631983Y-100103608D01*
X102640007Y-100104165D01*
G37*
%TD.AperFunction*%
%TD*%
%TA.AperFunction,Conductor*%
%TO.N,PWR_ON*%
G36*
X100287472Y-100842917D02*
G01*
X100521396Y-101076841D01*
X100524823Y-101085114D01*
X100522859Y-101091602D01*
X100344940Y-101358570D01*
X100340215Y-101362655D01*
X99726246Y-101653651D01*
X99717302Y-101654097D01*
X99710662Y-101648089D01*
X99710216Y-101639145D01*
X99710658Y-101638075D01*
X100001659Y-101024096D01*
X100005741Y-101019374D01*
X100272711Y-100841453D01*
X100281495Y-100839718D01*
X100287472Y-100842917D01*
G37*
%TD.AperFunction*%
%TD*%
%TA.AperFunction,Conductor*%
%TO.N,/UD'+*%
G36*
X96725845Y-95876713D02*
G01*
X96731559Y-95883608D01*
X96731790Y-95884473D01*
X96937264Y-96791410D01*
X96935750Y-96800236D01*
X96928438Y-96805406D01*
X96925853Y-96805695D01*
X96704243Y-96805695D01*
X96699044Y-96804477D01*
X96690493Y-96800236D01*
X96069144Y-96492058D01*
X96063255Y-96485312D01*
X96063723Y-96476666D01*
X96276812Y-96015732D01*
X96283394Y-96009661D01*
X96283954Y-96009471D01*
X96716930Y-95875878D01*
X96725845Y-95876713D01*
G37*
%TD.AperFunction*%
%TD*%
%TA.AperFunction,Conductor*%
%TO.N,/UD'+*%
G36*
X100362922Y-91602408D02*
G01*
X100580486Y-91692138D01*
X100586828Y-91698460D01*
X100586851Y-91698517D01*
X100675205Y-91914074D01*
X100675172Y-91923028D01*
X100668816Y-91929337D01*
X100668747Y-91929365D01*
X100224745Y-92108033D01*
X100215790Y-92107943D01*
X100209523Y-92101547D01*
X100208677Y-92097179D01*
X100208677Y-91878362D01*
X100210000Y-91872958D01*
X100300851Y-91698517D01*
X100348086Y-91607820D01*
X100354947Y-91602066D01*
X100362922Y-91602408D01*
G37*
%TD.AperFunction*%
%TD*%
%TA.AperFunction,Conductor*%
%TO.N,/UD'+*%
G36*
X96633298Y-92652265D02*
G01*
X96788331Y-92807298D01*
X96789575Y-92808765D01*
X96823297Y-92855922D01*
X96825322Y-92864645D01*
X96823510Y-92869225D01*
X96687621Y-93072739D01*
X96680177Y-93077716D01*
X96671394Y-93075972D01*
X96667822Y-93072201D01*
X96661286Y-93061156D01*
X96546468Y-92867136D01*
X96545205Y-92858273D01*
X96545457Y-92857425D01*
X96613953Y-92656756D01*
X96619868Y-92650036D01*
X96628805Y-92649465D01*
X96633298Y-92652265D01*
G37*
%TD.AperFunction*%
%TD*%
%TA.AperFunction,Conductor*%
%TO.N,/UD'+*%
G36*
X96936808Y-96695997D02*
G01*
X96940235Y-96704270D01*
X96940232Y-96704532D01*
X96920304Y-97592577D01*
X96916692Y-97600772D01*
X96908345Y-97604012D01*
X96906614Y-97603844D01*
X96525501Y-97537951D01*
X96517932Y-97533165D01*
X96517278Y-97532125D01*
X96265473Y-97081099D01*
X96264432Y-97072205D01*
X96268044Y-97066539D01*
X96698207Y-96695410D01*
X96705850Y-96692570D01*
X96928535Y-96692570D01*
X96936808Y-96695997D01*
G37*
%TD.AperFunction*%
%TD*%
%TA.AperFunction,Conductor*%
%TO.N,/UD'+*%
G36*
X96926643Y-97279801D02*
G01*
X96971037Y-97336712D01*
X96973287Y-97341625D01*
X96980665Y-97378712D01*
X97040340Y-97468021D01*
X97061927Y-97482445D01*
X97063700Y-97483900D01*
X97163922Y-97584122D01*
X97164874Y-97585199D01*
X97280979Y-97734038D01*
X97283366Y-97742669D01*
X97280027Y-97749507D01*
X97120581Y-97908953D01*
X97115282Y-97911996D01*
X96805013Y-97993548D01*
X96796141Y-97992336D01*
X96792016Y-97988267D01*
X96549340Y-97585199D01*
X96525086Y-97544916D01*
X96523755Y-97536062D01*
X96528671Y-97529113D01*
X96910981Y-97277226D01*
X96919775Y-97275537D01*
X96926643Y-97279801D01*
G37*
%TD.AperFunction*%
%TD*%
%TA.AperFunction,Conductor*%
%TO.N,/UD'+*%
G36*
X96684607Y-93099026D02*
G01*
X96688179Y-93102797D01*
X96809532Y-93307861D01*
X96810796Y-93316726D01*
X96810536Y-93317600D01*
X96742049Y-93518241D01*
X96736133Y-93524963D01*
X96727196Y-93525534D01*
X96722703Y-93522734D01*
X96567670Y-93367701D01*
X96566426Y-93366234D01*
X96532704Y-93319077D01*
X96530679Y-93310354D01*
X96532489Y-93305777D01*
X96668382Y-93102257D01*
X96675824Y-93097282D01*
X96684607Y-93099026D01*
G37*
%TD.AperFunction*%
%TD*%
%TA.AperFunction,Conductor*%
%TO.N,/UD'+*%
G36*
X96353036Y-95073082D02*
G01*
X96353805Y-95073786D01*
X96512234Y-95232215D01*
X96514638Y-95235704D01*
X96708115Y-95667509D01*
X96708371Y-95676460D01*
X96704616Y-95681533D01*
X96286722Y-96006158D01*
X96278086Y-96008527D01*
X96271000Y-96004911D01*
X95901971Y-95610458D01*
X95898821Y-95602076D01*
X95901538Y-95594961D01*
X96336557Y-95074553D01*
X96344490Y-95070405D01*
X96353036Y-95073082D01*
G37*
%TD.AperFunction*%
%TD*%
%TA.AperFunction,Conductor*%
%TO.N,/UD'-*%
G36*
X100224741Y-92295965D02*
G01*
X100668747Y-92474634D01*
X100675143Y-92480901D01*
X100675233Y-92489856D01*
X100675205Y-92489925D01*
X100586851Y-92705482D01*
X100580542Y-92711838D01*
X100580486Y-92711861D01*
X100362924Y-92801590D01*
X100353969Y-92801577D01*
X100348086Y-92796178D01*
X100210000Y-92531041D01*
X100208677Y-92525637D01*
X100208677Y-92306820D01*
X100212104Y-92298547D01*
X100220377Y-92295120D01*
X100224741Y-92295965D01*
G37*
%TD.AperFunction*%
%TD*%
%TA.AperFunction,Conductor*%
%TO.N,/UD'-*%
G36*
X97439247Y-92652265D02*
G01*
X97442047Y-92656758D01*
X97510534Y-92857399D01*
X97509963Y-92866336D01*
X97509530Y-92867138D01*
X97388177Y-93072201D01*
X97381014Y-93077575D01*
X97372149Y-93076311D01*
X97368378Y-93072739D01*
X97232489Y-92869225D01*
X97230745Y-92860442D01*
X97232700Y-92855925D01*
X97266429Y-92808759D01*
X97267662Y-92807304D01*
X97422702Y-92652264D01*
X97430974Y-92648838D01*
X97439247Y-92652265D01*
G37*
%TD.AperFunction*%
%TD*%
%TA.AperFunction,Conductor*%
%TO.N,/UD'-*%
G36*
X97718740Y-95073786D02*
G01*
X97719444Y-95074555D01*
X98154461Y-95594961D01*
X98157138Y-95603507D01*
X98154028Y-95610458D01*
X97784999Y-96004911D01*
X97776844Y-96008612D01*
X97769277Y-96006158D01*
X97555572Y-95840150D01*
X97351382Y-95681532D01*
X97346952Y-95673751D01*
X97347883Y-95667512D01*
X97541362Y-95235701D01*
X97543762Y-95232218D01*
X97702195Y-95073785D01*
X97710467Y-95070359D01*
X97718740Y-95073786D01*
G37*
%TD.AperFunction*%
%TD*%
%TA.AperFunction,Conductor*%
%TO.N,/UD'-*%
G36*
X97339066Y-95875876D02*
G01*
X97772017Y-96009462D01*
X97778912Y-96015176D01*
X97779187Y-96015732D01*
X97992276Y-96476666D01*
X97992637Y-96485614D01*
X97986855Y-96492058D01*
X97484272Y-96741329D01*
X97383302Y-96791410D01*
X97356956Y-96804477D01*
X97351757Y-96805695D01*
X97130147Y-96805695D01*
X97121874Y-96802268D01*
X97118447Y-96793995D01*
X97118736Y-96791410D01*
X97186557Y-96492058D01*
X97324209Y-95884472D01*
X97329379Y-95877161D01*
X97338205Y-95875647D01*
X97339066Y-95875876D01*
G37*
%TD.AperFunction*%
%TD*%
%TA.AperFunction,Conductor*%
%TO.N,/UD'-*%
G36*
X97383848Y-93098688D02*
G01*
X97387619Y-93102260D01*
X97523508Y-93305774D01*
X97525252Y-93314557D01*
X97523295Y-93319077D01*
X97489573Y-93366234D01*
X97488329Y-93367701D01*
X97333296Y-93522734D01*
X97325023Y-93526161D01*
X97316750Y-93522734D01*
X97313950Y-93518241D01*
X97262565Y-93367701D01*
X97245463Y-93317597D01*
X97246034Y-93308663D01*
X97246453Y-93307885D01*
X97367820Y-93102797D01*
X97374983Y-93097424D01*
X97383848Y-93098688D01*
G37*
%TD.AperFunction*%
%TD*%
%TA.AperFunction,Conductor*%
%TO.N,/U1'+*%
G36*
X113207531Y-110098382D02*
G01*
X113356978Y-110290765D01*
X113532158Y-110516277D01*
X113534527Y-110524913D01*
X113530911Y-110531999D01*
X113136458Y-110901028D01*
X113128076Y-110904178D01*
X113120961Y-110901461D01*
X112670501Y-110524913D01*
X112600554Y-110466443D01*
X112596405Y-110458509D01*
X112599082Y-110449963D01*
X112599775Y-110449205D01*
X112758218Y-110290762D01*
X112761701Y-110288362D01*
X113193511Y-110094883D01*
X113202460Y-110094628D01*
X113207531Y-110098382D01*
G37*
%TD.AperFunction*%
%TD*%
%TA.AperFunction,Conductor*%
%TO.N,/U1'+*%
G36*
X113882488Y-110094883D02*
G01*
X114314295Y-110288361D01*
X114317784Y-110290765D01*
X114476213Y-110449194D01*
X114479640Y-110457467D01*
X114476213Y-110465740D01*
X114475444Y-110466444D01*
X113955038Y-110901461D01*
X113946492Y-110904138D01*
X113939541Y-110901028D01*
X113545088Y-110531999D01*
X113541387Y-110523844D01*
X113543840Y-110516278D01*
X113868468Y-110098381D01*
X113876248Y-110093952D01*
X113882488Y-110094883D01*
G37*
%TD.AperFunction*%
%TD*%
%TA.AperFunction,Conductor*%
%TO.N,/U1'+*%
G36*
X122983796Y-109320378D02*
G01*
X123311979Y-109720504D01*
X123314576Y-109729074D01*
X123311200Y-109736203D01*
X122953907Y-110092981D01*
X122945632Y-110096402D01*
X122938827Y-110094214D01*
X122470342Y-109758659D01*
X122465612Y-109751055D01*
X122467643Y-109742334D01*
X122468876Y-109740880D01*
X122627611Y-109582145D01*
X122628700Y-109581185D01*
X122967584Y-109318549D01*
X122976221Y-109316191D01*
X122983796Y-109320378D01*
G37*
%TD.AperFunction*%
%TD*%
%TA.AperFunction,Conductor*%
%TO.N,/U1'-*%
G36*
X113136458Y-108648971D02*
G01*
X113530911Y-109018000D01*
X113534612Y-109026155D01*
X113532158Y-109033722D01*
X113207533Y-109451616D01*
X113199751Y-109456047D01*
X113193509Y-109455115D01*
X112761704Y-109261638D01*
X112758215Y-109259234D01*
X112599786Y-109100805D01*
X112596359Y-109092532D01*
X112599786Y-109084259D01*
X112600538Y-109083569D01*
X113120961Y-108648537D01*
X113129507Y-108645861D01*
X113136458Y-108648971D01*
G37*
%TD.AperFunction*%
%TD*%
%TA.AperFunction,Conductor*%
%TO.N,/U1'-*%
G36*
X113955038Y-108648538D02*
G01*
X114260843Y-108904166D01*
X114475444Y-109083555D01*
X114479594Y-109091490D01*
X114476917Y-109100036D01*
X114476213Y-109100805D01*
X114317784Y-109259234D01*
X114314295Y-109261638D01*
X113882490Y-109455115D01*
X113873539Y-109455371D01*
X113868467Y-109451617D01*
X113595354Y-109100036D01*
X113543841Y-109033722D01*
X113541472Y-109025086D01*
X113545088Y-109018000D01*
X113939542Y-108648970D01*
X113947923Y-108645821D01*
X113955038Y-108648538D01*
G37*
%TD.AperFunction*%
%TD*%
%TA.AperFunction,Conductor*%
%TO.N,/U1'-*%
G36*
X122953907Y-107839017D02*
G01*
X123311200Y-108195797D01*
X123314633Y-108204067D01*
X123311979Y-108211495D01*
X122983796Y-108611621D01*
X122975900Y-108615844D01*
X122967583Y-108613449D01*
X122628709Y-108350821D01*
X122627603Y-108349846D01*
X122468882Y-108191125D01*
X122465455Y-108182852D01*
X122468882Y-108174579D01*
X122470337Y-108173343D01*
X122938829Y-107837783D01*
X122947548Y-107835753D01*
X122953907Y-107839017D01*
G37*
%TD.AperFunction*%
%TD*%
%TA.AperFunction,Conductor*%
%TO.N,/U2'+*%
G36*
X84406845Y-113715713D02*
G01*
X84412559Y-113722608D01*
X84412790Y-113723473D01*
X84618264Y-114630410D01*
X84616750Y-114639236D01*
X84609438Y-114644406D01*
X84606853Y-114644695D01*
X84385243Y-114644695D01*
X84380044Y-114643477D01*
X84371493Y-114639236D01*
X83750144Y-114331058D01*
X83744255Y-114324312D01*
X83744723Y-114315666D01*
X83957812Y-113854732D01*
X83964394Y-113848661D01*
X83964954Y-113848471D01*
X84397930Y-113714878D01*
X84406845Y-113715713D01*
G37*
%TD.AperFunction*%
%TD*%
%TA.AperFunction,Conductor*%
%TO.N,/U2'+*%
G36*
X84615126Y-113060732D02*
G01*
X84618553Y-113069005D01*
X84618264Y-113071590D01*
X84412790Y-113978525D01*
X84407620Y-113985837D01*
X84398794Y-113987351D01*
X84397930Y-113987120D01*
X83964983Y-113853537D01*
X83958087Y-113847823D01*
X83957812Y-113847267D01*
X83744723Y-113386333D01*
X83744362Y-113377385D01*
X83750142Y-113370942D01*
X84380044Y-113058522D01*
X84385243Y-113057305D01*
X84606853Y-113057305D01*
X84615126Y-113060732D01*
G37*
%TD.AperFunction*%
%TD*%
%TA.AperFunction,Conductor*%
%TO.N,/U2'+*%
G36*
X84614504Y-114690427D02*
G01*
X84617931Y-114698700D01*
X84617528Y-114701744D01*
X84424575Y-115417923D01*
X84419114Y-115425020D01*
X84412138Y-115426523D01*
X83953572Y-115381643D01*
X83945672Y-115377427D01*
X83944154Y-115375041D01*
X83760590Y-114990646D01*
X83760117Y-114981704D01*
X83766105Y-114975046D01*
X84380146Y-114688099D01*
X84385099Y-114687000D01*
X84606231Y-114687000D01*
X84614504Y-114690427D01*
G37*
%TD.AperFunction*%
%TD*%
%TA.AperFunction,Conductor*%
%TO.N,/U2'+*%
G36*
X94344659Y-108155622D02*
G01*
X94345112Y-108164565D01*
X94344668Y-108165641D01*
X94055333Y-108777795D01*
X94048699Y-108783810D01*
X94047545Y-108784157D01*
X93784465Y-108848764D01*
X93781675Y-108849102D01*
X93561617Y-108849102D01*
X93553344Y-108845675D01*
X93549917Y-108837402D01*
X93550812Y-108832915D01*
X93711132Y-108446885D01*
X93716917Y-108440803D01*
X94329072Y-108150071D01*
X94338014Y-108149619D01*
X94344659Y-108155622D01*
G37*
%TD.AperFunction*%
%TD*%
%TA.AperFunction,Conductor*%
%TO.N,/U2'-*%
G36*
X94911307Y-108722280D02*
G01*
X94911744Y-108731224D01*
X94911298Y-108732299D01*
X94620567Y-109344452D01*
X94614485Y-109350238D01*
X94228456Y-109510559D01*
X94219502Y-109510568D01*
X94213164Y-109504241D01*
X94212269Y-109499754D01*
X94212269Y-109279695D01*
X94212607Y-109276905D01*
X94277214Y-109013823D01*
X94282514Y-109006608D01*
X94283557Y-109006046D01*
X94895730Y-108716701D01*
X94904673Y-108716265D01*
X94911307Y-108722280D01*
G37*
%TD.AperFunction*%
%TD*%
%TA.AperFunction,Conductor*%
%TO.N,/U2'-*%
G36*
X85037955Y-113058522D02*
G01*
X85667855Y-113370941D01*
X85673744Y-113377687D01*
X85673276Y-113386333D01*
X85460187Y-113847267D01*
X85453605Y-113853338D01*
X85453016Y-113853537D01*
X85020069Y-113987120D01*
X85011154Y-113986285D01*
X85005440Y-113979389D01*
X85005209Y-113978525D01*
X84937031Y-113677595D01*
X84799736Y-113071589D01*
X84801250Y-113062764D01*
X84808562Y-113057594D01*
X84811147Y-113057305D01*
X85032757Y-113057305D01*
X85037955Y-113058522D01*
G37*
%TD.AperFunction*%
%TD*%
%TA.AperFunction,Conductor*%
%TO.N,/U2'-*%
G36*
X85037853Y-114688099D02*
G01*
X85651804Y-114975004D01*
X85657849Y-114981611D01*
X85657451Y-114990557D01*
X85657409Y-114990646D01*
X85473845Y-115375041D01*
X85467187Y-115381030D01*
X85464427Y-115381643D01*
X85005860Y-115426523D01*
X84997292Y-115423919D01*
X84993423Y-115417923D01*
X84800472Y-114701744D01*
X84801629Y-114692864D01*
X84808725Y-114687403D01*
X84811769Y-114687000D01*
X85032901Y-114687000D01*
X85037853Y-114688099D01*
G37*
%TD.AperFunction*%
%TD*%
%TA.AperFunction,Conductor*%
%TO.N,/U2'-*%
G36*
X85020066Y-113714876D02*
G01*
X85453017Y-113848462D01*
X85459912Y-113854176D01*
X85460187Y-113854732D01*
X85673276Y-114315666D01*
X85673637Y-114324614D01*
X85667855Y-114331058D01*
X85165273Y-114580329D01*
X85064302Y-114630410D01*
X85037956Y-114643477D01*
X85032757Y-114644695D01*
X84811147Y-114644695D01*
X84802874Y-114641268D01*
X84799447Y-114632995D01*
X84799736Y-114630410D01*
X84867557Y-114331058D01*
X85005209Y-113723472D01*
X85010379Y-113716161D01*
X85019205Y-113714647D01*
X85020066Y-113714876D01*
G37*
%TD.AperFunction*%
%TD*%
%TA.AperFunction,Conductor*%
%TO.N,/U3'+*%
G36*
X69251038Y-111094538D02*
G01*
X69556843Y-111350166D01*
X69771444Y-111529555D01*
X69775594Y-111537490D01*
X69772917Y-111546036D01*
X69772213Y-111546805D01*
X69613784Y-111705234D01*
X69610295Y-111707638D01*
X69178490Y-111901115D01*
X69169539Y-111901371D01*
X69164467Y-111897617D01*
X68891354Y-111546036D01*
X68839841Y-111479722D01*
X68837472Y-111471086D01*
X68841088Y-111464000D01*
X69235542Y-111094970D01*
X69243923Y-111091821D01*
X69251038Y-111094538D01*
G37*
%TD.AperFunction*%
%TD*%
%TA.AperFunction,Conductor*%
%TO.N,/U3'+*%
G36*
X68432458Y-111094971D02*
G01*
X68826911Y-111464000D01*
X68830612Y-111472155D01*
X68828158Y-111479722D01*
X68503533Y-111897616D01*
X68495751Y-111902047D01*
X68489509Y-111901115D01*
X68057704Y-111707638D01*
X68054215Y-111705234D01*
X67895786Y-111546805D01*
X67892359Y-111538532D01*
X67895786Y-111530259D01*
X67896538Y-111529569D01*
X68416961Y-111094537D01*
X68425507Y-111091861D01*
X68432458Y-111094971D01*
G37*
%TD.AperFunction*%
%TD*%
%TA.AperFunction,Conductor*%
%TO.N,/U3'+*%
G36*
X92103741Y-105879404D02*
G01*
X92281326Y-106025369D01*
X92285542Y-106033270D01*
X92282936Y-106041837D01*
X92282669Y-106042150D01*
X91634289Y-106776757D01*
X91626245Y-106780692D01*
X91617775Y-106777787D01*
X91617244Y-106777288D01*
X91461047Y-106621091D01*
X91457620Y-106612818D01*
X91457696Y-106611493D01*
X91489633Y-106334202D01*
X91493983Y-106326378D01*
X91494171Y-106326232D01*
X92089285Y-105879088D01*
X92097957Y-105876859D01*
X92103741Y-105879404D01*
G37*
%TD.AperFunction*%
%TD*%
%TA.AperFunction,Conductor*%
%TO.N,/U3'+*%
G36*
X64387169Y-111092783D02*
G01*
X64388892Y-111094017D01*
X64855657Y-111428340D01*
X64860387Y-111435944D01*
X64858356Y-111444665D01*
X64857117Y-111446125D01*
X64698396Y-111604846D01*
X64697290Y-111605821D01*
X64358416Y-111868449D01*
X64349778Y-111870808D01*
X64342203Y-111866621D01*
X64127925Y-111605370D01*
X64014019Y-111466494D01*
X64011423Y-111457925D01*
X64014797Y-111450799D01*
X64372092Y-111094016D01*
X64380366Y-111090596D01*
X64387169Y-111092783D01*
G37*
%TD.AperFunction*%
%TD*%
%TA.AperFunction,Conductor*%
%TO.N,/U3'-*%
G36*
X64358416Y-112573550D02*
G01*
X64697290Y-112836178D01*
X64698396Y-112837153D01*
X64857117Y-112995874D01*
X64860544Y-113004147D01*
X64857117Y-113012420D01*
X64855657Y-113013659D01*
X64387171Y-113349214D01*
X64378450Y-113351245D01*
X64372091Y-113347981D01*
X64339154Y-113315092D01*
X64014798Y-112991201D01*
X64011366Y-112982932D01*
X64014019Y-112975506D01*
X64342204Y-112575376D01*
X64350099Y-112571155D01*
X64358416Y-112573550D01*
G37*
%TD.AperFunction*%
%TD*%
%TA.AperFunction,Conductor*%
%TO.N,/U3'-*%
G36*
X69178488Y-112540883D02*
G01*
X69610295Y-112734361D01*
X69613784Y-112736765D01*
X69772213Y-112895194D01*
X69775640Y-112903467D01*
X69772213Y-112911740D01*
X69771444Y-112912444D01*
X69251038Y-113347461D01*
X69242492Y-113350138D01*
X69235541Y-113347028D01*
X68841088Y-112977999D01*
X68837387Y-112969844D01*
X68839840Y-112962278D01*
X69164468Y-112544381D01*
X69172248Y-112539952D01*
X69178488Y-112540883D01*
G37*
%TD.AperFunction*%
%TD*%
%TA.AperFunction,Conductor*%
%TO.N,/U3'-*%
G36*
X68503531Y-112544382D02*
G01*
X68652978Y-112736765D01*
X68828158Y-112962277D01*
X68830527Y-112970913D01*
X68826911Y-112977999D01*
X68432458Y-113347028D01*
X68424076Y-113350178D01*
X68416961Y-113347461D01*
X67966501Y-112970913D01*
X67896554Y-112912443D01*
X67892405Y-112904509D01*
X67895082Y-112895963D01*
X67895775Y-112895205D01*
X68054218Y-112736762D01*
X68057701Y-112734362D01*
X68489511Y-112540883D01*
X68498460Y-112540628D01*
X68503531Y-112544382D01*
G37*
%TD.AperFunction*%
%TD*%
%TA.AperFunction,Conductor*%
%TO.N,/U3'-*%
G36*
X92510251Y-106254245D02*
G01*
X92510518Y-106254558D01*
X92656483Y-106432145D01*
X92659089Y-106440712D01*
X92656798Y-106446602D01*
X92209697Y-107041658D01*
X92201988Y-107046214D01*
X92201682Y-107046253D01*
X91924408Y-107078188D01*
X91915797Y-107075730D01*
X91914796Y-107074838D01*
X91758599Y-106918641D01*
X91755172Y-106910368D01*
X91758599Y-106902095D01*
X91759100Y-106901623D01*
X92493737Y-106253214D01*
X92502207Y-106250310D01*
X92510251Y-106254245D01*
G37*
%TD.AperFunction*%
%TD*%
%TA.AperFunction,Conductor*%
%TO.N,PWR_EN3*%
G36*
X76380615Y-119843053D02*
G01*
X76510789Y-119973227D01*
X76514216Y-119981500D01*
X76513191Y-119986288D01*
X76273997Y-120519595D01*
X76267485Y-120525741D01*
X76258873Y-120525628D01*
X75949808Y-120398563D01*
X75943460Y-120392249D01*
X75816485Y-120083402D01*
X75816508Y-120074448D01*
X75822796Y-120068158D01*
X76367834Y-119840529D01*
X76376788Y-119840504D01*
X76380615Y-119843053D01*
G37*
%TD.AperFunction*%
%TD*%
%TA.AperFunction,Conductor*%
%TO.N,PWR_EN3*%
G36*
X93779651Y-107590224D02*
G01*
X93780097Y-107599168D01*
X93779651Y-107600246D01*
X93489235Y-108212991D01*
X93483000Y-108218846D01*
X93163749Y-108346286D01*
X93154795Y-108346171D01*
X93151138Y-108343693D01*
X93020620Y-108213175D01*
X93017193Y-108204902D01*
X93018027Y-108200564D01*
X93145468Y-107881311D01*
X93151320Y-107875079D01*
X93764068Y-107584661D01*
X93773011Y-107584216D01*
X93779651Y-107590224D01*
G37*
%TD.AperFunction*%
%TD*%
%TA.AperFunction,Conductor*%
%TO.N,OC0*%
G36*
X103408013Y-107215058D02*
G01*
X103413485Y-107220961D01*
X103504109Y-107437483D01*
X103504142Y-107446437D01*
X103504109Y-107446517D01*
X103413485Y-107663038D01*
X103407129Y-107669347D01*
X103399087Y-107669652D01*
X103013095Y-107544622D01*
X103006280Y-107538812D01*
X103005000Y-107533491D01*
X103005000Y-107350508D01*
X103008427Y-107342235D01*
X103013091Y-107339378D01*
X103399088Y-107214347D01*
X103408013Y-107215058D01*
G37*
%TD.AperFunction*%
%TD*%
%TA.AperFunction,Conductor*%
%TO.N,OC0*%
G36*
X101423302Y-106453291D02*
G01*
X102036047Y-106743707D01*
X102041902Y-106749942D01*
X102169342Y-107069193D01*
X102169227Y-107078147D01*
X102166749Y-107081804D01*
X102036231Y-107212322D01*
X102027958Y-107215749D01*
X102023620Y-107214915D01*
X101704369Y-107087475D01*
X101698134Y-107081620D01*
X101407718Y-106468875D01*
X101407272Y-106459931D01*
X101413280Y-106453291D01*
X101422224Y-106452845D01*
X101423302Y-106453291D01*
G37*
%TD.AperFunction*%
%TD*%
%TA.AperFunction,Conductor*%
%TO.N,+3V3_PI*%
G36*
X134379311Y-93631901D02*
G01*
X135055955Y-93728565D01*
X135063660Y-93733127D01*
X135066000Y-93740147D01*
X135066000Y-94219852D01*
X135062573Y-94228125D01*
X135055955Y-94231434D01*
X134379316Y-94328097D01*
X134370641Y-94325875D01*
X134366079Y-94318170D01*
X134365961Y-94316556D01*
X134365000Y-93980000D01*
X134365961Y-93643449D01*
X134369412Y-93635187D01*
X134377694Y-93631784D01*
X134379311Y-93631901D01*
G37*
%TD.AperFunction*%
%TD*%
%TA.AperFunction,Conductor*%
%TO.N,+3V3_PI*%
G36*
X134342145Y-104141606D02*
G01*
X134343551Y-104142668D01*
X134886793Y-104553133D01*
X134891328Y-104560854D01*
X134889075Y-104569520D01*
X134888037Y-104570716D01*
X134650707Y-104809407D01*
X134412087Y-105046666D01*
X134403805Y-105050069D01*
X134395541Y-105046618D01*
X134394452Y-105045354D01*
X134218876Y-104809407D01*
X133986500Y-104497129D01*
X133984311Y-104488448D01*
X133987612Y-104481875D01*
X134326820Y-104142667D01*
X134335092Y-104139241D01*
X134342145Y-104141606D01*
G37*
%TD.AperFunction*%
%TD*%
%TA.AperFunction,Conductor*%
%TO.N,+3V3_PI*%
G36*
X134904494Y-104570743D02*
G01*
X134905557Y-104571973D01*
X135315662Y-105118779D01*
X135317884Y-105127454D01*
X135314575Y-105134072D01*
X134975372Y-105473275D01*
X134967099Y-105476702D01*
X134960079Y-105474362D01*
X134413273Y-105064257D01*
X134408711Y-105056552D01*
X134410933Y-105047877D01*
X134411978Y-105046667D01*
X134649293Y-104807993D01*
X134887951Y-104570694D01*
X134896230Y-104567293D01*
X134904494Y-104570743D01*
G37*
%TD.AperFunction*%
%TD*%
%TA.AperFunction,Conductor*%
%TO.N,+3V3_PI*%
G36*
X134898139Y-104698528D02*
G01*
X135055150Y-104741654D01*
X135562998Y-104881144D01*
X135570067Y-104886640D01*
X135571395Y-104894594D01*
X135484730Y-105354277D01*
X135479830Y-105361772D01*
X135478863Y-105362365D01*
X135041177Y-105602637D01*
X135032276Y-105603614D01*
X135026802Y-105600154D01*
X134936943Y-105499063D01*
X134545353Y-105058522D01*
X134542419Y-105050064D01*
X134545825Y-105042479D01*
X134886768Y-104701536D01*
X134895040Y-104698110D01*
X134898139Y-104698528D01*
G37*
%TD.AperFunction*%
%TD*%
%TA.AperFunction,Conductor*%
%TO.N,+3V3_PI*%
G36*
X66421494Y-118507043D02*
G01*
X66422557Y-118508273D01*
X66832662Y-119055079D01*
X66834884Y-119063754D01*
X66831575Y-119070372D01*
X66492372Y-119409575D01*
X66484099Y-119413002D01*
X66477079Y-119410662D01*
X65930273Y-119000557D01*
X65925711Y-118992852D01*
X65927933Y-118984177D01*
X65928978Y-118982967D01*
X66166293Y-118744293D01*
X66404951Y-118506994D01*
X66413230Y-118503593D01*
X66421494Y-118507043D01*
G37*
%TD.AperFunction*%
%TD*%
%TA.AperFunction,Conductor*%
%TO.N,+3V3_PI*%
G36*
X127706372Y-103297424D02*
G01*
X128045575Y-103636627D01*
X128049002Y-103644900D01*
X128046662Y-103651920D01*
X127636557Y-104198726D01*
X127628852Y-104203288D01*
X127620177Y-104201066D01*
X127618953Y-104200007D01*
X127380293Y-103962707D01*
X127142995Y-103724049D01*
X127139593Y-103715769D01*
X127143044Y-103707505D01*
X127144264Y-103706449D01*
X127691080Y-103296336D01*
X127699754Y-103294115D01*
X127706372Y-103297424D01*
G37*
%TD.AperFunction*%
%TD*%
%TA.AperFunction,Conductor*%
%TO.N,+3V3_PI*%
G36*
X138681555Y-105808671D02*
G01*
X138681856Y-105809333D01*
X138811091Y-106119022D01*
X138811993Y-106123561D01*
X138811029Y-106460857D01*
X138807578Y-106469121D01*
X138800732Y-106472440D01*
X138180052Y-106547417D01*
X138171428Y-106545007D01*
X138167033Y-106537204D01*
X138166949Y-106535801D01*
X138166949Y-106056280D01*
X138170376Y-106048007D01*
X138173476Y-106045785D01*
X138665890Y-105803341D01*
X138674826Y-105802762D01*
X138681555Y-105808671D01*
G37*
%TD.AperFunction*%
%TD*%
%TA.AperFunction,Conductor*%
%TO.N,+3V3_PI*%
G36*
X144393126Y-100090427D02*
G01*
X144396435Y-100097045D01*
X144493097Y-100773683D01*
X144490875Y-100782358D01*
X144483170Y-100786920D01*
X144481548Y-100787038D01*
X144145000Y-100788000D01*
X143808451Y-100787038D01*
X143800187Y-100783587D01*
X143796784Y-100775305D01*
X143796902Y-100773683D01*
X143893565Y-100097045D01*
X143898127Y-100089340D01*
X143905147Y-100087000D01*
X144384853Y-100087000D01*
X144393126Y-100090427D01*
G37*
%TD.AperFunction*%
%TD*%
%TA.AperFunction,Conductor*%
%TO.N,+3V3_PI*%
G36*
X135491008Y-105365063D02*
G01*
X135910125Y-105690639D01*
X135914556Y-105698421D01*
X135914408Y-105702233D01*
X135847865Y-106026168D01*
X135844677Y-106032087D01*
X135503991Y-106372773D01*
X135495718Y-106376200D01*
X135487445Y-106372773D01*
X135485805Y-106370715D01*
X135119188Y-105785938D01*
X135117697Y-105777108D01*
X135120296Y-105772019D01*
X135475025Y-105366598D01*
X135483052Y-105362629D01*
X135491008Y-105365063D01*
G37*
%TD.AperFunction*%
%TD*%
%TA.AperFunction,Conductor*%
%TO.N,+3V3_PI*%
G36*
X139156949Y-96900961D02*
G01*
X139165212Y-96904412D01*
X139168615Y-96912694D01*
X139168497Y-96914316D01*
X139071835Y-97590955D01*
X139067273Y-97598660D01*
X139060253Y-97601000D01*
X138580547Y-97601000D01*
X138572274Y-97597573D01*
X138568965Y-97590955D01*
X138472302Y-96914316D01*
X138474524Y-96905641D01*
X138482229Y-96901079D01*
X138483842Y-96900961D01*
X138820400Y-96900000D01*
X139156949Y-96900961D01*
G37*
%TD.AperFunction*%
%TD*%
%TA.AperFunction,Conductor*%
%TO.N,+3V3_PI*%
G36*
X139070239Y-96880427D02*
G01*
X139073066Y-96885002D01*
X139261599Y-97450869D01*
X139260963Y-97459801D01*
X139257230Y-97464137D01*
X138817888Y-97773154D01*
X138809150Y-97775111D01*
X138804218Y-97773004D01*
X138371432Y-97454188D01*
X138366803Y-97446522D01*
X138367363Y-97440804D01*
X138567614Y-96884736D01*
X138573641Y-96878113D01*
X138578622Y-96877000D01*
X139061966Y-96877000D01*
X139070239Y-96880427D01*
G37*
%TD.AperFunction*%
%TD*%
%TA.AperFunction,Conductor*%
%TO.N,+3V3_PI*%
G36*
X134614126Y-93283427D02*
G01*
X134617435Y-93290045D01*
X134714097Y-93966683D01*
X134711875Y-93975358D01*
X134704170Y-93979920D01*
X134702548Y-93980038D01*
X134366000Y-93981000D01*
X134029451Y-93980038D01*
X134021187Y-93976587D01*
X134017784Y-93968305D01*
X134017902Y-93966683D01*
X134114565Y-93290045D01*
X134119127Y-93282340D01*
X134126147Y-93280000D01*
X134605853Y-93280000D01*
X134614126Y-93283427D01*
G37*
%TD.AperFunction*%
%TD*%
%TA.AperFunction,Conductor*%
%TO.N,+3V3_PI*%
G36*
X97657495Y-114882871D02*
G01*
X97783941Y-114935495D01*
X98151480Y-115088458D01*
X98157800Y-115094800D01*
X98158219Y-115102520D01*
X97905449Y-115973561D01*
X97899853Y-115980551D01*
X97894213Y-115982000D01*
X97411787Y-115982000D01*
X97403514Y-115978573D01*
X97400551Y-115973561D01*
X97147780Y-115102518D01*
X97148765Y-115093619D01*
X97154517Y-115088459D01*
X97648504Y-114882870D01*
X97657458Y-114882856D01*
X97657495Y-114882871D01*
G37*
%TD.AperFunction*%
%TD*%
%TA.AperFunction,Conductor*%
%TO.N,+3V3_PI*%
G36*
X139314358Y-89570124D02*
G01*
X139318920Y-89577829D01*
X139319038Y-89579451D01*
X139320000Y-89916000D01*
X139319038Y-90252548D01*
X139315587Y-90260812D01*
X139307305Y-90264215D01*
X139305683Y-90264097D01*
X138629045Y-90167435D01*
X138621340Y-90162873D01*
X138619000Y-90155853D01*
X138619000Y-89676147D01*
X138622427Y-89667874D01*
X138629045Y-89664565D01*
X139305684Y-89567902D01*
X139314358Y-89570124D01*
G37*
%TD.AperFunction*%
%TD*%
%TA.AperFunction,Conductor*%
%TO.N,+3V3_PI*%
G36*
X139154832Y-97346527D02*
G01*
X139167665Y-97350512D01*
X139727770Y-97524444D01*
X139734654Y-97530171D01*
X139736000Y-97535618D01*
X139736000Y-98018381D01*
X139732573Y-98026654D01*
X139727770Y-98029555D01*
X139154832Y-98207472D01*
X139145915Y-98206652D01*
X139142131Y-98203487D01*
X138815598Y-97784188D01*
X138813218Y-97775555D01*
X138815596Y-97769813D01*
X139142132Y-97350511D01*
X139149918Y-97346090D01*
X139154832Y-97346527D01*
G37*
%TD.AperFunction*%
%TD*%
%TA.AperFunction,Conductor*%
%TO.N,+3V3_PI*%
G36*
X134194293Y-97535960D02*
G01*
X134202555Y-97539411D01*
X134205958Y-97547693D01*
X134205807Y-97549531D01*
X134142036Y-97943113D01*
X134096662Y-98223162D01*
X134096593Y-98223585D01*
X134091887Y-98231204D01*
X134085044Y-98233414D01*
X133605331Y-98233414D01*
X133597058Y-98229987D01*
X133593721Y-98223162D01*
X133509635Y-97549110D01*
X133512011Y-97540477D01*
X133519797Y-97536052D01*
X133521207Y-97535962D01*
X133858000Y-97535000D01*
X134194293Y-97535960D01*
G37*
%TD.AperFunction*%
%TD*%
%TA.AperFunction,Conductor*%
%TO.N,+3V3_PI*%
G36*
X134094655Y-97706427D02*
G01*
X134097556Y-97711230D01*
X134275472Y-98284167D01*
X134274652Y-98293084D01*
X134271487Y-98296868D01*
X133852189Y-98623401D01*
X133843556Y-98625781D01*
X133837811Y-98623401D01*
X133418512Y-98296868D01*
X133414090Y-98289081D01*
X133414527Y-98284167D01*
X133592444Y-97711230D01*
X133598171Y-97704346D01*
X133603618Y-97703000D01*
X134086382Y-97703000D01*
X134094655Y-97706427D01*
G37*
%TD.AperFunction*%
%TD*%
%TA.AperFunction,Conductor*%
%TO.N,+3V3_PI*%
G36*
X139059126Y-105424627D02*
G01*
X139062435Y-105431245D01*
X139159097Y-106107883D01*
X139156875Y-106116558D01*
X139149170Y-106121120D01*
X139147548Y-106121238D01*
X138811000Y-106122200D01*
X138474451Y-106121238D01*
X138466187Y-106117787D01*
X138462784Y-106109505D01*
X138462902Y-106107883D01*
X138559565Y-105431245D01*
X138564127Y-105423540D01*
X138571147Y-105421200D01*
X139050853Y-105421200D01*
X139059126Y-105424627D01*
G37*
%TD.AperFunction*%
%TD*%
%TA.AperFunction,Conductor*%
%TO.N,+3V3_PI*%
G36*
X138817833Y-105108918D02*
G01*
X139119984Y-105326390D01*
X139253925Y-105422794D01*
X139258638Y-105430408D01*
X139258145Y-105436121D01*
X139063727Y-105997131D01*
X139057780Y-106003826D01*
X139052672Y-106005000D01*
X138569328Y-106005000D01*
X138561055Y-106001573D01*
X138558273Y-105997131D01*
X138363854Y-105436121D01*
X138364383Y-105427182D01*
X138368072Y-105422795D01*
X138804165Y-105108918D01*
X138812882Y-105106867D01*
X138817833Y-105108918D01*
G37*
%TD.AperFunction*%
%TD*%
%TA.AperFunction,Conductor*%
%TO.N,+3V3_PI*%
G36*
X142190122Y-101101854D02*
G01*
X142751132Y-101296273D01*
X142757826Y-101302219D01*
X142759000Y-101307327D01*
X142759000Y-101790672D01*
X142755573Y-101798945D01*
X142751131Y-101801727D01*
X142190122Y-101996145D01*
X142181183Y-101995616D01*
X142176795Y-101991925D01*
X141862919Y-101555835D01*
X141860867Y-101547118D01*
X141862919Y-101542165D01*
X142176795Y-101106073D01*
X142184409Y-101101361D01*
X142190122Y-101101854D01*
G37*
%TD.AperFunction*%
%TD*%
%TA.AperFunction,Conductor*%
%TO.N,+3V3_PI*%
G36*
X139068526Y-96204427D02*
G01*
X139071835Y-96211045D01*
X139168497Y-96887683D01*
X139166275Y-96896358D01*
X139158570Y-96900920D01*
X139156948Y-96901038D01*
X138820400Y-96902000D01*
X138483851Y-96901038D01*
X138475587Y-96897587D01*
X138472184Y-96889305D01*
X138472302Y-96887683D01*
X138568965Y-96211045D01*
X138573527Y-96203340D01*
X138580547Y-96201000D01*
X139060253Y-96201000D01*
X139068526Y-96204427D01*
G37*
%TD.AperFunction*%
%TD*%
%TA.AperFunction,Conductor*%
%TO.N,+3V3_PI*%
G36*
X130511549Y-96087961D02*
G01*
X130519812Y-96091412D01*
X130523215Y-96099694D01*
X130523097Y-96101316D01*
X130426435Y-96777955D01*
X130421873Y-96785660D01*
X130414853Y-96788000D01*
X129935147Y-96788000D01*
X129926874Y-96784573D01*
X129923565Y-96777955D01*
X129826902Y-96101316D01*
X129829124Y-96092641D01*
X129836829Y-96088079D01*
X129838442Y-96087961D01*
X130175000Y-96087000D01*
X130511549Y-96087961D01*
G37*
%TD.AperFunction*%
%TD*%
%TA.AperFunction,Conductor*%
%TO.N,+3V3_PI*%
G36*
X143905822Y-100547933D02*
G01*
X143907045Y-100548991D01*
X144145707Y-100786293D01*
X144383003Y-101024949D01*
X144386406Y-101033230D01*
X144382955Y-101041494D01*
X144381726Y-101042557D01*
X143834920Y-101452662D01*
X143826245Y-101454884D01*
X143819627Y-101451575D01*
X143480424Y-101112372D01*
X143476997Y-101104099D01*
X143479336Y-101097080D01*
X143889443Y-100550271D01*
X143897147Y-100545711D01*
X143905822Y-100547933D01*
G37*
%TD.AperFunction*%
%TD*%
%TA.AperFunction,Conductor*%
%TO.N,+3V3_PI*%
G36*
X136412822Y-121680933D02*
G01*
X136414045Y-121681991D01*
X136652707Y-121919293D01*
X136890003Y-122157949D01*
X136893406Y-122166230D01*
X136889955Y-122174494D01*
X136888726Y-122175557D01*
X136341920Y-122585662D01*
X136333245Y-122587884D01*
X136326627Y-122584575D01*
X135987424Y-122245372D01*
X135983997Y-122237099D01*
X135986336Y-122230080D01*
X136396443Y-121683271D01*
X136404147Y-121678711D01*
X136412822Y-121680933D01*
G37*
%TD.AperFunction*%
%TD*%
%TA.AperFunction,Conductor*%
%TO.N,/OSC_USB1*%
G36*
X94295120Y-100326342D02*
G01*
X94301616Y-100328935D01*
X94614371Y-100453782D01*
X94620606Y-100459637D01*
X94911022Y-101072382D01*
X94911468Y-101081326D01*
X94905460Y-101087966D01*
X94896516Y-101088412D01*
X94895438Y-101087966D01*
X94282693Y-100797550D01*
X94276838Y-100791315D01*
X94149398Y-100472064D01*
X94149513Y-100463110D01*
X94151988Y-100459456D01*
X94282510Y-100328934D01*
X94290782Y-100325508D01*
X94295120Y-100326342D01*
G37*
%TD.AperFunction*%
%TD*%
%TA.AperFunction,Conductor*%
%TO.N,/OSC_USB1*%
G36*
X89846595Y-100227078D02*
G01*
X89853032Y-100233301D01*
X89854000Y-100237960D01*
X89854000Y-100422039D01*
X89850573Y-100430312D01*
X89846594Y-100432922D01*
X89298612Y-100649146D01*
X89289659Y-100648995D01*
X89283520Y-100642769D01*
X89195950Y-100432922D01*
X89154879Y-100334505D01*
X89154857Y-100325551D01*
X89154880Y-100325494D01*
X89283520Y-100017229D01*
X89289869Y-100010915D01*
X89298611Y-100010853D01*
X89846595Y-100227078D01*
G37*
%TD.AperFunction*%
%TD*%
%TA.AperFunction,Conductor*%
%TO.N,/CC1*%
G36*
X103065251Y-88516422D02*
G01*
X103374191Y-88643436D01*
X103380540Y-88649751D01*
X103380563Y-88649808D01*
X103507576Y-88958746D01*
X103507553Y-88967701D01*
X103501414Y-88973927D01*
X102961039Y-89208514D01*
X102952086Y-89208665D01*
X102948107Y-89206055D01*
X102817944Y-89075892D01*
X102814517Y-89067619D01*
X102815485Y-89062960D01*
X102854136Y-88973927D01*
X103050074Y-88522582D01*
X103056510Y-88516361D01*
X103065251Y-88516422D01*
G37*
%TD.AperFunction*%
%TD*%
%TA.AperFunction,Conductor*%
%TO.N,/CC1*%
G36*
X98307478Y-88088868D02*
G01*
X98615769Y-88217520D01*
X98622084Y-88223869D01*
X98622146Y-88232612D01*
X98405922Y-88780594D01*
X98399698Y-88787032D01*
X98395039Y-88788000D01*
X98210961Y-88788000D01*
X98202688Y-88784573D01*
X98200078Y-88780594D01*
X97983853Y-88232612D01*
X97984004Y-88223659D01*
X97990228Y-88217520D01*
X98298494Y-88088879D01*
X98307449Y-88088857D01*
X98307478Y-88088868D01*
G37*
%TD.AperFunction*%
%TD*%
%TA.AperFunction,Conductor*%
%TO.N,/OSC_USB2'*%
G36*
X93610004Y-100993666D02*
G01*
X93931282Y-101034340D01*
X93939060Y-101038778D01*
X93939535Y-101039438D01*
X94337720Y-101634198D01*
X94339475Y-101642979D01*
X94334507Y-101650429D01*
X94325726Y-101652184D01*
X94323395Y-101651464D01*
X93743091Y-101403163D01*
X93738030Y-101399001D01*
X93598873Y-101194982D01*
X93596839Y-101188389D01*
X93596839Y-101005274D01*
X93600266Y-100997001D01*
X93608539Y-100993574D01*
X93610004Y-100993666D01*
G37*
%TD.AperFunction*%
%TD*%
%TA.AperFunction,Conductor*%
%TO.N,/OSC_USB2'*%
G36*
X90599892Y-101801944D02*
G01*
X90730055Y-101932107D01*
X90733482Y-101940380D01*
X90732514Y-101945039D01*
X90497927Y-102485414D01*
X90491489Y-102491638D01*
X90482746Y-102491576D01*
X90173808Y-102364563D01*
X90167460Y-102358249D01*
X90040423Y-102049251D01*
X90040446Y-102040298D01*
X90046582Y-102034074D01*
X90586960Y-101799484D01*
X90595913Y-101799334D01*
X90599892Y-101801944D01*
G37*
%TD.AperFunction*%
%TD*%
%TA.AperFunction,Conductor*%
%TO.N,Earth*%
G36*
X93976702Y-102065490D02*
G01*
X93977805Y-102066776D01*
X94264294Y-102454379D01*
X94266456Y-102463069D01*
X94263158Y-102469606D01*
X94029920Y-102702844D01*
X94021647Y-102706271D01*
X94014693Y-102703980D01*
X93627090Y-102417491D01*
X93622473Y-102409818D01*
X93624635Y-102401128D01*
X93625728Y-102399852D01*
X93792279Y-102231965D01*
X93960158Y-102065422D01*
X93968443Y-102062030D01*
X93976702Y-102065490D01*
G37*
%TD.AperFunction*%
%TD*%
M02*
