  0
SECTION
  2
HEADER
  9
$ANGBASE
  50
0.0
  9
$ANGDIR
  70
1
  9
$MEASUREMENT
  70
1
  0
ENDSEC
  0
SECTION
  2
TABLES
  0
TABLE
  2
LTYPE
  70
4
  0
LTYPE
  5
40F
  2
CONTINUOUS
  70
0
  3
Solid line
  72
65
  73
0
  40
0.0
  0
LTYPE
  5
410
  2
DASHDOT
 70
0
  3
Dash Dot ____ _ ____ _
 72
65
 73
4
 40
2.0
 49
1.25
 49
-0.25
 49
0.25
 49
-0.25
  0
LTYPE
  5
411
  2
DASHED
 70
0
  3
Dashed __ __ __ __ __
 72
65
 73
2
 40
0.75
 49
0.5
 49
-0.25
  0
LTYPE
  5
43B
  2
DOTTED
 70
0
  3
Dotted .  .  .  .
 72
65
 73
2
 40
0.2
 49
0.0
 49
-0.2
  0
ENDTAB
  0
TABLE
  2
STYLE
  70
4
  0
STYLE
  2
KICAD
  70
0
  40
0
  41
1
  42
1
  50
0
  71
0
  3
isocp.shx
  0
STYLE
  2
KICADB
  70
0
  40
0
  41
1
  42
1
  50
0
  71
0
  3
isocp.shx
  0
STYLE
  2
KICADI
  70
0
  40
0
  41
1
  42
1
  50
15
  71
0
  3
isocp.shx
  0
STYLE
  2
KICADBI
  70
0
  40
0
  41
1
  42
1
  50
15
  71
0
  3
isocp.shx
  0
ENDTAB
  0
TABLE
  2
LAYER
  70
1
  0
LAYER
  2
BLACK
  70
0
  62
7
  6
CONTINUOUS
  0
ENDTAB
  0
ENDSEC
  0
SECTION
  2
ENTITIES
0
LINE
8
BLACK
6
CONTINUOUS
10
38.608
20
-132.588
11
155.448
21
-132.588
0
LINE
8
BLACK
6
CONTINUOUS
10
38.608
20
-81.788
11
155.448
21
-81.788
0
LINE
8
BLACK
6
CONTINUOUS
10
33.528
20
-86.868
11
33.528
21
-127.508
0
LINE
8
BLACK
6
CONTINUOUS
10
38.608
20
-132.588
11
33.528
21
-127.508
0
LINE
8
BLACK
6
CONTINUOUS
10
33.528
20
-86.868
11
38.608
21
-81.788
0
LINE
8
BLACK
6
CONTINUOUS
10
155.448
20
-81.788
11
160.528
21
-86.868
0
LINE
8
BLACK
6
CONTINUOUS
10
160.528
20
-127.508
11
155.448
21
-132.588
0
LINE
8
BLACK
6
CONTINUOUS
10
160.528
20
-127.508
11
160.528
21
-86.868
0
LINE
8
BLACK
6
CONTINUOUS
10
62.628
20
-86.003
11
65.628
21
-89.003
0
LINE
8
BLACK
6
CONTINUOUS
10
65.628
20
-86.003
11
62.628
21
-89.003
0
LINE
8
BLACK
6
CONTINUOUS
10
62.628
20
-125.373
11
65.628
21
-128.373
0
LINE
8
BLACK
6
CONTINUOUS
10
65.628
20
-125.373
11
62.628
21
-128.373
0
LINE
8
BLACK
6
CONTINUOUS
10
128.428
20
-86.003
11
131.428
21
-89.003
0
LINE
8
BLACK
6
CONTINUOUS
10
131.428
20
-86.003
11
128.428
21
-89.003
0
LINE
8
BLACK
6
CONTINUOUS
10
128.428
20
-125.373
11
131.428
21
-128.373
0
LINE
8
BLACK
6
CONTINUOUS
10
131.428
20
-125.373
11
128.428
21
-128.373
0
LINE
8
BLACK
6
CONTINUOUS
10
35.9542
20
-135.763
11
35.9542
21
-133.763
0
LINE
8
BLACK
6
CONTINUOUS
10
35.9542
20
-133.763
11
36.4304
21
-133.763
0
LINE
8
BLACK
6
CONTINUOUS
10
36.4304
20
-133.763
11
36.7161
21
-133.858
0
LINE
8
BLACK
6
CONTINUOUS
10
36.7161
20
-133.858
11
36.9066
21
-134.049
0
LINE
8
BLACK
6
CONTINUOUS
10
36.9066
20
-134.049
11
37.0018
21
-134.239
0
LINE
8
BLACK
6
CONTINUOUS
10
37.0018
20
-134.239
11
37.097
21
-134.62
0
LINE
8
BLACK
6
CONTINUOUS
10
37.097
20
-134.62
11
37.097
21
-134.906
0
LINE
8
BLACK
6
CONTINUOUS
10
37.097
20
-134.906
11
37.0018
21
-135.287
0
LINE
8
BLACK
6
CONTINUOUS
10
37.0018
20
-135.287
11
36.9066
21
-135.478
0
LINE
8
BLACK
6
CONTINUOUS
10
36.9066
20
-135.478
11
36.7161
21
-135.668
0
LINE
8
BLACK
6
CONTINUOUS
10
36.7161
20
-135.668
11
36.4304
21
-135.763
0
LINE
8
BLACK
6
CONTINUOUS
10
36.4304
20
-135.763
11
35.9542
21
-135.763
0
LINE
8
BLACK
6
CONTINUOUS
10
37.9542
20
-135.763
11
37.9542
21
-134.43
0
LINE
8
BLACK
6
CONTINUOUS
10
37.9542
20
-134.811
11
38.0494
21
-134.62
0
LINE
8
BLACK
6
CONTINUOUS
10
38.0494
20
-134.62
11
38.1447
21
-134.525
0
LINE
8
BLACK
6
CONTINUOUS
10
38.1447
20
-134.525
11
38.3351
21
-134.43
0
LINE
8
BLACK
6
CONTINUOUS
10
38.3351
20
-134.43
11
38.5256
21
-134.43
0
LINE
8
BLACK
6
CONTINUOUS
10
39.1923
20
-135.763
11
39.1923
21
-134.43
0
LINE
8
BLACK
6
CONTINUOUS
10
39.1923
20
-133.763
11
39.097
21
-133.858
0
LINE
8
BLACK
6
CONTINUOUS
10
39.097
20
-133.858
11
39.1923
21
-133.954
0
LINE
8
BLACK
6
CONTINUOUS
10
39.1923
20
-133.954
11
39.2875
21
-133.858
0
LINE
8
BLACK
6
CONTINUOUS
10
39.2875
20
-133.858
11
39.1923
21
-133.763
0
LINE
8
BLACK
6
CONTINUOUS
10
39.1923
20
-133.763
11
39.1923
21
-133.954
0
LINE
8
BLACK
6
CONTINUOUS
10
40.4304
20
-135.763
11
40.2399
21
-135.668
0
LINE
8
BLACK
6
CONTINUOUS
10
40.2399
20
-135.668
11
40.1447
21
-135.478
0
LINE
8
BLACK
6
CONTINUOUS
10
40.1447
20
-135.478
11
40.1447
21
-133.763
0
LINE
8
BLACK
6
CONTINUOUS
10
41.478
20
-135.763
11
41.2875
21
-135.668
0
LINE
8
BLACK
6
CONTINUOUS
10
41.2875
20
-135.668
11
41.1923
21
-135.478
0
LINE
8
BLACK
6
CONTINUOUS
10
41.1923
20
-135.478
11
41.1923
21
-133.763
0
LINE
8
BLACK
6
CONTINUOUS
10
43.7637
20
-135.763
11
43.7637
21
-133.763
0
LINE
8
BLACK
6
CONTINUOUS
10
43.7637
20
-133.763
11
44.4304
21
-135.192
0
LINE
8
BLACK
6
CONTINUOUS
10
44.4304
20
-135.192
11
45.097
21
-133.763
0
LINE
8
BLACK
6
CONTINUOUS
10
45.097
20
-133.763
11
45.097
21
-135.763
0
LINE
8
BLACK
6
CONTINUOUS
10
46.9066
20
-135.763
11
46.9066
21
-134.716
0
LINE
8
BLACK
6
CONTINUOUS
10
46.9066
20
-134.716
11
46.8113
21
-134.525
0
LINE
8
BLACK
6
CONTINUOUS
10
46.8113
20
-134.525
11
46.6209
21
-134.43
0
LINE
8
BLACK
6
CONTINUOUS
10
46.6209
20
-134.43
11
46.2399
21
-134.43
0
LINE
8
BLACK
6
CONTINUOUS
10
46.2399
20
-134.43
11
46.0494
21
-134.525
0
LINE
8
BLACK
6
CONTINUOUS
10
46.9066
20
-135.668
11
46.7161
21
-135.763
0
LINE
8
BLACK
6
CONTINUOUS
10
46.7161
20
-135.763
11
46.2399
21
-135.763
0
LINE
8
BLACK
6
CONTINUOUS
10
46.2399
20
-135.763
11
46.0494
21
-135.668
0
LINE
8
BLACK
6
CONTINUOUS
10
46.0494
20
-135.668
11
45.9542
21
-135.478
0
LINE
8
BLACK
6
CONTINUOUS
10
45.9542
20
-135.478
11
45.9542
21
-135.287
0
LINE
8
BLACK
6
CONTINUOUS
10
45.9542
20
-135.287
11
46.0494
21
-135.097
0
LINE
8
BLACK
6
CONTINUOUS
10
46.0494
20
-135.097
11
46.2399
21
-135.001
0
LINE
8
BLACK
6
CONTINUOUS
10
46.2399
20
-135.001
11
46.7161
21
-135.001
0
LINE
8
BLACK
6
CONTINUOUS
10
46.7161
20
-135.001
11
46.9066
21
-134.906
0
LINE
8
BLACK
6
CONTINUOUS
10
47.859
20
-134.43
11
47.859
21
-136.43
0
LINE
8
BLACK
6
CONTINUOUS
10
47.859
20
-134.525
11
48.0494
21
-134.43
0
LINE
8
BLACK
6
CONTINUOUS
10
48.0494
20
-134.43
11
48.4304
21
-134.43
0
LINE
8
BLACK
6
CONTINUOUS
10
48.4304
20
-134.43
11
48.6209
21
-134.525
0
LINE
8
BLACK
6
CONTINUOUS
10
48.6209
20
-134.525
11
48.7161
21
-134.62
0
LINE
8
BLACK
6
CONTINUOUS
10
48.7161
20
-134.62
11
48.8113
21
-134.811
0
LINE
8
BLACK
6
CONTINUOUS
10
48.8113
20
-134.811
11
48.8113
21
-135.382
0
LINE
8
BLACK
6
CONTINUOUS
10
48.8113
20
-135.382
11
48.7161
21
-135.573
0
LINE
8
BLACK
6
CONTINUOUS
10
48.7161
20
-135.573
11
48.6209
21
-135.668
0
LINE
8
BLACK
6
CONTINUOUS
10
48.6209
20
-135.668
11
48.4304
21
-135.763
0
LINE
8
BLACK
6
CONTINUOUS
10
48.4304
20
-135.763
11
48.0494
21
-135.763
0
LINE
8
BLACK
6
CONTINUOUS
10
48.0494
20
-135.763
11
47.859
21
-135.668
0
LINE
8
BLACK
6
CONTINUOUS
10
49.6685
20
-135.573
11
49.7637
21
-135.668
0
LINE
8
BLACK
6
CONTINUOUS
10
49.7637
20
-135.668
11
49.6685
21
-135.763
0
LINE
8
BLACK
6
CONTINUOUS
10
49.6685
20
-135.763
11
49.5732
21
-135.668
0
LINE
8
BLACK
6
CONTINUOUS
10
49.5732
20
-135.668
11
49.6685
21
-135.573
0
LINE
8
BLACK
6
CONTINUOUS
10
49.6685
20
-135.573
11
49.6685
21
-135.763
0
LINE
8
BLACK
6
CONTINUOUS
10
49.6685
20
-134.525
11
49.7637
21
-134.62
0
LINE
8
BLACK
6
CONTINUOUS
10
49.7637
20
-134.62
11
49.6685
21
-134.716
0
LINE
8
BLACK
6
CONTINUOUS
10
49.6685
20
-134.716
11
49.5732
21
-134.62
0
LINE
8
BLACK
6
CONTINUOUS
10
49.5732
20
-134.62
11
49.6685
21
-134.525
0
LINE
8
BLACK
6
CONTINUOUS
10
49.6685
20
-134.525
11
49.6685
21
-134.716
0
LINE
8
BLACK
6
CONTINUOUS
10
31.478
20
-138.038
11
33.478
21
-140.038
0
LINE
8
BLACK
6
CONTINUOUS
10
33.478
20
-138.038
11
31.478
21
-140.038
0
LINE
8
BLACK
6
CONTINUOUS
10
35.7637
20
-137.963
11
37.0018
21
-137.963
0
LINE
8
BLACK
6
CONTINUOUS
10
37.0018
20
-137.963
11
36.3351
21
-138.725
0
LINE
8
BLACK
6
CONTINUOUS
10
36.3351
20
-138.725
11
36.6209
21
-138.725
0
LINE
8
BLACK
6
CONTINUOUS
10
36.6209
20
-138.725
11
36.8113
21
-138.82
0
LINE
8
BLACK
6
CONTINUOUS
10
36.8113
20
-138.82
11
36.9066
21
-138.916
0
LINE
8
BLACK
6
CONTINUOUS
10
36.9066
20
-138.916
11
37.0018
21
-139.106
0
LINE
8
BLACK
6
CONTINUOUS
10
37.0018
20
-139.106
11
37.0018
21
-139.582
0
LINE
8
BLACK
6
CONTINUOUS
10
37.0018
20
-139.582
11
36.9066
21
-139.773
0
LINE
8
BLACK
6
CONTINUOUS
10
36.9066
20
-139.773
11
36.8113
21
-139.868
0
LINE
8
BLACK
6
CONTINUOUS
10
36.8113
20
-139.868
11
36.6209
21
-139.963
0
LINE
8
BLACK
6
CONTINUOUS
10
36.6209
20
-139.963
11
36.0494
21
-139.963
0
LINE
8
BLACK
6
CONTINUOUS
10
36.0494
20
-139.963
11
35.859
21
-139.868
0
LINE
8
BLACK
6
CONTINUOUS
10
35.859
20
-139.868
11
35.7637
21
-139.773
0
LINE
8
BLACK
6
CONTINUOUS
10
37.859
20
-139.773
11
37.9542
21
-139.868
0
LINE
8
BLACK
6
CONTINUOUS
10
37.9542
20
-139.868
11
37.859
21
-139.963
0
LINE
8
BLACK
6
CONTINUOUS
10
37.859
20
-139.963
11
37.7637
21
-139.868
0
LINE
8
BLACK
6
CONTINUOUS
10
37.7637
20
-139.868
11
37.859
21
-139.773
0
LINE
8
BLACK
6
CONTINUOUS
10
37.859
20
-139.773
11
37.859
21
-139.963
0
LINE
8
BLACK
6
CONTINUOUS
10
39.1923
20
-137.963
11
39.3828
21
-137.963
0
LINE
8
BLACK
6
CONTINUOUS
10
39.3828
20
-137.963
11
39.5732
21
-138.058
0
LINE
8
BLACK
6
CONTINUOUS
10
39.5732
20
-138.058
11
39.6685
21
-138.154
0
LINE
8
BLACK
6
CONTINUOUS
10
39.6685
20
-138.154
11
39.7637
21
-138.344
0
LINE
8
BLACK
6
CONTINUOUS
10
39.7637
20
-138.344
11
39.859
21
-138.725
0
LINE
8
BLACK
6
CONTINUOUS
10
39.859
20
-138.725
11
39.859
21
-139.201
0
LINE
8
BLACK
6
CONTINUOUS
10
39.859
20
-139.201
11
39.7637
21
-139.582
0
LINE
8
BLACK
6
CONTINUOUS
10
39.7637
20
-139.582
11
39.6685
21
-139.773
0
LINE
8
BLACK
6
CONTINUOUS
10
39.6685
20
-139.773
11
39.5732
21
-139.868
0
LINE
8
BLACK
6
CONTINUOUS
10
39.5732
20
-139.868
11
39.3828
21
-139.963
0
LINE
8
BLACK
6
CONTINUOUS
10
39.3828
20
-139.963
11
39.1923
21
-139.963
0
LINE
8
BLACK
6
CONTINUOUS
10
39.1923
20
-139.963
11
39.0018
21
-139.868
0
LINE
8
BLACK
6
CONTINUOUS
10
39.0018
20
-139.868
11
38.9066
21
-139.773
0
LINE
8
BLACK
6
CONTINUOUS
10
38.9066
20
-139.773
11
38.8113
21
-139.582
0
LINE
8
BLACK
6
CONTINUOUS
10
38.8113
20
-139.582
11
38.7161
21
-139.201
0
LINE
8
BLACK
6
CONTINUOUS
10
38.7161
20
-139.201
11
38.7161
21
-138.725
0
LINE
8
BLACK
6
CONTINUOUS
10
38.7161
20
-138.725
11
38.8113
21
-138.344
0
LINE
8
BLACK
6
CONTINUOUS
10
38.8113
20
-138.344
11
38.9066
21
-138.154
0
LINE
8
BLACK
6
CONTINUOUS
10
38.9066
20
-138.154
11
39.0018
21
-138.058
0
LINE
8
BLACK
6
CONTINUOUS
10
39.0018
20
-138.058
11
39.1923
21
-137.963
0
LINE
8
BLACK
6
CONTINUOUS
10
41.097
20
-137.963
11
41.2875
21
-137.963
0
LINE
8
BLACK
6
CONTINUOUS
10
41.2875
20
-137.963
11
41.478
21
-138.058
0
LINE
8
BLACK
6
CONTINUOUS
10
41.478
20
-138.058
11
41.5732
21
-138.154
0
LINE
8
BLACK
6
CONTINUOUS
10
41.5732
20
-138.154
11
41.6685
21
-138.344
0
LINE
8
BLACK
6
CONTINUOUS
10
41.6685
20
-138.344
11
41.7637
21
-138.725
0
LINE
8
BLACK
6
CONTINUOUS
10
41.7637
20
-138.725
11
41.7637
21
-139.201
0
LINE
8
BLACK
6
CONTINUOUS
10
41.7637
20
-139.201
11
41.6685
21
-139.582
0
LINE
8
BLACK
6
CONTINUOUS
10
41.6685
20
-139.582
11
41.5732
21
-139.773
0
LINE
8
BLACK
6
CONTINUOUS
10
41.5732
20
-139.773
11
41.478
21
-139.868
0
LINE
8
BLACK
6
CONTINUOUS
10
41.478
20
-139.868
11
41.2875
21
-139.963
0
LINE
8
BLACK
6
CONTINUOUS
10
41.2875
20
-139.963
11
41.097
21
-139.963
0
LINE
8
BLACK
6
CONTINUOUS
10
41.097
20
-139.963
11
40.9066
21
-139.868
0
LINE
8
BLACK
6
CONTINUOUS
10
40.9066
20
-139.868
11
40.8113
21
-139.773
0
LINE
8
BLACK
6
CONTINUOUS
10
40.8113
20
-139.773
11
40.7161
21
-139.582
0
LINE
8
BLACK
6
CONTINUOUS
10
40.7161
20
-139.582
11
40.6209
21
-139.201
0
LINE
8
BLACK
6
CONTINUOUS
10
40.6209
20
-139.201
11
40.6209
21
-138.725
0
LINE
8
BLACK
6
CONTINUOUS
10
40.6209
20
-138.725
11
40.7161
21
-138.344
0
LINE
8
BLACK
6
CONTINUOUS
10
40.7161
20
-138.344
11
40.8113
21
-138.154
0
LINE
8
BLACK
6
CONTINUOUS
10
40.8113
20
-138.154
11
40.9066
21
-138.058
0
LINE
8
BLACK
6
CONTINUOUS
10
40.9066
20
-138.058
11
41.097
21
-137.963
0
LINE
8
BLACK
6
CONTINUOUS
10
43.0018
20
-137.963
11
43.1923
21
-137.963
0
LINE
8
BLACK
6
CONTINUOUS
10
43.1923
20
-137.963
11
43.3828
21
-138.058
0
LINE
8
BLACK
6
CONTINUOUS
10
43.3828
20
-138.058
11
43.478
21
-138.154
0
LINE
8
BLACK
6
CONTINUOUS
10
43.478
20
-138.154
11
43.5732
21
-138.344
0
LINE
8
BLACK
6
CONTINUOUS
10
43.5732
20
-138.344
11
43.6685
21
-138.725
0
LINE
8
BLACK
6
CONTINUOUS
10
43.6685
20
-138.725
11
43.6685
21
-139.201
0
LINE
8
BLACK
6
CONTINUOUS
10
43.6685
20
-139.201
11
43.5732
21
-139.582
0
LINE
8
BLACK
6
CONTINUOUS
10
43.5732
20
-139.582
11
43.478
21
-139.773
0
LINE
8
BLACK
6
CONTINUOUS
10
43.478
20
-139.773
11
43.3828
21
-139.868
0
LINE
8
BLACK
6
CONTINUOUS
10
43.3828
20
-139.868
11
43.1923
21
-139.963
0
LINE
8
BLACK
6
CONTINUOUS
10
43.1923
20
-139.963
11
43.0018
21
-139.963
0
LINE
8
BLACK
6
CONTINUOUS
10
43.0018
20
-139.963
11
42.8113
21
-139.868
0
LINE
8
BLACK
6
CONTINUOUS
10
42.8113
20
-139.868
11
42.7161
21
-139.773
0
LINE
8
BLACK
6
CONTINUOUS
10
42.7161
20
-139.773
11
42.6209
21
-139.582
0
LINE
8
BLACK
6
CONTINUOUS
10
42.6209
20
-139.582
11
42.5256
21
-139.201
0
LINE
8
BLACK
6
CONTINUOUS
10
42.5256
20
-139.201
11
42.5256
21
-138.725
0
LINE
8
BLACK
6
CONTINUOUS
10
42.5256
20
-138.725
11
42.6209
21
-138.344
0
LINE
8
BLACK
6
CONTINUOUS
10
42.6209
20
-138.344
11
42.7161
21
-138.154
0
LINE
8
BLACK
6
CONTINUOUS
10
42.7161
20
-138.154
11
42.8113
21
-138.058
0
LINE
8
BLACK
6
CONTINUOUS
10
42.8113
20
-138.058
11
43.0018
21
-137.963
0
LINE
8
BLACK
6
CONTINUOUS
10
44.5256
20
-139.963
11
44.5256
21
-138.63
0
LINE
8
BLACK
6
CONTINUOUS
10
44.5256
20
-138.82
11
44.6209
21
-138.725
0
LINE
8
BLACK
6
CONTINUOUS
10
44.6209
20
-138.725
11
44.8113
21
-138.63
0
LINE
8
BLACK
6
CONTINUOUS
10
44.8113
20
-138.63
11
45.097
21
-138.63
0
LINE
8
BLACK
6
CONTINUOUS
10
45.097
20
-138.63
11
45.2875
21
-138.725
0
LINE
8
BLACK
6
CONTINUOUS
10
45.2875
20
-138.725
11
45.3828
21
-138.916
0
LINE
8
BLACK
6
CONTINUOUS
10
45.3828
20
-138.916
11
45.3828
21
-139.963
0
LINE
8
BLACK
6
CONTINUOUS
10
45.3828
20
-138.916
11
45.478
21
-138.725
0
LINE
8
BLACK
6
CONTINUOUS
10
45.478
20
-138.725
11
45.6685
21
-138.63
0
LINE
8
BLACK
6
CONTINUOUS
10
45.6685
20
-138.63
11
45.9542
21
-138.63
0
LINE
8
BLACK
6
CONTINUOUS
10
45.9542
20
-138.63
11
46.1447
21
-138.725
0
LINE
8
BLACK
6
CONTINUOUS
10
46.1447
20
-138.725
11
46.2399
21
-138.916
0
LINE
8
BLACK
6
CONTINUOUS
10
46.2399
20
-138.916
11
46.2399
21
-139.963
0
LINE
8
BLACK
6
CONTINUOUS
10
47.1923
20
-139.963
11
47.1923
21
-138.63
0
LINE
8
BLACK
6
CONTINUOUS
10
47.1923
20
-138.82
11
47.2875
21
-138.725
0
LINE
8
BLACK
6
CONTINUOUS
10
47.2875
20
-138.725
11
47.478
21
-138.63
0
LINE
8
BLACK
6
CONTINUOUS
10
47.478
20
-138.63
11
47.7637
21
-138.63
0
LINE
8
BLACK
6
CONTINUOUS
10
47.7637
20
-138.63
11
47.9542
21
-138.725
0
LINE
8
BLACK
6
CONTINUOUS
10
47.9542
20
-138.725
11
48.0494
21
-138.916
0
LINE
8
BLACK
6
CONTINUOUS
10
48.0494
20
-138.916
11
48.0494
21
-139.963
0
LINE
8
BLACK
6
CONTINUOUS
10
48.0494
20
-138.916
11
48.1447
21
-138.725
0
LINE
8
BLACK
6
CONTINUOUS
10
48.1447
20
-138.725
11
48.3351
21
-138.63
0
LINE
8
BLACK
6
CONTINUOUS
10
48.3351
20
-138.63
11
48.6209
21
-138.63
0
LINE
8
BLACK
6
CONTINUOUS
10
48.6209
20
-138.63
11
48.8113
21
-138.725
0
LINE
8
BLACK
6
CONTINUOUS
10
48.8113
20
-138.725
11
48.9066
21
-138.916
0
LINE
8
BLACK
6
CONTINUOUS
10
48.9066
20
-138.916
11
48.9066
21
-139.963
0
LINE
8
BLACK
6
CONTINUOUS
10
52.8113
20
-137.868
11
51.097
21
-140.439
0
LINE
8
BLACK
6
CONTINUOUS
10
55.3828
20
-137.963
11
55.5732
21
-137.963
0
LINE
8
BLACK
6
CONTINUOUS
10
55.5732
20
-137.963
11
55.7637
21
-138.058
0
LINE
8
BLACK
6
CONTINUOUS
10
55.7637
20
-138.058
11
55.859
21
-138.154
0
LINE
8
BLACK
6
CONTINUOUS
10
55.859
20
-138.154
11
55.9542
21
-138.344
0
LINE
8
BLACK
6
CONTINUOUS
10
55.9542
20
-138.344
11
56.0494
21
-138.725
0
LINE
8
BLACK
6
CONTINUOUS
10
56.0494
20
-138.725
11
56.0494
21
-139.201
0
LINE
8
BLACK
6
CONTINUOUS
10
56.0494
20
-139.201
11
55.9542
21
-139.582
0
LINE
8
BLACK
6
CONTINUOUS
10
55.9542
20
-139.582
11
55.859
21
-139.773
0
LINE
8
BLACK
6
CONTINUOUS
10
55.859
20
-139.773
11
55.7637
21
-139.868
0
LINE
8
BLACK
6
CONTINUOUS
10
55.7637
20
-139.868
11
55.5732
21
-139.963
0
LINE
8
BLACK
6
CONTINUOUS
10
55.5732
20
-139.963
11
55.3828
21
-139.963
0
LINE
8
BLACK
6
CONTINUOUS
10
55.3828
20
-139.963
11
55.1923
21
-139.868
0
LINE
8
BLACK
6
CONTINUOUS
10
55.1923
20
-139.868
11
55.097
21
-139.773
0
LINE
8
BLACK
6
CONTINUOUS
10
55.097
20
-139.773
11
55.0018
21
-139.582
0
LINE
8
BLACK
6
CONTINUOUS
10
55.0018
20
-139.582
11
54.9066
21
-139.201
0
LINE
8
BLACK
6
CONTINUOUS
10
54.9066
20
-139.201
11
54.9066
21
-138.725
0
LINE
8
BLACK
6
CONTINUOUS
10
54.9066
20
-138.725
11
55.0018
21
-138.344
0
LINE
8
BLACK
6
CONTINUOUS
10
55.0018
20
-138.344
11
55.097
21
-138.154
0
LINE
8
BLACK
6
CONTINUOUS
10
55.097
20
-138.154
11
55.1923
21
-138.058
0
LINE
8
BLACK
6
CONTINUOUS
10
55.1923
20
-138.058
11
55.3828
21
-137.963
0
LINE
8
BLACK
6
CONTINUOUS
10
56.9066
20
-139.773
11
57.0018
21
-139.868
0
LINE
8
BLACK
6
CONTINUOUS
10
57.0018
20
-139.868
11
56.9066
21
-139.963
0
LINE
8
BLACK
6
CONTINUOUS
10
56.9066
20
-139.963
11
56.8113
21
-139.868
0
LINE
8
BLACK
6
CONTINUOUS
10
56.8113
20
-139.868
11
56.9066
21
-139.773
0
LINE
8
BLACK
6
CONTINUOUS
10
56.9066
20
-139.773
11
56.9066
21
-139.963
0
LINE
8
BLACK
6
CONTINUOUS
10
58.9066
20
-139.963
11
57.7637
21
-139.963
0
LINE
8
BLACK
6
CONTINUOUS
10
58.3351
20
-139.963
11
58.3351
21
-137.963
0
LINE
8
BLACK
6
CONTINUOUS
10
58.3351
20
-137.963
11
58.1447
21
-138.249
0
LINE
8
BLACK
6
CONTINUOUS
10
58.1447
20
-138.249
11
57.9542
21
-138.439
0
LINE
8
BLACK
6
CONTINUOUS
10
57.9542
20
-138.439
11
57.7637
21
-138.535
0
LINE
8
BLACK
6
CONTINUOUS
10
60.8113
20
-139.963
11
59.6685
21
-139.963
0
LINE
8
BLACK
6
CONTINUOUS
10
60.2399
20
-139.963
11
60.2399
21
-137.963
0
LINE
8
BLACK
6
CONTINUOUS
10
60.2399
20
-137.963
11
60.0494
21
-138.249
0
LINE
8
BLACK
6
CONTINUOUS
10
60.0494
20
-138.249
11
59.859
21
-138.439
0
LINE
8
BLACK
6
CONTINUOUS
10
59.859
20
-138.439
11
59.6685
21
-138.535
0
LINE
8
BLACK
6
CONTINUOUS
10
61.9542
20
-138.82
11
61.7637
21
-138.725
0
LINE
8
BLACK
6
CONTINUOUS
10
61.7637
20
-138.725
11
61.6685
21
-138.63
0
LINE
8
BLACK
6
CONTINUOUS
10
61.6685
20
-138.63
11
61.5732
21
-138.439
0
LINE
8
BLACK
6
CONTINUOUS
10
61.5732
20
-138.439
11
61.5732
21
-138.344
0
LINE
8
BLACK
6
CONTINUOUS
10
61.5732
20
-138.344
11
61.6685
21
-138.154
0
LINE
8
BLACK
6
CONTINUOUS
10
61.6685
20
-138.154
11
61.7637
21
-138.058
0
LINE
8
BLACK
6
CONTINUOUS
10
61.7637
20
-138.058
11
61.9542
21
-137.963
0
LINE
8
BLACK
6
CONTINUOUS
10
61.9542
20
-137.963
11
62.3351
21
-137.963
0
LINE
8
BLACK
6
CONTINUOUS
10
62.3351
20
-137.963
11
62.5256
21
-138.058
0
LINE
8
BLACK
6
CONTINUOUS
10
62.5256
20
-138.058
11
62.6209
21
-138.154
0
LINE
8
BLACK
6
CONTINUOUS
10
62.6209
20
-138.154
11
62.7161
21
-138.344
0
LINE
8
BLACK
6
CONTINUOUS
10
62.7161
20
-138.344
11
62.7161
21
-138.439
0
LINE
8
BLACK
6
CONTINUOUS
10
62.7161
20
-138.439
11
62.6209
21
-138.63
0
LINE
8
BLACK
6
CONTINUOUS
10
62.6209
20
-138.63
11
62.5256
21
-138.725
0
LINE
8
BLACK
6
CONTINUOUS
10
62.5256
20
-138.725
11
62.3351
21
-138.82
0
LINE
8
BLACK
6
CONTINUOUS
10
62.3351
20
-138.82
11
61.9542
21
-138.82
0
LINE
8
BLACK
6
CONTINUOUS
10
61.9542
20
-138.82
11
61.7637
21
-138.916
0
LINE
8
BLACK
6
CONTINUOUS
10
61.7637
20
-138.916
11
61.6685
21
-139.011
0
LINE
8
BLACK
6
CONTINUOUS
10
61.6685
20
-139.011
11
61.5732
21
-139.201
0
LINE
8
BLACK
6
CONTINUOUS
10
61.5732
20
-139.201
11
61.5732
21
-139.582
0
LINE
8
BLACK
6
CONTINUOUS
10
61.5732
20
-139.582
11
61.6685
21
-139.773
0
LINE
8
BLACK
6
CONTINUOUS
10
61.6685
20
-139.773
11
61.7637
21
-139.868
0
LINE
8
BLACK
6
CONTINUOUS
10
61.7637
20
-139.868
11
61.9542
21
-139.963
0
LINE
8
BLACK
6
CONTINUOUS
10
61.9542
20
-139.963
11
62.3351
21
-139.963
0
LINE
8
BLACK
6
CONTINUOUS
10
62.3351
20
-139.963
11
62.5256
21
-139.868
0
LINE
8
BLACK
6
CONTINUOUS
10
62.5256
20
-139.868
11
62.6209
21
-139.773
0
LINE
8
BLACK
6
CONTINUOUS
10
62.6209
20
-139.773
11
62.7161
21
-139.582
0
LINE
8
BLACK
6
CONTINUOUS
10
62.7161
20
-139.582
11
62.7161
21
-139.201
0
LINE
8
BLACK
6
CONTINUOUS
10
62.7161
20
-139.201
11
62.6209
21
-139.011
0
LINE
8
BLACK
6
CONTINUOUS
10
62.6209
20
-139.011
11
62.5256
21
-138.916
0
LINE
8
BLACK
6
CONTINUOUS
10
62.5256
20
-138.916
11
62.3351
21
-138.82
0
LINE
8
BLACK
6
CONTINUOUS
10
64.6209
20
-139.963
11
63.478
21
-139.963
0
LINE
8
BLACK
6
CONTINUOUS
10
64.0494
20
-139.963
11
64.0494
21
-137.963
0
LINE
8
BLACK
6
CONTINUOUS
10
64.0494
20
-137.963
11
63.859
21
-138.249
0
LINE
8
BLACK
6
CONTINUOUS
10
63.859
20
-138.249
11
63.6685
21
-138.439
0
LINE
8
BLACK
6
CONTINUOUS
10
63.6685
20
-138.439
11
63.478
21
-138.535
0
LINE
8
BLACK
6
CONTINUOUS
10
65.3828
20
-137.963
11
65.3828
21
-138.344
0
LINE
8
BLACK
6
CONTINUOUS
10
66.1447
20
-137.963
11
66.1447
21
-138.344
0
LINE
8
BLACK
6
CONTINUOUS
10
69.0971
20
-140.725
11
69.0018
21
-140.63
0
LINE
8
BLACK
6
CONTINUOUS
10
69.0018
20
-140.63
11
68.8113
21
-140.344
0
LINE
8
BLACK
6
CONTINUOUS
10
68.8113
20
-140.344
11
68.7161
21
-140.154
0
LINE
8
BLACK
6
CONTINUOUS
10
68.7161
20
-140.154
11
68.6209
21
-139.868
0
LINE
8
BLACK
6
CONTINUOUS
10
68.6209
20
-139.868
11
68.5256
21
-139.392
0
LINE
8
BLACK
6
CONTINUOUS
10
68.5256
20
-139.392
11
68.5256
21
-139.011
0
LINE
8
BLACK
6
CONTINUOUS
10
68.5256
20
-139.011
11
68.6209
21
-138.535
0
LINE
8
BLACK
6
CONTINUOUS
10
68.6209
20
-138.535
11
68.7161
21
-138.249
0
LINE
8
BLACK
6
CONTINUOUS
10
68.7161
20
-138.249
11
68.8113
21
-138.058
0
LINE
8
BLACK
6
CONTINUOUS
10
68.8113
20
-138.058
11
69.0018
21
-137.773
0
LINE
8
BLACK
6
CONTINUOUS
10
69.0018
20
-137.773
11
69.0971
21
-137.678
0
LINE
8
BLACK
6
CONTINUOUS
10
70.7161
20
-138.63
11
70.7161
21
-139.963
0
LINE
8
BLACK
6
CONTINUOUS
10
70.2399
20
-137.868
11
69.7637
21
-139.297
0
LINE
8
BLACK
6
CONTINUOUS
10
69.7637
20
-139.297
11
71.0018
21
-139.297
0
LINE
8
BLACK
6
CONTINUOUS
10
73.2875
20
-139.963
11
73.2875
21
-137.963
0
LINE
8
BLACK
6
CONTINUOUS
10
74.1447
20
-139.963
11
74.1447
21
-138.916
0
LINE
8
BLACK
6
CONTINUOUS
10
74.1447
20
-138.916
11
74.0494
21
-138.725
0
LINE
8
BLACK
6
CONTINUOUS
10
74.0494
20
-138.725
11
73.859
21
-138.63
0
LINE
8
BLACK
6
CONTINUOUS
10
73.859
20
-138.63
11
73.5732
21
-138.63
0
LINE
8
BLACK
6
CONTINUOUS
10
73.5732
20
-138.63
11
73.3828
21
-138.725
0
LINE
8
BLACK
6
CONTINUOUS
10
73.3828
20
-138.725
11
73.2875
21
-138.82
0
LINE
8
BLACK
6
CONTINUOUS
10
75.3828
20
-139.963
11
75.1923
21
-139.868
0
LINE
8
BLACK
6
CONTINUOUS
10
75.1923
20
-139.868
11
75.0971
21
-139.773
0
LINE
8
BLACK
6
CONTINUOUS
10
75.0971
20
-139.773
11
75.0018
21
-139.582
0
LINE
8
BLACK
6
CONTINUOUS
10
75.0018
20
-139.582
11
75.0018
21
-139.011
0
LINE
8
BLACK
6
CONTINUOUS
10
75.0018
20
-139.011
11
75.0971
21
-138.82
0
LINE
8
BLACK
6
CONTINUOUS
10
75.0971
20
-138.82
11
75.1923
21
-138.725
0
LINE
8
BLACK
6
CONTINUOUS
10
75.1923
20
-138.725
11
75.3828
21
-138.63
0
LINE
8
BLACK
6
CONTINUOUS
10
75.3828
20
-138.63
11
75.6685
21
-138.63
0
LINE
8
BLACK
6
CONTINUOUS
10
75.6685
20
-138.63
11
75.859
21
-138.725
0
LINE
8
BLACK
6
CONTINUOUS
10
75.859
20
-138.725
11
75.9542
21
-138.82
0
LINE
8
BLACK
6
CONTINUOUS
10
75.9542
20
-138.82
11
76.0494
21
-139.011
0
LINE
8
BLACK
6
CONTINUOUS
10
76.0494
20
-139.011
11
76.0494
21
-139.582
0
LINE
8
BLACK
6
CONTINUOUS
10
76.0494
20
-139.582
11
75.9542
21
-139.773
0
LINE
8
BLACK
6
CONTINUOUS
10
75.9542
20
-139.773
11
75.859
21
-139.868
0
LINE
8
BLACK
6
CONTINUOUS
10
75.859
20
-139.868
11
75.6685
21
-139.963
0
LINE
8
BLACK
6
CONTINUOUS
10
75.6685
20
-139.963
11
75.3828
21
-139.963
0
LINE
8
BLACK
6
CONTINUOUS
10
77.1923
20
-139.963
11
77.0018
21
-139.868
0
LINE
8
BLACK
6
CONTINUOUS
10
77.0018
20
-139.868
11
76.9066
21
-139.678
0
LINE
8
BLACK
6
CONTINUOUS
10
76.9066
20
-139.678
11
76.9066
21
-137.963
0
LINE
8
BLACK
6
CONTINUOUS
10
78.7161
20
-139.868
11
78.5256
21
-139.963
0
LINE
8
BLACK
6
CONTINUOUS
10
78.5256
20
-139.963
11
78.1447
21
-139.963
0
LINE
8
BLACK
6
CONTINUOUS
10
78.1447
20
-139.963
11
77.9542
21
-139.868
0
LINE
8
BLACK
6
CONTINUOUS
10
77.9542
20
-139.868
11
77.859
21
-139.678
0
LINE
8
BLACK
6
CONTINUOUS
10
77.859
20
-139.678
11
77.859
21
-138.916
0
LINE
8
BLACK
6
CONTINUOUS
10
77.859
20
-138.916
11
77.9542
21
-138.725
0
LINE
8
BLACK
6
CONTINUOUS
10
77.9542
20
-138.725
11
78.1447
21
-138.63
0
LINE
8
BLACK
6
CONTINUOUS
10
78.1447
20
-138.63
11
78.5256
21
-138.63
0
LINE
8
BLACK
6
CONTINUOUS
10
78.5256
20
-138.63
11
78.7161
21
-138.725
0
LINE
8
BLACK
6
CONTINUOUS
10
78.7161
20
-138.725
11
78.8113
21
-138.916
0
LINE
8
BLACK
6
CONTINUOUS
10
78.8113
20
-138.916
11
78.8113
21
-139.106
0
LINE
8
BLACK
6
CONTINUOUS
10
78.8113
20
-139.106
11
77.859
21
-139.297
0
LINE
8
BLACK
6
CONTINUOUS
10
79.5732
20
-139.868
11
79.7637
21
-139.963
0
LINE
8
BLACK
6
CONTINUOUS
10
79.7637
20
-139.963
11
80.1447
21
-139.963
0
LINE
8
BLACK
6
CONTINUOUS
10
80.1447
20
-139.963
11
80.3351
21
-139.868
0
LINE
8
BLACK
6
CONTINUOUS
10
80.3351
20
-139.868
11
80.4304
21
-139.678
0
LINE
8
BLACK
6
CONTINUOUS
10
80.4304
20
-139.678
11
80.4304
21
-139.582
0
LINE
8
BLACK
6
CONTINUOUS
10
80.4304
20
-139.582
11
80.3351
21
-139.392
0
LINE
8
BLACK
6
CONTINUOUS
10
80.3351
20
-139.392
11
80.1447
21
-139.297
0
LINE
8
BLACK
6
CONTINUOUS
10
80.1447
20
-139.297
11
79.859
21
-139.297
0
LINE
8
BLACK
6
CONTINUOUS
10
79.859
20
-139.297
11
79.6685
21
-139.201
0
LINE
8
BLACK
6
CONTINUOUS
10
79.6685
20
-139.201
11
79.5732
21
-139.011
0
LINE
8
BLACK
6
CONTINUOUS
10
79.5732
20
-139.011
11
79.5732
21
-138.916
0
LINE
8
BLACK
6
CONTINUOUS
10
79.5732
20
-138.916
11
79.6685
21
-138.725
0
LINE
8
BLACK
6
CONTINUOUS
10
79.6685
20
-138.725
11
79.859
21
-138.63
0
LINE
8
BLACK
6
CONTINUOUS
10
79.859
20
-138.63
11
80.1447
21
-138.63
0
LINE
8
BLACK
6
CONTINUOUS
10
80.1447
20
-138.63
11
80.3351
21
-138.725
0
LINE
8
BLACK
6
CONTINUOUS
10
81.0971
20
-140.725
11
81.1923
21
-140.63
0
LINE
8
BLACK
6
CONTINUOUS
10
81.1923
20
-140.63
11
81.3828
21
-140.344
0
LINE
8
BLACK
6
CONTINUOUS
10
81.3828
20
-140.344
11
81.478
21
-140.154
0
LINE
8
BLACK
6
CONTINUOUS
10
81.478
20
-140.154
11
81.5732
21
-139.868
0
LINE
8
BLACK
6
CONTINUOUS
10
81.5732
20
-139.868
11
81.6685
21
-139.392
0
LINE
8
BLACK
6
CONTINUOUS
10
81.6685
20
-139.392
11
81.6685
21
-139.011
0
LINE
8
BLACK
6
CONTINUOUS
10
81.6685
20
-139.011
11
81.5732
21
-138.535
0
LINE
8
BLACK
6
CONTINUOUS
10
81.5732
20
-138.535
11
81.478
21
-138.249
0
LINE
8
BLACK
6
CONTINUOUS
10
81.478
20
-138.249
11
81.3828
21
-138.058
0
LINE
8
BLACK
6
CONTINUOUS
10
81.3828
20
-138.058
11
81.1923
21
-137.773
0
LINE
8
BLACK
6
CONTINUOUS
10
81.1923
20
-137.773
11
81.0971
21
-137.678
0
LINE
8
BLACK
6
CONTINUOUS
10
84.7161
20
-140.725
11
84.6209
21
-140.63
0
LINE
8
BLACK
6
CONTINUOUS
10
84.6209
20
-140.63
11
84.4304
21
-140.344
0
LINE
8
BLACK
6
CONTINUOUS
10
84.4304
20
-140.344
11
84.3351
21
-140.154
0
LINE
8
BLACK
6
CONTINUOUS
10
84.3351
20
-140.154
11
84.2399
21
-139.868
0
LINE
8
BLACK
6
CONTINUOUS
10
84.2399
20
-139.868
11
84.1447
21
-139.392
0
LINE
8
BLACK
6
CONTINUOUS
10
84.1447
20
-139.392
11
84.1447
21
-139.011
0
LINE
8
BLACK
6
CONTINUOUS
10
84.1447
20
-139.011
11
84.2399
21
-138.535
0
LINE
8
BLACK
6
CONTINUOUS
10
84.2399
20
-138.535
11
84.3351
21
-138.249
0
LINE
8
BLACK
6
CONTINUOUS
10
84.3351
20
-138.249
11
84.4304
21
-138.058
0
LINE
8
BLACK
6
CONTINUOUS
10
84.4304
20
-138.058
11
84.6209
21
-137.773
0
LINE
8
BLACK
6
CONTINUOUS
10
84.6209
20
-137.773
11
84.7161
21
-137.678
0
LINE
8
BLACK
6
CONTINUOUS
10
85.478
20
-138.63
11
85.478
21
-139.963
0
LINE
8
BLACK
6
CONTINUOUS
10
85.478
20
-138.82
11
85.5732
21
-138.725
0
LINE
8
BLACK
6
CONTINUOUS
10
85.5732
20
-138.725
11
85.7637
21
-138.63
0
LINE
8
BLACK
6
CONTINUOUS
10
85.7637
20
-138.63
11
86.0494
21
-138.63
0
LINE
8
BLACK
6
CONTINUOUS
10
86.0494
20
-138.63
11
86.2399
21
-138.725
0
LINE
8
BLACK
6
CONTINUOUS
10
86.2399
20
-138.725
11
86.3351
21
-138.916
0
LINE
8
BLACK
6
CONTINUOUS
10
86.3351
20
-138.916
11
86.3351
21
-139.963
0
LINE
8
BLACK
6
CONTINUOUS
10
87.5732
20
-139.963
11
87.3828
21
-139.868
0
LINE
8
BLACK
6
CONTINUOUS
10
87.3828
20
-139.868
11
87.2875
21
-139.773
0
LINE
8
BLACK
6
CONTINUOUS
10
87.2875
20
-139.773
11
87.1923
21
-139.582
0
LINE
8
BLACK
6
CONTINUOUS
10
87.1923
20
-139.582
11
87.1923
21
-139.011
0
LINE
8
BLACK
6
CONTINUOUS
10
87.1923
20
-139.011
11
87.2875
21
-138.82
0
LINE
8
BLACK
6
CONTINUOUS
10
87.2875
20
-138.82
11
87.3828
21
-138.725
0
LINE
8
BLACK
6
CONTINUOUS
10
87.3828
20
-138.725
11
87.5732
21
-138.63
0
LINE
8
BLACK
6
CONTINUOUS
10
87.5732
20
-138.63
11
87.859
21
-138.63
0
LINE
8
BLACK
6
CONTINUOUS
10
87.859
20
-138.63
11
88.0494
21
-138.725
0
LINE
8
BLACK
6
CONTINUOUS
10
88.0494
20
-138.725
11
88.1447
21
-138.82
0
LINE
8
BLACK
6
CONTINUOUS
10
88.1447
20
-138.82
11
88.2399
21
-139.011
0
LINE
8
BLACK
6
CONTINUOUS
10
88.2399
20
-139.011
11
88.2399
21
-139.582
0
LINE
8
BLACK
6
CONTINUOUS
10
88.2399
20
-139.582
11
88.1447
21
-139.773
0
LINE
8
BLACK
6
CONTINUOUS
10
88.1447
20
-139.773
11
88.0494
21
-139.868
0
LINE
8
BLACK
6
CONTINUOUS
10
88.0494
20
-139.868
11
87.859
21
-139.963
0
LINE
8
BLACK
6
CONTINUOUS
10
87.859
20
-139.963
11
87.5732
21
-139.963
0
LINE
8
BLACK
6
CONTINUOUS
10
88.8113
20
-138.63
11
89.5732
21
-138.63
0
LINE
8
BLACK
6
CONTINUOUS
10
89.0971
20
-137.963
11
89.0971
21
-139.678
0
LINE
8
BLACK
6
CONTINUOUS
10
89.0971
20
-139.678
11
89.1923
21
-139.868
0
LINE
8
BLACK
6
CONTINUOUS
10
89.1923
20
-139.868
11
89.3828
21
-139.963
0
LINE
8
BLACK
6
CONTINUOUS
10
89.3828
20
-139.963
11
89.5732
21
-139.963
0
LINE
8
BLACK
6
CONTINUOUS
10
91.7637
20
-138.63
11
91.7637
21
-140.63
0
LINE
8
BLACK
6
CONTINUOUS
10
91.7637
20
-138.725
11
91.9542
21
-138.63
0
LINE
8
BLACK
6
CONTINUOUS
10
91.9542
20
-138.63
11
92.3351
21
-138.63
0
LINE
8
BLACK
6
CONTINUOUS
10
92.3351
20
-138.63
11
92.5256
21
-138.725
0
LINE
8
BLACK
6
CONTINUOUS
10
92.5256
20
-138.725
11
92.6209
21
-138.82
0
LINE
8
BLACK
6
CONTINUOUS
10
92.6209
20
-138.82
11
92.7161
21
-139.011
0
LINE
8
BLACK
6
CONTINUOUS
10
92.7161
20
-139.011
11
92.7161
21
-139.582
0
LINE
8
BLACK
6
CONTINUOUS
10
92.7161
20
-139.582
11
92.6209
21
-139.773
0
LINE
8
BLACK
6
CONTINUOUS
10
92.6209
20
-139.773
11
92.5256
21
-139.868
0
LINE
8
BLACK
6
CONTINUOUS
10
92.5256
20
-139.868
11
92.3351
21
-139.963
0
LINE
8
BLACK
6
CONTINUOUS
10
92.3351
20
-139.963
11
91.9542
21
-139.963
0
LINE
8
BLACK
6
CONTINUOUS
10
91.9542
20
-139.963
11
91.7637
21
-139.868
0
LINE
8
BLACK
6
CONTINUOUS
10
93.859
20
-139.963
11
93.6685
21
-139.868
0
LINE
8
BLACK
6
CONTINUOUS
10
93.6685
20
-139.868
11
93.5732
21
-139.678
0
LINE
8
BLACK
6
CONTINUOUS
10
93.5732
20
-139.678
11
93.5732
21
-137.963
0
LINE
8
BLACK
6
CONTINUOUS
10
95.478
20
-139.963
11
95.478
21
-138.916
0
LINE
8
BLACK
6
CONTINUOUS
10
95.478
20
-138.916
11
95.3828
21
-138.725
0
LINE
8
BLACK
6
CONTINUOUS
10
95.3828
20
-138.725
11
95.1923
21
-138.63
0
LINE
8
BLACK
6
CONTINUOUS
10
95.1923
20
-138.63
11
94.8113
21
-138.63
0
LINE
8
BLACK
6
CONTINUOUS
10
94.8113
20
-138.63
11
94.6209
21
-138.725
0
LINE
8
BLACK
6
CONTINUOUS
10
95.478
20
-139.868
11
95.2875
21
-139.963
0
LINE
8
BLACK
6
CONTINUOUS
10
95.2875
20
-139.963
11
94.8113
21
-139.963
0
LINE
8
BLACK
6
CONTINUOUS
10
94.8113
20
-139.963
11
94.6209
21
-139.868
0
LINE
8
BLACK
6
CONTINUOUS
10
94.6209
20
-139.868
11
94.5256
21
-139.678
0
LINE
8
BLACK
6
CONTINUOUS
10
94.5256
20
-139.678
11
94.5256
21
-139.487
0
LINE
8
BLACK
6
CONTINUOUS
10
94.5256
20
-139.487
11
94.6209
21
-139.297
0
LINE
8
BLACK
6
CONTINUOUS
10
94.6209
20
-139.297
11
94.8113
21
-139.201
0
LINE
8
BLACK
6
CONTINUOUS
10
94.8113
20
-139.201
11
95.2875
21
-139.201
0
LINE
8
BLACK
6
CONTINUOUS
10
95.2875
20
-139.201
11
95.478
21
-139.106
0
LINE
8
BLACK
6
CONTINUOUS
10
96.1447
20
-138.63
11
96.9066
21
-138.63
0
LINE
8
BLACK
6
CONTINUOUS
10
96.4304
20
-137.963
11
96.4304
21
-139.678
0
LINE
8
BLACK
6
CONTINUOUS
10
96.4304
20
-139.678
11
96.5256
21
-139.868
0
LINE
8
BLACK
6
CONTINUOUS
10
96.5256
20
-139.868
11
96.7161
21
-139.963
0
LINE
8
BLACK
6
CONTINUOUS
10
96.7161
20
-139.963
11
96.9066
21
-139.963
0
LINE
8
BLACK
6
CONTINUOUS
10
98.3351
20
-139.868
11
98.1447
21
-139.963
0
LINE
8
BLACK
6
CONTINUOUS
10
98.1447
20
-139.963
11
97.7637
21
-139.963
0
LINE
8
BLACK
6
CONTINUOUS
10
97.7637
20
-139.963
11
97.5732
21
-139.868
0
LINE
8
BLACK
6
CONTINUOUS
10
97.5732
20
-139.868
11
97.478
21
-139.678
0
LINE
8
BLACK
6
CONTINUOUS
10
97.478
20
-139.678
11
97.478
21
-138.916
0
LINE
8
BLACK
6
CONTINUOUS
10
97.478
20
-138.916
11
97.5732
21
-138.725
0
LINE
8
BLACK
6
CONTINUOUS
10
97.5732
20
-138.725
11
97.7637
21
-138.63
0
LINE
8
BLACK
6
CONTINUOUS
10
97.7637
20
-138.63
11
98.1447
21
-138.63
0
LINE
8
BLACK
6
CONTINUOUS
10
98.1447
20
-138.63
11
98.3351
21
-138.725
0
LINE
8
BLACK
6
CONTINUOUS
10
98.3351
20
-138.725
11
98.4304
21
-138.916
0
LINE
8
BLACK
6
CONTINUOUS
10
98.4304
20
-138.916
11
98.4304
21
-139.106
0
LINE
8
BLACK
6
CONTINUOUS
10
98.4304
20
-139.106
11
97.478
21
-139.297
0
LINE
8
BLACK
6
CONTINUOUS
10
100.145
20
-139.963
11
100.145
21
-137.963
0
LINE
8
BLACK
6
CONTINUOUS
10
100.145
20
-139.868
11
99.9542
21
-139.963
0
LINE
8
BLACK
6
CONTINUOUS
10
99.9542
20
-139.963
11
99.5732
21
-139.963
0
LINE
8
BLACK
6
CONTINUOUS
10
99.5732
20
-139.963
11
99.3828
21
-139.868
0
LINE
8
BLACK
6
CONTINUOUS
10
99.3828
20
-139.868
11
99.2875
21
-139.773
0
LINE
8
BLACK
6
CONTINUOUS
10
99.2875
20
-139.773
11
99.1923
21
-139.582
0
LINE
8
BLACK
6
CONTINUOUS
10
99.1923
20
-139.582
11
99.1923
21
-139.011
0
LINE
8
BLACK
6
CONTINUOUS
10
99.1923
20
-139.011
11
99.2875
21
-138.82
0
LINE
8
BLACK
6
CONTINUOUS
10
99.2875
20
-138.82
11
99.3828
21
-138.725
0
LINE
8
BLACK
6
CONTINUOUS
10
99.3828
20
-138.725
11
99.5732
21
-138.63
0
LINE
8
BLACK
6
CONTINUOUS
10
99.5732
20
-138.63
11
99.9542
21
-138.63
0
LINE
8
BLACK
6
CONTINUOUS
10
99.9542
20
-138.63
11
100.145
21
-138.725
0
LINE
8
BLACK
6
CONTINUOUS
10
100.907
20
-140.725
11
101.002
21
-140.63
0
LINE
8
BLACK
6
CONTINUOUS
10
101.002
20
-140.63
11
101.192
21
-140.344
0
LINE
8
BLACK
6
CONTINUOUS
10
101.192
20
-140.344
11
101.288
21
-140.154
0
LINE
8
BLACK
6
CONTINUOUS
10
101.288
20
-140.154
11
101.383
21
-139.868
0
LINE
8
BLACK
6
CONTINUOUS
10
101.383
20
-139.868
11
101.478
21
-139.392
0
LINE
8
BLACK
6
CONTINUOUS
10
101.478
20
-139.392
11
101.478
21
-139.011
0
LINE
8
BLACK
6
CONTINUOUS
10
101.478
20
-139.011
11
101.383
21
-138.535
0
LINE
8
BLACK
6
CONTINUOUS
10
101.383
20
-138.535
11
101.288
21
-138.249
0
LINE
8
BLACK
6
CONTINUOUS
10
101.288
20
-138.249
11
101.192
21
-138.058
0
LINE
8
BLACK
6
CONTINUOUS
10
101.192
20
-138.058
11
101.002
21
-137.773
0
LINE
8
BLACK
6
CONTINUOUS
10
101.002
20
-137.773
11
100.907
21
-137.678
  0
ENDSEC
  0
EOF
