%TF.GenerationSoftware,KiCad,Pcbnew,9.0.2*%
%TF.CreationDate,2025-06-13T13:52:01-07:00*%
%TF.ProjectId,led-usb-hub,6c65642d-7573-4622-9d68-75622e6b6963,rev?*%
%TF.SameCoordinates,PX37fb0e0PY47e8340*%
%TF.FileFunction,Legend,Top*%
%TF.FilePolarity,Positive*%
%FSLAX46Y46*%
G04 Gerber Fmt 4.6, Leading zero omitted, Abs format (unit mm)*
G04 Created by KiCad (PCBNEW 9.0.2) date 2025-06-13 13:52:01*
%MOMM*%
%LPD*%
G01*
G04 APERTURE LIST*
%ADD10C,0.150000*%
%ADD11C,0.120000*%
%ADD12C,0.127000*%
%ADD13C,0.200000*%
%ADD14C,0.152400*%
%ADD15C,0.000000*%
G04 APERTURE END LIST*
D10*
X18557142Y-28899580D02*
X18509523Y-28947200D01*
X18509523Y-28947200D02*
X18366666Y-28994819D01*
X18366666Y-28994819D02*
X18271428Y-28994819D01*
X18271428Y-28994819D02*
X18128571Y-28947200D01*
X18128571Y-28947200D02*
X18033333Y-28851961D01*
X18033333Y-28851961D02*
X17985714Y-28756723D01*
X17985714Y-28756723D02*
X17938095Y-28566247D01*
X17938095Y-28566247D02*
X17938095Y-28423390D01*
X17938095Y-28423390D02*
X17985714Y-28232914D01*
X17985714Y-28232914D02*
X18033333Y-28137676D01*
X18033333Y-28137676D02*
X18128571Y-28042438D01*
X18128571Y-28042438D02*
X18271428Y-27994819D01*
X18271428Y-27994819D02*
X18366666Y-27994819D01*
X18366666Y-27994819D02*
X18509523Y-28042438D01*
X18509523Y-28042438D02*
X18557142Y-28090057D01*
X19414285Y-28328152D02*
X19414285Y-28994819D01*
X19176190Y-27947200D02*
X18938095Y-28661485D01*
X18938095Y-28661485D02*
X19557142Y-28661485D01*
X20461904Y-28994819D02*
X19890476Y-28994819D01*
X20176190Y-28994819D02*
X20176190Y-27994819D01*
X20176190Y-27994819D02*
X20080952Y-28137676D01*
X20080952Y-28137676D02*
X19985714Y-28232914D01*
X19985714Y-28232914D02*
X19890476Y-28280533D01*
X26860588Y-13602438D02*
X26765350Y-13554819D01*
X26765350Y-13554819D02*
X26622493Y-13554819D01*
X26622493Y-13554819D02*
X26479636Y-13602438D01*
X26479636Y-13602438D02*
X26384398Y-13697676D01*
X26384398Y-13697676D02*
X26336779Y-13792914D01*
X26336779Y-13792914D02*
X26289160Y-13983390D01*
X26289160Y-13983390D02*
X26289160Y-14126247D01*
X26289160Y-14126247D02*
X26336779Y-14316723D01*
X26336779Y-14316723D02*
X26384398Y-14411961D01*
X26384398Y-14411961D02*
X26479636Y-14507200D01*
X26479636Y-14507200D02*
X26622493Y-14554819D01*
X26622493Y-14554819D02*
X26717731Y-14554819D01*
X26717731Y-14554819D02*
X26860588Y-14507200D01*
X26860588Y-14507200D02*
X26908207Y-14459580D01*
X26908207Y-14459580D02*
X26908207Y-14126247D01*
X26908207Y-14126247D02*
X26717731Y-14126247D01*
X27336779Y-14554819D02*
X27336779Y-13554819D01*
X27336779Y-13554819D02*
X27908207Y-14554819D01*
X27908207Y-14554819D02*
X27908207Y-13554819D01*
X28384398Y-14554819D02*
X28384398Y-13554819D01*
X28384398Y-13554819D02*
X28622493Y-13554819D01*
X28622493Y-13554819D02*
X28765350Y-13602438D01*
X28765350Y-13602438D02*
X28860588Y-13697676D01*
X28860588Y-13697676D02*
X28908207Y-13792914D01*
X28908207Y-13792914D02*
X28955826Y-13983390D01*
X28955826Y-13983390D02*
X28955826Y-14126247D01*
X28955826Y-14126247D02*
X28908207Y-14316723D01*
X28908207Y-14316723D02*
X28860588Y-14411961D01*
X28860588Y-14411961D02*
X28765350Y-14507200D01*
X28765350Y-14507200D02*
X28622493Y-14554819D01*
X28622493Y-14554819D02*
X28384398Y-14554819D01*
X32658333Y-9789580D02*
X32610714Y-9837200D01*
X32610714Y-9837200D02*
X32467857Y-9884819D01*
X32467857Y-9884819D02*
X32372619Y-9884819D01*
X32372619Y-9884819D02*
X32229762Y-9837200D01*
X32229762Y-9837200D02*
X32134524Y-9741961D01*
X32134524Y-9741961D02*
X32086905Y-9646723D01*
X32086905Y-9646723D02*
X32039286Y-9456247D01*
X32039286Y-9456247D02*
X32039286Y-9313390D01*
X32039286Y-9313390D02*
X32086905Y-9122914D01*
X32086905Y-9122914D02*
X32134524Y-9027676D01*
X32134524Y-9027676D02*
X32229762Y-8932438D01*
X32229762Y-8932438D02*
X32372619Y-8884819D01*
X32372619Y-8884819D02*
X32467857Y-8884819D01*
X32467857Y-8884819D02*
X32610714Y-8932438D01*
X32610714Y-8932438D02*
X32658333Y-8980057D01*
X33229762Y-9313390D02*
X33134524Y-9265771D01*
X33134524Y-9265771D02*
X33086905Y-9218152D01*
X33086905Y-9218152D02*
X33039286Y-9122914D01*
X33039286Y-9122914D02*
X33039286Y-9075295D01*
X33039286Y-9075295D02*
X33086905Y-8980057D01*
X33086905Y-8980057D02*
X33134524Y-8932438D01*
X33134524Y-8932438D02*
X33229762Y-8884819D01*
X33229762Y-8884819D02*
X33420238Y-8884819D01*
X33420238Y-8884819D02*
X33515476Y-8932438D01*
X33515476Y-8932438D02*
X33563095Y-8980057D01*
X33563095Y-8980057D02*
X33610714Y-9075295D01*
X33610714Y-9075295D02*
X33610714Y-9122914D01*
X33610714Y-9122914D02*
X33563095Y-9218152D01*
X33563095Y-9218152D02*
X33515476Y-9265771D01*
X33515476Y-9265771D02*
X33420238Y-9313390D01*
X33420238Y-9313390D02*
X33229762Y-9313390D01*
X33229762Y-9313390D02*
X33134524Y-9361009D01*
X33134524Y-9361009D02*
X33086905Y-9408628D01*
X33086905Y-9408628D02*
X33039286Y-9503866D01*
X33039286Y-9503866D02*
X33039286Y-9694342D01*
X33039286Y-9694342D02*
X33086905Y-9789580D01*
X33086905Y-9789580D02*
X33134524Y-9837200D01*
X33134524Y-9837200D02*
X33229762Y-9884819D01*
X33229762Y-9884819D02*
X33420238Y-9884819D01*
X33420238Y-9884819D02*
X33515476Y-9837200D01*
X33515476Y-9837200D02*
X33563095Y-9789580D01*
X33563095Y-9789580D02*
X33610714Y-9694342D01*
X33610714Y-9694342D02*
X33610714Y-9503866D01*
X33610714Y-9503866D02*
X33563095Y-9408628D01*
X33563095Y-9408628D02*
X33515476Y-9361009D01*
X33515476Y-9361009D02*
X33420238Y-9313390D01*
X50199999Y-4454819D02*
X49723809Y-4454819D01*
X49723809Y-4454819D02*
X49723809Y-3454819D01*
X50533333Y-3931009D02*
X50866666Y-3931009D01*
X51009523Y-4454819D02*
X50533333Y-4454819D01*
X50533333Y-4454819D02*
X50533333Y-3454819D01*
X50533333Y-3454819D02*
X51009523Y-3454819D01*
X51438095Y-4454819D02*
X51438095Y-3454819D01*
X51438095Y-3454819D02*
X51676190Y-3454819D01*
X51676190Y-3454819D02*
X51819047Y-3502438D01*
X51819047Y-3502438D02*
X51914285Y-3597676D01*
X51914285Y-3597676D02*
X51961904Y-3692914D01*
X51961904Y-3692914D02*
X52009523Y-3883390D01*
X52009523Y-3883390D02*
X52009523Y-4026247D01*
X52009523Y-4026247D02*
X51961904Y-4216723D01*
X51961904Y-4216723D02*
X51914285Y-4311961D01*
X51914285Y-4311961D02*
X51819047Y-4407200D01*
X51819047Y-4407200D02*
X51676190Y-4454819D01*
X51676190Y-4454819D02*
X51438095Y-4454819D01*
X53200000Y-3931009D02*
X53533333Y-3931009D01*
X53676190Y-4454819D02*
X53200000Y-4454819D01*
X53200000Y-4454819D02*
X53200000Y-3454819D01*
X53200000Y-3454819D02*
X53676190Y-3454819D01*
X54104762Y-4454819D02*
X54104762Y-3454819D01*
X54104762Y-3454819D02*
X54676190Y-4454819D01*
X54676190Y-4454819D02*
X54676190Y-3454819D01*
X4057142Y-1629580D02*
X4009523Y-1677200D01*
X4009523Y-1677200D02*
X3866666Y-1724819D01*
X3866666Y-1724819D02*
X3771428Y-1724819D01*
X3771428Y-1724819D02*
X3628571Y-1677200D01*
X3628571Y-1677200D02*
X3533333Y-1581961D01*
X3533333Y-1581961D02*
X3485714Y-1486723D01*
X3485714Y-1486723D02*
X3438095Y-1296247D01*
X3438095Y-1296247D02*
X3438095Y-1153390D01*
X3438095Y-1153390D02*
X3485714Y-962914D01*
X3485714Y-962914D02*
X3533333Y-867676D01*
X3533333Y-867676D02*
X3628571Y-772438D01*
X3628571Y-772438D02*
X3771428Y-724819D01*
X3771428Y-724819D02*
X3866666Y-724819D01*
X3866666Y-724819D02*
X4009523Y-772438D01*
X4009523Y-772438D02*
X4057142Y-820057D01*
X4438095Y-820057D02*
X4485714Y-772438D01*
X4485714Y-772438D02*
X4580952Y-724819D01*
X4580952Y-724819D02*
X4819047Y-724819D01*
X4819047Y-724819D02*
X4914285Y-772438D01*
X4914285Y-772438D02*
X4961904Y-820057D01*
X4961904Y-820057D02*
X5009523Y-915295D01*
X5009523Y-915295D02*
X5009523Y-1010533D01*
X5009523Y-1010533D02*
X4961904Y-1153390D01*
X4961904Y-1153390D02*
X4390476Y-1724819D01*
X4390476Y-1724819D02*
X5009523Y-1724819D01*
X5866666Y-724819D02*
X5676190Y-724819D01*
X5676190Y-724819D02*
X5580952Y-772438D01*
X5580952Y-772438D02*
X5533333Y-820057D01*
X5533333Y-820057D02*
X5438095Y-962914D01*
X5438095Y-962914D02*
X5390476Y-1153390D01*
X5390476Y-1153390D02*
X5390476Y-1534342D01*
X5390476Y-1534342D02*
X5438095Y-1629580D01*
X5438095Y-1629580D02*
X5485714Y-1677200D01*
X5485714Y-1677200D02*
X5580952Y-1724819D01*
X5580952Y-1724819D02*
X5771428Y-1724819D01*
X5771428Y-1724819D02*
X5866666Y-1677200D01*
X5866666Y-1677200D02*
X5914285Y-1629580D01*
X5914285Y-1629580D02*
X5961904Y-1534342D01*
X5961904Y-1534342D02*
X5961904Y-1296247D01*
X5961904Y-1296247D02*
X5914285Y-1201009D01*
X5914285Y-1201009D02*
X5866666Y-1153390D01*
X5866666Y-1153390D02*
X5771428Y-1105771D01*
X5771428Y-1105771D02*
X5580952Y-1105771D01*
X5580952Y-1105771D02*
X5485714Y-1153390D01*
X5485714Y-1153390D02*
X5438095Y-1201009D01*
X5438095Y-1201009D02*
X5390476Y-1296247D01*
X10357142Y-8169819D02*
X10023809Y-7693628D01*
X9785714Y-8169819D02*
X9785714Y-7169819D01*
X9785714Y-7169819D02*
X10166666Y-7169819D01*
X10166666Y-7169819D02*
X10261904Y-7217438D01*
X10261904Y-7217438D02*
X10309523Y-7265057D01*
X10309523Y-7265057D02*
X10357142Y-7360295D01*
X10357142Y-7360295D02*
X10357142Y-7503152D01*
X10357142Y-7503152D02*
X10309523Y-7598390D01*
X10309523Y-7598390D02*
X10261904Y-7646009D01*
X10261904Y-7646009D02*
X10166666Y-7693628D01*
X10166666Y-7693628D02*
X9785714Y-7693628D01*
X10690476Y-7169819D02*
X11309523Y-7169819D01*
X11309523Y-7169819D02*
X10976190Y-7550771D01*
X10976190Y-7550771D02*
X11119047Y-7550771D01*
X11119047Y-7550771D02*
X11214285Y-7598390D01*
X11214285Y-7598390D02*
X11261904Y-7646009D01*
X11261904Y-7646009D02*
X11309523Y-7741247D01*
X11309523Y-7741247D02*
X11309523Y-7979342D01*
X11309523Y-7979342D02*
X11261904Y-8074580D01*
X11261904Y-8074580D02*
X11214285Y-8122200D01*
X11214285Y-8122200D02*
X11119047Y-8169819D01*
X11119047Y-8169819D02*
X10833333Y-8169819D01*
X10833333Y-8169819D02*
X10738095Y-8122200D01*
X10738095Y-8122200D02*
X10690476Y-8074580D01*
X11785714Y-8169819D02*
X11976190Y-8169819D01*
X11976190Y-8169819D02*
X12071428Y-8122200D01*
X12071428Y-8122200D02*
X12119047Y-8074580D01*
X12119047Y-8074580D02*
X12214285Y-7931723D01*
X12214285Y-7931723D02*
X12261904Y-7741247D01*
X12261904Y-7741247D02*
X12261904Y-7360295D01*
X12261904Y-7360295D02*
X12214285Y-7265057D01*
X12214285Y-7265057D02*
X12166666Y-7217438D01*
X12166666Y-7217438D02*
X12071428Y-7169819D01*
X12071428Y-7169819D02*
X11880952Y-7169819D01*
X11880952Y-7169819D02*
X11785714Y-7217438D01*
X11785714Y-7217438D02*
X11738095Y-7265057D01*
X11738095Y-7265057D02*
X11690476Y-7360295D01*
X11690476Y-7360295D02*
X11690476Y-7598390D01*
X11690476Y-7598390D02*
X11738095Y-7693628D01*
X11738095Y-7693628D02*
X11785714Y-7741247D01*
X11785714Y-7741247D02*
X11880952Y-7788866D01*
X11880952Y-7788866D02*
X12071428Y-7788866D01*
X12071428Y-7788866D02*
X12166666Y-7741247D01*
X12166666Y-7741247D02*
X12214285Y-7693628D01*
X12214285Y-7693628D02*
X12261904Y-7598390D01*
X40859580Y-31293922D02*
X40907200Y-31341541D01*
X40907200Y-31341541D02*
X40954819Y-31484398D01*
X40954819Y-31484398D02*
X40954819Y-31579636D01*
X40954819Y-31579636D02*
X40907200Y-31722493D01*
X40907200Y-31722493D02*
X40811961Y-31817731D01*
X40811961Y-31817731D02*
X40716723Y-31865350D01*
X40716723Y-31865350D02*
X40526247Y-31912969D01*
X40526247Y-31912969D02*
X40383390Y-31912969D01*
X40383390Y-31912969D02*
X40192914Y-31865350D01*
X40192914Y-31865350D02*
X40097676Y-31817731D01*
X40097676Y-31817731D02*
X40002438Y-31722493D01*
X40002438Y-31722493D02*
X39954819Y-31579636D01*
X39954819Y-31579636D02*
X39954819Y-31484398D01*
X39954819Y-31484398D02*
X40002438Y-31341541D01*
X40002438Y-31341541D02*
X40050057Y-31293922D01*
X39954819Y-30960588D02*
X39954819Y-30341541D01*
X39954819Y-30341541D02*
X40335771Y-30674874D01*
X40335771Y-30674874D02*
X40335771Y-30532017D01*
X40335771Y-30532017D02*
X40383390Y-30436779D01*
X40383390Y-30436779D02*
X40431009Y-30389160D01*
X40431009Y-30389160D02*
X40526247Y-30341541D01*
X40526247Y-30341541D02*
X40764342Y-30341541D01*
X40764342Y-30341541D02*
X40859580Y-30389160D01*
X40859580Y-30389160D02*
X40907200Y-30436779D01*
X40907200Y-30436779D02*
X40954819Y-30532017D01*
X40954819Y-30532017D02*
X40954819Y-30817731D01*
X40954819Y-30817731D02*
X40907200Y-30912969D01*
X40907200Y-30912969D02*
X40859580Y-30960588D01*
X39954819Y-30008207D02*
X39954819Y-29341541D01*
X39954819Y-29341541D02*
X40954819Y-29770112D01*
X52054819Y-15641792D02*
X51578628Y-15975125D01*
X52054819Y-16213220D02*
X51054819Y-16213220D01*
X51054819Y-16213220D02*
X51054819Y-15832268D01*
X51054819Y-15832268D02*
X51102438Y-15737030D01*
X51102438Y-15737030D02*
X51150057Y-15689411D01*
X51150057Y-15689411D02*
X51245295Y-15641792D01*
X51245295Y-15641792D02*
X51388152Y-15641792D01*
X51388152Y-15641792D02*
X51483390Y-15689411D01*
X51483390Y-15689411D02*
X51531009Y-15737030D01*
X51531009Y-15737030D02*
X51578628Y-15832268D01*
X51578628Y-15832268D02*
X51578628Y-16213220D01*
X52054819Y-14689411D02*
X52054819Y-15260839D01*
X52054819Y-14975125D02*
X51054819Y-14975125D01*
X51054819Y-14975125D02*
X51197676Y-15070363D01*
X51197676Y-15070363D02*
X51292914Y-15165601D01*
X51292914Y-15165601D02*
X51340533Y-15260839D01*
X21408207Y-1559580D02*
X21360588Y-1607200D01*
X21360588Y-1607200D02*
X21217731Y-1654819D01*
X21217731Y-1654819D02*
X21122493Y-1654819D01*
X21122493Y-1654819D02*
X20979636Y-1607200D01*
X20979636Y-1607200D02*
X20884398Y-1511961D01*
X20884398Y-1511961D02*
X20836779Y-1416723D01*
X20836779Y-1416723D02*
X20789160Y-1226247D01*
X20789160Y-1226247D02*
X20789160Y-1083390D01*
X20789160Y-1083390D02*
X20836779Y-892914D01*
X20836779Y-892914D02*
X20884398Y-797676D01*
X20884398Y-797676D02*
X20979636Y-702438D01*
X20979636Y-702438D02*
X21122493Y-654819D01*
X21122493Y-654819D02*
X21217731Y-654819D01*
X21217731Y-654819D02*
X21360588Y-702438D01*
X21360588Y-702438D02*
X21408207Y-750057D01*
X22360588Y-1654819D02*
X21789160Y-1654819D01*
X22074874Y-1654819D02*
X22074874Y-654819D01*
X22074874Y-654819D02*
X21979636Y-797676D01*
X21979636Y-797676D02*
X21884398Y-892914D01*
X21884398Y-892914D02*
X21789160Y-940533D01*
X23265350Y-654819D02*
X22789160Y-654819D01*
X22789160Y-654819D02*
X22741541Y-1131009D01*
X22741541Y-1131009D02*
X22789160Y-1083390D01*
X22789160Y-1083390D02*
X22884398Y-1035771D01*
X22884398Y-1035771D02*
X23122493Y-1035771D01*
X23122493Y-1035771D02*
X23217731Y-1083390D01*
X23217731Y-1083390D02*
X23265350Y-1131009D01*
X23265350Y-1131009D02*
X23312969Y-1226247D01*
X23312969Y-1226247D02*
X23312969Y-1464342D01*
X23312969Y-1464342D02*
X23265350Y-1559580D01*
X23265350Y-1559580D02*
X23217731Y-1607200D01*
X23217731Y-1607200D02*
X23122493Y-1654819D01*
X23122493Y-1654819D02*
X22884398Y-1654819D01*
X22884398Y-1654819D02*
X22789160Y-1607200D01*
X22789160Y-1607200D02*
X22741541Y-1559580D01*
X39758458Y-17874580D02*
X39710839Y-17922200D01*
X39710839Y-17922200D02*
X39567982Y-17969819D01*
X39567982Y-17969819D02*
X39472744Y-17969819D01*
X39472744Y-17969819D02*
X39329887Y-17922200D01*
X39329887Y-17922200D02*
X39234649Y-17826961D01*
X39234649Y-17826961D02*
X39187030Y-17731723D01*
X39187030Y-17731723D02*
X39139411Y-17541247D01*
X39139411Y-17541247D02*
X39139411Y-17398390D01*
X39139411Y-17398390D02*
X39187030Y-17207914D01*
X39187030Y-17207914D02*
X39234649Y-17112676D01*
X39234649Y-17112676D02*
X39329887Y-17017438D01*
X39329887Y-17017438D02*
X39472744Y-16969819D01*
X39472744Y-16969819D02*
X39567982Y-16969819D01*
X39567982Y-16969819D02*
X39710839Y-17017438D01*
X39710839Y-17017438D02*
X39758458Y-17065057D01*
X40615601Y-17303152D02*
X40615601Y-17969819D01*
X40377506Y-16922200D02*
X40139411Y-17636485D01*
X40139411Y-17636485D02*
X40758458Y-17636485D01*
X9559580Y-5486049D02*
X9607200Y-5533668D01*
X9607200Y-5533668D02*
X9654819Y-5676525D01*
X9654819Y-5676525D02*
X9654819Y-5771763D01*
X9654819Y-5771763D02*
X9607200Y-5914620D01*
X9607200Y-5914620D02*
X9511961Y-6009858D01*
X9511961Y-6009858D02*
X9416723Y-6057477D01*
X9416723Y-6057477D02*
X9226247Y-6105096D01*
X9226247Y-6105096D02*
X9083390Y-6105096D01*
X9083390Y-6105096D02*
X8892914Y-6057477D01*
X8892914Y-6057477D02*
X8797676Y-6009858D01*
X8797676Y-6009858D02*
X8702438Y-5914620D01*
X8702438Y-5914620D02*
X8654819Y-5771763D01*
X8654819Y-5771763D02*
X8654819Y-5676525D01*
X8654819Y-5676525D02*
X8702438Y-5533668D01*
X8702438Y-5533668D02*
X8750057Y-5486049D01*
X8750057Y-5105096D02*
X8702438Y-5057477D01*
X8702438Y-5057477D02*
X8654819Y-4962239D01*
X8654819Y-4962239D02*
X8654819Y-4724144D01*
X8654819Y-4724144D02*
X8702438Y-4628906D01*
X8702438Y-4628906D02*
X8750057Y-4581287D01*
X8750057Y-4581287D02*
X8845295Y-4533668D01*
X8845295Y-4533668D02*
X8940533Y-4533668D01*
X8940533Y-4533668D02*
X9083390Y-4581287D01*
X9083390Y-4581287D02*
X9654819Y-5152715D01*
X9654819Y-5152715D02*
X9654819Y-4533668D01*
X9083390Y-3962239D02*
X9035771Y-4057477D01*
X9035771Y-4057477D02*
X8988152Y-4105096D01*
X8988152Y-4105096D02*
X8892914Y-4152715D01*
X8892914Y-4152715D02*
X8845295Y-4152715D01*
X8845295Y-4152715D02*
X8750057Y-4105096D01*
X8750057Y-4105096D02*
X8702438Y-4057477D01*
X8702438Y-4057477D02*
X8654819Y-3962239D01*
X8654819Y-3962239D02*
X8654819Y-3771763D01*
X8654819Y-3771763D02*
X8702438Y-3676525D01*
X8702438Y-3676525D02*
X8750057Y-3628906D01*
X8750057Y-3628906D02*
X8845295Y-3581287D01*
X8845295Y-3581287D02*
X8892914Y-3581287D01*
X8892914Y-3581287D02*
X8988152Y-3628906D01*
X8988152Y-3628906D02*
X9035771Y-3676525D01*
X9035771Y-3676525D02*
X9083390Y-3771763D01*
X9083390Y-3771763D02*
X9083390Y-3962239D01*
X9083390Y-3962239D02*
X9131009Y-4057477D01*
X9131009Y-4057477D02*
X9178628Y-4105096D01*
X9178628Y-4105096D02*
X9273866Y-4152715D01*
X9273866Y-4152715D02*
X9464342Y-4152715D01*
X9464342Y-4152715D02*
X9559580Y-4105096D01*
X9559580Y-4105096D02*
X9607200Y-4057477D01*
X9607200Y-4057477D02*
X9654819Y-3962239D01*
X9654819Y-3962239D02*
X9654819Y-3771763D01*
X9654819Y-3771763D02*
X9607200Y-3676525D01*
X9607200Y-3676525D02*
X9559580Y-3628906D01*
X9559580Y-3628906D02*
X9464342Y-3581287D01*
X9464342Y-3581287D02*
X9273866Y-3581287D01*
X9273866Y-3581287D02*
X9178628Y-3628906D01*
X9178628Y-3628906D02*
X9131009Y-3676525D01*
X9131009Y-3676525D02*
X9083390Y-3771763D01*
X10357142Y-12539819D02*
X10023809Y-12063628D01*
X9785714Y-12539819D02*
X9785714Y-11539819D01*
X9785714Y-11539819D02*
X10166666Y-11539819D01*
X10166666Y-11539819D02*
X10261904Y-11587438D01*
X10261904Y-11587438D02*
X10309523Y-11635057D01*
X10309523Y-11635057D02*
X10357142Y-11730295D01*
X10357142Y-11730295D02*
X10357142Y-11873152D01*
X10357142Y-11873152D02*
X10309523Y-11968390D01*
X10309523Y-11968390D02*
X10261904Y-12016009D01*
X10261904Y-12016009D02*
X10166666Y-12063628D01*
X10166666Y-12063628D02*
X9785714Y-12063628D01*
X10690476Y-11539819D02*
X11309523Y-11539819D01*
X11309523Y-11539819D02*
X10976190Y-11920771D01*
X10976190Y-11920771D02*
X11119047Y-11920771D01*
X11119047Y-11920771D02*
X11214285Y-11968390D01*
X11214285Y-11968390D02*
X11261904Y-12016009D01*
X11261904Y-12016009D02*
X11309523Y-12111247D01*
X11309523Y-12111247D02*
X11309523Y-12349342D01*
X11309523Y-12349342D02*
X11261904Y-12444580D01*
X11261904Y-12444580D02*
X11214285Y-12492200D01*
X11214285Y-12492200D02*
X11119047Y-12539819D01*
X11119047Y-12539819D02*
X10833333Y-12539819D01*
X10833333Y-12539819D02*
X10738095Y-12492200D01*
X10738095Y-12492200D02*
X10690476Y-12444580D01*
X11880952Y-11968390D02*
X11785714Y-11920771D01*
X11785714Y-11920771D02*
X11738095Y-11873152D01*
X11738095Y-11873152D02*
X11690476Y-11777914D01*
X11690476Y-11777914D02*
X11690476Y-11730295D01*
X11690476Y-11730295D02*
X11738095Y-11635057D01*
X11738095Y-11635057D02*
X11785714Y-11587438D01*
X11785714Y-11587438D02*
X11880952Y-11539819D01*
X11880952Y-11539819D02*
X12071428Y-11539819D01*
X12071428Y-11539819D02*
X12166666Y-11587438D01*
X12166666Y-11587438D02*
X12214285Y-11635057D01*
X12214285Y-11635057D02*
X12261904Y-11730295D01*
X12261904Y-11730295D02*
X12261904Y-11777914D01*
X12261904Y-11777914D02*
X12214285Y-11873152D01*
X12214285Y-11873152D02*
X12166666Y-11920771D01*
X12166666Y-11920771D02*
X12071428Y-11968390D01*
X12071428Y-11968390D02*
X11880952Y-11968390D01*
X11880952Y-11968390D02*
X11785714Y-12016009D01*
X11785714Y-12016009D02*
X11738095Y-12063628D01*
X11738095Y-12063628D02*
X11690476Y-12158866D01*
X11690476Y-12158866D02*
X11690476Y-12349342D01*
X11690476Y-12349342D02*
X11738095Y-12444580D01*
X11738095Y-12444580D02*
X11785714Y-12492200D01*
X11785714Y-12492200D02*
X11880952Y-12539819D01*
X11880952Y-12539819D02*
X12071428Y-12539819D01*
X12071428Y-12539819D02*
X12166666Y-12492200D01*
X12166666Y-12492200D02*
X12214285Y-12444580D01*
X12214285Y-12444580D02*
X12261904Y-12349342D01*
X12261904Y-12349342D02*
X12261904Y-12158866D01*
X12261904Y-12158866D02*
X12214285Y-12063628D01*
X12214285Y-12063628D02*
X12166666Y-12016009D01*
X12166666Y-12016009D02*
X12071428Y-11968390D01*
X19757142Y-8239819D02*
X19423809Y-7763628D01*
X19185714Y-8239819D02*
X19185714Y-7239819D01*
X19185714Y-7239819D02*
X19566666Y-7239819D01*
X19566666Y-7239819D02*
X19661904Y-7287438D01*
X19661904Y-7287438D02*
X19709523Y-7335057D01*
X19709523Y-7335057D02*
X19757142Y-7430295D01*
X19757142Y-7430295D02*
X19757142Y-7573152D01*
X19757142Y-7573152D02*
X19709523Y-7668390D01*
X19709523Y-7668390D02*
X19661904Y-7716009D01*
X19661904Y-7716009D02*
X19566666Y-7763628D01*
X19566666Y-7763628D02*
X19185714Y-7763628D01*
X20709523Y-8239819D02*
X20138095Y-8239819D01*
X20423809Y-8239819D02*
X20423809Y-7239819D01*
X20423809Y-7239819D02*
X20328571Y-7382676D01*
X20328571Y-7382676D02*
X20233333Y-7477914D01*
X20233333Y-7477914D02*
X20138095Y-7525533D01*
X21614285Y-7239819D02*
X21138095Y-7239819D01*
X21138095Y-7239819D02*
X21090476Y-7716009D01*
X21090476Y-7716009D02*
X21138095Y-7668390D01*
X21138095Y-7668390D02*
X21233333Y-7620771D01*
X21233333Y-7620771D02*
X21471428Y-7620771D01*
X21471428Y-7620771D02*
X21566666Y-7668390D01*
X21566666Y-7668390D02*
X21614285Y-7716009D01*
X21614285Y-7716009D02*
X21661904Y-7811247D01*
X21661904Y-7811247D02*
X21661904Y-8049342D01*
X21661904Y-8049342D02*
X21614285Y-8144580D01*
X21614285Y-8144580D02*
X21566666Y-8192200D01*
X21566666Y-8192200D02*
X21471428Y-8239819D01*
X21471428Y-8239819D02*
X21233333Y-8239819D01*
X21233333Y-8239819D02*
X21138095Y-8192200D01*
X21138095Y-8192200D02*
X21090476Y-8144580D01*
X10258458Y-19054819D02*
X9925125Y-18578628D01*
X9687030Y-19054819D02*
X9687030Y-18054819D01*
X9687030Y-18054819D02*
X10067982Y-18054819D01*
X10067982Y-18054819D02*
X10163220Y-18102438D01*
X10163220Y-18102438D02*
X10210839Y-18150057D01*
X10210839Y-18150057D02*
X10258458Y-18245295D01*
X10258458Y-18245295D02*
X10258458Y-18388152D01*
X10258458Y-18388152D02*
X10210839Y-18483390D01*
X10210839Y-18483390D02*
X10163220Y-18531009D01*
X10163220Y-18531009D02*
X10067982Y-18578628D01*
X10067982Y-18578628D02*
X9687030Y-18578628D01*
X10591792Y-18054819D02*
X11258458Y-18054819D01*
X11258458Y-18054819D02*
X10829887Y-19054819D01*
X19757142Y-3869819D02*
X19423809Y-3393628D01*
X19185714Y-3869819D02*
X19185714Y-2869819D01*
X19185714Y-2869819D02*
X19566666Y-2869819D01*
X19566666Y-2869819D02*
X19661904Y-2917438D01*
X19661904Y-2917438D02*
X19709523Y-2965057D01*
X19709523Y-2965057D02*
X19757142Y-3060295D01*
X19757142Y-3060295D02*
X19757142Y-3203152D01*
X19757142Y-3203152D02*
X19709523Y-3298390D01*
X19709523Y-3298390D02*
X19661904Y-3346009D01*
X19661904Y-3346009D02*
X19566666Y-3393628D01*
X19566666Y-3393628D02*
X19185714Y-3393628D01*
X20709523Y-3869819D02*
X20138095Y-3869819D01*
X20423809Y-3869819D02*
X20423809Y-2869819D01*
X20423809Y-2869819D02*
X20328571Y-3012676D01*
X20328571Y-3012676D02*
X20233333Y-3107914D01*
X20233333Y-3107914D02*
X20138095Y-3155533D01*
X21566666Y-2869819D02*
X21376190Y-2869819D01*
X21376190Y-2869819D02*
X21280952Y-2917438D01*
X21280952Y-2917438D02*
X21233333Y-2965057D01*
X21233333Y-2965057D02*
X21138095Y-3107914D01*
X21138095Y-3107914D02*
X21090476Y-3298390D01*
X21090476Y-3298390D02*
X21090476Y-3679342D01*
X21090476Y-3679342D02*
X21138095Y-3774580D01*
X21138095Y-3774580D02*
X21185714Y-3822200D01*
X21185714Y-3822200D02*
X21280952Y-3869819D01*
X21280952Y-3869819D02*
X21471428Y-3869819D01*
X21471428Y-3869819D02*
X21566666Y-3822200D01*
X21566666Y-3822200D02*
X21614285Y-3774580D01*
X21614285Y-3774580D02*
X21661904Y-3679342D01*
X21661904Y-3679342D02*
X21661904Y-3441247D01*
X21661904Y-3441247D02*
X21614285Y-3346009D01*
X21614285Y-3346009D02*
X21566666Y-3298390D01*
X21566666Y-3298390D02*
X21471428Y-3250771D01*
X21471428Y-3250771D02*
X21280952Y-3250771D01*
X21280952Y-3250771D02*
X21185714Y-3298390D01*
X21185714Y-3298390D02*
X21138095Y-3346009D01*
X21138095Y-3346009D02*
X21090476Y-3441247D01*
X6038095Y-6954819D02*
X6038095Y-7764342D01*
X6038095Y-7764342D02*
X6085714Y-7859580D01*
X6085714Y-7859580D02*
X6133333Y-7907200D01*
X6133333Y-7907200D02*
X6228571Y-7954819D01*
X6228571Y-7954819D02*
X6419047Y-7954819D01*
X6419047Y-7954819D02*
X6514285Y-7907200D01*
X6514285Y-7907200D02*
X6561904Y-7859580D01*
X6561904Y-7859580D02*
X6609523Y-7764342D01*
X6609523Y-7764342D02*
X6609523Y-6954819D01*
X6990476Y-6954819D02*
X7609523Y-6954819D01*
X7609523Y-6954819D02*
X7276190Y-7335771D01*
X7276190Y-7335771D02*
X7419047Y-7335771D01*
X7419047Y-7335771D02*
X7514285Y-7383390D01*
X7514285Y-7383390D02*
X7561904Y-7431009D01*
X7561904Y-7431009D02*
X7609523Y-7526247D01*
X7609523Y-7526247D02*
X7609523Y-7764342D01*
X7609523Y-7764342D02*
X7561904Y-7859580D01*
X7561904Y-7859580D02*
X7514285Y-7907200D01*
X7514285Y-7907200D02*
X7419047Y-7954819D01*
X7419047Y-7954819D02*
X7133333Y-7954819D01*
X7133333Y-7954819D02*
X7038095Y-7907200D01*
X7038095Y-7907200D02*
X6990476Y-7859580D01*
X10258458Y-17554819D02*
X9925125Y-17078628D01*
X9687030Y-17554819D02*
X9687030Y-16554819D01*
X9687030Y-16554819D02*
X10067982Y-16554819D01*
X10067982Y-16554819D02*
X10163220Y-16602438D01*
X10163220Y-16602438D02*
X10210839Y-16650057D01*
X10210839Y-16650057D02*
X10258458Y-16745295D01*
X10258458Y-16745295D02*
X10258458Y-16888152D01*
X10258458Y-16888152D02*
X10210839Y-16983390D01*
X10210839Y-16983390D02*
X10163220Y-17031009D01*
X10163220Y-17031009D02*
X10067982Y-17078628D01*
X10067982Y-17078628D02*
X9687030Y-17078628D01*
X10829887Y-16983390D02*
X10734649Y-16935771D01*
X10734649Y-16935771D02*
X10687030Y-16888152D01*
X10687030Y-16888152D02*
X10639411Y-16792914D01*
X10639411Y-16792914D02*
X10639411Y-16745295D01*
X10639411Y-16745295D02*
X10687030Y-16650057D01*
X10687030Y-16650057D02*
X10734649Y-16602438D01*
X10734649Y-16602438D02*
X10829887Y-16554819D01*
X10829887Y-16554819D02*
X11020363Y-16554819D01*
X11020363Y-16554819D02*
X11115601Y-16602438D01*
X11115601Y-16602438D02*
X11163220Y-16650057D01*
X11163220Y-16650057D02*
X11210839Y-16745295D01*
X11210839Y-16745295D02*
X11210839Y-16792914D01*
X11210839Y-16792914D02*
X11163220Y-16888152D01*
X11163220Y-16888152D02*
X11115601Y-16935771D01*
X11115601Y-16935771D02*
X11020363Y-16983390D01*
X11020363Y-16983390D02*
X10829887Y-16983390D01*
X10829887Y-16983390D02*
X10734649Y-17031009D01*
X10734649Y-17031009D02*
X10687030Y-17078628D01*
X10687030Y-17078628D02*
X10639411Y-17173866D01*
X10639411Y-17173866D02*
X10639411Y-17364342D01*
X10639411Y-17364342D02*
X10687030Y-17459580D01*
X10687030Y-17459580D02*
X10734649Y-17507200D01*
X10734649Y-17507200D02*
X10829887Y-17554819D01*
X10829887Y-17554819D02*
X11020363Y-17554819D01*
X11020363Y-17554819D02*
X11115601Y-17507200D01*
X11115601Y-17507200D02*
X11163220Y-17459580D01*
X11163220Y-17459580D02*
X11210839Y-17364342D01*
X11210839Y-17364342D02*
X11210839Y-17173866D01*
X11210839Y-17173866D02*
X11163220Y-17078628D01*
X11163220Y-17078628D02*
X11115601Y-17031009D01*
X11115601Y-17031009D02*
X11020363Y-16983390D01*
X55666666Y-1254819D02*
X55666666Y-1969104D01*
X55666666Y-1969104D02*
X55619047Y-2111961D01*
X55619047Y-2111961D02*
X55523809Y-2207200D01*
X55523809Y-2207200D02*
X55380952Y-2254819D01*
X55380952Y-2254819D02*
X55285714Y-2254819D01*
X56619047Y-1254819D02*
X56142857Y-1254819D01*
X56142857Y-1254819D02*
X56095238Y-1731009D01*
X56095238Y-1731009D02*
X56142857Y-1683390D01*
X56142857Y-1683390D02*
X56238095Y-1635771D01*
X56238095Y-1635771D02*
X56476190Y-1635771D01*
X56476190Y-1635771D02*
X56571428Y-1683390D01*
X56571428Y-1683390D02*
X56619047Y-1731009D01*
X56619047Y-1731009D02*
X56666666Y-1826247D01*
X56666666Y-1826247D02*
X56666666Y-2064342D01*
X56666666Y-2064342D02*
X56619047Y-2159580D01*
X56619047Y-2159580D02*
X56571428Y-2207200D01*
X56571428Y-2207200D02*
X56476190Y-2254819D01*
X56476190Y-2254819D02*
X56238095Y-2254819D01*
X56238095Y-2254819D02*
X56142857Y-2207200D01*
X56142857Y-2207200D02*
X56095238Y-2159580D01*
X34158458Y-19054819D02*
X33825125Y-18578628D01*
X33587030Y-19054819D02*
X33587030Y-18054819D01*
X33587030Y-18054819D02*
X33967982Y-18054819D01*
X33967982Y-18054819D02*
X34063220Y-18102438D01*
X34063220Y-18102438D02*
X34110839Y-18150057D01*
X34110839Y-18150057D02*
X34158458Y-18245295D01*
X34158458Y-18245295D02*
X34158458Y-18388152D01*
X34158458Y-18388152D02*
X34110839Y-18483390D01*
X34110839Y-18483390D02*
X34063220Y-18531009D01*
X34063220Y-18531009D02*
X33967982Y-18578628D01*
X33967982Y-18578628D02*
X33587030Y-18578628D01*
X35015601Y-18388152D02*
X35015601Y-19054819D01*
X34777506Y-18007200D02*
X34539411Y-18721485D01*
X34539411Y-18721485D02*
X35158458Y-18721485D01*
X37957142Y-20759580D02*
X37909523Y-20807200D01*
X37909523Y-20807200D02*
X37766666Y-20854819D01*
X37766666Y-20854819D02*
X37671428Y-20854819D01*
X37671428Y-20854819D02*
X37528571Y-20807200D01*
X37528571Y-20807200D02*
X37433333Y-20711961D01*
X37433333Y-20711961D02*
X37385714Y-20616723D01*
X37385714Y-20616723D02*
X37338095Y-20426247D01*
X37338095Y-20426247D02*
X37338095Y-20283390D01*
X37338095Y-20283390D02*
X37385714Y-20092914D01*
X37385714Y-20092914D02*
X37433333Y-19997676D01*
X37433333Y-19997676D02*
X37528571Y-19902438D01*
X37528571Y-19902438D02*
X37671428Y-19854819D01*
X37671428Y-19854819D02*
X37766666Y-19854819D01*
X37766666Y-19854819D02*
X37909523Y-19902438D01*
X37909523Y-19902438D02*
X37957142Y-19950057D01*
X38290476Y-19854819D02*
X38909523Y-19854819D01*
X38909523Y-19854819D02*
X38576190Y-20235771D01*
X38576190Y-20235771D02*
X38719047Y-20235771D01*
X38719047Y-20235771D02*
X38814285Y-20283390D01*
X38814285Y-20283390D02*
X38861904Y-20331009D01*
X38861904Y-20331009D02*
X38909523Y-20426247D01*
X38909523Y-20426247D02*
X38909523Y-20664342D01*
X38909523Y-20664342D02*
X38861904Y-20759580D01*
X38861904Y-20759580D02*
X38814285Y-20807200D01*
X38814285Y-20807200D02*
X38719047Y-20854819D01*
X38719047Y-20854819D02*
X38433333Y-20854819D01*
X38433333Y-20854819D02*
X38338095Y-20807200D01*
X38338095Y-20807200D02*
X38290476Y-20759580D01*
X39766666Y-19854819D02*
X39576190Y-19854819D01*
X39576190Y-19854819D02*
X39480952Y-19902438D01*
X39480952Y-19902438D02*
X39433333Y-19950057D01*
X39433333Y-19950057D02*
X39338095Y-20092914D01*
X39338095Y-20092914D02*
X39290476Y-20283390D01*
X39290476Y-20283390D02*
X39290476Y-20664342D01*
X39290476Y-20664342D02*
X39338095Y-20759580D01*
X39338095Y-20759580D02*
X39385714Y-20807200D01*
X39385714Y-20807200D02*
X39480952Y-20854819D01*
X39480952Y-20854819D02*
X39671428Y-20854819D01*
X39671428Y-20854819D02*
X39766666Y-20807200D01*
X39766666Y-20807200D02*
X39814285Y-20759580D01*
X39814285Y-20759580D02*
X39861904Y-20664342D01*
X39861904Y-20664342D02*
X39861904Y-20426247D01*
X39861904Y-20426247D02*
X39814285Y-20331009D01*
X39814285Y-20331009D02*
X39766666Y-20283390D01*
X39766666Y-20283390D02*
X39671428Y-20235771D01*
X39671428Y-20235771D02*
X39480952Y-20235771D01*
X39480952Y-20235771D02*
X39385714Y-20283390D01*
X39385714Y-20283390D02*
X39338095Y-20331009D01*
X39338095Y-20331009D02*
X39290476Y-20426247D01*
X18557142Y-20799580D02*
X18509523Y-20847200D01*
X18509523Y-20847200D02*
X18366666Y-20894819D01*
X18366666Y-20894819D02*
X18271428Y-20894819D01*
X18271428Y-20894819D02*
X18128571Y-20847200D01*
X18128571Y-20847200D02*
X18033333Y-20751961D01*
X18033333Y-20751961D02*
X17985714Y-20656723D01*
X17985714Y-20656723D02*
X17938095Y-20466247D01*
X17938095Y-20466247D02*
X17938095Y-20323390D01*
X17938095Y-20323390D02*
X17985714Y-20132914D01*
X17985714Y-20132914D02*
X18033333Y-20037676D01*
X18033333Y-20037676D02*
X18128571Y-19942438D01*
X18128571Y-19942438D02*
X18271428Y-19894819D01*
X18271428Y-19894819D02*
X18366666Y-19894819D01*
X18366666Y-19894819D02*
X18509523Y-19942438D01*
X18509523Y-19942438D02*
X18557142Y-19990057D01*
X19414285Y-20228152D02*
X19414285Y-20894819D01*
X19176190Y-19847200D02*
X18938095Y-20561485D01*
X18938095Y-20561485D02*
X19557142Y-20561485D01*
X20128571Y-19894819D02*
X20223809Y-19894819D01*
X20223809Y-19894819D02*
X20319047Y-19942438D01*
X20319047Y-19942438D02*
X20366666Y-19990057D01*
X20366666Y-19990057D02*
X20414285Y-20085295D01*
X20414285Y-20085295D02*
X20461904Y-20275771D01*
X20461904Y-20275771D02*
X20461904Y-20513866D01*
X20461904Y-20513866D02*
X20414285Y-20704342D01*
X20414285Y-20704342D02*
X20366666Y-20799580D01*
X20366666Y-20799580D02*
X20319047Y-20847200D01*
X20319047Y-20847200D02*
X20223809Y-20894819D01*
X20223809Y-20894819D02*
X20128571Y-20894819D01*
X20128571Y-20894819D02*
X20033333Y-20847200D01*
X20033333Y-20847200D02*
X19985714Y-20799580D01*
X19985714Y-20799580D02*
X19938095Y-20704342D01*
X19938095Y-20704342D02*
X19890476Y-20513866D01*
X19890476Y-20513866D02*
X19890476Y-20275771D01*
X19890476Y-20275771D02*
X19938095Y-20085295D01*
X19938095Y-20085295D02*
X19985714Y-19990057D01*
X19985714Y-19990057D02*
X20033333Y-19942438D01*
X20033333Y-19942438D02*
X20128571Y-19894819D01*
X50554819Y-15641792D02*
X50078628Y-15975125D01*
X50554819Y-16213220D02*
X49554819Y-16213220D01*
X49554819Y-16213220D02*
X49554819Y-15832268D01*
X49554819Y-15832268D02*
X49602438Y-15737030D01*
X49602438Y-15737030D02*
X49650057Y-15689411D01*
X49650057Y-15689411D02*
X49745295Y-15641792D01*
X49745295Y-15641792D02*
X49888152Y-15641792D01*
X49888152Y-15641792D02*
X49983390Y-15689411D01*
X49983390Y-15689411D02*
X50031009Y-15737030D01*
X50031009Y-15737030D02*
X50078628Y-15832268D01*
X50078628Y-15832268D02*
X50078628Y-16213220D01*
X49650057Y-15260839D02*
X49602438Y-15213220D01*
X49602438Y-15213220D02*
X49554819Y-15117982D01*
X49554819Y-15117982D02*
X49554819Y-14879887D01*
X49554819Y-14879887D02*
X49602438Y-14784649D01*
X49602438Y-14784649D02*
X49650057Y-14737030D01*
X49650057Y-14737030D02*
X49745295Y-14689411D01*
X49745295Y-14689411D02*
X49840533Y-14689411D01*
X49840533Y-14689411D02*
X49983390Y-14737030D01*
X49983390Y-14737030D02*
X50554819Y-15308458D01*
X50554819Y-15308458D02*
X50554819Y-14689411D01*
X14154819Y-4642857D02*
X13678628Y-4976190D01*
X14154819Y-5214285D02*
X13154819Y-5214285D01*
X13154819Y-5214285D02*
X13154819Y-4833333D01*
X13154819Y-4833333D02*
X13202438Y-4738095D01*
X13202438Y-4738095D02*
X13250057Y-4690476D01*
X13250057Y-4690476D02*
X13345295Y-4642857D01*
X13345295Y-4642857D02*
X13488152Y-4642857D01*
X13488152Y-4642857D02*
X13583390Y-4690476D01*
X13583390Y-4690476D02*
X13631009Y-4738095D01*
X13631009Y-4738095D02*
X13678628Y-4833333D01*
X13678628Y-4833333D02*
X13678628Y-5214285D01*
X14154819Y-3690476D02*
X14154819Y-4261904D01*
X14154819Y-3976190D02*
X13154819Y-3976190D01*
X13154819Y-3976190D02*
X13297676Y-4071428D01*
X13297676Y-4071428D02*
X13392914Y-4166666D01*
X13392914Y-4166666D02*
X13440533Y-4261904D01*
X13154819Y-3357142D02*
X13154819Y-2690476D01*
X13154819Y-2690476D02*
X14154819Y-3119047D01*
X11059580Y-5493922D02*
X11107200Y-5541541D01*
X11107200Y-5541541D02*
X11154819Y-5684398D01*
X11154819Y-5684398D02*
X11154819Y-5779636D01*
X11154819Y-5779636D02*
X11107200Y-5922493D01*
X11107200Y-5922493D02*
X11011961Y-6017731D01*
X11011961Y-6017731D02*
X10916723Y-6065350D01*
X10916723Y-6065350D02*
X10726247Y-6112969D01*
X10726247Y-6112969D02*
X10583390Y-6112969D01*
X10583390Y-6112969D02*
X10392914Y-6065350D01*
X10392914Y-6065350D02*
X10297676Y-6017731D01*
X10297676Y-6017731D02*
X10202438Y-5922493D01*
X10202438Y-5922493D02*
X10154819Y-5779636D01*
X10154819Y-5779636D02*
X10154819Y-5684398D01*
X10154819Y-5684398D02*
X10202438Y-5541541D01*
X10202438Y-5541541D02*
X10250057Y-5493922D01*
X10250057Y-5112969D02*
X10202438Y-5065350D01*
X10202438Y-5065350D02*
X10154819Y-4970112D01*
X10154819Y-4970112D02*
X10154819Y-4732017D01*
X10154819Y-4732017D02*
X10202438Y-4636779D01*
X10202438Y-4636779D02*
X10250057Y-4589160D01*
X10250057Y-4589160D02*
X10345295Y-4541541D01*
X10345295Y-4541541D02*
X10440533Y-4541541D01*
X10440533Y-4541541D02*
X10583390Y-4589160D01*
X10583390Y-4589160D02*
X11154819Y-5160588D01*
X11154819Y-5160588D02*
X11154819Y-4541541D01*
X11154819Y-4065350D02*
X11154819Y-3874874D01*
X11154819Y-3874874D02*
X11107200Y-3779636D01*
X11107200Y-3779636D02*
X11059580Y-3732017D01*
X11059580Y-3732017D02*
X10916723Y-3636779D01*
X10916723Y-3636779D02*
X10726247Y-3589160D01*
X10726247Y-3589160D02*
X10345295Y-3589160D01*
X10345295Y-3589160D02*
X10250057Y-3636779D01*
X10250057Y-3636779D02*
X10202438Y-3684398D01*
X10202438Y-3684398D02*
X10154819Y-3779636D01*
X10154819Y-3779636D02*
X10154819Y-3970112D01*
X10154819Y-3970112D02*
X10202438Y-4065350D01*
X10202438Y-4065350D02*
X10250057Y-4112969D01*
X10250057Y-4112969D02*
X10345295Y-4160588D01*
X10345295Y-4160588D02*
X10583390Y-4160588D01*
X10583390Y-4160588D02*
X10678628Y-4112969D01*
X10678628Y-4112969D02*
X10726247Y-4065350D01*
X10726247Y-4065350D02*
X10773866Y-3970112D01*
X10773866Y-3970112D02*
X10773866Y-3779636D01*
X10773866Y-3779636D02*
X10726247Y-3684398D01*
X10726247Y-3684398D02*
X10678628Y-3636779D01*
X10678628Y-3636779D02*
X10583390Y-3589160D01*
X6429533Y-14454819D02*
X5953343Y-14454819D01*
X5953343Y-14454819D02*
X5953343Y-13454819D01*
X7286676Y-14454819D02*
X6715248Y-14454819D01*
X7000962Y-14454819D02*
X7000962Y-13454819D01*
X7000962Y-13454819D02*
X6905724Y-13597676D01*
X6905724Y-13597676D02*
X6810486Y-13692914D01*
X6810486Y-13692914D02*
X6715248Y-13740533D01*
X52193922Y-7254819D02*
X52765350Y-7254819D01*
X52479636Y-8254819D02*
X52479636Y-7254819D01*
X53003446Y-7254819D02*
X53670112Y-8254819D01*
X53670112Y-7254819D02*
X53003446Y-8254819D01*
X26193922Y-7554819D02*
X26527255Y-8554819D01*
X26527255Y-8554819D02*
X26860588Y-7554819D01*
X27193922Y-7554819D02*
X27193922Y-8364342D01*
X27193922Y-8364342D02*
X27241541Y-8459580D01*
X27241541Y-8459580D02*
X27289160Y-8507200D01*
X27289160Y-8507200D02*
X27384398Y-8554819D01*
X27384398Y-8554819D02*
X27574874Y-8554819D01*
X27574874Y-8554819D02*
X27670112Y-8507200D01*
X27670112Y-8507200D02*
X27717731Y-8459580D01*
X27717731Y-8459580D02*
X27765350Y-8364342D01*
X27765350Y-8364342D02*
X27765350Y-7554819D01*
X28193922Y-8507200D02*
X28336779Y-8554819D01*
X28336779Y-8554819D02*
X28574874Y-8554819D01*
X28574874Y-8554819D02*
X28670112Y-8507200D01*
X28670112Y-8507200D02*
X28717731Y-8459580D01*
X28717731Y-8459580D02*
X28765350Y-8364342D01*
X28765350Y-8364342D02*
X28765350Y-8269104D01*
X28765350Y-8269104D02*
X28717731Y-8173866D01*
X28717731Y-8173866D02*
X28670112Y-8126247D01*
X28670112Y-8126247D02*
X28574874Y-8078628D01*
X28574874Y-8078628D02*
X28384398Y-8031009D01*
X28384398Y-8031009D02*
X28289160Y-7983390D01*
X28289160Y-7983390D02*
X28241541Y-7935771D01*
X28241541Y-7935771D02*
X28193922Y-7840533D01*
X28193922Y-7840533D02*
X28193922Y-7745295D01*
X28193922Y-7745295D02*
X28241541Y-7650057D01*
X28241541Y-7650057D02*
X28289160Y-7602438D01*
X28289160Y-7602438D02*
X28384398Y-7554819D01*
X28384398Y-7554819D02*
X28622493Y-7554819D01*
X28622493Y-7554819D02*
X28765350Y-7602438D01*
X29527255Y-8031009D02*
X29670112Y-8078628D01*
X29670112Y-8078628D02*
X29717731Y-8126247D01*
X29717731Y-8126247D02*
X29765350Y-8221485D01*
X29765350Y-8221485D02*
X29765350Y-8364342D01*
X29765350Y-8364342D02*
X29717731Y-8459580D01*
X29717731Y-8459580D02*
X29670112Y-8507200D01*
X29670112Y-8507200D02*
X29574874Y-8554819D01*
X29574874Y-8554819D02*
X29193922Y-8554819D01*
X29193922Y-8554819D02*
X29193922Y-7554819D01*
X29193922Y-7554819D02*
X29527255Y-7554819D01*
X29527255Y-7554819D02*
X29622493Y-7602438D01*
X29622493Y-7602438D02*
X29670112Y-7650057D01*
X29670112Y-7650057D02*
X29717731Y-7745295D01*
X29717731Y-7745295D02*
X29717731Y-7840533D01*
X29717731Y-7840533D02*
X29670112Y-7935771D01*
X29670112Y-7935771D02*
X29622493Y-7983390D01*
X29622493Y-7983390D02*
X29527255Y-8031009D01*
X29527255Y-8031009D02*
X29193922Y-8031009D01*
X26241541Y-11554819D02*
X26860588Y-11554819D01*
X26860588Y-11554819D02*
X26527255Y-11935771D01*
X26527255Y-11935771D02*
X26670112Y-11935771D01*
X26670112Y-11935771D02*
X26765350Y-11983390D01*
X26765350Y-11983390D02*
X26812969Y-12031009D01*
X26812969Y-12031009D02*
X26860588Y-12126247D01*
X26860588Y-12126247D02*
X26860588Y-12364342D01*
X26860588Y-12364342D02*
X26812969Y-12459580D01*
X26812969Y-12459580D02*
X26765350Y-12507200D01*
X26765350Y-12507200D02*
X26670112Y-12554819D01*
X26670112Y-12554819D02*
X26384398Y-12554819D01*
X26384398Y-12554819D02*
X26289160Y-12507200D01*
X26289160Y-12507200D02*
X26241541Y-12459580D01*
X27146303Y-11554819D02*
X27479636Y-12554819D01*
X27479636Y-12554819D02*
X27812969Y-11554819D01*
X28051065Y-11554819D02*
X28670112Y-11554819D01*
X28670112Y-11554819D02*
X28336779Y-11935771D01*
X28336779Y-11935771D02*
X28479636Y-11935771D01*
X28479636Y-11935771D02*
X28574874Y-11983390D01*
X28574874Y-11983390D02*
X28622493Y-12031009D01*
X28622493Y-12031009D02*
X28670112Y-12126247D01*
X28670112Y-12126247D02*
X28670112Y-12364342D01*
X28670112Y-12364342D02*
X28622493Y-12459580D01*
X28622493Y-12459580D02*
X28574874Y-12507200D01*
X28574874Y-12507200D02*
X28479636Y-12554819D01*
X28479636Y-12554819D02*
X28193922Y-12554819D01*
X28193922Y-12554819D02*
X28098684Y-12507200D01*
X28098684Y-12507200D02*
X28051065Y-12459580D01*
X29098684Y-12554819D02*
X29098684Y-11554819D01*
X29098684Y-11554819D02*
X29432017Y-12269104D01*
X29432017Y-12269104D02*
X29765350Y-11554819D01*
X29765350Y-11554819D02*
X29765350Y-12554819D01*
X30812969Y-12459580D02*
X30765350Y-12507200D01*
X30765350Y-12507200D02*
X30622493Y-12554819D01*
X30622493Y-12554819D02*
X30527255Y-12554819D01*
X30527255Y-12554819D02*
X30384398Y-12507200D01*
X30384398Y-12507200D02*
X30289160Y-12411961D01*
X30289160Y-12411961D02*
X30241541Y-12316723D01*
X30241541Y-12316723D02*
X30193922Y-12126247D01*
X30193922Y-12126247D02*
X30193922Y-11983390D01*
X30193922Y-11983390D02*
X30241541Y-11792914D01*
X30241541Y-11792914D02*
X30289160Y-11697676D01*
X30289160Y-11697676D02*
X30384398Y-11602438D01*
X30384398Y-11602438D02*
X30527255Y-11554819D01*
X30527255Y-11554819D02*
X30622493Y-11554819D01*
X30622493Y-11554819D02*
X30765350Y-11602438D01*
X30765350Y-11602438D02*
X30812969Y-11650057D01*
X31241541Y-11554819D02*
X31241541Y-12364342D01*
X31241541Y-12364342D02*
X31289160Y-12459580D01*
X31289160Y-12459580D02*
X31336779Y-12507200D01*
X31336779Y-12507200D02*
X31432017Y-12554819D01*
X31432017Y-12554819D02*
X31622493Y-12554819D01*
X31622493Y-12554819D02*
X31717731Y-12507200D01*
X31717731Y-12507200D02*
X31765350Y-12459580D01*
X31765350Y-12459580D02*
X31812969Y-12364342D01*
X31812969Y-12364342D02*
X31812969Y-11554819D01*
X47569819Y-18141666D02*
X47093628Y-18474999D01*
X47569819Y-18713094D02*
X46569819Y-18713094D01*
X46569819Y-18713094D02*
X46569819Y-18332142D01*
X46569819Y-18332142D02*
X46617438Y-18236904D01*
X46617438Y-18236904D02*
X46665057Y-18189285D01*
X46665057Y-18189285D02*
X46760295Y-18141666D01*
X46760295Y-18141666D02*
X46903152Y-18141666D01*
X46903152Y-18141666D02*
X46998390Y-18189285D01*
X46998390Y-18189285D02*
X47046009Y-18236904D01*
X47046009Y-18236904D02*
X47093628Y-18332142D01*
X47093628Y-18332142D02*
X47093628Y-18713094D01*
X46569819Y-17808332D02*
X46569819Y-17189285D01*
X46569819Y-17189285D02*
X46950771Y-17522618D01*
X46950771Y-17522618D02*
X46950771Y-17379761D01*
X46950771Y-17379761D02*
X46998390Y-17284523D01*
X46998390Y-17284523D02*
X47046009Y-17236904D01*
X47046009Y-17236904D02*
X47141247Y-17189285D01*
X47141247Y-17189285D02*
X47379342Y-17189285D01*
X47379342Y-17189285D02*
X47474580Y-17236904D01*
X47474580Y-17236904D02*
X47522200Y-17284523D01*
X47522200Y-17284523D02*
X47569819Y-17379761D01*
X47569819Y-17379761D02*
X47569819Y-17665475D01*
X47569819Y-17665475D02*
X47522200Y-17760713D01*
X47522200Y-17760713D02*
X47474580Y-17808332D01*
X23166666Y-2729819D02*
X23166666Y-3444104D01*
X23166666Y-3444104D02*
X23119047Y-3586961D01*
X23119047Y-3586961D02*
X23023809Y-3682200D01*
X23023809Y-3682200D02*
X22880952Y-3729819D01*
X22880952Y-3729819D02*
X22785714Y-3729819D01*
X24166666Y-3729819D02*
X23595238Y-3729819D01*
X23880952Y-3729819D02*
X23880952Y-2729819D01*
X23880952Y-2729819D02*
X23785714Y-2872676D01*
X23785714Y-2872676D02*
X23690476Y-2967914D01*
X23690476Y-2967914D02*
X23595238Y-3015533D01*
X18239819Y-7942857D02*
X17763628Y-8276190D01*
X18239819Y-8514285D02*
X17239819Y-8514285D01*
X17239819Y-8514285D02*
X17239819Y-8133333D01*
X17239819Y-8133333D02*
X17287438Y-8038095D01*
X17287438Y-8038095D02*
X17335057Y-7990476D01*
X17335057Y-7990476D02*
X17430295Y-7942857D01*
X17430295Y-7942857D02*
X17573152Y-7942857D01*
X17573152Y-7942857D02*
X17668390Y-7990476D01*
X17668390Y-7990476D02*
X17716009Y-8038095D01*
X17716009Y-8038095D02*
X17763628Y-8133333D01*
X17763628Y-8133333D02*
X17763628Y-8514285D01*
X17573152Y-7085714D02*
X18239819Y-7085714D01*
X17192200Y-7323809D02*
X17906485Y-7561904D01*
X17906485Y-7561904D02*
X17906485Y-6942857D01*
X17239819Y-6371428D02*
X17239819Y-6276190D01*
X17239819Y-6276190D02*
X17287438Y-6180952D01*
X17287438Y-6180952D02*
X17335057Y-6133333D01*
X17335057Y-6133333D02*
X17430295Y-6085714D01*
X17430295Y-6085714D02*
X17620771Y-6038095D01*
X17620771Y-6038095D02*
X17858866Y-6038095D01*
X17858866Y-6038095D02*
X18049342Y-6085714D01*
X18049342Y-6085714D02*
X18144580Y-6133333D01*
X18144580Y-6133333D02*
X18192200Y-6180952D01*
X18192200Y-6180952D02*
X18239819Y-6276190D01*
X18239819Y-6276190D02*
X18239819Y-6371428D01*
X18239819Y-6371428D02*
X18192200Y-6466666D01*
X18192200Y-6466666D02*
X18144580Y-6514285D01*
X18144580Y-6514285D02*
X18049342Y-6561904D01*
X18049342Y-6561904D02*
X17858866Y-6609523D01*
X17858866Y-6609523D02*
X17620771Y-6609523D01*
X17620771Y-6609523D02*
X17430295Y-6561904D01*
X17430295Y-6561904D02*
X17335057Y-6514285D01*
X17335057Y-6514285D02*
X17287438Y-6466666D01*
X17287438Y-6466666D02*
X17239819Y-6371428D01*
X52908207Y-6254819D02*
X52574874Y-5778628D01*
X52336779Y-6254819D02*
X52336779Y-5254819D01*
X52336779Y-5254819D02*
X52717731Y-5254819D01*
X52717731Y-5254819D02*
X52812969Y-5302438D01*
X52812969Y-5302438D02*
X52860588Y-5350057D01*
X52860588Y-5350057D02*
X52908207Y-5445295D01*
X52908207Y-5445295D02*
X52908207Y-5588152D01*
X52908207Y-5588152D02*
X52860588Y-5683390D01*
X52860588Y-5683390D02*
X52812969Y-5731009D01*
X52812969Y-5731009D02*
X52717731Y-5778628D01*
X52717731Y-5778628D02*
X52336779Y-5778628D01*
X53241541Y-5254819D02*
X53908207Y-6254819D01*
X53908207Y-5254819D02*
X53241541Y-6254819D01*
X13357142Y-12539819D02*
X13023809Y-12063628D01*
X12785714Y-12539819D02*
X12785714Y-11539819D01*
X12785714Y-11539819D02*
X13166666Y-11539819D01*
X13166666Y-11539819D02*
X13261904Y-11587438D01*
X13261904Y-11587438D02*
X13309523Y-11635057D01*
X13309523Y-11635057D02*
X13357142Y-11730295D01*
X13357142Y-11730295D02*
X13357142Y-11873152D01*
X13357142Y-11873152D02*
X13309523Y-11968390D01*
X13309523Y-11968390D02*
X13261904Y-12016009D01*
X13261904Y-12016009D02*
X13166666Y-12063628D01*
X13166666Y-12063628D02*
X12785714Y-12063628D01*
X13690476Y-11539819D02*
X14309523Y-11539819D01*
X14309523Y-11539819D02*
X13976190Y-11920771D01*
X13976190Y-11920771D02*
X14119047Y-11920771D01*
X14119047Y-11920771D02*
X14214285Y-11968390D01*
X14214285Y-11968390D02*
X14261904Y-12016009D01*
X14261904Y-12016009D02*
X14309523Y-12111247D01*
X14309523Y-12111247D02*
X14309523Y-12349342D01*
X14309523Y-12349342D02*
X14261904Y-12444580D01*
X14261904Y-12444580D02*
X14214285Y-12492200D01*
X14214285Y-12492200D02*
X14119047Y-12539819D01*
X14119047Y-12539819D02*
X13833333Y-12539819D01*
X13833333Y-12539819D02*
X13738095Y-12492200D01*
X13738095Y-12492200D02*
X13690476Y-12444580D01*
X14642857Y-11539819D02*
X15309523Y-11539819D01*
X15309523Y-11539819D02*
X14880952Y-12539819D01*
X47954819Y-6261904D02*
X48764342Y-6261904D01*
X48764342Y-6261904D02*
X48859580Y-6214285D01*
X48859580Y-6214285D02*
X48907200Y-6166666D01*
X48907200Y-6166666D02*
X48954819Y-6071428D01*
X48954819Y-6071428D02*
X48954819Y-5880952D01*
X48954819Y-5880952D02*
X48907200Y-5785714D01*
X48907200Y-5785714D02*
X48859580Y-5738095D01*
X48859580Y-5738095D02*
X48764342Y-5690476D01*
X48764342Y-5690476D02*
X47954819Y-5690476D01*
X48907200Y-5261904D02*
X48954819Y-5119047D01*
X48954819Y-5119047D02*
X48954819Y-4880952D01*
X48954819Y-4880952D02*
X48907200Y-4785714D01*
X48907200Y-4785714D02*
X48859580Y-4738095D01*
X48859580Y-4738095D02*
X48764342Y-4690476D01*
X48764342Y-4690476D02*
X48669104Y-4690476D01*
X48669104Y-4690476D02*
X48573866Y-4738095D01*
X48573866Y-4738095D02*
X48526247Y-4785714D01*
X48526247Y-4785714D02*
X48478628Y-4880952D01*
X48478628Y-4880952D02*
X48431009Y-5071428D01*
X48431009Y-5071428D02*
X48383390Y-5166666D01*
X48383390Y-5166666D02*
X48335771Y-5214285D01*
X48335771Y-5214285D02*
X48240533Y-5261904D01*
X48240533Y-5261904D02*
X48145295Y-5261904D01*
X48145295Y-5261904D02*
X48050057Y-5214285D01*
X48050057Y-5214285D02*
X48002438Y-5166666D01*
X48002438Y-5166666D02*
X47954819Y-5071428D01*
X47954819Y-5071428D02*
X47954819Y-4833333D01*
X47954819Y-4833333D02*
X48002438Y-4690476D01*
X48431009Y-3928571D02*
X48478628Y-3785714D01*
X48478628Y-3785714D02*
X48526247Y-3738095D01*
X48526247Y-3738095D02*
X48621485Y-3690476D01*
X48621485Y-3690476D02*
X48764342Y-3690476D01*
X48764342Y-3690476D02*
X48859580Y-3738095D01*
X48859580Y-3738095D02*
X48907200Y-3785714D01*
X48907200Y-3785714D02*
X48954819Y-3880952D01*
X48954819Y-3880952D02*
X48954819Y-4261904D01*
X48954819Y-4261904D02*
X47954819Y-4261904D01*
X47954819Y-4261904D02*
X47954819Y-3928571D01*
X47954819Y-3928571D02*
X48002438Y-3833333D01*
X48002438Y-3833333D02*
X48050057Y-3785714D01*
X48050057Y-3785714D02*
X48145295Y-3738095D01*
X48145295Y-3738095D02*
X48240533Y-3738095D01*
X48240533Y-3738095D02*
X48335771Y-3785714D01*
X48335771Y-3785714D02*
X48383390Y-3833333D01*
X48383390Y-3833333D02*
X48431009Y-3928571D01*
X48431009Y-3928571D02*
X48431009Y-4261904D01*
X857142Y-3954819D02*
X523809Y-3478628D01*
X285714Y-3954819D02*
X285714Y-2954819D01*
X285714Y-2954819D02*
X666666Y-2954819D01*
X666666Y-2954819D02*
X761904Y-3002438D01*
X761904Y-3002438D02*
X809523Y-3050057D01*
X809523Y-3050057D02*
X857142Y-3145295D01*
X857142Y-3145295D02*
X857142Y-3288152D01*
X857142Y-3288152D02*
X809523Y-3383390D01*
X809523Y-3383390D02*
X761904Y-3431009D01*
X761904Y-3431009D02*
X666666Y-3478628D01*
X666666Y-3478628D02*
X285714Y-3478628D01*
X1714285Y-3288152D02*
X1714285Y-3954819D01*
X1476190Y-2907200D02*
X1238095Y-3621485D01*
X1238095Y-3621485D02*
X1857142Y-3621485D01*
X2761904Y-3954819D02*
X2190476Y-3954819D01*
X2476190Y-3954819D02*
X2476190Y-2954819D01*
X2476190Y-2954819D02*
X2380952Y-3097676D01*
X2380952Y-3097676D02*
X2285714Y-3192914D01*
X2285714Y-3192914D02*
X2190476Y-3240533D01*
X23322493Y-18369819D02*
X23322493Y-19084104D01*
X23322493Y-19084104D02*
X23274874Y-19226961D01*
X23274874Y-19226961D02*
X23179636Y-19322200D01*
X23179636Y-19322200D02*
X23036779Y-19369819D01*
X23036779Y-19369819D02*
X22941541Y-19369819D01*
X23703446Y-18369819D02*
X24322493Y-18369819D01*
X24322493Y-18369819D02*
X23989160Y-18750771D01*
X23989160Y-18750771D02*
X24132017Y-18750771D01*
X24132017Y-18750771D02*
X24227255Y-18798390D01*
X24227255Y-18798390D02*
X24274874Y-18846009D01*
X24274874Y-18846009D02*
X24322493Y-18941247D01*
X24322493Y-18941247D02*
X24322493Y-19179342D01*
X24322493Y-19179342D02*
X24274874Y-19274580D01*
X24274874Y-19274580D02*
X24227255Y-19322200D01*
X24227255Y-19322200D02*
X24132017Y-19369819D01*
X24132017Y-19369819D02*
X23846303Y-19369819D01*
X23846303Y-19369819D02*
X23751065Y-19322200D01*
X23751065Y-19322200D02*
X23703446Y-19274580D01*
X48533333Y-9554819D02*
X48057143Y-9554819D01*
X48057143Y-9554819D02*
X48057143Y-8554819D01*
X48819048Y-8650057D02*
X48866667Y-8602438D01*
X48866667Y-8602438D02*
X48961905Y-8554819D01*
X48961905Y-8554819D02*
X49200000Y-8554819D01*
X49200000Y-8554819D02*
X49295238Y-8602438D01*
X49295238Y-8602438D02*
X49342857Y-8650057D01*
X49342857Y-8650057D02*
X49390476Y-8745295D01*
X49390476Y-8745295D02*
X49390476Y-8840533D01*
X49390476Y-8840533D02*
X49342857Y-8983390D01*
X49342857Y-8983390D02*
X48771429Y-9554819D01*
X48771429Y-9554819D02*
X49390476Y-9554819D01*
X35847618Y-4654819D02*
X35514285Y-4178628D01*
X35276190Y-4654819D02*
X35276190Y-3654819D01*
X35276190Y-3654819D02*
X35657142Y-3654819D01*
X35657142Y-3654819D02*
X35752380Y-3702438D01*
X35752380Y-3702438D02*
X35799999Y-3750057D01*
X35799999Y-3750057D02*
X35847618Y-3845295D01*
X35847618Y-3845295D02*
X35847618Y-3988152D01*
X35847618Y-3988152D02*
X35799999Y-4083390D01*
X35799999Y-4083390D02*
X35752380Y-4131009D01*
X35752380Y-4131009D02*
X35657142Y-4178628D01*
X35657142Y-4178628D02*
X35276190Y-4178628D01*
X36276190Y-4131009D02*
X36609523Y-4131009D01*
X36752380Y-4654819D02*
X36276190Y-4654819D01*
X36276190Y-4654819D02*
X36276190Y-3654819D01*
X36276190Y-3654819D02*
X36752380Y-3654819D01*
X37133333Y-4607200D02*
X37276190Y-4654819D01*
X37276190Y-4654819D02*
X37514285Y-4654819D01*
X37514285Y-4654819D02*
X37609523Y-4607200D01*
X37609523Y-4607200D02*
X37657142Y-4559580D01*
X37657142Y-4559580D02*
X37704761Y-4464342D01*
X37704761Y-4464342D02*
X37704761Y-4369104D01*
X37704761Y-4369104D02*
X37657142Y-4273866D01*
X37657142Y-4273866D02*
X37609523Y-4226247D01*
X37609523Y-4226247D02*
X37514285Y-4178628D01*
X37514285Y-4178628D02*
X37323809Y-4131009D01*
X37323809Y-4131009D02*
X37228571Y-4083390D01*
X37228571Y-4083390D02*
X37180952Y-4035771D01*
X37180952Y-4035771D02*
X37133333Y-3940533D01*
X37133333Y-3940533D02*
X37133333Y-3845295D01*
X37133333Y-3845295D02*
X37180952Y-3750057D01*
X37180952Y-3750057D02*
X37228571Y-3702438D01*
X37228571Y-3702438D02*
X37323809Y-3654819D01*
X37323809Y-3654819D02*
X37561904Y-3654819D01*
X37561904Y-3654819D02*
X37704761Y-3702438D01*
X38133333Y-4131009D02*
X38466666Y-4131009D01*
X38609523Y-4654819D02*
X38133333Y-4654819D01*
X38133333Y-4654819D02*
X38133333Y-3654819D01*
X38133333Y-3654819D02*
X38609523Y-3654819D01*
X38895238Y-3654819D02*
X39466666Y-3654819D01*
X39180952Y-4654819D02*
X39180952Y-3654819D01*
X3322493Y-18369819D02*
X3322493Y-19084104D01*
X3322493Y-19084104D02*
X3274874Y-19226961D01*
X3274874Y-19226961D02*
X3179636Y-19322200D01*
X3179636Y-19322200D02*
X3036779Y-19369819D01*
X3036779Y-19369819D02*
X2941541Y-19369819D01*
X4227255Y-18703152D02*
X4227255Y-19369819D01*
X3989160Y-18322200D02*
X3751065Y-19036485D01*
X3751065Y-19036485D02*
X4370112Y-19036485D01*
X38259580Y-31293922D02*
X38307200Y-31341541D01*
X38307200Y-31341541D02*
X38354819Y-31484398D01*
X38354819Y-31484398D02*
X38354819Y-31579636D01*
X38354819Y-31579636D02*
X38307200Y-31722493D01*
X38307200Y-31722493D02*
X38211961Y-31817731D01*
X38211961Y-31817731D02*
X38116723Y-31865350D01*
X38116723Y-31865350D02*
X37926247Y-31912969D01*
X37926247Y-31912969D02*
X37783390Y-31912969D01*
X37783390Y-31912969D02*
X37592914Y-31865350D01*
X37592914Y-31865350D02*
X37497676Y-31817731D01*
X37497676Y-31817731D02*
X37402438Y-31722493D01*
X37402438Y-31722493D02*
X37354819Y-31579636D01*
X37354819Y-31579636D02*
X37354819Y-31484398D01*
X37354819Y-31484398D02*
X37402438Y-31341541D01*
X37402438Y-31341541D02*
X37450057Y-31293922D01*
X37354819Y-30960588D02*
X37354819Y-30341541D01*
X37354819Y-30341541D02*
X37735771Y-30674874D01*
X37735771Y-30674874D02*
X37735771Y-30532017D01*
X37735771Y-30532017D02*
X37783390Y-30436779D01*
X37783390Y-30436779D02*
X37831009Y-30389160D01*
X37831009Y-30389160D02*
X37926247Y-30341541D01*
X37926247Y-30341541D02*
X38164342Y-30341541D01*
X38164342Y-30341541D02*
X38259580Y-30389160D01*
X38259580Y-30389160D02*
X38307200Y-30436779D01*
X38307200Y-30436779D02*
X38354819Y-30532017D01*
X38354819Y-30532017D02*
X38354819Y-30817731D01*
X38354819Y-30817731D02*
X38307200Y-30912969D01*
X38307200Y-30912969D02*
X38259580Y-30960588D01*
X38354819Y-29865350D02*
X38354819Y-29674874D01*
X38354819Y-29674874D02*
X38307200Y-29579636D01*
X38307200Y-29579636D02*
X38259580Y-29532017D01*
X38259580Y-29532017D02*
X38116723Y-29436779D01*
X38116723Y-29436779D02*
X37926247Y-29389160D01*
X37926247Y-29389160D02*
X37545295Y-29389160D01*
X37545295Y-29389160D02*
X37450057Y-29436779D01*
X37450057Y-29436779D02*
X37402438Y-29484398D01*
X37402438Y-29484398D02*
X37354819Y-29579636D01*
X37354819Y-29579636D02*
X37354819Y-29770112D01*
X37354819Y-29770112D02*
X37402438Y-29865350D01*
X37402438Y-29865350D02*
X37450057Y-29912969D01*
X37450057Y-29912969D02*
X37545295Y-29960588D01*
X37545295Y-29960588D02*
X37783390Y-29960588D01*
X37783390Y-29960588D02*
X37878628Y-29912969D01*
X37878628Y-29912969D02*
X37926247Y-29865350D01*
X37926247Y-29865350D02*
X37973866Y-29770112D01*
X37973866Y-29770112D02*
X37973866Y-29579636D01*
X37973866Y-29579636D02*
X37926247Y-29484398D01*
X37926247Y-29484398D02*
X37878628Y-29436779D01*
X37878628Y-29436779D02*
X37783390Y-29389160D01*
X36223809Y-10778628D02*
X36223809Y-11254819D01*
X35890476Y-10254819D02*
X36223809Y-10778628D01*
X36223809Y-10778628D02*
X36557142Y-10254819D01*
X37414285Y-11254819D02*
X36842857Y-11254819D01*
X37128571Y-11254819D02*
X37128571Y-10254819D01*
X37128571Y-10254819D02*
X37033333Y-10397676D01*
X37033333Y-10397676D02*
X36938095Y-10492914D01*
X36938095Y-10492914D02*
X36842857Y-10540533D01*
X38408207Y-6159580D02*
X38360588Y-6207200D01*
X38360588Y-6207200D02*
X38217731Y-6254819D01*
X38217731Y-6254819D02*
X38122493Y-6254819D01*
X38122493Y-6254819D02*
X37979636Y-6207200D01*
X37979636Y-6207200D02*
X37884398Y-6111961D01*
X37884398Y-6111961D02*
X37836779Y-6016723D01*
X37836779Y-6016723D02*
X37789160Y-5826247D01*
X37789160Y-5826247D02*
X37789160Y-5683390D01*
X37789160Y-5683390D02*
X37836779Y-5492914D01*
X37836779Y-5492914D02*
X37884398Y-5397676D01*
X37884398Y-5397676D02*
X37979636Y-5302438D01*
X37979636Y-5302438D02*
X38122493Y-5254819D01*
X38122493Y-5254819D02*
X38217731Y-5254819D01*
X38217731Y-5254819D02*
X38360588Y-5302438D01*
X38360588Y-5302438D02*
X38408207Y-5350057D01*
X38884398Y-6254819D02*
X39074874Y-6254819D01*
X39074874Y-6254819D02*
X39170112Y-6207200D01*
X39170112Y-6207200D02*
X39217731Y-6159580D01*
X39217731Y-6159580D02*
X39312969Y-6016723D01*
X39312969Y-6016723D02*
X39360588Y-5826247D01*
X39360588Y-5826247D02*
X39360588Y-5445295D01*
X39360588Y-5445295D02*
X39312969Y-5350057D01*
X39312969Y-5350057D02*
X39265350Y-5302438D01*
X39265350Y-5302438D02*
X39170112Y-5254819D01*
X39170112Y-5254819D02*
X38979636Y-5254819D01*
X38979636Y-5254819D02*
X38884398Y-5302438D01*
X38884398Y-5302438D02*
X38836779Y-5350057D01*
X38836779Y-5350057D02*
X38789160Y-5445295D01*
X38789160Y-5445295D02*
X38789160Y-5683390D01*
X38789160Y-5683390D02*
X38836779Y-5778628D01*
X38836779Y-5778628D02*
X38884398Y-5826247D01*
X38884398Y-5826247D02*
X38979636Y-5873866D01*
X38979636Y-5873866D02*
X39170112Y-5873866D01*
X39170112Y-5873866D02*
X39265350Y-5826247D01*
X39265350Y-5826247D02*
X39312969Y-5778628D01*
X39312969Y-5778628D02*
X39360588Y-5683390D01*
X10258458Y-16074819D02*
X9925125Y-15598628D01*
X9687030Y-16074819D02*
X9687030Y-15074819D01*
X9687030Y-15074819D02*
X10067982Y-15074819D01*
X10067982Y-15074819D02*
X10163220Y-15122438D01*
X10163220Y-15122438D02*
X10210839Y-15170057D01*
X10210839Y-15170057D02*
X10258458Y-15265295D01*
X10258458Y-15265295D02*
X10258458Y-15408152D01*
X10258458Y-15408152D02*
X10210839Y-15503390D01*
X10210839Y-15503390D02*
X10163220Y-15551009D01*
X10163220Y-15551009D02*
X10067982Y-15598628D01*
X10067982Y-15598628D02*
X9687030Y-15598628D01*
X10734649Y-16074819D02*
X10925125Y-16074819D01*
X10925125Y-16074819D02*
X11020363Y-16027200D01*
X11020363Y-16027200D02*
X11067982Y-15979580D01*
X11067982Y-15979580D02*
X11163220Y-15836723D01*
X11163220Y-15836723D02*
X11210839Y-15646247D01*
X11210839Y-15646247D02*
X11210839Y-15265295D01*
X11210839Y-15265295D02*
X11163220Y-15170057D01*
X11163220Y-15170057D02*
X11115601Y-15122438D01*
X11115601Y-15122438D02*
X11020363Y-15074819D01*
X11020363Y-15074819D02*
X10829887Y-15074819D01*
X10829887Y-15074819D02*
X10734649Y-15122438D01*
X10734649Y-15122438D02*
X10687030Y-15170057D01*
X10687030Y-15170057D02*
X10639411Y-15265295D01*
X10639411Y-15265295D02*
X10639411Y-15503390D01*
X10639411Y-15503390D02*
X10687030Y-15598628D01*
X10687030Y-15598628D02*
X10734649Y-15646247D01*
X10734649Y-15646247D02*
X10829887Y-15693866D01*
X10829887Y-15693866D02*
X11020363Y-15693866D01*
X11020363Y-15693866D02*
X11115601Y-15646247D01*
X11115601Y-15646247D02*
X11163220Y-15598628D01*
X11163220Y-15598628D02*
X11210839Y-15503390D01*
X1157142Y-11654819D02*
X823809Y-11178628D01*
X585714Y-11654819D02*
X585714Y-10654819D01*
X585714Y-10654819D02*
X966666Y-10654819D01*
X966666Y-10654819D02*
X1061904Y-10702438D01*
X1061904Y-10702438D02*
X1109523Y-10750057D01*
X1109523Y-10750057D02*
X1157142Y-10845295D01*
X1157142Y-10845295D02*
X1157142Y-10988152D01*
X1157142Y-10988152D02*
X1109523Y-11083390D01*
X1109523Y-11083390D02*
X1061904Y-11131009D01*
X1061904Y-11131009D02*
X966666Y-11178628D01*
X966666Y-11178628D02*
X585714Y-11178628D01*
X2014285Y-10988152D02*
X2014285Y-11654819D01*
X1776190Y-10607200D02*
X1538095Y-11321485D01*
X1538095Y-11321485D02*
X2157142Y-11321485D01*
X2490476Y-10750057D02*
X2538095Y-10702438D01*
X2538095Y-10702438D02*
X2633333Y-10654819D01*
X2633333Y-10654819D02*
X2871428Y-10654819D01*
X2871428Y-10654819D02*
X2966666Y-10702438D01*
X2966666Y-10702438D02*
X3014285Y-10750057D01*
X3014285Y-10750057D02*
X3061904Y-10845295D01*
X3061904Y-10845295D02*
X3061904Y-10940533D01*
X3061904Y-10940533D02*
X3014285Y-11083390D01*
X3014285Y-11083390D02*
X2442857Y-11654819D01*
X2442857Y-11654819D02*
X3061904Y-11654819D01*
X56338095Y-14454819D02*
X56338095Y-15264342D01*
X56338095Y-15264342D02*
X56385714Y-15359580D01*
X56385714Y-15359580D02*
X56433333Y-15407200D01*
X56433333Y-15407200D02*
X56528571Y-15454819D01*
X56528571Y-15454819D02*
X56719047Y-15454819D01*
X56719047Y-15454819D02*
X56814285Y-15407200D01*
X56814285Y-15407200D02*
X56861904Y-15359580D01*
X56861904Y-15359580D02*
X56909523Y-15264342D01*
X56909523Y-15264342D02*
X56909523Y-14454819D01*
X57814285Y-14788152D02*
X57814285Y-15454819D01*
X57576190Y-14407200D02*
X57338095Y-15121485D01*
X57338095Y-15121485D02*
X57957142Y-15121485D01*
X13357142Y-8169819D02*
X13023809Y-7693628D01*
X12785714Y-8169819D02*
X12785714Y-7169819D01*
X12785714Y-7169819D02*
X13166666Y-7169819D01*
X13166666Y-7169819D02*
X13261904Y-7217438D01*
X13261904Y-7217438D02*
X13309523Y-7265057D01*
X13309523Y-7265057D02*
X13357142Y-7360295D01*
X13357142Y-7360295D02*
X13357142Y-7503152D01*
X13357142Y-7503152D02*
X13309523Y-7598390D01*
X13309523Y-7598390D02*
X13261904Y-7646009D01*
X13261904Y-7646009D02*
X13166666Y-7693628D01*
X13166666Y-7693628D02*
X12785714Y-7693628D01*
X13690476Y-7169819D02*
X14309523Y-7169819D01*
X14309523Y-7169819D02*
X13976190Y-7550771D01*
X13976190Y-7550771D02*
X14119047Y-7550771D01*
X14119047Y-7550771D02*
X14214285Y-7598390D01*
X14214285Y-7598390D02*
X14261904Y-7646009D01*
X14261904Y-7646009D02*
X14309523Y-7741247D01*
X14309523Y-7741247D02*
X14309523Y-7979342D01*
X14309523Y-7979342D02*
X14261904Y-8074580D01*
X14261904Y-8074580D02*
X14214285Y-8122200D01*
X14214285Y-8122200D02*
X14119047Y-8169819D01*
X14119047Y-8169819D02*
X13833333Y-8169819D01*
X13833333Y-8169819D02*
X13738095Y-8122200D01*
X13738095Y-8122200D02*
X13690476Y-8074580D01*
X15166666Y-7169819D02*
X14976190Y-7169819D01*
X14976190Y-7169819D02*
X14880952Y-7217438D01*
X14880952Y-7217438D02*
X14833333Y-7265057D01*
X14833333Y-7265057D02*
X14738095Y-7407914D01*
X14738095Y-7407914D02*
X14690476Y-7598390D01*
X14690476Y-7598390D02*
X14690476Y-7979342D01*
X14690476Y-7979342D02*
X14738095Y-8074580D01*
X14738095Y-8074580D02*
X14785714Y-8122200D01*
X14785714Y-8122200D02*
X14880952Y-8169819D01*
X14880952Y-8169819D02*
X15071428Y-8169819D01*
X15071428Y-8169819D02*
X15166666Y-8122200D01*
X15166666Y-8122200D02*
X15214285Y-8074580D01*
X15214285Y-8074580D02*
X15261904Y-7979342D01*
X15261904Y-7979342D02*
X15261904Y-7741247D01*
X15261904Y-7741247D02*
X15214285Y-7646009D01*
X15214285Y-7646009D02*
X15166666Y-7598390D01*
X15166666Y-7598390D02*
X15071428Y-7550771D01*
X15071428Y-7550771D02*
X14880952Y-7550771D01*
X14880952Y-7550771D02*
X14785714Y-7598390D01*
X14785714Y-7598390D02*
X14738095Y-7646009D01*
X14738095Y-7646009D02*
X14690476Y-7741247D01*
X47054819Y-6433332D02*
X46054819Y-6433332D01*
X46054819Y-6433332D02*
X46054819Y-6052380D01*
X46054819Y-6052380D02*
X46102438Y-5957142D01*
X46102438Y-5957142D02*
X46150057Y-5909523D01*
X46150057Y-5909523D02*
X46245295Y-5861904D01*
X46245295Y-5861904D02*
X46388152Y-5861904D01*
X46388152Y-5861904D02*
X46483390Y-5909523D01*
X46483390Y-5909523D02*
X46531009Y-5957142D01*
X46531009Y-5957142D02*
X46578628Y-6052380D01*
X46578628Y-6052380D02*
X46578628Y-6433332D01*
X46054819Y-5528570D02*
X47054819Y-5290475D01*
X47054819Y-5290475D02*
X46340533Y-5099999D01*
X46340533Y-5099999D02*
X47054819Y-4909523D01*
X47054819Y-4909523D02*
X46054819Y-4671428D01*
X47054819Y-3719047D02*
X46578628Y-4052380D01*
X47054819Y-4290475D02*
X46054819Y-4290475D01*
X46054819Y-4290475D02*
X46054819Y-3909523D01*
X46054819Y-3909523D02*
X46102438Y-3814285D01*
X46102438Y-3814285D02*
X46150057Y-3766666D01*
X46150057Y-3766666D02*
X46245295Y-3719047D01*
X46245295Y-3719047D02*
X46388152Y-3719047D01*
X46388152Y-3719047D02*
X46483390Y-3766666D01*
X46483390Y-3766666D02*
X46531009Y-3814285D01*
X46531009Y-3814285D02*
X46578628Y-3909523D01*
X46578628Y-3909523D02*
X46578628Y-4290475D01*
X34158458Y-17554819D02*
X33825125Y-17078628D01*
X33587030Y-17554819D02*
X33587030Y-16554819D01*
X33587030Y-16554819D02*
X33967982Y-16554819D01*
X33967982Y-16554819D02*
X34063220Y-16602438D01*
X34063220Y-16602438D02*
X34110839Y-16650057D01*
X34110839Y-16650057D02*
X34158458Y-16745295D01*
X34158458Y-16745295D02*
X34158458Y-16888152D01*
X34158458Y-16888152D02*
X34110839Y-16983390D01*
X34110839Y-16983390D02*
X34063220Y-17031009D01*
X34063220Y-17031009D02*
X33967982Y-17078628D01*
X33967982Y-17078628D02*
X33587030Y-17078628D01*
X35063220Y-16554819D02*
X34587030Y-16554819D01*
X34587030Y-16554819D02*
X34539411Y-17031009D01*
X34539411Y-17031009D02*
X34587030Y-16983390D01*
X34587030Y-16983390D02*
X34682268Y-16935771D01*
X34682268Y-16935771D02*
X34920363Y-16935771D01*
X34920363Y-16935771D02*
X35015601Y-16983390D01*
X35015601Y-16983390D02*
X35063220Y-17031009D01*
X35063220Y-17031009D02*
X35110839Y-17126247D01*
X35110839Y-17126247D02*
X35110839Y-17364342D01*
X35110839Y-17364342D02*
X35063220Y-17459580D01*
X35063220Y-17459580D02*
X35015601Y-17507200D01*
X35015601Y-17507200D02*
X34920363Y-17554819D01*
X34920363Y-17554819D02*
X34682268Y-17554819D01*
X34682268Y-17554819D02*
X34587030Y-17507200D01*
X34587030Y-17507200D02*
X34539411Y-17459580D01*
X43322493Y-18369819D02*
X43322493Y-19084104D01*
X43322493Y-19084104D02*
X43274874Y-19226961D01*
X43274874Y-19226961D02*
X43179636Y-19322200D01*
X43179636Y-19322200D02*
X43036779Y-19369819D01*
X43036779Y-19369819D02*
X42941541Y-19369819D01*
X43751065Y-18465057D02*
X43798684Y-18417438D01*
X43798684Y-18417438D02*
X43893922Y-18369819D01*
X43893922Y-18369819D02*
X44132017Y-18369819D01*
X44132017Y-18369819D02*
X44227255Y-18417438D01*
X44227255Y-18417438D02*
X44274874Y-18465057D01*
X44274874Y-18465057D02*
X44322493Y-18560295D01*
X44322493Y-18560295D02*
X44322493Y-18655533D01*
X44322493Y-18655533D02*
X44274874Y-18798390D01*
X44274874Y-18798390D02*
X43703446Y-19369819D01*
X43703446Y-19369819D02*
X44322493Y-19369819D01*
X25006077Y-17259580D02*
X24958458Y-17307200D01*
X24958458Y-17307200D02*
X24815601Y-17354819D01*
X24815601Y-17354819D02*
X24720363Y-17354819D01*
X24720363Y-17354819D02*
X24577506Y-17307200D01*
X24577506Y-17307200D02*
X24482268Y-17211961D01*
X24482268Y-17211961D02*
X24434649Y-17116723D01*
X24434649Y-17116723D02*
X24387030Y-16926247D01*
X24387030Y-16926247D02*
X24387030Y-16783390D01*
X24387030Y-16783390D02*
X24434649Y-16592914D01*
X24434649Y-16592914D02*
X24482268Y-16497676D01*
X24482268Y-16497676D02*
X24577506Y-16402438D01*
X24577506Y-16402438D02*
X24720363Y-16354819D01*
X24720363Y-16354819D02*
X24815601Y-16354819D01*
X24815601Y-16354819D02*
X24958458Y-16402438D01*
X24958458Y-16402438D02*
X25006077Y-16450057D01*
X25339411Y-16354819D02*
X25958458Y-16354819D01*
X25958458Y-16354819D02*
X25625125Y-16735771D01*
X25625125Y-16735771D02*
X25767982Y-16735771D01*
X25767982Y-16735771D02*
X25863220Y-16783390D01*
X25863220Y-16783390D02*
X25910839Y-16831009D01*
X25910839Y-16831009D02*
X25958458Y-16926247D01*
X25958458Y-16926247D02*
X25958458Y-17164342D01*
X25958458Y-17164342D02*
X25910839Y-17259580D01*
X25910839Y-17259580D02*
X25863220Y-17307200D01*
X25863220Y-17307200D02*
X25767982Y-17354819D01*
X25767982Y-17354819D02*
X25482268Y-17354819D01*
X25482268Y-17354819D02*
X25387030Y-17307200D01*
X25387030Y-17307200D02*
X25339411Y-17259580D01*
X26529887Y-16783390D02*
X26434649Y-16735771D01*
X26434649Y-16735771D02*
X26387030Y-16688152D01*
X26387030Y-16688152D02*
X26339411Y-16592914D01*
X26339411Y-16592914D02*
X26339411Y-16545295D01*
X26339411Y-16545295D02*
X26387030Y-16450057D01*
X26387030Y-16450057D02*
X26434649Y-16402438D01*
X26434649Y-16402438D02*
X26529887Y-16354819D01*
X26529887Y-16354819D02*
X26720363Y-16354819D01*
X26720363Y-16354819D02*
X26815601Y-16402438D01*
X26815601Y-16402438D02*
X26863220Y-16450057D01*
X26863220Y-16450057D02*
X26910839Y-16545295D01*
X26910839Y-16545295D02*
X26910839Y-16592914D01*
X26910839Y-16592914D02*
X26863220Y-16688152D01*
X26863220Y-16688152D02*
X26815601Y-16735771D01*
X26815601Y-16735771D02*
X26720363Y-16783390D01*
X26720363Y-16783390D02*
X26529887Y-16783390D01*
X26529887Y-16783390D02*
X26434649Y-16831009D01*
X26434649Y-16831009D02*
X26387030Y-16878628D01*
X26387030Y-16878628D02*
X26339411Y-16973866D01*
X26339411Y-16973866D02*
X26339411Y-17164342D01*
X26339411Y-17164342D02*
X26387030Y-17259580D01*
X26387030Y-17259580D02*
X26434649Y-17307200D01*
X26434649Y-17307200D02*
X26529887Y-17354819D01*
X26529887Y-17354819D02*
X26720363Y-17354819D01*
X26720363Y-17354819D02*
X26815601Y-17307200D01*
X26815601Y-17307200D02*
X26863220Y-17259580D01*
X26863220Y-17259580D02*
X26910839Y-17164342D01*
X26910839Y-17164342D02*
X26910839Y-16973866D01*
X26910839Y-16973866D02*
X26863220Y-16878628D01*
X26863220Y-16878628D02*
X26815601Y-16831009D01*
X26815601Y-16831009D02*
X26720363Y-16783390D01*
X41542857Y-4131009D02*
X41685714Y-4178628D01*
X41685714Y-4178628D02*
X41733333Y-4226247D01*
X41733333Y-4226247D02*
X41780952Y-4321485D01*
X41780952Y-4321485D02*
X41780952Y-4464342D01*
X41780952Y-4464342D02*
X41733333Y-4559580D01*
X41733333Y-4559580D02*
X41685714Y-4607200D01*
X41685714Y-4607200D02*
X41590476Y-4654819D01*
X41590476Y-4654819D02*
X41209524Y-4654819D01*
X41209524Y-4654819D02*
X41209524Y-3654819D01*
X41209524Y-3654819D02*
X41542857Y-3654819D01*
X41542857Y-3654819D02*
X41638095Y-3702438D01*
X41638095Y-3702438D02*
X41685714Y-3750057D01*
X41685714Y-3750057D02*
X41733333Y-3845295D01*
X41733333Y-3845295D02*
X41733333Y-3940533D01*
X41733333Y-3940533D02*
X41685714Y-4035771D01*
X41685714Y-4035771D02*
X41638095Y-4083390D01*
X41638095Y-4083390D02*
X41542857Y-4131009D01*
X41542857Y-4131009D02*
X41209524Y-4131009D01*
X42400000Y-3654819D02*
X42590476Y-3654819D01*
X42590476Y-3654819D02*
X42685714Y-3702438D01*
X42685714Y-3702438D02*
X42780952Y-3797676D01*
X42780952Y-3797676D02*
X42828571Y-3988152D01*
X42828571Y-3988152D02*
X42828571Y-4321485D01*
X42828571Y-4321485D02*
X42780952Y-4511961D01*
X42780952Y-4511961D02*
X42685714Y-4607200D01*
X42685714Y-4607200D02*
X42590476Y-4654819D01*
X42590476Y-4654819D02*
X42400000Y-4654819D01*
X42400000Y-4654819D02*
X42304762Y-4607200D01*
X42304762Y-4607200D02*
X42209524Y-4511961D01*
X42209524Y-4511961D02*
X42161905Y-4321485D01*
X42161905Y-4321485D02*
X42161905Y-3988152D01*
X42161905Y-3988152D02*
X42209524Y-3797676D01*
X42209524Y-3797676D02*
X42304762Y-3702438D01*
X42304762Y-3702438D02*
X42400000Y-3654819D01*
X43447619Y-3654819D02*
X43638095Y-3654819D01*
X43638095Y-3654819D02*
X43733333Y-3702438D01*
X43733333Y-3702438D02*
X43828571Y-3797676D01*
X43828571Y-3797676D02*
X43876190Y-3988152D01*
X43876190Y-3988152D02*
X43876190Y-4321485D01*
X43876190Y-4321485D02*
X43828571Y-4511961D01*
X43828571Y-4511961D02*
X43733333Y-4607200D01*
X43733333Y-4607200D02*
X43638095Y-4654819D01*
X43638095Y-4654819D02*
X43447619Y-4654819D01*
X43447619Y-4654819D02*
X43352381Y-4607200D01*
X43352381Y-4607200D02*
X43257143Y-4511961D01*
X43257143Y-4511961D02*
X43209524Y-4321485D01*
X43209524Y-4321485D02*
X43209524Y-3988152D01*
X43209524Y-3988152D02*
X43257143Y-3797676D01*
X43257143Y-3797676D02*
X43352381Y-3702438D01*
X43352381Y-3702438D02*
X43447619Y-3654819D01*
X44161905Y-3654819D02*
X44733333Y-3654819D01*
X44447619Y-4654819D02*
X44447619Y-3654819D01*
X34158458Y-16074819D02*
X33825125Y-15598628D01*
X33587030Y-16074819D02*
X33587030Y-15074819D01*
X33587030Y-15074819D02*
X33967982Y-15074819D01*
X33967982Y-15074819D02*
X34063220Y-15122438D01*
X34063220Y-15122438D02*
X34110839Y-15170057D01*
X34110839Y-15170057D02*
X34158458Y-15265295D01*
X34158458Y-15265295D02*
X34158458Y-15408152D01*
X34158458Y-15408152D02*
X34110839Y-15503390D01*
X34110839Y-15503390D02*
X34063220Y-15551009D01*
X34063220Y-15551009D02*
X33967982Y-15598628D01*
X33967982Y-15598628D02*
X33587030Y-15598628D01*
X35015601Y-15074819D02*
X34825125Y-15074819D01*
X34825125Y-15074819D02*
X34729887Y-15122438D01*
X34729887Y-15122438D02*
X34682268Y-15170057D01*
X34682268Y-15170057D02*
X34587030Y-15312914D01*
X34587030Y-15312914D02*
X34539411Y-15503390D01*
X34539411Y-15503390D02*
X34539411Y-15884342D01*
X34539411Y-15884342D02*
X34587030Y-15979580D01*
X34587030Y-15979580D02*
X34634649Y-16027200D01*
X34634649Y-16027200D02*
X34729887Y-16074819D01*
X34729887Y-16074819D02*
X34920363Y-16074819D01*
X34920363Y-16074819D02*
X35015601Y-16027200D01*
X35015601Y-16027200D02*
X35063220Y-15979580D01*
X35063220Y-15979580D02*
X35110839Y-15884342D01*
X35110839Y-15884342D02*
X35110839Y-15646247D01*
X35110839Y-15646247D02*
X35063220Y-15551009D01*
X35063220Y-15551009D02*
X35015601Y-15503390D01*
X35015601Y-15503390D02*
X34920363Y-15455771D01*
X34920363Y-15455771D02*
X34729887Y-15455771D01*
X34729887Y-15455771D02*
X34634649Y-15503390D01*
X34634649Y-15503390D02*
X34587030Y-15551009D01*
X34587030Y-15551009D02*
X34539411Y-15646247D01*
X12306077Y-1659580D02*
X12258458Y-1707200D01*
X12258458Y-1707200D02*
X12115601Y-1754819D01*
X12115601Y-1754819D02*
X12020363Y-1754819D01*
X12020363Y-1754819D02*
X11877506Y-1707200D01*
X11877506Y-1707200D02*
X11782268Y-1611961D01*
X11782268Y-1611961D02*
X11734649Y-1516723D01*
X11734649Y-1516723D02*
X11687030Y-1326247D01*
X11687030Y-1326247D02*
X11687030Y-1183390D01*
X11687030Y-1183390D02*
X11734649Y-992914D01*
X11734649Y-992914D02*
X11782268Y-897676D01*
X11782268Y-897676D02*
X11877506Y-802438D01*
X11877506Y-802438D02*
X12020363Y-754819D01*
X12020363Y-754819D02*
X12115601Y-754819D01*
X12115601Y-754819D02*
X12258458Y-802438D01*
X12258458Y-802438D02*
X12306077Y-850057D01*
X13258458Y-1754819D02*
X12687030Y-1754819D01*
X12972744Y-1754819D02*
X12972744Y-754819D01*
X12972744Y-754819D02*
X12877506Y-897676D01*
X12877506Y-897676D02*
X12782268Y-992914D01*
X12782268Y-992914D02*
X12687030Y-1040533D01*
X14115601Y-1088152D02*
X14115601Y-1754819D01*
X13877506Y-707200D02*
X13639411Y-1421485D01*
X13639411Y-1421485D02*
X14258458Y-1421485D01*
X26241541Y-9554819D02*
X26860588Y-9554819D01*
X26860588Y-9554819D02*
X26527255Y-9935771D01*
X26527255Y-9935771D02*
X26670112Y-9935771D01*
X26670112Y-9935771D02*
X26765350Y-9983390D01*
X26765350Y-9983390D02*
X26812969Y-10031009D01*
X26812969Y-10031009D02*
X26860588Y-10126247D01*
X26860588Y-10126247D02*
X26860588Y-10364342D01*
X26860588Y-10364342D02*
X26812969Y-10459580D01*
X26812969Y-10459580D02*
X26765350Y-10507200D01*
X26765350Y-10507200D02*
X26670112Y-10554819D01*
X26670112Y-10554819D02*
X26384398Y-10554819D01*
X26384398Y-10554819D02*
X26289160Y-10507200D01*
X26289160Y-10507200D02*
X26241541Y-10459580D01*
X27146303Y-9554819D02*
X27479636Y-10554819D01*
X27479636Y-10554819D02*
X27812969Y-9554819D01*
X28051065Y-9554819D02*
X28670112Y-9554819D01*
X28670112Y-9554819D02*
X28336779Y-9935771D01*
X28336779Y-9935771D02*
X28479636Y-9935771D01*
X28479636Y-9935771D02*
X28574874Y-9983390D01*
X28574874Y-9983390D02*
X28622493Y-10031009D01*
X28622493Y-10031009D02*
X28670112Y-10126247D01*
X28670112Y-10126247D02*
X28670112Y-10364342D01*
X28670112Y-10364342D02*
X28622493Y-10459580D01*
X28622493Y-10459580D02*
X28574874Y-10507200D01*
X28574874Y-10507200D02*
X28479636Y-10554819D01*
X28479636Y-10554819D02*
X28193922Y-10554819D01*
X28193922Y-10554819D02*
X28098684Y-10507200D01*
X28098684Y-10507200D02*
X28051065Y-10459580D01*
X29574874Y-10554819D02*
X29098684Y-10554819D01*
X29098684Y-10554819D02*
X29098684Y-9554819D01*
X8059580Y-5486049D02*
X8107200Y-5533668D01*
X8107200Y-5533668D02*
X8154819Y-5676525D01*
X8154819Y-5676525D02*
X8154819Y-5771763D01*
X8154819Y-5771763D02*
X8107200Y-5914620D01*
X8107200Y-5914620D02*
X8011961Y-6009858D01*
X8011961Y-6009858D02*
X7916723Y-6057477D01*
X7916723Y-6057477D02*
X7726247Y-6105096D01*
X7726247Y-6105096D02*
X7583390Y-6105096D01*
X7583390Y-6105096D02*
X7392914Y-6057477D01*
X7392914Y-6057477D02*
X7297676Y-6009858D01*
X7297676Y-6009858D02*
X7202438Y-5914620D01*
X7202438Y-5914620D02*
X7154819Y-5771763D01*
X7154819Y-5771763D02*
X7154819Y-5676525D01*
X7154819Y-5676525D02*
X7202438Y-5533668D01*
X7202438Y-5533668D02*
X7250057Y-5486049D01*
X7250057Y-5105096D02*
X7202438Y-5057477D01*
X7202438Y-5057477D02*
X7154819Y-4962239D01*
X7154819Y-4962239D02*
X7154819Y-4724144D01*
X7154819Y-4724144D02*
X7202438Y-4628906D01*
X7202438Y-4628906D02*
X7250057Y-4581287D01*
X7250057Y-4581287D02*
X7345295Y-4533668D01*
X7345295Y-4533668D02*
X7440533Y-4533668D01*
X7440533Y-4533668D02*
X7583390Y-4581287D01*
X7583390Y-4581287D02*
X8154819Y-5152715D01*
X8154819Y-5152715D02*
X8154819Y-4533668D01*
X7154819Y-4200334D02*
X7154819Y-3533668D01*
X7154819Y-3533668D02*
X8154819Y-3962239D01*
X43238095Y-5854819D02*
X43238095Y-6664342D01*
X43238095Y-6664342D02*
X43285714Y-6759580D01*
X43285714Y-6759580D02*
X43333333Y-6807200D01*
X43333333Y-6807200D02*
X43428571Y-6854819D01*
X43428571Y-6854819D02*
X43619047Y-6854819D01*
X43619047Y-6854819D02*
X43714285Y-6807200D01*
X43714285Y-6807200D02*
X43761904Y-6759580D01*
X43761904Y-6759580D02*
X43809523Y-6664342D01*
X43809523Y-6664342D02*
X43809523Y-5854819D01*
X44809523Y-6854819D02*
X44238095Y-6854819D01*
X44523809Y-6854819D02*
X44523809Y-5854819D01*
X44523809Y-5854819D02*
X44428571Y-5997676D01*
X44428571Y-5997676D02*
X44333333Y-6092914D01*
X44333333Y-6092914D02*
X44238095Y-6140533D01*
D11*
%TO.C,C41*%
X19059420Y-26530000D02*
X19340580Y-26530000D01*
X19059420Y-27550000D02*
X19340580Y-27550000D01*
%TO.C,TP6*%
X24300000Y-13400000D02*
X25700000Y-13400000D01*
X24300000Y-14800000D02*
X24300000Y-13400000D01*
X25700000Y-13400000D02*
X25700000Y-14800000D01*
X25700000Y-14800000D02*
X24300000Y-14800000D01*
%TO.C,C8*%
X32965580Y-7490000D02*
X32684420Y-7490000D01*
X32965580Y-8510000D02*
X32684420Y-8510000D01*
D12*
%TO.C,SW3*%
X53950000Y-3170000D02*
X50450000Y-3170000D01*
D11*
%TO.C,C26*%
X4859420Y-2190000D02*
X5140580Y-2190000D01*
X4859420Y-3210000D02*
X5140580Y-3210000D01*
%TO.C,R39*%
X10762742Y-8577500D02*
X11237258Y-8577500D01*
X10762742Y-9622500D02*
X11237258Y-9622500D01*
%TO.C,C37*%
X39990000Y-27559420D02*
X39990000Y-27840580D01*
X41010000Y-27559420D02*
X41010000Y-27840580D01*
%TO.C,R1*%
X51077500Y-17737742D02*
X51077500Y-18212258D01*
X52122500Y-17737742D02*
X52122500Y-18212258D01*
%TO.C,C15*%
X18934420Y-665000D02*
X19215580Y-665000D01*
X18934420Y-1685000D02*
X19215580Y-1685000D01*
%TO.C,C4*%
X40390000Y-19359420D02*
X40390000Y-19640580D01*
X41410000Y-19359420D02*
X41410000Y-19640580D01*
%TO.C,C28*%
X8690000Y-2007707D02*
X8690000Y-1726547D01*
X9710000Y-2007707D02*
X9710000Y-1726547D01*
%TO.C,R38*%
X10762742Y-10077500D02*
X11237258Y-10077500D01*
X10762742Y-11122500D02*
X11237258Y-11122500D01*
%TO.C,R15*%
X20162742Y-5877500D02*
X20637258Y-5877500D01*
X20162742Y-6922500D02*
X20637258Y-6922500D01*
%TO.C,R7*%
X13137258Y-18077500D02*
X12662742Y-18077500D01*
X13137258Y-19122500D02*
X12662742Y-19122500D01*
%TO.C,R16*%
X20162742Y-4277500D02*
X20637258Y-4277500D01*
X20162742Y-5322500D02*
X20637258Y-5322500D01*
D12*
%TO.C,U3*%
X2735000Y-6400000D02*
X2735000Y-4800000D01*
X5865000Y-6400000D02*
X5865000Y-4800000D01*
D13*
X3200000Y-8000000D02*
G75*
G02*
X3000000Y-8000000I-100000J0D01*
G01*
X3000000Y-8000000D02*
G75*
G02*
X3200000Y-8000000I100000J0D01*
G01*
D11*
%TO.C,R8*%
X13137258Y-16577500D02*
X12662742Y-16577500D01*
X13137258Y-17622500D02*
X12662742Y-17622500D01*
%TO.C,J5*%
X55420000Y-2840000D02*
X56800000Y-2840000D01*
X55420000Y-4220000D02*
X55420000Y-2840000D01*
X55420000Y-5490000D02*
X55420000Y-13220000D01*
X55420000Y-5490000D02*
X58180000Y-5490000D01*
X55420000Y-13220000D02*
X58180000Y-13220000D01*
X58180000Y-5490000D02*
X58180000Y-13220000D01*
%TO.C,R4*%
X37037258Y-18077500D02*
X36562742Y-18077500D01*
X37037258Y-19122500D02*
X36562742Y-19122500D01*
%TO.C,C36*%
X37690000Y-21750000D02*
X37690000Y-25970000D01*
X37690000Y-25970000D02*
X40710000Y-25970000D01*
X40710000Y-25970000D02*
X40710000Y-21750000D01*
%TO.C,C40*%
X17690000Y-21790000D02*
X17690000Y-26010000D01*
X17690000Y-26010000D02*
X20710000Y-26010000D01*
X20710000Y-26010000D02*
X20710000Y-21790000D01*
%TO.C,R2*%
X49577500Y-17737742D02*
X49577500Y-18212258D01*
X50622500Y-17737742D02*
X50622500Y-18212258D01*
%TO.C,R17*%
X14627500Y-4247304D02*
X14627500Y-3772788D01*
X15672500Y-4247304D02*
X15672500Y-3772788D01*
%TO.C,C29*%
X10190000Y-2007707D02*
X10190000Y-1726547D01*
X11210000Y-2007707D02*
X11210000Y-1726547D01*
D14*
%TO.C,L1*%
X4322900Y-8526700D02*
X4322900Y-13073300D01*
X4322900Y-13073300D02*
X8869500Y-13073300D01*
X8869500Y-8526700D02*
X4322900Y-8526700D01*
X8869500Y-13073300D02*
X8869500Y-8526700D01*
D11*
%TO.C,TP4*%
X50500000Y-7100000D02*
X51900000Y-7100000D01*
X50500000Y-8500000D02*
X50500000Y-7100000D01*
X51900000Y-7100000D02*
X51900000Y-8500000D01*
X51900000Y-8500000D02*
X50500000Y-8500000D01*
%TO.C,TP1*%
X24300000Y-7400000D02*
X25700000Y-7400000D01*
X24300000Y-8800000D02*
X24300000Y-7400000D01*
X25700000Y-7400000D02*
X25700000Y-8800000D01*
X25700000Y-8800000D02*
X24300000Y-8800000D01*
%TO.C,TP2*%
X24300000Y-11400000D02*
X25700000Y-11400000D01*
X24300000Y-12800000D02*
X24300000Y-11400000D01*
X25700000Y-11400000D02*
X25700000Y-12800000D01*
X25700000Y-12800000D02*
X24300000Y-12800000D01*
%TO.C,R3*%
X48077500Y-17737742D02*
X48077500Y-18212258D01*
X49122500Y-17737742D02*
X49122500Y-18212258D01*
%TO.C,J1*%
X24605000Y-125000D02*
X24605000Y-750000D01*
X24605000Y-3725000D02*
X24605000Y-2825000D01*
X33675000Y-6805000D02*
X24725000Y-6805000D01*
X33795000Y-125000D02*
X33795000Y-750000D01*
X33795000Y-3725000D02*
X33795000Y-2825000D01*
%TO.C,R40*%
X15777500Y-7062742D02*
X15777500Y-7537258D01*
X16822500Y-7062742D02*
X16822500Y-7537258D01*
%TO.C,TP5*%
X50500000Y-5100000D02*
X51900000Y-5100000D01*
X50500000Y-6500000D02*
X50500000Y-5100000D01*
X51900000Y-5100000D02*
X51900000Y-6500000D01*
X51900000Y-6500000D02*
X50500000Y-6500000D01*
%TO.C,R37*%
X14237258Y-10077500D02*
X13762742Y-10077500D01*
X14237258Y-11122500D02*
X13762742Y-11122500D01*
%TO.C,D2*%
X47665000Y-215000D02*
X47665000Y-2675000D01*
X49135000Y-215000D02*
X47665000Y-215000D01*
X49135000Y-2675000D02*
X49135000Y-215000D01*
%TO.C,R41*%
X1277500Y-5812258D02*
X1277500Y-5337742D01*
X2322500Y-5812258D02*
X2322500Y-5337742D01*
D12*
%TO.C,J3*%
X22650000Y-19840000D02*
X22650000Y-20250000D01*
X22650000Y-27750000D02*
X22650000Y-23750000D01*
D11*
X22650000Y-31405000D02*
X22650000Y-38136000D01*
X22650000Y-38136000D02*
X35750000Y-38136000D01*
D12*
X35750000Y-19840000D02*
X22650000Y-19840000D01*
X35750000Y-20250000D02*
X35750000Y-19840000D01*
X35750000Y-23750000D02*
X35750000Y-27750000D01*
D11*
X35750000Y-31405000D02*
X35750000Y-38136000D01*
D13*
X37160000Y-27780000D02*
G75*
G02*
X36960000Y-27780000I-100000J0D01*
G01*
X36960000Y-27780000D02*
G75*
G02*
X37160000Y-27780000I100000J0D01*
G01*
D14*
%TO.C,L2*%
X49726700Y-9026700D02*
X49726700Y-13573300D01*
X49726700Y-13573300D02*
X54273300Y-13573300D01*
X54273300Y-9026700D02*
X49726700Y-9026700D01*
X54273300Y-13573300D02*
X54273300Y-9026700D01*
D12*
%TO.C,SW1*%
X39050000Y-3170000D02*
X35550000Y-3170000D01*
%TO.C,J4*%
X2650000Y-19840000D02*
X2650000Y-20250000D01*
X2650000Y-27750000D02*
X2650000Y-23750000D01*
D11*
X2650000Y-31405000D02*
X2650000Y-38136000D01*
X2650000Y-38136000D02*
X15750000Y-38136000D01*
D12*
X15750000Y-19840000D02*
X2650000Y-19840000D01*
X15750000Y-20250000D02*
X15750000Y-19840000D01*
X15750000Y-23750000D02*
X15750000Y-27750000D01*
D11*
X15750000Y-31405000D02*
X15750000Y-38136000D01*
D13*
X17160000Y-27780000D02*
G75*
G02*
X16960000Y-27780000I-100000J0D01*
G01*
X16960000Y-27780000D02*
G75*
G02*
X17160000Y-27780000I100000J0D01*
G01*
D11*
%TO.C,C39*%
X37390000Y-27559420D02*
X37390000Y-27840580D01*
X38410000Y-27559420D02*
X38410000Y-27840580D01*
D12*
%TO.C,Y1*%
X36020000Y-7700000D02*
X36180000Y-7700000D01*
X36180000Y-9700000D02*
X36020000Y-9700000D01*
D13*
X35275000Y-10400000D02*
G75*
G02*
X35075000Y-10400000I-100000J0D01*
G01*
X35075000Y-10400000D02*
G75*
G02*
X35275000Y-10400000I100000J0D01*
G01*
D11*
%TO.C,C9*%
X36240580Y-5290000D02*
X35959420Y-5290000D01*
X36240580Y-6310000D02*
X35959420Y-6310000D01*
%TO.C,R9*%
X13137258Y-15077500D02*
X12662742Y-15077500D01*
X13137258Y-16122500D02*
X12662742Y-16122500D01*
%TO.C,R42*%
X1277500Y-9037258D02*
X1277500Y-8562742D01*
X2322500Y-9037258D02*
X2322500Y-8562742D01*
D12*
%TO.C,U4*%
X52835000Y-15122500D02*
X52835000Y-16722500D01*
X55965000Y-15122500D02*
X55965000Y-16722500D01*
D13*
X55700000Y-13522500D02*
G75*
G02*
X55500000Y-13522500I-100000J0D01*
G01*
X55500000Y-13522500D02*
G75*
G02*
X55700000Y-13522500I100000J0D01*
G01*
D11*
%TO.C,R36*%
X14237258Y-8577500D02*
X13762742Y-8577500D01*
X14237258Y-9622500D02*
X13762742Y-9622500D01*
%TO.C,D1*%
X45965000Y-215000D02*
X45965000Y-2675000D01*
X47435000Y-215000D02*
X45965000Y-215000D01*
X47435000Y-2675000D02*
X47435000Y-215000D01*
D15*
%TO.C,G1*%
G36*
X18316116Y-13588369D02*
G01*
X18330583Y-13588431D01*
X18344194Y-13588538D01*
X18357115Y-13588697D01*
X18369513Y-13588910D01*
X18381556Y-13589183D01*
X18393409Y-13589519D01*
X18405240Y-13589923D01*
X18417215Y-13590401D01*
X18429502Y-13590955D01*
X18442267Y-13591591D01*
X18455677Y-13592311D01*
X18458979Y-13592495D01*
X18516539Y-13596327D01*
X18573938Y-13601333D01*
X18631156Y-13607509D01*
X18688178Y-13614850D01*
X18744986Y-13623347D01*
X18801562Y-13632995D01*
X18857889Y-13643788D01*
X18913948Y-13655722D01*
X18969725Y-13668787D01*
X19025200Y-13682979D01*
X19080355Y-13698292D01*
X19135176Y-13714720D01*
X19189642Y-13732256D01*
X19243737Y-13750894D01*
X19297444Y-13770628D01*
X19350746Y-13791454D01*
X19403624Y-13813362D01*
X19456063Y-13836349D01*
X19508042Y-13860407D01*
X19559547Y-13885531D01*
X19610559Y-13911715D01*
X19661061Y-13938952D01*
X19711035Y-13967237D01*
X19760465Y-13996563D01*
X19809333Y-14026924D01*
X19857620Y-14058313D01*
X19905311Y-14090726D01*
X19933270Y-14110405D01*
X19979970Y-14144431D01*
X20025931Y-14179387D01*
X20071141Y-14215260D01*
X20115586Y-14252036D01*
X20159252Y-14289703D01*
X20202124Y-14328244D01*
X20244191Y-14367647D01*
X20285437Y-14407898D01*
X20325849Y-14448984D01*
X20365413Y-14490889D01*
X20404116Y-14533602D01*
X20441943Y-14577106D01*
X20478880Y-14621391D01*
X20514916Y-14666440D01*
X20550034Y-14712239D01*
X20584222Y-14758777D01*
X20599210Y-14779829D01*
X20632010Y-14827381D01*
X20663801Y-14875560D01*
X20694574Y-14924347D01*
X20724322Y-14973724D01*
X20753039Y-15023675D01*
X20780714Y-15074182D01*
X20807343Y-15125227D01*
X20832914Y-15176794D01*
X20857423Y-15228865D01*
X20880862Y-15281422D01*
X20903220Y-15334447D01*
X20924492Y-15387925D01*
X20944671Y-15441838D01*
X20963747Y-15496166D01*
X20981713Y-15550894D01*
X20998564Y-15606004D01*
X21014287Y-15661479D01*
X21028879Y-15717301D01*
X21042331Y-15773452D01*
X21045548Y-15787693D01*
X21057558Y-15844214D01*
X21068392Y-15900904D01*
X21078052Y-15957743D01*
X21086538Y-16014715D01*
X21093849Y-16071799D01*
X21099988Y-16128981D01*
X21104953Y-16186240D01*
X21108745Y-16243558D01*
X21111366Y-16300918D01*
X21112815Y-16358302D01*
X21113092Y-16415689D01*
X21112199Y-16473066D01*
X21110135Y-16530412D01*
X21106901Y-16587708D01*
X21102498Y-16644938D01*
X21096926Y-16702084D01*
X21090185Y-16759126D01*
X21082275Y-16816047D01*
X21073198Y-16872828D01*
X21062953Y-16929453D01*
X21051542Y-16985902D01*
X21038964Y-17042158D01*
X21025219Y-17098203D01*
X21013372Y-17142920D01*
X20997535Y-17198520D01*
X20980581Y-17253721D01*
X20962516Y-17308511D01*
X20943350Y-17362871D01*
X20923091Y-17416786D01*
X20901748Y-17470240D01*
X20879328Y-17523217D01*
X20855842Y-17575702D01*
X20831296Y-17627677D01*
X20805699Y-17679128D01*
X20779060Y-17730038D01*
X20751389Y-17780392D01*
X20722693Y-17830172D01*
X20692979Y-17879365D01*
X20662258Y-17927953D01*
X20630538Y-17975920D01*
X20597826Y-18023251D01*
X20564132Y-18069929D01*
X20529464Y-18115940D01*
X20493831Y-18161266D01*
X20457241Y-18205892D01*
X20429200Y-18238864D01*
X20390891Y-18282304D01*
X20351729Y-18324917D01*
X20311724Y-18366693D01*
X20270888Y-18407620D01*
X20229232Y-18447688D01*
X20186770Y-18486885D01*
X20143510Y-18525201D01*
X20099466Y-18562625D01*
X20054649Y-18599145D01*
X20028223Y-18619973D01*
X19982560Y-18654770D01*
X19936161Y-18688645D01*
X19889055Y-18721579D01*
X19841269Y-18753555D01*
X19792834Y-18784557D01*
X19743777Y-18814568D01*
X19694128Y-18843571D01*
X19643916Y-18871548D01*
X19593169Y-18898483D01*
X19541917Y-18924358D01*
X19490188Y-18949158D01*
X19438010Y-18972865D01*
X19404184Y-18987544D01*
X19350487Y-19009780D01*
X19296446Y-19030876D01*
X19242067Y-19050831D01*
X19187356Y-19069643D01*
X19132323Y-19087311D01*
X19076974Y-19103832D01*
X19021315Y-19119205D01*
X18965355Y-19133426D01*
X18909100Y-19146496D01*
X18852559Y-19158411D01*
X18795738Y-19169170D01*
X18738644Y-19178770D01*
X18681286Y-19187211D01*
X18623668Y-19194490D01*
X18609295Y-19196119D01*
X18582679Y-19198942D01*
X18556170Y-19201490D01*
X18529590Y-19203777D01*
X18502761Y-19205815D01*
X18475506Y-19207617D01*
X18447646Y-19209195D01*
X18419005Y-19210561D01*
X18389404Y-19211728D01*
X18382779Y-19211959D01*
X18379584Y-19212047D01*
X18375319Y-19212136D01*
X18370102Y-19212223D01*
X18364057Y-19212307D01*
X18357299Y-19212388D01*
X18349951Y-19212466D01*
X18342133Y-19212540D01*
X18333963Y-19212607D01*
X18325564Y-19212670D01*
X18317053Y-19212726D01*
X18308551Y-19212774D01*
X18300181Y-19212814D01*
X18292059Y-19212845D01*
X18284305Y-19212867D01*
X18277042Y-19212878D01*
X18270387Y-19212878D01*
X18264461Y-19212866D01*
X18259385Y-19212842D01*
X18255279Y-19212805D01*
X18252705Y-19212763D01*
X18227737Y-19212153D01*
X18203719Y-19211401D01*
X18180415Y-19210498D01*
X18157590Y-19209430D01*
X18135010Y-19208186D01*
X18112438Y-19206753D01*
X18089641Y-19205119D01*
X18066385Y-19203272D01*
X18062800Y-19202972D01*
X18005910Y-19197590D01*
X17949073Y-19191025D01*
X17892324Y-19183283D01*
X17835694Y-19174373D01*
X17779216Y-19164301D01*
X17722924Y-19153075D01*
X17666852Y-19140700D01*
X17611033Y-19127186D01*
X17555497Y-19112539D01*
X17500282Y-19096767D01*
X17445417Y-19079876D01*
X17390937Y-19061873D01*
X17354973Y-19049303D01*
X17300656Y-19029269D01*
X17246818Y-19008149D01*
X17193477Y-18985951D01*
X17140644Y-18962683D01*
X17088335Y-18938355D01*
X17036566Y-18912975D01*
X16985350Y-18886551D01*
X16934701Y-18859092D01*
X16884635Y-18830607D01*
X16835167Y-18801103D01*
X16786311Y-18770591D01*
X16738081Y-18739078D01*
X16690493Y-18706572D01*
X16643561Y-18673083D01*
X16597299Y-18638619D01*
X16551721Y-18603188D01*
X16506844Y-18566799D01*
X16462681Y-18529460D01*
X16455456Y-18523201D01*
X16412971Y-18485503D01*
X16371142Y-18446834D01*
X16330028Y-18407256D01*
X16289688Y-18366828D01*
X16250181Y-18325610D01*
X16211568Y-18283663D01*
X16173907Y-18241048D01*
X16157758Y-18222222D01*
X16120769Y-18177794D01*
X16084738Y-18132661D01*
X16049671Y-18086839D01*
X16015577Y-18040342D01*
X15982465Y-17993187D01*
X15950343Y-17945387D01*
X15919220Y-17896960D01*
X15889103Y-17847919D01*
X15860001Y-17798279D01*
X15831923Y-17748058D01*
X15804876Y-17697268D01*
X15778870Y-17645926D01*
X15753912Y-17594048D01*
X15730012Y-17541649D01*
X15707176Y-17488743D01*
X15685414Y-17435345D01*
X15664734Y-17381472D01*
X15645144Y-17327139D01*
X15626653Y-17272360D01*
X15611962Y-17225967D01*
X15595586Y-17170635D01*
X15580356Y-17114988D01*
X15566275Y-17059047D01*
X15553348Y-17002834D01*
X15541576Y-16946368D01*
X15530966Y-16889671D01*
X15521520Y-16832763D01*
X15513240Y-16775666D01*
X15506132Y-16718400D01*
X15500199Y-16660987D01*
X15495444Y-16603447D01*
X15491871Y-16545800D01*
X15490781Y-16522903D01*
X15490371Y-16513261D01*
X15490008Y-16504306D01*
X15489691Y-16495888D01*
X15489418Y-16487861D01*
X15489184Y-16480075D01*
X15488987Y-16472384D01*
X15488825Y-16464638D01*
X15488695Y-16456690D01*
X15488593Y-16448392D01*
X15488516Y-16439595D01*
X15488463Y-16430152D01*
X15488429Y-16419914D01*
X15488413Y-16408734D01*
X15488410Y-16400567D01*
X15818808Y-16400567D01*
X15818819Y-16413709D01*
X15818857Y-16425819D01*
X15818926Y-16437052D01*
X15819028Y-16447562D01*
X15819169Y-16457509D01*
X15819352Y-16467047D01*
X15819581Y-16476334D01*
X15819861Y-16485526D01*
X15820195Y-16494778D01*
X15820587Y-16504249D01*
X15821041Y-16514093D01*
X15821562Y-16524468D01*
X15822153Y-16535530D01*
X15822359Y-16539274D01*
X15825949Y-16593217D01*
X15830719Y-16647036D01*
X15836662Y-16700708D01*
X15843774Y-16754214D01*
X15852048Y-16807531D01*
X15861477Y-16860640D01*
X15872056Y-16913519D01*
X15883779Y-16966147D01*
X15896640Y-17018501D01*
X15910631Y-17070562D01*
X15925748Y-17122310D01*
X15941985Y-17173721D01*
X15959335Y-17224776D01*
X15977792Y-17275453D01*
X15997350Y-17325731D01*
X16018003Y-17375590D01*
X16039746Y-17425007D01*
X16062571Y-17473962D01*
X16086473Y-17522434D01*
X16111447Y-17570401D01*
X16127599Y-17600120D01*
X16154500Y-17647596D01*
X16182372Y-17694382D01*
X16211210Y-17740471D01*
X16241008Y-17785860D01*
X16271762Y-17830540D01*
X16303468Y-17874508D01*
X16336120Y-17917756D01*
X16369715Y-17960278D01*
X16404248Y-18002071D01*
X16439713Y-18043125D01*
X16476108Y-18083437D01*
X16513426Y-18123000D01*
X16551664Y-18161808D01*
X16590817Y-18199855D01*
X16609939Y-18217852D01*
X16649841Y-18254202D01*
X16690522Y-18289659D01*
X16731963Y-18324209D01*
X16774144Y-18357841D01*
X16817045Y-18390543D01*
X16860647Y-18422302D01*
X16904929Y-18453106D01*
X16949872Y-18482944D01*
X16995454Y-18511804D01*
X17041658Y-18539672D01*
X17088462Y-18566537D01*
X17135847Y-18592387D01*
X17183792Y-18617209D01*
X17232278Y-18640993D01*
X17281285Y-18663724D01*
X17330794Y-18685392D01*
X17380783Y-18705985D01*
X17431234Y-18725489D01*
X17465404Y-18737986D01*
X17470559Y-18739821D01*
X17475913Y-18741714D01*
X17481346Y-18743623D01*
X17486736Y-18745508D01*
X17491963Y-18747325D01*
X17496907Y-18749035D01*
X17501446Y-18750595D01*
X17505460Y-18751962D01*
X17508829Y-18753097D01*
X17511431Y-18753956D01*
X17513148Y-18754500D01*
X17513848Y-18754685D01*
X17514397Y-18754336D01*
X17514336Y-18753094D01*
X17514335Y-18753092D01*
X17514199Y-18752461D01*
X17513814Y-18750685D01*
X17513183Y-18747779D01*
X17512311Y-18743763D01*
X17511200Y-18738652D01*
X17509856Y-18732464D01*
X17508281Y-18725218D01*
X17506480Y-18716929D01*
X17504456Y-18707616D01*
X17502213Y-18697296D01*
X17499755Y-18685986D01*
X17497086Y-18673703D01*
X17494209Y-18660465D01*
X17491128Y-18646289D01*
X17487847Y-18631194D01*
X17484370Y-18615195D01*
X17480699Y-18598310D01*
X17476840Y-18580558D01*
X17472796Y-18561953D01*
X17468572Y-18542516D01*
X17464170Y-18522262D01*
X17459593Y-18501210D01*
X17454847Y-18479376D01*
X17449936Y-18456778D01*
X17444860Y-18433433D01*
X17439628Y-18409359D01*
X17434240Y-18384572D01*
X17428701Y-18359092D01*
X17423015Y-18332933D01*
X17417185Y-18306115D01*
X17411216Y-18278653D01*
X17405110Y-18250567D01*
X17398873Y-18221874D01*
X17392507Y-18192589D01*
X17386017Y-18162731D01*
X17379406Y-18132318D01*
X17372677Y-18101366D01*
X17365835Y-18069893D01*
X17358884Y-18037916D01*
X17351827Y-18005453D01*
X17344668Y-17972521D01*
X17337411Y-17939137D01*
X17330059Y-17905319D01*
X17322617Y-17871085D01*
X17320907Y-17863219D01*
X17666321Y-17863219D01*
X17666447Y-17863818D01*
X17666818Y-17865546D01*
X17667428Y-17868373D01*
X17668270Y-17872264D01*
X17669336Y-17877187D01*
X17670621Y-17883111D01*
X17672115Y-17890001D01*
X17673812Y-17897826D01*
X17675706Y-17906552D01*
X17677789Y-17916146D01*
X17680054Y-17926577D01*
X17682493Y-17937812D01*
X17685101Y-17949817D01*
X17687869Y-17962561D01*
X17690791Y-17976010D01*
X17693859Y-17990133D01*
X17697067Y-18004894D01*
X17700406Y-18020264D01*
X17703871Y-18036208D01*
X17707453Y-18052694D01*
X17711147Y-18069691D01*
X17714945Y-18087163D01*
X17718839Y-18105079D01*
X17722823Y-18123407D01*
X17726889Y-18142114D01*
X17731031Y-18161167D01*
X17735241Y-18180532D01*
X17739511Y-18200179D01*
X17743837Y-18220074D01*
X17748209Y-18240184D01*
X17752621Y-18260476D01*
X17757066Y-18280918D01*
X17761536Y-18301478D01*
X17766025Y-18322122D01*
X17770525Y-18342818D01*
X17775030Y-18363534D01*
X17779531Y-18384235D01*
X17784023Y-18404891D01*
X17788498Y-18425467D01*
X17792949Y-18445933D01*
X17797369Y-18466254D01*
X17801749Y-18486398D01*
X17806085Y-18506332D01*
X17810368Y-18526025D01*
X17814592Y-18545443D01*
X17818750Y-18564553D01*
X17822832Y-18583322D01*
X17826834Y-18601719D01*
X17830748Y-18619710D01*
X17834567Y-18637262D01*
X17838283Y-18654344D01*
X17841891Y-18670922D01*
X17845381Y-18686964D01*
X17848748Y-18702436D01*
X17851984Y-18717307D01*
X17855083Y-18731544D01*
X17858037Y-18745114D01*
X17860838Y-18757983D01*
X17863480Y-18770120D01*
X17865957Y-18781492D01*
X17868259Y-18792067D01*
X17870382Y-18801810D01*
X17872316Y-18810691D01*
X17874057Y-18818675D01*
X17875595Y-18825732D01*
X17876924Y-18831827D01*
X17878038Y-18836928D01*
X17878928Y-18841003D01*
X17879589Y-18844018D01*
X17880011Y-18845941D01*
X17880190Y-18846740D01*
X17880196Y-18846763D01*
X17880820Y-18846910D01*
X17882483Y-18847219D01*
X17885050Y-18847667D01*
X17888385Y-18848233D01*
X17892351Y-18848895D01*
X17896811Y-18849628D01*
X17901629Y-18850413D01*
X17906670Y-18851225D01*
X17911796Y-18852043D01*
X17916871Y-18852844D01*
X17921759Y-18853606D01*
X17924985Y-18854104D01*
X17978175Y-18861651D01*
X18031622Y-18868059D01*
X18085242Y-18873319D01*
X18138951Y-18877425D01*
X18192664Y-18880369D01*
X18246298Y-18882144D01*
X18254788Y-18882318D01*
X18260492Y-18882405D01*
X18267166Y-18882474D01*
X18274631Y-18882526D01*
X18282710Y-18882560D01*
X18291225Y-18882577D01*
X18299995Y-18882578D01*
X18308844Y-18882562D01*
X18317595Y-18882530D01*
X18326068Y-18882483D01*
X18334084Y-18882420D01*
X18341465Y-18882343D01*
X18348034Y-18882250D01*
X18353612Y-18882143D01*
X18354204Y-18882130D01*
X18399089Y-18880708D01*
X18443206Y-18878577D01*
X18486754Y-18875719D01*
X18529931Y-18872119D01*
X18572940Y-18867757D01*
X18615979Y-18862618D01*
X18659248Y-18856685D01*
X18670315Y-18855047D01*
X18674614Y-18854394D01*
X18679340Y-18853664D01*
X18684357Y-18852880D01*
X18689532Y-18852061D01*
X18694730Y-18851230D01*
X18699816Y-18850411D01*
X18704657Y-18849623D01*
X18709118Y-18848889D01*
X18713065Y-18848231D01*
X18716362Y-18847671D01*
X18718877Y-18847231D01*
X18720475Y-18846932D01*
X18721019Y-18846800D01*
X18721152Y-18846217D01*
X18721530Y-18844502D01*
X18722147Y-18841690D01*
X18722995Y-18837811D01*
X18724069Y-18832901D01*
X18725359Y-18826991D01*
X18726859Y-18820113D01*
X18728563Y-18812300D01*
X18730462Y-18803585D01*
X18732551Y-18794002D01*
X18734821Y-18783580D01*
X18737266Y-18772356D01*
X18739879Y-18760360D01*
X18741206Y-18754264D01*
X19086856Y-18754264D01*
X19087161Y-18754729D01*
X19087858Y-18754543D01*
X19089524Y-18754017D01*
X19092003Y-18753204D01*
X19095138Y-18752155D01*
X19098775Y-18750923D01*
X19102267Y-18749726D01*
X19148312Y-18733425D01*
X19193420Y-18716539D01*
X19237720Y-18699009D01*
X19281338Y-18680779D01*
X19324405Y-18661794D01*
X19367050Y-18641994D01*
X19409401Y-18621324D01*
X19451587Y-18599727D01*
X19493737Y-18577144D01*
X19497501Y-18575080D01*
X19544384Y-18548632D01*
X19590703Y-18521143D01*
X19636435Y-18492629D01*
X19681555Y-18463109D01*
X19726042Y-18432601D01*
X19769872Y-18401123D01*
X19813021Y-18368695D01*
X19855465Y-18335332D01*
X19897182Y-18301056D01*
X19938148Y-18265882D01*
X19978339Y-18229830D01*
X20017732Y-18192919D01*
X20056305Y-18155165D01*
X20094032Y-18116587D01*
X20118874Y-18090238D01*
X20155434Y-18050008D01*
X20191054Y-18009054D01*
X20225725Y-17967391D01*
X20259438Y-17925034D01*
X20292185Y-17882000D01*
X20323959Y-17838306D01*
X20354749Y-17793967D01*
X20384549Y-17748998D01*
X20413348Y-17703417D01*
X20441140Y-17657239D01*
X20467915Y-17610479D01*
X20493664Y-17563156D01*
X20518380Y-17515283D01*
X20542053Y-17466877D01*
X20564676Y-17417956D01*
X20586240Y-17368532D01*
X20606735Y-17318625D01*
X20626155Y-17268249D01*
X20644490Y-17217420D01*
X20661732Y-17166155D01*
X20677872Y-17114469D01*
X20692902Y-17062379D01*
X20706813Y-17009900D01*
X20719597Y-16957048D01*
X20719909Y-16955695D01*
X20731177Y-16904086D01*
X20741362Y-16852066D01*
X20750451Y-16799722D01*
X20758433Y-16747138D01*
X20765297Y-16694400D01*
X20771031Y-16641593D01*
X20775622Y-16588804D01*
X20779060Y-16536116D01*
X20780080Y-16515759D01*
X20780494Y-16506541D01*
X20780859Y-16498045D01*
X20781177Y-16490125D01*
X20781450Y-16482627D01*
X20781683Y-16475403D01*
X20781878Y-16468302D01*
X20782039Y-16461174D01*
X20782167Y-16453869D01*
X20782267Y-16446238D01*
X20782342Y-16438129D01*
X20782395Y-16429393D01*
X20782428Y-16419880D01*
X20782445Y-16409440D01*
X20782449Y-16400863D01*
X20782444Y-16389343D01*
X20782423Y-16378862D01*
X20782383Y-16369274D01*
X20782321Y-16360429D01*
X20782235Y-16352178D01*
X20782121Y-16344371D01*
X20781976Y-16336861D01*
X20781796Y-16329496D01*
X20781580Y-16322130D01*
X20781325Y-16314610D01*
X20781025Y-16306792D01*
X20780680Y-16298521D01*
X20780284Y-16289653D01*
X20780074Y-16285077D01*
X20776965Y-16230958D01*
X20772679Y-16177000D01*
X20767227Y-16123222D01*
X20760611Y-16069641D01*
X20752841Y-16016274D01*
X20743921Y-15963142D01*
X20733859Y-15910261D01*
X20722661Y-15857650D01*
X20710334Y-15805327D01*
X20696885Y-15753311D01*
X20682319Y-15701620D01*
X20666644Y-15650272D01*
X20649867Y-15599284D01*
X20631993Y-15548677D01*
X20613028Y-15498466D01*
X20592982Y-15448672D01*
X20571859Y-15399313D01*
X20549665Y-15350405D01*
X20526408Y-15301969D01*
X20502094Y-15254020D01*
X20476731Y-15206579D01*
X20450323Y-15159664D01*
X20422879Y-15113292D01*
X20394403Y-15067482D01*
X20364905Y-15022252D01*
X20334388Y-14977620D01*
X20302861Y-14933605D01*
X20283032Y-14906928D01*
X20257472Y-14873578D01*
X20231647Y-14841009D01*
X20205406Y-14809045D01*
X20178598Y-14777507D01*
X20151072Y-14746217D01*
X20122676Y-14714997D01*
X20095828Y-14686364D01*
X20092450Y-14682843D01*
X20088340Y-14678608D01*
X20083603Y-14673769D01*
X20078348Y-14668428D01*
X20072680Y-14662694D01*
X20066704Y-14656673D01*
X20060528Y-14650471D01*
X20054257Y-14644193D01*
X20047998Y-14637947D01*
X20041857Y-14631838D01*
X20035939Y-14625973D01*
X20030352Y-14620458D01*
X20025201Y-14615399D01*
X20020594Y-14610901D01*
X20016634Y-14607073D01*
X20014233Y-14604778D01*
X19986664Y-14578947D01*
X19959388Y-14554068D01*
X19932228Y-14529994D01*
X19905015Y-14506580D01*
X19877575Y-14483680D01*
X19849735Y-14461147D01*
X19821323Y-14438837D01*
X19792168Y-14416603D01*
X19787121Y-14412818D01*
X19743245Y-14380726D01*
X19698736Y-14349643D01*
X19653599Y-14319571D01*
X19607839Y-14290512D01*
X19561461Y-14262470D01*
X19514470Y-14235448D01*
X19466872Y-14209450D01*
X19418671Y-14184477D01*
X19369873Y-14160533D01*
X19320481Y-14137621D01*
X19295374Y-14126469D01*
X19253394Y-14108563D01*
X19210950Y-14091376D01*
X19168360Y-14075037D01*
X19128317Y-14060504D01*
X19120026Y-14057584D01*
X19112801Y-14055051D01*
X19106590Y-14052886D01*
X19101341Y-14051071D01*
X19096999Y-14049589D01*
X19093510Y-14048422D01*
X19090824Y-14047551D01*
X19088885Y-14046959D01*
X19087643Y-14046628D01*
X19087042Y-14046540D01*
X19086975Y-14046562D01*
X19087090Y-14047150D01*
X19087455Y-14048886D01*
X19088065Y-14051750D01*
X19088917Y-14055726D01*
X19090007Y-14060795D01*
X19091331Y-14066941D01*
X19092886Y-14074148D01*
X19094668Y-14082396D01*
X19096672Y-14091669D01*
X19098895Y-14101949D01*
X19101334Y-14113219D01*
X19103984Y-14125464D01*
X19106842Y-14138662D01*
X19109905Y-14152799D01*
X19113168Y-14167858D01*
X19116628Y-14183819D01*
X19120279Y-14200667D01*
X19124120Y-14218384D01*
X19128148Y-14236952D01*
X19132355Y-14256355D01*
X19136741Y-14276575D01*
X19141301Y-14297593D01*
X19146032Y-14319395D01*
X19150929Y-14341961D01*
X19155988Y-14365276D01*
X19161207Y-14389320D01*
X19166581Y-14414077D01*
X19172106Y-14439530D01*
X19177779Y-14465662D01*
X19183596Y-14492454D01*
X19189553Y-14519890D01*
X19195647Y-14547952D01*
X19201873Y-14576623D01*
X19208228Y-14605886D01*
X19214708Y-14635723D01*
X19221310Y-14666119D01*
X19228030Y-14697052D01*
X19234863Y-14728509D01*
X19241806Y-14760471D01*
X19248856Y-14792920D01*
X19256008Y-14825840D01*
X19263259Y-14859214D01*
X19270605Y-14893022D01*
X19278043Y-14927249D01*
X19285567Y-14961877D01*
X19293176Y-14996890D01*
X19300865Y-15032268D01*
X19308631Y-15067996D01*
X19316468Y-15104056D01*
X19324375Y-15140430D01*
X19332346Y-15177100D01*
X19340378Y-15214052D01*
X19342378Y-15223252D01*
X19350426Y-15260272D01*
X19358414Y-15297018D01*
X19366338Y-15333471D01*
X19374194Y-15369615D01*
X19381980Y-15405430D01*
X19389690Y-15440903D01*
X19397322Y-15476014D01*
X19404871Y-15510745D01*
X19412333Y-15545080D01*
X19419705Y-15579001D01*
X19426984Y-15612492D01*
X19434165Y-15645534D01*
X19441244Y-15678110D01*
X19448219Y-15710204D01*
X19455084Y-15741796D01*
X19461836Y-15772872D01*
X19468473Y-15803412D01*
X19474989Y-15833400D01*
X19481381Y-15862818D01*
X19487645Y-15891649D01*
X19493777Y-15919875D01*
X19499775Y-15947480D01*
X19505633Y-15974446D01*
X19511349Y-16000756D01*
X19516918Y-16026391D01*
X19522336Y-16051336D01*
X19527601Y-16075572D01*
X19532707Y-16099082D01*
X19537652Y-16121849D01*
X19542431Y-16143856D01*
X19547041Y-16165085D01*
X19551478Y-16185519D01*
X19555739Y-16205141D01*
X19559819Y-16223932D01*
X19563715Y-16241877D01*
X19567423Y-16258957D01*
X19570939Y-16275155D01*
X19574259Y-16290454D01*
X19577380Y-16304837D01*
X19580298Y-16318286D01*
X19583009Y-16330784D01*
X19585510Y-16342313D01*
X19587796Y-16352857D01*
X19589863Y-16362397D01*
X19591710Y-16370917D01*
X19593330Y-16378399D01*
X19594721Y-16384825D01*
X19595878Y-16390180D01*
X19596799Y-16394444D01*
X19597480Y-16397602D01*
X19597915Y-16399634D01*
X19598101Y-16400524D01*
X19598110Y-16400567D01*
X19597984Y-16401175D01*
X19597608Y-16402930D01*
X19596988Y-16405813D01*
X19596125Y-16409809D01*
X19595026Y-16414897D01*
X19593691Y-16421064D01*
X19592127Y-16428289D01*
X19590336Y-16436556D01*
X19588322Y-16445848D01*
X19586089Y-16456147D01*
X19583641Y-16467436D01*
X19580980Y-16479698D01*
X19578113Y-16492915D01*
X19575042Y-16507070D01*
X19571770Y-16522146D01*
X19568302Y-16538125D01*
X19564641Y-16554989D01*
X19560791Y-16572723D01*
X19556756Y-16591307D01*
X19552540Y-16610725D01*
X19548146Y-16630960D01*
X19543578Y-16651993D01*
X19538840Y-16673809D01*
X19533936Y-16696390D01*
X19528869Y-16719716D01*
X19523644Y-16743773D01*
X19518264Y-16768543D01*
X19512732Y-16794007D01*
X19507052Y-16820149D01*
X19501230Y-16846951D01*
X19495267Y-16874396D01*
X19489168Y-16902468D01*
X19482937Y-16931147D01*
X19476577Y-16960417D01*
X19470092Y-16990261D01*
X19463487Y-17020662D01*
X19456763Y-17051601D01*
X19449927Y-17083061D01*
X19442980Y-17115026D01*
X19435927Y-17147478D01*
X19428773Y-17180399D01*
X19421520Y-17213773D01*
X19414172Y-17247581D01*
X19406734Y-17281807D01*
X19399207Y-17316433D01*
X19391598Y-17351441D01*
X19383909Y-17386816D01*
X19376144Y-17422538D01*
X19368307Y-17458591D01*
X19360402Y-17494957D01*
X19352432Y-17531620D01*
X19344402Y-17568561D01*
X19342678Y-17576486D01*
X19334635Y-17613487D01*
X19326650Y-17650214D01*
X19318729Y-17686650D01*
X19310876Y-17722776D01*
X19303094Y-17758576D01*
X19295386Y-17794031D01*
X19287757Y-17829126D01*
X19280209Y-17863842D01*
X19272749Y-17898162D01*
X19265378Y-17932069D01*
X19258101Y-17965546D01*
X19250921Y-17998574D01*
X19243843Y-18031137D01*
X19236868Y-18063217D01*
X19230004Y-18094798D01*
X19223251Y-18125860D01*
X19216615Y-18156388D01*
X19210099Y-18186364D01*
X19203706Y-18215771D01*
X19197441Y-18244590D01*
X19191308Y-18272806D01*
X19185310Y-18300399D01*
X19179451Y-18327354D01*
X19173734Y-18353653D01*
X19168164Y-18379277D01*
X19162744Y-18404211D01*
X19157478Y-18428436D01*
X19152370Y-18451936D01*
X19147423Y-18474692D01*
X19142642Y-18496688D01*
X19138030Y-18517906D01*
X19133590Y-18538329D01*
X19129328Y-18557939D01*
X19125246Y-18576719D01*
X19121348Y-18594652D01*
X19117638Y-18611721D01*
X19114120Y-18627907D01*
X19110798Y-18643195D01*
X19107674Y-18657565D01*
X19104754Y-18671001D01*
X19102041Y-18683486D01*
X19099538Y-18695002D01*
X19097250Y-18705532D01*
X19095179Y-18715057D01*
X19093331Y-18723563D01*
X19091709Y-18731029D01*
X19090316Y-18737441D01*
X19089156Y-18742779D01*
X19088233Y-18747027D01*
X19087551Y-18750167D01*
X19087114Y-18752183D01*
X19086925Y-18753055D01*
X19086917Y-18753092D01*
X19086856Y-18754264D01*
X18741206Y-18754264D01*
X18742652Y-18747625D01*
X18745579Y-18734185D01*
X18748651Y-18720071D01*
X18751863Y-18705316D01*
X18755207Y-18689955D01*
X18758676Y-18674017D01*
X18762262Y-18657537D01*
X18765960Y-18640547D01*
X18769761Y-18623080D01*
X18773658Y-18605169D01*
X18777645Y-18586846D01*
X18781714Y-18568143D01*
X18785859Y-18549094D01*
X18790072Y-18529732D01*
X18794344Y-18510088D01*
X18798672Y-18490195D01*
X18803046Y-18470088D01*
X18807460Y-18449797D01*
X18811906Y-18429356D01*
X18816378Y-18408797D01*
X18820867Y-18388153D01*
X18825370Y-18367457D01*
X18829874Y-18346741D01*
X18834376Y-18326038D01*
X18838869Y-18305381D01*
X18843344Y-18284803D01*
X18847795Y-18264335D01*
X18852214Y-18244012D01*
X18856595Y-18223864D01*
X18860930Y-18203926D01*
X18865213Y-18184229D01*
X18869435Y-18164807D01*
X18873590Y-18145693D01*
X18877672Y-18126917D01*
X18881672Y-18108515D01*
X18885584Y-18090518D01*
X18889401Y-18072958D01*
X18893115Y-18055870D01*
X18896719Y-18039284D01*
X18900207Y-18023235D01*
X18903571Y-18007754D01*
X18906804Y-17992874D01*
X18909899Y-17978629D01*
X18912850Y-17965050D01*
X18915646Y-17952170D01*
X18918285Y-17940022D01*
X18920757Y-17928640D01*
X18923055Y-17918054D01*
X18925173Y-17908298D01*
X18927103Y-17899406D01*
X18928837Y-17891408D01*
X18930370Y-17884339D01*
X18931693Y-17878231D01*
X18932801Y-17873116D01*
X18933685Y-17869027D01*
X18934339Y-17865997D01*
X18934756Y-17864059D01*
X18934927Y-17863244D01*
X18934931Y-17863219D01*
X18934339Y-17863208D01*
X18932582Y-17863196D01*
X18929683Y-17863185D01*
X18925666Y-17863174D01*
X18920557Y-17863162D01*
X18914379Y-17863152D01*
X18907157Y-17863141D01*
X18898915Y-17863130D01*
X18889678Y-17863120D01*
X18879469Y-17863110D01*
X18868315Y-17863100D01*
X18856238Y-17863090D01*
X18843264Y-17863081D01*
X18829417Y-17863072D01*
X18814720Y-17863063D01*
X18799200Y-17863054D01*
X18782879Y-17863045D01*
X18765783Y-17863037D01*
X18747936Y-17863030D01*
X18729362Y-17863021D01*
X18710086Y-17863015D01*
X18690131Y-17863008D01*
X18669523Y-17863001D01*
X18648287Y-17862995D01*
X18626446Y-17862989D01*
X18604024Y-17862984D01*
X18581047Y-17862979D01*
X18557539Y-17862974D01*
X18533523Y-17862970D01*
X18509025Y-17862966D01*
X18484069Y-17862963D01*
X18458679Y-17862959D01*
X18432880Y-17862957D01*
X18406696Y-17862955D01*
X18380151Y-17862953D01*
X18353270Y-17862952D01*
X18326078Y-17862952D01*
X18300627Y-17862951D01*
X18273168Y-17862952D01*
X18245998Y-17862952D01*
X18219141Y-17862953D01*
X18192622Y-17862955D01*
X18166465Y-17862957D01*
X18140695Y-17862960D01*
X18115336Y-17862963D01*
X18090412Y-17862966D01*
X18065950Y-17862970D01*
X18041970Y-17862974D01*
X18018500Y-17862979D01*
X17995563Y-17862984D01*
X17973183Y-17862990D01*
X17951385Y-17862996D01*
X17930194Y-17863002D01*
X17909634Y-17863008D01*
X17889728Y-17863015D01*
X17870503Y-17863022D01*
X17851981Y-17863030D01*
X17834189Y-17863038D01*
X17817148Y-17863046D01*
X17800886Y-17863054D01*
X17785425Y-17863063D01*
X17770790Y-17863072D01*
X17757006Y-17863081D01*
X17744097Y-17863091D01*
X17732087Y-17863100D01*
X17721001Y-17863111D01*
X17710864Y-17863120D01*
X17701699Y-17863131D01*
X17693530Y-17863141D01*
X17686384Y-17863152D01*
X17680284Y-17863163D01*
X17675254Y-17863174D01*
X17671318Y-17863186D01*
X17668502Y-17863197D01*
X17666830Y-17863208D01*
X17666321Y-17863219D01*
X17320907Y-17863219D01*
X17315088Y-17836450D01*
X17307475Y-17801434D01*
X17299784Y-17766052D01*
X17292017Y-17730323D01*
X17284178Y-17694265D01*
X17276272Y-17657893D01*
X17268301Y-17621225D01*
X17260268Y-17584280D01*
X17258574Y-17576486D01*
X17250531Y-17539488D01*
X17242548Y-17502764D01*
X17234629Y-17466333D01*
X17226777Y-17430211D01*
X17218996Y-17394416D01*
X17211290Y-17358966D01*
X17203663Y-17323878D01*
X17196120Y-17289168D01*
X17188662Y-17254855D01*
X17181294Y-17220955D01*
X17174020Y-17187487D01*
X17166844Y-17154467D01*
X17159770Y-17121913D01*
X17152801Y-17089843D01*
X17145940Y-17058271D01*
X17139192Y-17027219D01*
X17132560Y-16996702D01*
X17126050Y-16966737D01*
X17119663Y-16937342D01*
X17113404Y-16908534D01*
X17107276Y-16880331D01*
X17101285Y-16852749D01*
X17095431Y-16825807D01*
X17089721Y-16799522D01*
X17084158Y-16773910D01*
X17078745Y-16748990D01*
X17073486Y-16724779D01*
X17068385Y-16701294D01*
X17063446Y-16678552D01*
X17058673Y-16656570D01*
X17054068Y-16635367D01*
X17049637Y-16614959D01*
X17045382Y-16595365D01*
X17041308Y-16576600D01*
X17037418Y-16558681D01*
X17033716Y-16541629D01*
X17030207Y-16525459D01*
X17026893Y-16510187D01*
X17023778Y-16495834D01*
X17020867Y-16482413D01*
X17018162Y-16469945D01*
X17015668Y-16458445D01*
X17013389Y-16447932D01*
X17011328Y-16438423D01*
X17009489Y-16429933D01*
X17007876Y-16422484D01*
X17006492Y-16416088D01*
X17005342Y-16410767D01*
X17004429Y-16406536D01*
X17003756Y-16403412D01*
X17003329Y-16401412D01*
X17003151Y-16400566D01*
X17348296Y-16400566D01*
X17470548Y-16962984D01*
X17592800Y-17525404D01*
X18300627Y-17525404D01*
X19008452Y-17525404D01*
X19130704Y-16962984D01*
X19252957Y-16400566D01*
X19058077Y-15504094D01*
X19051056Y-15471800D01*
X19044096Y-15439786D01*
X19037200Y-15408070D01*
X19030374Y-15376675D01*
X19023619Y-15345617D01*
X19016944Y-15314918D01*
X19010350Y-15284599D01*
X19003842Y-15254676D01*
X18997424Y-15225172D01*
X18991101Y-15196106D01*
X18984877Y-15167498D01*
X18978757Y-15139368D01*
X18972745Y-15111734D01*
X18966844Y-15084619D01*
X18961060Y-15058039D01*
X18955396Y-15032017D01*
X18949858Y-15006571D01*
X18944449Y-14981722D01*
X18939172Y-14957488D01*
X18934035Y-14933891D01*
X18929039Y-14910950D01*
X18924190Y-14888685D01*
X18919492Y-14867115D01*
X18914950Y-14846260D01*
X18910567Y-14826141D01*
X18906347Y-14806777D01*
X18902296Y-14788187D01*
X18898417Y-14770392D01*
X18894715Y-14753411D01*
X18891194Y-14737264D01*
X18887859Y-14721973D01*
X18884713Y-14707553D01*
X18881761Y-14694028D01*
X18879007Y-14681417D01*
X18876457Y-14669739D01*
X18874114Y-14659014D01*
X18871981Y-14649262D01*
X18870064Y-14640502D01*
X18868367Y-14632756D01*
X18866895Y-14626042D01*
X18865651Y-14620378D01*
X18864640Y-14615788D01*
X18863866Y-14612290D01*
X18863334Y-14609904D01*
X18863047Y-14608648D01*
X18862994Y-14608447D01*
X18862861Y-14609054D01*
X18862480Y-14610807D01*
X18861853Y-14613682D01*
X18860987Y-14617663D01*
X18859885Y-14622727D01*
X18858552Y-14628858D01*
X18856991Y-14636033D01*
X18855207Y-14644234D01*
X18853204Y-14653441D01*
X18850987Y-14663635D01*
X18848560Y-14674795D01*
X18845926Y-14686902D01*
X18843091Y-14699937D01*
X18840059Y-14713879D01*
X18836833Y-14728709D01*
X18833420Y-14744407D01*
X18829821Y-14760954D01*
X18826042Y-14778331D01*
X18822088Y-14796515D01*
X18817961Y-14815490D01*
X18813667Y-14835235D01*
X18809210Y-14855730D01*
X18804595Y-14876955D01*
X18799824Y-14898892D01*
X18794904Y-14921519D01*
X18789837Y-14944818D01*
X18784629Y-14968768D01*
X18779283Y-14993352D01*
X18773804Y-15018547D01*
X18768196Y-15044336D01*
X18762464Y-15070697D01*
X18756611Y-15097612D01*
X18750643Y-15125061D01*
X18744562Y-15153023D01*
X18738373Y-15181481D01*
X18732082Y-15210413D01*
X18725692Y-15239800D01*
X18719208Y-15269623D01*
X18712632Y-15299860D01*
X18705971Y-15330494D01*
X18699228Y-15361505D01*
X18692407Y-15392872D01*
X18685513Y-15424576D01*
X18678550Y-15456598D01*
X18671523Y-15488917D01*
X18664435Y-15521515D01*
X18664160Y-15522779D01*
X18465527Y-16436284D01*
X18300627Y-16436284D01*
X18135725Y-16436284D01*
X17937093Y-15522779D01*
X17930002Y-15490171D01*
X17922972Y-15457841D01*
X17916007Y-15425807D01*
X17909110Y-15394090D01*
X17902287Y-15362710D01*
X17895541Y-15331685D01*
X17888876Y-15301036D01*
X17882297Y-15270782D01*
X17875810Y-15240943D01*
X17869415Y-15211539D01*
X17863120Y-15182590D01*
X17856928Y-15154114D01*
X17850844Y-15126131D01*
X17844870Y-15098662D01*
X17839013Y-15071726D01*
X17833276Y-15045343D01*
X17827663Y-15019533D01*
X17822179Y-14994313D01*
X17816828Y-14969707D01*
X17811614Y-14945731D01*
X17806542Y-14922406D01*
X17801616Y-14899753D01*
X17796839Y-14877790D01*
X17792218Y-14856536D01*
X17787754Y-14836012D01*
X17783454Y-14816239D01*
X17779321Y-14797234D01*
X17775360Y-14779018D01*
X17771574Y-14761610D01*
X17767969Y-14745031D01*
X17764547Y-14729299D01*
X17761315Y-14714435D01*
X17758275Y-14700458D01*
X17755432Y-14687389D01*
X17752791Y-14675245D01*
X17750356Y-14664048D01*
X17748130Y-14653817D01*
X17746120Y-14644571D01*
X17744326Y-14636331D01*
X17742757Y-14629115D01*
X17741415Y-14622945D01*
X17740303Y-14617838D01*
X17739428Y-14613815D01*
X17738792Y-14610897D01*
X17738401Y-14609101D01*
X17738258Y-14608449D01*
X17738125Y-14608996D01*
X17737744Y-14610688D01*
X17737118Y-14613504D01*
X17736253Y-14617424D01*
X17735151Y-14622428D01*
X17733819Y-14628496D01*
X17732260Y-14635610D01*
X17730478Y-14643748D01*
X17728478Y-14652891D01*
X17726263Y-14663020D01*
X17723840Y-14674113D01*
X17721211Y-14686152D01*
X17718381Y-14699116D01*
X17715355Y-14712987D01*
X17712136Y-14727744D01*
X17708728Y-14743366D01*
X17705137Y-14759836D01*
X17701366Y-14777131D01*
X17697421Y-14795234D01*
X17693305Y-14814124D01*
X17689021Y-14833780D01*
X17684577Y-14854185D01*
X17679974Y-14875317D01*
X17675218Y-14897156D01*
X17670312Y-14919683D01*
X17665261Y-14942878D01*
X17660070Y-14966722D01*
X17654743Y-14991194D01*
X17649283Y-15016275D01*
X17643696Y-15041945D01*
X17637985Y-15068183D01*
X17632156Y-15094971D01*
X17626212Y-15122288D01*
X17620158Y-15150115D01*
X17613997Y-15178432D01*
X17607734Y-15207217D01*
X17601375Y-15236454D01*
X17594922Y-15266121D01*
X17588380Y-15296198D01*
X17581754Y-15326666D01*
X17575048Y-15357505D01*
X17568265Y-15388695D01*
X17561412Y-15420216D01*
X17554491Y-15452048D01*
X17547507Y-15484172D01*
X17543176Y-15504094D01*
X17348296Y-16400566D01*
X17003151Y-16400566D01*
X17003149Y-16400558D01*
X17003143Y-16400524D01*
X17003269Y-16399915D01*
X17003644Y-16398158D01*
X17004265Y-16395273D01*
X17005127Y-16391277D01*
X17006227Y-16386186D01*
X17007562Y-16380019D01*
X17009126Y-16372792D01*
X17010917Y-16364523D01*
X17012932Y-16355230D01*
X17015164Y-16344928D01*
X17017613Y-16333638D01*
X17020273Y-16321374D01*
X17023141Y-16308155D01*
X17026213Y-16293998D01*
X17029486Y-16278920D01*
X17032954Y-16262939D01*
X17036615Y-16246072D01*
X17040466Y-16228336D01*
X17044501Y-16209748D01*
X17048718Y-16190327D01*
X17053113Y-16170089D01*
X17057681Y-16149052D01*
X17062420Y-16127233D01*
X17067325Y-16104649D01*
X17072392Y-16081318D01*
X17077618Y-16057257D01*
X17083000Y-16032483D01*
X17088532Y-16007014D01*
X17094213Y-15980867D01*
X17100037Y-15954059D01*
X17106001Y-15926608D01*
X17112101Y-15898531D01*
X17118334Y-15869846D01*
X17124695Y-15840569D01*
X17131181Y-15810718D01*
X17137789Y-15780312D01*
X17144514Y-15749365D01*
X17151352Y-15717897D01*
X17158300Y-15685924D01*
X17165355Y-15653464D01*
X17172511Y-15620533D01*
X17179768Y-15587151D01*
X17187118Y-15553333D01*
X17194558Y-15519097D01*
X17202087Y-15484462D01*
X17209699Y-15449442D01*
X17217391Y-15414057D01*
X17225158Y-15378322D01*
X17232998Y-15342258D01*
X17240906Y-15305879D01*
X17248879Y-15269203D01*
X17256913Y-15232249D01*
X17258878Y-15223213D01*
X17266925Y-15186196D01*
X17274912Y-15149455D01*
X17282835Y-15113005D01*
X17290690Y-15076867D01*
X17298474Y-15041056D01*
X17306182Y-15005590D01*
X17313811Y-14970487D01*
X17321358Y-14935763D01*
X17328818Y-14901435D01*
X17336188Y-14867522D01*
X17343463Y-14834041D01*
X17350639Y-14801007D01*
X17357716Y-14768440D01*
X17364686Y-14736357D01*
X17371547Y-14704774D01*
X17378296Y-14673710D01*
X17384927Y-14643181D01*
X17391438Y-14613205D01*
X17397824Y-14583799D01*
X17404084Y-14554980D01*
X17410210Y-14526766D01*
X17416202Y-14499175D01*
X17422054Y-14472222D01*
X17427763Y-14445926D01*
X17433326Y-14420304D01*
X17438738Y-14395374D01*
X17443996Y-14371153D01*
X17449095Y-14347657D01*
X17454034Y-14324905D01*
X17458806Y-14302912D01*
X17463408Y-14281699D01*
X17467837Y-14261281D01*
X17472091Y-14241676D01*
X17476162Y-14222900D01*
X17480050Y-14204971D01*
X17483750Y-14187907D01*
X17487258Y-14171726D01*
X17490570Y-14156443D01*
X17493683Y-14142077D01*
X17496592Y-14128645D01*
X17499295Y-14116165D01*
X17501786Y-14104652D01*
X17504064Y-14094126D01*
X17506123Y-14084603D01*
X17507959Y-14076100D01*
X17509570Y-14068636D01*
X17510953Y-14062226D01*
X17512101Y-14056889D01*
X17513013Y-14052643D01*
X17513683Y-14049502D01*
X17514109Y-14047487D01*
X17514286Y-14046613D01*
X17514292Y-14046576D01*
X17513656Y-14046680D01*
X17511992Y-14047155D01*
X17509395Y-14047969D01*
X17505958Y-14049091D01*
X17501773Y-14050488D01*
X17496934Y-14052130D01*
X17491537Y-14053982D01*
X17485671Y-14056016D01*
X17479432Y-14058198D01*
X17472913Y-14060497D01*
X17466206Y-14062882D01*
X17464808Y-14063382D01*
X17413876Y-14082232D01*
X17363394Y-14102181D01*
X17313380Y-14123219D01*
X17263854Y-14145337D01*
X17214834Y-14168524D01*
X17166340Y-14192773D01*
X17118390Y-14218069D01*
X17071004Y-14244408D01*
X17024201Y-14271776D01*
X16977999Y-14300165D01*
X16932418Y-14329564D01*
X16887477Y-14359964D01*
X16874556Y-14368973D01*
X16830482Y-14400639D01*
X16787143Y-14433236D01*
X16744555Y-14466751D01*
X16702732Y-14501169D01*
X16661686Y-14536474D01*
X16621435Y-14572654D01*
X16581990Y-14609691D01*
X16543367Y-14647573D01*
X16505581Y-14686285D01*
X16468646Y-14725811D01*
X16432576Y-14766138D01*
X16397384Y-14807250D01*
X16363087Y-14849132D01*
X16329699Y-14891771D01*
X16297232Y-14935151D01*
X16265703Y-14979258D01*
X16241418Y-15014680D01*
X16211544Y-15060138D01*
X16182696Y-15106199D01*
X16154879Y-15152853D01*
X16128100Y-15200086D01*
X16102364Y-15247891D01*
X16077677Y-15296254D01*
X16054045Y-15345163D01*
X16031473Y-15394610D01*
X16009968Y-15444583D01*
X15989535Y-15495069D01*
X15985927Y-15504324D01*
X15966966Y-15554895D01*
X15949115Y-15605881D01*
X15932381Y-15657253D01*
X15916768Y-15708985D01*
X15902285Y-15761049D01*
X15888934Y-15813417D01*
X15876724Y-15866063D01*
X15865660Y-15918958D01*
X15855748Y-15972076D01*
X15846992Y-16025389D01*
X15839401Y-16078869D01*
X15832979Y-16132489D01*
X15827734Y-16186222D01*
X15823668Y-16240040D01*
X15822359Y-16261859D01*
X15821744Y-16273177D01*
X15821202Y-16283756D01*
X15820726Y-16293755D01*
X15820315Y-16303329D01*
X15819962Y-16312635D01*
X15819666Y-16321828D01*
X15819421Y-16331068D01*
X15819223Y-16340508D01*
X15819069Y-16350305D01*
X15818955Y-16360617D01*
X15818875Y-16371599D01*
X15818828Y-16383409D01*
X15818809Y-16396202D01*
X15818808Y-16400567D01*
X15488410Y-16400567D01*
X15488416Y-16388666D01*
X15488438Y-16377808D01*
X15488478Y-16367843D01*
X15488539Y-16358626D01*
X15488623Y-16350007D01*
X15488734Y-16341838D01*
X15488875Y-16333972D01*
X15489048Y-16326259D01*
X15489256Y-16318553D01*
X15489502Y-16310706D01*
X15489789Y-16302568D01*
X15490120Y-16293993D01*
X15490498Y-16284832D01*
X15490781Y-16278230D01*
X15493881Y-16220592D01*
X15498157Y-16163110D01*
X15503603Y-16105804D01*
X15510213Y-16048689D01*
X15517981Y-15991783D01*
X15526900Y-15935103D01*
X15536965Y-15878666D01*
X15548169Y-15822488D01*
X15560506Y-15766588D01*
X15573970Y-15710982D01*
X15588556Y-15655686D01*
X15604257Y-15600718D01*
X15621066Y-15546096D01*
X15638977Y-15491836D01*
X15657986Y-15437954D01*
X15678085Y-15384469D01*
X15699268Y-15331396D01*
X15721529Y-15278755D01*
X15744862Y-15226559D01*
X15769261Y-15174829D01*
X15794719Y-15123579D01*
X15821232Y-15072828D01*
X15848792Y-15022591D01*
X15877393Y-14972888D01*
X15907030Y-14923733D01*
X15937696Y-14875145D01*
X15969385Y-14827140D01*
X16002091Y-14779736D01*
X16035807Y-14732949D01*
X16056792Y-14704819D01*
X16092070Y-14659126D01*
X16128269Y-14614184D01*
X16165373Y-14570008D01*
X16203365Y-14526612D01*
X16242232Y-14484011D01*
X16281955Y-14442221D01*
X16322522Y-14401257D01*
X16363916Y-14361133D01*
X16406122Y-14321865D01*
X16449123Y-14283468D01*
X16492906Y-14245956D01*
X16537453Y-14209344D01*
X16582749Y-14173648D01*
X16628780Y-14138883D01*
X16675529Y-14105062D01*
X16679889Y-14101983D01*
X16727461Y-14069171D01*
X16775657Y-14037370D01*
X16824460Y-14006585D01*
X16873853Y-13976827D01*
X16923818Y-13948102D01*
X16929847Y-13944798D01*
X17939460Y-13944798D01*
X17939777Y-13946339D01*
X17939914Y-13946975D01*
X17940301Y-13948754D01*
X17940931Y-13951655D01*
X17941801Y-13955658D01*
X17942905Y-13960741D01*
X17944240Y-13966884D01*
X17945800Y-13974067D01*
X17947583Y-13982268D01*
X17949583Y-13991467D01*
X17951794Y-14001643D01*
X17954214Y-14012776D01*
X17956837Y-14024845D01*
X17959660Y-14037829D01*
X17962676Y-14051707D01*
X17965882Y-14066459D01*
X17969275Y-14082064D01*
X17972848Y-14098502D01*
X17976598Y-14115752D01*
X17980519Y-14133793D01*
X17984608Y-14152603D01*
X17988860Y-14172164D01*
X17993271Y-14192454D01*
X17997835Y-14213452D01*
X18002550Y-14235138D01*
X18007408Y-14257490D01*
X18012409Y-14280489D01*
X18017544Y-14304113D01*
X18022811Y-14328342D01*
X18028205Y-14353156D01*
X18033721Y-14378533D01*
X18039357Y-14404452D01*
X18045105Y-14430894D01*
X18050962Y-14457837D01*
X18056923Y-14485261D01*
X18062986Y-14513145D01*
X18069143Y-14541468D01*
X18075391Y-14570210D01*
X18081727Y-14599350D01*
X18088144Y-14628867D01*
X18094638Y-14658741D01*
X18101206Y-14688951D01*
X18107842Y-14719475D01*
X18114541Y-14750296D01*
X18120212Y-14776376D01*
X18126961Y-14807421D01*
X18133650Y-14838188D01*
X18140273Y-14868655D01*
X18146827Y-14898803D01*
X18153307Y-14928610D01*
X18159708Y-14958056D01*
X18166025Y-14987119D01*
X18172255Y-15015781D01*
X18178393Y-15044019D01*
X18184435Y-15071813D01*
X18190375Y-15099142D01*
X18196210Y-15125987D01*
X18201934Y-15152326D01*
X18207544Y-15178138D01*
X18213035Y-15203404D01*
X18218404Y-15228101D01*
X18223643Y-15252211D01*
X18228750Y-15275711D01*
X18233719Y-15298582D01*
X18238549Y-15320801D01*
X18243231Y-15342351D01*
X18247764Y-15363208D01*
X18252140Y-15383353D01*
X18256359Y-15402766D01*
X18260413Y-15421424D01*
X18264298Y-15439309D01*
X18268011Y-15456397D01*
X18271546Y-15472672D01*
X18274899Y-15488110D01*
X18278067Y-15502690D01*
X18281043Y-15516394D01*
X18283824Y-15529198D01*
X18286405Y-15541085D01*
X18288781Y-15552032D01*
X18290950Y-15562019D01*
X18292904Y-15571025D01*
X18294641Y-15579029D01*
X18296156Y-15586012D01*
X18297444Y-15591952D01*
X18298501Y-15596829D01*
X18299323Y-15600621D01*
X18299903Y-15603309D01*
X18300239Y-15604871D01*
X18300329Y-15605299D01*
X18300570Y-15605484D01*
X18300592Y-15605464D01*
X18300727Y-15604876D01*
X18301109Y-15603145D01*
X18301737Y-15600292D01*
X18302605Y-15596337D01*
X18303706Y-15591301D01*
X18305039Y-15585205D01*
X18306597Y-15578069D01*
X18308377Y-15569914D01*
X18310374Y-15560761D01*
X18312583Y-15550630D01*
X18315000Y-15539542D01*
X18317621Y-15527517D01*
X18320440Y-15514576D01*
X18323455Y-15500740D01*
X18326659Y-15486029D01*
X18330049Y-15470464D01*
X18333620Y-15454066D01*
X18337367Y-15436855D01*
X18341287Y-15418852D01*
X18345373Y-15400076D01*
X18349624Y-15380551D01*
X18354033Y-15360295D01*
X18358595Y-15339329D01*
X18363307Y-15317674D01*
X18368165Y-15295351D01*
X18373163Y-15272380D01*
X18378298Y-15248781D01*
X18383563Y-15224577D01*
X18388957Y-15199786D01*
X18394472Y-15174430D01*
X18400106Y-15148529D01*
X18405854Y-15122104D01*
X18411711Y-15095176D01*
X18417673Y-15067766D01*
X18423734Y-15039893D01*
X18429892Y-15011578D01*
X18436141Y-14982842D01*
X18442476Y-14953707D01*
X18448894Y-14924191D01*
X18455390Y-14894317D01*
X18461959Y-14864104D01*
X18468596Y-14833573D01*
X18475299Y-14802745D01*
X18481301Y-14775136D01*
X18488056Y-14744062D01*
X18494750Y-14713267D01*
X18501379Y-14682772D01*
X18507937Y-14652597D01*
X18514421Y-14622763D01*
X18520827Y-14593290D01*
X18527149Y-14564199D01*
X18533383Y-14535511D01*
X18539524Y-14507245D01*
X18545569Y-14479424D01*
X18551513Y-14452067D01*
X18557352Y-14425196D01*
X18563079Y-14398830D01*
X18568692Y-14372991D01*
X18574186Y-14347699D01*
X18579556Y-14322973D01*
X18584798Y-14298838D01*
X18589908Y-14275309D01*
X18594880Y-14252411D01*
X18599711Y-14230163D01*
X18604396Y-14208586D01*
X18608931Y-14187700D01*
X18613309Y-14167526D01*
X18617530Y-14148085D01*
X18621585Y-14129397D01*
X18625473Y-14111482D01*
X18629188Y-14094363D01*
X18632725Y-14078059D01*
X18636079Y-14062590D01*
X18639249Y-14047977D01*
X18642227Y-14034241D01*
X18645010Y-14021404D01*
X18647593Y-14009484D01*
X18649972Y-13998503D01*
X18652142Y-13988482D01*
X18654099Y-13979441D01*
X18655838Y-13971400D01*
X18657355Y-13964381D01*
X18658645Y-13958404D01*
X18659705Y-13953490D01*
X18660529Y-13949658D01*
X18661113Y-13946931D01*
X18661452Y-13945328D01*
X18661544Y-13944863D01*
X18660902Y-13944718D01*
X18659203Y-13944438D01*
X18656569Y-13944040D01*
X18653125Y-13943540D01*
X18648992Y-13942957D01*
X18644296Y-13942306D01*
X18639160Y-13941605D01*
X18633708Y-13940869D01*
X18628060Y-13940118D01*
X18622343Y-13939366D01*
X18616679Y-13938632D01*
X18611191Y-13937932D01*
X18607657Y-13937488D01*
X18553633Y-13931349D01*
X18499548Y-13926397D01*
X18445415Y-13922635D01*
X18391244Y-13920061D01*
X18337048Y-13918675D01*
X18282835Y-13918477D01*
X18228619Y-13919467D01*
X18174407Y-13921645D01*
X18120214Y-13925010D01*
X18066049Y-13929564D01*
X18011925Y-13935305D01*
X17957851Y-13942234D01*
X17957226Y-13942321D01*
X17939460Y-13944798D01*
X16929847Y-13944798D01*
X16974338Y-13920418D01*
X17025397Y-13893782D01*
X17076977Y-13868204D01*
X17129062Y-13843690D01*
X17181632Y-13820249D01*
X17234673Y-13797889D01*
X17288167Y-13776616D01*
X17342096Y-13756439D01*
X17396443Y-13737366D01*
X17451192Y-13719405D01*
X17506326Y-13702563D01*
X17561826Y-13686848D01*
X17617676Y-13672269D01*
X17622566Y-13671050D01*
X17678564Y-13657744D01*
X17734597Y-13645615D01*
X17790702Y-13634659D01*
X17846922Y-13624867D01*
X17903295Y-13616235D01*
X17959862Y-13608757D01*
X18016663Y-13602427D01*
X18073737Y-13597240D01*
X18131125Y-13593190D01*
X18178291Y-13590720D01*
X18187828Y-13590307D01*
X18196741Y-13589944D01*
X18205175Y-13589625D01*
X18213278Y-13589350D01*
X18221196Y-13589116D01*
X18229073Y-13588918D01*
X18237057Y-13588756D01*
X18245293Y-13588625D01*
X18253928Y-13588524D01*
X18263107Y-13588449D01*
X18272977Y-13588396D01*
X18283684Y-13588365D01*
X18295375Y-13588351D01*
X18300627Y-13588350D01*
X18316116Y-13588369D01*
G37*
D11*
%TO.C,R5*%
X37037258Y-16577500D02*
X36562742Y-16577500D01*
X37037258Y-17622500D02*
X36562742Y-17622500D01*
D12*
%TO.C,J2*%
X42650000Y-19840000D02*
X42650000Y-20250000D01*
X42650000Y-27750000D02*
X42650000Y-23750000D01*
D11*
X42650000Y-31405000D02*
X42650000Y-38136000D01*
X42650000Y-38136000D02*
X55750000Y-38136000D01*
D12*
X55750000Y-19840000D02*
X42650000Y-19840000D01*
X55750000Y-20250000D02*
X55750000Y-19840000D01*
X55750000Y-23750000D02*
X55750000Y-27750000D01*
D11*
X55750000Y-31405000D02*
X55750000Y-38136000D01*
D13*
X57160000Y-27780000D02*
G75*
G02*
X56960000Y-27780000I-100000J0D01*
G01*
X56960000Y-27780000D02*
G75*
G02*
X57160000Y-27780000I100000J0D01*
G01*
D11*
%TO.C,C38*%
X27230000Y-16190000D02*
X27230000Y-19210000D01*
X27230000Y-19210000D02*
X31450000Y-19210000D01*
X31450000Y-16190000D02*
X27230000Y-16190000D01*
D12*
%TO.C,SW2*%
X44650000Y-3170000D02*
X41150000Y-3170000D01*
D11*
%TO.C,R6*%
X37037258Y-15077500D02*
X36562742Y-15077500D01*
X37037258Y-16122500D02*
X36562742Y-16122500D01*
%TO.C,C14*%
X16065580Y-665000D02*
X15784420Y-665000D01*
X16065580Y-1685000D02*
X15784420Y-1685000D01*
%TO.C,TP3*%
X24300000Y-9400000D02*
X25700000Y-9400000D01*
X24300000Y-10800000D02*
X24300000Y-9400000D01*
X25700000Y-9400000D02*
X25700000Y-10800000D01*
X25700000Y-10800000D02*
X24300000Y-10800000D01*
%TO.C,C27*%
X7190000Y-2007707D02*
X7190000Y-1726547D01*
X8210000Y-2007707D02*
X8210000Y-1726547D01*
%TO.C,U1*%
X38494689Y-12700000D02*
X38812887Y-12381802D01*
X38812887Y-13018198D02*
X38494689Y-12700000D01*
X43281802Y-17487113D02*
X43600000Y-17805311D01*
X43600000Y-7594689D02*
X43281802Y-7912887D01*
X43600000Y-17805311D02*
X43918198Y-17487113D01*
X43918198Y-7912887D02*
X43600000Y-7594689D01*
X48387113Y-12381802D02*
X48705311Y-12700000D01*
X48705311Y-12700000D02*
X48387113Y-13018198D01*
X43437365Y-7403770D02*
X42864609Y-7495694D01*
X42956533Y-6922938D01*
X43437365Y-7403770D01*
G36*
X43437365Y-7403770D02*
G01*
X42864609Y-7495694D01*
X42956533Y-6922938D01*
X43437365Y-7403770D01*
G37*
%TD*%
M02*
