%TF.GenerationSoftware,KiCad,Pcbnew,9.0.2*%
%TF.CreationDate,2025-06-16T09:35:24-07:00*%
%TF.ProjectId,led-usb-hub,6c65642d-7573-4622-9d68-75622e6b6963,rev?*%
%TF.SameCoordinates,PX37fb0e0PY47e8340*%
%TF.FileFunction,Soldermask,Bot*%
%TF.FilePolarity,Negative*%
%FSLAX46Y46*%
G04 Gerber Fmt 4.6, Leading zero omitted, Abs format (unit mm)*
G04 Created by KiCad (PCBNEW 9.0.2) date 2025-06-16 09:35:24*
%MOMM*%
%LPD*%
G01*
G04 APERTURE LIST*
G04 Aperture macros list*
%AMRoundRect*
0 Rectangle with rounded corners*
0 $1 Rounding radius*
0 $2 $3 $4 $5 $6 $7 $8 $9 X,Y pos of 4 corners*
0 Add a 4 corners polygon primitive as box body*
4,1,4,$2,$3,$4,$5,$6,$7,$8,$9,$2,$3,0*
0 Add four circle primitives for the rounded corners*
1,1,$1+$1,$2,$3*
1,1,$1+$1,$4,$5*
1,1,$1+$1,$6,$7*
1,1,$1+$1,$8,$9*
0 Add four rect primitives between the rounded corners*
20,1,$1+$1,$2,$3,$4,$5,0*
20,1,$1+$1,$4,$5,$6,$7,0*
20,1,$1+$1,$6,$7,$8,$9,0*
20,1,$1+$1,$8,$9,$2,$3,0*%
%AMFreePoly0*
4,1,23,0.550000,-0.750000,0.000000,-0.750000,0.000000,-0.745722,-0.065263,-0.745722,-0.191342,-0.711940,-0.304381,-0.646677,-0.396677,-0.554381,-0.461940,-0.441342,-0.495722,-0.315263,-0.495722,-0.250000,-0.500000,-0.250000,-0.500000,0.250000,-0.495722,0.250000,-0.495722,0.315263,-0.461940,0.441342,-0.396677,0.554381,-0.304381,0.646677,-0.191342,0.711940,-0.065263,0.745722,0.000000,0.745722,
0.000000,0.750000,0.550000,0.750000,0.550000,-0.750000,0.550000,-0.750000,$1*%
%AMFreePoly1*
4,1,23,0.000000,0.745722,0.065263,0.745722,0.191342,0.711940,0.304381,0.646677,0.396677,0.554381,0.461940,0.441342,0.495722,0.315263,0.495722,0.250000,0.500000,0.250000,0.500000,-0.250000,0.495722,-0.250000,0.495722,-0.315263,0.461940,-0.441342,0.396677,-0.554381,0.304381,-0.646677,0.191342,-0.711940,0.065263,-0.745722,0.000000,-0.745722,0.000000,-0.750000,-0.550000,-0.750000,
-0.550000,0.750000,0.000000,0.750000,0.000000,0.745722,0.000000,0.745722,$1*%
G04 Aperture macros list end*
%ADD10RoundRect,0.200000X-0.275000X0.200000X-0.275000X-0.200000X0.275000X-0.200000X0.275000X0.200000X0*%
%ADD11C,2.000000*%
%ADD12C,0.700000*%
%ADD13R,1.700000X1.700000*%
%ADD14C,1.700000*%
%ADD15O,0.900000X2.400000*%
%ADD16O,0.900000X1.700000*%
%ADD17RoundRect,0.141000X-0.423000X-0.423000X0.423000X-0.423000X0.423000X0.423000X-0.423000X0.423000X0*%
%ADD18C,1.128000*%
%ADD19C,1.100000*%
%ADD20O,1.408000X2.816000*%
%ADD21RoundRect,0.102000X-1.050000X-1.050000X1.050000X-1.050000X1.050000X1.050000X-1.050000X1.050000X0*%
%ADD22RoundRect,0.225000X0.250000X-0.225000X0.250000X0.225000X-0.250000X0.225000X-0.250000X-0.225000X0*%
%ADD23RoundRect,0.200000X0.200000X0.275000X-0.200000X0.275000X-0.200000X-0.275000X0.200000X-0.275000X0*%
%ADD24RoundRect,0.150000X0.150000X-0.587500X0.150000X0.587500X-0.150000X0.587500X-0.150000X-0.587500X0*%
%ADD25RoundRect,0.150000X-0.150000X0.825000X-0.150000X-0.825000X0.150000X-0.825000X0.150000X0.825000X0*%
%ADD26R,0.299999X0.449999*%
%ADD27RoundRect,0.200000X-0.200000X-0.275000X0.200000X-0.275000X0.200000X0.275000X-0.200000X0.275000X0*%
%ADD28RoundRect,0.200000X0.275000X-0.200000X0.275000X0.200000X-0.275000X0.200000X-0.275000X-0.200000X0*%
%ADD29RoundRect,0.225000X-0.225000X-0.250000X0.225000X-0.250000X0.225000X0.250000X-0.225000X0.250000X0*%
%ADD30RoundRect,0.225000X0.225000X0.250000X-0.225000X0.250000X-0.225000X-0.250000X0.225000X-0.250000X0*%
%ADD31R,0.449999X0.299999*%
%ADD32RoundRect,0.125000X0.353553X0.530330X-0.530330X-0.353553X-0.353553X-0.530330X0.530330X0.353553X0*%
%ADD33RoundRect,0.125000X-0.353553X0.530330X-0.530330X0.353553X0.353553X-0.530330X0.530330X-0.353553X0*%
%ADD34RoundRect,0.225000X-0.250000X0.225000X-0.250000X-0.225000X0.250000X-0.225000X0.250000X0.225000X0*%
%ADD35FreePoly0,270.000000*%
%ADD36R,1.500000X1.000000*%
%ADD37FreePoly1,270.000000*%
%ADD38RoundRect,0.102000X-0.525000X-0.475000X0.525000X-0.475000X0.525000X0.475000X-0.525000X0.475000X0*%
%ADD39R,0.350000X0.200000*%
G04 APERTURE END LIST*
%TO.C,JP1*%
G36*
X18450000Y-4150000D02*
G01*
X19950000Y-4150000D01*
X19950000Y-5650000D01*
X18450000Y-5650000D01*
X18450000Y-4150000D01*
G37*
%TD*%
D10*
%TO.C,R13*%
X46700000Y-2677500D03*
X46700000Y-1027500D03*
%TD*%
%TO.C,R14*%
X48400000Y-2677500D03*
X48400000Y-1027500D03*
%TD*%
D11*
%TO.C,H1*%
X0Y-18000000D03*
%TD*%
%TO.C,H2*%
X58400000Y-18000000D03*
%TD*%
D12*
%TO.C,SW1*%
X37300000Y-700000D03*
X37300000Y-2500000D03*
%TD*%
%TO.C,SW2*%
X42900000Y-700000D03*
X42900000Y-2500000D03*
%TD*%
%TO.C,SW3*%
X52200000Y-700000D03*
X52200000Y-2500000D03*
%TD*%
D13*
%TO.C,J5*%
X56800000Y-4220000D03*
D14*
X56800000Y-6760000D03*
X56800000Y-9300000D03*
X56800000Y-11840000D03*
%TD*%
D12*
%TO.C,J1*%
X32175000Y-6125000D03*
X31325000Y-6125000D03*
X30475000Y-6125000D03*
X29625000Y-6125000D03*
X28775000Y-6125000D03*
X27925000Y-6125000D03*
X27075000Y-6125000D03*
X26225000Y-6125000D03*
X26225000Y-4775000D03*
X27075000Y-4775000D03*
X27925000Y-4775000D03*
X28775000Y-4775000D03*
X29625000Y-4775000D03*
X30475000Y-4775000D03*
X31325000Y-4775000D03*
X32175000Y-4775000D03*
D15*
X33525000Y-5145000D03*
D16*
X33525000Y-1765000D03*
D15*
X24875000Y-5145000D03*
D16*
X24875000Y-1765000D03*
%TD*%
D17*
%TO.C,J3*%
X32700000Y-27780000D03*
D18*
X30200000Y-27780000D03*
X28200000Y-27780000D03*
X25700000Y-27780000D03*
D19*
X27325000Y-21120000D03*
X28575000Y-21120000D03*
X31075000Y-21120000D03*
D20*
X22800000Y-29500000D03*
X35600000Y-29500000D03*
X22800000Y-22000000D03*
X35600000Y-22000000D03*
D21*
X29200000Y-36540000D03*
D19*
X29825000Y-21120000D03*
%TD*%
D17*
%TO.C,J4*%
X12700000Y-27780000D03*
D18*
X10200000Y-27780000D03*
X8200000Y-27780000D03*
X5700000Y-27780000D03*
D19*
X7325000Y-21120000D03*
X8575000Y-21120000D03*
X11075000Y-21120000D03*
D20*
X2800000Y-29500000D03*
X15600000Y-29500000D03*
X2800000Y-22000000D03*
X15600000Y-22000000D03*
D21*
X9200000Y-36540000D03*
D19*
X9825000Y-21120000D03*
%TD*%
D17*
%TO.C,J2*%
X52700000Y-27780000D03*
D18*
X50200000Y-27780000D03*
X48200000Y-27780000D03*
X45700000Y-27780000D03*
D19*
X47325000Y-21120000D03*
X48575000Y-21120000D03*
X51075000Y-21120000D03*
D20*
X42800000Y-29500000D03*
X55600000Y-29500000D03*
X42800000Y-22000000D03*
X55600000Y-22000000D03*
D21*
X49200000Y-36540000D03*
D19*
X49825000Y-21120000D03*
%TD*%
D22*
%TO.C,C24*%
X29334671Y-3471430D03*
X29334671Y-1921430D03*
%TD*%
D23*
%TO.C,R24*%
X44425000Y-24600000D03*
X42775000Y-24600000D03*
%TD*%
D10*
%TO.C,R31*%
X5900000Y-18175000D03*
X5900000Y-19825000D03*
%TD*%
D24*
%TO.C,U7*%
X24250000Y-8475000D03*
X22350000Y-8475000D03*
X23300000Y-6600000D03*
%TD*%
D25*
%TO.C,U5*%
X37295000Y-22000000D03*
X38565000Y-22000000D03*
X39835000Y-22000000D03*
X41105000Y-22000000D03*
X41105000Y-26950000D03*
X39835000Y-26950000D03*
X38565000Y-26950000D03*
X37295000Y-26950000D03*
%TD*%
D26*
%TO.C,D3*%
X28850001Y-7076750D03*
X29549999Y-7076750D03*
X29200000Y-8226750D03*
%TD*%
D22*
%TO.C,C25*%
X30834671Y-3471430D03*
X30834671Y-1921430D03*
%TD*%
%TO.C,C11*%
X4100000Y-7450000D03*
X4100000Y-5900000D03*
%TD*%
D10*
%TO.C,R11*%
X41100000Y-775000D03*
X41100000Y-2425000D03*
%TD*%
D27*
%TO.C,R29*%
X25775000Y-24600000D03*
X27425000Y-24600000D03*
%TD*%
%TO.C,R25*%
X45775000Y-24600000D03*
X47425000Y-24600000D03*
%TD*%
D26*
%TO.C,D6*%
X24750001Y-21325000D03*
X25449999Y-21325000D03*
X25100000Y-22475000D03*
%TD*%
D28*
%TO.C,R35*%
X31000000Y-9225000D03*
X31000000Y-7575000D03*
%TD*%
D29*
%TO.C,C23*%
X5900000Y-16700000D03*
X7450000Y-16700000D03*
%TD*%
D27*
%TO.C,R33*%
X5775000Y-24600000D03*
X7425000Y-24600000D03*
%TD*%
D29*
%TO.C,C3*%
X44325000Y-5500000D03*
X45875000Y-5500000D03*
%TD*%
D27*
%TO.C,R19*%
X22650000Y-10400000D03*
X24300000Y-10400000D03*
%TD*%
D30*
%TO.C,C22*%
X4300000Y-16700000D03*
X2750000Y-16700000D03*
%TD*%
D23*
%TO.C,R32*%
X4425000Y-24600000D03*
X2775000Y-24600000D03*
%TD*%
D10*
%TO.C,R26*%
X24300000Y-18175000D03*
X24300000Y-19825000D03*
%TD*%
D30*
%TO.C,C30*%
X53450000Y-18200000D03*
X51900000Y-18200000D03*
%TD*%
D22*
%TO.C,C35*%
X15600000Y-25975000D03*
X15600000Y-24425000D03*
%TD*%
D30*
%TO.C,C32*%
X54900000Y-12298000D03*
X53350000Y-12298000D03*
%TD*%
D27*
%TO.C,R20*%
X44275000Y-9100000D03*
X45925000Y-9100000D03*
%TD*%
D30*
%TO.C,C20*%
X24300000Y-16700000D03*
X22750000Y-16700000D03*
%TD*%
D22*
%TO.C,C17*%
X19700000Y-10400000D03*
X19700000Y-8850000D03*
%TD*%
D29*
%TO.C,C7*%
X38325000Y-9100000D03*
X39875000Y-9100000D03*
%TD*%
D31*
%TO.C,D4*%
X32025000Y-11149999D03*
X32025000Y-10450001D03*
X33175000Y-10800000D03*
%TD*%
D26*
%TO.C,D7*%
X4750001Y-21325000D03*
X5449999Y-21325000D03*
X5100000Y-22475000D03*
%TD*%
D22*
%TO.C,C12*%
X2600000Y-7450000D03*
X2600000Y-5900000D03*
%TD*%
D30*
%TO.C,C6*%
X42875000Y-5500000D03*
X41325000Y-5500000D03*
%TD*%
D23*
%TO.C,R28*%
X24425000Y-24600000D03*
X22775000Y-24600000D03*
%TD*%
D30*
%TO.C,C18*%
X44300000Y-16700000D03*
X42750000Y-16700000D03*
%TD*%
D10*
%TO.C,R30*%
X4300000Y-18175000D03*
X4300000Y-19825000D03*
%TD*%
D32*
%TO.C,U2*%
X13472272Y-4167930D03*
X14037957Y-4733616D03*
X14603643Y-5299301D03*
X15169328Y-5864986D03*
X15735014Y-6430672D03*
X16300699Y-6996357D03*
X16866384Y-7562043D03*
X17432070Y-8127728D03*
D33*
X17432070Y-10072272D03*
X16866384Y-10637957D03*
X16300699Y-11203643D03*
X15735014Y-11769328D03*
X15169328Y-12335014D03*
X14603643Y-12900699D03*
X14037957Y-13466384D03*
X13472272Y-14032070D03*
D32*
X11527728Y-14032070D03*
X10962043Y-13466384D03*
X10396357Y-12900699D03*
X9830672Y-12335014D03*
X9264986Y-11769328D03*
X8699301Y-11203643D03*
X8133616Y-10637957D03*
X7567930Y-10072272D03*
D33*
X7567930Y-8127728D03*
X8133616Y-7562043D03*
X8699301Y-6996357D03*
X9264986Y-6430672D03*
X9830672Y-5864986D03*
X10396357Y-5299301D03*
X10962043Y-4733616D03*
X11527728Y-4167930D03*
%TD*%
D27*
%TO.C,R34*%
X24700000Y-3275000D03*
X26350000Y-3275000D03*
%TD*%
D29*
%TO.C,C21*%
X25900000Y-16700000D03*
X27450000Y-16700000D03*
%TD*%
D34*
%TO.C,C16*%
X19700000Y-12000000D03*
X19700000Y-13550000D03*
%TD*%
D30*
%TO.C,C33*%
X54900000Y-10798000D03*
X53350000Y-10798000D03*
%TD*%
D22*
%TO.C,C34*%
X35600000Y-25975000D03*
X35600000Y-24425000D03*
%TD*%
D10*
%TO.C,R23*%
X45900000Y-18175000D03*
X45900000Y-19825000D03*
%TD*%
D29*
%TO.C,C1*%
X38325000Y-7600000D03*
X39875000Y-7600000D03*
%TD*%
D27*
%TO.C,R18*%
X22650000Y-12000000D03*
X24300000Y-12000000D03*
%TD*%
D10*
%TO.C,R27*%
X25900000Y-18175000D03*
X25900000Y-19825000D03*
%TD*%
D23*
%TO.C,R45*%
X22800000Y-4800000D03*
X21150000Y-4800000D03*
%TD*%
D29*
%TO.C,C31*%
X54900000Y-13798000D03*
X56450000Y-13798000D03*
%TD*%
D26*
%TO.C,D5*%
X44750001Y-21325000D03*
X45449999Y-21325000D03*
X45100000Y-22475000D03*
%TD*%
D25*
%TO.C,U6*%
X17295000Y-22000000D03*
X18565000Y-22000000D03*
X19835000Y-22000000D03*
X21105000Y-22000000D03*
X21105000Y-26950000D03*
X19835000Y-26950000D03*
X18565000Y-26950000D03*
X17295000Y-26950000D03*
%TD*%
D23*
%TO.C,R43*%
X56525000Y-15300000D03*
X54875000Y-15300000D03*
%TD*%
D22*
%TO.C,C10*%
X5600000Y-7450000D03*
X5600000Y-5900000D03*
%TD*%
D35*
%TO.C,JP1*%
X19200000Y-3600000D03*
D36*
X19200000Y-4900000D03*
D37*
X19200000Y-6200000D03*
%TD*%
D28*
%TO.C,R10*%
X35500000Y-2425000D03*
X35500000Y-775000D03*
%TD*%
D23*
%TO.C,R21*%
X42925000Y-9100000D03*
X41275000Y-9100000D03*
%TD*%
D28*
%TO.C,R12*%
X54600000Y-7625000D03*
X54600000Y-5975000D03*
%TD*%
D34*
%TO.C,C5*%
X48900000Y-11925000D03*
X48900000Y-13475000D03*
%TD*%
D38*
%TO.C,Y2*%
X7050000Y-2400000D03*
X8900000Y-2400000D03*
X8900000Y-3850000D03*
X7050000Y-3850000D03*
%TD*%
D29*
%TO.C,C19*%
X45900000Y-16700000D03*
X47450000Y-16700000D03*
%TD*%
D39*
%TO.C,D2*%
X33700000Y-7830000D03*
X33700000Y-7370000D03*
%TD*%
D27*
%TO.C,R44*%
X51875000Y-15300000D03*
X53525000Y-15300000D03*
%TD*%
D10*
%TO.C,R22*%
X44300000Y-18175000D03*
X44300000Y-19825000D03*
%TD*%
D29*
%TO.C,C2*%
X44325000Y-7000000D03*
X45875000Y-7000000D03*
%TD*%
D30*
%TO.C,C13*%
X5475000Y-3850000D03*
X3925000Y-3850000D03*
%TD*%
M02*
