  0
SECTION
  2
HEADER
  9
$ANGBASE
  50
0.0
  9
$ANGDIR
  70
1
  9
$MEASUREMENT
  70
1
  0
ENDSEC
  0
SECTION
  2
TABLES
  0
TABLE
  2
LTYPE
  70
4
  0
LTYPE
  5
40F
  2
CONTINUOUS
  70
0
  3
Solid line
  72
65
  73
0
  40
0.0
  0
LTYPE
  5
410
  2
DASHDOT
 70
0
  3
Dash Dot ____ _ ____ _
 72
65
 73
4
 40
2.0
 49
1.25
 49
-0.25
 49
0.25
 49
-0.25
  0
LTYPE
  5
411
  2
DASHED
 70
0
  3
Dashed __ __ __ __ __
 72
65
 73
2
 40
0.75
 49
0.5
 49
-0.25
  0
LTYPE
  5
43B
  2
DOTTED
 70
0
  3
Dotted .  .  .  .
 72
65
 73
2
 40
0.2
 49
0.0
 49
-0.2
  0
ENDTAB
  0
TABLE
  2
STYLE
  70
4
  0
STYLE
  2
KICAD
  70
0
  40
0
  41
1
  42
1
  50
0
  71
0
  3
isocp.shx
  0
STYLE
  2
KICADB
  70
0
  40
0
  41
1
  42
1
  50
0
  71
0
  3
isocp.shx
  0
STYLE
  2
KICADI
  70
0
  40
0
  41
1
  42
1
  50
15
  71
0
  3
isocp.shx
  0
STYLE
  2
KICADBI
  70
0
  40
0
  41
1
  42
1
  50
15
  71
0
  3
isocp.shx
  0
ENDTAB
  0
TABLE
  2
LAYER
  70
1
  0
LAYER
  2
BLACK
  70
0
  62
7
  6
CONTINUOUS
  0
ENDTAB
  0
ENDSEC
  0
SECTION
  2
ENTITIES
0
LINE
8
BLACK
6
CONTINUOUS
10
160.528
20
-96.52
11
154.432
21
-102.616
0
LINE
8
BLACK
6
CONTINUOUS
10
37.084
20
-96.52
11
37.084
21
-64.008
0
LINE
8
BLACK
6
CONTINUOUS
10
154.432
20
-57.912
11
43.18
21
-57.912
0
LINE
8
BLACK
6
CONTINUOUS
10
160.528
20
-64.008
11
160.528
21
-96.52
0
LINE
8
BLACK
6
CONTINUOUS
10
43.18
20
-102.616
11
154.432
21
-102.616
0
LINE
8
BLACK
6
CONTINUOUS
10
37.084
20
-64.008
11
43.18
21
-57.912
0
LINE
8
BLACK
6
CONTINUOUS
10
154.432
20
-57.912
11
160.528
21
-64.008
0
LINE
8
BLACK
6
CONTINUOUS
10
43.18
20
-102.616
11
37.084
21
-96.52
0
LINE
8
BLACK
6
CONTINUOUS
10
39.548
20
-92.888
11
42.748
21
-96.088
0
LINE
8
BLACK
6
CONTINUOUS
10
42.748
20
-92.888
11
39.548
21
-96.088
0
LINE
8
BLACK
6
CONTINUOUS
10
116.256
20
-72.568
11
119.456
21
-75.768
0
LINE
8
BLACK
6
CONTINUOUS
10
119.456
20
-72.568
11
116.256
21
-75.768
0
LINE
8
BLACK
6
CONTINUOUS
10
154.864
20
-92.888
11
158.064
21
-96.088
0
LINE
8
BLACK
6
CONTINUOUS
10
158.064
20
-92.888
11
154.864
21
-96.088
0
LINE
8
BLACK
6
CONTINUOUS
10
39.5102
20
-105.791
11
39.5102
21
-103.791
0
LINE
8
BLACK
6
CONTINUOUS
10
39.5102
20
-103.791
11
39.9864
21
-103.791
0
LINE
8
BLACK
6
CONTINUOUS
10
39.9864
20
-103.791
11
40.2721
21
-103.886
0
LINE
8
BLACK
6
CONTINUOUS
10
40.2721
20
-103.886
11
40.4626
21
-104.077
0
LINE
8
BLACK
6
CONTINUOUS
10
40.4626
20
-104.077
11
40.5578
21
-104.267
0
LINE
8
BLACK
6
CONTINUOUS
10
40.5578
20
-104.267
11
40.653
21
-104.648
0
LINE
8
BLACK
6
CONTINUOUS
10
40.653
20
-104.648
11
40.653
21
-104.934
0
LINE
8
BLACK
6
CONTINUOUS
10
40.653
20
-104.934
11
40.5578
21
-105.315
0
LINE
8
BLACK
6
CONTINUOUS
10
40.5578
20
-105.315
11
40.4626
21
-105.506
0
LINE
8
BLACK
6
CONTINUOUS
10
40.4626
20
-105.506
11
40.2721
21
-105.696
0
LINE
8
BLACK
6
CONTINUOUS
10
40.2721
20
-105.696
11
39.9864
21
-105.791
0
LINE
8
BLACK
6
CONTINUOUS
10
39.9864
20
-105.791
11
39.5102
21
-105.791
0
LINE
8
BLACK
6
CONTINUOUS
10
41.5102
20
-105.791
11
41.5102
21
-104.458
0
LINE
8
BLACK
6
CONTINUOUS
10
41.5102
20
-104.839
11
41.6054
21
-104.648
0
LINE
8
BLACK
6
CONTINUOUS
10
41.6054
20
-104.648
11
41.7007
21
-104.553
0
LINE
8
BLACK
6
CONTINUOUS
10
41.7007
20
-104.553
11
41.8911
21
-104.458
0
LINE
8
BLACK
6
CONTINUOUS
10
41.8911
20
-104.458
11
42.0816
21
-104.458
0
LINE
8
BLACK
6
CONTINUOUS
10
42.7483
20
-105.791
11
42.7483
21
-104.458
0
LINE
8
BLACK
6
CONTINUOUS
10
42.7483
20
-103.791
11
42.653
21
-103.886
0
LINE
8
BLACK
6
CONTINUOUS
10
42.653
20
-103.886
11
42.7483
21
-103.982
0
LINE
8
BLACK
6
CONTINUOUS
10
42.7483
20
-103.982
11
42.8435
21
-103.886
0
LINE
8
BLACK
6
CONTINUOUS
10
42.8435
20
-103.886
11
42.7483
21
-103.791
0
LINE
8
BLACK
6
CONTINUOUS
10
42.7483
20
-103.791
11
42.7483
21
-103.982
0
LINE
8
BLACK
6
CONTINUOUS
10
43.9864
20
-105.791
11
43.7959
21
-105.696
0
LINE
8
BLACK
6
CONTINUOUS
10
43.7959
20
-105.696
11
43.7007
21
-105.506
0
LINE
8
BLACK
6
CONTINUOUS
10
43.7007
20
-105.506
11
43.7007
21
-103.791
0
LINE
8
BLACK
6
CONTINUOUS
10
45.034
20
-105.791
11
44.8435
21
-105.696
0
LINE
8
BLACK
6
CONTINUOUS
10
44.8435
20
-105.696
11
44.7483
21
-105.506
0
LINE
8
BLACK
6
CONTINUOUS
10
44.7483
20
-105.506
11
44.7483
21
-103.791
0
LINE
8
BLACK
6
CONTINUOUS
10
47.3197
20
-105.791
11
47.3197
21
-103.791
0
LINE
8
BLACK
6
CONTINUOUS
10
47.3197
20
-103.791
11
47.9864
21
-105.22
0
LINE
8
BLACK
6
CONTINUOUS
10
47.9864
20
-105.22
11
48.653
21
-103.791
0
LINE
8
BLACK
6
CONTINUOUS
10
48.653
20
-103.791
11
48.653
21
-105.791
0
LINE
8
BLACK
6
CONTINUOUS
10
50.4626
20
-105.791
11
50.4626
21
-104.744
0
LINE
8
BLACK
6
CONTINUOUS
10
50.4626
20
-104.744
11
50.3673
21
-104.553
0
LINE
8
BLACK
6
CONTINUOUS
10
50.3673
20
-104.553
11
50.1769
21
-104.458
0
LINE
8
BLACK
6
CONTINUOUS
10
50.1769
20
-104.458
11
49.7959
21
-104.458
0
LINE
8
BLACK
6
CONTINUOUS
10
49.7959
20
-104.458
11
49.6054
21
-104.553
0
LINE
8
BLACK
6
CONTINUOUS
10
50.4626
20
-105.696
11
50.2721
21
-105.791
0
LINE
8
BLACK
6
CONTINUOUS
10
50.2721
20
-105.791
11
49.7959
21
-105.791
0
LINE
8
BLACK
6
CONTINUOUS
10
49.7959
20
-105.791
11
49.6054
21
-105.696
0
LINE
8
BLACK
6
CONTINUOUS
10
49.6054
20
-105.696
11
49.5102
21
-105.506
0
LINE
8
BLACK
6
CONTINUOUS
10
49.5102
20
-105.506
11
49.5102
21
-105.315
0
LINE
8
BLACK
6
CONTINUOUS
10
49.5102
20
-105.315
11
49.6054
21
-105.125
0
LINE
8
BLACK
6
CONTINUOUS
10
49.6054
20
-105.125
11
49.7959
21
-105.029
0
LINE
8
BLACK
6
CONTINUOUS
10
49.7959
20
-105.029
11
50.2721
21
-105.029
0
LINE
8
BLACK
6
CONTINUOUS
10
50.2721
20
-105.029
11
50.4626
21
-104.934
0
LINE
8
BLACK
6
CONTINUOUS
10
51.415
20
-104.458
11
51.415
21
-106.458
0
LINE
8
BLACK
6
CONTINUOUS
10
51.415
20
-104.553
11
51.6054
21
-104.458
0
LINE
8
BLACK
6
CONTINUOUS
10
51.6054
20
-104.458
11
51.9864
21
-104.458
0
LINE
8
BLACK
6
CONTINUOUS
10
51.9864
20
-104.458
11
52.1769
21
-104.553
0
LINE
8
BLACK
6
CONTINUOUS
10
52.1769
20
-104.553
11
52.2721
21
-104.648
0
LINE
8
BLACK
6
CONTINUOUS
10
52.2721
20
-104.648
11
52.3673
21
-104.839
0
LINE
8
BLACK
6
CONTINUOUS
10
52.3673
20
-104.839
11
52.3673
21
-105.41
0
LINE
8
BLACK
6
CONTINUOUS
10
52.3673
20
-105.41
11
52.2721
21
-105.601
0
LINE
8
BLACK
6
CONTINUOUS
10
52.2721
20
-105.601
11
52.1769
21
-105.696
0
LINE
8
BLACK
6
CONTINUOUS
10
52.1769
20
-105.696
11
51.9864
21
-105.791
0
LINE
8
BLACK
6
CONTINUOUS
10
51.9864
20
-105.791
11
51.6054
21
-105.791
0
LINE
8
BLACK
6
CONTINUOUS
10
51.6054
20
-105.791
11
51.415
21
-105.696
0
LINE
8
BLACK
6
CONTINUOUS
10
53.2245
20
-105.601
11
53.3197
21
-105.696
0
LINE
8
BLACK
6
CONTINUOUS
10
53.3197
20
-105.696
11
53.2245
21
-105.791
0
LINE
8
BLACK
6
CONTINUOUS
10
53.2245
20
-105.791
11
53.1292
21
-105.696
0
LINE
8
BLACK
6
CONTINUOUS
10
53.1292
20
-105.696
11
53.2245
21
-105.601
0
LINE
8
BLACK
6
CONTINUOUS
10
53.2245
20
-105.601
11
53.2245
21
-105.791
0
LINE
8
BLACK
6
CONTINUOUS
10
53.2245
20
-104.553
11
53.3197
21
-104.648
0
LINE
8
BLACK
6
CONTINUOUS
10
53.3197
20
-104.648
11
53.2245
21
-104.744
0
LINE
8
BLACK
6
CONTINUOUS
10
53.2245
20
-104.744
11
53.1292
21
-104.648
0
LINE
8
BLACK
6
CONTINUOUS
10
53.1292
20
-104.648
11
53.2245
21
-104.553
0
LINE
8
BLACK
6
CONTINUOUS
10
53.2245
20
-104.553
11
53.2245
21
-104.744
0
LINE
8
BLACK
6
CONTINUOUS
10
35.034
20
-108.066
11
37.034
21
-110.066
0
LINE
8
BLACK
6
CONTINUOUS
10
37.034
20
-108.066
11
35.034
21
-110.066
0
LINE
8
BLACK
6
CONTINUOUS
10
39.3197
20
-107.991
11
40.5578
21
-107.991
0
LINE
8
BLACK
6
CONTINUOUS
10
40.5578
20
-107.991
11
39.8911
21
-108.753
0
LINE
8
BLACK
6
CONTINUOUS
10
39.8911
20
-108.753
11
40.1769
21
-108.753
0
LINE
8
BLACK
6
CONTINUOUS
10
40.1769
20
-108.753
11
40.3673
21
-108.848
0
LINE
8
BLACK
6
CONTINUOUS
10
40.3673
20
-108.848
11
40.4626
21
-108.944
0
LINE
8
BLACK
6
CONTINUOUS
10
40.4626
20
-108.944
11
40.5578
21
-109.134
0
LINE
8
BLACK
6
CONTINUOUS
10
40.5578
20
-109.134
11
40.5578
21
-109.61
0
LINE
8
BLACK
6
CONTINUOUS
10
40.5578
20
-109.61
11
40.4626
21
-109.801
0
LINE
8
BLACK
6
CONTINUOUS
10
40.4626
20
-109.801
11
40.3673
21
-109.896
0
LINE
8
BLACK
6
CONTINUOUS
10
40.3673
20
-109.896
11
40.1769
21
-109.991
0
LINE
8
BLACK
6
CONTINUOUS
10
40.1769
20
-109.991
11
39.6054
21
-109.991
0
LINE
8
BLACK
6
CONTINUOUS
10
39.6054
20
-109.991
11
39.415
21
-109.896
0
LINE
8
BLACK
6
CONTINUOUS
10
39.415
20
-109.896
11
39.3197
21
-109.801
0
LINE
8
BLACK
6
CONTINUOUS
10
41.415
20
-109.801
11
41.5102
21
-109.896
0
LINE
8
BLACK
6
CONTINUOUS
10
41.5102
20
-109.896
11
41.415
21
-109.991
0
LINE
8
BLACK
6
CONTINUOUS
10
41.415
20
-109.991
11
41.3197
21
-109.896
0
LINE
8
BLACK
6
CONTINUOUS
10
41.3197
20
-109.896
11
41.415
21
-109.801
0
LINE
8
BLACK
6
CONTINUOUS
10
41.415
20
-109.801
11
41.415
21
-109.991
0
LINE
8
BLACK
6
CONTINUOUS
10
42.2721
20
-108.182
11
42.3673
21
-108.086
0
LINE
8
BLACK
6
CONTINUOUS
10
42.3673
20
-108.086
11
42.5578
21
-107.991
0
LINE
8
BLACK
6
CONTINUOUS
10
42.5578
20
-107.991
11
43.034
21
-107.991
0
LINE
8
BLACK
6
CONTINUOUS
10
43.034
20
-107.991
11
43.2245
21
-108.086
0
LINE
8
BLACK
6
CONTINUOUS
10
43.2245
20
-108.086
11
43.3197
21
-108.182
0
LINE
8
BLACK
6
CONTINUOUS
10
43.3197
20
-108.182
11
43.415
21
-108.372
0
LINE
8
BLACK
6
CONTINUOUS
10
43.415
20
-108.372
11
43.415
21
-108.563
0
LINE
8
BLACK
6
CONTINUOUS
10
43.415
20
-108.563
11
43.3197
21
-108.848
0
LINE
8
BLACK
6
CONTINUOUS
10
43.3197
20
-108.848
11
42.1769
21
-109.991
0
LINE
8
BLACK
6
CONTINUOUS
10
42.1769
20
-109.991
11
43.415
21
-109.991
0
LINE
8
BLACK
6
CONTINUOUS
10
44.653
20
-107.991
11
44.8435
21
-107.991
0
LINE
8
BLACK
6
CONTINUOUS
10
44.8435
20
-107.991
11
45.034
21
-108.086
0
LINE
8
BLACK
6
CONTINUOUS
10
45.034
20
-108.086
11
45.1292
21
-108.182
0
LINE
8
BLACK
6
CONTINUOUS
10
45.1292
20
-108.182
11
45.2245
21
-108.372
0
LINE
8
BLACK
6
CONTINUOUS
10
45.2245
20
-108.372
11
45.3197
21
-108.753
0
LINE
8
BLACK
6
CONTINUOUS
10
45.3197
20
-108.753
11
45.3197
21
-109.229
0
LINE
8
BLACK
6
CONTINUOUS
10
45.3197
20
-109.229
11
45.2245
21
-109.61
0
LINE
8
BLACK
6
CONTINUOUS
10
45.2245
20
-109.61
11
45.1292
21
-109.801
0
LINE
8
BLACK
6
CONTINUOUS
10
45.1292
20
-109.801
11
45.034
21
-109.896
0
LINE
8
BLACK
6
CONTINUOUS
10
45.034
20
-109.896
11
44.8435
21
-109.991
0
LINE
8
BLACK
6
CONTINUOUS
10
44.8435
20
-109.991
11
44.653
21
-109.991
0
LINE
8
BLACK
6
CONTINUOUS
10
44.653
20
-109.991
11
44.4626
21
-109.896
0
LINE
8
BLACK
6
CONTINUOUS
10
44.4626
20
-109.896
11
44.3673
21
-109.801
0
LINE
8
BLACK
6
CONTINUOUS
10
44.3673
20
-109.801
11
44.2721
21
-109.61
0
LINE
8
BLACK
6
CONTINUOUS
10
44.2721
20
-109.61
11
44.1769
21
-109.229
0
LINE
8
BLACK
6
CONTINUOUS
10
44.1769
20
-109.229
11
44.1769
21
-108.753
0
LINE
8
BLACK
6
CONTINUOUS
10
44.1769
20
-108.753
11
44.2721
21
-108.372
0
LINE
8
BLACK
6
CONTINUOUS
10
44.2721
20
-108.372
11
44.3673
21
-108.182
0
LINE
8
BLACK
6
CONTINUOUS
10
44.3673
20
-108.182
11
44.4626
21
-108.086
0
LINE
8
BLACK
6
CONTINUOUS
10
44.4626
20
-108.086
11
44.653
21
-107.991
0
LINE
8
BLACK
6
CONTINUOUS
10
46.5578
20
-107.991
11
46.7483
21
-107.991
0
LINE
8
BLACK
6
CONTINUOUS
10
46.7483
20
-107.991
11
46.9388
21
-108.086
0
LINE
8
BLACK
6
CONTINUOUS
10
46.9388
20
-108.086
11
47.034
21
-108.182
0
LINE
8
BLACK
6
CONTINUOUS
10
47.034
20
-108.182
11
47.1292
21
-108.372
0
LINE
8
BLACK
6
CONTINUOUS
10
47.1292
20
-108.372
11
47.2245
21
-108.753
0
LINE
8
BLACK
6
CONTINUOUS
10
47.2245
20
-108.753
11
47.2245
21
-109.229
0
LINE
8
BLACK
6
CONTINUOUS
10
47.2245
20
-109.229
11
47.1292
21
-109.61
0
LINE
8
BLACK
6
CONTINUOUS
10
47.1292
20
-109.61
11
47.034
21
-109.801
0
LINE
8
BLACK
6
CONTINUOUS
10
47.034
20
-109.801
11
46.9388
21
-109.896
0
LINE
8
BLACK
6
CONTINUOUS
10
46.9388
20
-109.896
11
46.7483
21
-109.991
0
LINE
8
BLACK
6
CONTINUOUS
10
46.7483
20
-109.991
11
46.5578
21
-109.991
0
LINE
8
BLACK
6
CONTINUOUS
10
46.5578
20
-109.991
11
46.3673
21
-109.896
0
LINE
8
BLACK
6
CONTINUOUS
10
46.3673
20
-109.896
11
46.2721
21
-109.801
0
LINE
8
BLACK
6
CONTINUOUS
10
46.2721
20
-109.801
11
46.1769
21
-109.61
0
LINE
8
BLACK
6
CONTINUOUS
10
46.1769
20
-109.61
11
46.0816
21
-109.229
0
LINE
8
BLACK
6
CONTINUOUS
10
46.0816
20
-109.229
11
46.0816
21
-108.753
0
LINE
8
BLACK
6
CONTINUOUS
10
46.0816
20
-108.753
11
46.1769
21
-108.372
0
LINE
8
BLACK
6
CONTINUOUS
10
46.1769
20
-108.372
11
46.2721
21
-108.182
0
LINE
8
BLACK
6
CONTINUOUS
10
46.2721
20
-108.182
11
46.3673
21
-108.086
0
LINE
8
BLACK
6
CONTINUOUS
10
46.3673
20
-108.086
11
46.5578
21
-107.991
0
LINE
8
BLACK
6
CONTINUOUS
10
48.0816
20
-109.991
11
48.0816
21
-108.658
0
LINE
8
BLACK
6
CONTINUOUS
10
48.0816
20
-108.848
11
48.1769
21
-108.753
0
LINE
8
BLACK
6
CONTINUOUS
10
48.1769
20
-108.753
11
48.3673
21
-108.658
0
LINE
8
BLACK
6
CONTINUOUS
10
48.3673
20
-108.658
11
48.653
21
-108.658
0
LINE
8
BLACK
6
CONTINUOUS
10
48.653
20
-108.658
11
48.8435
21
-108.753
0
LINE
8
BLACK
6
CONTINUOUS
10
48.8435
20
-108.753
11
48.9388
21
-108.944
0
LINE
8
BLACK
6
CONTINUOUS
10
48.9388
20
-108.944
11
48.9388
21
-109.991
0
LINE
8
BLACK
6
CONTINUOUS
10
48.9388
20
-108.944
11
49.034
21
-108.753
0
LINE
8
BLACK
6
CONTINUOUS
10
49.034
20
-108.753
11
49.2245
21
-108.658
0
LINE
8
BLACK
6
CONTINUOUS
10
49.2245
20
-108.658
11
49.5102
21
-108.658
0
LINE
8
BLACK
6
CONTINUOUS
10
49.5102
20
-108.658
11
49.7007
21
-108.753
0
LINE
8
BLACK
6
CONTINUOUS
10
49.7007
20
-108.753
11
49.7959
21
-108.944
0
LINE
8
BLACK
6
CONTINUOUS
10
49.7959
20
-108.944
11
49.7959
21
-109.991
0
LINE
8
BLACK
6
CONTINUOUS
10
50.7483
20
-109.991
11
50.7483
21
-108.658
0
LINE
8
BLACK
6
CONTINUOUS
10
50.7483
20
-108.848
11
50.8435
21
-108.753
0
LINE
8
BLACK
6
CONTINUOUS
10
50.8435
20
-108.753
11
51.034
21
-108.658
0
LINE
8
BLACK
6
CONTINUOUS
10
51.034
20
-108.658
11
51.3197
21
-108.658
0
LINE
8
BLACK
6
CONTINUOUS
10
51.3197
20
-108.658
11
51.5102
21
-108.753
0
LINE
8
BLACK
6
CONTINUOUS
10
51.5102
20
-108.753
11
51.6054
21
-108.944
0
LINE
8
BLACK
6
CONTINUOUS
10
51.6054
20
-108.944
11
51.6054
21
-109.991
0
LINE
8
BLACK
6
CONTINUOUS
10
51.6054
20
-108.944
11
51.7007
21
-108.753
0
LINE
8
BLACK
6
CONTINUOUS
10
51.7007
20
-108.753
11
51.8911
21
-108.658
0
LINE
8
BLACK
6
CONTINUOUS
10
51.8911
20
-108.658
11
52.1769
21
-108.658
0
LINE
8
BLACK
6
CONTINUOUS
10
52.1769
20
-108.658
11
52.3673
21
-108.753
0
LINE
8
BLACK
6
CONTINUOUS
10
52.3673
20
-108.753
11
52.4626
21
-108.944
0
LINE
8
BLACK
6
CONTINUOUS
10
52.4626
20
-108.944
11
52.4626
21
-109.991
0
LINE
8
BLACK
6
CONTINUOUS
10
56.3673
20
-107.896
11
54.653
21
-110.467
0
LINE
8
BLACK
6
CONTINUOUS
10
58.9388
20
-107.991
11
59.1292
21
-107.991
0
LINE
8
BLACK
6
CONTINUOUS
10
59.1292
20
-107.991
11
59.3197
21
-108.086
0
LINE
8
BLACK
6
CONTINUOUS
10
59.3197
20
-108.086
11
59.415
21
-108.182
0
LINE
8
BLACK
6
CONTINUOUS
10
59.415
20
-108.182
11
59.5102
21
-108.372
0
LINE
8
BLACK
6
CONTINUOUS
10
59.5102
20
-108.372
11
59.6054
21
-108.753
0
LINE
8
BLACK
6
CONTINUOUS
10
59.6054
20
-108.753
11
59.6054
21
-109.229
0
LINE
8
BLACK
6
CONTINUOUS
10
59.6054
20
-109.229
11
59.5102
21
-109.61
0
LINE
8
BLACK
6
CONTINUOUS
10
59.5102
20
-109.61
11
59.415
21
-109.801
0
LINE
8
BLACK
6
CONTINUOUS
10
59.415
20
-109.801
11
59.3197
21
-109.896
0
LINE
8
BLACK
6
CONTINUOUS
10
59.3197
20
-109.896
11
59.1292
21
-109.991
0
LINE
8
BLACK
6
CONTINUOUS
10
59.1292
20
-109.991
11
58.9388
21
-109.991
0
LINE
8
BLACK
6
CONTINUOUS
10
58.9388
20
-109.991
11
58.7483
21
-109.896
0
LINE
8
BLACK
6
CONTINUOUS
10
58.7483
20
-109.896
11
58.653
21
-109.801
0
LINE
8
BLACK
6
CONTINUOUS
10
58.653
20
-109.801
11
58.5578
21
-109.61
0
LINE
8
BLACK
6
CONTINUOUS
10
58.5578
20
-109.61
11
58.4626
21
-109.229
0
LINE
8
BLACK
6
CONTINUOUS
10
58.4626
20
-109.229
11
58.4626
21
-108.753
0
LINE
8
BLACK
6
CONTINUOUS
10
58.4626
20
-108.753
11
58.5578
21
-108.372
0
LINE
8
BLACK
6
CONTINUOUS
10
58.5578
20
-108.372
11
58.653
21
-108.182
0
LINE
8
BLACK
6
CONTINUOUS
10
58.653
20
-108.182
11
58.7483
21
-108.086
0
LINE
8
BLACK
6
CONTINUOUS
10
58.7483
20
-108.086
11
58.9388
21
-107.991
0
LINE
8
BLACK
6
CONTINUOUS
10
60.4626
20
-109.801
11
60.5578
21
-109.896
0
LINE
8
BLACK
6
CONTINUOUS
10
60.5578
20
-109.896
11
60.4626
21
-109.991
0
LINE
8
BLACK
6
CONTINUOUS
10
60.4626
20
-109.991
11
60.3673
21
-109.896
0
LINE
8
BLACK
6
CONTINUOUS
10
60.3673
20
-109.896
11
60.4626
21
-109.801
0
LINE
8
BLACK
6
CONTINUOUS
10
60.4626
20
-109.801
11
60.4626
21
-109.991
0
LINE
8
BLACK
6
CONTINUOUS
10
62.4626
20
-109.991
11
61.3197
21
-109.991
0
LINE
8
BLACK
6
CONTINUOUS
10
61.8911
20
-109.991
11
61.8911
21
-107.991
0
LINE
8
BLACK
6
CONTINUOUS
10
61.8911
20
-107.991
11
61.7007
21
-108.277
0
LINE
8
BLACK
6
CONTINUOUS
10
61.7007
20
-108.277
11
61.5102
21
-108.467
0
LINE
8
BLACK
6
CONTINUOUS
10
61.5102
20
-108.467
11
61.3197
21
-108.563
0
LINE
8
BLACK
6
CONTINUOUS
10
63.2245
20
-108.182
11
63.3197
21
-108.086
0
LINE
8
BLACK
6
CONTINUOUS
10
63.3197
20
-108.086
11
63.5102
21
-107.991
0
LINE
8
BLACK
6
CONTINUOUS
10
63.5102
20
-107.991
11
63.9864
21
-107.991
0
LINE
8
BLACK
6
CONTINUOUS
10
63.9864
20
-107.991
11
64.1769
21
-108.086
0
LINE
8
BLACK
6
CONTINUOUS
10
64.1769
20
-108.086
11
64.2721
21
-108.182
0
LINE
8
BLACK
6
CONTINUOUS
10
64.2721
20
-108.182
11
64.3673
21
-108.372
0
LINE
8
BLACK
6
CONTINUOUS
10
64.3673
20
-108.372
11
64.3673
21
-108.563
0
LINE
8
BLACK
6
CONTINUOUS
10
64.3673
20
-108.563
11
64.2721
21
-108.848
0
LINE
8
BLACK
6
CONTINUOUS
10
64.2721
20
-108.848
11
63.1292
21
-109.991
0
LINE
8
BLACK
6
CONTINUOUS
10
63.1292
20
-109.991
11
64.3673
21
-109.991
0
LINE
8
BLACK
6
CONTINUOUS
10
66.0816
20
-107.991
11
65.7007
21
-107.991
0
LINE
8
BLACK
6
CONTINUOUS
10
65.7007
20
-107.991
11
65.5102
21
-108.086
0
LINE
8
BLACK
6
CONTINUOUS
10
65.5102
20
-108.086
11
65.415
21
-108.182
0
LINE
8
BLACK
6
CONTINUOUS
10
65.415
20
-108.182
11
65.2245
21
-108.467
0
LINE
8
BLACK
6
CONTINUOUS
10
65.2245
20
-108.467
11
65.1292
21
-108.848
0
LINE
8
BLACK
6
CONTINUOUS
10
65.1292
20
-108.848
11
65.1292
21
-109.61
0
LINE
8
BLACK
6
CONTINUOUS
10
65.1292
20
-109.61
11
65.2245
21
-109.801
0
LINE
8
BLACK
6
CONTINUOUS
10
65.2245
20
-109.801
11
65.3197
21
-109.896
0
LINE
8
BLACK
6
CONTINUOUS
10
65.3197
20
-109.896
11
65.5102
21
-109.991
0
LINE
8
BLACK
6
CONTINUOUS
10
65.5102
20
-109.991
11
65.8911
21
-109.991
0
LINE
8
BLACK
6
CONTINUOUS
10
65.8911
20
-109.991
11
66.0816
21
-109.896
0
LINE
8
BLACK
6
CONTINUOUS
10
66.0816
20
-109.896
11
66.1769
21
-109.801
0
LINE
8
BLACK
6
CONTINUOUS
10
66.1769
20
-109.801
11
66.2721
21
-109.61
0
LINE
8
BLACK
6
CONTINUOUS
10
66.2721
20
-109.61
11
66.2721
21
-109.134
0
LINE
8
BLACK
6
CONTINUOUS
10
66.2721
20
-109.134
11
66.1769
21
-108.944
0
LINE
8
BLACK
6
CONTINUOUS
10
66.1769
20
-108.944
11
66.0816
21
-108.848
0
LINE
8
BLACK
6
CONTINUOUS
10
66.0816
20
-108.848
11
65.8911
21
-108.753
0
LINE
8
BLACK
6
CONTINUOUS
10
65.8911
20
-108.753
11
65.5102
21
-108.753
0
LINE
8
BLACK
6
CONTINUOUS
10
65.5102
20
-108.753
11
65.3197
21
-108.848
0
LINE
8
BLACK
6
CONTINUOUS
10
65.3197
20
-108.848
11
65.2245
21
-108.944
0
LINE
8
BLACK
6
CONTINUOUS
10
65.2245
20
-108.944
11
65.1292
21
-109.134
0
LINE
8
BLACK
6
CONTINUOUS
10
67.5102
20
-107.991
11
67.7007
21
-107.991
0
LINE
8
BLACK
6
CONTINUOUS
10
67.7007
20
-107.991
11
67.8911
21
-108.086
0
LINE
8
BLACK
6
CONTINUOUS
10
67.8911
20
-108.086
11
67.9864
21
-108.182
0
LINE
8
BLACK
6
CONTINUOUS
10
67.9864
20
-108.182
11
68.0816
21
-108.372
0
LINE
8
BLACK
6
CONTINUOUS
10
68.0816
20
-108.372
11
68.1769
21
-108.753
0
LINE
8
BLACK
6
CONTINUOUS
10
68.1769
20
-108.753
11
68.1769
21
-109.229
0
LINE
8
BLACK
6
CONTINUOUS
10
68.1769
20
-109.229
11
68.0816
21
-109.61
0
LINE
8
BLACK
6
CONTINUOUS
10
68.0816
20
-109.61
11
67.9864
21
-109.801
0
LINE
8
BLACK
6
CONTINUOUS
10
67.9864
20
-109.801
11
67.8911
21
-109.896
0
LINE
8
BLACK
6
CONTINUOUS
10
67.8911
20
-109.896
11
67.7007
21
-109.991
0
LINE
8
BLACK
6
CONTINUOUS
10
67.7007
20
-109.991
11
67.5102
21
-109.991
0
LINE
8
BLACK
6
CONTINUOUS
10
67.5102
20
-109.991
11
67.3197
21
-109.896
0
LINE
8
BLACK
6
CONTINUOUS
10
67.3197
20
-109.896
11
67.2245
21
-109.801
0
LINE
8
BLACK
6
CONTINUOUS
10
67.2245
20
-109.801
11
67.1292
21
-109.61
0
LINE
8
BLACK
6
CONTINUOUS
10
67.1292
20
-109.61
11
67.034
21
-109.229
0
LINE
8
BLACK
6
CONTINUOUS
10
67.034
20
-109.229
11
67.034
21
-108.753
0
LINE
8
BLACK
6
CONTINUOUS
10
67.034
20
-108.753
11
67.1292
21
-108.372
0
LINE
8
BLACK
6
CONTINUOUS
10
67.1292
20
-108.372
11
67.2245
21
-108.182
0
LINE
8
BLACK
6
CONTINUOUS
10
67.2245
20
-108.182
11
67.3197
21
-108.086
0
LINE
8
BLACK
6
CONTINUOUS
10
67.3197
20
-108.086
11
67.5102
21
-107.991
0
LINE
8
BLACK
6
CONTINUOUS
10
68.9388
20
-107.991
11
68.9388
21
-108.372
0
LINE
8
BLACK
6
CONTINUOUS
10
69.7007
20
-107.991
11
69.7007
21
-108.372
0
LINE
8
BLACK
6
CONTINUOUS
10
72.6531
20
-110.753
11
72.5578
21
-110.658
0
LINE
8
BLACK
6
CONTINUOUS
10
72.5578
20
-110.658
11
72.3673
21
-110.372
0
LINE
8
BLACK
6
CONTINUOUS
10
72.3673
20
-110.372
11
72.2721
21
-110.182
0
LINE
8
BLACK
6
CONTINUOUS
10
72.2721
20
-110.182
11
72.1769
21
-109.896
0
LINE
8
BLACK
6
CONTINUOUS
10
72.1769
20
-109.896
11
72.0816
21
-109.42
0
LINE
8
BLACK
6
CONTINUOUS
10
72.0816
20
-109.42
11
72.0816
21
-109.039
0
LINE
8
BLACK
6
CONTINUOUS
10
72.0816
20
-109.039
11
72.1769
21
-108.563
0
LINE
8
BLACK
6
CONTINUOUS
10
72.1769
20
-108.563
11
72.2721
21
-108.277
0
LINE
8
BLACK
6
CONTINUOUS
10
72.2721
20
-108.277
11
72.3673
21
-108.086
0
LINE
8
BLACK
6
CONTINUOUS
10
72.3673
20
-108.086
11
72.5578
21
-107.801
0
LINE
8
BLACK
6
CONTINUOUS
10
72.5578
20
-107.801
11
72.6531
21
-107.706
0
LINE
8
BLACK
6
CONTINUOUS
10
73.2245
20
-107.991
11
74.4626
21
-107.991
0
LINE
8
BLACK
6
CONTINUOUS
10
74.4626
20
-107.991
11
73.7959
21
-108.753
0
LINE
8
BLACK
6
CONTINUOUS
10
73.7959
20
-108.753
11
74.0816
21
-108.753
0
LINE
8
BLACK
6
CONTINUOUS
10
74.0816
20
-108.753
11
74.2721
21
-108.848
0
LINE
8
BLACK
6
CONTINUOUS
10
74.2721
20
-108.848
11
74.3673
21
-108.944
0
LINE
8
BLACK
6
CONTINUOUS
10
74.3673
20
-108.944
11
74.4626
21
-109.134
0
LINE
8
BLACK
6
CONTINUOUS
10
74.4626
20
-109.134
11
74.4626
21
-109.61
0
LINE
8
BLACK
6
CONTINUOUS
10
74.4626
20
-109.61
11
74.3673
21
-109.801
0
LINE
8
BLACK
6
CONTINUOUS
10
74.3673
20
-109.801
11
74.2721
21
-109.896
0
LINE
8
BLACK
6
CONTINUOUS
10
74.2721
20
-109.896
11
74.0816
21
-109.991
0
LINE
8
BLACK
6
CONTINUOUS
10
74.0816
20
-109.991
11
73.5102
21
-109.991
0
LINE
8
BLACK
6
CONTINUOUS
10
73.5102
20
-109.991
11
73.3197
21
-109.896
0
LINE
8
BLACK
6
CONTINUOUS
10
73.3197
20
-109.896
11
73.2245
21
-109.801
0
LINE
8
BLACK
6
CONTINUOUS
10
76.8435
20
-109.991
11
76.8435
21
-107.991
0
LINE
8
BLACK
6
CONTINUOUS
10
77.7007
20
-109.991
11
77.7007
21
-108.944
0
LINE
8
BLACK
6
CONTINUOUS
10
77.7007
20
-108.944
11
77.6054
21
-108.753
0
LINE
8
BLACK
6
CONTINUOUS
10
77.6054
20
-108.753
11
77.415
21
-108.658
0
LINE
8
BLACK
6
CONTINUOUS
10
77.415
20
-108.658
11
77.1292
21
-108.658
0
LINE
8
BLACK
6
CONTINUOUS
10
77.1292
20
-108.658
11
76.9388
21
-108.753
0
LINE
8
BLACK
6
CONTINUOUS
10
76.9388
20
-108.753
11
76.8435
21
-108.848
0
LINE
8
BLACK
6
CONTINUOUS
10
78.9388
20
-109.991
11
78.7483
21
-109.896
0
LINE
8
BLACK
6
CONTINUOUS
10
78.7483
20
-109.896
11
78.6531
21
-109.801
0
LINE
8
BLACK
6
CONTINUOUS
10
78.6531
20
-109.801
11
78.5578
21
-109.61
0
LINE
8
BLACK
6
CONTINUOUS
10
78.5578
20
-109.61
11
78.5578
21
-109.039
0
LINE
8
BLACK
6
CONTINUOUS
10
78.5578
20
-109.039
11
78.6531
21
-108.848
0
LINE
8
BLACK
6
CONTINUOUS
10
78.6531
20
-108.848
11
78.7483
21
-108.753
0
LINE
8
BLACK
6
CONTINUOUS
10
78.7483
20
-108.753
11
78.9388
21
-108.658
0
LINE
8
BLACK
6
CONTINUOUS
10
78.9388
20
-108.658
11
79.2245
21
-108.658
0
LINE
8
BLACK
6
CONTINUOUS
10
79.2245
20
-108.658
11
79.415
21
-108.753
0
LINE
8
BLACK
6
CONTINUOUS
10
79.415
20
-108.753
11
79.5102
21
-108.848
0
LINE
8
BLACK
6
CONTINUOUS
10
79.5102
20
-108.848
11
79.6054
21
-109.039
0
LINE
8
BLACK
6
CONTINUOUS
10
79.6054
20
-109.039
11
79.6054
21
-109.61
0
LINE
8
BLACK
6
CONTINUOUS
10
79.6054
20
-109.61
11
79.5102
21
-109.801
0
LINE
8
BLACK
6
CONTINUOUS
10
79.5102
20
-109.801
11
79.415
21
-109.896
0
LINE
8
BLACK
6
CONTINUOUS
10
79.415
20
-109.896
11
79.2245
21
-109.991
0
LINE
8
BLACK
6
CONTINUOUS
10
79.2245
20
-109.991
11
78.9388
21
-109.991
0
LINE
8
BLACK
6
CONTINUOUS
10
80.7483
20
-109.991
11
80.5578
21
-109.896
0
LINE
8
BLACK
6
CONTINUOUS
10
80.5578
20
-109.896
11
80.4626
21
-109.706
0
LINE
8
BLACK
6
CONTINUOUS
10
80.4626
20
-109.706
11
80.4626
21
-107.991
0
LINE
8
BLACK
6
CONTINUOUS
10
82.2721
20
-109.896
11
82.0816
21
-109.991
0
LINE
8
BLACK
6
CONTINUOUS
10
82.0816
20
-109.991
11
81.7007
21
-109.991
0
LINE
8
BLACK
6
CONTINUOUS
10
81.7007
20
-109.991
11
81.5102
21
-109.896
0
LINE
8
BLACK
6
CONTINUOUS
10
81.5102
20
-109.896
11
81.415
21
-109.706
0
LINE
8
BLACK
6
CONTINUOUS
10
81.415
20
-109.706
11
81.415
21
-108.944
0
LINE
8
BLACK
6
CONTINUOUS
10
81.415
20
-108.944
11
81.5102
21
-108.753
0
LINE
8
BLACK
6
CONTINUOUS
10
81.5102
20
-108.753
11
81.7007
21
-108.658
0
LINE
8
BLACK
6
CONTINUOUS
10
81.7007
20
-108.658
11
82.0816
21
-108.658
0
LINE
8
BLACK
6
CONTINUOUS
10
82.0816
20
-108.658
11
82.2721
21
-108.753
0
LINE
8
BLACK
6
CONTINUOUS
10
82.2721
20
-108.753
11
82.3673
21
-108.944
0
LINE
8
BLACK
6
CONTINUOUS
10
82.3673
20
-108.944
11
82.3673
21
-109.134
0
LINE
8
BLACK
6
CONTINUOUS
10
82.3673
20
-109.134
11
81.415
21
-109.325
0
LINE
8
BLACK
6
CONTINUOUS
10
83.1292
20
-109.896
11
83.3197
21
-109.991
0
LINE
8
BLACK
6
CONTINUOUS
10
83.3197
20
-109.991
11
83.7007
21
-109.991
0
LINE
8
BLACK
6
CONTINUOUS
10
83.7007
20
-109.991
11
83.8911
21
-109.896
0
LINE
8
BLACK
6
CONTINUOUS
10
83.8911
20
-109.896
11
83.9864
21
-109.706
0
LINE
8
BLACK
6
CONTINUOUS
10
83.9864
20
-109.706
11
83.9864
21
-109.61
0
LINE
8
BLACK
6
CONTINUOUS
10
83.9864
20
-109.61
11
83.8911
21
-109.42
0
LINE
8
BLACK
6
CONTINUOUS
10
83.8911
20
-109.42
11
83.7007
21
-109.325
0
LINE
8
BLACK
6
CONTINUOUS
10
83.7007
20
-109.325
11
83.415
21
-109.325
0
LINE
8
BLACK
6
CONTINUOUS
10
83.415
20
-109.325
11
83.2245
21
-109.229
0
LINE
8
BLACK
6
CONTINUOUS
10
83.2245
20
-109.229
11
83.1292
21
-109.039
0
LINE
8
BLACK
6
CONTINUOUS
10
83.1292
20
-109.039
11
83.1292
21
-108.944
0
LINE
8
BLACK
6
CONTINUOUS
10
83.1292
20
-108.944
11
83.2245
21
-108.753
0
LINE
8
BLACK
6
CONTINUOUS
10
83.2245
20
-108.753
11
83.415
21
-108.658
0
LINE
8
BLACK
6
CONTINUOUS
10
83.415
20
-108.658
11
83.7007
21
-108.658
0
LINE
8
BLACK
6
CONTINUOUS
10
83.7007
20
-108.658
11
83.8911
21
-108.753
0
LINE
8
BLACK
6
CONTINUOUS
10
84.6531
20
-110.753
11
84.7483
21
-110.658
0
LINE
8
BLACK
6
CONTINUOUS
10
84.7483
20
-110.658
11
84.9388
21
-110.372
0
LINE
8
BLACK
6
CONTINUOUS
10
84.9388
20
-110.372
11
85.034
21
-110.182
0
LINE
8
BLACK
6
CONTINUOUS
10
85.034
20
-110.182
11
85.1292
21
-109.896
0
LINE
8
BLACK
6
CONTINUOUS
10
85.1292
20
-109.896
11
85.2245
21
-109.42
0
LINE
8
BLACK
6
CONTINUOUS
10
85.2245
20
-109.42
11
85.2245
21
-109.039
0
LINE
8
BLACK
6
CONTINUOUS
10
85.2245
20
-109.039
11
85.1292
21
-108.563
0
LINE
8
BLACK
6
CONTINUOUS
10
85.1292
20
-108.563
11
85.034
21
-108.277
0
LINE
8
BLACK
6
CONTINUOUS
10
85.034
20
-108.277
11
84.9388
21
-108.086
0
LINE
8
BLACK
6
CONTINUOUS
10
84.9388
20
-108.086
11
84.7483
21
-107.801
0
LINE
8
BLACK
6
CONTINUOUS
10
84.7483
20
-107.801
11
84.6531
21
-107.706
0
LINE
8
BLACK
6
CONTINUOUS
10
88.2721
20
-110.753
11
88.1769
21
-110.658
0
LINE
8
BLACK
6
CONTINUOUS
10
88.1769
20
-110.658
11
87.9864
21
-110.372
0
LINE
8
BLACK
6
CONTINUOUS
10
87.9864
20
-110.372
11
87.8911
21
-110.182
0
LINE
8
BLACK
6
CONTINUOUS
10
87.8911
20
-110.182
11
87.7959
21
-109.896
0
LINE
8
BLACK
6
CONTINUOUS
10
87.7959
20
-109.896
11
87.7007
21
-109.42
0
LINE
8
BLACK
6
CONTINUOUS
10
87.7007
20
-109.42
11
87.7007
21
-109.039
0
LINE
8
BLACK
6
CONTINUOUS
10
87.7007
20
-109.039
11
87.7959
21
-108.563
0
LINE
8
BLACK
6
CONTINUOUS
10
87.7959
20
-108.563
11
87.8911
21
-108.277
0
LINE
8
BLACK
6
CONTINUOUS
10
87.8911
20
-108.277
11
87.9864
21
-108.086
0
LINE
8
BLACK
6
CONTINUOUS
10
87.9864
20
-108.086
11
88.1769
21
-107.801
0
LINE
8
BLACK
6
CONTINUOUS
10
88.1769
20
-107.801
11
88.2721
21
-107.706
0
LINE
8
BLACK
6
CONTINUOUS
10
89.034
20
-108.658
11
89.034
21
-109.991
0
LINE
8
BLACK
6
CONTINUOUS
10
89.034
20
-108.848
11
89.1292
21
-108.753
0
LINE
8
BLACK
6
CONTINUOUS
10
89.1292
20
-108.753
11
89.3197
21
-108.658
0
LINE
8
BLACK
6
CONTINUOUS
10
89.3197
20
-108.658
11
89.6054
21
-108.658
0
LINE
8
BLACK
6
CONTINUOUS
10
89.6054
20
-108.658
11
89.7959
21
-108.753
0
LINE
8
BLACK
6
CONTINUOUS
10
89.7959
20
-108.753
11
89.8911
21
-108.944
0
LINE
8
BLACK
6
CONTINUOUS
10
89.8911
20
-108.944
11
89.8911
21
-109.991
0
LINE
8
BLACK
6
CONTINUOUS
10
91.1292
20
-109.991
11
90.9388
21
-109.896
0
LINE
8
BLACK
6
CONTINUOUS
10
90.9388
20
-109.896
11
90.8435
21
-109.801
0
LINE
8
BLACK
6
CONTINUOUS
10
90.8435
20
-109.801
11
90.7483
21
-109.61
0
LINE
8
BLACK
6
CONTINUOUS
10
90.7483
20
-109.61
11
90.7483
21
-109.039
0
LINE
8
BLACK
6
CONTINUOUS
10
90.7483
20
-109.039
11
90.8435
21
-108.848
0
LINE
8
BLACK
6
CONTINUOUS
10
90.8435
20
-108.848
11
90.9388
21
-108.753
0
LINE
8
BLACK
6
CONTINUOUS
10
90.9388
20
-108.753
11
91.1292
21
-108.658
0
LINE
8
BLACK
6
CONTINUOUS
10
91.1292
20
-108.658
11
91.415
21
-108.658
0
LINE
8
BLACK
6
CONTINUOUS
10
91.415
20
-108.658
11
91.6054
21
-108.753
0
LINE
8
BLACK
6
CONTINUOUS
10
91.6054
20
-108.753
11
91.7007
21
-108.848
0
LINE
8
BLACK
6
CONTINUOUS
10
91.7007
20
-108.848
11
91.7959
21
-109.039
0
LINE
8
BLACK
6
CONTINUOUS
10
91.7959
20
-109.039
11
91.7959
21
-109.61
0
LINE
8
BLACK
6
CONTINUOUS
10
91.7959
20
-109.61
11
91.7007
21
-109.801
0
LINE
8
BLACK
6
CONTINUOUS
10
91.7007
20
-109.801
11
91.6054
21
-109.896
0
LINE
8
BLACK
6
CONTINUOUS
10
91.6054
20
-109.896
11
91.415
21
-109.991
0
LINE
8
BLACK
6
CONTINUOUS
10
91.415
20
-109.991
11
91.1292
21
-109.991
0
LINE
8
BLACK
6
CONTINUOUS
10
92.3673
20
-108.658
11
93.1292
21
-108.658
0
LINE
8
BLACK
6
CONTINUOUS
10
92.6531
20
-107.991
11
92.6531
21
-109.706
0
LINE
8
BLACK
6
CONTINUOUS
10
92.6531
20
-109.706
11
92.7483
21
-109.896
0
LINE
8
BLACK
6
CONTINUOUS
10
92.7483
20
-109.896
11
92.9388
21
-109.991
0
LINE
8
BLACK
6
CONTINUOUS
10
92.9388
20
-109.991
11
93.1292
21
-109.991
0
LINE
8
BLACK
6
CONTINUOUS
10
95.3197
20
-108.658
11
95.3197
21
-110.658
0
LINE
8
BLACK
6
CONTINUOUS
10
95.3197
20
-108.753
11
95.5102
21
-108.658
0
LINE
8
BLACK
6
CONTINUOUS
10
95.5102
20
-108.658
11
95.8911
21
-108.658
0
LINE
8
BLACK
6
CONTINUOUS
10
95.8911
20
-108.658
11
96.0816
21
-108.753
0
LINE
8
BLACK
6
CONTINUOUS
10
96.0816
20
-108.753
11
96.1769
21
-108.848
0
LINE
8
BLACK
6
CONTINUOUS
10
96.1769
20
-108.848
11
96.2721
21
-109.039
0
LINE
8
BLACK
6
CONTINUOUS
10
96.2721
20
-109.039
11
96.2721
21
-109.61
0
LINE
8
BLACK
6
CONTINUOUS
10
96.2721
20
-109.61
11
96.1769
21
-109.801
0
LINE
8
BLACK
6
CONTINUOUS
10
96.1769
20
-109.801
11
96.0816
21
-109.896
0
LINE
8
BLACK
6
CONTINUOUS
10
96.0816
20
-109.896
11
95.8911
21
-109.991
0
LINE
8
BLACK
6
CONTINUOUS
10
95.8911
20
-109.991
11
95.5102
21
-109.991
0
LINE
8
BLACK
6
CONTINUOUS
10
95.5102
20
-109.991
11
95.3197
21
-109.896
0
LINE
8
BLACK
6
CONTINUOUS
10
97.415
20
-109.991
11
97.2245
21
-109.896
0
LINE
8
BLACK
6
CONTINUOUS
10
97.2245
20
-109.896
11
97.1292
21
-109.706
0
LINE
8
BLACK
6
CONTINUOUS
10
97.1292
20
-109.706
11
97.1292
21
-107.991
0
LINE
8
BLACK
6
CONTINUOUS
10
99.034
20
-109.991
11
99.034
21
-108.944
0
LINE
8
BLACK
6
CONTINUOUS
10
99.034
20
-108.944
11
98.9388
21
-108.753
0
LINE
8
BLACK
6
CONTINUOUS
10
98.9388
20
-108.753
11
98.7483
21
-108.658
0
LINE
8
BLACK
6
CONTINUOUS
10
98.7483
20
-108.658
11
98.3673
21
-108.658
0
LINE
8
BLACK
6
CONTINUOUS
10
98.3673
20
-108.658
11
98.1769
21
-108.753
0
LINE
8
BLACK
6
CONTINUOUS
10
99.034
20
-109.896
11
98.8435
21
-109.991
0
LINE
8
BLACK
6
CONTINUOUS
10
98.8435
20
-109.991
11
98.3673
21
-109.991
0
LINE
8
BLACK
6
CONTINUOUS
10
98.3673
20
-109.991
11
98.1769
21
-109.896
0
LINE
8
BLACK
6
CONTINUOUS
10
98.1769
20
-109.896
11
98.0816
21
-109.706
0
LINE
8
BLACK
6
CONTINUOUS
10
98.0816
20
-109.706
11
98.0816
21
-109.515
0
LINE
8
BLACK
6
CONTINUOUS
10
98.0816
20
-109.515
11
98.1769
21
-109.325
0
LINE
8
BLACK
6
CONTINUOUS
10
98.1769
20
-109.325
11
98.3673
21
-109.229
0
LINE
8
BLACK
6
CONTINUOUS
10
98.3673
20
-109.229
11
98.8435
21
-109.229
0
LINE
8
BLACK
6
CONTINUOUS
10
98.8435
20
-109.229
11
99.034
21
-109.134
0
LINE
8
BLACK
6
CONTINUOUS
10
99.7007
20
-108.658
11
100.463
21
-108.658
0
LINE
8
BLACK
6
CONTINUOUS
10
99.9864
20
-107.991
11
99.9864
21
-109.706
0
LINE
8
BLACK
6
CONTINUOUS
10
99.9864
20
-109.706
11
100.082
21
-109.896
0
LINE
8
BLACK
6
CONTINUOUS
10
100.082
20
-109.896
11
100.272
21
-109.991
0
LINE
8
BLACK
6
CONTINUOUS
10
100.272
20
-109.991
11
100.463
21
-109.991
0
LINE
8
BLACK
6
CONTINUOUS
10
101.891
20
-109.896
11
101.701
21
-109.991
0
LINE
8
BLACK
6
CONTINUOUS
10
101.701
20
-109.991
11
101.32
21
-109.991
0
LINE
8
BLACK
6
CONTINUOUS
10
101.32
20
-109.991
11
101.129
21
-109.896
0
LINE
8
BLACK
6
CONTINUOUS
10
101.129
20
-109.896
11
101.034
21
-109.706
0
LINE
8
BLACK
6
CONTINUOUS
10
101.034
20
-109.706
11
101.034
21
-108.944
0
LINE
8
BLACK
6
CONTINUOUS
10
101.034
20
-108.944
11
101.129
21
-108.753
0
LINE
8
BLACK
6
CONTINUOUS
10
101.129
20
-108.753
11
101.32
21
-108.658
0
LINE
8
BLACK
6
CONTINUOUS
10
101.32
20
-108.658
11
101.701
21
-108.658
0
LINE
8
BLACK
6
CONTINUOUS
10
101.701
20
-108.658
11
101.891
21
-108.753
0
LINE
8
BLACK
6
CONTINUOUS
10
101.891
20
-108.753
11
101.986
21
-108.944
0
LINE
8
BLACK
6
CONTINUOUS
10
101.986
20
-108.944
11
101.986
21
-109.134
0
LINE
8
BLACK
6
CONTINUOUS
10
101.986
20
-109.134
11
101.034
21
-109.325
0
LINE
8
BLACK
6
CONTINUOUS
10
103.701
20
-109.991
11
103.701
21
-107.991
0
LINE
8
BLACK
6
CONTINUOUS
10
103.701
20
-109.896
11
103.51
21
-109.991
0
LINE
8
BLACK
6
CONTINUOUS
10
103.51
20
-109.991
11
103.129
21
-109.991
0
LINE
8
BLACK
6
CONTINUOUS
10
103.129
20
-109.991
11
102.939
21
-109.896
0
LINE
8
BLACK
6
CONTINUOUS
10
102.939
20
-109.896
11
102.844
21
-109.801
0
LINE
8
BLACK
6
CONTINUOUS
10
102.844
20
-109.801
11
102.748
21
-109.61
0
LINE
8
BLACK
6
CONTINUOUS
10
102.748
20
-109.61
11
102.748
21
-109.039
0
LINE
8
BLACK
6
CONTINUOUS
10
102.748
20
-109.039
11
102.844
21
-108.848
0
LINE
8
BLACK
6
CONTINUOUS
10
102.844
20
-108.848
11
102.939
21
-108.753
0
LINE
8
BLACK
6
CONTINUOUS
10
102.939
20
-108.753
11
103.129
21
-108.658
0
LINE
8
BLACK
6
CONTINUOUS
10
103.129
20
-108.658
11
103.51
21
-108.658
0
LINE
8
BLACK
6
CONTINUOUS
10
103.51
20
-108.658
11
103.701
21
-108.753
0
LINE
8
BLACK
6
CONTINUOUS
10
104.463
20
-110.753
11
104.558
21
-110.658
0
LINE
8
BLACK
6
CONTINUOUS
10
104.558
20
-110.658
11
104.748
21
-110.372
0
LINE
8
BLACK
6
CONTINUOUS
10
104.748
20
-110.372
11
104.844
21
-110.182
0
LINE
8
BLACK
6
CONTINUOUS
10
104.844
20
-110.182
11
104.939
21
-109.896
0
LINE
8
BLACK
6
CONTINUOUS
10
104.939
20
-109.896
11
105.034
21
-109.42
0
LINE
8
BLACK
6
CONTINUOUS
10
105.034
20
-109.42
11
105.034
21
-109.039
0
LINE
8
BLACK
6
CONTINUOUS
10
105.034
20
-109.039
11
104.939
21
-108.563
0
LINE
8
BLACK
6
CONTINUOUS
10
104.939
20
-108.563
11
104.844
21
-108.277
0
LINE
8
BLACK
6
CONTINUOUS
10
104.844
20
-108.277
11
104.748
21
-108.086
0
LINE
8
BLACK
6
CONTINUOUS
10
104.748
20
-108.086
11
104.558
21
-107.801
0
LINE
8
BLACK
6
CONTINUOUS
10
104.558
20
-107.801
11
104.463
21
-107.706
  0
ENDSEC
  0
EOF
