M48
; DRILL file {KiCad 9.0.2} date 2025-06-16T09:35:20-0700
; FORMAT={-:-/ absolute / metric / decimal}
; #@! TF.CreationDate,2025-06-16T09:35:20-07:00
; #@! TF.GenerationSoftware,Kicad,Pcbnew,9.0.2
; #@! TF.FileFunction,Plated,1,4,PTH
FMAT,2
METRIC
; #@! TA.AperFunction,Plated,PTH,ViaDrill
T1C0.300
; #@! TA.AperFunction,Plated,PTH,ViaDrill
T2C0.400
; #@! TA.AperFunction,Plated,PTH,ComponentDrill
T3C0.400
; #@! TA.AperFunction,Plated,PTH,ComponentDrill
T4C0.600
; #@! TA.AperFunction,Plated,PTH,ComponentDrill
T5C0.620
; #@! TA.AperFunction,Plated,PTH,ComponentDrill
T6C0.800
; #@! TA.AperFunction,Plated,PTH,ComponentDrill
T7C0.900
; #@! TA.AperFunction,Plated,PTH,ComponentDrill
T8C1.000
; #@! TA.AperFunction,Plated,PTH,ComponentDrill
T9C1.400
%
G90
G05
T1
X0.8Y-9.625
X1.097Y-7.156
X2.55Y-2.15
X3.0Y-2.775
X5.1Y-22.0
X8.3Y-18.0
X9.3Y-9.05
X10.9Y-9.1
X10.9Y-10.6
X12.8Y-12.8
X14.1Y-10.6
X14.2Y-9.1
X16.0Y-2.3
X16.2Y-4.3
X16.6Y-13.175
X16.9Y-2.3
X16.9Y-5.5
X18.1Y-2.3
X18.5Y-10.3
X18.629Y-12.729
X19.0Y-2.3
X21.105Y-24.205
X21.4Y-20.3
X23.6Y-14.0
X24.199Y-6.489
X25.1Y-22.0
X31.0Y-8.5
X31.033Y-13.2
X32.0Y-13.194
X33.0Y-13.194
X33.4Y-20.5
X33.4Y-21.4
X33.4Y-22.4
X33.742Y-10.8
X34.0Y-13.194
X36.1Y-8.7
X36.4Y-14.0
X37.3Y-1.6
X39.3Y-8.35
X39.8Y-3.3
X40.0Y-4.9
X40.6Y-3.3
X40.8Y-11.3
X41.473Y-10.927
X41.9Y-19.3
X42.1Y-10.2
X42.9Y-1.6
X43.0Y-10.2
X44.2Y-10.2
X44.9Y-10.5
X45.0Y-11.5
X45.1Y-22.0
X45.4Y-4.0
X45.45Y-6.25
X46.4Y-1.9
X46.7Y-11.9
X46.886Y-13.414
X47.004Y-12.673
X47.2Y-8.0
X47.4Y-6.2
X48.4Y-2.0
X48.8Y-4.1
X50.05Y-7.0
X52.2Y-1.6
X55.2Y-5.0
X55.35Y-18.394
T2
X1.6Y-15.6
X2.8Y-1.175
X6.713Y-6.338
X8.7Y-24.6
X12.4Y-5.4
X12.5Y-9.85
X16.2Y-9.3
X17.2Y-23.9
X19.2Y-23.7
X21.464Y-17.925
X28.7Y-24.6
X30.2Y-17.6
X39.2Y-23.5
X39.2Y-28.7
X41.7Y-14.4
X42.5Y-6.6
X44.4Y-32.3
X48.7Y-24.6
X50.525Y-14.031
X54.1Y-19.1
X54.9Y-9.4
T3
X26.225Y-4.775
X26.225Y-6.125
X27.075Y-4.775
X27.075Y-6.125
X27.925Y-4.775
X27.925Y-6.125
X28.775Y-4.775
X28.775Y-6.125
X29.625Y-4.775
X29.625Y-6.125
X30.475Y-4.775
X30.475Y-6.125
X31.325Y-4.775
X31.325Y-6.125
X32.175Y-4.775
X32.175Y-6.125
T5
X5.7Y-27.78
X8.2Y-27.78
X10.2Y-27.78
X12.7Y-27.78
X25.7Y-27.78
X28.2Y-27.78
X30.2Y-27.78
X32.7Y-27.78
X45.7Y-27.78
X48.2Y-27.78
X50.2Y-27.78
X52.7Y-27.78
T6
X7.325Y-21.12
X8.575Y-21.12
X9.825Y-21.12
X11.075Y-21.12
X27.325Y-21.12
X28.575Y-21.12
X29.825Y-21.12
X31.075Y-21.12
X47.325Y-21.12
X48.575Y-21.12
X49.825Y-21.12
X51.075Y-21.12
T8
X56.8Y-4.22
X56.8Y-6.76
X56.8Y-9.3
X56.8Y-11.84
T4
G00X24.875Y-2.165
M15
G01X24.875Y-1.365
M16
G05
G00X24.875Y-5.895
M15
G01X24.875Y-4.395
M16
G05
G00X33.525Y-2.165
M15
G01X33.525Y-1.365
M16
G05
G00X33.525Y-5.895
M15
G01X33.525Y-4.395
M16
G05
T7
G00X2.8Y-21.34
M15
G01X2.8Y-22.66
M16
G05
G00X2.8Y-28.84
M15
G01X2.8Y-30.16
M16
G05
G00X15.6Y-21.34
M15
G01X15.6Y-22.66
M16
G05
G00X15.6Y-28.84
M15
G01X15.6Y-30.16
M16
G05
G00X22.8Y-21.34
M15
G01X22.8Y-22.66
M16
G05
G00X22.8Y-28.84
M15
G01X22.8Y-30.16
M16
G05
G00X35.6Y-21.34
M15
G01X35.6Y-22.66
M16
G05
G00X35.6Y-28.84
M15
G01X35.6Y-30.16
M16
G05
G00X42.8Y-21.34
M15
G01X42.8Y-22.66
M16
G05
G00X42.8Y-28.84
M15
G01X42.8Y-30.16
M16
G05
G00X55.6Y-21.34
M15
G01X55.6Y-22.66
M16
G05
G00X55.6Y-28.84
M15
G01X55.6Y-30.16
M16
G05
T9
G00X9.2Y-36.49
M15
G01X9.2Y-36.59
M16
G05
G00X29.2Y-36.49
M15
G01X29.2Y-36.59
M16
G05
G00X49.2Y-36.49
M15
G01X49.2Y-36.59
M16
G05
M30
